<svg width="500" height="501" viewBox="0 0 500 501" fill="none" xmlns="http://www.w3.org/2000/svg">
<path d="M154.47 56.49H52.9004V162.36H154.47V56.49Z" fill="#E0E0E0"/>
<path d="M147.59 56.49H46.0195V162.36H147.59V56.49Z" fill="#FAFAFA"/>
<path d="M147.62 162.36H46V56.46H147.62V162.36ZM46.05 162.36H147.56V56.53H46.05V162.36Z" fill="#E0E0E0"/>
<path d="M133.93 70.73H59.6699V148.14H133.93V70.73Z" fill="#FAFAFA"/>
<path d="M59.6701 148.65C59.1482 149.431 58.5337 150.146 57.8401 150.78C56.6601 152.03 54.9901 153.78 53.1201 155.57C51.2501 157.36 49.5401 159.05 48.2701 160.21C47.6244 160.887 46.903 161.488 46.1201 162C46.6597 161.221 47.2908 160.509 48.0001 159.88C49.1801 158.63 50.8501 156.88 52.7301 155.08C54.6101 153.28 56.3201 151.59 57.5901 150.43C58.2136 149.76 58.9114 149.162 59.6701 148.65Z" fill="#E0E0E0"/>
<path d="M133.93 148.46C134.708 148.986 135.422 149.6 136.06 150.29C137.32 151.48 139.01 153.15 140.85 155.01C142.69 156.87 144.33 158.6 145.49 159.87C146.172 160.507 146.774 161.226 147.28 162.01C146.504 161.489 145.792 160.878 145.16 160.19C143.91 159 142.21 157.33 140.36 155.46C138.51 153.59 136.88 151.86 135.71 150.6C135.034 149.959 134.437 149.241 133.93 148.46Z" fill="#E0E0E0"/>
<path d="M133.73 70.93C134.256 70.1519 134.871 69.4372 135.56 68.8C136.75 67.55 138.42 65.86 140.28 64.02C142.14 62.18 143.87 60.54 145.14 59.37C145.779 58.692 146.498 58.0942 147.28 57.59C146.759 58.3658 146.148 59.0773 145.46 59.71C144.27 60.96 142.6 62.66 140.73 64.5C138.86 66.34 137.13 67.99 135.87 69.16C135.231 69.8344 134.513 70.4287 133.73 70.93Z" fill="#E0E0E0"/>
<path d="M59.4701 71.12C58.689 70.598 57.9738 69.9836 57.3401 69.29C56.0901 68.11 54.4001 66.44 52.5601 64.57C50.7201 62.7 49.0801 60.99 47.9101 59.72C47.233 59.0743 46.6324 58.3529 46.1201 57.57C46.8967 58.0826 47.6115 58.6832 48.2501 59.36C49.5001 60.54 51.2501 62.21 53.0401 64.09C54.8301 65.97 56.5301 67.68 57.6901 68.95C58.3726 69.5953 58.9707 70.3245 59.4701 71.12Z" fill="#E0E0E0"/>
<path d="M133.73 148.14C133.73 148.14 133.73 148 133.73 147.76C133.73 147.52 133.73 147.14 133.73 146.68C133.73 145.68 133.73 144.31 133.73 142.5C133.73 138.83 133.73 133.5 133.65 126.72C133.65 113.17 133.57 93.85 133.5 70.72L133.79 71H59.7895L60.1095 70.67C60.1095 99.08 60.1095 125.67 60.1095 148.08L59.8295 147.79L113.45 147.94L128.51 148.01H132.51H133.51H133.87H133.54H132.54H128.61L113.61 148.08L59.8095 148.23H59.5195V147.95C59.5195 125.53 59.5195 98.95 59.5195 70.54V70.36H59.8495H133.85H134V70.65C133.94 93.85 133.89 113.23 133.85 126.83C133.85 133.57 133.79 138.89 133.78 142.54C133.78 144.33 133.78 145.71 133.78 146.66C133.78 147.11 133.78 147.46 133.78 147.71C133.777 147.855 133.76 147.999 133.73 148.14Z" fill="#E0E0E0"/>
<path d="M109.19 97.04H84.4102V121.82H109.19V97.04Z" fill="#EBEBEB"/>
<path d="M399.729 58.3857L389.919 58.4388L390.183 107.268L399.993 107.215L399.729 58.3857Z" fill="#E0E0E0"/>
<path d="M330.31 58.5216L304.9 58.6591L305.046 85.6187L330.456 85.4812L330.31 58.5216Z" fill="#EBEBEB"/>
<path d="M355.619 58.3847L330.199 58.5222L330.345 85.4818L355.765 85.3443L355.619 58.3847Z" fill="#F5F5F5"/>
<path d="M304.94 66.12C321.827 66.26 338.73 66.1833 355.65 65.89C355.722 65.89 355.79 65.8615 355.841 65.8109C355.892 65.7603 355.92 65.6916 355.92 65.62C355.92 65.5484 355.892 65.4797 355.841 65.4291C355.79 65.3784 355.722 65.35 355.65 65.35C338.76 65.26 321.82 65.35 304.94 65.66C304.879 65.66 304.82 65.6842 304.777 65.7273C304.734 65.7705 304.71 65.829 304.71 65.89C304.71 65.951 304.734 66.0095 304.777 66.0526C304.82 66.0958 304.879 66.12 304.94 66.12Z" fill="#E0E0E0"/>
<path d="M335.224 85.0347L289.055 85.2845L289.174 107.254L335.343 107.004L335.224 85.0347Z" fill="#EBEBEB"/>
<path d="M381.182 84.7861L335.013 85.0359L335.132 107.006L381.301 106.756L381.182 84.7861Z" fill="#F5F5F5"/>
<path d="M289.09 91.41C319.76 91.76 350.54 91.41 381.22 90.95C381.292 90.95 381.361 90.9216 381.411 90.8709C381.462 90.8203 381.49 90.7516 381.49 90.68C381.49 90.6084 381.462 90.5397 381.411 90.4891C381.361 90.4385 381.292 90.41 381.22 90.41C350.55 90.25 319.76 90.27 289.09 90.95C289.029 90.95 288.971 90.9742 288.928 91.0174C288.885 91.0605 288.86 91.119 288.86 91.18C288.86 91.241 288.885 91.2995 288.928 91.3426C288.971 91.3858 289.029 91.41 289.09 91.41Z" fill="#E0E0E0"/>
<path d="M450.71 107.27H271.82V115.14H450.71V107.27Z" fill="#E0E0E0"/>
<path d="M308.37 111.05H301.11V126.85H308.37V111.05Z" fill="#E0E0E0"/>
<path d="M416.78 111.05H409.52V126.85H416.78V111.05Z" fill="#E0E0E0"/>
<path d="M409.31 40.1839L399.5 40.2369L399.863 107.396L409.673 107.343L409.31 40.1839Z" fill="#EBEBEB"/>
<path d="M424.647 52.6909L409.397 52.7734L409.692 107.203L424.942 107.12L424.647 52.6909Z" fill="#F5F5F5"/>
<path d="M424.54 63.19C422.01 63.46 419.463 63.5502 416.92 63.46C414.374 63.5501 411.824 63.4599 409.29 63.19C414.367 62.8433 419.463 62.8433 424.54 63.19Z" fill="#E0E0E0"/>
<path d="M424.54 60.91C422.009 61.1674 419.463 61.2543 416.92 61.17C414.374 61.254 411.825 61.1671 409.29 60.91C414.367 60.55 419.463 60.55 424.54 60.91Z" fill="#E0E0E0"/>
<path d="M424.54 98.95C419.463 99.2967 414.367 99.2967 409.29 98.95C414.367 98.59 419.463 98.59 424.54 98.95Z" fill="#E0E0E0"/>
<path d="M424.54 96.66C419.463 97.0067 414.367 97.0067 409.29 96.66C414.367 96.3134 419.463 96.3134 424.54 96.66Z" fill="#E0E0E0"/>
<path d="M417.17 91.67C417.02 91.67 416.9 86.18 416.9 79.41C416.9 72.64 417.02 67.14 417.17 67.14C417.32 67.14 417.43 72.63 417.43 79.41C417.43 86.19 417.31 91.67 417.17 91.67Z" fill="#E0E0E0"/>
<path d="M441.31 66.07H424.71V107.15H441.31V66.07Z" fill="#EBEBEB"/>
<path d="M407.08 51.67C407.08 52.2277 406.915 52.773 406.605 53.2367C406.295 53.7005 405.855 54.0619 405.34 54.2753C404.824 54.4888 404.257 54.5446 403.71 54.4358C403.163 54.327 402.661 54.0584 402.266 53.664C401.872 53.2697 401.603 52.7672 401.495 52.2202C401.386 51.6731 401.442 51.1061 401.655 50.5908C401.869 50.0755 402.23 49.6351 402.694 49.3253C403.157 49.0154 403.703 48.85 404.26 48.85C405.008 48.85 405.726 49.1471 406.254 49.676C406.783 50.2048 407.08 50.9221 407.08 51.67Z" fill="#E0E0E0"/>
<path d="M405.13 59.43H403.39V99.38H405.13V59.43Z" fill="#E0E0E0"/>
<path d="M402.13 152.26C404.141 150.495 406.377 149.006 408.78 147.83L408.99 140.43L420.99 138.06L423.99 144.83C426.662 145.002 429.298 145.53 431.83 146.4L437.21 141.31L447.39 148.14L444.72 155.05C446.489 157.057 447.979 159.294 449.15 161.7L456.56 161.91L458.93 173.91L452.15 176.91C451.981 179.578 451.457 182.211 450.59 184.74L455.67 190.12L448.88 200.36L442 197.67C439.988 199.437 437.748 200.927 435.34 202.1L435.14 209.5L423.14 211.87L420.14 205.1C417.469 204.928 414.832 204.4 412.3 203.53L406.92 208.62L396.74 201.79L399.41 194.88C397.641 192.873 396.151 190.636 394.98 188.23L387.57 188.02L385.2 176.02L391.97 173.02C392.147 170.352 392.675 167.72 393.54 165.19L388.46 159.81L395.28 149.63L402.19 152.29L402.13 152.26ZM411.44 167.18C409.991 169.34 409.216 171.882 409.211 174.483C409.207 177.084 409.974 179.628 411.415 181.793C412.857 183.958 414.908 185.647 417.31 186.646C419.712 187.645 422.356 187.91 424.907 187.406C427.459 186.902 429.805 185.653 431.646 183.817C433.488 181.98 434.744 179.638 435.255 177.088C435.766 174.537 435.509 171.893 434.517 169.488C433.524 167.084 431.841 165.028 429.68 163.58C426.784 161.64 423.235 160.929 419.815 161.604C416.395 162.279 413.382 164.285 411.44 167.18Z" fill="#FF6464"/>
<path d="M346.88 147.47C348.009 146.784 349.227 146.256 350.5 145.9L351.24 142.32L357.29 142.21L358.16 145.76C359.443 146.075 360.678 146.563 361.83 147.21L364.89 145.21L369.25 149.42L367.35 152.54C368.034 153.67 368.562 154.888 368.92 156.16L372.5 156.91L372.61 162.96L369.06 163.83C368.737 165.111 368.249 166.344 367.61 167.5L369.61 170.56L365.4 174.91L362.28 173.01C361.148 173.693 359.931 174.224 358.66 174.59L357.91 178.17L351.86 178.27L350.99 174.72C349.708 174.405 348.474 173.921 347.32 173.28L344.26 175.28L339.91 171.08L341.81 167.95C341.121 166.821 340.589 165.603 340.23 164.33L336.65 163.59L336.55 157.54L340.1 156.67C340.412 155.387 340.896 154.153 341.54 153L339.54 149.94L343.74 145.58L346.87 147.48L346.88 147.47ZM350.1 155.53C349.209 156.454 348.611 157.621 348.383 158.883C348.155 160.146 348.306 161.449 348.818 162.626C349.33 163.803 350.18 164.801 351.259 165.495C352.339 166.19 353.6 166.548 354.883 166.526C356.166 166.504 357.414 166.101 358.468 165.37C359.523 164.638 360.337 163.611 360.808 162.417C361.278 161.223 361.384 159.916 361.112 158.662C360.84 157.407 360.203 156.262 359.28 155.37C358.667 154.777 357.943 154.312 357.15 153.999C356.356 153.686 355.509 153.533 354.657 153.548C353.804 153.563 352.963 153.745 352.181 154.086C351.399 154.426 350.692 154.916 350.1 155.53Z" fill="#455A64"/>
<path d="M350.1 155.53C350.442 155.112 350.851 154.754 351.31 154.47C352.566 153.657 354.064 153.304 355.55 153.47C356.575 153.572 357.562 153.915 358.43 154.47C359.422 155.122 360.223 156.026 360.75 157.09C361.043 157.661 361.242 158.276 361.34 158.91C361.45 159.572 361.45 160.248 361.34 160.91C361.157 162.321 360.526 163.635 359.54 164.66C358.548 165.677 357.26 166.352 355.86 166.59C355.198 166.7 354.522 166.7 353.86 166.59C353.224 166.511 352.603 166.336 352.02 166.07C350.934 165.581 350.001 164.807 349.32 163.83C348.591 162.798 348.178 161.577 348.13 160.315C348.082 159.053 348.401 157.804 349.05 156.72C349.316 156.257 349.654 155.838 350.05 155.48C350.05 155.48 349.66 155.91 349.16 156.8C348.466 158.065 348.213 159.525 348.44 160.95C348.611 161.995 349.039 162.982 349.687 163.82C350.335 164.658 351.181 165.322 352.15 165.75C352.705 166.001 353.295 166.166 353.9 166.24C354.526 166.345 355.164 166.345 355.79 166.24C357.114 166.016 358.332 165.374 359.264 164.408C360.196 163.441 360.794 162.201 360.97 160.87C361.07 160.244 361.07 159.606 360.97 158.98C360.88 158.379 360.698 157.796 360.43 157.25C360.038 156.454 359.485 155.747 358.806 155.176C358.127 154.604 357.337 154.179 356.485 153.928C355.634 153.678 354.74 153.606 353.859 153.718C352.979 153.83 352.131 154.124 351.37 154.58C350.52 155.12 350.14 155.56 350.1 155.53Z" fill="#455A64"/>
<path d="M346.88 147.47L346.68 147.36L346.08 147.02L343.72 145.62H343.79L339.62 149.99V149.88L341.62 152.88V152.93V152.99C340.984 154.137 340.506 155.365 340.2 156.64V156.71H340.13L336.58 157.6L336.68 157.46C336.72 159.367 336.76 161.383 336.8 163.51L336.68 163.37L340.27 164.11H340.36V164.2C340.736 165.489 341.288 166.721 342 167.86L342.05 167.94L342 168.02L340.11 171.15V170.95L344.46 175.15H344.25L347.31 173.15L347.39 173.09L347.49 173.14C348.632 173.774 349.852 174.255 351.12 174.57H351.22V174.68L352.09 178.23L351.91 178.09L357.96 177.98L357.78 178.13C358.02 177 358.27 175.78 358.53 174.55V174.44H358.64C359.892 174.081 361.092 173.559 362.21 172.89H362.31H362.4L365.53 174.79H365.3L369.5 170.44V170.67L367.5 167.61L367.44 167.51L367.49 167.42C368.129 166.28 368.61 165.059 368.92 163.79V163.69H369.02L372.58 162.82L372.44 163C372.44 160.93 372.37 158.92 372.34 156.95L372.48 157.11L368.9 156.36H368.8V156.27C368.447 155.009 367.925 153.802 367.25 152.68V152.6V152.52L369.15 149.4V149.59L364.8 145.37H364.98L361.92 147.37H361.85H361.78C360.636 146.731 359.412 146.247 358.14 145.93H358.07V145.86C357.76 144.57 357.48 143.41 357.22 142.31L357.32 142.39L351.27 142.47L351.35 142.4C351.05 143.83 350.8 145 350.59 145.98C349.637 146.246 348.713 146.604 347.83 147.05L347.18 147.39L346.96 147.5C347.023 147.449 347.09 147.402 347.16 147.36L347.8 146.99C348.68 146.525 349.605 146.15 350.56 145.87C350.76 144.87 350.99 143.72 351.28 142.29V142.22H351.35L357.4 142.09H357.49V142.17C357.76 143.27 358.05 144.43 358.37 145.72L358.28 145.63C359.576 145.945 360.824 146.433 361.99 147.08H361.85L364.9 145.08L365 145.02L365.08 145.1L369.44 149.29L369.53 149.38L369.47 149.49C368.85 150.49 368.23 151.54 367.58 152.61V152.45C368.27 153.591 368.804 154.818 369.17 156.1L369.05 155.99L372.63 156.73H372.76V156.86C372.8 158.86 372.84 160.877 372.88 162.91V163.05H372.74L369.19 163.92L369.32 163.79C369.004 165.09 368.513 166.342 367.86 167.51V167.36L369.86 170.41L369.94 170.54L369.84 170.64L365.64 175L365.53 175.1L365.41 175.03L362.28 173.13H362.47C361.329 173.826 360.097 174.362 358.81 174.72L358.94 174.58C358.69 175.81 358.43 177.03 358.2 178.16V178.31H358.05L352 178.41H351.85V178.27C351.55 177.04 351.25 175.83 350.98 174.71L351.11 174.84C349.814 174.521 348.566 174.03 347.4 173.38H347.58L344.52 175.38L344.4 175.46L344.3 175.36L339.96 171.16L339.86 171.06L339.93 170.95L341.83 167.83V167.99C341.09 166.865 340.507 165.644 340.1 164.36L340.21 164.47L336.63 163.72H336.52V163.6C336.52 161.48 336.45 159.45 336.42 157.55V157.44H336.53L340.08 156.58L339.99 156.67C340.313 155.377 340.808 154.133 341.46 152.97V153.09L339.46 150.02V149.96L339.51 149.9L343.74 145.57L346.05 147.01L346.64 147.38C346.722 147.404 346.802 147.434 346.88 147.47Z" fill="#455A64"/>
<path d="M367.87 328.46L347.23 325.29L346.34 312.72C342.176 310.913 338.272 308.559 334.73 305.72L323.17 310.72L310.81 293.88L319.06 284.37C317.4 280.137 316.314 275.701 315.83 271.18L304.09 266.56L307.26 245.92L319.82 245.03C321.63 240.868 323.984 236.964 326.82 233.42L321.82 221.86L338.66 209.5L348.16 217.75C352.394 216.095 356.83 215.009 361.35 214.52L366 202.73L386.64 205.9L387.53 218.46C391.693 220.269 395.597 222.623 399.14 225.46L410.71 220.46L423.12 237.36L414.87 246.86C416.525 251.094 417.608 255.53 418.09 260.05L429.83 264.67L426.65 285.36L414.08 286.24C412.271 290.403 409.917 294.307 407.08 297.85L412.08 309.42L395.2 321.76L385.69 313.51C381.456 315.166 377.02 316.249 372.5 316.73L367.87 328.46ZM347.26 325.24L367.84 328.41L372.46 316.68C376.988 316.201 381.431 315.114 385.67 313.45L395.18 321.7L412 309.36L407 297.81C409.84 294.266 412.194 290.358 414 286.19L426.56 285.31L429.72 264.73L418 260.09C417.519 255.565 416.433 251.125 414.77 246.89L423.02 237.39L410.7 220.6L399.15 225.6C395.607 222.744 391.7 220.373 387.53 218.55L386.65 205.99L366.06 202.83L361.45 214.56C356.927 215.049 352.488 216.135 348.25 217.79L338.75 209.54L321.96 221.86L326.96 233.41C324.098 236.953 321.727 240.864 319.91 245.04L307.35 245.93L304.19 266.51L315.92 271.13C316.387 275.662 317.457 280.111 319.1 284.36L310.85 293.86L323.17 310.64L334.72 305.64C338.267 308.481 342.179 310.835 346.35 312.64L347.26 325.24ZM367.74 287.44C366.595 287.438 365.452 287.351 364.32 287.18C361.056 286.674 357.945 285.452 355.209 283.603C352.473 281.753 350.18 279.322 348.494 276.482C346.808 273.643 345.77 270.466 345.456 267.178C345.141 263.891 345.557 260.574 346.675 257.467C347.792 254.359 349.582 251.537 351.918 249.202C354.254 246.867 357.077 245.078 360.185 243.962C363.293 242.846 366.61 242.432 369.897 242.748C373.184 243.064 376.361 244.102 379.2 245.79C383.031 248.072 386.092 251.446 387.992 255.48C389.891 259.514 390.542 264.024 389.86 268.43C389.183 272.842 387.203 276.951 384.174 280.23C381.145 283.509 377.205 285.807 372.86 286.83C371.183 287.234 369.465 287.439 367.74 287.44ZM354.48 246.99C350.944 249.599 348.254 253.191 346.746 257.319C345.238 261.446 344.979 265.926 346 270.2C347.374 275.969 350.983 280.957 356.032 284.067C361.081 287.178 367.159 288.157 372.93 286.79C376.153 286.024 379.166 284.551 381.75 282.479C384.335 280.406 386.426 277.784 387.873 274.804C389.321 271.824 390.088 268.56 390.119 265.247C390.15 261.934 389.445 258.656 388.054 255.649C386.663 252.642 384.622 249.982 382.077 247.86C379.532 245.739 376.548 244.21 373.34 243.383C370.132 242.556 366.78 242.453 363.527 243.08C360.274 243.707 357.201 245.05 354.53 247.01L354.48 246.99Z" fill="#E0E0E0"/>
<path d="M354.48 246.99C355.882 245.769 357.477 244.789 359.2 244.09C363.211 242.401 367.624 241.906 371.909 242.663C376.195 243.42 380.171 245.399 383.36 248.36C386.366 251.151 388.57 254.698 389.74 258.63C391.039 262.987 391.005 267.633 389.64 271.97C388.196 276.651 385.284 280.744 381.335 283.643C377.386 286.543 372.609 288.095 367.71 288.07C365.398 288.084 363.099 287.73 360.9 287.02C358.78 286.377 356.773 285.408 354.95 284.15C351.55 281.858 348.828 278.694 347.07 274.99C345.548 271.771 344.808 268.239 344.91 264.68C345.036 259.533 346.937 254.587 350.29 250.68C351.478 249.246 352.894 248.017 354.48 247.04C354.58 247.16 352.9 248.26 350.68 251.04C347.575 254.939 345.864 259.766 345.82 264.75C345.777 268.402 346.651 272.006 348.361 275.232C350.072 278.459 352.564 281.205 355.61 283.22C359.197 285.604 363.412 286.871 367.72 286.86C372.345 286.869 376.851 285.397 380.58 282.661C384.308 279.924 387.062 276.065 388.44 271.65C389.119 269.572 389.457 267.397 389.44 265.21C389.469 263.112 389.183 261.022 388.59 259.01C387.498 255.259 385.427 251.866 382.59 249.18C380.122 246.837 377.139 245.108 373.88 244.13C369.114 242.675 363.999 242.858 359.35 244.65C357.688 245.348 356.063 246.129 354.48 246.99Z" fill="#263238"/>
<path d="M348.22 217.72C347.995 217.581 347.784 217.42 347.59 217.24L345.76 215.71L338.56 209.61H338.82L322.07 222.06L322.18 221.67L327.25 233.21L327.34 233.41L327.2 233.59C324.378 237.12 322.04 241.011 320.25 245.16L320.14 245.39H319.89L307.31 246.31L307.73 245.93C306.73 252.42 305.73 259.31 304.61 266.55L304.3 266.01L316 270.62L316.3 270.74V271.06C316.79 275.54 317.873 279.935 319.52 284.13L319.65 284.44L319.43 284.69L311.18 294.22V293.51L323.64 310.36L322.92 310.17L334.47 305.17L334.81 305.02L335.1 305.25C338.605 308.085 342.472 310.439 346.6 312.25L346.94 312.4V312.77C347.22 316.71 347.52 321.01 347.83 325.35L347.3 324.77L368 327.8L367.31 328.2C368.77 324.49 370.31 320.49 371.93 316.47L372.07 316.1H372.46C376.916 315.618 381.287 314.545 385.46 312.91L385.83 312.77L386.12 313.02L395.63 321.29H394.84L411.66 308.96L411.45 309.72L406.45 298.16L406.3 297.81L406.54 297.51C409.374 294.012 411.728 290.151 413.54 286.03L413.69 285.68H414.06L426.64 284.8L426.08 285.32C427.173 278.28 428.237 271.407 429.27 264.7L429.63 265.34L417.91 260.7L417.58 260.58V260.23C417.103 255.752 416.033 251.357 414.4 247.16L414.28 246.85L414.5 246.59L422.78 237.09V237.76L410.47 220.91L411.06 221.07L399.49 226.07L399.24 226.18L399.02 226.01C395.512 223.175 391.641 220.821 387.51 219.01L387.27 218.9V218.65C386.96 214.08 386.68 209.96 386.42 206.07L386.74 206.42L366 203.04L366.31 202.86C364.43 207.53 362.89 211.37 361.61 214.56L361.56 214.68H361.44C358.049 215.019 354.7 215.689 351.44 216.68L349.03 217.45C348.771 217.556 348.503 217.639 348.23 217.7C348.476 217.565 348.734 217.451 349 217.36C349.52 217.15 350.31 216.84 351.38 216.48C354.645 215.398 358.013 214.658 361.43 214.27L361.26 214.4C362.5 211.19 363.99 207.34 365.8 202.64L365.88 202.42H366.11L386.75 205.5H387.04V205.8C387.33 209.69 387.63 213.8 387.97 218.38L387.72 218.02C391.933 219.849 395.884 222.23 399.47 225.1L399 225.03L410.54 220.03L410.9 219.87L411.13 220.19L423.51 236.98L423.76 237.33L423.48 237.65L415.24 247.18L415.33 246.61C417.015 250.897 418.121 255.39 418.62 259.97L418.26 259.49L430 264.14L430.44 264.31L430.36 264.78C429.34 271.487 428.293 278.36 427.22 285.4L427.15 285.89H426.66L414.08 286.79L414.6 286.42C412.763 290.644 410.368 294.602 407.48 298.19L407.57 297.55C409.23 301.357 410.897 305.207 412.57 309.1L412.77 309.57L412.36 309.87L395.54 322.22L395.13 322.52L394.75 322.18C391.597 319.447 388.423 316.693 385.23 313.92L385.88 314.03C381.601 315.728 377.115 316.848 372.54 317.36L373.07 316.95C371.48 320.95 369.91 324.95 368.45 328.69L368.26 329.16L367.76 329.08L347.14 325.91L346.64 325.83V325.33C346.33 320.99 346.03 316.69 345.76 312.75L346.13 313.27C341.905 311.427 337.946 309.025 334.36 306.13L334.99 306.22L323.42 311.22L323 311.36L322.71 310.98C318.44 305.13 314.26 299.43 310.39 294.14L310.12 293.77L310.42 293.43L318.7 283.93L318.6 284.49C316.932 280.2 315.842 275.707 315.36 271.13L315.69 271.57L303.97 266.93L303.59 266.78L303.65 266.38C304.78 259.15 305.86 252.26 306.87 245.77L306.92 245.4H307.29L319.87 244.55L319.51 244.8C321.361 240.601 323.762 236.667 326.65 233.1L326.6 233.49L321.6 221.91L321.5 221.67L321.71 221.52L338.6 209.27L338.73 209.17L338.85 209.28L345.85 215.49L347.65 217.12C347.852 217.308 348.042 217.509 348.22 217.72Z" fill="#263238"/>
<path d="M449.569 366.79C450.931 360.106 451.538 353.29 451.379 346.47C451.249 339.71 449.769 332.86 446.219 327.12C442.263 333.346 440.464 340.701 441.099 348.05C441.559 355.132 444.44 361.84 449.259 367.05" fill="#FF6464"/>
<path d="M440.86 384.87C440.95 377.6 440.86 370.25 439.17 363.19C437.48 356.13 433.91 349.29 428.17 344.86C426.064 352.327 426.276 360.257 428.78 367.6C431.29 374.89 434.65 380.33 440.88 384.87" fill="#FF6464"/>
<path d="M429.84 406.36C430.84 399.86 431.62 393.28 430.92 386.75C430.22 380.22 427.92 373.69 423.25 369.03C420.473 375.463 419.717 382.587 421.08 389.46C422.46 396.27 424.81 401.55 429.84 406.36Z" fill="#FF6464"/>
<path d="M421.83 421.72C421.48 414.34 420.96 406.9 418.78 399.85C416.6 392.8 412.59 386.08 406.47 381.95C404.784 389.642 405.481 397.665 408.47 404.95C411.47 412.18 415.21 417.49 421.79 421.71" fill="#FF6464"/>
<path d="M409.91 439.84C410.14 433.07 410.24 426.23 408.78 419.62C407.32 413.01 404.17 406.57 398.89 402.33C396.781 409.238 396.819 416.624 399 423.51C401.19 430.35 404.21 435.51 409.91 439.84Z" fill="#FF6464"/>
<path d="M400 455.36C400.24 448.59 400.33 441.75 398.88 435.14C397.43 428.53 395.01 422.72 389.74 418.48C387.62 425.33 386.91 432.2 389.1 439.03C391.29 445.86 394.3 451.03 400 455.36Z" fill="#FF6464"/>
<path d="M440.89 384.67C445.461 381.594 450.378 379.067 455.54 377.14C459.578 375.541 463.785 374.407 468.08 373.76C472.398 373.116 476.811 373.706 480.81 375.46C475.774 380.713 469.314 384.383 462.223 386.019C455.132 387.655 447.718 387.186 440.89 384.67Z" fill="#FF6464"/>
<path d="M409.89 439.96C413.609 437.456 417.61 435.399 421.81 433.83C425.094 432.528 428.516 431.605 432.01 431.08C435.521 430.557 439.108 431.036 442.36 432.46C438.263 436.733 433.01 439.718 427.243 441.05C421.475 442.382 415.445 442.003 409.89 439.96Z" fill="#FF6464"/>
<path d="M402.12 452.27C406.12 450.71 411.49 447.49 415.75 446.95C419.24 446.411 422.779 446.27 426.3 446.53C429.842 446.806 433.235 448.074 436.09 450.19C431.138 453.427 425.356 455.163 419.44 455.19C413.56 455.19 407.04 455.47 402.12 452.26" fill="#FF6464"/>
<path d="M431.47 405.02C436.042 401.94 440.963 399.412 446.13 397.49C450.164 395.887 454.368 394.749 458.66 394.1C462.979 393.464 467.391 394.056 471.39 395.81C466.35 401.058 459.891 404.724 452.801 406.36C445.712 407.995 438.299 407.53 431.47 405.02Z" fill="#FF6464"/>
<path d="M418.789 426.94C422.937 423.31 427.499 420.182 432.379 417.62C436.178 415.523 440.204 413.869 444.379 412.69C448.581 411.506 453.032 411.534 457.219 412.77C452.886 418.616 446.941 423.071 440.113 425.588C433.285 428.105 425.87 428.575 418.779 426.94" fill="#FF6464"/>
<path d="M448.63 369.05C456.088 368.465 463.298 366.099 469.652 362.151C476.007 358.203 481.322 352.788 485.15 346.36C479.66 347.05 474.15 348.36 469.37 351.09C461.37 355.72 456.02 363.52 448.63 369.09" fill="#FF6464"/>
<path d="M457 352.05C462.468 349.429 466.779 344.885 469.109 339.286C471.439 333.688 471.624 327.427 469.63 321.7C464.802 325.057 461.043 329.734 458.803 335.172C456.564 340.609 455.937 346.576 457 352.36" fill="#FF6464"/>
<path d="M399.069 456.61C399.126 456.503 399.19 456.399 399.259 456.3C399.399 456.07 399.599 455.78 399.839 455.41C400.389 454.61 401.159 453.47 402.139 452.02C403.119 450.57 404.369 448.76 405.729 446.64C407.089 444.52 408.729 442.14 410.369 439.43C412.009 436.72 413.909 433.8 415.809 430.59C417.709 427.38 419.739 423.94 421.809 420.3C425.949 413 430.399 404.91 434.809 396.3C443.729 379.08 451.209 363.2 456.579 351.69L462.999 338.05C463.749 336.47 464.329 335.22 464.739 334.35C464.929 333.95 465.079 333.63 465.199 333.35C465.319 333.07 465.369 333.03 465.369 333.03C465.343 333.148 465.302 333.262 465.249 333.37C465.149 333.62 465.009 333.94 464.829 334.37L463.189 338.12C461.749 341.36 459.649 346.06 456.999 351.83C451.719 363.39 444.279 379.3 435.359 396.53C430.909 405.14 426.449 413.23 422.269 420.53C420.159 424.16 418.159 427.62 416.199 430.8C414.239 433.98 412.409 436.94 410.699 439.62C408.989 442.3 407.389 444.69 405.989 446.79C404.589 448.89 403.359 450.68 402.319 452.13L399.949 455.46L399.319 456.32C399.159 456.52 399.079 456.62 399.069 456.61Z" fill="#263238"/>
<path d="M54.22 389.87C51.6001 384.029 49.638 377.915 48.37 371.64C46.9344 365.424 47.1829 358.938 49.09 352.85C53.9971 357.735 57.1598 364.099 58.09 370.96C59.1112 377.514 57.8547 384.22 54.53 389.96" fill="#FF6464"/>
<path d="M65.9399 404.63C64.3499 397.99 62.9399 391.25 62.9999 384.42C63.0599 377.59 64.9999 370.61 69.3099 365.36C72.789 371.777 74.2297 379.103 73.4399 386.36C72.6499 393.55 70.6999 399.23 65.9399 404.68" fill="#FF6464"/>
<path d="M80.4692 422.05C78.2592 416.3 76.1392 410.44 75.4692 404.32C74.7992 398.2 75.5592 391.73 78.8292 386.51C82.6918 391.829 84.8438 398.198 84.9992 404.77C85.1492 411.29 84.0792 416.61 80.4692 422.05Z" fill="#FF6464"/>
<path d="M90.9994 434.43C89.7994 427.61 88.7394 420.68 89.2794 413.77C89.8194 406.86 92.0994 399.89 96.8494 394.84C99.9646 401.557 100.962 409.063 99.7094 416.36C98.4594 423.59 96.1294 429.23 90.9694 434.45" fill="#FF6464"/>
<path d="M105.64 448.56C104.02 442.41 102.52 436.16 102.49 429.81C102.46 423.46 104.02 416.91 107.97 411.94C111.334 417.829 112.827 424.602 112.25 431.36C111.66 438.06 109.95 443.36 105.64 448.56Z" fill="#FF6464"/>
<path d="M65.8697 404.45C61.0398 402.573 56.0048 401.274 50.8696 400.58C46.8424 399.946 42.7558 399.775 38.6896 400.07C34.6041 400.377 30.6877 401.829 27.3896 404.26C33.0848 408.03 39.7564 410.056 46.5863 410.09C53.4162 410.124 60.1075 408.164 65.8396 404.45" fill="#FF6464"/>
<path d="M105.679 448.66C101.757 447.137 97.669 446.083 93.4994 445.52C90.2231 445.001 86.8979 444.86 83.5894 445.1C80.265 445.343 77.078 446.526 74.3994 448.51C79.0331 451.576 84.4608 453.223 90.017 453.25C95.5733 453.277 101.017 451.681 105.679 448.66Z" fill="#FF6464"/>
<path d="M78.6995 421.13C73.8691 419.257 68.8341 417.961 63.6995 417.27C59.6756 416.636 55.5923 416.465 51.5295 416.76C47.4448 417.064 43.5284 418.512 40.2295 420.94C45.9246 424.71 52.5962 426.736 59.4262 426.77C66.2561 426.804 72.9474 424.844 78.6795 421.13" fill="#FF6464"/>
<path d="M94.8295 438.58C90.2845 436.115 85.4645 434.195 80.4695 432.86C76.5574 431.744 72.532 431.073 68.4695 430.86C64.3775 430.65 60.3091 431.596 56.7295 433.59C61.9083 438.041 68.2731 440.885 75.044 441.773C81.815 442.661 88.6979 441.555 94.8495 438.59" fill="#FF6464"/>
<path d="M55.5597 391.75C48.6084 392.753 41.5179 392.075 34.8832 389.771C28.2485 387.467 22.2632 383.605 17.4297 378.51C22.5896 377.836 27.8323 378.199 32.8497 379.58C41.1297 382.16 47.6397 388.2 55.5597 391.75Z" fill="#FF6464"/>
<path d="M44.4097 377.9C38.86 376.635 33.9718 373.368 30.6803 368.724C27.3888 364.08 25.9252 358.385 26.5697 352.73C31.6738 354.807 36.0721 358.309 39.2392 362.819C42.4063 367.328 44.2082 372.654 44.4297 378.16" fill="#FF6464"/>
<path d="M109.169 452.51C109.082 452.452 109.002 452.385 108.929 452.31L108.269 451.7L105.779 449.36C104.699 448.36 103.379 447.04 101.889 445.52C100.399 444 98.6694 442.31 96.8894 440.36C89.4494 432.65 79.5294 421.66 69.1194 409.06C58.7094 396.46 49.6594 384.74 43.1894 376.21C39.9494 371.94 37.3594 368.47 35.5794 366.07L33.5794 363.29L33.0594 362.56C32.9937 362.482 32.9398 362.394 32.8994 362.3L33.0994 362.52L33.6594 363.22L35.7794 365.94C37.6294 368.34 40.2694 371.77 43.5294 375.94C50.0694 384.42 59.1494 396.1 69.5294 408.68C79.9094 421.26 89.7994 432.3 97.1594 440.07C98.9794 442.07 100.689 443.75 102.159 445.28C103.629 446.81 104.919 448.11 105.979 449.17L108.409 451.63L109.029 452.27L109.169 452.51Z" fill="#263238"/>
<path d="M403.62 456.61L416.29 322.46C416.534 319.958 416.259 317.433 415.481 315.043C414.702 312.652 413.438 310.449 411.767 308.571C410.097 306.692 408.056 305.18 405.772 304.128C403.489 303.077 401.013 302.509 398.5 302.46L257.41 299.66C252.763 299.566 248.256 301.249 244.809 304.366C241.361 307.483 239.233 311.798 238.86 316.43L228.05 456.55L403.62 456.61Z" fill="#455A64"/>
<path d="M383.599 456.58C383.641 456.426 383.667 456.269 383.679 456.11C383.679 455.77 383.769 455.31 383.839 454.71C383.969 453.46 384.169 451.66 384.409 449.35C384.879 444.67 385.559 437.94 386.409 429.63C388.039 412.94 390.289 389.94 392.769 364.53C394.659 344.73 396.419 326.4 397.839 311.48C397.839 310.733 397.819 309.993 397.779 309.26C397.793 308.527 397.715 307.794 397.549 307.08C397.171 305.69 396.354 304.458 395.219 303.57C394.139 302.732 392.825 302.249 391.459 302.19L387.749 302.12L375.379 301.93L367.469 301.83H365.399C364.929 301.83 364.689 301.83 364.689 301.83C364.689 301.83 364.929 301.83 365.399 301.88L367.469 301.96L375.379 302.18L387.739 302.48L391.439 302.58C392.753 302.641 394.012 303.121 395.034 303.948C396.056 304.776 396.786 305.908 397.119 307.18C397.277 307.865 397.347 308.567 397.329 309.27C397.329 309.99 397.329 310.72 397.379 311.46C395.929 326.38 394.139 344.71 392.209 364.51C389.789 389.92 387.599 412.93 386.019 429.62C385.249 437.94 384.629 444.62 384.199 449.36C383.999 451.67 383.849 453.48 383.739 454.73C383.689 455.33 383.659 455.79 383.629 456.13C383.61 456.279 383.6 456.429 383.599 456.58Z" fill="#263238"/>
<path d="M223.65 221.6C222.913 220.847 222.003 220.284 221 219.96H221.19C221.009 219.923 220.825 219.896 220.64 219.88C220.305 219.791 219.954 219.77 219.611 219.82C219.267 219.87 218.937 219.989 218.64 220.17C217.527 220.596 216.614 221.424 216.08 222.49C215.671 223.435 215.528 224.475 215.667 225.495C215.806 226.516 216.222 227.479 216.87 228.28C217.344 229.01 218.027 229.58 218.83 229.914C219.634 230.249 220.519 230.332 221.371 230.154C222.223 229.975 223 229.543 223.602 228.914C224.203 228.285 224.6 227.489 224.74 226.63C224.994 225.767 225.028 224.855 224.837 223.976C224.647 223.097 224.239 222.28 223.65 221.6Z" fill="#455A64"/>
<path d="M215.63 197.28C212.282 196.363 209.205 194.653 206.658 192.294C204.111 189.936 202.171 186.998 201 183.73C199.877 180.432 199.554 176.914 200.056 173.467C200.559 170.019 201.873 166.74 203.89 163.9C199.75 164.96 195.63 161.11 194.78 156.9C193.93 152.69 195.43 148.33 197.03 144.32C200.69 135.17 205.27 125.99 212.9 119.84C220.53 113.69 231.9 111.35 240.14 116.64C240.21 113.05 244.42 111.25 247.92 110.64C263.18 108.12 279.52 112.12 291.54 121.96C303.56 131.8 310.91 147.45 310.19 163.09C315.37 171.21 312.05 183.55 303.52 187.91C305.036 197.327 303.27 206.979 298.52 215.25C293.74 223.443 286.26 229.718 277.36 233" fill="#FF6464"/>
<path d="M220.16 188.47C221.09 175.1 230.06 158.76 243.37 160.26L284.89 171.06C286.847 171.273 288.653 172.213 289.95 173.695C291.247 175.177 291.939 177.092 291.89 179.06L286.71 279.36L287 279.42C287 279.42 277.39 307.62 250 298.86C244.55 297.12 242.09 291.15 241 285.01H240.72C240.72 284.28 240.72 283.61 240.72 282.91C240.206 278.336 240.172 273.721 240.62 269.14C240.62 261.04 240.62 257.72 240.62 257.8C240.62 257.88 223.56 254.8 220.17 232.54C218.44 221.48 219.12 203.36 220.16 188.47Z" fill="#B78876"/>
<path d="M227.571 202.65C227.557 203.396 227.836 204.117 228.349 204.659C228.861 205.202 229.565 205.521 230.311 205.55C230.677 205.587 231.048 205.55 231.399 205.44C231.751 205.33 232.077 205.15 232.357 204.911C232.638 204.671 232.867 204.378 233.031 204.048C233.194 203.718 233.29 203.358 233.311 202.99C233.322 202.247 233.043 201.528 232.534 200.987C232.024 200.445 231.324 200.124 230.581 200.09C230.214 200.054 229.844 200.093 229.492 200.203C229.14 200.314 228.814 200.494 228.533 200.732C228.253 200.971 228.023 201.264 227.857 201.593C227.692 201.923 227.595 202.282 227.571 202.65Z" fill="#263238"/>
<path d="M224 197.94C224.35 198.32 226.53 196.73 229.61 196.76C232.69 196.79 234.92 198.34 235.26 197.97C235.42 197.8 235.07 197.13 234.09 196.41C232.769 195.475 231.189 194.975 229.57 194.98C227.968 194.964 226.403 195.458 225.1 196.39C224.18 197.1 223.86 197.78 224 197.94Z" fill="#263238"/>
<path d="M257.23 203.16C257.216 203.906 257.496 204.627 258.008 205.169C258.52 205.712 259.225 206.031 259.97 206.06C260.337 206.097 260.707 206.06 261.059 205.95C261.41 205.84 261.736 205.66 262.017 205.421C262.297 205.181 262.526 204.888 262.69 204.558C262.854 204.228 262.949 203.868 262.97 203.5C262.979 202.757 262.699 202.04 262.19 201.499C261.681 200.959 260.982 200.636 260.24 200.6C259.873 200.563 259.502 200.6 259.15 200.71C258.797 200.82 258.471 201 258.19 201.239C257.909 201.478 257.679 201.771 257.514 202.102C257.349 202.432 257.252 202.792 257.23 203.16Z" fill="#263238"/>
<path d="M254.251 198.72C254.611 199.1 256.791 197.51 259.861 197.54C262.931 197.57 265.181 199.12 265.511 198.75C265.681 198.58 265.321 197.91 264.341 197.19C263.02 196.254 261.44 195.754 259.821 195.76C258.222 195.744 256.66 196.238 255.361 197.17C254.411 197.88 254.081 198.56 254.251 198.72Z" fill="#263238"/>
<path d="M242.941 221.45C242.941 221.28 241.051 220.94 237.941 220.52C237.161 220.43 236.411 220.27 236.291 219.73C236.224 218.919 236.413 218.108 236.831 217.41C237.581 215.51 238.361 213.53 239.191 211.41C242.471 202.92 244.851 195.93 244.511 195.8C244.171 195.67 241.231 202.45 237.951 210.94C237.161 213.04 236.401 215.03 235.681 216.94C235.183 217.885 235.03 218.975 235.251 220.02C235.365 220.298 235.54 220.546 235.763 220.747C235.987 220.948 236.252 221.096 236.541 221.18C236.974 221.299 237.421 221.363 237.871 221.37C241.001 221.6 242.931 221.63 242.941 221.45Z" fill="#263238"/>
<path d="M240.57 257.83C251.06 258.062 261.408 255.375 270.46 250.07C270.46 250.07 263.12 265.33 240.83 263.07L240.57 257.83Z" fill="#AA6550"/>
<path d="M244.191 228.87C244.786 228.14 245.557 227.573 246.432 227.223C247.306 226.873 248.256 226.752 249.191 226.87C249.87 226.933 250.528 227.134 251.127 227.46C251.725 227.787 252.251 228.233 252.671 228.77C253.077 229.285 253.315 229.911 253.355 230.566C253.394 231.22 253.232 231.87 252.891 232.43C252.395 232.97 251.752 233.353 251.041 233.531C250.33 233.709 249.582 233.674 248.891 233.43C247.443 232.901 246.115 232.093 244.981 231.05C244.637 230.803 244.342 230.495 244.111 230.14C243.992 229.972 243.929 229.771 243.929 229.565C243.929 229.359 243.992 229.158 244.111 228.99" fill="#AA6550"/>
<path d="M252.001 223.64C251.501 223.64 251.471 226.95 248.591 229.3C245.711 231.65 242.171 231.3 242.141 231.72C242.091 231.93 242.931 232.38 244.431 232.43C246.385 232.47 248.29 231.818 249.811 230.59C251.276 229.415 252.224 227.714 252.451 225.85C252.571 224.45 252.201 223.62 252.001 223.64Z" fill="#263238"/>
<path d="M252.91 193.36C253.21 194.2 256.28 193.82 259.91 194.28C263.54 194.74 266.43 195.75 266.91 195C267.13 194.64 266.63 193.85 265.46 193C263.903 191.985 262.128 191.351 260.28 191.15C258.435 190.914 256.559 191.123 254.81 191.76C253.45 192.28 252.78 192.93 252.91 193.36Z" fill="#263238"/>
<path d="M225.22 189.05C225.76 189.75 227.88 189.05 230.43 189.05C232.98 189.05 235.13 189.55 235.63 188.82C235.85 188.47 235.52 187.77 234.63 187.1C233.382 186.274 231.905 185.864 230.41 185.93C228.911 185.941 227.453 186.42 226.24 187.3C225.29 187.99 225 188.71 225.22 189.05Z" fill="#263238"/>
<path d="M277.861 200.09C277.756 198.77 277.556 197.46 277.261 196.17C276.877 194.674 276.27 193.245 275.461 191.93C274.401 190.18 273.016 188.649 271.381 187.42C269.262 185.813 266.773 184.765 264.143 184.372C261.513 183.979 258.827 184.253 256.331 185.17C254.896 185.684 253.547 186.412 252.331 187.33C251.037 188.267 249.906 189.408 248.981 190.71C246.974 193.424 245.891 196.71 245.891 200.085C245.891 203.46 246.974 206.746 248.981 209.46C249.906 210.762 251.037 211.903 252.331 212.84C253.547 213.758 254.896 214.486 256.331 215C258.998 215.973 261.877 216.218 264.671 215.71C267.112 215.252 269.411 214.224 271.381 212.71C273.016 211.481 274.401 209.95 275.461 208.2C276.272 206.886 276.879 205.456 277.261 203.96C277.554 202.673 277.755 201.366 277.861 200.05C277.872 200.136 277.872 200.224 277.861 200.31C277.861 200.51 277.861 200.76 277.861 201.08C277.861 201.495 277.828 201.91 277.761 202.32C277.698 202.889 277.598 203.454 277.461 204.01C277.1 205.537 276.51 207 275.711 208.35C274.659 210.155 273.267 211.738 271.611 213.01C269.447 214.68 266.895 215.776 264.194 216.196C261.493 216.616 258.729 216.345 256.161 215.41C254.675 214.89 253.279 214.145 252.021 213.2C251.367 212.715 250.745 212.187 250.161 211.62C249.579 211.03 249.041 210.398 248.551 209.73C246.473 206.928 245.352 203.533 245.352 200.045C245.352 196.557 246.473 193.162 248.551 190.36C249.041 189.692 249.579 189.06 250.161 188.47C250.745 187.903 251.367 187.375 252.021 186.89C253.279 185.946 254.675 185.2 256.161 184.68C258.911 183.685 261.878 183.451 264.751 184C267.03 184.43 269.192 185.343 271.089 186.679C272.986 188.014 274.576 189.739 275.751 191.74C276.55 193.09 277.14 194.553 277.501 196.08C277.637 196.636 277.737 197.201 277.801 197.77C277.868 198.18 277.901 198.595 277.901 199.01C277.901 199.33 277.901 199.58 277.901 199.78C277.902 199.885 277.889 199.989 277.861 200.09Z" fill="#263238"/>
<path d="M303.42 189.08C303.375 188.982 303.345 188.877 303.33 188.77C303.27 188.54 303.2 188.24 303.12 187.86C303.04 187.48 302.93 186.95 302.77 186.37C302.61 185.79 302.42 185.11 302.22 184.37C300.925 180.133 299.05 176.094 296.65 172.37C293.089 166.846 288.519 162.042 283.18 158.21C276.596 153.577 269.127 150.353 261.24 148.74C253.345 147.103 245.227 146.832 237.24 147.94C230.717 148.722 224.35 150.492 218.36 153.19C216.074 154.248 213.876 155.488 211.79 156.9C210.221 157.977 208.728 159.16 207.32 160.44L205.8 161.87L204.8 163L204.16 163.68C204.089 163.765 204.008 163.842 203.92 163.91C203.976 163.816 204.044 163.729 204.12 163.65L204.72 162.93L205.72 161.77L207.21 160.29C208.603 158.977 210.086 157.764 211.65 156.66C213.739 155.215 215.943 153.944 218.24 152.86C224.254 150.084 230.665 148.262 237.24 147.46C245.267 146.321 253.431 146.582 261.37 148.23C269.324 149.862 276.853 153.127 283.48 157.82C288.856 161.698 293.445 166.565 297 172.16C299.393 175.923 301.229 180.012 302.45 184.3L302.96 186.3C303.11 186.89 303.18 187.4 303.26 187.81C303.34 188.22 303.38 188.5 303.42 188.73C303.438 188.846 303.438 188.964 303.42 189.08Z" fill="#263238"/>
<path d="M308.831 167.58C308.8 167.507 308.783 167.429 308.781 167.35C308.781 167.16 308.781 166.94 308.691 166.66C308.631 166.06 308.491 165.18 308.261 164.05C307.582 160.879 306.429 157.828 304.841 155C302.475 150.808 299.407 147.054 295.771 143.9C291.294 140.059 286.396 136.737 281.171 134C271.739 128.89 261.926 124.517 251.821 120.92C247.941 119.54 244.761 118.52 242.561 117.84L240.001 117.06L239.351 116.85C239.201 116.85 239.121 116.77 239.131 116.76C239.141 116.75 239.211 116.76 239.361 116.76L240.031 116.92C240.621 117.07 241.491 117.29 242.601 117.61C244.821 118.23 248.011 119.19 251.921 120.53C262.089 124.043 271.949 128.391 281.401 133.53C286.66 136.287 291.583 139.642 296.071 143.53C299.727 146.734 302.796 150.552 305.141 154.81C306.718 157.68 307.831 160.782 308.441 164C308.605 164.873 308.718 165.754 308.781 166.64C308.781 166.92 308.781 167.15 308.781 167.33C308.812 167.41 308.829 167.494 308.831 167.58Z" fill="#263238"/>
<path d="M240.341 166.61C240.341 166.61 261.251 166.3 277.081 189.9C287.511 205.46 289.711 224.99 289.711 224.99L297.781 187.82L291.781 170.82L277.331 162.65L249.911 161.11L239.561 166.23" fill="#FF6464"/>
<path d="M281.311 168.54C248.011 160.54 221.381 171.54 216.501 197.67L207.561 183.08L227.051 159.62L246.051 154.68L284.241 160.49L281.311 168.54Z" fill="#FF6464"/>
<path d="M302.84 166.28C302.8 166.177 302.773 166.07 302.76 165.96C302.76 165.72 302.67 165.41 302.6 165.02C302.533 164.508 302.433 164 302.3 163.5C302.14 162.9 302.01 162.21 301.74 161.5C301.154 159.654 300.384 157.872 299.44 156.18C298.186 153.947 296.672 151.869 294.93 149.99C292.823 147.706 290.441 145.691 287.84 143.99C284.847 142.058 281.622 140.513 278.24 139.39C271.1 136.96 262.74 136.1 254.05 136.28C245.36 136.46 237.05 137.28 229.74 139.21C226.295 140.103 222.946 141.332 219.74 142.88C216.948 144.239 214.312 145.899 211.88 147.83C208.321 150.6 205.335 154.037 203.09 157.95C202.7 158.65 202.36 159.27 202.09 159.83C201.82 160.39 201.6 160.83 201.45 161.24C201.3 161.65 201.18 161.9 201.08 162.13C200.98 162.36 200.95 162.43 200.94 162.42C201.424 160.831 202.078 159.299 202.89 157.85C205.087 153.867 208.058 150.365 211.63 147.55C214.069 145.594 216.719 143.917 219.53 142.55C222.758 140.966 226.134 139.707 229.61 138.79C236.96 136.79 245.31 136.01 254.04 135.79C262.77 135.57 271.19 136.49 278.39 138.97C281.808 140.112 285.064 141.688 288.08 143.66C290.7 145.387 293.092 147.437 295.2 149.76C296.945 151.67 298.456 153.782 299.7 156.05C300.629 157.768 301.377 159.577 301.93 161.45C302.141 162.127 302.315 162.814 302.45 163.51C302.573 164.016 302.657 164.531 302.7 165.05C302.75 165.45 302.79 165.76 302.82 166.05C302.833 166.126 302.84 166.203 302.84 166.28Z" fill="#263238"/>
<path d="M219 188.78C218.531 188.746 218.068 188.655 217.62 188.51C216.394 188.119 215.239 187.531 214.2 186.77C212.678 185.606 211.383 184.172 210.38 182.54C209.162 180.541 208.261 178.365 207.71 176.09C206.784 171.953 206.737 167.667 207.57 163.51C207.815 162.251 208.18 161.019 208.66 159.83C208.82 159.41 208.99 159.1 209.09 158.89C209.19 158.68 209.27 158.57 209.28 158.58C208.707 160.211 208.256 161.882 207.93 163.58C207.218 167.689 207.317 171.898 208.22 175.97C208.762 178.19 209.625 180.319 210.78 182.29C211.737 183.887 212.969 185.303 214.42 186.47C215.803 187.496 217.353 188.277 219 188.78Z" fill="#FAFAFA"/>
<path d="M289.46 167.67L289.24 167.6L288.62 167.33L287.62 166.89L286.22 166.36C283.241 165.26 280.143 164.515 276.99 164.14C272.312 163.58 267.583 163.6 262.91 164.2C260.27 164.51 257.52 165.01 254.68 165.59C251.84 166.17 248.93 166.88 246 167.79C234.18 171.21 225.07 178.66 221 185.53C219.354 188.244 218.117 191.185 217.33 194.26C217.04 195.35 216.87 196.2 216.75 196.79C216.69 197.05 216.65 197.27 216.61 197.45C216.595 197.526 216.572 197.6 216.54 197.67C216.524 197.594 216.524 197.516 216.54 197.44C216.54 197.26 216.6 197.04 216.64 196.77C216.757 195.909 216.921 195.054 217.13 194.21C217.84 191.087 219.035 188.094 220.67 185.34C224.75 178.34 233.95 170.74 245.88 167.34C248.88 166.43 251.76 165.73 254.61 165.14C257.46 164.55 260.22 164.07 262.88 163.78C267.591 163.18 272.359 163.18 277.07 163.78C280.241 164.194 283.348 165 286.32 166.18L287.71 166.76L288.71 167.25L289.31 167.56C289.4 167.62 289.47 167.66 289.46 167.67Z" fill="#263238"/>
<path d="M245.88 167.72C246.122 167.694 246.367 167.694 246.61 167.72C247.301 167.772 247.989 167.862 248.67 167.99C251.183 168.472 253.621 169.286 255.92 170.41C261.76 173.18 269.05 178.77 274.86 186.78C277.55 190.57 279.908 194.585 281.91 198.78C283.611 202.157 285.117 205.63 286.42 209.18C287.309 211.568 288.021 214.018 288.55 216.51C288.72 217.4 288.84 218.09 288.89 218.56C288.936 218.797 288.959 219.038 288.96 219.28C288.876 219.054 288.819 218.819 288.79 218.58C288.71 218.11 288.56 217.43 288.35 216.58C287.745 214.115 286.987 211.69 286.08 209.32C284.731 205.807 283.195 202.369 281.48 199.02C279.474 194.879 277.133 190.909 274.48 187.15C269.611 180.323 263.214 174.727 255.8 170.81C253.537 169.67 251.142 168.813 248.67 168.26C247.79 168.08 247.11 167.95 246.67 167.89C246.401 167.86 246.137 167.803 245.88 167.72Z" fill="#263238"/>
<path d="M240.111 200.09C240.013 198.77 239.812 197.459 239.511 196.17C239.127 194.674 238.52 193.245 237.711 191.93C236.652 190.18 235.266 188.649 233.631 187.42C231.661 185.906 229.362 184.878 226.921 184.42C224.127 183.912 221.248 184.157 218.581 185.13C217.146 185.644 215.797 186.372 214.581 187.29C213.287 188.227 212.156 189.368 211.231 190.67C209.23 193.386 208.151 196.671 208.151 200.045C208.151 203.419 209.23 206.704 211.231 209.42C212.156 210.722 213.287 211.863 214.581 212.8C215.797 213.718 217.146 214.446 218.581 214.96C221.251 215.934 224.134 216.179 226.931 215.67C229.151 215.251 231.258 214.369 233.116 213.082C234.973 211.795 236.539 210.132 237.711 208.2C238.522 206.886 239.129 205.456 239.511 203.96C239.811 202.674 240.011 201.367 240.111 200.05C240.127 200.136 240.127 200.224 240.111 200.31C240.111 200.51 240.111 200.76 240.111 201.08C240.11 201.509 240.074 201.937 240.001 202.36C239.938 202.929 239.838 203.494 239.701 204.05C239.353 205.564 238.78 207.017 238.001 208.36C236.949 210.165 235.557 211.748 233.901 213.02C231.737 214.69 229.185 215.786 226.484 216.206C223.783 216.626 221.019 216.355 218.451 215.42C216.966 214.9 215.569 214.155 214.311 213.21C213.657 212.725 213.035 212.197 212.451 211.63C211.869 211.04 211.331 210.408 210.841 209.74C208.763 206.938 207.642 203.543 207.642 200.055C207.642 196.567 208.763 193.172 210.841 190.37C211.331 189.702 211.869 189.07 212.451 188.48C213.035 187.913 213.657 187.385 214.311 186.9C215.569 185.955 216.966 185.21 218.451 184.69C222.024 183.396 225.938 183.397 229.51 184.693C233.083 185.988 236.088 188.496 238.001 191.78C238.8 193.13 239.39 194.593 239.751 196.12C239.887 196.676 239.987 197.241 240.051 197.81C240.118 198.22 240.151 198.635 240.151 199.05C240.151 199.37 240.151 199.62 240.151 199.82C240.153 199.912 240.139 200.003 240.111 200.09Z" fill="#263238"/>
<path d="M290.391 220.36C289.668 219.608 288.772 219.045 287.781 218.72H287.981C287.797 218.675 287.609 218.645 287.421 218.63C287.085 218.54 286.734 218.52 286.389 218.572C286.045 218.623 285.715 218.745 285.421 218.93C284.312 219.36 283.403 220.187 282.871 221.25C282.459 222.195 282.315 223.235 282.454 224.256C282.593 225.277 283.011 226.24 283.661 227.04C284.132 227.771 284.815 228.343 285.618 228.678C286.421 229.013 287.306 229.097 288.158 228.918C289.01 228.74 289.787 228.307 290.388 227.677C290.988 227.047 291.383 226.249 291.521 225.39C291.772 224.524 291.8 223.609 291.603 222.73C291.405 221.85 290.988 221.035 290.391 220.36Z" fill="#455A64"/>
<path d="M227.08 178.55C226.727 178.425 226.392 178.257 226.08 178.05C225.705 177.844 225.345 177.613 225 177.36C224.53 177.05 224.076 176.716 223.64 176.36C222.489 175.454 221.419 174.45 220.44 173.36C219.244 172.013 218.173 170.561 217.24 169.02C216.333 167.461 215.567 165.825 214.95 164.13C214.458 162.744 214.084 161.319 213.83 159.87C213.7 159.26 213.66 158.69 213.6 158.2C213.54 157.779 213.51 157.355 213.51 156.93C213.469 156.568 213.469 156.202 213.51 155.84C213.61 155.84 213.67 157.38 214.17 159.84C214.474 161.257 214.878 162.651 215.38 164.01C216.009 165.664 216.775 167.263 217.67 168.79C218.587 170.303 219.628 171.738 220.78 173.08C221.729 174.172 222.755 175.195 223.85 176.14C225.8 177.68 227.13 178.46 227.08 178.55Z" fill="#FAFAFA"/>
<path d="M228.531 150.42C228.611 150.42 227.971 151.88 227.241 154.28C226.281 157.397 225.717 160.622 225.561 163.88C225.41 167.142 225.662 170.41 226.311 173.61C226.821 176.06 227.311 177.54 227.241 177.61C227.052 177.298 226.908 176.961 226.811 176.61C226.467 175.672 226.183 174.714 225.961 173.74C224.418 167.273 224.74 160.501 226.891 154.21C227.197 153.237 227.568 152.284 228.001 151.36C228.139 151.027 228.317 150.711 228.531 150.42Z" fill="#FAFAFA"/>
<path d="M251.18 165.07C250.692 164.144 250.255 163.193 249.87 162.22C247.799 157.641 245.055 153.398 241.73 149.63C241.002 148.881 240.314 148.093 239.67 147.27C239.917 147.411 240.142 147.586 240.34 147.79C240.76 148.14 241.34 148.68 242 149.38C245.518 153.054 248.304 157.364 250.21 162.08C250.57 162.98 250.83 163.72 250.99 164.24C251.092 164.506 251.156 164.786 251.18 165.07Z" fill="#FAFAFA"/>
<path d="M257.781 149.15C258.098 149.815 258.304 150.528 258.391 151.26C259.038 154.747 258.922 158.332 258.051 161.77C257.911 162.491 257.661 163.185 257.311 163.83C257.798 161.417 258.132 158.975 258.311 156.52C258.289 154.055 258.112 151.593 257.781 149.15Z" fill="#FAFAFA"/>
<path d="M269.001 152.96C269.343 154.82 269.261 156.734 268.758 158.558C268.256 160.381 267.347 162.068 266.101 163.49C266.963 161.864 267.686 160.168 268.261 158.42C268.662 156.624 268.909 154.798 269.001 152.96Z" fill="#FAFAFA"/>
<path d="M278.68 193.65C278.58 193.65 278.79 191.92 278.8 189.14C278.792 185.509 278.359 181.891 277.51 178.36C276.645 174.845 275.366 171.444 273.7 168.23C272.41 165.77 271.44 164.34 271.51 164.29C271.801 164.591 272.053 164.927 272.26 165.29C272.901 166.192 273.489 167.13 274.02 168.1C275.8 171.301 277.145 174.724 278.02 178.28C278.887 181.836 279.27 185.492 279.16 189.15C279.135 190.254 279.048 191.356 278.9 192.45C278.867 192.856 278.793 193.258 278.68 193.65Z" fill="#455A64"/>
<path d="M299.33 176.87C299.412 177.325 299.449 177.787 299.44 178.25C299.44 178.7 299.44 179.25 299.44 179.89C299.44 180.53 299.44 181.25 299.33 182.05C299.181 183.923 298.904 185.784 298.5 187.62C297.496 192.118 295.763 196.421 293.37 200.36C292.387 201.962 291.302 203.498 290.12 204.96C289.63 205.59 289.12 206.12 288.7 206.59C288.28 207.06 287.89 207.46 287.57 207.77C287.267 208.108 286.932 208.416 286.57 208.69C286.831 208.308 287.129 207.953 287.46 207.63C287.76 207.3 288.13 206.89 288.52 206.4C288.91 205.91 289.4 205.4 289.87 204.73C291.007 203.255 292.052 201.712 293 200.11C294.139 198.141 295.141 196.096 296 193.99C296.837 191.87 297.525 189.695 298.06 187.48C298.485 185.668 298.799 183.831 299 181.98C299.11 181.19 299.13 180.47 299.18 179.84C299.23 179.21 299.26 178.67 299.26 178.22C299.244 177.769 299.267 177.317 299.33 176.87Z" fill="#FAFAFA"/>
<path d="M274.23 138.54C274.371 139.233 274.371 139.947 274.23 140.64C273.964 142.327 273.363 143.943 272.463 145.394C271.564 146.845 270.383 148.102 268.99 149.09C268.44 149.545 267.804 149.885 267.12 150.09C267.12 150.02 267.78 149.63 268.77 148.84C271.355 146.755 273.153 143.853 273.87 140.61C273.955 139.914 274.075 139.223 274.23 138.54Z" fill="#FAFAFA"/>
<path d="M293.72 149.16C293.862 149.845 293.845 150.553 293.67 151.23C293.369 152.883 292.684 154.441 291.67 155.78C290.647 157.122 289.316 158.199 287.79 158.92C287.178 159.266 286.493 159.465 285.79 159.5C285.79 159.42 286.52 159.19 287.61 158.59C289.018 157.801 290.253 156.737 291.24 155.46C292.222 154.18 292.933 152.714 293.33 151.15C293.61 149.95 293.63 149.16 293.72 149.16Z" fill="#FAFAFA"/>
<path d="M300.72 157.78C300.454 158.38 300.069 158.921 299.59 159.37C297.416 161.722 294.425 163.153 291.23 163.37C290.581 163.462 289.921 163.417 289.29 163.24C291.454 163.085 293.577 162.568 295.57 161.71C297.493 160.694 299.233 159.366 300.72 157.78Z" fill="#FAFAFA"/>
<path d="M254.46 147.07C253.452 145.638 252.908 143.931 252.9 142.18C252.71 140.45 253.059 138.704 253.9 137.18C253.548 138.823 253.373 140.5 253.38 142.18C253.571 143.843 253.933 145.482 254.46 147.07Z" fill="#FAFAFA"/>
<path d="M251.411 147.86C251.411 147.91 250.801 147.45 250.041 146.55C248.091 144.162 246.906 141.242 246.641 138.17C246.542 137.542 246.562 136.901 246.701 136.28C246.981 138.373 247.481 140.431 248.191 142.42C249.065 144.344 250.145 146.168 251.411 147.86Z" fill="#455A64"/>
<path d="M233.821 138.54C234.298 142.001 233.532 145.52 231.661 148.47C231.511 148.4 232.521 146.33 233.111 143.58C233.701 140.83 233.661 138.54 233.821 138.54Z" fill="#FAFAFA"/>
<path d="M218.771 152.63C218.771 152.69 218.291 152.54 217.651 152.11C216.838 151.524 216.157 150.775 215.651 149.91C215.121 149.052 214.78 148.09 214.651 147.09C214.571 146.33 214.651 145.85 214.721 145.86C215.004 147.178 215.462 148.452 216.081 149.65C216.839 150.76 217.744 151.762 218.771 152.63Z" fill="#455A64"/>
<path d="M226.63 114.03C226.7 114.09 225.63 115.23 224.29 117.38C222.582 120.178 221.5 123.313 221.12 126.569C220.74 129.825 221.071 133.124 222.09 136.24C222.87 138.64 223.68 139.99 223.59 140.04C223.346 139.759 223.14 139.446 222.98 139.11C222.494 138.228 222.08 137.308 221.74 136.36C220.605 133.206 220.218 129.832 220.611 126.504C221.003 123.175 222.163 119.983 224 117.18C224.55 116.337 225.166 115.538 225.84 114.79C226.31 114.27 226.6 114 226.63 114.03Z" fill="#FAFAFA"/>
<path d="M206.48 125.29C206.57 125.29 206.26 126.57 206.26 128.63C206.247 131.314 206.875 133.962 208.093 136.354C209.31 138.746 211.082 140.812 213.26 142.38C214.93 143.59 216.13 144.07 216.09 144.16C215.789 144.112 215.499 144.014 215.23 143.87C214.469 143.539 213.74 143.141 213.05 142.68C210.745 141.151 208.869 139.058 207.6 136.6C206.35 134.124 205.748 131.372 205.85 128.6C205.88 127.772 205.987 126.948 206.17 126.14C206.224 125.841 206.329 125.554 206.48 125.29Z" fill="#455A64"/>
<path d="M245.131 119.18C245.285 119.385 245.404 119.615 245.481 119.86C245.761 120.504 245.978 121.174 246.131 121.86C246.662 124.095 246.722 126.417 246.309 128.677C245.896 130.937 245.018 133.087 243.731 134.99C243.347 135.568 242.908 136.107 242.421 136.6C242.081 136.95 241.881 137.13 241.851 137.1C241.821 137.07 242.521 136.25 243.421 134.79C245.783 130.948 246.622 126.36 245.771 121.93C245.451 120.22 245.001 119.22 245.131 119.18Z" fill="#FAFAFA"/>
<path d="M255.15 122.5C255.412 123.199 255.534 123.944 255.51 124.69C255.623 128.34 254.38 131.903 252.02 134.69C251.566 135.286 251.007 135.795 250.37 136.19C250.794 135.59 251.247 135.013 251.73 134.46C253.856 131.641 255.048 128.229 255.14 124.7C255.17 123.36 255.07 122.51 255.15 122.5Z" fill="#455A64"/>
<path d="M271.3 128.21C271.36 128.21 271.66 128.61 271.93 129.4C272.271 130.444 272.394 131.547 272.29 132.64C272.173 133.737 271.833 134.799 271.29 135.76C270.87 136.49 270.5 136.85 270.45 136.76C271.075 135.422 271.503 134.001 271.72 132.54C271.786 131.084 271.645 129.626 271.3 128.21Z" fill="#FAFAFA"/>
<path d="M288.421 139.24C288.511 139.35 287.721 140.16 286.421 140.7C285.694 141.117 284.849 141.279 284.021 141.16C284.719 140.781 285.452 140.469 286.211 140.23C286.916 139.833 287.655 139.502 288.421 139.24Z" fill="#FAFAFA"/>
<path d="M298.54 147.24C299.178 148.303 299.438 149.55 299.28 150.78C299.299 152.018 298.909 153.227 298.17 154.22C298.03 154.15 298.67 152.68 298.76 150.75C298.85 148.82 298.39 147.29 298.54 147.24Z" fill="#455A64"/>
<path d="M282.75 116.03C282.75 116.03 282.95 116.22 283.19 116.63C283.532 117.211 283.817 117.824 284.04 118.46C284.81 120.573 285.018 122.849 284.644 125.066C284.271 127.283 283.329 129.366 281.91 131.11C281.489 131.638 281.017 132.124 280.5 132.56C280.14 132.87 279.92 133.01 279.89 132.98C279.86 132.95 280.63 132.24 281.62 130.89C282.911 129.146 283.771 127.122 284.131 124.983C284.49 122.844 284.339 120.65 283.69 118.58C283.21 116.98 282.67 116.07 282.75 116.03Z" fill="#455A64"/>
<path d="M295.56 126.53C295.555 127.276 295.392 128.012 295.08 128.69C294.416 130.365 293.366 131.86 292.016 133.053C290.666 134.247 289.054 135.106 287.31 135.56C286.601 135.787 285.851 135.862 285.11 135.78C285.11 135.69 285.94 135.61 287.21 135.21C288.857 134.676 290.375 133.807 291.67 132.66C292.966 131.512 294.011 130.11 294.74 128.54C295.3 127.36 295.47 126.51 295.56 126.53Z" fill="#FAFAFA"/>
<path d="M305 138.54C305.042 139.035 304.952 139.531 304.74 139.98C304.325 141.093 303.667 142.099 302.814 142.926C301.961 143.753 300.935 144.379 299.81 144.76C299.355 144.951 298.861 145.026 298.37 144.98C299.865 144.423 301.248 143.599 302.45 142.55C303.542 141.384 304.407 140.024 305 138.54Z" fill="#455A64"/>
<path d="M214.32 285.26L239.09 270.96L287.75 266.16L288.07 273.29L274.93 372.7L285.63 456.58H207.66L214.32 285.26Z" fill="#263238"/>
<path d="M237.27 281.12L235.74 266.81C235.677 266.212 235.733 265.607 235.905 265.03C236.077 264.454 236.363 263.918 236.744 263.452C237.126 262.987 237.596 262.602 238.127 262.32C238.659 262.039 239.241 261.865 239.84 261.81L285.22 257.71C285.511 257.684 285.805 257.718 286.083 257.809C286.361 257.9 286.617 258.047 286.836 258.241C287.055 258.435 287.232 258.671 287.357 258.936C287.481 259.201 287.55 259.488 287.56 259.78L288.07 276.78L274.93 299.08L261.42 303.36H244.91L235.41 293.22L237.27 281.12Z" fill="#263238"/>
<path d="M281.37 271.36C280.764 271.336 280.16 271.276 279.56 271.18C277.915 271.024 276.26 270.994 274.61 271.09C272.164 271.257 269.734 271.608 267.34 272.14C264.63 272.71 261.69 273.51 258.57 274.27C255.636 275.029 252.647 275.561 249.63 275.86C247.153 276.089 244.655 275.92 242.23 275.36C240.595 274.97 239.032 274.321 237.6 273.44C237.22 273.193 236.852 272.926 236.5 272.64C236.26 272.44 236.14 272.32 236.16 272.31C236.18 272.3 236.7 272.67 237.72 273.25C239.163 274.042 240.712 274.621 242.32 274.97C244.71 275.467 247.162 275.592 249.59 275.34C252.573 275.016 255.527 274.474 258.43 273.72C261.54 272.96 264.5 272.17 267.24 271.63C269.66 271.114 272.119 270.8 274.59 270.69C276.262 270.626 277.936 270.716 279.59 270.96C280.18 271.06 280.59 271.14 280.93 271.22C281.081 271.253 281.228 271.3 281.37 271.36Z" fill="#455A64"/>
<g opacity="0.3">
<path d="M238.35 273.59C237.13 276.93 237.1 281.07 239.56 283.59C241.56 285.68 244.8 286.2 247.64 285.59C250.452 284.867 253.12 283.67 255.53 282.05C261.78 278.33 268.12 274.48 275.22 272.91C275.685 272.85 276.125 272.663 276.49 272.37C276.578 272.296 276.649 272.204 276.699 272.101C276.75 271.998 276.778 271.886 276.783 271.771C276.787 271.656 276.768 271.542 276.727 271.435C276.685 271.328 276.621 271.231 276.54 271.15C276.363 271.04 276.159 270.981 275.95 270.98C269.67 270.35 263.63 272.83 257.48 274.21C251.33 275.59 244.26 277.04 238.63 273.72" fill="black"/>
</g>
<path d="M247.001 261.36C246.356 261.707 245.817 262.222 245.441 262.85C244.731 264 244.821 265.95 244.821 268.06C244.941 272.3 245.641 275.68 245.471 275.72C245.161 275.024 244.955 274.286 244.861 273.53C244.509 271.733 244.309 269.91 244.261 268.08C244.216 267.08 244.236 266.078 244.321 265.08C244.381 264.225 244.649 263.398 245.101 262.67C245.411 262.177 245.855 261.782 246.381 261.53C246.781 261.36 247.001 261.36 247.001 261.36Z" fill="#455A64"/>
<path d="M259 273.79C258.82 273.79 259.23 270.65 258.67 266.87C258.11 263.09 256.89 260.19 257.06 260.12C257.47 260.678 257.784 261.299 257.99 261.96C258.583 263.518 258.999 265.139 259.23 266.79C259.474 268.445 259.524 270.123 259.38 271.79C259.367 272.473 259.238 273.149 259 273.79Z" fill="#455A64"/>
<path d="M273.621 258.92C274.025 259.415 274.319 259.992 274.481 260.61C275.474 263.555 275.259 266.774 273.881 269.56C273.647 270.157 273.278 270.691 272.801 271.12C273.703 269.23 274.281 267.202 274.511 265.12C274.771 261.62 273.441 258.98 273.621 258.92Z" fill="#455A64"/>
<path d="M181.15 407.75C181.15 407.75 192.15 326.75 195.36 312.06C196.569 306.549 198.874 301.337 202.138 296.734C205.402 292.132 209.558 288.233 214.36 285.27L217.41 432.03L204 448.91L189 454.65C185.566 455.97 181.775 456.03 178.3 454.82L163.93 449.82L162.71 422.44L174.85 418.93L181.15 407.75Z" fill="#263238"/>
<path d="M330.64 283.88C336.144 286.022 341.038 289.483 344.891 293.959C348.745 298.435 351.44 303.789 352.74 309.55C361.32 347.36 376 397.67 376.23 413.9C376.52 434.57 367.48 448.72 355.68 451.33C348.93 452.82 303.02 452.07 278.09 451.54C273.639 451.442 269.371 449.747 266.067 446.764C262.762 443.78 260.641 439.708 260.09 435.29C259.481 430.47 260.786 425.604 263.725 421.735C266.664 417.867 271.003 415.305 275.81 414.6L326.32 407.17L316.94 354.76L326.22 282.17L330.64 283.88Z" fill="#263238"/>
<path d="M286.77 267.66L307 275.93L326.24 282.17L326.7 339.74L315.25 456.43L275.1 456.58L275.18 404.5C273.688 379.394 275.327 354.201 280.06 329.5L286.17 279.99" fill="#263238"/>
<path d="M316.371 349.46C316.444 349.647 316.494 349.841 316.521 350.04C316.611 350.49 316.721 351.04 316.851 351.72C317.131 353.26 317.521 355.36 317.981 357.91C318.911 363.22 320.161 370.42 321.551 378.37C322.941 386.32 324.071 393.54 324.961 398.85C325.361 401.42 325.691 403.52 325.961 405.07C326.061 405.76 326.141 406.32 326.201 406.77C326.229 406.969 326.229 407.171 326.201 407.37C326.128 407.183 326.077 406.989 326.051 406.79C325.951 406.34 325.841 405.79 325.701 405.11C325.421 403.57 325.031 401.48 324.551 398.92C323.611 393.69 322.341 386.46 320.981 378.46C319.621 370.46 318.411 363.23 317.581 357.98C317.181 355.41 316.861 353.31 316.581 351.76C316.491 351.07 316.421 350.51 316.361 350.06C316.335 349.861 316.339 349.658 316.371 349.46Z" fill="#263238"/>
<path d="M335.32 292.06C334.819 292.29 334.301 292.481 333.77 292.63C332.366 293.143 330.994 293.737 329.66 294.41C325.274 296.665 321.471 299.907 318.55 303.88C317.716 304.999 316.983 306.191 316.36 307.44C315.821 308.621 315.383 309.845 315.05 311.1C314.483 313.242 314.115 315.431 313.95 317.64C313.78 319.52 313.75 321.06 313.74 322.12C313.776 322.669 313.776 323.221 313.74 323.77C313.617 323.229 313.556 322.675 313.56 322.12C313.476 320.618 313.476 319.112 313.56 317.61C313.672 315.369 314.007 313.145 314.56 310.97C314.888 309.677 315.33 308.415 315.88 307.2C316.509 305.917 317.256 304.695 318.11 303.55C321.076 299.503 324.986 296.241 329.5 294.05C330.862 293.398 332.273 292.853 333.72 292.42C334.239 292.244 334.775 292.123 335.32 292.06Z" fill="#263238"/>
<path d="M274.65 414.81C274.885 414.818 275.119 414.801 275.35 414.76L277.35 414.51L284.73 413.51L309.05 409.9L326.73 407.18H326.66C328.914 407.504 331.035 408.441 332.79 409.89C334.164 410.988 335.306 412.347 336.15 413.89C336.862 415.251 337.367 416.71 337.65 418.22C337.667 418.117 337.667 418.013 337.65 417.91C337.65 417.7 337.65 417.4 337.53 417.01C337.319 415.877 336.942 414.782 336.41 413.76C335.584 412.154 334.441 410.733 333.05 409.58C331.251 408.053 329.063 407.056 326.73 406.7H326.66L309 409.36L284.71 413.13L277.36 414.33L275.36 414.69C275.12 414.704 274.882 414.744 274.65 414.81Z" fill="#263238"/>
<path d="M278.71 451.56C278.878 451.532 279.04 451.478 279.19 451.4C279.648 451.235 280.093 451.034 280.52 450.8C282.104 449.957 283.518 448.828 284.69 447.47C286.427 445.445 287.719 443.077 288.48 440.52C289.424 437.392 289.673 434.095 289.21 430.86C288.683 427.614 287.303 424.567 285.21 422.03C283.534 419.966 281.455 418.265 279.1 417.03C277.532 416.192 275.846 415.595 274.1 415.26C273.49 415.13 272.99 415.13 272.66 415.08C272.494 415.058 272.326 415.058 272.16 415.08C274.534 415.476 276.827 416.256 278.95 417.39C281.223 418.654 283.224 420.353 284.84 422.39C286.841 424.868 288.162 427.826 288.67 430.97C289.115 434.112 288.887 437.313 288 440.36C287.281 442.863 286.056 445.191 284.4 447.2C283.274 448.557 281.921 449.707 280.4 450.6C279.34 451.23 278.69 451.5 278.71 451.56Z" fill="#263238"/>
<g opacity="0.2">
<path d="M317.12 353.2L309.58 409.51L319.13 407.37L322.09 382.8L317.12 353.2Z" fill="black"/>
</g>
<g opacity="0.3">
<path d="M162.931 422.45C167.467 421.63 172.114 421.63 176.651 422.45C178.592 422.885 180.415 423.736 181.995 424.945C183.575 426.153 184.873 427.69 185.801 429.45C187.58 432.756 188.133 436.586 187.361 440.26C186.711 443.43 186.031 446.71 183.711 448.96C180.291 452.28 176.921 453.35 172.501 452.57L164.001 449.81L162.931 422.45Z" fill="black"/>
</g>
<path d="M170.25 452C170.43 452.102 170.622 452.182 170.82 452.24C171.376 452.442 171.948 452.596 172.53 452.7C174.681 453.143 176.908 453.026 179 452.36C180.446 451.888 181.78 451.126 182.92 450.12C184.211 448.953 185.272 447.556 186.05 446C186.908 444.287 187.511 442.457 187.84 440.57C188.279 438.551 188.326 436.467 187.98 434.43C187.537 432.42 186.77 430.495 185.71 428.73C184.796 427.136 183.562 425.748 182.085 424.653C180.609 423.559 178.922 422.781 177.13 422.37C175.66 422.058 174.163 421.89 172.66 421.87C170.5 421.852 168.341 421.992 166.2 422.29L164.46 422.54C164.255 422.552 164.052 422.596 163.86 422.67C164.063 422.694 164.268 422.694 164.47 422.67L166.22 422.53C168.357 422.316 170.504 422.235 172.65 422.29C174.122 422.336 175.585 422.523 177.02 422.85C178.653 423.245 180.195 423.951 181.56 424.93C184.45 426.93 186.56 430.6 187.43 434.56C187.763 436.527 187.719 438.539 187.3 440.49C186.99 442.327 186.414 444.109 185.59 445.78C184.847 447.288 183.83 448.645 182.59 449.78C181.504 450.759 180.232 451.511 178.85 451.99C176.824 452.673 174.661 452.851 172.55 452.51C171.07 452.25 170.27 451.95 170.25 452Z" fill="#263238"/>
<g opacity="0.3">
<path d="M273.41 415.14C277.41 416.24 281.66 417.48 284.41 420.6C287.207 424.049 288.838 428.296 289.07 432.73C289.302 437.165 288.122 441.558 285.7 445.28C284.445 447.328 282.759 449.078 280.76 450.41C278.707 451.445 276.369 451.772 274.11 451.34C268.11 450.34 262.99 445.5 261.21 439.64C260.337 436.56 260.116 433.332 260.562 430.162C261.008 426.992 262.111 423.949 263.8 421.23C265.42 418.8 270.62 416.02 273.4 415.14" fill="black"/>
</g>
<path d="M346.71 429.09C346.535 428.699 346.391 428.294 346.28 427.88C346.03 427.1 345.67 425.97 345.18 424.59C343.998 420.98 342.25 417.581 340 414.52C337.685 411.493 334.567 409.175 331 407.83C329.505 407.341 327.964 407.006 326.4 406.83C326.825 406.776 327.255 406.776 327.68 406.83C328.851 406.907 330.007 407.133 331.12 407.5C334.802 408.778 338.024 411.116 340.38 414.22C342.688 417.316 344.438 420.792 345.55 424.49C346 425.9 346.31 427.05 346.55 427.85C346.655 428.255 346.709 428.672 346.71 429.09Z" fill="#455A64"/>
<path d="M312 325.63C312.104 325.888 312.181 326.156 312.23 326.43C312.36 327.01 312.55 327.79 312.78 328.77C313.25 330.77 313.89 333.77 314.66 337.38C316.2 344.66 318.19 354.76 320.15 365.95C322.11 377.14 323.63 387.31 324.64 394.69C325.15 398.37 325.54 401.36 325.79 403.43C325.9 404.43 325.99 405.22 326.06 405.81C326.13 406.4 326.13 406.64 326.12 406.65C326.037 406.38 325.98 406.102 325.95 405.82C325.86 405.24 325.74 404.45 325.58 403.46C325.27 401.35 324.83 398.38 324.28 394.74C323.17 387.38 321.58 377.22 319.63 366.04C317.68 354.86 315.75 344.75 314.3 337.45C313.58 333.84 313 330.9 312.58 328.81C312.39 327.81 312.24 327.04 312.13 326.46C312.064 326.187 312.02 325.91 312 325.63Z" fill="#455A64"/>
<path d="M329.08 285.14C329.08 285.22 327.97 285.85 326.26 287.08C324.047 288.681 322.032 290.541 320.26 292.62C318.491 294.709 316.983 297.006 315.77 299.46C314.84 301.35 314.4 302.58 314.32 302.55C314.342 302.24 314.416 301.935 314.54 301.65C314.79 300.848 315.09 300.063 315.44 299.3C316.575 296.769 318.063 294.412 319.86 292.3C321.665 290.184 323.755 288.33 326.07 286.79C326.769 286.324 327.497 285.903 328.25 285.53C328.506 285.36 328.786 285.228 329.08 285.14Z" fill="#455A64"/>
<path d="M208.591 418.8C208.578 418.714 208.578 418.626 208.591 418.54C208.591 418.35 208.591 418.1 208.591 417.8C208.591 417.11 208.591 416.15 208.591 414.94C208.541 412.46 208.531 408.87 208.251 404.45C208.101 402.24 207.871 399.82 207.481 397.25C207.091 394.68 206.481 391.96 205.771 389.12C204.371 383.44 202.371 377.22 201.951 370.4C201.746 363.998 202.566 357.603 204.381 351.46C205.891 345.78 207.571 340.76 208.781 336.46C209.774 333.104 210.582 329.695 211.201 326.25C211.441 325.03 211.531 324.07 211.641 323.43C211.641 323.13 211.721 322.89 211.751 322.69C211.781 322.49 211.751 322.44 211.811 322.45C211.82 322.533 211.82 322.617 211.811 322.7C211.811 322.9 211.811 323.14 211.751 323.44C211.681 324.09 211.621 325.06 211.411 326.28C210.823 329.767 210.018 333.214 209.001 336.6C207.841 340.88 206.201 345.91 204.711 351.6C202.955 357.693 202.165 364.023 202.371 370.36C202.791 377.1 204.751 383.29 206.141 388.99C206.836 391.686 207.391 394.416 207.801 397.17C208.181 399.76 208.391 402.17 208.511 404.41C208.751 408.85 208.711 412.41 208.691 414.93C208.691 416.14 208.691 417.1 208.641 417.79V418.53C208.638 418.622 208.621 418.713 208.591 418.8Z" fill="#455A64"/>
<path d="M312.63 302.94L312.31 302.86L311.41 302.58C310.25 302.244 309.062 302.01 307.86 301.88C303.421 301.473 298.947 302.085 294.78 303.67C291.899 304.729 289.118 306.045 286.47 307.6C283.59 309.24 280.62 311.18 277.47 313.19C274.197 315.343 270.779 317.268 267.24 318.95C263.417 320.771 259.299 321.896 255.08 322.27C250.829 322.515 246.583 321.704 242.72 319.91C239.166 318.248 235.764 316.281 232.55 314.03C229.45 311.95 226.55 309.94 223.62 308.34C220.961 306.812 218.109 305.648 215.14 304.88C212.684 304.287 210.144 304.118 207.63 304.38C205.734 304.585 203.884 305.095 202.15 305.89C200.683 306.607 199.334 307.545 198.15 308.67C198.212 308.583 198.283 308.503 198.36 308.43C198.51 308.28 198.73 308.04 199.03 307.76C199.938 306.964 200.947 306.292 202.03 305.76C203.774 304.916 205.647 304.369 207.57 304.14C210.12 303.847 212.7 303.993 215.2 304.57C218.209 305.328 221.102 306.489 223.8 308.02C226.73 309.61 229.68 311.61 232.8 313.68C236 315.904 239.386 317.848 242.92 319.49C246.701 321.222 250.849 321.998 255 321.75C259.162 321.386 263.226 320.282 267 318.49C270.521 316.824 273.923 314.916 277.18 312.78C280.34 310.78 283.32 308.86 286.23 307.22C288.907 305.668 291.718 304.363 294.63 303.32C298.849 301.75 303.376 301.188 307.85 301.68C309.059 301.835 310.251 302.103 311.41 302.48L312.3 302.81C312.417 302.836 312.528 302.88 312.63 302.94Z" fill="#FAFAFA"/>
<path d="M350.85 313.57C350.552 313.979 350.217 314.361 349.85 314.71C349.448 315.149 349.017 315.56 348.56 315.94C347.986 316.474 347.381 316.975 346.75 317.44C345.994 318.021 345.206 318.558 344.39 319.05C343.462 319.631 342.504 320.162 341.52 320.64C339.255 321.72 336.881 322.558 334.44 323.14C331.986 323.679 329.482 323.961 326.97 323.98C325.874 323.976 324.779 323.912 323.69 323.79C322.743 323.706 321.801 323.566 320.87 323.37C320 323.23 319.25 322.98 318.58 322.81C318.006 322.663 317.441 322.479 316.89 322.26C316.408 322.111 315.942 321.913 315.5 321.67C315.5 321.56 317.5 322.4 320.94 323C321.862 323.174 322.794 323.295 323.73 323.36C324.73 323.49 325.83 323.47 326.97 323.5C329.443 323.45 331.904 323.159 334.32 322.63C336.728 322.058 339.073 321.248 341.32 320.21C342.32 319.69 343.32 319.21 344.18 318.68C344.993 318.208 345.781 317.694 346.54 317.14C349.33 315.11 350.76 313.49 350.85 313.57Z" fill="#FAFAFA"/>
<path d="M208.111 332.66C207.332 332.806 206.536 332.829 205.751 332.73C203.844 332.604 201.961 332.231 200.151 331.62C198.341 331.008 196.618 330.168 195.021 329.12C194.333 328.728 193.711 328.228 193.181 327.64C195.444 329.025 197.835 330.19 200.321 331.12C202.862 331.883 205.47 332.399 208.111 332.66Z" fill="#FAFAFA"/>
<path d="M314.171 338.91C313.038 338.082 311.841 337.347 310.591 336.71C307.082 335.169 303.257 334.483 299.431 334.71C294.571 334.78 288.901 336.06 282.691 337.71C276.481 339.36 269.691 341.4 262.371 342.77C258.812 343.462 255.204 343.876 251.581 344.01C248.203 344.117 244.823 343.957 241.471 343.53C235.808 342.785 230.215 341.574 224.751 339.91C220.081 338.53 216.361 337.23 213.751 336.33L210.801 335.28L210.041 334.99C209.871 334.92 209.781 334.88 209.791 334.87C209.883 334.885 209.973 334.908 210.061 334.94L210.841 335.18L213.841 336.18C216.431 337.02 220.161 338.26 224.841 339.6C230.301 341.2 235.878 342.37 241.521 343.1C244.838 343.501 248.181 343.648 251.521 343.54C255.12 343.395 258.703 342.981 262.241 342.3C269.521 340.93 276.301 338.88 282.531 337.3C288.761 335.72 294.471 334.43 299.381 334.4C303.26 334.215 307.125 334.981 310.641 336.63L311.491 337.08L312.211 337.54C312.591 337.764 312.952 338.018 313.291 338.3L313.921 338.82L314.171 338.91Z" fill="#FAFAFA"/>
<path d="M136.87 451.09C136.87 451.09 147.32 452.63 151.32 454.25C155.66 456 161.02 454.98 164.66 452.62C166.73 451.309 168.666 449.799 170.44 448.11L183.8 448.18C185.773 445.974 187.097 443.265 187.627 440.353C188.156 437.441 187.87 434.44 186.8 431.68C186.107 429.763 185.092 427.977 183.8 426.4C182.25 424.65 179.8 423.21 175.46 422.4L159.52 425.5C159.52 425.5 139.31 425.16 131.16 424.78C129.201 424.688 127.264 425.224 125.63 426.31C123.72 427.58 121.56 429.31 121.73 430.38C121.85 431.19 120.53 436.38 124.46 439.73C124.46 439.73 120.92 442.42 122.75 444.95L123.63 446.07C123.63 446.07 121.23 449.07 122.4 450.39C123.57 451.71 133.97 458.13 137.76 456.73C141.55 455.33 138.52 451.79 136.87 451.12" fill="#B78876"/>
<path d="M127.2 434.36C127.647 434.486 128.081 434.65 128.5 434.85C129.32 435.18 130.5 435.65 132.01 436.17C132.76 436.42 133.59 436.69 134.48 436.94C135.37 437.19 136.35 437.42 137.36 437.77C138.459 438.094 139.446 438.717 140.21 439.57C140.628 440.044 140.913 440.621 141.036 441.241C141.159 441.861 141.115 442.502 140.91 443.1C140.64 443.698 140.17 444.183 139.58 444.47C139.025 444.723 138.429 444.876 137.82 444.92C136.701 444.961 135.581 444.877 134.48 444.67C132.638 444.338 130.832 443.826 129.09 443.14C127.6 442.58 126.42 442.05 125.61 441.69C125.179 441.52 124.764 441.313 124.37 441.07C124.819 441.187 125.257 441.341 125.68 441.53C126.51 441.85 127.68 442.33 129.19 442.85C130.931 443.481 132.725 443.956 134.55 444.27C135.615 444.465 136.699 444.539 137.78 444.49C138.334 444.451 138.876 444.312 139.38 444.08C139.883 443.844 140.282 443.431 140.5 442.92C140.675 442.397 140.71 441.838 140.602 441.297C140.493 440.757 140.244 440.254 139.88 439.84C139.167 439.046 138.251 438.462 137.23 438.15C136.23 437.8 135.28 437.57 134.38 437.29C133.48 437.01 132.66 436.73 131.91 436.46C130.41 435.91 129.23 435.39 128.43 435C128.003 434.821 127.592 434.607 127.2 434.36Z" fill="#AA6550"/>
<path d="M128.3 426.79C128.741 426.929 129.172 427.096 129.59 427.29C130.41 427.63 131.59 428.11 133.08 428.64C134.57 429.17 136.36 429.75 138.37 430.28C139.485 430.477 140.539 430.929 141.45 431.6C141.932 432.019 142.245 432.598 142.33 433.23C142.409 433.867 142.301 434.513 142.02 435.09C141.737 435.641 141.343 436.127 140.863 436.517C140.383 436.908 139.827 437.195 139.23 437.36C138.148 437.688 137.004 437.756 135.89 437.56C134.065 437.162 132.278 436.603 130.55 435.89L127 434.58C126.562 434.437 126.137 434.257 125.73 434.04C126.183 434.13 126.628 434.257 127.06 434.42L130.61 435.6C132.333 436.259 134.105 436.781 135.91 437.16C136.962 437.337 138.04 437.268 139.06 436.96C139.599 436.807 140.1 436.545 140.534 436.191C140.967 435.837 141.323 435.397 141.58 434.9C141.852 434.421 141.954 433.865 141.871 433.32C141.787 432.776 141.523 432.276 141.12 431.9C140.265 431.269 139.276 430.842 138.23 430.65C136.23 430.09 134.41 429.48 132.93 428.91C131.45 428.34 130.28 427.81 129.48 427.43C129.068 427.254 128.673 427.04 128.3 426.79Z" fill="#AA6550"/>
<path d="M170.251 430.15L161.001 426.36C161.001 426.36 135.331 413.72 134.881 414.36C134.431 415 133.031 414.91 133.271 418.08C133.511 421.25 148.481 427.93 148.941 429.08C149.401 430.23 148.481 435.7 153.941 439.78C159.401 443.86 163.461 444.04 163.461 444.04" fill="#B78876"/>
<path d="M163.49 444H163.26C163.046 443.985 162.832 443.958 162.62 443.92C161.8 443.782 160.993 443.571 160.21 443.29C158.967 442.848 157.765 442.296 156.62 441.64C155.091 440.792 153.671 439.761 152.39 438.57C150.856 437.061 149.79 435.14 149.32 433.04C149.078 431.889 148.918 430.723 148.84 429.55C148.821 429.412 148.795 429.275 148.76 429.14C148.7 429.04 148.618 428.954 148.52 428.89C148.28 428.706 148.03 428.536 147.77 428.38C147.25 428.06 146.7 427.75 146.14 427.43C143.92 426.19 141.55 424.93 139.14 423.49C137.95 422.77 136.75 422.01 135.59 421.15C134.998 420.713 134.443 420.228 133.93 419.7C133.66 419.424 133.425 419.115 133.23 418.78C133.136 418.598 133.068 418.402 133.03 418.2C133.016 418.007 133.016 417.813 133.03 417.62C132.959 416.845 133.116 416.067 133.48 415.38C133.695 415.05 133.982 414.773 134.32 414.57C134.454 414.488 134.575 414.387 134.68 414.27C134.68 414.27 134.68 414.27 134.77 414.18C134.827 414.143 134.893 414.122 134.96 414.12H135.14L135.42 414.19C136.82 414.66 138.09 415.25 139.42 415.81C141.96 416.94 144.42 418.08 146.69 419.18C151.3 421.37 155.43 423.39 158.89 425.11C159.75 425.53 160.57 425.96 161.36 426.31L163.62 427.26L167.25 428.78L169.53 429.78L170.12 430.05L170.31 430.15L170.1 430.09L169.5 429.87L167.18 428.96L163.52 427.5L161.24 426.59C160.44 426.24 159.63 425.82 158.75 425.4L146.52 419.56C144.21 418.48 141.78 417.34 139.24 416.22C137.98 415.67 136.68 415.07 135.35 414.63L135.11 414.57H135C135 414.57 135 414.51 135 414.47C135.29 414.67 135.07 414.53 135.13 414.58C134.997 414.735 134.842 414.87 134.67 414.98C134.386 415.15 134.143 415.383 133.96 415.66C133.65 416.278 133.515 416.97 133.57 417.66C133.55 418.005 133.618 418.35 133.77 418.66C133.945 418.959 134.156 419.234 134.4 419.48C134.896 419.988 135.431 420.457 136 420.88C137.14 421.73 138.33 422.49 139.51 423.2C141.88 424.64 144.24 425.91 146.51 427.2C147.07 427.52 147.62 427.83 148.15 428.2C148.41 428.37 148.68 428.53 148.93 428.73C149.089 428.836 149.214 428.985 149.29 429.16C149.341 429.316 149.374 429.477 149.39 429.64C149.462 430.805 149.613 431.965 149.84 433.11C150.289 435.149 151.309 437.019 152.78 438.5C154.031 439.686 155.417 440.72 156.91 441.58C158.038 442.244 159.218 442.813 160.44 443.28C161.211 443.577 162.003 443.814 162.81 443.99C163.08 444.05 163.3 444.08 163.44 444.1L163.49 444Z" fill="#AA6550"/>
<path d="M134.87 444.61C135.217 444.665 135.554 444.77 135.87 444.92C136.739 445.294 137.55 445.789 138.28 446.39C138.793 446.806 139.259 447.275 139.67 447.79C139.927 448.092 140.12 448.442 140.241 448.82C140.361 449.198 140.405 449.595 140.37 449.99C140.276 450.429 140.062 450.832 139.751 451.156C139.44 451.479 139.045 451.709 138.61 451.82C137.71 452.044 136.763 451.995 135.89 451.68C132.942 450.738 130.089 449.52 127.37 448.04C126.552 447.594 125.76 447.1 125 446.56C124.71 446.378 124.438 446.167 124.19 445.93C124.506 446.063 124.808 446.227 125.09 446.42C125.66 446.76 126.49 447.23 127.53 447.77C130.261 449.147 133.093 450.313 136 451.26C136.789 451.546 137.643 451.598 138.46 451.41C138.825 451.327 139.158 451.143 139.423 450.879C139.689 450.616 139.875 450.284 139.96 449.92C139.99 449.576 139.951 449.229 139.847 448.899C139.742 448.57 139.573 448.264 139.35 448C138.97 447.496 138.537 447.034 138.06 446.62C137.086 445.818 136.014 445.143 134.87 444.61Z" fill="#AA6550"/>
<path d="M281.93 419.08L265.45 419.42C265.45 419.42 240.75 410.49 235.67 411.35C231.09 412.11 214.34 423.24 211.06 425.45C210.691 425.687 210.41 426.038 210.26 426.45C209.937 427.321 209.964 428.284 210.338 429.135C210.711 429.986 211.4 430.658 212.26 431.01L212.61 431.16L212.46 431.66C212.261 432.307 212.173 432.983 212.2 433.66C212.241 434.172 212.443 434.657 212.778 435.046C213.112 435.436 213.562 435.709 214.062 435.825C214.561 435.942 215.085 435.897 215.558 435.697C216.03 435.496 216.427 435.151 216.69 434.71L216.06 435.83C215.802 436.286 215.681 436.807 215.71 437.33L215.77 438.33C215.8 438.883 215.996 439.414 216.334 439.853C216.671 440.292 217.134 440.619 217.66 440.79C218.163 440.953 218.701 440.968 219.212 440.834C219.723 440.699 220.184 440.42 220.54 440.03C222.66 437.7 227.25 433.03 230.35 432.5C233.718 432.096 237.109 431.925 240.5 431.99C241.19 431.994 241.862 432.207 242.43 432.599C242.997 432.992 243.433 433.546 243.68 434.19C241.84 434.32 229 441.01 224.46 443.41C223.757 443.761 223.149 444.278 222.69 444.915C222.23 445.552 221.932 446.292 221.82 447.07C221.65 448.49 222.37 449.98 225.18 449.32C231.18 447.91 242.08 442.92 242.08 442.92C242.08 442.92 247.69 441.32 251.32 443.92C256.42 447.52 258.76 448.84 263.15 447.39C265.814 446.498 268.37 445.31 270.77 443.85L285.71 445.3C285.71 445.3 294.85 430.36 281.93 419.08Z" fill="#B78876"/>
<path d="M243.78 423.59C243.78 423.69 242.02 423.13 239.14 422.95C235.371 422.696 231.596 423.335 228.12 424.816C224.645 426.296 221.568 428.576 219.14 431.47C217.28 433.68 216.48 435.32 216.4 435.27C216.533 434.864 216.717 434.478 216.95 434.12C217.519 433.116 218.167 432.159 218.89 431.26C221.289 428.259 224.394 425.899 227.928 424.391C231.462 422.883 235.314 422.275 239.14 422.62C240.291 422.717 241.432 422.911 242.55 423.2C242.972 423.291 243.384 423.421 243.78 423.59Z" fill="#AA6550"/>
<path d="M241.16 417.59C239.59 417.118 237.968 416.836 236.33 416.75C232.359 416.731 228.463 417.833 225.09 419.93C221.749 422.077 218.703 424.652 216.03 427.59L213.55 430.23C213.264 430.569 212.949 430.883 212.61 431.17C212.839 430.787 213.111 430.431 213.42 430.11C213.96 429.45 214.77 428.51 215.79 427.37C218.419 424.336 221.47 421.696 224.85 419.53C228.29 417.383 232.287 416.3 236.34 416.42C237.562 416.474 238.77 416.696 239.93 417.08C240.244 417.176 240.552 417.293 240.85 417.43C240.962 417.465 241.067 417.519 241.16 417.59Z" fill="#AA6550"/>
<path d="M172.43 180.94C167.007 168.333 157.529 157.899 145.5 151.293C133.471 144.687 119.581 142.288 106.033 144.476C92.4848 146.664 80.0558 153.314 70.7181 163.371C61.3804 173.428 55.669 186.316 54.4904 199.988C53.3117 213.661 56.7332 227.336 64.212 238.842C71.6907 250.349 82.7982 259.028 95.7718 263.503C108.745 267.977 122.842 267.99 135.824 263.54C148.806 259.091 159.929 250.432 167.43 238.94L191.23 238.55L175.71 219.86C178.887 206.876 177.736 193.209 172.43 180.94Z" fill="#FAFAFA"/>
<path d="M91.43 148.6C91.0866 148.711 90.7523 148.848 90.43 149.01L87.59 150.36C86.96 150.67 86.25 150.97 85.5 151.36L83.1 152.81L80.31 154.52L77.31 156.78C72.2121 160.698 67.7931 165.428 64.23 170.78C59.454 177.839 56.167 185.798 54.57 194.17C52.7305 204.37 53.4172 214.866 56.57 224.74C57.4664 227.423 58.5353 230.045 59.77 232.59C60.43 233.87 60.98 235.22 61.77 236.46L64.1 240.21C67.4932 245.291 71.6176 249.843 76.34 253.72C81.3288 257.743 86.8727 261.023 92.8 263.46C99.0503 265.885 105.638 267.329 112.33 267.74C119.269 268.209 126.236 267.447 132.91 265.49C134.612 265.042 136.283 264.481 137.91 263.81C139.59 263.237 141.236 262.57 142.84 261.81C146.086 260.253 149.194 258.423 152.13 256.34C158.452 251.836 163.878 246.193 168.13 239.7L167.57 240.01L190.91 239.42H192.29L191.43 238.34L176.43 219.58L176.56 220.15C178.87 210.664 178.918 200.768 176.7 191.26C175.692 186.827 174.151 182.532 172.11 178.47C171.204 176.481 170.151 174.562 168.96 172.73L167.26 170.01C166.67 169.13 165.97 168.33 165.35 167.49C156.381 155.844 143.565 147.763 129.19 144.69C123.88 143.506 118.432 143.058 113 143.36L109.56 143.58L106.43 144.08L103.56 144.55C102.67 144.75 101.83 145.01 101.03 145.22C99.44 145.68 98.03 145.98 96.83 146.43L93.83 147.59L92 148.36C91.7926 148.429 91.5944 148.523 91.41 148.64C91.6302 148.608 91.8452 148.547 92.05 148.46L93.89 147.84L96.89 146.78C98.08 146.38 99.51 146.1 101.1 145.68C112.702 142.899 124.862 143.542 136.106 147.532C147.351 151.522 157.196 158.687 164.45 168.16C165.06 168.99 165.74 169.78 166.31 170.64L167.97 173.32C169.133 175.122 170.156 177.011 171.03 178.97C173.019 182.961 174.516 187.179 175.49 191.53C177.627 200.852 177.548 210.544 175.26 219.83L175.18 220.14L175.39 220.4C180.23 226.46 185.23 232.723 190.39 239.19L190.91 238.07L167.56 238.63H167.2L166.99 238.94C160.878 248.262 152.333 255.735 142.28 260.55C140.709 261.308 139.097 261.976 137.45 262.55C135.853 263.208 134.212 263.756 132.54 264.19C126.01 266.091 119.195 266.826 112.41 266.36C105.865 265.958 99.4199 264.555 93.3 262.2C87.4816 259.816 82.0386 256.602 77.14 252.66C72.5157 248.871 68.4727 244.423 65.14 239.46C64.36 238.23 63.6 237.01 62.84 235.8C62.08 234.59 61.54 233.26 60.84 232.01C59.6157 229.516 58.5568 226.943 57.67 224.31C54.7624 215.481 53.9032 206.105 55.1576 196.895C56.412 187.684 59.7471 178.88 64.91 171.15C68.3822 165.824 72.6948 161.096 77.68 157.15L80.58 154.86L83.31 153.11L85.66 151.6C86.4 151.18 87.1 150.86 87.66 150.54L90.44 149.09C90.7841 148.957 91.1155 148.793 91.43 148.6Z" fill="#263238"/>
<path d="M133.435 236.803L136.995 236.796C138.983 236.793 140.592 235.178 140.588 233.189L140.483 178.81C140.48 176.821 138.865 175.213 136.877 175.216L133.317 175.223C131.328 175.227 129.72 176.842 129.723 178.83L129.828 233.21C129.832 235.198 131.447 236.807 133.435 236.803Z" fill="#E0E0E0"/>
<path d="M115.815 236.839L119.375 236.832C121.363 236.829 122.972 235.214 122.968 233.226L122.863 178.846C122.859 176.857 121.245 175.249 119.256 175.253L115.696 175.259C113.708 175.263 112.099 176.878 112.103 178.866L112.208 233.246C112.212 235.234 113.826 236.843 115.815 236.839Z" fill="#E0E0E0"/>
<path d="M95.8742 236.871L99.4342 236.864C101.422 236.86 103.031 235.246 103.027 233.257L102.923 178.877C102.919 176.889 101.304 175.281 99.316 175.284L95.756 175.291C93.7677 175.295 92.1591 176.91 92.1629 178.898L92.2673 233.278C92.2711 235.266 93.886 236.875 95.8742 236.871Z" fill="#E0E0E0"/>
<path d="M135.06 236.8C134.609 236.742 134.161 236.658 133.72 236.55C132.459 236.196 131.384 235.368 130.72 234.24C130.239 233.443 129.983 232.531 129.98 231.6C129.98 230.55 129.98 229.42 129.98 228.2C129.98 225.75 129.98 222.98 129.98 219.91C129.98 213.76 129.98 206.45 129.98 198.35C129.98 194.29 129.98 190.03 129.98 185.61V182.27C129.901 181.172 129.972 180.069 130.19 178.99C130.546 177.964 131.22 177.079 132.113 176.461C133.006 175.844 134.073 175.528 135.159 175.558C136.244 175.588 137.292 175.963 138.15 176.629C139.007 177.294 139.631 178.216 139.93 179.26C140.085 180.353 140.139 181.457 140.09 182.56C140.09 183.68 140.09 184.8 140.09 185.9C140.09 190.32 140.09 194.58 140.09 198.64C140.09 206.75 140.17 214.05 140.2 220.21C140.2 223.27 140.2 226.05 140.27 228.49C140.27 229.71 140.27 230.86 140.27 231.88C140.228 232.811 139.926 233.711 139.4 234.48C138.665 235.559 137.551 236.323 136.28 236.62C135.4 236.81 134.92 236.76 134.92 236.8C135.383 236.861 135.852 236.844 136.31 236.75C137.644 236.499 138.827 235.739 139.61 234.63C140.192 233.831 140.538 232.885 140.61 231.9C140.61 230.84 140.61 229.72 140.61 228.49C140.61 226.05 140.61 223.27 140.61 220.21C140.61 214.05 140.61 206.75 140.61 198.64C140.61 194.58 140.61 190.32 140.61 185.9V180.9C140.632 180.305 140.575 179.71 140.44 179.13C140.137 177.927 139.441 176.86 138.463 176.097C137.485 175.335 136.28 174.92 135.04 174.92C133.802 174.865 132.58 175.217 131.56 175.92C130.552 176.63 129.807 177.653 129.44 178.83C129.268 179.407 129.183 180.007 129.19 180.61V182.3C129.19 183.42 129.19 184.54 129.19 185.64C129.19 190.06 129.19 194.32 129.24 198.38C129.24 206.48 129.32 213.79 129.35 219.95C129.35 223.01 129.4 225.78 129.41 228.23C129.41 229.45 129.41 230.58 129.41 231.63C129.423 232.616 129.71 233.579 130.24 234.41C130.953 235.568 132.097 236.395 133.42 236.71C133.954 236.853 134.513 236.884 135.06 236.8Z" fill="#263238"/>
<path d="M117.44 236.83C116.986 236.773 116.536 236.693 116.09 236.59C115.008 236.278 114.058 235.62 113.384 234.717C112.711 233.815 112.351 232.716 112.36 231.59C112.36 230.54 112.36 229.41 112.36 228.19C112.36 225.75 112.36 222.97 112.36 219.91C112.36 213.75 112.36 206.45 112.36 198.34V182.3C112.276 181.206 112.347 180.105 112.57 179.03C112.92 177.999 113.591 177.106 114.484 176.484C115.378 175.861 116.447 175.541 117.536 175.57C118.625 175.599 119.676 175.976 120.535 176.645C121.394 177.315 122.016 178.241 122.31 179.29C122.467 180.382 122.517 181.488 122.46 182.59C122.46 183.72 122.46 184.83 122.46 185.94C122.46 190.35 122.46 194.61 122.46 198.67C122.46 206.78 122.54 214.09 122.57 220.24C122.57 223.31 122.57 226.08 122.63 228.53C122.63 229.74 122.63 230.89 122.63 231.92C122.588 232.851 122.287 233.751 121.76 234.52C121.016 235.595 119.902 236.357 118.63 236.66C117.76 236.84 117.27 236.79 117.28 236.83C117.737 236.905 118.203 236.905 118.66 236.83C119.996 236.57 121.181 235.808 121.97 234.7C122.555 233.907 122.902 232.963 122.97 231.98C123.02 230.91 122.97 229.79 122.97 228.57C122.97 226.12 122.97 223.34 122.97 220.28C122.97 214.13 122.97 206.82 122.97 198.71C122.97 194.65 122.97 190.39 122.97 185.97V182.63C122.97 182.07 122.97 181.51 122.97 180.94C122.997 180.345 122.94 179.749 122.8 179.17C122.499 177.968 121.806 176.901 120.829 176.138C119.853 175.375 118.649 174.961 117.41 174.96C116.174 174.899 114.953 175.249 113.938 175.957C112.922 176.665 112.171 177.689 111.8 178.87C111.632 179.448 111.551 180.048 111.56 180.65V182.34C111.56 183.47 111.56 184.58 111.56 185.69C111.56 190.1 111.56 194.36 111.56 198.42C111.56 206.53 111.64 213.83 111.68 219.99C111.68 223.05 111.68 225.83 111.74 228.27C111.74 229.49 111.74 230.63 111.74 231.67C111.75 232.655 112.034 233.617 112.56 234.45C113.279 235.607 114.425 236.433 115.75 236.75C116.3 236.906 116.878 236.933 117.44 236.83Z" fill="#263238"/>
<path d="M97.5 236.87C97.0456 236.812 96.5949 236.729 96.15 236.62C95.076 236.31 94.1317 235.66 93.459 234.767C92.7863 233.875 92.4217 232.788 92.42 231.67C92.42 230.62 92.42 229.49 92.42 228.27C92.42 225.82 92.42 223.05 92.42 219.99C92.42 213.83 92.42 206.53 92.42 198.42V182.36C92.336 181.265 92.4067 180.165 92.63 179.09C92.9798 178.059 93.6506 177.166 94.5442 176.544C95.4377 175.921 96.5071 175.601 97.5958 175.63C98.6845 175.659 99.7353 176.036 100.594 176.705C101.453 177.375 102.076 178.301 102.37 179.35C102.527 180.442 102.577 181.548 102.52 182.65C102.52 183.77 102.52 184.89 102.52 185.99C102.52 190.41 102.52 194.67 102.52 198.73C102.52 206.84 102.6 214.15 102.63 220.3C102.63 223.36 102.63 226.14 102.69 228.59C102.69 229.8 102.69 230.95 102.69 231.97C102.648 232.901 102.347 233.801 101.82 234.57C101.079 235.649 99.9634 236.415 98.69 236.72C97.82 236.9 97.33 236.85 97.34 236.89C97.7969 236.965 98.2631 236.965 98.72 236.89C99.8699 236.664 100.913 236.066 101.689 235.187C102.464 234.309 102.929 233.199 103.01 232.03C103.01 230.97 103.01 229.85 103.01 228.63C103.01 226.18 103.01 223.4 103.01 220.34C103.01 214.18 103.01 206.88 103.01 198.77C103.01 194.71 103.01 190.45 103.01 186.03V181.03C103.026 180.435 102.969 179.841 102.84 179.26C102.536 178.058 101.839 176.992 100.862 176.229C99.8838 175.467 98.6799 175.052 97.44 175.05C96.204 174.989 94.9826 175.339 93.9674 176.047C92.9521 176.755 92.2004 177.779 91.83 178.96C91.6668 179.539 91.586 180.138 91.59 180.74V182.36C91.59 183.49 91.59 184.6 91.59 185.7C91.59 190.12 91.59 194.38 91.59 198.44C91.59 206.55 91.67 213.85 91.71 220.01C91.71 223.07 91.71 225.85 91.77 228.29C91.77 229.51 91.77 230.64 91.77 231.69C91.7797 232.675 92.0637 233.637 92.59 234.47C93.3088 235.627 94.4552 236.453 95.78 236.77C96.3376 236.937 96.9267 236.972 97.5 236.87Z" fill="#263238"/>
<path d="M125.06 187.36C125.064 188.856 124.625 190.319 123.797 191.564C122.969 192.81 121.79 193.782 120.41 194.358C119.029 194.933 117.509 195.086 116.041 194.798C114.574 194.509 113.225 193.792 112.165 192.736C111.106 191.681 110.383 190.335 110.088 188.868C109.794 187.402 109.941 185.881 110.511 184.498C111.081 183.116 112.049 181.933 113.291 181.1C114.533 180.268 115.995 179.822 117.49 179.82C119.494 179.817 121.416 180.61 122.836 182.024C124.255 183.437 125.055 185.357 125.06 187.36Z" fill="#FF6464"/>
<path d="M105.15 206.07C105.152 207.565 104.711 209.027 103.882 210.272C103.053 211.516 101.873 212.487 100.493 213.061C99.1119 213.635 97.5921 213.786 96.1252 213.497C94.6583 213.207 93.3103 212.489 92.2516 211.433C91.1929 210.377 90.4711 209.031 90.1775 207.565C89.8839 206.099 90.0316 204.578 90.6019 203.196C91.1723 201.814 92.1397 200.632 93.3819 199.8C94.624 198.967 96.085 198.522 97.5803 198.52C98.5731 198.519 99.5564 198.713 100.474 199.092C101.392 199.47 102.226 200.026 102.929 200.727C103.632 201.428 104.19 202.261 104.571 203.178C104.952 204.094 105.149 205.077 105.15 206.07Z" fill="#FF6464"/>
<path d="M141.876 220.205C143.411 216.321 141.507 211.93 137.623 210.395C133.74 208.861 129.349 210.765 127.814 214.648C126.28 218.532 128.184 222.923 132.067 224.458C135.95 225.992 140.342 224.088 141.876 220.205Z" fill="#FF6464"/>
<path d="M79.6797 456.68H230.51L211.05 350.82C210.715 349.001 209.754 347.356 208.332 346.172C206.911 344.988 205.12 344.34 203.27 344.34H67.7397C66.5746 344.34 65.4237 344.597 64.3695 345.093C63.3153 345.589 62.3837 346.312 61.6413 347.21C60.899 348.109 60.3642 349.16 60.0752 350.288C59.7863 351.417 59.7502 352.596 59.9697 353.74L79.6797 456.68Z" fill="#455A64"/>
<path d="M230.509 456.68H287.719L287.489 456.51C282.385 452.689 276.223 450.541 269.849 450.36L228.939 449.16L230.509 456.68Z" fill="#455A64"/>
<path d="M194.279 344.48C194.279 344.48 194.699 344.41 195.499 344.4C196.665 344.416 197.811 344.7 198.849 345.23C200.485 346.072 201.866 347.336 202.849 348.89C204.096 350.994 204.934 353.315 205.319 355.73C205.809 358.41 206.239 361.38 206.779 364.55C207.319 367.72 207.899 371.11 208.569 374.67C209.889 381.78 211.439 389.58 213.139 397.76C216.539 414.11 219.689 428.89 221.759 439.63C222.759 445 223.589 449.35 224.139 452.36C224.399 453.84 224.609 455 224.769 455.83C224.839 456.2 224.899 456.49 224.939 456.73C224.958 456.832 224.984 456.932 225.019 457.03C225.037 456.927 225.037 456.823 225.019 456.72C225.019 456.48 224.949 456.18 224.899 455.81C224.769 454.97 224.599 453.81 224.369 452.33C223.899 449.33 223.159 444.94 222.169 439.56C220.169 428.79 217.109 413.99 213.709 397.64C212.019 389.47 210.439 381.64 209.099 374.57C208.419 371.02 207.819 367.64 207.259 364.47C206.699 361.3 206.259 358.35 205.729 355.65C205.313 353.197 204.434 350.845 203.139 348.72C202.1 347.135 200.653 345.86 198.949 345.03C197.878 344.502 196.693 344.248 195.499 344.29C195.086 344.298 194.675 344.362 194.279 344.48Z" fill="#263238"/>
<path d="M143.037 403.285C145.884 400.438 145.884 395.822 143.037 392.975C140.19 390.128 135.574 390.128 132.727 392.975C129.88 395.822 129.88 400.438 132.727 403.285C135.574 406.132 140.19 406.132 143.037 403.285Z" fill="#F5F5F5"/>
<path d="M476.21 456.58C476.21 456.72 378.67 456.84 258.38 456.84C138.09 456.84 40.5303 456.72 40.5303 456.58C40.5303 456.44 138 456.36 258.38 456.36C378.76 456.36 476.21 456.44 476.21 456.58Z" fill="#263238"/>
</svg>
