<svg width="308" height="497" viewBox="0 0 308 497" fill="none" xmlns="http://www.w3.org/2000/svg">
<path d="M182.492 4.10291C175.269 4.22472 168.267 6.88722 162.487 11.7092C156.706 16.5311 152.445 23.2652 150.313 30.9472C148.284 38.8845 148.687 47.3323 147.38 55.4707C146.074 63.6091 142.39 72.1188 135.454 75.0585C130.937 76.9616 125.724 76.1725 121.276 78.1529C119.184 79.0863 117.335 80.5892 115.9 82.5238C114.465 84.4585 113.489 86.7632 113.062 89.2266C112.634 91.69 112.769 94.2334 113.454 96.6238C114.139 99.0142 115.351 101.175 116.981 102.908C114.233 105.544 112.391 109.158 111.769 113.135C111.146 117.112 111.781 121.206 113.567 124.721C115.352 128.235 118.176 130.952 121.559 132.408C124.941 133.864 128.673 133.97 132.118 132.708C129.547 137.35 130.394 143.539 133.411 147.778C136.622 151.888 141.154 154.432 146.032 154.864C150.861 155.267 155.717 154.781 160.405 153.425C170.941 150.826 181.505 146.648 189.428 138.495C198.115 129.552 202.716 116.833 206.205 104.193C212.849 80.1334 216.394 54.2174 210.959 29.7868" fill="#263238"/>
<path d="M134.05 138.185L122.332 166.7L96.6869 103.79C95.4776 98.7001 94.1154 92.9599 93.8374 91.815C93.4242 90.0544 93.2785 88.2292 93.4065 86.4152C93.4917 84.1627 93.8566 81.9342 94.4907 79.793C95.2552 77.89 93.5455 75.9559 92.0721 76.8843C90.5987 77.8126 88.3886 83.0732 88.4581 89.6798C88.5276 96.2864 67.8583 80.5048 64.5084 84.249L67.0104 106.374C69.2761 108.68 75.6701 115.039 79.2285 118.551L103.415 185.546C104.77 189.669 107.157 193.274 110.295 195.935C113.433 198.596 117.189 200.201 121.121 200.561C125.052 200.92 128.994 200.02 132.479 197.965C135.965 195.91 138.85 192.787 140.792 188.965L156.374 158.392L134.05 138.185Z" fill="#FFAB80"/>
<path d="M79.7151 63.9185C79.8162 63.8783 79.9238 63.8622 80.0308 63.8714C80.1379 63.8805 80.242 63.9147 80.3365 63.9716C80.4309 64.0285 80.5135 64.107 80.5788 64.2018C80.6442 64.2966 80.6909 64.4057 80.7159 64.5219L94.0182 108.479C94.1438 108.863 94.1489 109.282 94.0328 109.67C93.9167 110.058 93.6862 110.39 93.3788 110.614L77.5884 120.469C77.4285 120.562 77.2521 120.614 77.072 120.621C76.8919 120.627 76.7127 120.589 76.5475 120.509C76.3823 120.429 76.2353 120.309 76.1171 120.158C75.999 120.006 75.9128 119.827 75.8648 119.634L60.9084 74.1302C60.7588 73.7201 60.7545 73.2621 60.8964 72.8486C61.0382 72.4351 61.3157 72.0969 61.6729 71.9022L79.7151 63.9185Z" fill="#263238"/>
<path d="M80.1459 67.1522L92.3779 106.359L76.7404 115.642L63.2991 74.5944L80.1459 67.1522Z" fill="#F5F5F5"/>
<path d="M66.2876 77.2556C66.7602 78.6016 67.5386 80.7677 68.0251 82.1138C68.0814 82.2721 68.1657 82.4162 68.2731 82.5375C68.3804 82.6587 68.5086 82.7547 68.65 82.8197C68.7913 82.8846 68.943 82.9173 69.096 82.9156C69.2489 82.914 69.4 82.8781 69.5402 82.8101L77.8802 78.9265L80.7575 79.3907L79.9513 77.7043L80.8965 77.271C81.0387 77.2084 81.1681 77.1145 81.2771 76.995C81.386 76.8755 81.4723 76.7328 81.5306 76.5755C81.589 76.4181 81.6183 76.2493 81.6168 76.079C81.6153 75.9088 81.5831 75.7406 81.522 75.5846L79.8262 71.175C79.7069 70.8685 79.4838 70.6267 79.2054 70.5021C78.9269 70.3776 78.6156 70.3803 78.3389 70.5097L66.9687 75.6155C66.8254 75.6706 66.6936 75.7573 66.5812 75.8705C66.4688 75.9837 66.3781 76.121 66.3145 76.2741C66.2509 76.4273 66.2157 76.5931 66.2111 76.7618C66.2065 76.9304 66.2325 77.0984 66.2876 77.2556Z" fill="#E0E0E0"/>
<path d="M73.335 100.433L75.0725 105.276C75.1289 105.432 75.2127 105.575 75.319 105.694C75.4254 105.814 75.5521 105.91 75.6919 105.974C75.8316 106.039 75.9816 106.072 76.133 106.072C76.2844 106.072 76.4342 106.038 76.5737 105.972L84.9137 102.089L87.791 102.553L86.9848 100.866L87.93 100.433C88.0722 100.37 88.2016 100.276 88.3106 100.157C88.4195 100.037 88.5057 99.8948 88.5641 99.7374C88.6225 99.5801 88.6518 99.4113 88.6503 99.241C88.6488 99.0708 88.6166 98.9026 88.5555 98.7465L86.8597 94.3524C86.8033 94.1998 86.7204 94.0611 86.6158 93.9443C86.5112 93.8274 86.3869 93.7347 86.25 93.6714C86.1131 93.6082 85.9663 93.5757 85.8181 93.5757C85.6699 93.5757 85.5231 93.6083 85.3863 93.6716L74.0022 98.7775C73.8596 98.8358 73.729 98.9253 73.618 99.0406C73.507 99.1559 73.4177 99.2947 73.3556 99.4489C73.2934 99.6032 73.2596 99.7697 73.256 99.9386C73.2525 100.108 73.2793 100.276 73.335 100.433Z" fill="#E0E0E0"/>
<path d="M83.065 82.7327C83.5932 84.0478 84.455 86.1985 84.9554 87.5136C85.0169 87.6687 85.0498 87.836 85.0522 88.0055C85.0546 88.175 85.0265 88.3434 84.9695 88.5006C84.9125 88.6578 84.8277 88.8007 84.7203 88.9209C84.6128 89.041 84.4848 89.1359 84.3438 89.2001L76.0038 93.0681L74.2941 95.683L73.7659 93.8418L72.8346 94.3059C72.695 94.3722 72.545 94.4072 72.3932 94.4088C72.2414 94.4105 72.0909 94.3788 71.9501 94.3155C71.8094 94.2523 71.6812 94.1587 71.573 94.0403C71.4648 93.9218 71.3786 93.7807 71.3195 93.6251L69.6793 89.1846C69.5676 88.8743 69.569 88.5278 69.6833 88.2187C69.7975 87.9096 70.0154 87.6622 70.2909 87.5291L81.536 82.0829C81.6743 82.0111 81.8243 81.971 81.9768 81.9649C82.1294 81.9589 82.2814 81.987 82.4241 82.0476C82.5667 82.1082 82.6969 82.2001 82.807 82.3178C82.9171 82.4354 83.0048 82.5766 83.065 82.7327Z" fill="#E0E0E0"/>
<path d="M64.5084 85.3475C67.1911 85.8426 70.4854 86.1366 73.1681 86.6317C73.9421 86.7061 74.6896 86.9817 75.3504 87.4363C75.6697 87.6776 75.9048 88.0337 76.0161 88.445C76.1275 88.8563 76.1084 89.2978 75.962 89.6952C75.5311 90.5617 74.4747 90.6236 73.5851 90.5926C71.6113 90.5926 69.4151 90.9949 67.4413 90.9175C69.9711 91.1651 72.3063 91.3972 75.128 91.7685C75.7271 91.8333 76.2886 92.1228 76.7205 92.5894C77.1524 93.0561 77.429 93.6723 77.5049 94.3369C77.461 94.8991 77.2405 95.426 76.882 95.8251C76.5235 96.2241 76.0501 96.4696 75.545 96.5185C74.5084 96.5982 73.4681 96.5982 72.4314 96.5185C72.4314 96.5185 68.3587 96.5185 68.178 97.1683C70.7217 97.1683 74.0716 97.7563 76.6153 98.0193C77.3103 98.0193 77.6161 99.1333 77.7829 99.8914C77.8839 100.264 77.8672 100.663 77.7357 101.024C77.6042 101.384 77.3658 101.683 77.0601 101.872C76.7378 101.99 76.397 102.032 76.0593 101.996C72.765 101.887 71.0553 102.119 67.7193 101.996" fill="#FFBE9D"/>
<path d="M125.516 187.062C125.771 183.527 125.659 179.97 125.182 176.463C124.465 173.004 123.387 169.65 121.971 166.468C122.644 167.229 123.194 168.114 123.597 169.083C124.686 171.349 125.459 173.785 125.891 176.309C126.34 178.856 126.429 181.467 126.155 184.045C126.104 185.085 125.888 186.106 125.516 187.062Z" fill="#EB996E"/>
<path d="M77.2269 98.4834C75.3081 98.6398 73.3793 98.5254 71.4862 98.1431C69.9155 97.9729 68.4699 97.617 67.5108 97.617C66.9808 97.6544 66.4641 97.8179 65.9957 98.0966C65.9957 98.0966 65.9957 97.88 66.2459 97.6325C66.5868 97.2985 67.0163 97.0975 67.4691 97.06C68.8407 97.0134 70.2133 97.1066 71.5696 97.3385C73.4902 97.4624 75.3901 97.8469 77.2269 98.4834Z" fill="#EB996E"/>
<path d="M76.3234 92.0625C74.4236 92.2197 72.5136 92.1105 70.6383 91.7376C69.0815 91.5674 67.6498 91.196 66.7185 91.227C65.7872 91.2579 65.3285 91.8613 65.2451 91.7685C65.1617 91.6757 65.5092 90.8866 66.6351 90.67C67.2531 90.577 67.8796 90.577 68.4977 90.67L70.6939 90.933C72.6054 91.0469 74.4965 91.4263 76.3234 92.0625Z" fill="#EB996E"/>
<path d="M155.637 224.613C155.637 224.613 71.0414 217.496 46.5635 238.816C22.0856 260.137 33.8033 294.516 33.8033 294.516H172.136L177.446 223.499L155.637 224.613Z" fill="#263238"/>
<path d="M171.552 273.521C171.138 273.531 170.724 273.5 170.315 273.428C169.509 273.319 168.314 273.196 166.799 272.964C163.741 272.53 159.32 271.834 153.885 270.813C139.736 268.104 125.738 264.488 111.963 259.982C103.915 257.321 96.27 254.675 89.2227 252.68C82.995 250.888 76.6276 249.763 70.2075 249.322C65.8793 249.055 61.5379 249.335 57.2666 250.158C55.7376 250.374 54.5978 250.792 53.8055 250.947C53.4036 251.065 52.9949 251.153 52.5823 251.21C52.9656 251.036 53.3606 250.896 53.7638 250.792C54.8971 250.41 56.0478 250.095 57.211 249.848C61.4965 248.897 65.8699 248.528 70.2353 248.75C76.6954 249.113 83.1071 250.191 89.3756 251.968C96.4646 253.871 104.123 256.61 112.172 259.193C125.918 263.685 139.864 267.377 153.955 270.256C159.362 271.339 163.768 272.128 166.799 272.654L170.301 273.258C171.135 273.412 171.552 273.505 171.552 273.521Z" fill="#455A64"/>
<path d="M91.7107 252.308C89.3364 250.095 86.7922 248.117 84.1074 246.398C81.31 244.912 78.3977 243.711 75.406 242.808C76.3426 242.735 77.2836 242.845 78.186 243.133C80.3728 243.663 82.4859 244.516 84.4688 245.671C86.4472 246.831 88.2793 248.278 89.9176 249.972C90.6294 250.633 91.2357 251.422 91.7107 252.308Z" fill="#455A64"/>
<path d="M216.866 215.747C216.866 215.747 139.485 218.084 115.007 239.404C90.5292 260.725 102.247 295.104 102.247 295.104L247.363 297.549V276.739L228.542 274.48L228.403 273.521C235.701 264.624 230.141 233.618 217.992 217.264L216.866 215.747Z" fill="#263238"/>
<path d="M238.592 275.888C238.178 275.887 237.764 275.851 237.355 275.78C236.549 275.687 235.367 275.548 233.838 275.331C230.78 274.898 226.36 274.202 220.939 273.165C206.783 270.466 192.78 266.85 179.003 262.334C170.941 259.673 163.324 256.981 156.262 255.047C150.045 253.242 143.687 252.102 137.275 251.643C132.947 251.376 128.605 251.656 124.334 252.478C122.805 252.695 121.665 253.128 120.873 253.283C120.472 253.403 120.063 253.486 119.65 253.531C120.032 253.359 120.428 253.224 120.831 253.128C121.964 252.742 123.115 252.422 124.278 252.169C128.557 251.243 132.921 250.895 137.275 251.132C143.732 251.454 150.143 252.49 156.415 254.227C163.518 256.145 171.163 258.869 179.211 261.468C192.966 265.948 206.922 269.62 221.022 272.469C226.43 273.567 230.836 274.356 233.88 274.882L237.383 275.486C237.796 275.579 238.201 275.713 238.592 275.888Z" fill="#455A64"/>
<path d="M158.75 254.598C156.375 252.382 153.831 250.399 151.147 248.672C148.344 247.203 145.433 246.002 142.446 245.083C143.383 245.01 144.325 245.126 145.226 245.423C149.622 246.486 153.68 248.848 156.971 252.262C157.676 252.926 158.278 253.715 158.75 254.598Z" fill="#455A64"/>
<path d="M176.862 219.321C176.47 219.436 176.07 219.513 175.667 219.554L172.22 220.095C169.245 220.59 164.936 221.395 159.71 222.571C154.483 223.747 148.145 225.278 141.209 227.119C133.692 229.049 126.487 232.253 119.844 236.619C116.429 238.895 113.301 241.668 110.545 244.866C108.003 247.869 105.838 251.242 104.11 254.892C101.19 261.102 99.6409 267.997 99.5921 275.006C99.5541 279.725 100.173 284.423 101.427 288.931C101.872 290.478 102.289 291.747 102.581 292.567C102.741 292.981 102.88 293.404 102.998 293.836C102.775 293.456 102.589 293.051 102.442 292.629C101.959 291.453 101.532 290.249 101.163 289.024C99.457 283.388 98.7871 277.427 99.193 271.497C99.599 265.567 101.072 259.789 103.526 254.505C105.257 250.781 107.442 247.339 110.017 244.278C112.813 241.021 115.993 238.2 119.469 235.892C126.151 231.49 133.412 228.279 140.986 226.377C147.936 224.567 154.233 223.112 159.543 221.998C164.853 220.884 169.189 220.172 172.178 219.77C173.679 219.569 174.847 219.43 175.653 219.368C176.055 219.328 176.459 219.313 176.862 219.321Z" fill="#455A64"/>
<path d="M247.363 277.776L260.596 276.847L269.367 282.525L286.172 284.568C294.22 285.032 295.499 294.671 290.55 294.671C286.616 294.671 263.084 296.373 263.084 296.373L247.363 296.837V277.776Z" fill="#E0E0E0"/>
<path d="M268.866 282.557C268.291 283.111 267.588 283.476 266.837 283.609C265.038 284.111 263.143 283.98 261.413 283.235C259.683 282.489 258.203 281.166 257.176 279.447C256.697 278.791 256.398 277.996 256.315 277.157C256.412 277.157 256.759 277.961 257.593 279.122C258.66 280.627 260.07 281.786 261.677 282.477C263.283 283.168 265.027 283.367 266.726 283.052C268.046 282.82 268.825 282.433 268.866 282.557Z" fill="#455A64"/>
<path d="M289.869 294.455C289.869 294.547 289.202 294.733 288.257 294.192C287.681 293.793 287.186 293.265 286.803 292.641C286.42 292.018 286.158 291.313 286.033 290.571C285.637 289.127 285.762 287.567 286.38 286.223C286.908 285.202 287.548 284.908 287.59 285.001C287.631 285.094 287.186 285.527 286.839 286.548C286.42 287.805 286.385 289.182 286.742 290.463C286.955 291.77 287.588 292.946 288.521 293.774C289.257 294.331 289.883 294.362 289.869 294.455Z" fill="#455A64"/>
<path d="M159.515 98.5299C159.515 98.5299 143.016 138.897 143.989 145.751C144.962 152.605 149.785 179.96 149.785 179.96L153.274 224.458C153.274 224.458 215.588 216.057 216.88 216.057C218.173 216.057 214.934 179.248 214.934 179.248L224.428 108.51C224.428 108.51 220.077 98.8703 200.45 95.5283C188.705 93.5015 159.515 98.5299 159.515 98.5299Z" fill="#FF6464"/>
<path d="M205.065 152.93C205.86 160.127 207.854 167.095 210.945 173.477C212.14 175.875 213.252 179.248 215.226 180.888C218.312 183.472 222.746 181.043 225.54 178.088C228.334 175.133 231.169 171.389 235.02 171.234C237.48 171.141 239.76 172.564 242.164 173.137C244.569 173.709 247.724 172.827 248.239 170.166C248.394 168.594 248.06 167.011 247.293 165.679C241.397 152.638 236.881 138.879 233.838 124.678C232.555 120.645 230.916 116.763 228.945 113.089C227.555 110.474 223.969 106.684 220.439 103.496" fill="#FF6464"/>
<path d="M171.274 95.8531C154.122 96.5185 141.264 109.144 137.609 118.241C133.313 128.917 129.977 141.821 124.946 152.095C123.816 154.008 122.941 156.092 122.346 158.284C122.069 159.393 122.101 160.57 122.439 161.659C122.776 162.748 123.403 163.697 124.237 164.38C126.822 166.082 130.575 163.869 132.952 165.927C134.259 167.041 134.648 169.021 135.732 170.414C137.122 172.069 139.304 172.41 141.292 172.657L152.871 174.05" fill="#FF6464"/>
<path d="M201.215 135.245C200.934 134.763 200.71 134.243 200.548 133.698C200.051 132.246 199.706 130.735 199.519 129.196C198.839 124.046 199.777 118.792 202.176 114.324C204.574 109.855 208.286 106.446 212.682 104.672C213.989 104.132 215.346 103.758 216.727 103.558C217.234 103.47 217.75 103.47 218.256 103.558C216.422 103.984 214.619 104.563 212.863 105.291C208.65 107.135 205.106 110.481 202.784 114.807C200.462 119.132 199.495 124.193 200.033 129.196C200.299 131.241 200.694 133.262 201.215 135.245Z" fill="#263238"/>
<path d="M154.108 119.433C153.867 120.132 153.569 120.805 153.218 121.444C152.899 122.079 152.523 122.852 152.148 123.781C151.773 124.709 151.272 125.73 150.841 126.875C149.772 129.637 148.866 132.475 148.131 135.369C147.249 138.92 146.612 142.541 146.227 146.2C145.881 149.858 145.779 153.541 145.921 157.216C146.056 160.216 146.367 163.204 146.852 166.159C147.033 167.428 147.297 168.542 147.491 169.547C147.686 170.553 147.895 171.389 148.075 172.085C148.281 172.797 148.434 173.527 148.534 174.266C148.227 173.599 147.98 172.899 147.797 172.178C147.527 171.351 147.295 170.509 147.102 169.656C146.866 168.665 146.56 167.536 146.352 166.267C145.789 163.294 145.422 160.279 145.254 157.247C144.836 149.803 145.593 142.336 147.491 135.184C148.264 132.271 149.23 129.427 150.383 126.674C150.799 125.617 151.263 124.584 151.773 123.579C152.129 122.793 152.523 122.028 152.954 121.29C153.286 120.632 153.672 120.011 154.108 119.433Z" fill="#263238"/>
<path d="M247.224 164.705C247.224 164.705 247.224 164.875 247.085 165.153C246.887 165.56 246.617 165.917 246.293 166.205C245.023 167.193 243.456 167.587 241.928 167.304C239.982 167.056 237.967 165.757 235.617 165.293C234.334 165.11 233.031 165.246 231.801 165.69C230.57 166.134 229.443 166.875 228.501 167.861C226.318 169.81 224.539 172.178 222.44 173.771C221.467 174.574 220.362 175.158 219.188 175.489C218.159 175.717 217.107 175.79 216.06 175.705C214.547 175.631 213.076 175.137 211.779 174.266C211.434 174.008 211.129 173.689 210.875 173.323C210.727 173.054 210.658 172.915 210.667 172.905C211.061 173.305 211.484 173.667 211.932 173.988C213.223 174.724 214.651 175.116 216.102 175.133C217.096 175.176 218.091 175.077 219.063 174.839C220.153 174.498 221.177 173.931 222.079 173.168C224.053 171.621 225.79 169.253 228.07 167.227C229.177 166.221 230.426 165.426 231.767 164.875C233.048 164.376 234.426 164.269 235.756 164.565C238.258 165.169 240.218 166.453 242.011 166.731C243.439 167.061 244.927 166.785 246.181 165.958C246.581 165.598 246.932 165.176 247.224 164.705Z" fill="#62B8AF"/>
<path d="M243.249 155.653C243.247 155.804 243.214 155.953 243.151 156.087C242.995 156.479 242.762 156.828 242.47 157.108C241.9 157.593 241.24 157.93 240.537 158.093C239.835 158.257 239.108 158.242 238.411 158.052C236.632 157.727 234.797 156.427 232.601 156.303C230.167 156.344 227.805 157.232 225.846 158.841C223.677 160.465 221.815 162.384 219.883 163.838C218.199 165.208 216.245 166.11 214.184 166.468C212.77 166.71 211.324 166.501 210.014 165.865C209.531 165.659 209.098 165.331 208.749 164.906C208.749 164.906 209.221 165.215 210.139 165.587C211.409 166.066 212.769 166.172 214.086 165.896C216.049 165.49 217.897 164.573 219.48 163.219C221.342 161.78 223.177 159.846 225.415 158.175C227.496 156.468 230.016 155.551 232.601 155.56C233.717 155.675 234.81 155.983 235.84 156.473C236.696 156.886 237.579 157.227 238.481 157.495C239.115 157.696 239.781 157.743 240.433 157.634C241.085 157.524 241.709 157.261 242.262 156.86C242.644 156.516 242.977 156.109 243.249 155.653Z" fill="#62B8AF"/>
<path d="M145.865 167.412C145.865 167.412 145.615 167.83 144.864 168.016C144.34 168.107 143.804 168.074 143.291 167.92C142.779 167.765 142.301 167.492 141.89 167.118C140.767 165.962 139.885 164.547 139.304 162.972C139.003 162.072 138.532 161.254 137.923 160.573C137.314 159.893 136.581 159.365 135.774 159.026C134.018 158.716 132.223 158.822 130.506 159.336C129.002 159.743 127.424 159.663 125.96 159.104C125.466 158.889 125.016 158.566 124.637 158.154C124.257 157.742 123.956 157.249 123.75 156.705C123.486 155.916 123.625 155.437 123.653 155.452C123.681 155.468 123.653 155.901 124 156.582C124.477 157.51 125.236 158.219 126.141 158.578C127.533 159.007 129.003 159.007 130.394 158.578C132.202 158.004 134.101 157.887 135.954 158.237C136.943 158.532 137.823 159.165 138.47 160.047C139.023 160.84 139.489 161.702 139.86 162.616C140.382 164.123 141.166 165.5 142.168 166.67C142.888 167.372 143.824 167.738 144.781 167.691C145.148 167.627 145.51 167.534 145.865 167.412Z" fill="#62B8AF"/>
<path d="M143.766 158.299C143.766 158.299 143.46 158.485 142.932 158.299C142.203 157.987 141.59 157.409 141.195 156.659C140.75 155.626 140.115 154.709 139.332 153.967C138.185 153.403 136.896 153.304 135.69 153.688C134.352 154.006 132.969 154.006 131.631 153.688C130.534 153.404 129.499 152.878 128.587 152.141C127.705 151.551 126.999 150.685 126.558 149.65C126.669 149.557 127.336 150.625 128.879 151.677C130.894 153.026 133.299 153.459 135.593 152.884C136.958 152.467 138.414 152.627 139.68 153.332C140.549 154.172 141.221 155.234 141.639 156.427C141.951 157.111 142.434 157.681 143.029 158.067C143.46 158.299 143.766 158.299 143.766 158.299Z" fill="#62B8AF"/>
<path d="M209.082 166.298C209.082 166.298 208.207 166.097 206.636 165.695C205.065 165.293 202.786 164.689 199.95 164.148C198.56 163.869 196.975 163.575 195.307 163.343C193.54 163.061 191.751 162.983 189.97 163.111C188.022 163.407 186.138 164.093 184.41 165.138C182.575 166.159 180.726 167.397 178.725 168.495C176.779 169.631 174.646 170.316 172.456 170.507C170.423 170.598 168.389 170.347 166.423 169.764C163.206 168.651 159.928 167.768 156.61 167.118C154.373 166.744 152.087 166.983 149.952 167.814C149.2 168.194 148.467 168.617 147.755 169.083C147.755 169.083 147.895 168.898 148.228 168.588C148.731 168.171 149.271 167.813 149.84 167.521C151.999 166.556 154.344 166.221 156.652 166.546C160.009 167.116 163.326 167.954 166.576 169.052C168.483 169.588 170.449 169.817 172.414 169.733C174.508 169.524 176.544 168.856 178.405 167.768C180.365 166.7 182.214 165.463 184.09 164.426C185.896 163.36 187.859 162.663 189.886 162.368C191.717 162.255 193.552 162.359 195.363 162.678C197.059 162.941 198.616 163.266 200.033 163.591C202.813 164.256 205.135 164.937 206.692 165.432C207.47 165.695 208.082 165.896 208.471 166.066C208.86 166.236 209.096 166.267 209.082 166.298Z" fill="#62B8AF"/>
<path d="M210.514 174.065C210.514 174.065 209.68 173.694 208.207 172.998C206.733 172.301 204.565 171.342 201.84 170.414C200.362 169.891 198.846 169.508 197.309 169.269C195.556 169.101 193.792 169.36 192.138 170.027C188.594 171.373 185.188 174.266 181.018 176.092C178.974 176.96 176.798 177.381 174.61 177.33C172.603 177.282 170.604 177.044 168.633 176.618C165.365 175.788 162.049 175.214 158.709 174.901C156.465 174.742 154.214 175.063 152.078 175.845C150.577 176.448 149.841 177.02 149.799 176.959C149.757 176.897 149.966 176.773 150.313 176.51C150.838 176.137 151.392 175.816 151.967 175.551C154.119 174.628 156.42 174.217 158.723 174.344C162.094 174.569 165.445 175.086 168.745 175.891C172.442 176.587 176.723 177.144 180.754 175.349C184.785 173.555 188.177 170.708 191.874 169.331C193.621 168.65 195.483 168.412 197.323 168.634C198.892 168.887 200.437 169.301 201.938 169.872C204.097 170.681 206.209 171.637 208.262 172.735C208.985 173.121 209.541 173.446 209.902 173.678C210.12 173.778 210.326 173.908 210.514 174.065Z" fill="#62B8AF"/>
<path d="M191.944 171.296C191.944 171.296 191.596 171.419 190.943 171.481C190.016 171.565 189.084 171.54 188.163 171.404C186.787 171.222 185.434 170.864 184.132 170.336C182.543 169.68 181.031 168.812 179.628 167.753C178.242 166.654 176.977 165.376 175.861 163.946C174.962 162.773 174.192 161.485 173.568 160.109C173.128 159.195 172.779 158.23 172.525 157.231C172.359 156.535 172.275 156.133 172.331 156.117C172.386 156.102 172.859 157.665 174.013 159.846C174.688 161.135 175.475 162.348 176.362 163.467C177.474 164.812 178.708 166.026 180.045 167.087C181.398 168.115 182.848 168.976 184.368 169.656C185.623 170.192 186.922 170.591 188.246 170.847C190.498 171.265 191.944 171.141 191.944 171.296Z" fill="#263238"/>
<g opacity="0.3">
<path d="M172.372 157.788C173.318 163.544 175.291 169.284 179.058 173.369C182.825 177.454 188.649 179.558 193.542 177.376C194.077 177.213 194.569 176.908 194.975 176.488C195.382 176.068 195.691 175.544 195.877 174.963C195.939 174.255 195.787 173.545 195.444 172.945C195.101 172.345 194.589 171.89 193.987 171.652C192.764 171.227 191.486 171.034 190.206 171.079C186.559 170.808 183.035 169.504 179.968 167.292C176.9 165.08 174.391 162.032 172.678 158.438" fill="black"/>
</g>
<path d="M213.127 180.749C212.859 180.27 212.658 179.748 212.53 179.202C212.182 178.227 211.709 176.804 211.14 175.04C210.028 171.497 208.596 166.592 207.15 161.115C205.705 155.638 204.551 150.625 203.773 146.989C203.383 145.163 203.091 143.693 202.911 142.657C202.788 142.152 202.718 141.632 202.702 141.109C202.928 141.597 203.092 142.118 203.189 142.657C203.495 143.832 203.856 145.24 204.273 146.911C205.163 150.516 206.414 155.483 207.845 160.96C209.277 166.437 210.625 171.358 211.626 174.885C212.071 176.541 212.46 177.98 212.78 179.125C212.949 179.65 213.066 180.195 213.127 180.749Z" fill="#263238"/>
<path d="M150.383 225.046C150.383 225.046 162.392 210.719 172.901 207.903C183.409 205.087 221.05 190.28 221.05 190.28L218.673 181.941C221.095 181.654 223.342 180.401 224.998 178.413L227.43 175.721C230.738 171.698 234.728 169.532 240.51 171.713L244.152 172.92L247.947 185.298C248.831 188.185 249.131 191.253 248.825 194.284C248.518 197.315 247.613 200.232 246.175 202.828C244.736 205.423 242.799 207.632 240.502 209.296C238.206 210.96 235.608 212.038 232.893 212.452L150.383 225.046Z" fill="#FFAB80"/>
<path d="M236.66 192.059C234.169 191.135 231.611 190.452 229.015 190.017C226.41 189.842 223.795 189.925 221.203 190.265C223.73 189.261 226.426 188.902 229.094 189.212C231.762 189.523 234.333 190.496 236.618 192.059H236.66Z" fill="#EB996E"/>
<path d="M152.19 29.1989C151.175 9.76584 173.915 -3.88065 189.442 0.9931C204.023 5.63476 210.292 13.6494 212.641 24.5109C214.99 35.3724 214.92 47.1312 211.098 57.4822C209.207 62.5725 205.816 67.7557 200.895 68.3127" fill="#263238"/>
<path d="M198.741 17.2697C199.973 17.4131 201.112 18.0672 201.93 19.1019C202.749 20.1367 203.189 21.4765 203.161 22.8552L200.381 97.3539C200.284 106.158 188.733 111.124 180.282 110.923C171.733 110.722 171.441 106.065 171.316 97.6943C171.121 83.7693 171.121 78.4624 171.121 78.5397C171.121 78.6171 160.293 76.5438 158.125 60.824C157.013 53.0879 157.36 40.2305 157.958 29.7868C158.486 20.3796 164.088 8.8219 172.511 9.82759L198.741 17.2697Z" fill="#FFAB80"/>
<path d="M161.544 39.983C161.544 40.5049 161.724 41.0068 162.048 41.3844C162.371 41.7619 162.813 41.986 163.282 42.0099C163.512 42.031 163.743 42.0005 163.962 41.9203C164.181 41.8401 164.383 41.7118 164.557 41.543C164.731 41.3742 164.872 41.1684 164.973 40.9376C165.074 40.7069 165.132 40.4559 165.144 40.1997C165.152 39.674 164.974 39.1659 164.65 38.7842C164.325 38.4025 163.879 38.1775 163.407 38.1573C163.176 38.1384 162.945 38.1709 162.726 38.2529C162.507 38.3349 162.305 38.4646 162.131 38.6347C161.958 38.8047 161.816 39.0115 161.716 39.243C161.615 39.4746 161.557 39.7261 161.544 39.983Z" fill="#263238"/>
<path d="M160.377 36.4708C160.599 36.7338 161.975 35.6198 163.907 35.6198C165.839 35.6198 167.285 36.7029 167.494 36.4398C167.702 36.1768 167.368 35.8519 166.743 35.3413C165.902 34.6941 164.902 34.3535 163.88 34.3666C162.88 34.3621 161.906 34.7146 161.1 35.3723C160.474 35.8829 160.266 36.3625 160.377 36.4708Z" fill="#263238"/>
<path d="M180.546 39.9829C180.545 40.5074 180.728 41.0115 181.054 41.3895C181.381 41.7674 181.826 41.9898 182.297 42.0098C182.526 42.0287 182.757 41.9967 182.975 41.9157C183.193 41.8347 183.395 41.7063 183.568 41.5379C183.741 41.3695 183.883 41.1645 183.984 40.9348C184.086 40.705 184.146 40.4551 184.16 40.1996C184.164 39.675 183.985 39.1692 183.661 38.7883C183.337 38.4074 182.893 38.1812 182.422 38.1572C182.191 38.1383 181.959 38.1707 181.739 38.2525C181.519 38.3343 181.316 38.4638 181.141 38.6337C180.967 38.8035 180.824 39.0102 180.722 39.2418C180.62 39.4734 180.56 39.7254 180.546 39.9829Z" fill="#263238"/>
<path d="M179.489 36.8886C179.712 37.1516 181.088 36.0221 183.02 36.0221C184.952 36.0221 186.398 37.1052 186.606 36.8421C186.815 36.5791 186.481 36.2542 185.855 35.7436C185.012 35.1028 184.013 34.7628 182.992 34.7689C181.993 34.7644 181.018 35.1169 180.212 35.7746C179.587 36.2851 179.378 36.7648 179.489 36.8886Z" fill="#263238"/>
<path d="M172.428 52.9332C171.405 52.5739 170.344 52.3608 169.273 52.2988C168.772 52.2988 168.314 52.1286 168.23 51.7573C168.18 51.1868 168.292 50.6132 168.55 50.1172L170.023 45.9088C172.067 39.9211 173.54 34.9854 173.318 34.8926C171.716 38.3348 170.354 41.9091 169.245 45.5839C168.758 47.1311 168.286 48.4772 167.855 49.8233C167.538 50.4875 167.449 51.2575 167.605 51.9894C167.673 52.1846 167.781 52.3593 167.921 52.4991C168.061 52.6389 168.229 52.7399 168.411 52.7939C168.689 52.8726 168.973 52.9193 169.259 52.9332C170.311 53.0782 171.376 53.0782 172.428 52.9332Z" fill="#263238"/>
<path d="M171.094 78.5398C177.726 78.6519 184.255 76.7129 189.956 72.9388C189.956 72.9388 185.383 83.7694 171.274 82.2222L171.094 78.5398Z" fill="#EB996E"/>
<path d="M173.248 58.1474C173.618 57.629 174.101 57.2236 174.65 56.9692C175.2 56.7149 175.798 56.6198 176.39 56.6931C176.82 56.7372 177.237 56.8778 177.617 57.1065C177.997 57.3352 178.331 57.6472 178.6 58.0237C178.861 58.3816 179.016 58.8208 179.043 59.2808C179.07 59.7408 178.969 60.1989 178.752 60.592C178.443 60.9832 178.035 61.2617 177.581 61.3914C177.128 61.5211 176.649 61.4959 176.209 61.3192C175.289 60.9563 174.443 60.3935 173.721 59.6637C173.505 59.4881 173.317 59.2737 173.165 59.0293C173.097 58.9088 173.061 58.7694 173.061 58.6271C173.061 58.4848 173.097 58.3454 173.165 58.2248" fill="#EB996E"/>
<path d="M178.155 54.434C177.835 54.434 177.835 56.7548 176.028 58.4258C174.221 60.0968 171.969 59.8338 171.955 60.1587C171.942 60.4837 172.456 60.6229 173.345 60.6538C174.586 60.6678 175.791 60.1969 176.751 59.3232C177.667 58.4885 178.255 57.29 178.391 55.9812C178.53 54.991 178.294 54.4185 178.155 54.434Z" fill="#263238"/>
<path d="M178.614 33.0978C178.808 33.6858 180.74 33.4073 183.02 33.7012C185.299 33.9952 187.19 34.7069 187.454 34.1809C187.593 33.9333 187.273 33.3763 186.523 32.8038C185.532 32.1044 184.411 31.6656 183.246 31.5208C182.08 31.3761 180.9 31.5291 179.795 31.9683C178.975 32.3551 178.53 32.8193 178.614 33.0978Z" fill="#263238"/>
<path d="M161.086 30.22C161.433 30.6996 162.768 30.22 164.38 30.22C165.992 30.22 167.355 30.5449 167.674 30.0343C167.813 29.7868 167.591 29.2917 166.993 28.8275C166.199 28.2592 165.267 27.9782 164.324 28.0229C163.376 28.0318 162.455 28.3789 161.697 29.0132C161.127 29.4619 160.905 29.9724 161.086 30.22Z" fill="#263238"/>
<path d="M179.461 4.64441C174.67 4.90302 170.014 6.49923 165.923 9.28607C163.624 10.5969 161.581 12.4009 159.911 14.5943C158.241 16.7876 156.978 19.327 156.193 22.0661C155.996 22.632 155.905 23.2363 155.924 23.8426C155.943 24.449 156.072 25.0447 156.304 25.5938C156.75 26.225 157.381 26.6632 158.086 26.8326C158.791 27.0021 159.528 26.8923 160.168 26.5221C161.431 25.7436 162.508 24.6402 163.31 23.3039C163.652 24.7521 164.419 26.0316 165.489 26.939C166.559 27.8464 167.871 28.3295 169.216 28.3118C170.561 28.294 171.862 27.7763 172.913 26.8408C173.963 25.9054 174.703 24.606 175.013 23.1492C175.12 24.6525 175.743 26.0523 176.752 27.0578C177.762 28.0634 179.08 28.5974 180.434 28.549C181.789 28.4199 183.08 27.8512 184.148 26.9134C185.215 25.9756 186.012 24.7098 186.439 23.273C186.76 26.0182 187.604 28.6556 188.913 31.0091C189.583 32.1602 190.554 33.0549 191.695 33.5723C192.836 34.0897 194.092 34.2049 195.294 33.9024C194.782 36.2089 194.816 38.6234 195.391 40.9113C196.128 43.1393 199.561 91.1341 201.59 90.4224C203.62 89.7107 203.064 40.9113 203.522 38.6523C204.519 34.3619 205.024 29.9481 205.024 25.5164C205.156 20.9593 203.832 16.4976 201.286 12.9251C198.741 9.3526 195.14 6.90084 191.124 6.00597C187.106 4.97689 182.982 4.55535 178.864 4.75271" fill="#263238"/>
<path d="M130.422 66.7499C130.422 66.7499 130.269 66.4714 129.866 66.0382C129.287 65.4004 128.544 64.9787 127.739 64.8314C127.117 64.6979 126.477 64.7073 125.858 64.8589C125.239 65.0106 124.654 65.3013 124.139 65.7133C123.508 66.3187 123.027 67.0955 122.745 67.9684C122.462 68.8413 122.387 69.7806 122.527 70.6953C122.653 71.7677 123.016 72.7884 123.583 73.666C124.228 74.5918 125.068 75.3254 126.03 75.8012C127.102 76.3212 128.259 76.5897 129.428 76.5897C130.598 76.5897 131.755 76.3212 132.827 75.8012C135.223 74.5964 137.29 72.7066 138.818 70.324C140.508 67.7901 141.809 64.9616 142.668 61.9535C144.503 55.7647 145.003 49.4829 145.768 43.851C146.338 38.817 147.536 33.8959 149.326 29.2298C150.559 26.0687 152.389 23.2402 154.692 20.9367C155.332 20.3164 156.016 19.7525 156.735 19.2502C156.973 19.0681 157.23 18.9176 157.499 18.8015C157.499 18.8015 156.485 19.5132 154.886 21.1069C152.689 23.449 150.952 26.2728 149.785 29.4C148.077 34.0398 146.945 38.9172 146.421 43.8975C145.684 49.5139 145.212 55.8265 143.335 62.1392C142.456 65.2332 141.117 68.141 139.374 70.7418C137.757 73.2182 135.586 75.181 133.077 76.4355C131.924 76.9952 130.679 77.2841 129.421 77.2841C128.163 77.2841 126.919 76.9952 125.766 76.4355C124.722 75.8969 123.814 75.0782 123.125 74.0528C122.509 73.0873 122.121 71.9645 121.999 70.7882C121.864 69.7828 121.967 68.7556 122.299 67.8085C122.631 66.8613 123.179 66.027 123.889 65.3884C124.45 64.9546 125.086 64.6562 125.756 64.5123C126.426 64.3684 127.116 64.3822 127.781 64.5529C128.622 64.7501 129.386 65.2373 129.964 65.9454C130.166 66.1742 130.322 66.4485 130.422 66.7499Z" fill="#263238"/>
<path d="M205.149 92.4647C205.149 92.3719 205.969 91.9696 207.331 90.9175C209.224 89.3902 210.841 87.4796 212.099 85.2856C213.96 82.0289 215.178 78.3686 215.671 74.5479C216.195 69.8435 216.011 65.0748 215.129 60.4373C214.267 55.4861 212.988 50.86 211.89 46.636C210.792 42.4121 209.847 38.5595 209.291 35.2794C208.836 32.6872 208.567 30.0591 208.485 27.4196C208.485 26.4912 208.485 25.764 208.485 25.2689C208.47 25.0188 208.494 24.7677 208.554 24.5262C208.624 24.5262 208.554 25.5629 208.735 27.4041C208.915 30.0054 209.254 32.5901 209.75 35.1402C210.375 38.3739 211.334 42.18 212.53 46.3885C213.848 50.9633 214.952 55.6112 215.838 60.3135C216.746 65.032 216.911 69.8904 216.324 74.6717C215.795 78.5882 214.499 82.3277 212.53 85.626C211.206 87.8459 209.489 89.7413 207.484 91.196C206.942 91.5924 206.37 91.9341 205.774 92.2172C205.573 92.3205 205.363 92.4033 205.149 92.4647Z" fill="#263238"/>
<path d="M207.664 82.3924C207.513 82.5162 207.344 82.6104 207.164 82.6709C206.669 82.8706 206.157 83.0107 205.635 83.0886C203.668 83.3134 201.687 82.854 199.964 81.7735C197.415 80.1406 195.485 77.5352 194.529 74.4397C193.383 70.7022 193.008 66.7255 193.431 62.8046C193.764 58.658 194.446 54.8054 194.751 51.2623C195.057 47.7191 195.238 44.5164 195.294 41.8242C195.349 39.1321 195.294 36.9505 195.294 35.4342C195.233 34.6569 195.233 33.8752 195.294 33.0979C195.448 33.8604 195.536 34.6375 195.558 35.4187C195.669 36.966 195.78 39.1166 195.794 41.8397C195.807 45.0116 195.677 48.1822 195.405 51.3396C195.127 54.9137 194.473 58.7973 194.14 62.8819C193.726 66.683 194.068 70.5388 195.141 74.1766C196.024 77.1376 197.821 79.654 200.214 81.2784C201.834 82.3651 203.703 82.9028 205.593 82.8256C206.942 82.6554 207.637 82.315 207.664 82.3924Z" fill="#263238"/>
<path d="M116.745 96.5339C116.734 96.0074 116.809 95.4832 116.967 94.9867C117.404 93.6153 118.21 92.4268 119.274 91.5828C120.952 90.2214 122.955 89.4458 125.029 89.3548C127.42 89.1073 130.13 89.4941 133.063 89.3548C136.27 89.0335 139.363 87.8667 142.084 85.9509C145.194 83.7204 147.853 80.7965 149.896 77.3638C152.13 73.5515 153.701 69.3053 154.525 64.8468C155.409 60.0438 155.778 55.1409 155.623 50.241C155.623 45.1971 154.997 40.3079 154.733 35.5115C154.327 30.8944 154.59 26.2346 155.512 21.7103C156.367 17.8544 158.184 14.3466 160.755 11.5922C163.325 8.83786 166.543 6.94942 170.037 6.14522C172.713 5.5533 175.474 5.64323 178.113 6.40825C180.088 6.97834 181.966 7.90336 183.673 9.14682C184.751 9.92499 185.749 10.833 186.648 11.8545C186.967 12.2103 187.162 12.5043 187.315 12.69C187.468 12.8756 187.537 12.9839 187.523 12.9994C186.306 11.6496 184.964 10.4465 183.52 9.40985C181.802 8.22912 179.925 7.36204 177.96 6.84147C175.375 6.14648 172.683 6.09892 170.079 6.70222C166.937 7.46704 164.029 9.13093 161.642 11.5295C158.884 14.2815 156.945 17.9027 156.082 21.9114C155.204 26.3592 154.96 30.9329 155.359 35.4651C155.651 40.215 156.207 45.1352 156.29 50.2256C156.43 55.1887 156.048 60.1529 155.15 65.017C154.301 69.5694 152.683 73.901 150.383 77.7816C148.277 81.2888 145.536 84.2667 142.335 86.5234C139.525 88.4716 136.336 89.639 133.035 89.9273C130.005 90.1129 127.323 89.6797 124.987 89.9273C122.998 89.9957 121.068 90.6993 119.427 91.9541C118.374 92.7388 117.56 93.861 117.092 95.1724C116.8 96.0079 116.8 96.5339 116.745 96.5339Z" fill="#455A64"/>
<path d="M186.425 1.34886C186.425 1.2715 187.106 1.61188 187.815 2.55569C188.784 3.81227 189.373 5.3769 189.497 7.02716C189.623 8.67958 189.283 10.3347 188.524 11.7617C187.926 12.8292 187.357 13.3089 187.301 13.3089C187.245 13.3089 187.635 12.6281 188.065 11.5605C188.653 10.1968 188.903 8.68284 188.788 7.17565C188.673 5.66845 188.198 4.22291 187.412 2.98891C186.856 1.9368 186.356 1.44169 186.425 1.34886Z" fill="#455A64"/>
<path d="M214.184 41.4684C214.009 40.8525 213.884 40.2209 213.808 39.5807C213.6 38.343 213.308 36.5791 212.877 34.3975C212.446 32.216 211.932 29.6166 211.237 26.7852C210.889 25.3618 210.5 23.8764 210.014 22.3756C209.554 20.8382 208.879 19.3916 208.012 18.0898C206.354 15.534 204.086 13.5456 201.465 12.3496C199.322 11.3919 196.978 11.1395 194.71 11.6224C193.17 11.9245 191.703 12.5777 190.401 13.541C189.955 13.9443 189.491 14.3213 189.011 14.6705C189.011 14.6705 189.094 14.5158 189.289 14.2682C189.584 13.9086 189.909 13.5821 190.262 13.2934C191.547 12.1943 193.039 11.4326 194.626 11.0654C196.994 10.4766 199.466 10.6811 201.729 11.6534C204.486 12.8692 206.873 14.9358 208.61 17.6102C209.521 18.9744 210.225 20.4953 210.695 22.1126C211.181 23.6598 211.557 25.2071 211.904 26.5841C212.557 29.4619 213.044 32.0767 213.391 34.3202C213.739 36.5637 213.989 38.312 214.1 39.5653C214.202 40.1929 214.23 40.8327 214.184 41.4684Z" fill="#455A64"/>
<path d="M187.871 13.8349C186.348 13.6479 184.853 13.2422 183.423 12.6281C181.873 12.054 180.283 11.6245 178.669 11.3439C176.714 11.0282 174.719 11.2732 172.873 12.0556C171.027 12.8232 169.389 14.1074 168.119 15.7844C167.085 17.1419 166.314 18.722 165.853 20.4261C165.481 22.0447 165.28 23.7065 165.256 25.3772C165.097 24.9457 165.021 24.4818 165.033 24.0156C164.965 22.7566 165.073 21.4934 165.353 20.2714C165.759 18.4298 166.528 16.7121 167.605 15.2429C168.927 13.4304 170.659 12.042 172.623 11.2201C174.581 10.3973 176.699 10.1573 178.766 10.5239C180.414 10.8709 182.029 11.3889 183.59 12.0711C186.231 13.2006 187.899 13.7266 187.871 13.8349Z" fill="#455A64"/>
<path d="M18.6121 292.748H289.356C294.296 292.748 299.034 294.932 302.527 298.82C306.02 302.708 307.982 307.982 307.982 313.481V476.032C307.982 481.53 306.02 486.804 302.527 490.692C299.034 494.58 294.296 496.764 289.356 496.764H18.6121C13.6759 496.764 8.94181 494.582 5.45136 490.697C1.96091 486.811 5.19093e-06 481.542 5.19093e-06 476.047V313.481C-0.00182106 310.759 0.478246 308.063 1.41277 305.548C2.3473 303.032 3.71797 300.747 5.44645 298.821C7.17492 296.896 9.22732 295.368 11.4864 294.326C13.7454 293.284 16.1668 292.748 18.6121 292.748Z" fill="#FF6464"/>
<mask id="mask0_1341_711" style="mask-type:luminance" maskUnits="userSpaceOnUse" x="135" y="379" width="29" height="31">
<path d="M135.521 379.098H163.121V409.821H135.521V379.098Z" fill="white"/>
</mask>
<g mask="url(#mask0_1341_711)">
<path d="M149.321 409.821C141.697 409.821 135.521 402.898 135.521 394.46C135.521 386.019 141.697 379.098 149.321 379.098C156.945 379.098 163.121 385.973 163.121 394.46C163.121 402.946 156.904 409.821 149.321 409.821ZM149.321 380.047C142.166 380.047 136.373 386.494 136.373 394.46C136.373 402.424 142.166 408.872 149.321 408.872C156.478 408.872 162.271 402.424 162.271 394.46C162.271 386.494 156.434 380.047 149.321 380.047Z" fill="white"/>
</g>
<mask id="mask1_1341_711" style="mask-type:luminance" maskUnits="userSpaceOnUse" x="80" y="317" width="140" height="157">
<path d="M80 317.236H220V473.071H80V317.236Z" fill="white"/>
</mask>
<g mask="url(#mask1_1341_711)">
<path d="M150 473.071C111.328 473.071 80 437.96 80 395.153C80 352.347 111.328 317.236 150 317.236C188.674 317.236 220 352.106 220 395.153C220 438.201 188.457 473.071 150 473.071ZM150 322.046C113.704 322.046 84.3213 354.751 84.3213 395.153C84.3213 435.554 113.704 468.261 150 468.261C186.297 468.261 215.679 435.554 215.679 395.153C215.679 354.751 186.081 322.046 150 322.046Z" fill="white"/>
</g>
<mask id="mask2_1341_711" style="mask-type:luminance" maskUnits="userSpaceOnUse" x="132" y="375" width="35" height="38">
<path d="M136.321 377.987H134.321V379.987V408.859V410.859H136.321H162.259H164.259V408.859V379.987V377.987H162.259H136.321Z" fill="white" stroke="white" stroke-width="4"/>
</mask>
<g mask="url(#mask2_1341_711)">
<path d="M134.321 394.423C134.321 403.248 140.82 410.859 149.29 410.859C157.71 410.859 164.259 403.301 164.259 394.423C164.259 385.55 157.756 377.987 149.29 377.987C140.82 377.987 134.321 385.598 134.321 394.423ZM139.121 394.423C139.121 387.835 143.865 382.878 149.29 382.878C154.677 382.878 159.457 387.839 159.457 394.423C159.457 401.012 154.713 405.968 149.29 405.968C143.865 405.968 139.121 401.011 139.121 394.423Z" fill="white" stroke="white" stroke-width="4"/>
</g>
<mask id="mask3_1341_711" style="mask-type:luminance" maskUnits="userSpaceOnUse" x="105" y="343" width="35" height="46">
<path d="M105.606 343.052H139.747V388.458H105.606V343.052Z" fill="white"/>
</mask>
<g mask="url(#mask3_1341_711)">
<mask id="mask4_1341_711" style="mask-type:luminance" maskUnits="userSpaceOnUse" x="100" y="337" width="43" height="54">
<path d="M100.235 347.949L131.107 337.546L142.573 379.705L111.699 390.108L100.235 347.949Z" fill="white"/>
</mask>
<g mask="url(#mask4_1341_711)">
<mask id="mask5_1341_711" style="mask-type:luminance" maskUnits="userSpaceOnUse" x="100" y="337" width="43" height="54">
<path d="M100.235 347.949L131.107 337.546L142.573 379.705L111.699 390.108L100.235 347.949Z" fill="white"/>
</mask>
<g mask="url(#mask5_1341_711)">
<path d="M139.459 370.517C139.688 371.456 139.244 372.437 138.428 372.798C138.382 372.817 138.337 372.834 138.29 372.852C137.51 373.114 136.662 372.732 136.272 371.922C131.256 361.495 126.769 362.796 120.556 364.596C116.193 365.861 112.281 365.422 109.541 363.357C107.377 361.726 106.045 359.171 105.69 355.969C105.347 352.881 106.151 350.047 108.015 347.77C110.365 344.899 114.167 343.257 118.185 343.378C132.808 343.816 139.194 369.426 139.459 370.517ZM133.471 372.981C132.86 372.682 118.414 365.761 112.04 374.047C110.256 376.368 109.409 379.333 109.778 381.976C110.078 384.12 111.122 385.867 112.802 387.024C114.536 388.217 116.392 388.529 118.168 387.928C118.273 387.893 118.375 387.855 118.479 387.812C120.547 386.979 122.335 384.918 123.539 381.965C125.17 377.959 126.247 375.312 132.451 376.615C133.314 376.796 134.161 376.231 134.422 375.3C134.682 374.371 134.273 373.372 133.471 372.981Z" fill="white"/>
</g>
</g>
</g>
<mask id="mask6_1341_711" style="mask-type:luminance" maskUnits="userSpaceOnUse" x="143" y="336" width="41" height="42">
<path d="M143.294 336.143H183.642V377.107H143.294V336.143Z" fill="white"/>
</mask>
<g mask="url(#mask6_1341_711)">
<mask id="mask7_1341_711" style="mask-type:luminance" maskUnits="userSpaceOnUse" x="141" y="329" width="51" height="54">
<path d="M174.636 329.104L191.112 359.54L157.503 382.083L141.027 351.647L174.636 329.104Z" fill="white"/>
</mask>
<g mask="url(#mask7_1341_711)">
<mask id="mask8_1341_711" style="mask-type:luminance" maskUnits="userSpaceOnUse" x="141" y="329" width="51" height="54">
<path d="M174.636 329.104L191.112 359.54L157.503 382.083L141.027 351.647L174.636 329.104Z" fill="white"/>
</mask>
<g mask="url(#mask8_1341_711)">
<path d="M164.678 376.513C163.923 376.987 162.969 376.752 162.46 375.969C162.432 375.925 162.404 375.881 162.38 375.836C161.964 375.067 162.087 374.066 162.692 373.453C170.475 365.547 168.264 361.072 165.2 354.878C163.049 350.525 162.479 346.239 163.594 342.808C164.478 340.099 166.359 338.052 169.036 336.891C171.62 335.771 174.263 335.937 176.679 337.371C179.728 339.181 182.069 342.84 182.941 347.161C186.114 362.889 165.557 375.963 164.678 376.513ZM161.098 370.72C161.208 369.993 163.674 352.873 154.972 348.09C152.536 346.75 149.771 346.571 147.579 347.61C145.802 348.452 144.548 349.995 143.957 352.073C143.347 354.215 143.527 356.274 144.48 358.024C144.535 358.129 144.593 358.229 144.653 358.329C145.876 360.334 148.09 361.74 150.932 362.304C154.785 363.068 157.331 363.573 157.712 370.519C157.766 371.483 158.459 372.25 159.327 372.302C160.193 372.353 160.955 371.672 161.098 370.72Z" fill="white"/>
</g>
</g>
</g>
<mask id="mask9_1341_711" style="mask-type:luminance" maskUnits="userSpaceOnUse" x="169" y="371" width="39" height="42">
<path d="M169.454 371.184H207.585V412.641H169.454V371.184Z" fill="white"/>
</mask>
<g mask="url(#mask9_1341_711)">
<mask id="mask10_1341_711" style="mask-type:luminance" maskUnits="userSpaceOnUse" x="162" y="368" width="52" height="55">
<path d="M213.502 394.12L194.644 422.794L162.981 396.991L181.839 368.319L213.502 394.12Z" fill="white"/>
</mask>
<g mask="url(#mask10_1341_711)">
<mask id="mask11_1341_711" style="mask-type:luminance" maskUnits="userSpaceOnUse" x="162" y="368" width="52" height="55">
<path d="M213.502 394.12L194.644 422.794L162.981 396.991L181.839 368.319L213.502 394.12Z" fill="white"/>
</mask>
<g mask="url(#mask11_1341_711)">
<path d="M170.368 402.208C169.684 401.614 169.509 400.544 169.963 399.719C169.987 399.673 170.015 399.628 170.043 399.586C170.519 398.861 171.395 398.601 172.138 398.986C181.694 403.924 184.548 399.923 188.499 394.386C191.275 390.496 194.607 388.256 197.881 388.076C200.467 387.936 202.89 389.077 204.885 391.379C206.811 393.6 207.694 396.376 207.44 399.41C207.117 403.241 204.989 407.058 201.745 409.621C189.938 418.953 171.163 402.896 170.368 402.208ZM173.787 396.293C174.431 396.125 189.571 392.046 190.175 381.265C190.343 378.244 189.425 375.337 187.716 373.488C186.332 371.986 184.569 371.298 182.619 371.493C180.608 371.693 178.971 372.674 177.888 374.327C177.824 374.425 177.764 374.523 177.703 374.624C176.513 376.652 176.203 379.468 176.834 382.605C177.689 386.856 178.254 389.667 172.646 392.74C171.866 393.166 171.499 394.176 171.792 395.086C172.083 395.994 172.942 396.515 173.787 396.293Z" fill="white"/>
</g>
</g>
</g>
<mask id="mask12_1341_711" style="mask-type:luminance" maskUnits="userSpaceOnUse" x="147" y="413" width="34" height="43">
<path d="M147.728 413.135H180.095V455.579H147.728V413.135Z" fill="white"/>
</mask>
<g mask="url(#mask12_1341_711)">
<mask id="mask13_1341_711" style="mask-type:luminance" maskUnits="userSpaceOnUse" x="143" y="409" width="38" height="49">
<path d="M174.501 457.972L143.016 452.096L149.505 409.019L180.99 414.895L174.501 457.972Z" fill="white"/>
</mask>
<g mask="url(#mask13_1341_711)">
<mask id="mask14_1341_711" style="mask-type:luminance" maskUnits="userSpaceOnUse" x="143" y="409" width="38" height="49">
<path d="M174.501 457.972L143.016 452.096L149.505 409.019L180.99 414.895L174.501 457.972Z" fill="white"/>
</mask>
<g mask="url(#mask14_1341_711)">
<path d="M148.637 418.709C148.805 417.762 149.586 417.106 150.452 417.187C150.5 417.191 150.547 417.199 150.594 417.207C151.391 417.355 151.992 418.109 152.018 419.021C152.345 430.742 156.838 431.785 163.057 433.227C167.427 434.242 170.721 436.547 172.336 439.723C173.61 442.233 173.782 445.153 172.831 448.173C171.915 451.086 170.082 453.21 167.531 454.321C164.313 455.72 160.293 455.317 156.779 453.243C143.985 445.691 148.441 419.807 148.637 418.709ZM154.919 419.451C155.343 420.018 165.418 433.241 174.343 429C176.842 427.81 178.763 425.591 179.482 423.062C180.064 421.01 179.825 418.948 178.792 417.097C177.727 415.186 176.207 414.001 174.393 413.665C174.286 413.644 174.18 413.629 174.071 413.615C171.91 413.341 169.509 414.299 167.275 416.333C164.245 419.094 162.245 420.918 157.259 416.721C156.566 416.139 155.591 416.225 154.993 416.925C154.394 417.623 154.361 418.71 154.919 419.451Z" fill="white"/>
</g>
</g>
</g>
<mask id="mask15_1341_711" style="mask-type:luminance" maskUnits="userSpaceOnUse" x="97" y="399" width="41" height="36">
<path d="M97.1812 399.81H137.086V434.851H97.1812V399.81Z" fill="white"/>
</mask>
<g mask="url(#mask15_1341_711)">
<mask id="mask16_1341_711" style="mask-type:luminance" maskUnits="userSpaceOnUse" x="94" y="398" width="44" height="41">
<path d="M98.5546 438.722L94.933 403.417L133.92 398.462L137.54 433.768L98.5546 438.722Z" fill="white"/>
</mask>
<g mask="url(#mask16_1341_711)">
<mask id="mask17_1341_711" style="mask-type:luminance" maskUnits="userSpaceOnUse" x="94" y="398" width="44" height="41">
<path d="M98.5546 438.722L94.933 403.417L133.92 398.462L137.54 433.768L98.5546 438.722Z" fill="white"/>
</mask>
<g mask="url(#mask17_1341_711)">
<path d="M125.312 400.209C126.176 400.128 126.957 400.783 127.129 401.73C127.138 401.784 127.145 401.836 127.15 401.888C127.242 402.781 126.757 403.633 125.977 403.912C115.946 407.5 116.288 412.595 116.76 419.646C117.092 424.6 116.01 428.763 113.715 431.365C111.9 433.422 109.425 434.413 106.555 434.23C103.787 434.055 101.445 432.68 99.7826 430.259C97.6852 427.201 96.9231 422.79 97.7441 418.458C100.73 402.684 124.311 400.303 125.312 400.209ZM126.407 407.136C126.036 407.745 117.4 422.177 123.528 430.552C125.245 432.898 127.69 434.34 130.073 434.41C132.006 434.465 133.721 433.64 135.034 432.025C136.388 430.359 136.993 428.402 136.781 426.37C136.769 426.251 136.754 426.131 136.736 426.014C136.374 423.623 134.885 421.321 132.512 419.493C129.29 417.014 127.164 415.377 129.41 408.884C129.723 407.982 129.377 406.964 128.61 406.515C127.841 406.068 126.893 406.334 126.407 407.136Z" fill="white"/>
</g>
</g>
</g>
</svg>
