<svg width="671" height="644" viewBox="0 0 671 644" fill="none" xmlns="http://www.w3.org/2000/svg">
<path d="M569.518 143.496L566.525 138.743C541.229 98.7381 495.493 74.6267 447.275 77.5505C441.07 77.9232 434.902 78.7368 428.823 79.9848C384.98 89.0008 346.84 120.802 331.031 161.554C321.731 185.523 319.128 213.074 301.507 232.136C278.545 256.892 239.56 257.664 205.272 256.608C170.984 255.552 131.986 256.454 109.131 281.312C94.8123 296.871 90.2629 319.012 91.417 339.852C94.4768 395.042 134.549 444.386 185.505 468.922C236.46 493.459 296.461 495.648 352.235 484.855C430.353 469.734 504.659 428.183 549.321 364.118C593.983 300.052 605.242 212.687 569.518 143.496Z" fill="#FF725E"/>
<path d="M397.608 606.352L188.256 606.455C180.161 606.458 172.396 603.376 166.668 597.886C160.941 592.396 157.719 584.948 157.712 577.179L157.47 124.562C157.467 120.177 158.364 115.834 160.109 111.782C161.855 107.729 164.415 104.046 167.644 100.944C170.873 97.841 174.708 95.3793 178.928 93.6992C183.148 92.0191 187.672 91.1534 192.242 91.1517L397.729 91.0487C405.915 91.0487 413.766 94.1698 419.554 99.7254C425.343 105.281 428.595 112.816 428.595 120.673L428.85 576.393C428.842 584.341 425.548 591.961 419.69 597.579C413.831 603.196 405.889 606.352 397.608 606.352Z" fill="#455A64"/>
<path d="M161.966 566.72L161.724 130.874C161.742 121.438 165.659 112.395 172.616 105.728C179.572 99.0615 189 95.3154 198.831 95.312L387.167 95.209C392.043 95.2056 396.872 96.1242 401.377 97.9122C405.883 99.7003 409.978 102.323 413.427 105.63C416.877 108.937 419.614 112.864 421.482 117.187C423.35 121.509 424.312 126.143 424.314 130.822L424.555 566.669C424.559 571.348 423.602 575.982 421.739 580.307C419.876 584.631 417.143 588.561 413.697 591.872C410.251 595.183 406.16 597.81 401.656 599.602C397.152 601.395 392.325 602.319 387.449 602.32L199.113 602.423C194.229 602.425 189.394 601.502 184.883 599.708C180.372 597.914 176.274 595.283 172.823 591.967C169.373 588.65 166.638 584.713 164.775 580.381C162.912 576.049 161.957 571.407 161.966 566.72Z" fill="#263238"/>
<path d="M273.54 111.451C272.739 111.451 271.971 111.145 271.405 110.602C270.839 110.058 270.52 109.321 270.52 108.553C270.52 107.784 270.839 107.047 271.405 106.503C271.971 105.96 272.739 105.655 273.54 105.655H312.31C312.723 105.628 313.137 105.683 313.526 105.817C313.915 105.95 314.272 106.159 314.574 106.43C314.876 106.701 315.117 107.029 315.281 107.393C315.446 107.757 315.531 108.149 315.531 108.546C315.531 108.943 315.446 109.336 315.281 109.7C315.117 110.064 314.876 110.391 314.574 110.663C314.272 110.934 313.915 111.142 313.526 111.276C313.137 111.409 312.723 111.464 312.31 111.438L273.54 111.451Z" fill="#455A64"/>
<path d="M252.752 111.463C252.155 111.466 251.569 111.298 251.071 110.981C250.573 110.664 250.184 110.213 249.953 109.683C249.722 109.154 249.661 108.571 249.776 108.008C249.891 107.445 250.177 106.927 250.599 106.521C251.021 106.114 251.559 105.837 252.145 105.724C252.731 105.611 253.339 105.668 253.891 105.887C254.444 106.106 254.916 106.477 255.249 106.954C255.581 107.431 255.758 107.992 255.758 108.565C255.758 109.332 255.442 110.067 254.879 110.61C254.315 111.153 253.551 111.46 252.752 111.463Z" fill="#455A64"/>
<path d="M263.851 111.451C263.253 111.453 262.668 111.285 262.169 110.969C261.671 110.652 261.282 110.2 261.051 109.671C260.821 109.141 260.759 108.558 260.874 107.995C260.989 107.432 261.276 106.915 261.697 106.508C262.119 106.101 262.657 105.824 263.243 105.711C263.829 105.598 264.437 105.655 264.99 105.874C265.542 106.093 266.015 106.464 266.347 106.941C266.679 107.418 266.857 107.979 266.857 108.553C266.857 109.319 266.54 110.054 265.977 110.597C265.414 111.14 264.649 111.447 263.851 111.451Z" fill="#455A64"/>
<path d="M333.272 111.412C332.675 111.412 332.09 111.242 331.593 110.923C331.097 110.604 330.71 110.15 330.481 109.62C330.253 109.09 330.194 108.506 330.312 107.944C330.429 107.381 330.718 106.865 331.142 106.46C331.566 106.055 332.105 105.78 332.691 105.67C333.278 105.56 333.886 105.619 334.437 105.84C334.989 106.062 335.459 106.435 335.789 106.913C336.12 107.392 336.294 107.953 336.292 108.527C336.292 108.907 336.214 109.283 336.062 109.634C335.91 109.985 335.687 110.303 335.407 110.572C335.126 110.84 334.793 111.052 334.427 111.196C334.061 111.34 333.668 111.414 333.272 111.412Z" fill="#455A64"/>
<path d="M322.174 111.425C321.577 111.425 320.993 111.255 320.496 110.937C320 110.618 319.613 110.165 319.384 109.636C319.156 109.106 319.096 108.524 319.213 107.962C319.329 107.399 319.617 106.883 320.039 106.478C320.461 106.072 320.999 105.796 321.585 105.685C322.171 105.573 322.778 105.63 323.33 105.85C323.881 106.069 324.353 106.44 324.685 106.917C325.016 107.393 325.194 107.954 325.194 108.527C325.195 108.908 325.118 109.286 324.967 109.638C324.816 109.99 324.594 110.31 324.313 110.58C324.032 110.849 323.699 111.063 323.332 111.208C322.965 111.353 322.571 111.427 322.174 111.425Z" fill="#455A64"/>
<path d="M389.18 101.121H352.678C350.956 101.12 349.281 101.654 347.902 102.643C346.523 103.632 345.515 105.023 345.028 106.608L342.049 116.422C341.511 118.197 340.386 119.757 338.844 120.865C337.302 121.973 335.427 122.57 333.5 122.566H252.632C250.706 122.567 248.832 121.971 247.289 120.866C245.746 119.761 244.617 118.207 244.07 116.435L241.077 106.621C240.592 105.036 239.583 103.646 238.204 102.659C236.824 101.672 235.148 101.141 233.428 101.147H196.898C189.209 101.133 181.829 104.051 176.381 109.258C170.932 114.465 167.862 121.536 167.844 128.916L168.086 567.634C168.098 571.288 168.86 574.903 170.328 578.274C171.796 581.645 173.942 584.705 176.642 587.28C179.343 589.855 182.545 591.895 186.067 593.282C189.588 594.669 193.36 595.377 197.167 595.365L389.408 595.275C397.097 595.289 404.477 592.371 409.926 587.164C415.374 581.956 418.445 574.885 418.462 567.506L418.221 128.8C418.182 121.437 415.103 114.389 409.66 109.201C404.216 104.013 396.852 101.107 389.18 101.121Z" fill="#FAFAFA"/>
<path d="M428.621 203.027C429.094 203.031 429.546 203.212 429.88 203.533C430.214 203.853 430.403 204.287 430.406 204.741V260.55C430.406 261.002 430.22 261.435 429.888 261.756C429.556 262.077 429.106 262.259 428.635 262.263L428.621 203.027Z" fill="#455A64"/>
<path d="M157.511 239.671C157.023 239.671 156.555 239.857 156.21 240.188C155.866 240.519 155.672 240.968 155.672 241.436V275.4C155.676 275.869 155.872 276.318 156.219 276.649C156.566 276.979 157.035 277.165 157.524 277.165L157.511 239.671Z" fill="#455A64"/>
<path d="M157.484 190.624C157.241 190.624 157.001 190.67 156.777 190.76C156.553 190.849 156.35 190.98 156.179 191.145C156.008 191.311 155.873 191.507 155.781 191.722C155.69 191.938 155.643 192.169 155.645 192.401V226.353C155.649 226.824 155.845 227.274 156.191 227.606C156.538 227.939 157.007 228.127 157.497 228.131L157.484 190.624Z" fill="#455A64"/>
<path d="M157.47 153.903C157.047 153.903 156.641 154.065 156.341 154.352C156.042 154.639 155.873 155.029 155.873 155.436V169.823C155.873 170.023 155.915 170.222 155.995 170.407C156.076 170.593 156.193 170.761 156.342 170.902C156.49 171.043 156.666 171.155 156.86 171.231C157.054 171.306 157.261 171.344 157.47 171.343V153.903Z" fill="#455A64"/>
<path d="M359.28 115.405H357.415V117.916H359.28V115.405Z" fill="white"/>
<path d="M362.313 114.284H360.448V117.903H362.313V114.284Z" fill="white"/>
<path d="M365.346 113.447H363.481V117.904H365.346V113.447Z" fill="white"/>
<path d="M368.379 111.824H366.514V117.903H368.379V111.824Z" fill="white"/>
<path d="M395.89 118.019H386.496C386.409 118.021 386.322 118.006 386.24 117.975C386.159 117.944 386.085 117.898 386.022 117.839C385.96 117.78 385.91 117.71 385.876 117.633C385.843 117.555 385.825 117.472 385.825 117.388V112.919C385.825 112.75 385.894 112.588 386.017 112.468C386.14 112.348 386.307 112.278 386.483 112.275H395.877C395.922 112.278 395.964 112.297 395.997 112.327C396.029 112.358 396.048 112.399 396.051 112.442V113.911H397.058C397.08 113.911 397.102 113.915 397.123 113.924C397.143 113.932 397.161 113.945 397.176 113.96C397.192 113.976 397.203 113.995 397.21 114.015C397.218 114.035 397.221 114.057 397.219 114.078V116.216C397.219 116.261 397.2 116.303 397.168 116.335C397.135 116.366 397.09 116.384 397.044 116.384H396.038V117.852C396.04 117.872 396.037 117.893 396.031 117.912C396.024 117.932 396.014 117.95 396 117.965C395.986 117.981 395.97 117.994 395.951 118.003C395.932 118.012 395.911 118.018 395.89 118.019ZM395.716 112.597H386.496C386.411 112.597 386.329 112.629 386.268 112.687C386.208 112.745 386.174 112.824 386.174 112.906V117.375C386.174 117.457 386.208 117.536 386.268 117.594C386.329 117.652 386.411 117.685 386.496 117.685H395.675V116.216C395.675 116.175 395.692 116.136 395.723 116.107C395.753 116.078 395.794 116.062 395.836 116.062H396.843V114.233H395.89C395.847 114.233 395.806 114.216 395.776 114.187C395.746 114.158 395.729 114.119 395.729 114.078L395.716 112.597Z" fill="white"/>
<path d="M386.952 116.963V113.344L394.937 113.331V114.967V115.327V116.963H386.952Z" fill="white"/>
<path d="M377.29 117.685C377.29 117.555 377.25 117.428 377.175 117.32C377.099 117.212 376.992 117.127 376.867 117.078C376.742 117.028 376.605 117.015 376.472 117.04C376.339 117.066 376.217 117.128 376.121 117.22C376.026 117.312 375.961 117.429 375.934 117.556C375.908 117.684 375.921 117.816 375.973 117.936C376.025 118.056 376.113 118.159 376.225 118.231C376.338 118.303 376.47 118.341 376.605 118.341C376.787 118.341 376.961 118.272 377.089 118.149C377.218 118.026 377.29 117.859 377.29 117.685Z" fill="white"/>
<path d="M374.27 116.113L375.143 116.938C375.532 116.568 376.058 116.361 376.605 116.361C377.153 116.361 377.679 116.568 378.068 116.938L378.941 116.1C378.319 115.509 377.481 115.175 376.605 115.173C376.171 115.174 375.741 115.257 375.34 115.419C374.939 115.58 374.576 115.816 374.27 116.113Z" fill="white"/>
<path d="M376.606 113.344C375.217 113.345 373.886 113.873 372.902 114.812L373.774 115.65C374.528 114.934 375.545 114.532 376.606 114.532C377.666 114.532 378.683 114.934 379.437 115.65L380.309 114.812C379.824 114.345 379.246 113.975 378.611 113.722C377.975 113.47 377.293 113.342 376.606 113.344Z" fill="white"/>
<path d="M371.479 113.434L372.351 114.271C372.907 113.731 373.569 113.302 374.3 113.01C375.03 112.718 375.814 112.569 376.605 112.571C378.2 112.573 379.729 113.179 380.86 114.259L381.732 113.421C381.059 112.775 380.26 112.262 379.38 111.912C378.5 111.562 377.558 111.382 376.605 111.382C375.653 111.382 374.71 111.562 373.831 111.912C372.951 112.262 372.152 112.775 371.479 113.421V113.434Z" fill="white"/>
<path d="M219.377 223.726C219.347 227.009 218.304 230.21 216.379 232.925C214.454 235.639 211.734 237.745 208.562 238.976C205.39 240.206 201.909 240.506 198.559 239.838C195.21 239.17 192.142 237.564 189.743 235.222C187.345 232.881 185.724 229.909 185.085 226.683C184.446 223.457 184.818 220.122 186.154 217.099C187.49 214.077 189.731 211.502 192.591 209.701C195.452 207.9 198.805 206.954 202.226 206.982C204.498 207 206.743 207.448 208.835 208.299C210.926 209.151 212.822 210.389 214.415 211.944C216.007 213.499 217.265 215.34 218.117 217.361C218.968 219.383 219.396 221.545 219.377 223.726Z" fill="#FFE162"/>
<path d="M305.842 210.936C305.842 211.116 289.738 211.142 270.01 210.936C250.283 210.73 234.166 210.511 234.166 210.317C234.166 210.124 250.27 210.111 270.01 210.317C289.751 210.524 305.855 210.755 305.842 210.936Z" fill="#263238"/>
<path d="M364.34 226.688C364.34 226.868 335.084 226.791 298.998 226.508C262.911 226.224 233.656 225.838 233.656 225.658C233.656 225.477 262.911 225.555 299.011 225.838C335.111 226.121 364.34 226.495 364.34 226.688Z" fill="#E0E0E0"/>
<path d="M364.232 239.066C364.232 239.246 334.977 239.169 298.89 238.885C262.804 238.602 233.508 238.28 233.508 238.035C233.508 237.791 262.75 237.932 298.85 238.216C334.95 238.499 364.232 238.872 364.232 239.066Z" fill="#E0E0E0"/>
<path d="M402.801 208.553C402.801 208.746 396.467 208.836 388.67 208.785C380.873 208.733 374.552 208.514 374.552 208.334C374.552 208.154 380.873 208.051 388.684 208.115C396.494 208.179 402.801 208.373 402.801 208.553Z" fill="#263238"/>
<path d="M391.864 225.825L393.032 228.143C393.129 228.342 393.275 228.515 393.457 228.647C393.64 228.78 393.853 228.868 394.078 228.903L396.762 229.29C397.037 229.301 397.302 229.393 397.521 229.553C397.739 229.713 397.901 229.934 397.985 230.186C398.068 230.437 398.069 230.708 397.987 230.96C397.906 231.212 397.745 231.434 397.527 231.595L395.581 233.386C395.418 233.539 395.294 233.728 395.222 233.936C395.15 234.144 395.13 234.366 395.165 234.583L395.608 237.159C395.648 237.409 395.615 237.665 395.513 237.897C395.411 238.13 395.243 238.331 395.029 238.478C394.815 238.625 394.562 238.712 394.3 238.729C394.037 238.747 393.775 238.694 393.542 238.576L391.18 237.353C390.973 237.247 390.743 237.191 390.509 237.191C390.275 237.191 390.044 237.247 389.838 237.353L387.449 238.538C387.219 238.684 386.948 238.758 386.672 238.751C386.397 238.744 386.13 238.655 385.909 238.498C385.688 238.34 385.522 238.121 385.435 237.87C385.348 237.619 385.344 237.348 385.423 237.095L385.892 234.519C385.939 234.304 385.928 234.081 385.86 233.872C385.792 233.662 385.669 233.472 385.503 233.321L383.597 231.505C383.409 231.327 383.276 231.102 383.215 230.856C383.153 230.609 383.165 230.351 383.249 230.111C383.333 229.87 383.486 229.657 383.69 229.496C383.894 229.335 384.141 229.232 384.403 229.2L387.087 228.852C387.314 228.826 387.531 228.745 387.716 228.617C387.902 228.488 388.05 228.317 388.147 228.118L389.355 225.825C389.476 225.607 389.657 225.424 389.878 225.297C390.099 225.17 390.352 225.103 390.609 225.103C390.867 225.103 391.12 225.17 391.341 225.297C391.562 225.424 391.743 225.607 391.864 225.825Z" fill="#FFE162"/>
<path d="M324.979 210.189C324.973 210.805 324.778 211.406 324.417 211.916C324.055 212.426 323.545 212.821 322.949 213.052C322.354 213.284 321.7 213.34 321.071 213.215C320.442 213.09 319.866 212.788 319.416 212.349C318.966 211.909 318.661 211.351 318.541 210.746C318.421 210.14 318.491 209.514 318.741 208.946C318.992 208.379 319.412 207.895 319.949 207.557C320.486 207.219 321.116 207.041 321.758 207.046C322.184 207.049 322.606 207.133 322.999 207.293C323.391 207.453 323.748 207.685 324.047 207.977C324.346 208.269 324.582 208.614 324.742 208.994C324.902 209.373 324.982 209.779 324.979 210.189Z" fill="#FFE162"/>
<path d="M417.228 180.114C417.228 180.294 361.334 180.011 292.422 179.47C223.51 178.929 167.616 178.336 167.616 178.182C167.616 178.027 223.497 178.285 292.422 178.826C361.347 179.367 417.241 179.934 417.228 180.114Z" fill="#E0E0E0"/>
<path d="M416.503 265.92C416.503 266.114 360.595 265.817 291.697 265.276C222.799 264.735 166.891 264.143 166.891 263.988C166.891 263.834 222.785 264.091 291.697 264.632C360.609 265.173 416.503 265.74 416.503 265.92Z" fill="#E0E0E0"/>
<path d="M212.849 406.654C219.605 400.17 219.605 389.658 212.849 383.175C206.094 376.691 195.141 376.691 188.386 383.175C181.63 389.658 181.63 400.17 188.386 406.654C195.141 413.138 206.094 413.138 212.849 406.654Z" fill="#FFE162"/>
<path d="M304.379 382.266C304.379 382.446 288.342 382.472 268.548 382.266C248.753 382.06 232.703 381.841 232.703 381.647C232.703 381.454 248.807 381.441 268.548 381.647C288.289 381.853 304.393 382.085 304.379 382.266Z" fill="#263238"/>
<path d="M362.877 397.992C362.877 398.172 333.621 398.095 297.535 397.812C261.448 397.528 232.193 397.142 232.193 396.962C232.193 396.781 261.448 396.859 297.548 397.142C333.648 397.425 362.877 397.825 362.877 397.992Z" fill="#E0E0E0"/>
<path d="M362.769 410.395C362.769 410.576 333.514 410.499 297.427 410.215C261.341 409.932 232.085 409.545 232.099 409.365C232.112 409.185 261.341 409.262 297.441 409.545C333.541 409.829 362.769 410.202 362.769 410.395Z" fill="#E0E0E0"/>
<path d="M401.339 379.883C401.339 380.076 395.018 380.166 387.207 380.115C379.397 380.063 373.089 379.844 373.089 379.664C373.089 379.483 379.41 379.38 387.221 379.445C395.031 379.509 401.339 379.702 401.339 379.883Z" fill="#263238"/>
<path d="M390.388 397.155L391.555 399.473C391.652 399.672 391.799 399.845 391.981 399.977C392.163 400.11 392.376 400.197 392.602 400.233L395.286 400.619C395.561 400.631 395.826 400.722 396.044 400.883C396.263 401.043 396.425 401.264 396.508 401.516C396.592 401.767 396.593 402.037 396.511 402.289C396.429 402.541 396.269 402.763 396.051 402.925L394.105 404.715C393.941 404.869 393.818 405.057 393.746 405.266C393.673 405.474 393.654 405.696 393.689 405.913L394.132 408.489C394.172 408.739 394.139 408.994 394.037 409.227C393.935 409.46 393.767 409.661 393.553 409.808C393.339 409.955 393.086 410.042 392.824 410.059C392.561 410.076 392.298 410.023 392.065 409.906L389.703 408.618C389.497 408.512 389.266 408.457 389.032 408.457C388.798 408.457 388.568 408.512 388.361 408.618L385.973 409.803C385.743 409.949 385.472 410.023 385.196 410.016C384.921 410.009 384.654 409.921 384.433 409.763C384.211 409.606 384.046 409.386 383.959 409.135C383.872 408.884 383.867 408.614 383.946 408.36L384.429 405.784C384.475 405.568 384.461 405.345 384.391 405.135C384.32 404.925 384.195 404.736 384.027 404.586L382.121 402.77C381.933 402.593 381.8 402.368 381.739 402.121C381.677 401.875 381.689 401.616 381.773 401.376C381.857 401.136 382.009 400.923 382.213 400.762C382.417 400.601 382.664 400.498 382.926 400.465L385.61 400.117C385.838 400.092 386.054 400.011 386.24 399.882C386.425 399.754 386.574 399.582 386.67 399.383L387.878 397.09C388.006 396.875 388.191 396.697 388.416 396.576C388.641 396.454 388.895 396.393 389.153 396.4C389.411 396.407 389.662 396.48 389.879 396.613C390.097 396.746 390.273 396.933 390.388 397.155Z" fill="#FFE162"/>
<path d="M323.462 382.14C323.812 380.451 322.669 378.81 320.91 378.475C319.151 378.139 317.441 379.236 317.091 380.925C316.742 382.613 317.885 384.254 319.644 384.589C321.403 384.925 323.112 383.828 323.462 382.14Z" fill="#FFE162"/>
<path d="M415.765 351.444C415.765 351.624 359.871 351.341 290.959 350.8C222.047 350.259 166.153 349.666 166.153 349.512C166.153 349.357 222.034 349.615 290.959 350.156C359.884 350.697 415.779 351.263 415.765 351.444Z" fill="#E0E0E0"/>
<path d="M415.04 437.25C415.04 437.443 360.018 437.096 292.127 436.477C224.235 435.859 169.213 435.189 169.213 435.035C169.213 434.88 224.235 435.189 292.14 435.808C360.045 436.426 415.04 437.07 415.04 437.25Z" fill="#E0E0E0"/>
<path d="M216.532 557.987C216.503 561.27 215.46 564.471 213.535 567.185C211.611 569.899 208.891 572.005 205.72 573.236C202.549 574.467 199.069 574.768 195.719 574.101C192.37 573.434 189.302 571.829 186.903 569.489C184.504 567.148 182.882 564.178 182.241 560.953C181.601 557.728 181.971 554.393 183.305 551.37C184.64 548.347 186.877 545.772 189.736 543.969C192.595 542.166 195.947 541.218 199.368 541.243C203.957 541.281 208.343 543.065 211.561 546.205C214.78 549.345 216.568 553.583 216.532 557.987Z" fill="#E0E0E0"/>
<path d="M302.997 545.21C302.997 545.391 286.893 545.416 267.152 545.21C247.411 545.004 231.321 544.785 231.321 544.592C231.321 544.399 247.425 544.386 267.165 544.592C286.906 544.798 302.997 545.03 302.997 545.21Z" fill="#263238"/>
<path d="M361.481 560.963C361.481 561.143 332.226 561.066 296.153 560.782C260.08 560.499 230.811 560.113 230.811 559.932C230.811 559.752 260.066 559.829 296.153 560.113C332.239 560.396 361.481 560.769 361.481 560.963Z" fill="#E0E0E0"/>
<path d="M361.374 573.327C361.374 573.521 332.118 573.443 296.045 573.16C259.972 572.877 230.703 572.49 230.703 572.31C230.703 572.13 259.959 572.194 296.045 572.477C332.132 572.761 361.387 573.16 361.374 573.327Z" fill="#E0E0E0"/>
<path d="M399.916 542.828C399.916 543.008 393.595 543.111 385.798 543.047C378.001 542.982 371.667 542.789 371.667 542.609C371.667 542.428 378.001 542.325 385.798 542.377C393.595 542.428 399.916 542.647 399.916 542.828Z" fill="#263238"/>
<path d="M322.08 544.463C322.075 545.08 321.879 545.681 321.518 546.191C321.156 546.7 320.646 547.096 320.05 547.327C319.455 547.558 318.801 547.615 318.173 547.489C317.544 547.364 316.968 547.063 316.517 546.623C316.067 546.184 315.762 545.626 315.642 545.02C315.522 544.415 315.592 543.789 315.842 543.221C316.093 542.653 316.514 542.17 317.051 541.832C317.587 541.493 318.217 541.316 318.859 541.321C319.286 541.324 319.707 541.408 320.1 541.568C320.493 541.728 320.849 541.96 321.148 542.252C321.447 542.544 321.683 542.889 321.843 543.269C322.003 543.648 322.084 544.054 322.08 544.463Z" fill="#FFE162"/>
<path d="M417.888 265.94L169.023 263.981L168.289 349.784L417.155 351.744L417.888 265.94Z" fill="#F5F5F5"/>
<path d="M214.096 319.319C220.851 312.836 220.851 302.324 214.096 295.84C207.34 289.356 196.387 289.356 189.632 295.84C182.877 302.324 182.877 312.836 189.632 319.319C196.387 325.803 207.34 325.803 214.096 319.319Z" fill="#455A64"/>
<path d="M305.627 294.952C305.627 295.145 289.523 295.171 269.796 295.016C250.068 294.862 233.951 294.578 233.951 294.398C233.951 294.218 250.055 294.179 269.796 294.398C289.537 294.617 305.627 294.746 305.627 294.952Z" fill="#263238"/>
<path d="M364.125 310.679C364.125 310.872 334.869 310.782 298.783 310.498C262.697 310.215 233.441 309.841 233.441 309.648C233.441 309.455 262.697 309.545 298.783 309.828C334.869 310.112 364.125 310.498 364.125 310.679Z" fill="#E0E0E0"/>
<path d="M364.018 323.056C364.018 323.237 334.762 323.159 298.676 322.876C262.589 322.592 233.334 322.219 233.334 322.026C233.334 321.833 262.589 321.923 298.689 322.206C334.789 322.489 364.018 322.876 364.018 323.056Z" fill="#E0E0E0"/>
<path d="M402.6 292.556C402.6 292.737 396.266 292.84 388.469 292.775C383.758 292.853 379.046 292.702 374.351 292.325C374.351 292.144 380.672 292.041 388.482 292.106C393.193 292.028 397.905 292.179 402.6 292.556Z" fill="#263238"/>
<path d="M391.636 309.828C391.636 309.828 391.529 309.687 391.287 309.481C391.116 309.344 390.913 309.25 390.695 309.207C390.477 309.164 390.252 309.174 390.039 309.236C389.739 309.315 389.483 309.505 389.328 309.764C389.153 310.047 388.979 310.434 388.791 310.807L388.174 312.095C388.065 312.366 387.884 312.604 387.648 312.785C387.412 312.966 387.13 313.083 386.832 313.126L385.1 313.383L384.188 313.512C383.931 313.554 383.698 313.682 383.53 313.873C383.354 314.067 383.256 314.317 383.256 314.575C383.256 314.833 383.354 315.082 383.53 315.277L385.06 316.719L385.463 317.093C385.625 317.24 385.757 317.414 385.852 317.608C386.039 318.013 386.073 318.469 385.946 318.896C385.812 319.626 385.677 320.373 385.543 321.137C385.5 321.286 385.493 321.442 385.523 321.594C385.552 321.746 385.617 321.889 385.713 322.013C385.809 322.137 385.932 322.239 386.075 322.31C386.218 322.382 386.375 322.421 386.536 322.425C386.845 322.425 387.127 322.27 387.529 322.077L388.67 321.523C389.059 321.298 389.473 321.117 389.905 320.982C390.15 320.936 390.402 320.937 390.646 320.986C390.89 321.034 391.122 321.13 391.327 321.266L393.474 322.373C393.609 322.437 393.756 322.473 393.906 322.479C394.056 322.485 394.206 322.462 394.346 322.41C394.485 322.358 394.613 322.278 394.719 322.177C394.826 322.075 394.909 321.954 394.964 321.82C395.058 321.521 395.058 321.203 394.964 320.905C394.964 320.545 394.857 320.197 394.79 319.849L394.629 318.806C394.547 318.397 394.629 317.974 394.857 317.621C395.084 317.34 395.341 317.081 395.622 316.848L396.36 316.191L397.058 315.56C397.247 315.397 397.378 315.18 397.433 314.942C397.477 314.714 397.446 314.48 397.345 314.27C397.244 314.06 397.078 313.885 396.87 313.77C396.389 313.621 395.895 313.517 395.393 313.461L394.051 313.229C393.823 313.209 393.601 313.144 393.4 313.038C393.199 312.931 393.023 312.786 392.884 312.61C392.705 312.312 392.548 312.002 392.414 311.683C392.119 311.132 391.881 310.553 391.703 309.957C392.073 310.466 392.396 311.005 392.669 311.567C392.812 311.86 392.973 312.144 393.152 312.417C393.274 312.55 393.422 312.657 393.588 312.732C393.754 312.808 393.935 312.85 394.119 312.855L395.461 313.035C396.019 313.074 396.569 313.183 397.098 313.357C397.329 313.479 397.527 313.652 397.675 313.861C397.824 314.07 397.919 314.31 397.953 314.561C397.987 314.812 397.959 315.067 397.871 315.305C397.783 315.544 397.638 315.759 397.447 315.933L396.749 316.577L396.038 317.26C395.794 317.456 395.574 317.676 395.38 317.917C395.241 318.151 395.193 318.425 395.246 318.69C395.313 319.038 395.367 319.385 395.434 319.733C395.501 320.081 395.555 320.429 395.622 320.789C395.757 321.209 395.757 321.658 395.622 322.077C395.536 322.298 395.404 322.498 395.232 322.666C395.061 322.834 394.854 322.965 394.626 323.052C394.399 323.138 394.154 323.177 393.91 323.167C393.665 323.157 393.425 323.097 393.206 322.992L391.045 321.884C390.909 321.785 390.753 321.714 390.587 321.676C390.42 321.638 390.247 321.635 390.079 321.665C389.714 321.798 389.359 321.957 389.019 322.142L387.892 322.695L387.315 322.979C387.075 323.084 386.813 323.132 386.55 323.121C386.296 323.108 386.048 323.044 385.823 322.932C385.598 322.82 385.4 322.663 385.244 322.471C385.087 322.279 384.975 322.057 384.916 321.821C384.856 321.584 384.851 321.338 384.899 321.098C385.047 320.338 385.194 319.591 385.328 318.87C385.438 318.583 385.438 318.268 385.328 317.981C385.158 317.704 384.935 317.459 384.671 317.26L383.074 315.56C382.805 315.259 382.657 314.875 382.657 314.478C382.657 314.081 382.805 313.697 383.074 313.396C383.337 313.118 383.693 312.936 384.08 312.881L385.006 312.765L386.751 312.559C386.979 312.534 387.196 312.451 387.378 312.317C387.56 312.183 387.7 312.004 387.784 311.799L388.442 310.588C388.657 310.215 388.831 309.88 389.046 309.532C389.264 309.225 389.594 309.009 389.972 308.927C390.224 308.868 390.487 308.876 390.735 308.948C390.983 309.021 391.206 309.156 391.381 309.339C391.609 309.635 391.649 309.816 391.636 309.828Z" fill="#263238"/>
<path d="M324.764 294.192C324.759 294.809 324.563 295.41 324.202 295.919C323.84 296.429 323.33 296.825 322.734 297.056C322.139 297.287 321.485 297.343 320.857 297.218C320.228 297.093 319.652 296.792 319.201 296.352C318.751 295.913 318.446 295.355 318.326 294.749C318.206 294.144 318.276 293.517 318.526 292.95C318.777 292.382 319.197 291.899 319.734 291.56C320.271 291.222 320.901 291.044 321.543 291.049C322.403 291.06 323.225 291.396 323.828 291.984C324.431 292.573 324.768 293.366 324.764 294.192Z" fill="#FFE162"/>
<path d="M418.077 436.995L169.211 435.036L168.478 520.839L417.343 522.799L418.077 436.995Z" fill="#F5F5F5"/>
<path d="M214.283 490.368C221.039 483.884 221.039 473.372 214.283 466.889C207.528 460.405 196.575 460.405 189.82 466.889C183.064 473.372 183.064 483.884 189.82 490.368C196.575 496.852 207.528 496.852 214.283 490.368Z" fill="#455A64"/>
<path d="M305.815 465.986C305.815 466.166 289.711 466.192 269.984 465.986C250.256 465.779 234.139 465.56 234.139 465.367C234.139 465.174 250.243 465.161 269.984 465.367C289.724 465.573 305.815 465.805 305.815 465.986Z" fill="#263238"/>
<path d="M364.313 481.712C364.313 481.892 335.057 481.815 298.971 481.532C262.884 481.248 233.629 480.862 233.629 480.682C233.629 480.501 262.884 480.579 298.971 480.862C335.057 481.145 364.313 481.545 364.313 481.712Z" fill="#E0E0E0"/>
<path d="M364.205 494.115C364.205 494.296 334.95 494.218 298.863 493.935C262.777 493.652 233.508 493.304 233.508 493.085C233.508 492.866 262.764 492.982 298.863 493.265C334.963 493.549 364.205 493.922 364.205 494.115Z" fill="#E0E0E0"/>
<path d="M402.775 463.603C402.775 463.796 396.44 463.886 388.643 463.835C380.846 463.783 374.525 463.564 374.525 463.384C374.525 463.203 380.846 463.1 388.657 463.165C396.467 463.229 402.775 463.422 402.775 463.603Z" fill="#263238"/>
<path d="M391.864 480.875C391.864 480.875 391.757 480.733 391.515 480.54C391.346 480.401 391.143 480.304 390.925 480.26C390.707 480.215 390.481 480.222 390.267 480.282C389.969 480.366 389.715 480.555 389.556 480.81C389.381 481.107 389.207 481.493 389.019 481.866C388.831 482.24 388.616 482.665 388.402 483.09C388.296 483.364 388.116 483.605 387.88 483.789C387.644 483.972 387.36 484.091 387.06 484.133L385.329 484.378L384.416 484.52C384.218 484.548 384.031 484.628 383.876 484.75C383.722 484.873 383.605 485.034 383.539 485.215C383.472 485.397 383.459 485.593 383.5 485.781C383.541 485.969 383.635 486.143 383.772 486.284L385.302 487.714L385.704 488.088C385.87 488.237 386.002 488.416 386.093 488.616C386.289 489.019 386.323 489.478 386.187 489.904C386.053 490.642 385.919 491.389 385.785 492.145C385.751 492.289 385.751 492.439 385.785 492.584C385.819 492.729 385.886 492.864 385.98 492.981C386.075 493.098 386.196 493.194 386.334 493.261C386.472 493.328 386.623 493.364 386.778 493.368C387.135 493.349 387.48 493.233 387.771 493.033L388.912 492.467C389.303 492.247 389.717 492.066 390.146 491.926C390.643 491.841 391.154 491.948 391.569 492.222L393.716 493.33C393.851 493.393 393.998 493.429 394.148 493.435C394.298 493.441 394.447 493.418 394.587 493.366C394.727 493.314 394.854 493.234 394.961 493.133C395.067 493.031 395.151 492.91 395.206 492.776C395.299 492.478 395.299 492.16 395.206 491.861C395.206 491.501 395.098 491.14 395.031 490.792L394.87 489.762C394.788 489.353 394.869 488.93 395.098 488.577C395.326 488.296 395.582 488.037 395.863 487.804L396.601 487.147L397.299 486.503C397.493 486.343 397.625 486.126 397.675 485.885C397.717 485.66 397.686 485.427 397.585 485.219C397.484 485.012 397.319 484.839 397.111 484.726C396.633 484.571 396.138 484.467 395.635 484.417L394.293 484.185C394.063 484.163 393.841 484.096 393.64 483.987C393.439 483.878 393.264 483.731 393.126 483.554C392.947 483.26 392.79 482.954 392.656 482.639C392.356 482.085 392.118 481.502 391.945 480.9C392.312 481.415 392.635 481.958 392.911 482.523C393.053 482.812 393.215 483.091 393.394 483.361C393.514 483.496 393.662 483.605 393.828 483.683C393.994 483.76 394.175 483.804 394.36 483.811L395.702 483.992C396.222 484.036 396.735 484.135 397.232 484.288C397.54 484.445 397.789 484.692 397.943 484.992C398.097 485.293 398.149 485.632 398.091 485.962C398.032 486.317 397.852 486.643 397.581 486.89L396.883 487.534L396.172 488.203C395.931 488.406 395.711 488.631 395.514 488.873C395.374 489.107 395.326 489.381 395.38 489.646C395.447 489.994 395.501 490.329 395.568 490.676C395.635 491.024 395.689 491.385 395.756 491.745C395.885 492.166 395.885 492.613 395.756 493.033C395.666 493.252 395.53 493.45 395.356 493.616C395.183 493.781 394.975 493.91 394.747 493.995C394.519 494.08 394.275 494.118 394.03 494.108C393.786 494.097 393.546 494.039 393.327 493.935C392.616 493.574 391.891 493.214 391.166 492.827C390.885 492.639 390.539 492.56 390.2 492.608C389.835 492.747 389.48 492.91 389.14 493.098L388.013 493.652L387.435 493.935C387.193 494.03 386.932 494.074 386.671 494.064C386.418 494.051 386.172 493.987 385.948 493.876C385.723 493.765 385.527 493.609 385.37 493.419C385.214 493.228 385.102 493.008 385.041 492.773C384.981 492.538 384.974 492.293 385.02 492.055C385.167 491.295 385.315 490.548 385.449 489.813C385.559 489.527 385.559 489.212 385.449 488.925C385.271 488.652 385.049 488.409 384.792 488.203L383.262 486.722C382.993 486.421 382.844 486.037 382.844 485.64C382.844 485.243 382.993 484.86 383.262 484.558C383.528 484.281 383.881 484.095 384.268 484.03L385.194 483.914L386.939 483.708C387.167 483.689 387.384 483.609 387.567 483.477C387.75 483.345 387.89 483.166 387.972 482.961L388.63 481.751C388.845 481.364 389.019 481.029 389.234 480.694C389.447 480.381 389.779 480.159 390.16 480.076C390.401 480.032 390.651 480.047 390.885 480.119C391.12 480.191 391.332 480.318 391.502 480.488C391.864 480.694 391.864 480.875 391.864 480.875Z" fill="#263238"/>
<path d="M324.952 465.238C324.947 465.855 324.751 466.456 324.39 466.966C324.028 467.475 323.518 467.871 322.922 468.102C322.327 468.333 321.673 468.39 321.045 468.264C320.416 468.139 319.84 467.838 319.389 467.398C318.939 466.959 318.634 466.401 318.514 465.795C318.394 465.19 318.464 464.564 318.714 463.996C318.965 463.428 319.385 462.945 319.922 462.607C320.459 462.268 321.089 462.091 321.731 462.096C322.158 462.099 322.579 462.183 322.972 462.343C323.365 462.503 323.721 462.735 324.02 463.027C324.319 463.319 324.555 463.664 324.715 464.044C324.875 464.423 324.955 464.829 324.952 465.238Z" fill="#FFE162"/>
<path d="M206.359 156.672C206.359 156.788 201.77 156.878 196.107 156.878C190.443 156.878 185.854 156.788 185.854 156.672C185.854 156.556 190.443 156.466 196.107 156.466C201.77 156.466 206.359 156.556 206.359 156.672Z" fill="#263238"/>
<path d="M206.359 161.708C206.359 161.824 201.77 161.914 196.107 161.914C190.443 161.914 185.854 161.824 185.854 161.708C185.854 161.592 190.443 161.502 196.107 161.502C201.77 161.502 206.359 161.592 206.359 161.708Z" fill="#263238"/>
<path d="M206.359 166.744C206.359 166.86 201.77 166.963 196.107 166.963C190.443 166.963 185.854 166.86 185.854 166.757C185.854 166.654 190.443 166.538 196.107 166.538C201.77 166.538 206.359 166.641 206.359 166.744Z" fill="#263238"/>
<path d="M398.816 159.879C398.748 159.879 398.816 159.39 398.52 158.591C398.189 157.451 397.472 156.45 396.481 155.745C395.687 155.167 394.742 154.812 393.751 154.721C392.759 154.629 391.761 154.804 390.867 155.225C389.973 155.647 389.219 156.299 388.69 157.109C388.16 157.918 387.875 158.853 387.868 159.809C387.86 160.765 388.129 161.704 388.646 162.521C389.162 163.338 389.905 164.001 390.792 164.436C391.679 164.871 392.675 165.061 393.667 164.984C394.66 164.907 395.611 164.567 396.413 164.001C397.41 163.302 398.145 162.313 398.507 161.18C398.749 160.369 398.748 159.892 398.816 159.892C398.833 160.008 398.833 160.125 398.816 160.24C398.823 160.578 398.787 160.915 398.708 161.245C398.417 162.479 397.686 163.577 396.642 164.349C395.761 164.982 394.713 165.365 393.617 165.457C392.521 165.549 391.419 165.345 390.438 164.868C389.456 164.391 388.632 163.66 388.06 162.758C387.488 161.856 387.19 160.819 387.199 159.763C387.209 158.707 387.525 157.674 388.114 156.782C388.702 155.889 389.538 155.172 390.528 154.712C391.519 154.251 392.623 154.065 393.717 154.175C394.812 154.285 395.853 154.686 396.722 155.333C397.753 156.122 398.461 157.235 398.722 158.476C398.799 158.805 398.83 159.143 398.816 159.48C398.848 159.611 398.848 159.748 398.816 159.879Z" fill="#263238"/>
<path d="M401.835 169.23C400.805 168.569 399.897 167.746 399.151 166.796C398.234 165.976 397.467 165.014 396.883 163.949C397.913 164.611 398.821 165.434 399.567 166.384C400.487 167.201 401.254 168.164 401.835 169.23Z" fill="#263238"/>
<path d="M386.241 428.904L386.053 498.121L354.181 491.836L327.341 486.452C327.341 486.452 364.085 556.004 404.049 556.004C444.014 556.004 449.181 498.134 449.181 498.134L451.556 428.904H386.241Z" fill="#9B7564"/>
<path d="M551.804 250.349C548.878 251.946 544.852 249.872 543.51 246.884C542.168 243.896 542.785 240.444 543.805 237.301C544.825 234.158 546.248 231.144 546.489 227.886C546.609 224.911 545.729 221.978 543.979 219.52C542.23 217.062 539.704 215.208 536.773 214.233C542.544 209.841 543.013 200.426 537.713 195.518C535.23 193.226 531.929 191.976 529.043 190.173C527.402 189.133 525.874 187.938 524.48 186.605C527.055 187.215 529.735 187.294 532.345 186.837C534.436 186.397 536.378 185.458 537.992 184.107C539.605 182.757 540.838 181.038 541.577 179.109C542.259 177.156 542.359 175.059 541.866 173.054C541.372 171.049 540.306 169.217 538.786 167.762C537.219 166.354 535.241 165.436 533.117 165.133C530.993 164.829 528.823 165.153 526.896 166.062C523.165 167.955 521.125 171.845 519.314 175.503L517.623 178.89C512.376 172.219 507.437 165.328 499.345 162.984C492.004 160.858 484.113 163.228 476.464 162.7C470.894 162.301 465.553 160.382 459.997 159.789C454.441 159.197 448.121 160.343 444.846 164.684C442.914 167.26 442.31 170.531 440.364 173.069C436.338 178.298 427.669 179.006 424.367 184.661C421.683 189.272 423.75 195.093 422.596 200.258C421.348 205.874 416.517 209.983 412.571 214.297C408.626 218.612 405.177 224.537 407.391 229.869C409.35 234.571 415.054 237.095 416.906 241.822C418.248 245.274 417.281 249.099 417.214 252.783C417.147 256.467 418.677 260.846 422.421 261.683L465.003 272.476C479.671 278.195 494.795 284.068 510.631 283.991C526.467 283.914 543.362 276.675 549.549 262.713C547.247 262.63 545.064 261.709 543.443 260.137C545.511 259.21 547.335 257.849 548.782 256.155C550.229 254.461 551.261 252.476 551.804 250.349Z" fill="#263238"/>
<path d="M516.898 263.164C520.414 252.86 523.877 242.363 525.474 231.57C527.071 220.776 526.735 209.519 522.79 199.37C522.199 197.824 517.086 187.43 515.368 187.597C514.147 187.713 517.287 197.399 516.71 198.429C510.805 208.167 509.195 219.875 510.148 231.119C511.164 242.032 513.447 252.802 516.952 263.229" fill="#263238"/>
<path d="M479.295 353.762C496.902 353.402 516.871 316.41 516.871 316.41L518.012 221.536C518.925 194.218 503.129 170.931 474.652 170.802L471.968 170.931C459.195 171.601 447.151 176.854 438.225 185.648C429.298 194.442 424.141 206.134 423.777 218.406C423.119 242.093 422.69 268.278 423.562 280.926C425.36 307.098 452.885 309.764 452.885 309.764C452.885 309.764 453.046 315.843 453.126 323.546C453.314 340.831 472.169 354.303 479.228 353.724L479.295 353.762Z" fill="#9B7564"/>
<path d="M452.952 309.803C452.952 309.803 470.21 309.893 487.924 297.889C487.924 297.889 480.329 317.389 452.965 316.436L452.952 309.803Z" fill="#7F6358"/>
<path d="M435.627 239.001C435.672 239.986 436.12 240.915 436.874 241.585C437.627 242.255 438.626 242.613 439.653 242.582C440.149 242.594 440.643 242.511 441.106 242.337C441.569 242.163 441.991 241.902 442.347 241.57C442.703 241.238 442.987 240.841 443.181 240.402C443.375 239.963 443.476 239.491 443.477 239.014C443.435 238.027 442.989 237.095 442.235 236.422C441.481 235.749 440.48 235.389 439.451 235.421C438.954 235.409 438.458 235.492 437.995 235.667C437.531 235.842 437.109 236.103 436.752 236.437C436.396 236.771 436.113 237.17 435.919 237.61C435.726 238.05 435.626 238.523 435.627 239.001Z" fill="#263238"/>
<path d="M430.286 229.019C430.795 229.483 433.627 227.229 437.828 227.023C442.028 226.817 445.209 228.684 445.638 228.156C445.839 227.937 445.302 227.074 443.907 226.212C442.028 225.094 439.832 224.567 437.626 224.705C435.444 224.808 433.353 225.575 431.654 226.894C430.42 227.976 430.031 228.813 430.286 229.019Z" fill="#263238"/>
<path d="M473.404 238.035C473.449 239.02 473.897 239.949 474.651 240.619C475.405 241.289 476.403 241.647 477.43 241.616C477.928 241.628 478.423 241.544 478.886 241.37C479.35 241.195 479.772 240.933 480.129 240.6C480.485 240.266 480.769 239.867 480.962 239.427C481.155 238.986 481.255 238.513 481.255 238.035C481.209 237.062 480.771 236.143 480.032 235.475C479.292 234.806 478.311 234.44 477.296 234.455C476.793 234.436 476.291 234.514 475.821 234.685C475.35 234.857 474.92 235.117 474.557 235.451C474.194 235.786 473.904 236.187 473.706 236.631C473.508 237.075 473.405 237.552 473.404 238.035Z" fill="#263238"/>
<path d="M471.458 228.53C471.968 228.993 474.813 226.752 479 226.546C483.187 226.34 486.381 228.195 486.811 227.68C487.025 227.448 486.488 226.598 485.079 225.722C483.197 224.611 481.004 224.085 478.799 224.215C476.617 224.322 474.527 225.088 472.827 226.405C471.606 227.422 471.216 228.324 471.458 228.53Z" fill="#263238"/>
<path d="M458.145 260.24C458.145 260.009 455.461 259.712 451.261 259.416C450.187 259.416 449.167 259.21 448.939 258.514C448.786 257.458 448.979 256.383 449.49 255.436C450.384 252.86 451.279 250.194 452.174 247.438C455.958 236.078 458.629 226.739 458.145 226.598C457.662 226.456 454.213 235.614 450.442 246.935C449.543 249.73 448.671 252.409 447.852 254.96C447.243 256.236 447.124 257.678 447.517 259.03C447.694 259.384 447.952 259.694 448.273 259.937C448.594 260.181 448.969 260.35 449.369 260.434C449.968 260.561 450.581 260.613 451.194 260.588C455.502 260.588 458.132 260.472 458.145 260.24Z" fill="#263238"/>
<path d="M470.639 262.391C469.955 262.391 470.197 266.758 466.466 270.055C462.735 273.352 457.877 273.133 457.877 273.739C457.877 274.022 459.004 274.537 461.044 274.486C463.714 274.382 466.261 273.379 468.237 271.652C470.139 269.988 471.289 267.678 471.445 265.212C471.525 263.409 470.948 262.353 470.639 262.391Z" fill="#263238"/>
<path d="M470.774 212.185C471.257 213.267 475.417 212.533 480.369 212.842C485.321 213.151 489.374 214.246 489.964 213.228C490.233 212.739 489.481 211.747 487.817 210.768C485.603 209.582 483.136 208.895 480.604 208.759C478.072 208.623 475.541 209.042 473.203 209.983C471.431 210.768 470.572 211.683 470.774 212.185Z" fill="#263238"/>
<path d="M431.265 215.547C432.057 216.423 434.902 215.328 438.364 215.109C441.827 214.89 444.819 215.392 445.437 214.401C445.718 213.924 445.195 213.022 443.866 212.224C442.08 211.278 440.042 210.861 438.01 211.026C435.977 211.191 434.041 211.931 432.446 213.151C431.265 214.156 430.916 215.096 431.265 215.547Z" fill="#263238"/>
<path d="M516.871 241.088C517.328 240.869 535.324 234.802 535.74 252.68C536.156 270.557 517.287 267.299 517.247 266.848C517.207 266.397 516.871 241.088 516.871 241.088Z" fill="#9B7564"/>
<path d="M522.803 259.944C522.884 259.944 523.138 260.15 523.689 260.382C524.468 260.684 525.339 260.684 526.118 260.382C528.077 259.648 529.674 256.595 529.701 253.362C529.706 251.823 529.358 250.302 528.681 248.906C528.493 248.351 528.167 247.848 527.733 247.44C527.298 247.032 526.767 246.73 526.185 246.562C525.807 246.475 525.411 246.518 525.063 246.683C524.715 246.847 524.438 247.124 524.279 247.463C524.038 247.966 524.172 248.326 524.064 248.352C523.957 248.378 523.662 248.056 523.796 247.322C523.891 246.873 524.142 246.469 524.507 246.175C524.756 245.984 525.042 245.842 525.348 245.758C525.655 245.673 525.976 245.649 526.292 245.686C527.062 245.816 527.784 246.132 528.39 246.606C528.996 247.079 529.466 247.694 529.755 248.391C530.591 249.929 531.019 251.641 531.003 253.375C531.003 256.995 529.11 260.408 526.426 261.219C525.927 261.371 525.399 261.413 524.881 261.342C524.363 261.27 523.868 261.088 523.434 260.807C522.843 260.369 522.736 259.97 522.803 259.944Z" fill="#7F6358"/>
<path d="M435.546 188.576C432.5 187.018 441.451 177.499 448.845 174.163C460.011 169.14 477.135 165.92 487.522 168.612C500.043 171.845 510.483 177.628 516.898 188.499C523.313 199.37 525.836 211.979 525.635 224.421C525.567 228.221 525.219 232.149 523.138 235.421C520.589 239.413 515.61 241.977 515.905 247.451C515.988 248.44 515.866 249.436 515.546 250.38C515.226 251.324 514.714 252.197 514.04 252.95C510.658 256.479 506.431 253.247 504.471 249.988C500.257 243.007 499.694 234.622 499.224 226.585C498.888 220.866 498.566 214.993 500.177 209.506C501.049 206.505 502.485 203.659 503.183 200.619C503.881 197.579 503.747 194.179 501.734 191.667C501.272 191.138 500.759 190.651 500.204 190.212C497.565 188.064 494.379 186.626 490.972 186.047C487.565 185.468 484.059 185.767 480.812 186.915C470.331 190.624 452.428 196.188 447.691 192.814C440.874 187.958 439.21 184.764 439.21 184.764L435.546 188.576Z" fill="#263238"/>
<path d="M486.515 166.152C476.209 162.984 464.506 163.306 454.965 168.213C449.892 170.789 445.329 174.936 443.853 180.256C442.377 185.575 444.819 192.105 450.161 194.115L450.536 194.333C458.588 196.806 463.715 195.724 471.633 192.981C478.343 190.676 484.194 186.644 490.863 184.364C498.014 181.95 505.752 181.641 513.087 183.476C505.84 175.773 496.835 169.359 486.515 166.152Z" fill="#263238"/>
<path d="M522.038 183.926C521.877 184.055 520.374 182.342 517.341 180.32C515.576 179.137 513.67 178.16 511.664 177.409C509.265 176.439 506.669 175.999 504.069 176.121C499.307 176.629 494.791 178.415 491.038 181.273C488.139 183.476 486.797 185.33 486.623 185.202C486.448 185.073 486.824 184.648 487.441 183.823C488.322 182.655 489.334 181.583 490.461 180.629C494.235 177.429 498.953 175.434 503.961 174.923C506.748 174.77 509.534 175.246 512.094 176.314C514.162 177.145 516.103 178.241 517.864 179.573C520.884 181.904 522.172 183.849 522.038 183.926Z" fill="#455A64"/>
<path d="M523.93 190.276C523.775 192.06 523.293 193.804 522.508 195.428C519.148 203.469 512.981 210.14 505.062 214.297C503.488 215.237 501.752 215.9 499.935 216.255C499.707 215.907 507.786 212.971 514.563 205.526C521.34 198.082 523.541 190.109 523.93 190.276Z" fill="#455A64"/>
<path d="M531.539 193.2C531.686 193.869 531.708 194.558 531.606 195.235C531.509 197.092 531.239 198.937 530.801 200.748C529.367 206.784 526.398 212.386 522.16 217.054C517.921 221.722 512.545 225.31 506.511 227.5C504.7 228.161 502.832 228.669 500.928 229.019C500.24 229.211 499.522 229.281 498.808 229.225C498.808 229.019 501.747 228.53 506.176 226.649C511.953 224.314 517.098 220.741 521.218 216.205C525.337 211.669 528.321 206.29 529.942 200.477C531.204 196.072 531.311 193.2 531.539 193.2Z" fill="#455A64"/>
<path d="M465.11 164.542C465.11 164.748 463.164 165.186 460.158 166.332C452.27 169.341 445.563 174.647 440.981 181.505C440.134 182.989 439.207 184.429 438.203 185.82C438.561 184.129 439.243 182.517 440.216 181.067C442.361 177.433 445.181 174.207 448.537 171.549C451.892 168.892 455.733 166.857 459.863 165.547C461.535 164.913 463.313 164.573 465.11 164.542Z" fill="#455A64"/>
<path d="M537.404 166.796C537.713 166.796 536.894 171.948 532.667 176.778C528.439 181.608 523.273 183.282 523.273 182.986C523.273 182.69 527.795 180.591 531.741 176.005C535.686 171.42 537.028 166.68 537.404 166.796Z" fill="#455A64"/>
<path d="M338.801 487.031L349.886 480.501C351.767 479.404 353.925 478.82 356.126 478.814H377.598L399.768 498.198L406.384 501.367L403.915 534.855L389.502 533.155C389.502 533.155 358.73 534.443 355.751 532.524C352.771 530.604 348.464 524.577 348.464 524.577C348.464 524.577 331.595 519.334 329.944 517.918C323.677 512.521 326.2 511.233 326.2 511.233L323.315 509.945C322.778 510.924 318.577 504.355 319.02 501.058C319.275 499.139 318.685 499.151 318.685 499.151C317.286 498.381 316.081 497.325 315.153 496.059C314.226 494.793 313.599 493.347 313.317 491.823C313.008 489.865 321.369 491.269 321.369 491.269L342.21 491.539L338.801 487.031Z" fill="#9B7564"/>
<path d="M357.334 491.089L337.728 465.47C337.018 464.538 336.089 463.78 335.016 463.259C333.943 462.737 332.757 462.467 331.555 462.469H292.798C292.05 462.469 291.333 462.754 290.805 463.261C290.276 463.769 289.979 464.457 289.979 465.174C289.986 465.821 290.228 466.445 290.664 466.939L312.874 491.668L357.334 491.089Z" fill="#455A64"/>
<path d="M347.833 501.586C346.406 501.954 344.935 502.14 343.458 502.14C336.357 502.537 329.233 501.947 322.308 500.388C320.851 500.135 319.435 499.702 318.094 499.1C319.559 499.196 321.013 499.407 322.442 499.731C325.126 500.182 328.79 500.736 332.896 501.019C337.003 501.302 340.734 501.431 343.431 501.418C344.901 501.349 346.374 501.405 347.833 501.586Z" fill="#7F6358"/>
<path d="M353.402 512.804C351.975 513.169 350.504 513.356 349.027 513.358C345.481 513.562 341.924 513.514 338.385 513.216C334.842 512.926 331.326 512.388 327.864 511.606C326.411 511.356 324.999 510.923 323.664 510.318C325.128 510.415 326.583 510.626 328.012 510.95C330.696 511.4 334.359 511.954 338.466 512.238C342.572 512.521 346.303 512.65 349.001 512.637C350.47 512.568 351.943 512.624 353.402 512.804Z" fill="#7F6358"/>
<path d="M313.37 491.823C313.532 492.617 313.748 493.4 314.015 494.167C314.896 496.286 316.599 497.994 318.765 498.932L318.913 498.997V499.151C318.866 501.418 319.386 503.661 320.429 505.694C321.718 508.194 323.852 510.201 326.482 511.387L326.844 511.542L326.67 511.864C326.469 512.266 326.364 512.706 326.364 513.152C326.364 513.598 326.469 514.038 326.67 514.44C327.127 515.308 327.777 516.069 328.575 516.668C330.349 517.979 332.299 519.053 334.373 519.862C338.967 521.693 343.724 523.124 348.585 524.139H348.772L348.866 524.293C350.11 526.025 351.576 527.6 353.228 528.982C354.817 530.494 356.772 531.605 358.918 532.214C360.572 532.605 362.275 532.77 363.977 532.704L369.077 532.833L378.914 533.09L396.628 533.567H396.695L417.805 537.701L423.669 538.912L425.199 539.26C425.382 539.28 425.559 539.333 425.723 539.414C425.544 539.434 425.364 539.434 425.186 539.414L423.629 539.182L417.711 538.178L396.534 534.314H396.601L378.887 533.953L369.063 533.734L363.95 533.618C362.17 533.671 360.391 533.489 358.663 533.077C356.377 532.434 354.293 531.256 352.597 529.651C350.887 528.216 349.376 526.575 348.101 524.77L348.383 524.963C343.471 523.926 338.668 522.456 334.037 520.571C331.897 519.72 329.888 518.594 328.065 517.222C327.17 516.527 326.449 515.646 325.958 514.646C325.726 514.15 325.612 513.61 325.626 513.066C325.64 512.522 325.781 511.988 326.039 511.503L326.227 511.98C323.457 510.703 321.223 508.559 319.893 505.901C318.844 503.771 318.351 501.428 318.457 499.074L318.604 499.293C317.482 498.79 316.478 498.075 315.653 497.189C314.827 496.304 314.197 495.267 313.8 494.141C313.51 493.4 313.364 492.614 313.37 491.823Z" fill="#7F6358"/>
<path d="M359.75 522.658C359.857 522.864 357.254 524.139 353.724 524.59C350.195 525.04 347.35 524.474 347.39 524.255C347.43 524.036 350.222 524.139 353.604 523.688C356.985 523.237 359.656 522.413 359.75 522.658Z" fill="#7F6358"/>
<path d="M369.708 491.05C369.708 491.295 365.453 491.642 360.166 491.836C354.879 492.029 350.598 491.964 350.598 491.707C350.598 491.449 354.852 491.114 360.139 490.921C365.427 490.728 369.708 490.792 369.708 491.05Z" fill="#7F6358"/>
<path d="M405.968 498.623C405.968 498.623 405.566 498.997 404.626 499.139C403.279 499.279 401.92 498.989 400.761 498.314C399.141 497.298 397.626 496.133 396.239 494.837L390.951 490.393L381.289 482.42C379.886 481.389 378.575 480.248 377.37 479.007C378.91 479.845 380.362 480.824 381.705 481.931C384.295 483.837 387.811 486.568 391.582 489.659C393.461 491.23 395.232 492.75 396.816 494.154C398.138 495.45 399.57 496.639 401.097 497.709C402.13 498.372 403.343 498.73 404.586 498.739C405.472 498.752 405.942 498.546 405.968 498.623Z" fill="#7F6358"/>
<path d="M353.201 491.643C353.007 491.476 352.831 491.29 352.678 491.089L351.336 489.44L346.236 483.271L338.882 474.074L334.561 468.639C333.798 467.748 332.796 467.075 331.662 466.694C331.082 466.501 330.477 466.384 329.864 466.346C329.26 466.346 328.522 466.346 327.931 466.346L301.091 466.243L292.945 466.14H290.731C290.47 466.146 290.209 466.125 289.953 466.076C290.207 466.018 290.47 465.996 290.731 466.011L292.945 465.947L301.091 465.831L327.931 465.741C328.602 465.741 329.273 465.741 329.917 465.741C330.59 465.785 331.253 465.915 331.89 466.127C333.14 466.556 334.245 467.304 335.084 468.291L339.392 473.765L346.625 483.052C348.625 485.628 350.262 487.779 351.456 489.35C351.98 490.045 352.396 490.638 352.798 491.076C352.957 491.248 353.092 491.438 353.201 491.643Z" fill="#263238"/>
<path d="M311.049 469.978C311.298 469.794 311.598 469.685 311.911 469.664C312.225 469.643 312.538 469.711 312.811 469.86C313.085 470.008 313.306 470.231 313.448 470.501C313.59 470.77 313.646 471.073 313.609 471.373C313.572 471.672 313.444 471.955 313.241 472.185C313.037 472.415 312.768 472.582 312.465 472.665C312.163 472.749 311.842 472.745 311.543 472.654C311.243 472.563 310.978 472.39 310.78 472.155C310.531 471.84 310.414 471.446 310.454 471.052C310.494 470.658 310.687 470.293 310.995 470.03" fill="#F5F5F5"/>
<path d="M518.79 308.953L573.383 339.749L583.421 509.765L596.465 605.953H400.265C400.265 605.953 402.425 488.886 403.096 453.479C403.58 428.659 402.882 380.553 411.632 350.967C415.362 338.358 451.892 322.064 451.892 322.064C471.901 339.027 494.272 333.966 518.79 308.953Z" fill="#62B8AF"/>
<path d="M590.695 563.449C590.695 563.629 548.341 563.783 496.084 563.783C443.826 563.783 401.473 563.629 401.473 563.449C401.473 563.268 443.826 563.114 496.084 563.114C548.341 563.114 590.695 563.255 590.695 563.449Z" fill="white"/>
<g opacity="0.3">
<path d="M401.352 534.52C416.543 546.743 440.149 553.363 459.581 557.137C479.013 560.911 498.862 562.289 518.347 565.715C531.969 568.15 546.261 571.589 559.399 567.338C565.94 565.109 571.676 561.123 575.925 555.856C580.174 550.588 582.757 544.26 583.367 537.624C583.465 537.179 583.463 536.719 583.361 536.275C583.259 535.831 583.06 535.413 582.777 535.048C582.385 534.762 581.936 534.557 581.458 534.446C580.98 534.336 580.483 534.321 579.999 534.404C521.34 536.903 459.219 536.555 401.352 534.481" fill="black"/>
</g>
<path d="M390.965 499.28H528.064L528.735 429.947L591.996 422.116C591.996 422.116 592.278 492.531 592.278 515.625C592.278 543.343 567.317 562.611 546.355 559.649C525.393 556.686 390.965 532.601 390.965 532.601V499.28Z" fill="#9B7564"/>
<path d="M596.385 436.516L522.655 443.871V360.846C522.655 360.846 529.902 332.793 555.373 333.966C580.844 335.138 595.848 361.58 596.385 385.833C596.922 410.086 596.385 436.516 596.385 436.516Z" fill="#62B8AF"/>
<path d="M419.429 341.23C419.429 341.23 395.796 356.158 389.462 372.631C382.819 389.903 373.492 445.854 373.492 445.854H406.626L419.429 341.23Z" fill="#62B8AF"/>
<path d="M522.038 364.143C522.125 365.151 522.125 366.163 522.038 367.17C521.971 369.27 521.877 372.052 521.77 375.426C521.555 382.382 521.327 392.003 521.354 402.629C521.38 413.255 521.676 422.876 521.957 429.831C522.092 433.206 522.199 435.988 522.28 438.088C522.361 439.095 522.361 440.107 522.28 441.114C522.068 440.121 521.942 439.113 521.904 438.1C521.716 436.168 521.488 433.348 521.273 429.87C520.83 422.902 520.441 413.281 520.401 402.629C520.36 391.977 520.696 382.356 521.099 375.388C521.286 371.91 521.488 369.102 521.662 367.157C521.706 366.145 521.832 365.137 522.038 364.143Z" fill="#263238"/>
<path d="M559.158 335.305C559.158 335.485 556.688 334.854 552.689 334.919C547.482 334.97 542.388 336.378 537.949 338.991C533.51 341.604 529.894 345.325 527.487 349.756C525.621 353.144 525.098 355.514 524.923 355.475C524.934 354.906 525.034 354.342 525.219 353.801C525.623 352.307 526.185 350.857 526.896 349.473C529.212 344.824 532.879 340.915 537.455 338.219C542.031 335.523 547.321 334.153 552.689 334.275C554.3 334.302 555.905 334.479 557.48 334.803C558.063 334.886 558.629 335.056 559.158 335.305Z" fill="#263238"/>
<path d="M404.251 380.333C404.313 380.643 404.345 380.958 404.345 381.274C404.345 381.995 404.345 382.884 404.425 383.966C404.425 386.297 404.506 389.671 404.506 393.845C404.506 402.191 404.371 413.718 404.116 426.444C403.861 439.169 403.606 450.568 403.432 459.03C403.351 463.1 403.284 466.449 403.231 468.909C403.231 469.991 403.15 470.88 403.123 471.601C403.14 471.913 403.109 472.226 403.029 472.529C402.959 472.224 402.928 471.913 402.935 471.601C402.935 470.88 402.935 469.991 402.855 468.909C402.855 466.578 402.774 463.203 402.774 459.03C402.774 450.684 402.909 439.156 403.164 426.418C403.419 413.68 403.66 402.294 403.835 393.845C403.929 389.762 403.996 386.426 404.049 383.966C404.049 382.884 404.13 381.995 404.143 381.274C404.133 380.957 404.169 380.641 404.251 380.333Z" fill="#263238"/>
<path d="M403.405 408.141C399.674 408.444 395.927 408.526 392.186 408.386C388.44 408.464 384.694 408.317 380.967 407.948C384.698 407.645 388.445 407.564 392.186 407.704C395.932 407.618 399.679 407.764 403.405 408.141Z" fill="white"/>
<path d="M520.777 388.976C520.777 389.156 495.279 389.311 463.943 389.311C432.607 389.311 407.082 389.156 407.082 388.976C407.082 388.796 432.58 388.641 463.943 388.641C495.305 388.641 520.777 388.757 520.777 388.976Z" fill="white"/>
<path d="M594.788 377.616C594.538 377.644 594.286 377.644 594.036 377.616L591.916 377.448L584.132 376.804C577.543 376.276 568.444 375.697 558.379 375.426C548.314 375.156 539.189 375.272 532.586 375.426L524.762 375.658H522.642C522.393 375.693 522.14 375.693 521.89 375.658C522.132 375.597 522.379 375.563 522.628 375.555L524.749 375.375C526.601 375.233 529.258 375.078 532.573 374.924C539.175 374.628 548.301 374.46 558.393 374.718C568.485 374.975 577.597 375.645 584.173 376.289C587.46 376.611 590.118 376.907 591.943 377.152L594.05 377.436C594.303 377.464 594.551 377.525 594.788 377.616Z" fill="white"/>
<path d="M595.486 426.805C595.486 426.998 578.831 426.805 558.312 426.341C537.793 425.877 521.125 425.375 521.139 425.195C521.152 425.014 537.78 425.195 558.326 425.671C578.872 426.148 595.486 426.624 595.486 426.805Z" fill="white"/>
<path d="M528.506 347.618C528.506 347.812 502.23 347.953 469.821 347.953C437.412 347.953 411.135 347.812 411.135 347.618C411.135 347.425 437.412 347.283 469.821 347.283C502.23 347.283 528.506 347.438 528.506 347.618Z" fill="white"/>
<path d="M521.152 441.204C521.152 441.385 494.795 441.539 462.279 441.539C429.762 441.539 403.405 441.385 403.405 441.204C403.405 441.024 429.762 440.87 462.279 440.87C494.795 440.87 521.152 441.011 521.152 441.204Z" fill="white"/>
<path d="M529.607 482.523C529.607 482.704 500.942 482.858 465.593 482.858C430.245 482.858 401.567 482.704 401.567 482.523C401.567 482.343 430.232 482.189 465.593 482.189C500.955 482.189 529.607 482.33 529.607 482.523Z" fill="white"/>
<path d="M594.412 601.664C594.412 601.844 551.186 601.998 497.882 601.998C444.578 601.998 401.352 601.844 401.352 601.664C401.352 601.483 444.564 601.329 497.882 601.329C551.2 601.329 594.412 601.496 594.412 601.664Z" fill="white"/>
<g opacity="0.3">
<path d="M521.756 444.656C520.897 428.247 521.515 412.894 520.642 396.498C514.821 420.561 512.072 445.214 512.456 469.914C512.55 475.774 512.845 481.738 514.818 487.289C516.791 492.84 522.253 497.593 527.835 499.963L528.372 443.948C525.863 444.128 524.279 444.54 521.756 444.656Z" fill="black"/>
</g>
<path d="M141.876 545.442L132.2 606.455H75.9841L62.9398 546.318L141.876 545.442Z" fill="#62B8AF"/>
<path d="M70.8038 584.546C70.8038 584.726 85.2035 584.868 103.012 584.868C120.82 584.868 135.22 584.726 135.22 584.546C135.22 584.366 120.82 584.237 103.012 584.237C85.2035 584.237 70.8038 584.378 70.8038 584.546Z" fill="#FAFAFA"/>
<path d="M70.5891 581.545C70.5891 581.725 85.0827 581.867 102.972 581.867C120.86 581.867 135.354 581.725 135.354 581.545C135.354 581.365 120.86 581.236 102.972 581.236C85.0827 581.236 70.5891 581.377 70.5891 581.545Z" fill="#FAFAFA"/>
<path d="M70.6965 578.157C70.6965 578.338 85.1901 578.479 103.079 578.479C120.968 578.479 135.461 578.338 135.461 578.157C135.461 577.977 120.968 577.835 103.079 577.835C85.1901 577.835 70.6965 577.977 70.6965 578.157Z" fill="#FAFAFA"/>
<path d="M125.745 602.977C126.525 600.448 127.099 597.864 127.463 595.249C128.038 592.684 128.397 590.078 128.537 587.457C127.746 589.984 127.171 592.568 126.819 595.185C126.236 597.749 125.877 600.356 125.745 602.977Z" fill="#FAFAFA"/>
<path d="M121.921 602.333C122.303 599.849 122.536 597.346 122.618 594.837C122.902 592.339 123.023 589.827 122.981 587.315C122.368 589.764 122.026 592.268 121.961 594.785C121.662 597.292 121.648 599.823 121.921 602.333Z" fill="#FAFAFA"/>
<path d="M114.942 602.333C116.256 597.28 116.892 592.085 116.834 586.877C116.323 589.432 115.96 592.012 115.747 594.605C115.335 597.165 115.066 599.745 114.942 602.333Z" fill="#FAFAFA"/>
<path d="M110.044 602.655C110.907 597.477 111.082 592.214 110.567 586.993C110.276 589.594 110.142 592.209 110.165 594.824C109.963 597.43 109.922 600.045 110.044 602.655Z" fill="#FAFAFA"/>
<path d="M101.388 602.333C101.813 599.882 102.015 597.399 101.992 594.914C102.186 592.439 102.159 589.953 101.911 587.483C101.503 589.936 101.306 592.417 101.321 594.901C101.135 597.376 101.158 599.862 101.388 602.333Z" fill="#FAFAFA"/>
<path d="M95.0673 602.655C95.3862 600.091 95.476 597.506 95.3357 594.927C95.4236 592.366 95.2889 589.803 94.9331 587.264C94.6319 589.829 94.5466 592.413 94.6781 594.992C94.5901 597.552 94.7203 600.115 95.0673 602.655Z" fill="#FAFAFA"/>
<path d="M89.1357 601.831C89.2025 599.152 89.041 596.473 88.6525 593.82C88.4906 591.147 88.1137 588.49 87.5253 585.873C87.4582 588.551 87.6197 591.231 88.0084 593.884C88.1704 596.557 88.5472 599.214 89.1357 601.831Z" fill="#FAFAFA"/>
<path d="M81.4862 601.032C81.4762 598.732 81.1605 596.442 80.5468 594.219C80.1426 591.953 79.4391 589.745 78.4532 587.65C78.8094 589.91 79.2932 592.151 79.9026 594.36C80.2948 596.612 80.8236 598.84 81.4862 601.032Z" fill="#FAFAFA"/>
<path d="M86.9079 425.04C86.8915 425.142 86.8915 425.247 86.9079 425.349C86.9079 425.581 87.0555 425.864 87.1629 426.212C87.4313 427.011 87.7802 428.105 88.2365 429.497C88.6928 430.888 89.2967 432.678 89.8872 434.726C90.4777 436.774 91.2292 439.079 91.9136 441.681C92.598 444.283 93.4032 447.103 94.1011 450.182C94.7989 453.26 95.537 456.532 96.2751 460.009C97.6171 466.964 98.8517 474.654 99.7106 482.768C100.569 490.883 100.918 498.675 101.053 505.759C101.053 509.288 101.053 512.65 100.959 515.805C100.865 518.961 100.717 521.872 100.556 524.551C100.395 527.23 100.18 529.626 100.006 531.751C99.8314 533.876 99.6435 535.692 99.4556 537.186C99.2677 538.68 99.1738 539.762 99.0933 540.612C99.0933 540.973 99.0664 541.269 99.0128 541.501C99.0128 541.707 99.0128 541.81 99.0128 541.81C99.0578 541.717 99.0851 541.616 99.0933 541.514C99.0933 541.282 99.1738 540.986 99.2409 540.625C99.3483 539.801 99.5227 538.655 99.724 537.212C99.9253 535.769 100.18 533.902 100.382 531.789C100.583 529.677 100.878 527.256 101.039 524.577C101.2 521.898 101.428 518.974 101.509 515.818C101.589 512.663 101.657 509.301 101.683 505.746C101.603 498.662 101.24 490.857 100.341 482.717C99.4422 474.577 98.221 466.861 96.8387 459.893C96.0872 456.416 95.4162 453.118 94.611 450.053C93.8058 446.988 93.0811 444.141 92.343 441.565C91.6049 438.989 90.8534 436.658 90.2093 434.623C89.5651 432.588 88.9746 430.836 88.4512 429.471C87.9279 428.105 87.5521 427.011 87.2703 426.212C87.1361 425.877 87.0287 425.594 86.9482 425.375C86.9424 425.263 86.929 425.151 86.9079 425.04Z" fill="#263238"/>
<path d="M97.0534 462.817C95.5055 458.417 92.4125 454.67 88.3035 452.217C86.9615 451.392 85.1632 450.723 83.687 451.405C81.7277 452.32 81.5667 454.96 82.1572 456.982C83.1767 460.409 85.4557 463.365 88.5719 465.303C91.3107 467.25 94.7406 468.079 98.1135 467.608" fill="#263238"/>
<path d="M100.462 488.332C99.0127 483.064 94.6377 475.581 90.0884 472.31C89.3915 471.764 88.5886 471.357 87.7265 471.112C87.2947 470.987 86.8372 470.969 86.3963 471.059C85.9553 471.149 85.5451 471.345 85.2035 471.627C84.8156 472.121 84.5612 472.699 84.4629 473.311C84.3645 473.922 84.4253 474.547 84.6399 475.13C85.5725 478.971 87.6004 482.488 90.4966 485.285C93.3928 488.083 97.0432 490.053 101.039 490.973" fill="#263238"/>
<path d="M101.401 510.782C99.1446 505.756 95.5311 501.398 90.9339 498.16C90.448 497.719 89.8739 497.378 89.2464 497.156C88.619 496.935 87.9512 496.838 87.2836 496.872C85.2975 497.207 84.3983 499.538 84.5996 501.47C84.962 505.437 88.1291 508.631 91.3902 511.091C94.3835 513.084 97.6366 514.69 101.066 515.87" fill="#263238"/>
<path d="M100.878 526.934C98.6967 523.094 95.653 519.768 91.9673 517.196C91.177 516.62 90.2583 516.228 89.2833 516.05C88.7878 515.95 88.2728 515.986 87.7979 516.155C87.3229 516.323 86.9074 516.618 86.5993 517.003C85.7001 518.291 86.5993 519.966 87.5118 521.189C90.654 525.386 95.1043 528.516 100.221 530.128" fill="#263238"/>
<path d="M101.321 520.352C105.159 515.838 109.428 511.677 114.07 507.923C114.379 507.579 114.774 507.315 115.217 507.156C115.66 506.996 116.138 506.945 116.606 507.008C116.945 507.143 117.236 507.369 117.443 507.66C117.65 507.95 117.765 508.292 117.774 508.644C117.774 509.353 117.609 510.052 117.291 510.692C115.768 513.937 113.503 516.812 110.663 519.102C107.824 521.392 104.484 523.038 100.891 523.92" fill="#263238"/>
<path d="M100.905 499.371L110.916 487.663C111.797 486.489 112.898 485.485 114.164 484.7C114.808 484.328 115.546 484.131 116.298 484.131C117.05 484.131 117.787 484.328 118.431 484.7C119.008 485.16 119.439 485.766 119.676 486.449C119.913 487.131 119.947 487.864 119.773 488.564C119.416 489.972 118.747 491.289 117.814 492.428C115.87 495.265 113.411 497.743 110.554 499.744C107.615 501.689 104.944 502.951 101.415 502.449" fill="#263238"/>
<path d="M99.5227 475.71C101.477 470.104 104.951 465.098 109.588 461.207C110.327 460.493 111.255 459.986 112.272 459.739C113.292 459.662 114.308 459.928 115.146 460.492C115.983 461.056 116.59 461.883 116.861 462.83C117.183 463.89 117.268 465.004 117.11 466.098C116.953 467.192 116.557 468.242 115.949 469.18C114.731 471.057 113.134 472.682 111.252 473.958C107.88 476.427 104.126 478.374 100.127 479.728" fill="#263238"/>
<path d="M95.5236 454.664C96.4898 447.876 100.167 442.222 104.434 436.735C105.334 435.576 106.595 434.352 108.071 434.571C108.542 434.666 108.98 434.872 109.346 435.171C109.711 435.471 109.993 435.853 110.165 436.284C110.496 437.153 110.629 438.08 110.554 439.002C110.371 443.115 108.929 447.085 106.409 450.415C103.888 453.746 100.401 456.29 96.3824 457.729" fill="#263238"/>
<path d="M92.7187 443.845C93.1812 440.369 93.3025 436.858 93.081 433.36C92.8538 429.84 91.5981 426.452 89.4576 423.585C88.5631 422.354 87.3261 421.39 85.8879 420.802C85.1569 420.522 84.3632 420.427 83.583 420.527C82.8027 420.626 82.0622 420.916 81.4325 421.369C80.8998 421.848 80.4859 422.436 80.2211 423.089C79.9564 423.742 79.8475 424.444 79.9026 425.143C80.0368 426.534 80.418 427.894 81.0299 429.162C83.7139 435.318 88.1425 442.132 92.7858 443.845" fill="#263238"/>
<path d="M136.307 451.933C136.275 452.22 136.275 452.51 136.307 452.796C136.307 453.428 136.307 454.239 136.307 455.256C136.307 456.274 136.307 457.639 136.24 459.12C136.173 460.602 136.24 462.366 136.052 464.272C135.877 468.136 135.488 472.619 134.884 477.642C134.281 482.665 133.261 488.152 132.039 493.884C130.818 499.615 129.355 504.96 127.785 509.803C126.215 514.646 124.685 518.922 123.249 522.49C122.578 524.28 121.907 525.878 121.277 527.281C120.646 528.685 120.149 529.857 119.693 530.875L118.7 533.142C118.569 533.403 118.461 533.675 118.378 533.953C118.55 533.714 118.699 533.46 118.821 533.193C119.102 532.627 119.465 531.905 119.935 530.978C120.404 530.051 120.995 528.827 121.612 527.423C122.229 526.019 122.954 524.448 123.692 522.658C125.182 519.103 126.779 514.801 128.362 509.971C129.946 505.141 131.409 499.731 132.684 494.012C133.958 488.294 134.79 482.781 135.368 477.745C135.945 472.709 136.28 468.162 136.387 464.324C136.495 462.418 136.468 460.679 136.481 459.172C136.495 457.665 136.481 456.338 136.481 455.308C136.481 454.278 136.481 453.479 136.387 452.848C136.399 452.541 136.372 452.234 136.307 451.933Z" fill="#263238"/>
<path d="M134.737 479.754C134.669 476.443 133.407 473.257 131.167 470.738C130.838 470.275 130.395 469.895 129.878 469.632C129.362 469.37 128.786 469.232 128.201 469.231C126.658 469.45 125.96 471.215 125.906 472.709C125.824 475.246 126.701 477.725 128.376 479.69C129.804 481.578 131.949 482.851 134.348 483.232" fill="#263238"/>
<path d="M131.342 497.838C131.529 493.974 130.228 487.946 127.866 484.79C127.512 484.279 127.056 483.841 126.524 483.502C126.254 483.334 125.945 483.231 125.625 483.204C125.304 483.177 124.981 483.226 124.685 483.348C124.306 483.596 123.999 483.934 123.795 484.328C123.591 484.723 123.495 485.161 123.518 485.602C123.292 488.408 123.884 491.22 125.228 493.722C126.571 496.224 128.614 498.318 131.127 499.77" fill="#263238"/>
<path d="M126.94 513.319C126.536 509.429 125.058 505.712 122.659 502.552C122.419 502.158 122.099 501.814 121.719 501.54C121.339 501.265 120.906 501.067 120.444 500.955C119.022 500.774 117.881 502.178 117.573 503.531C116.928 506.3 118.364 509.121 120.028 511.478C121.623 513.45 123.477 515.217 125.544 516.733" fill="#263238"/>
<path d="M122.967 524.216C122.338 521.156 121.014 518.267 119.089 515.754C118.671 515.219 118.135 514.779 117.519 514.466C117.206 514.309 116.855 514.237 116.502 514.258C116.15 514.278 115.81 514.39 115.519 514.582C114.634 515.252 114.835 516.578 115.211 517.609C116.42 521.128 118.772 524.184 121.921 526.328" fill="#263238"/>
<path d="M124.806 519.824C128.429 517.542 132.266 515.589 136.267 513.989C136.553 513.816 136.881 513.716 137.219 513.698C137.557 513.68 137.894 513.745 138.199 513.886C138.388 514.042 138.528 514.244 138.604 514.472C138.68 514.699 138.688 514.942 138.629 515.174C138.471 515.656 138.2 516.097 137.837 516.462C136.074 518.36 133.888 519.852 131.441 520.827C128.995 521.801 126.35 522.233 123.706 522.091" fill="#263238"/>
<path d="M129.168 505.437C132.317 503.479 135.448 501.513 138.562 499.538C139.43 498.937 140.409 498.5 141.447 498.25C141.963 498.078 142.522 498.068 143.044 498.219C143.567 498.371 144.026 498.677 144.356 499.094C144.687 499.511 144.871 500.018 144.884 500.542C144.896 501.066 144.736 501.58 144.426 502.011C143.862 502.889 143.113 503.644 142.225 504.226C140.259 505.788 138.012 506.993 135.596 507.781C134.518 508.221 133.358 508.448 132.187 508.448C131.016 508.448 129.856 508.221 128.778 507.781" fill="#263238"/>
<path d="M133.529 489.054C136.123 485.644 139.609 482.952 143.634 481.248C144.29 480.929 145.02 480.774 145.755 480.798C146.466 480.956 147.098 481.347 147.541 481.904C147.985 482.462 148.212 483.15 148.184 483.85C148.161 484.639 147.966 485.414 147.613 486.126C147.259 486.838 146.754 487.471 146.13 487.985C144.882 489.012 143.43 489.787 141.863 490.264C139.014 491.252 136.02 491.8 132.992 491.887" fill="#263238"/>
<path d="M135.542 473.868C137.716 469.45 141.487 466.359 145.62 463.5C146.006 463.141 146.483 462.886 147.003 462.76C147.523 462.633 148.069 462.64 148.586 462.778C148.886 462.939 149.139 463.17 149.322 463.449C149.505 463.728 149.612 464.047 149.633 464.376C149.665 465.036 149.546 465.696 149.284 466.308C148.236 469.07 146.364 471.475 143.901 473.223C141.438 474.971 138.494 475.983 135.435 476.135" fill="#263238"/>
<path d="M136.052 465.96C137.145 463.686 138.013 461.319 138.642 458.889C139.28 456.445 139.187 453.878 138.374 451.483C138.015 450.477 137.374 449.585 136.522 448.907C136.086 448.564 135.566 448.334 135.012 448.239C134.457 448.144 133.886 448.188 133.354 448.366C132.885 448.582 132.473 448.897 132.148 449.288C131.823 449.678 131.593 450.133 131.476 450.62C131.243 451.591 131.197 452.595 131.341 453.582C131.771 458.322 133.274 463.886 136.052 466.024" fill="#263238"/>
<path d="M65.2346 451.341C65.2145 451.628 65.2145 451.917 65.2346 452.204C65.2346 452.835 65.1675 453.646 65.1407 454.664C65.1138 455.681 65.0602 457.047 65.1407 458.528C65.2212 460.009 65.1407 461.787 65.2346 463.68C65.3554 467.544 65.6909 472.065 66.2545 477.101C66.8182 482.137 67.7576 487.65 68.9385 493.368C70.1195 499.087 71.7031 504.484 73.2464 509.327C74.7897 514.17 76.4269 518.459 77.9299 522.013C78.6412 523.804 79.3793 525.375 80.01 526.779C80.6408 528.183 81.191 529.355 81.6875 530.334L82.8014 532.549C82.9164 532.816 83.0603 533.071 83.2308 533.309C83.1492 533.032 83.046 532.76 82.9222 532.498L81.862 530.282C81.4057 529.304 80.8689 528.106 80.2919 526.689C79.7148 525.272 78.9498 523.688 78.3057 521.898C76.8697 518.33 75.3265 514.028 73.7697 509.211C72.213 504.394 70.7771 498.997 69.5156 493.304C68.2541 487.611 67.3952 482.111 66.7376 477.101C66.0801 472.091 65.758 467.544 65.5835 463.68C65.4493 461.774 65.4359 460.048 65.3822 458.528C65.3286 457.008 65.3822 455.694 65.3822 454.664C65.3822 453.634 65.3822 452.835 65.3822 452.204C65.3712 451.911 65.3216 451.621 65.2346 451.341Z" fill="#455A64"/>
<path d="M66.8047 479.136C66.8721 475.823 68.1389 472.635 70.3878 470.12C70.7135 469.656 71.1531 469.275 71.668 469.013C72.1828 468.75 72.7571 468.613 73.3402 468.613C74.8835 468.832 75.5814 470.597 75.635 472.091C75.7386 474.648 74.8653 477.153 73.1792 479.136C71.7469 481.026 69.5966 482.299 67.1939 482.678" fill="#455A64"/>
<path d="M70.2 497.245C70.0121 493.381 71.3139 487.353 73.6758 484.198C74.03 483.688 74.4861 483.25 75.0178 482.91C75.2849 482.741 75.5915 482.639 75.91 482.612C76.2286 482.585 76.5491 482.634 76.8429 482.755C77.2222 483.004 77.5286 483.341 77.7331 483.736C77.9375 484.131 78.033 484.569 78.0105 485.009C78.2395 487.816 77.6488 490.629 76.3047 493.132C74.9606 495.634 72.9163 497.728 70.4013 499.177" fill="#455A64"/>
<path d="M74.6018 512.727C75.0167 508.837 76.4985 505.121 78.8962 501.959C79.1343 501.566 79.4515 501.223 79.8294 500.948C80.2072 500.674 80.6382 500.475 81.0971 500.362C82.533 500.182 83.6603 501.586 83.9824 502.938C84.6265 505.707 83.1906 508.541 81.5131 510.885C79.9222 512.861 78.0678 514.628 75.9975 516.14" fill="#455A64"/>
<path d="M78.5875 523.611C79.2124 520.565 80.5374 517.692 82.4659 515.2C82.8794 514.666 83.411 514.226 84.0226 513.912C84.3356 513.756 84.6869 513.684 85.0391 513.704C85.3914 513.725 85.7312 513.836 86.0222 514.028C86.9079 514.698 86.72 516.037 86.3443 517.055C85.1287 520.571 82.7786 523.625 79.6343 525.775" fill="#455A64"/>
<path d="M76.816 519.231C73.1878 516.95 69.3466 514.996 65.3419 513.397C65.0552 513.224 64.7275 513.124 64.3895 513.106C64.0515 513.088 63.7143 513.153 63.4094 513.294C63.2106 513.456 63.0653 513.67 62.9914 513.911C62.9176 514.151 62.9182 514.406 62.9934 514.646C63.1458 515.127 63.4122 515.568 63.7718 515.934C65.5349 517.832 67.7211 519.323 70.1677 520.297C72.6142 521.272 75.2582 521.704 77.903 521.563" fill="#455A64"/>
<path d="M72.374 504.896L62.98 498.997C62.1151 498.399 61.1409 497.962 60.1081 497.709C59.5882 497.579 59.0411 497.59 58.5271 497.74C58.0132 497.89 57.5525 498.173 57.196 498.559C56.8998 498.989 56.7363 499.49 56.7245 500.005C56.7126 500.52 56.8528 501.028 57.1289 501.47C57.6848 502.316 58.4156 503.044 59.2761 503.608C61.244 505.168 63.4901 506.372 65.9055 507.163C66.9858 507.603 68.1473 507.83 69.3209 507.83C70.4945 507.83 71.6561 507.603 72.7363 507.163" fill="#455A64"/>
<path d="M68.0126 488.461C65.4243 485.046 61.9369 482.352 57.9073 480.656C57.256 480.337 56.5311 480.182 55.8004 480.205C55.0875 480.363 54.4541 480.754 54.0085 481.311C53.5629 481.868 53.3329 482.556 53.3579 483.258C53.3808 484.046 53.5752 484.821 53.9289 485.533C54.2825 486.245 54.7874 486.879 55.4112 487.392C56.6599 488.419 58.1112 489.194 59.6787 489.672C62.5275 490.66 65.5216 491.208 68.5494 491.295" fill="#455A64"/>
<path d="M66.0129 473.276C63.8255 468.858 60.0545 465.767 55.9211 462.907C55.5362 462.548 55.0595 462.292 54.5389 462.165C54.0183 462.039 53.4721 462.046 52.9553 462.186C52.6589 462.349 52.4093 462.581 52.2289 462.86C52.0486 463.138 51.9431 463.456 51.9219 463.783C51.8853 464.443 51.9999 465.102 52.2574 465.715C53.3066 468.477 55.1792 470.881 57.6418 472.628C60.1045 474.376 63.0484 475.389 66.1069 475.543" fill="#455A64"/>
<path d="M65.503 465.367C64.4051 463.094 63.5334 460.727 62.8995 458.296C62.2659 455.851 62.3635 453.284 63.1813 450.89C63.5136 449.847 64.1575 448.92 65.0333 448.224C65.466 447.881 65.9836 447.651 66.5361 447.556C67.0886 447.462 67.6572 447.505 68.187 447.683C68.6579 447.899 69.0724 448.214 69.3999 448.604C69.7274 448.994 69.9595 449.449 70.0792 449.937C70.2985 450.91 70.3439 451.912 70.2134 452.9C69.7705 457.652 68.2809 463.204 65.503 465.342" fill="#455A64"/>
<path d="M148.318 533.361V544.824C148.318 545.414 148.197 545.999 147.961 546.544C147.726 547.09 147.381 547.585 146.946 548.003C146.511 548.42 145.995 548.751 145.427 548.977C144.858 549.203 144.249 549.319 143.634 549.319H62.2419C61.6269 549.319 61.0178 549.203 60.4496 548.977C59.8814 548.751 59.365 548.42 58.9301 548.003C58.4952 547.585 58.1502 547.09 57.9149 546.544C57.6795 545.999 57.5583 545.414 57.5583 544.824V533.361H148.318Z" fill="#62B8AF"/>
<g opacity="0.4">
<path d="M141.259 549.268L140.588 552.9L65.4896 558.039L63.584 549.268H141.259Z" fill="black"/>
</g>
<path d="M632.189 606.21C632.189 606.39 499.331 606.545 335.513 606.545C171.696 606.545 38.8107 606.39 38.8107 606.21C38.8107 606.03 171.669 605.875 335.513 605.875C499.358 605.875 632.189 606.017 632.189 606.21Z" fill="#263238"/>
</svg>
