<svg width="339" height="339" viewBox="0 0 339 339" fill="none" xmlns="http://www.w3.org/2000/svg">
<path d="M339 169.5C339 263.112 263.112 339 169.5 339C75.8877 339 0 263.112 0 169.5C0 75.8877 75.8877 0 169.5 0C263.112 0 339 75.8877 339 169.5Z" fill="#FFE9A1"/>
<path d="M98 86H242V271C242 273.761 239.761 276 237 276H98V86Z" fill="#C5E9FD"/>
<rect x="98" y="66" width="144" height="20" fill="#FC8193"/>
<path d="M98 86H114V276H103C100.239 276 98 273.761 98 271V86Z" fill="#7F7F89"/>
<path d="M98 86H114V276H103C100.239 276 98 273.761 98 271V86Z" fill="#A1C1D3"/>
<rect x="98" y="66" width="16" height="20" fill="#7F7F89"/>
<rect x="98" y="66" width="16" height="20" fill="#CC6981"/>
<rect x="109" y="117" width="121" height="8" rx="4" fill="#849ABB"/>
<rect x="109" y="161" width="121" height="8" rx="4" fill="#849ABB"/>
<rect x="150" y="139" width="40" height="8" rx="4" fill="#849ABB"/>
<rect x="136" y="139" width="68" height="8" rx="4" fill="#849ABB"/>
<rect x="136" y="183" width="68" height="8" rx="4" fill="#849ABB"/>
<path d="M214.202 110.588C216.831 105.731 222.9 103.926 227.757 106.555C232.614 109.184 234.419 115.253 231.79 120.11L179.418 216.843L161.83 207.321L214.202 110.588Z" fill="#FFE162"/>
<path d="M214.202 110.588C216.831 105.731 222.9 103.926 227.757 106.555L170.624 212.082L161.83 207.321L214.202 110.588Z" fill="#EBC628"/>
<path d="M159.673 232.619L162.008 208.297L178.763 217.368L159.673 232.619Z" fill="#B78876"/>
<rect x="227.247" y="122.199" width="5" height="30" rx="2" transform="rotate(28.4312 227.247 122.199)" fill="#7C90A0"/>
<path d="M221.343 97.3969C222.658 94.9686 225.692 94.0658 228.121 95.3805L236.914 100.142C239.343 101.456 240.246 104.491 238.931 106.919L231.789 120.11L214.202 110.588L221.343 97.3969Z" fill="#FC8193"/>
</svg>
