<svg width="371" height="91" viewBox="0 0 371 91" fill="none" xmlns="http://www.w3.org/2000/svg">
<mask id="mask0_1168_636" style="mask-type:luminance" maskUnits="userSpaceOnUse" x="8" y="27" width="60" height="38">
<path d="M8.71387 48.9546L57.5773 27.9218L67.9022 42.9827L19.0388 64.0155L8.71387 48.9546Z" fill="white"/>
</mask>
<g mask="url(#mask0_1168_636)">
<path d="M62.7628 35.4717L59.3184 30.4472L53.029 33.1545C47.5128 33.557 40.3854 35.3855 33.1852 38.4849C25.9855 41.5841 20.1701 45.3269 16.7418 48.7746L10.4893 51.466L13.657 56.0868C13.7267 56.2316 13.8053 56.372 13.899 56.5087C16.7405 60.6537 29.983 59.306 43.4768 53.4975C56.971 47.6888 65.6061 39.6192 62.7645 35.4742L62.7628 35.4717Z" fill="#62B8AF"/>
</g>
<mask id="mask1_1168_636" style="mask-type:luminance" maskUnits="userSpaceOnUse" x="5" y="23" width="60" height="37">
<path d="M5.39941 44.0537L54.2602 23.0213L64.5544 38.0377L15.6936 59.0701L5.39941 44.0537Z" fill="white"/>
</mask>
<g mask="url(#mask1_1168_636)">
<path d="M59.4185 30.5267C62.2601 34.6718 53.6253 42.7418 40.1311 48.5505C26.6373 54.359 13.3945 55.7063 10.553 51.5612C7.71074 47.4152 16.3458 39.3464 29.8395 33.5379C43.3338 27.7292 56.5763 26.3806 59.4185 30.5267Z" fill="#62B8AF"/>
</g>
<path d="M31.6621 36.1437C40.7274 32.1576 49.8029 31.2014 53.0928 33.7001C53.0147 33.3597 52.8788 33.0369 52.6763 32.7375C50.3361 29.2779 40.3935 30.0128 30.4673 34.3775C20.5415 38.7419 14.3912 45.0832 16.7314 48.5428C16.934 48.8422 17.1974 49.109 17.5106 49.346C16.685 45.7637 22.5969 40.1298 31.6621 36.1437Z" fill="black"/>
<path d="M37.4866 44.754C22.7509 52.0018 15.2852 49.6116 15.2852 49.6116C15.2852 49.6116 22.7766 52.3796 38.09 45.6461C56.0512 37.7483 54.5737 32.336 54.5737 32.336C54.6591 35.0712 52.2228 37.5061 37.4866 44.754Z" fill="#62B8AF"/>
<path d="M32.2811 38.3938C32.6404 38.925 31.2483 40.0967 29.171 41.0101C27.0926 41.924 25.1171 42.2331 24.7578 41.7019C24.3989 41.1714 25.7912 40.0001 27.8696 39.0862C29.947 38.1728 31.9222 37.8633 32.2811 38.3938Z" fill="black"/>
<path d="M34.1409 42.7467C34.6549 43.5064 33.013 45.0263 30.4734 46.143C27.9338 47.2597 25.4597 47.5496 24.9458 46.7899C24.4328 46.0315 26.0747 44.5113 28.6143 43.3946C31.1539 42.2779 33.628 41.9883 34.1409 42.7467Z" fill="black"/>
<path d="M41.7541 34.2286C42.1134 34.7598 40.6584 35.9591 38.5038 36.9065C36.3499 37.8536 34.3114 38.1904 33.9521 37.6592C33.5932 37.1286 35.0485 35.9297 37.2024 34.9826C39.357 34.0352 41.3952 33.698 41.7541 34.2286Z" fill="black"/>
<path d="M45.8431 37.6011C46.357 38.3609 44.7153 39.8808 42.1758 40.9974C39.6363 42.1141 37.1618 42.4041 36.6479 41.6444C36.1349 40.886 37.7772 39.3656 40.3167 38.249C42.8562 37.1323 45.3301 36.8428 45.8431 37.6011Z" fill="black"/>
<mask id="mask2_1168_636" style="mask-type:luminance" maskUnits="userSpaceOnUse" x="284" y="41" width="51" height="50">
<path d="M292.531 41.2617L334.457 74.0065L326.211 90.2985L284.285 57.5538L292.531 41.2617Z" fill="white"/>
</mask>
<g mask="url(#mask2_1168_636)">
<path d="M330.328 82.1824L333.08 76.7473L327.683 72.5326C324.679 67.8885 319.651 62.5167 313.473 57.6917C307.295 52.867 301.218 49.5656 296.547 48.2159L291.182 44.0259L288.652 49.0243C288.559 49.1551 288.473 49.2915 288.398 49.4393C286.129 53.9231 293.674 64.8888 305.253 73.9312C316.831 82.974 328.057 86.6689 330.327 82.1851L330.328 82.1824Z" fill="#62B8AF"/>
</g>
<mask id="mask3_1168_636" style="mask-type:luminance" maskUnits="userSpaceOnUse" x="287" y="36" width="51" height="49">
<path d="M295.234 36L337.159 68.7427L328.937 84.9864L287.012 52.2437L295.234 36Z" fill="white"/>
</mask>
<g mask="url(#mask3_1168_636)">
<path d="M333.055 76.8729C330.785 81.3567 319.559 77.6622 307.98 68.6195C296.402 59.577 288.857 48.6109 291.126 44.1271C293.396 39.6422 304.622 43.3375 316.2 52.3799C327.779 61.4227 335.325 72.388 333.055 76.8729Z" fill="#62B8AF"/>
</g>
<path d="M314.792 55.2308C322.644 61.2653 327.844 68.7648 327.233 72.8506C327.494 72.6186 327.712 72.3443 327.877 72.0228C329.787 68.308 324.365 59.9418 315.767 53.3342C307.17 46.7269 298.653 44.3805 296.744 48.0952C296.578 48.4168 296.471 48.7759 296.414 49.1645C299.158 46.7191 306.94 49.1963 314.792 55.2308Z" fill="black"/>
<path d="M310.04 64.4762C296.603 55.0362 295.111 47.3403 295.111 47.3403C295.111 47.3403 296.284 55.2402 309.548 65.434C325.105 77.3902 329.141 73.4937 329.141 73.4937C326.784 74.883 323.478 73.9165 310.04 64.4762Z" fill="#62B8AF"/>
<path d="M313.116 56.8542C312.822 57.4245 311.126 56.7667 309.327 55.3839C307.526 54.0004 306.306 52.4164 306.599 51.8461C306.892 51.2764 308.588 51.9346 310.389 53.3181C312.188 54.7009 313.408 56.2845 313.116 56.8542Z" fill="black"/>
<path d="M309.723 60.5959C309.304 61.4117 307.182 60.7022 304.982 59.0117C302.782 57.3211 301.339 55.2907 301.758 54.4749C302.177 53.6607 304.299 54.37 306.499 56.0606C308.699 57.7511 310.141 59.7817 309.723 60.5959Z" fill="black"/>
<path d="M321.321 63.1607C321.028 63.7311 319.277 63.0314 317.41 61.5972C315.545 60.1634 314.27 58.5375 314.563 57.9672C314.856 57.3975 316.607 58.0976 318.472 59.5314C320.339 60.9656 321.614 62.5911 321.321 63.1607Z" fill="black"/>
<path d="M320.329 68.3672C319.91 69.1829 317.788 68.4736 315.589 66.7831C313.389 65.0926 311.946 63.062 312.365 62.2462C312.783 61.4319 314.906 62.1415 317.106 63.832C319.305 65.5224 320.748 67.5529 320.329 68.3672Z" fill="black"/>
<mask id="mask4_1168_636" style="mask-type:luminance" maskUnits="userSpaceOnUse" x="314" y="26" width="48" height="20">
<path d="M315.702 28.3955L361.552 26.454L359.861 43.6046L314.012 45.5461L315.702 28.3955Z" fill="white"/>
</mask>
<g mask="url(#mask4_1168_636)">
<path d="M360.712 35.0529L361.276 29.331L355.374 29.5809C351.349 28.0246 345.383 27.1918 338.627 27.4779C331.871 27.764 325.691 29.1111 321.323 31.0228L315.456 31.2712L314.937 36.5334C314.901 36.6881 314.873 36.8418 314.858 36.9974C314.392 41.7179 324.279 45.1106 336.942 44.5744C349.604 44.0382 360.247 39.7762 360.712 35.0558L360.712 35.0529Z" fill="#FF6464"/>
</g>
<mask id="mask5_1168_636" style="mask-type:luminance" maskUnits="userSpaceOnUse" x="314" y="21" width="49" height="20">
<path d="M316.205 23.2305L362.055 21.289L360.369 38.3897L314.519 40.3312L316.205 23.2305Z" fill="white"/>
</mask>
<g mask="url(#mask5_1168_636)">
<path d="M361.222 29.8407C360.756 34.5611 350.114 38.8236 337.452 39.3598C324.789 39.896 314.902 36.5028 315.367 31.7824C315.833 27.0608 326.474 22.7995 339.137 22.2633C351.799 21.7271 361.687 25.1191 361.222 29.8407Z" fill="#FF6464"/>
</g>
<path d="M338.787 25.6544C347.543 25.2836 354.539 27.4286 355.416 30.5656C355.559 30.258 355.651 29.9464 355.682 29.6325C356.039 26.0062 348.556 23.397 338.969 23.803C329.383 24.209 321.322 27.4763 320.965 31.1027C320.934 31.4165 320.966 31.7229 321.05 32.0209C322.553 28.7832 330.032 26.0252 338.787 25.6544Z" fill="black"/>
<path d="M337.905 34.7099C323.229 35.9452 319.326 31.5503 319.326 31.5503C319.326 31.5503 323.027 36.2663 337.814 35.6439C355.157 34.9138 357.263 29.9534 357.263 29.9534C355.729 32.2463 352.582 33.4746 337.905 34.7099Z" fill="#FF6464"/>
<path d="M337.918 27.7161C337.863 28.2731 336.192 28.7946 334.186 28.8798C332.178 28.9651 330.596 28.5818 330.651 28.0247C330.705 27.4683 332.377 26.9473 334.384 26.862C336.391 26.7768 337.973 27.1596 337.918 27.7161Z" fill="black"/>
<path d="M336.704 31.9492C336.626 32.7464 334.574 33.4762 332.121 33.5806C329.667 33.685 327.742 33.1243 327.821 32.3271C327.899 31.5315 329.951 30.8014 332.405 30.697C334.858 30.5926 336.783 31.1536 336.704 31.9492Z" fill="black"/>
<path d="M347.061 27.338C347.006 27.895 345.274 28.419 343.193 28.5073C341.113 28.5956 339.47 28.215 339.525 27.6579C339.58 27.1015 341.311 26.578 343.392 26.4897C345.473 26.4013 347.116 26.7816 347.061 27.338Z" fill="black"/>
<path d="M348 31.4822C347.922 32.2793 345.87 33.0092 343.417 33.1135C340.963 33.2179 339.038 32.6572 339.117 31.8601C339.195 31.0645 341.247 30.3343 343.701 30.23C346.154 30.1256 348.079 30.6866 348 31.4822Z" fill="black"/>
<mask id="mask6_1168_636" style="mask-type:luminance" maskUnits="userSpaceOnUse" x="48" y="35" width="61" height="38">
<path d="M58.1162 35.2275L108.028 55.2088L97.9718 72.7164L48.0602 52.7351L58.1162 35.2275Z" fill="white"/>
</mask>
<g mask="url(#mask6_1168_636)">
<path d="M102.996 63.9913L106.351 58.1502L99.9264 55.5782C96.3745 51.9791 90.403 48.2201 83.0479 45.2755C75.6933 42.3312 68.4434 40.7973 62.8584 40.7385L56.4713 38.1816L53.3858 43.5533C53.2724 43.7009 53.1687 43.8517 53.0774 44.0106C50.3097 48.8292 59.2395 57.2096 73.0236 62.7278C86.8082 68.2463 100.227 68.8128 102.995 63.9942L102.996 63.9913Z" fill="#FF6464"/>
</g>
<mask id="mask7_1168_636" style="mask-type:luminance" maskUnits="userSpaceOnUse" x="51" y="29" width="61" height="39">
<path d="M61.1377 29.9521L111.05 49.9337L101.023 67.3903L51.1109 47.4088L61.1377 29.9521Z" fill="white"/>
</mask>
<g mask="url(#mask7_1168_636)">
<path d="M106.046 58.6683C103.278 63.4869 89.859 62.9209 76.0744 57.4024C62.2903 51.8841 53.3607 43.5033 56.1285 38.6847C58.8969 33.8648 72.3146 34.4318 86.0987 39.9501C99.8833 45.4686 108.814 53.8484 106.046 58.6683Z" fill="#FF6464"/>
</g>
<path d="M84.0949 43.4044C93.6262 47.2201 100.068 52.8769 99.4959 56.6498C99.7967 56.3901 100.045 56.1013 100.229 55.7809C102.354 52.0788 95.6166 45.6924 85.1801 41.5144C74.7442 37.3365 64.5619 36.9493 62.4363 40.6514C62.2523 40.9718 62.1384 41.3142 62.0847 41.6729C65.2477 38.9372 74.5638 39.5888 84.0949 43.4044Z" fill="black"/>
<path d="M78.7977 52.6534C62.5258 46.913 60.4707 40.3408 60.4707 40.3408C60.4707 40.3408 62.1557 47.159 78.2504 53.6069C97.1279 61.1697 101.764 56.8837 101.764 56.8837C99.0227 58.5956 95.0701 58.3939 78.7977 52.6534Z" fill="#FF6464"/>
<path d="M82.1751 45.1883C81.8485 45.757 79.8126 45.5101 77.6281 44.6359C75.4423 43.7612 73.9368 42.5908 74.2634 42.0221C74.5896 41.454 76.6252 41.7013 78.8109 42.576C80.9955 43.4502 82.5013 44.6202 82.1751 45.1883Z" fill="black"/>
<path d="M78.8431 49.1272C78.3757 49.9409 75.833 49.7336 73.1619 48.6649C70.4907 47.5962 68.7044 46.0713 69.1717 45.2576C69.6381 44.4454 72.1813 44.6525 74.8524 45.7212C77.5235 46.7899 79.3095 48.3149 78.8431 49.1272Z" fill="black"/>
<path d="M92.1242 49.1832C91.7976 49.7519 89.6956 49.4785 87.4299 48.5717C85.1648 47.6652 83.5931 46.4683 83.9197 45.8997C84.2458 45.3317 86.3476 45.6055 88.6126 46.512C90.8784 47.4188 92.4504 48.6152 92.1242 49.1832Z" fill="black"/>
<path d="M91.1341 54.0617C90.6667 54.8755 88.1241 54.6682 85.4531 53.5996C82.7821 52.5309 80.9954 51.0059 81.4627 50.1921C81.9292 49.3799 84.4726 49.5872 87.1437 50.6559C89.8147 51.7246 91.6005 53.2495 91.1341 54.0617Z" fill="black"/>
</svg>
