<svg width="23" height="23" viewBox="0 0 23 23" fill="none" xmlns="http://www.w3.org/2000/svg">
<path d="M11.5 0.689453C9.33059 0.689453 7.2099 1.33276 5.40609 2.53802C3.60229 3.74328 2.1964 5.45637 1.3662 7.46064C0.536003 9.46492 0.318785 11.6704 0.742016 13.7981C1.16525 15.9258 2.20992 17.8803 3.74393 19.4143C5.27794 20.9483 7.23238 21.993 9.36011 22.4162C11.4878 22.8394 13.6933 22.6222 15.6976 21.792C17.7018 20.9618 19.4149 19.5559 20.6202 17.7521C21.8255 15.9483 22.4688 13.8276 22.4688 11.6582C22.4657 8.75005 21.3091 5.96189 19.2527 3.90552C17.1963 1.84914 14.4082 0.692524 11.5 0.689453ZM11.5 20.9395C9.66435 20.9395 7.86991 20.3951 6.34362 19.3753C4.81733 18.3554 3.62772 16.9059 2.92525 15.21C2.22277 13.5141 2.03897 11.6479 2.39709 9.84752C2.75521 8.04714 3.63916 6.39337 4.93717 5.09537C6.23518 3.79736 7.88894 2.91341 9.68932 2.55529C11.4897 2.19717 13.3559 2.38097 15.0518 3.08345C16.7477 3.78592 18.1972 4.97552 19.2171 6.50182C20.2369 8.02811 20.7813 9.82255 20.7813 11.6582C20.7785 14.1189 19.7997 16.478 18.0598 18.218C16.3198 19.9579 13.9607 20.9367 11.5 20.9395ZM11.5 4.9082C10.165 4.9082 8.85994 5.30408 7.74991 6.04578C6.63987 6.78748 5.77471 7.84169 5.26382 9.07509C4.75293 10.3085 4.61925 11.6657 4.8797 12.9751C5.14015 14.2844 5.78303 15.4872 6.72703 16.4312C7.67104 17.3752 8.87377 18.0181 10.1831 18.2785C11.4925 18.539 12.8497 18.4053 14.0831 17.8944C15.3165 17.3835 16.3707 16.5183 17.1124 15.4083C17.8541 14.2983 18.25 12.9932 18.25 11.6582C18.2481 9.86859 17.5363 8.15284 16.2708 6.88739C15.0054 5.62194 13.2896 4.91016 11.5 4.9082ZM11.5 16.7207C10.4987 16.7207 9.51995 16.4238 8.68743 15.8675C7.85491 15.3112 7.20603 14.5206 6.82287 13.5955C6.4397 12.6705 6.33944 11.6526 6.53478 10.6706C6.73012 9.68853 7.21227 8.78648 7.92028 8.07848C8.62828 7.37047 9.53033 6.88832 10.5124 6.69298C11.4944 6.49764 12.5123 6.5979 13.4373 6.98106C14.3624 7.36423 15.153 8.01311 15.7093 8.84563C16.2656 9.67815 16.5625 10.6569 16.5625 11.6582C16.5611 13.0004 16.0273 14.2873 15.0782 15.2364C14.1291 16.1855 12.8422 16.7193 11.5 16.7207Z" fill="white"/>
<circle cx="13.7642" cy="11.2363" r="1.26562" fill="white"/>
<circle cx="13.7642" cy="11.2363" r="1.26562" fill="white"/>
<circle cx="13.7642" cy="11.2363" r="1.26562" fill="white"/>
<circle cx="13.7642" cy="11.2363" r="1.26562" fill="white"/>
<circle cx="9.54541" cy="11.2363" r="1.26562" fill="white"/>
<circle cx="9.54541" cy="11.2363" r="1.26562" fill="white"/>
<circle cx="9.54541" cy="11.2363" r="1.26562" fill="white"/>
<circle cx="9.54541" cy="11.2363" r="1.26562" fill="white"/>
</svg>
