<svg width="366" height="170" viewBox="0 0 366 170" fill="none" xmlns="http://www.w3.org/2000/svg">
<mask id="mask0_1168_635" style="mask-type:luminance" maskUnits="userSpaceOnUse" x="180" y="52" width="51" height="50">
<path d="M188.46 52.5935L230.386 85.3383L222.14 101.63L180.213 68.8856L188.46 52.5935Z" fill="white"/>
</mask>
<g mask="url(#mask0_1168_635)">
<path d="M226.257 93.5142L229.008 88.0791L223.612 83.8644C220.608 79.2203 215.579 73.8485 209.401 69.0235C203.224 64.1988 197.147 60.8974 192.476 59.5477L187.111 55.3577L184.581 60.3561C184.487 60.4869 184.402 60.6233 184.327 60.7711C182.058 65.2549 189.603 76.2206 201.181 85.263C212.76 94.3058 223.986 98.0007 226.256 93.5169L226.257 93.5142Z" fill="#62B8AF"/>
</g>
<mask id="mask1_1168_635" style="mask-type:luminance" maskUnits="userSpaceOnUse" x="182" y="47" width="52" height="50">
<path d="M191.163 47.3318L233.088 80.0745L224.865 96.3182L182.941 63.5755L191.163 47.3318Z" fill="white"/>
</mask>
<g mask="url(#mask1_1168_635)">
<path d="M228.984 88.2047C226.714 92.6885 215.487 88.994 203.909 79.9513C192.331 70.9088 184.785 59.9427 187.055 55.4589C189.325 50.974 200.551 54.6693 212.129 63.7117C223.707 72.7545 231.254 83.7198 228.984 88.2047Z" fill="#62B8AF"/>
</g>
<path d="M210.721 66.5626C218.573 72.5971 223.772 80.0966 223.162 84.1824C223.423 83.9504 223.641 83.6761 223.806 83.3546C225.716 79.6398 220.293 71.2736 211.696 64.666C203.098 58.0587 194.582 55.7123 192.672 59.427C192.507 59.7485 192.4 60.1077 192.342 60.4963C195.087 58.0508 202.869 60.5281 210.721 66.5626Z" fill="black"/>
<path d="M205.969 75.808C192.531 66.368 191.04 58.6721 191.04 58.6721C191.04 58.6721 192.213 66.572 205.476 76.7658C221.033 88.722 225.07 84.8254 225.07 84.8254C222.712 86.2148 219.406 85.2482 205.969 75.808Z" fill="#62B8AF"/>
<path d="M209.044 68.186C208.751 68.7563 207.055 68.0985 205.255 66.7157C203.455 65.3322 202.235 63.7482 202.528 63.1779C202.821 62.6082 204.517 63.2664 206.317 64.6499C208.117 66.0327 209.337 67.6163 209.044 68.186Z" fill="black"/>
<path d="M205.652 71.9277C205.232 72.7435 203.11 72.034 200.911 70.3435C198.711 68.6529 197.268 66.6225 197.687 65.8067C198.106 64.9924 200.228 65.7018 202.428 67.3924C204.627 69.0829 206.07 71.1134 205.652 71.9277Z" fill="black"/>
<path d="M217.25 74.4925C216.956 75.0629 215.205 74.3632 213.339 72.9289C211.474 71.4951 210.199 69.8693 210.492 69.299C210.785 68.7293 212.535 69.4294 214.401 70.8632C216.267 72.2974 217.542 73.9228 217.25 74.4925Z" fill="black"/>
<path d="M216.258 79.6989C215.839 80.5147 213.717 79.8053 211.517 78.1149C209.318 76.4244 207.874 74.3937 208.294 73.5779C208.712 72.7637 210.835 73.4733 213.034 75.1637C215.234 76.8542 216.677 78.8847 216.258 79.6989Z" fill="black"/>
<mask id="mask2_1168_635" style="mask-type:luminance" maskUnits="userSpaceOnUse" x="8" y="20" width="60" height="37">
<path d="M8.71387 41.9163L57.5773 20.8834L67.9022 35.9444L19.0388 56.9772L8.71387 41.9163Z" fill="white"/>
</mask>
<g mask="url(#mask2_1168_635)">
<path d="M62.7628 28.4333L59.3184 23.4089L53.029 26.1162C47.5128 26.5187 40.3854 28.3472 33.1852 31.4466C25.9855 34.5457 20.1701 38.2885 16.7418 41.7362L10.4893 44.4277L13.657 49.0485C13.7267 49.1933 13.8053 49.3337 13.899 49.4703C16.7405 53.6154 29.983 52.2677 43.4768 46.4592C56.971 40.6505 65.6061 32.5809 62.7645 28.4358L62.7628 28.4333Z" fill="#62B8AF"/>
</g>
<mask id="mask3_1168_635" style="mask-type:luminance" maskUnits="userSpaceOnUse" x="5" y="15" width="60" height="38">
<path d="M5.39941 37.0154L54.2602 15.983L64.5544 30.9994L15.6936 52.0318L5.39941 37.0154Z" fill="white"/>
</mask>
<g mask="url(#mask3_1168_635)">
<path d="M59.4185 23.4884C62.2601 27.6334 53.6253 35.7035 40.1311 41.5122C26.6373 47.3206 13.3945 48.668 10.553 44.5229C7.71074 40.3768 16.3458 32.308 29.8395 26.4995C43.3338 20.6909 56.5763 19.3423 59.4185 23.4884Z" fill="#62B8AF"/>
</g>
<path d="M31.6621 29.1054C40.7274 25.1193 49.8029 24.1631 53.0928 26.6618C53.0147 26.3213 52.8788 25.9986 52.6763 25.6991C50.3361 22.2395 40.3935 22.9745 30.4673 27.3391C20.5415 31.7036 14.3912 38.0449 16.7314 41.5045C16.934 41.8039 17.1974 42.0706 17.5106 42.3077C16.685 38.7254 22.5969 33.0915 31.6621 29.1054Z" fill="black"/>
<path d="M37.4866 37.7157C22.7509 44.9635 15.2852 42.5732 15.2852 42.5732C15.2852 42.5732 22.7766 45.3412 38.09 38.6077C56.0512 30.71 54.5737 25.2976 54.5737 25.2976C54.6591 28.0329 52.2228 30.4677 37.4866 37.7157Z" fill="#62B8AF"/>
<path d="M32.2811 31.3555C32.6404 31.8867 31.2483 33.0583 29.171 33.9718C27.0926 34.8857 25.1171 35.1948 24.7578 34.6636C24.3989 34.133 25.7912 32.9618 27.8696 32.0479C29.947 31.1344 31.9222 30.825 32.2811 31.3555Z" fill="black"/>
<path d="M34.1409 35.7083C34.6549 36.4681 33.013 37.988 30.4734 39.1047C27.9338 40.2214 25.4597 40.5113 24.9458 39.7516C24.4328 38.9932 26.0747 37.473 28.6143 36.3563C31.1539 35.2396 33.628 34.95 34.1409 35.7083Z" fill="black"/>
<path d="M41.7541 27.1903C42.1134 27.7214 40.6584 28.9208 38.5038 29.8682C36.3499 30.8153 34.3114 31.152 33.9521 30.6209C33.5932 30.0903 35.0485 28.8914 37.2024 27.9443C39.357 26.9969 41.3952 26.6597 41.7541 27.1903Z" fill="black"/>
<path d="M45.8431 30.5628C46.357 31.3226 44.7153 32.8424 42.1758 33.9591C39.6363 35.0757 37.1618 35.3658 36.6479 34.606C36.1349 33.8477 37.7772 32.3273 40.3167 31.2107C42.8562 30.094 45.3301 29.8045 45.8431 30.5628Z" fill="black"/>
<mask id="mask4_1168_635" style="mask-type:luminance" maskUnits="userSpaceOnUse" x="309" y="115" width="48" height="20">
<path d="M310.702 117.396L356.552 115.454L354.861 132.605L309.012 134.547L310.702 117.396Z" fill="white"/>
</mask>
<g mask="url(#mask4_1168_635)">
<path d="M355.712 124.053L356.276 118.332L350.374 118.581C346.349 117.025 340.383 116.192 333.627 116.478C326.871 116.764 320.691 118.112 316.323 120.023L310.456 120.272L309.937 125.534C309.901 125.689 309.873 125.842 309.858 125.998C309.392 130.718 319.279 134.111 331.942 133.575C344.604 133.039 355.247 128.777 355.712 124.056L355.712 124.053Z" fill="#FF6464"/>
</g>
<mask id="mask5_1168_635" style="mask-type:luminance" maskUnits="userSpaceOnUse" x="309" y="110" width="49" height="20">
<path d="M311.205 112.231L357.055 110.289L355.369 127.39L309.519 129.332L311.205 112.231Z" fill="white"/>
</mask>
<g mask="url(#mask5_1168_635)">
<path d="M356.222 118.841C355.756 123.562 345.114 127.824 332.452 128.36C319.789 128.896 309.902 125.503 310.367 120.783C310.833 116.061 321.474 111.8 334.137 111.264C346.799 110.728 356.687 114.12 356.222 118.841Z" fill="#FF6464"/>
</g>
<path d="M333.787 114.655C342.543 114.284 349.539 116.429 350.416 119.566C350.559 119.258 350.651 118.947 350.682 118.633C351.039 115.007 343.556 112.398 333.969 112.804C324.383 113.209 316.322 116.477 315.965 120.103C315.934 120.417 315.966 120.723 316.05 121.021C317.553 117.784 325.032 115.026 333.787 114.655Z" fill="black"/>
<path d="M332.905 123.71C318.229 124.946 314.326 120.551 314.326 120.551C314.326 120.551 318.027 125.267 332.814 124.644C350.157 123.914 352.263 118.954 352.263 118.954C350.729 121.247 347.582 122.475 332.905 123.71Z" fill="#FF6464"/>
<path d="M332.918 116.717C332.863 117.274 331.192 117.795 329.186 117.88C327.178 117.966 325.596 117.582 325.651 117.025C325.705 116.469 327.377 115.948 329.384 115.862C331.391 115.777 332.973 116.16 332.918 116.717Z" fill="black"/>
<path d="M331.704 120.95C331.626 121.747 329.574 122.477 327.121 122.581C324.667 122.685 322.742 122.125 322.821 121.328C322.899 120.532 324.951 119.802 327.405 119.698C329.858 119.593 331.783 120.154 331.704 120.95Z" fill="black"/>
<path d="M342.061 116.338C342.006 116.896 340.274 117.419 338.193 117.508C336.113 117.596 334.47 117.215 334.525 116.658C334.58 116.102 336.311 115.579 338.392 115.49C340.473 115.402 342.116 115.782 342.061 116.338Z" fill="black"/>
<path d="M343 120.483C342.922 121.28 340.87 122.01 338.417 122.114C335.963 122.218 334.038 121.658 334.117 120.861C334.195 120.065 336.247 119.335 338.701 119.23C341.154 119.126 343.079 119.687 343 120.483Z" fill="black"/>
<mask id="mask6_1168_635" style="mask-type:luminance" maskUnits="userSpaceOnUse" x="43" y="124" width="61" height="38">
<path d="M53.1162 124.228L103.028 144.209L92.9718 161.717L43.0602 141.736L53.1162 124.228Z" fill="white"/>
</mask>
<g mask="url(#mask6_1168_635)">
<path d="M97.9962 152.992L101.351 147.151L94.9264 144.579C91.3745 140.98 85.403 137.221 78.0479 134.276C70.6933 131.332 63.4434 129.798 57.8584 129.739L51.4713 127.182L48.3858 132.554C48.2724 132.701 48.1687 132.852 48.0774 133.011C45.3097 137.83 54.2395 146.21 68.0236 151.728C81.8082 157.247 95.2268 157.813 97.9945 152.995L97.9962 152.992Z" fill="#FF6464"/>
</g>
<mask id="mask7_1168_635" style="mask-type:luminance" maskUnits="userSpaceOnUse" x="46" y="118" width="61" height="39">
<path d="M56.1377 118.953L106.05 138.934L96.0228 156.391L46.1109 136.409L56.1377 118.953Z" fill="white"/>
</mask>
<g mask="url(#mask7_1168_635)">
<path d="M101.046 147.669C98.2778 152.487 84.859 151.921 71.0744 146.403C57.2903 140.885 48.3607 132.504 51.1285 127.685C53.8969 122.865 67.3146 123.432 81.0987 128.951C94.8833 134.469 103.814 142.849 101.046 147.669Z" fill="#FF6464"/>
</g>
<path d="M79.0949 132.405C88.6262 136.221 95.0679 141.877 94.4959 145.65C94.7967 145.391 95.0447 145.102 95.2287 144.781C97.3543 141.079 90.6166 134.693 80.1801 130.515C69.7442 126.337 59.5619 125.95 57.4363 129.652C57.2523 129.972 57.1384 130.315 57.0847 130.673C60.2477 127.938 69.5638 128.589 79.0949 132.405Z" fill="black"/>
<path d="M73.7977 141.654C57.5258 135.914 55.4707 129.341 55.4707 129.341C55.4707 129.341 57.1557 136.159 73.2504 142.607C92.1279 150.17 96.7636 145.884 96.7636 145.884C94.0227 147.596 90.0701 147.394 73.7977 141.654Z" fill="#FF6464"/>
<path d="M77.1751 134.189C76.8485 134.757 74.8126 134.511 72.6281 133.636C70.4423 132.762 68.9368 131.591 69.2634 131.023C69.5896 130.455 71.6252 130.702 73.8109 131.576C75.9955 132.451 77.5013 133.621 77.1751 134.189Z" fill="black"/>
<path d="M73.8431 138.128C73.3757 138.941 70.833 138.734 68.1619 137.665C65.4907 136.597 63.7044 135.072 64.1717 134.258C64.6381 133.446 67.1813 133.653 69.8524 134.722C72.5235 135.79 74.3095 137.315 73.8431 138.128Z" fill="black"/>
<path d="M87.1242 138.184C86.7976 138.752 84.6956 138.479 82.4299 137.572C80.1648 136.666 78.5931 135.469 78.9197 134.9C79.2458 134.332 81.3476 134.606 83.6126 135.512C85.8784 136.419 87.4504 137.616 87.1242 138.184Z" fill="black"/>
<path d="M86.1341 143.062C85.6667 143.876 83.1241 143.669 80.4531 142.6C77.7821 141.531 75.9954 140.006 76.4627 139.193C76.9292 138.38 79.4726 138.588 82.1437 139.656C84.8147 140.725 86.6005 142.25 86.1341 143.062Z" fill="black"/>
</svg>
