<svg width="202" height="130" viewBox="0 0 202 130" fill="none" xmlns="http://www.w3.org/2000/svg">
<mask id="mask0_1138_1407" style="mask-type:luminance" maskUnits="userSpaceOnUse" x="68" y="41" width="72" height="78">
<path d="M68.5229 49.9022L130.153 41.8336L139.083 110.047L77.4535 118.116L68.5229 49.9022Z" fill="white"/>
</mask>
<g mask="url(#mask0_1138_1407)">
<mask id="mask1_1138_1407" style="mask-type:luminance" maskUnits="userSpaceOnUse" x="47" y="8" width="107" height="114">
<path d="M47.1301 37.4374L121.391 8.61216L153.924 92.3448L79.6631 121.17L47.1301 37.4374Z" fill="white"/>
</mask>
<g mask="url(#mask1_1138_1407)">
<mask id="mask2_1138_1407" style="mask-type:luminance" maskUnits="userSpaceOnUse" x="47" y="8" width="107" height="114">
<path d="M121.359 8.624L47.0986 37.4492L79.6316 121.182L153.892 92.3566L121.359 8.624Z" fill="white"/>
</mask>
<g mask="url(#mask2_1138_1407)">
<mask id="mask3_1138_1407" style="mask-type:luminance" maskUnits="userSpaceOnUse" x="57" y="37" width="91" height="85">
<path d="M125.513 37.341L57.2281 63.8471L79.5209 121.225L147.807 94.719L125.513 37.341Z" fill="white"/>
</mask>
<g mask="url(#mask3_1138_1407)">
<mask id="mask4_1138_1407" style="mask-type:luminance" maskUnits="userSpaceOnUse" x="57" y="37" width="91" height="85">
<path d="M125.513 37.341L57.3525 63.7988L79.6459 121.176L147.807 94.719L125.513 37.341Z" fill="white"/>
</mask>
<g mask="url(#mask4_1138_1407)">
<path d="M98.1492 109.081C99.4419 110.487 101.678 111.347 103.35 111.081C104.32 110.928 105.001 110.435 105.374 109.618C106.064 108.11 105.127 106.325 103.897 105.409C102.509 104.377 100.675 104.032 99.0569 103.727C97.7634 103.482 96.5003 103.257 95.2682 103.075C95.6365 105.266 96.5578 107.35 98.1492 109.081ZM100.752 95.6004C105.158 97.5335 110.618 97.4197 117.444 95.2519C119.382 94.6363 121.371 93.8715 122.792 92.4584C124.035 91.2193 124.983 89.0353 124.123 87.1682C123.355 85.5011 121.398 84.4858 118.306 84.1493C113.961 83.6765 109.777 84.2062 106.178 85.6029C103.416 86.6749 100.999 88.2582 99.1163 90.2908C98.3522 91.1152 97.6779 92.0568 97.1089 93.0775C98.1756 94.1418 99.4224 95.0162 100.752 95.6004ZM82.7056 103.463C86.3559 101.667 90.5864 101.7 94.4162 102.187C94.1149 99.1946 94.7057 96.0131 96.1613 93.2021C95.0435 91.9882 94.1478 90.5676 93.5654 89.0394C92.6024 86.5094 92.628 83.9037 93.6373 81.7009C95.1504 78.4018 98.6048 76.0177 104.198 74.4104C106.029 73.8836 107.924 73.4347 109.757 72.9997C114.534 71.8657 119.476 70.6933 123.642 68.0709C129.368 64.4671 133.235 56.7726 129.869 51.0624C127.32 46.7401 121.737 44.8201 112.801 45.1929C109.365 45.3362 105.757 45.6175 102.727 47.3002C99.9461 48.8444 97.4951 52.1765 98.1916 55.555C98.2338 55.759 98.102 55.9595 97.8967 56.0014C97.6924 56.0436 97.4919 55.9124 97.4501 55.7078C96.6795 51.972 99.3363 48.3176 102.359 46.6385C105.535 44.8753 109.243 44.5839 112.77 44.4371C122.011 44.0517 127.818 46.0932 130.52 50.6782C134.11 56.767 130.071 64.918 124.045 68.711C119.773 71.4003 114.77 72.5875 109.932 73.7361C108.107 74.1686 106.221 74.6163 104.407 75.1378C99.0386 76.6796 95.7408 78.9305 94.3259 82.0165C93.1414 84.601 93.6431 87.1155 94.273 88.7702C94.7838 90.1106 95.5738 91.3819 96.5535 92.489C97.117 91.5252 97.7859 90.6127 98.5608 89.7766C103.057 84.9207 110.47 82.5357 118.388 83.3967C121.763 83.7644 123.924 84.9269 124.811 86.852C125.822 89.0483 124.75 91.5753 123.326 92.994C121.792 94.5222 119.703 95.3289 117.673 95.973C110.664 98.1988 105.03 98.3036 100.448 96.2933C99.0856 95.6947 97.8241 94.8351 96.7367 93.7891C95.461 96.3804 94.8504 99.3988 95.1604 102.287C96.5912 102.492 97.9546 102.749 99.1967 102.983C100.895 103.303 102.821 103.666 104.348 104.802C105.817 105.894 106.918 108.063 106.063 109.932C105.699 110.729 105.093 111.299 104.288 111.611C104.034 111.71 103.76 111.783 103.469 111.829C101.537 112.136 99.0645 111.195 97.591 109.592C95.9213 107.776 94.9017 105.457 94.5156 102.97C90.3231 102.411 86.4944 102.441 83.0399 104.142C80.3299 105.476 78.2026 108.444 77.7456 111.527C77.4128 113.779 78.0313 115.769 79.4868 117.128C79.6397 117.27 79.6479 117.51 79.5052 117.663C79.3625 117.816 79.1227 117.824 78.9703 117.681C77.3266 116.147 76.6261 113.922 76.9969 111.416C77.4884 108.098 79.7821 104.902 82.7056 103.463Z" fill="#62B8AF"/>
</g>
</g>
</g>
</g>
</g>
<mask id="mask5_1138_1407" style="mask-type:luminance" maskUnits="userSpaceOnUse" x="92" y="45" width="44" height="24">
<path d="M92.776 50.2952L132.692 45.0693L135.125 63.6493L95.2085 68.8752L92.776 50.2952Z" fill="white"/>
</mask>
<g mask="url(#mask5_1138_1407)">
<mask id="mask6_1138_1407" style="mask-type:luminance" maskUnits="userSpaceOnUse" x="47" y="8" width="107" height="114">
<path d="M47.1301 37.4372L121.391 8.61204L153.924 92.3447L79.6631 121.17L47.1301 37.4372Z" fill="white"/>
</mask>
<g mask="url(#mask6_1138_1407)">
<mask id="mask7_1138_1407" style="mask-type:luminance" maskUnits="userSpaceOnUse" x="47" y="8" width="107" height="114">
<path d="M121.359 8.62388L47.0986 37.4491L79.6316 121.182L153.892 92.3565L121.359 8.62388Z" fill="white"/>
</mask>
<g mask="url(#mask7_1138_1407)">
<path d="M126.389 46.6606C132.885 47.6397 136.207 52.6825 130.946 57.9081C124.197 64.6071 99.2373 72.1957 94.8606 63.5028C89.6794 53.2136 117.889 45.3807 126.389 46.6606Z" fill="#B0715C"/>
</g>
</g>
</g>
<mask id="mask8_1138_1407" style="mask-type:luminance" maskUnits="userSpaceOnUse" x="92" y="44" width="43" height="25">
<path d="M92.4309 49.6796L132.347 44.4537L134.78 63.0337L94.8634 68.2596L92.4309 49.6796Z" fill="white"/>
</mask>
<g mask="url(#mask8_1138_1407)">
<mask id="mask9_1138_1407" style="mask-type:luminance" maskUnits="userSpaceOnUse" x="47" y="8" width="107" height="114">
<path d="M47.1301 37.4372L121.391 8.61204L153.924 92.3447L79.6631 121.17L47.1301 37.4372Z" fill="white"/>
</mask>
<g mask="url(#mask9_1138_1407)">
<mask id="mask10_1138_1407" style="mask-type:luminance" maskUnits="userSpaceOnUse" x="47" y="8" width="107" height="114">
<path d="M121.359 8.62388L47.0986 37.4491L79.6316 121.182L153.892 92.3565L121.359 8.62388Z" fill="white"/>
</mask>
<g mask="url(#mask10_1138_1407)">
<path d="M126.119 45.9664C132.615 46.945 135.937 51.9879 130.676 57.2139C123.927 63.9134 98.9677 71.5021 94.5911 62.8091C89.4098 52.5195 117.619 44.686 126.119 45.9664Z" fill="#EA967A"/>
</g>
</g>
</g>
<mask id="mask11_1138_1407" style="mask-type:luminance" maskUnits="userSpaceOnUse" x="89" y="17" width="39" height="46">
<path d="M89.7518 22.1451L122.127 17.9065L127.468 58.7046L95.0932 62.9432L89.7518 22.1451Z" fill="white"/>
</mask>
<g mask="url(#mask11_1138_1407)">
<mask id="mask12_1138_1407" style="mask-type:luminance" maskUnits="userSpaceOnUse" x="47" y="8" width="107" height="114">
<path d="M47.1301 37.4372L121.391 8.61204L153.924 92.3447L79.6631 121.17L47.1301 37.4372Z" fill="white"/>
</mask>
<g mask="url(#mask12_1138_1407)">
<mask id="mask13_1138_1407" style="mask-type:luminance" maskUnits="userSpaceOnUse" x="47" y="8" width="107" height="114">
<path d="M121.359 8.62388L47.0986 37.4491L79.6316 121.182L153.892 92.3565L121.359 8.62388Z" fill="white"/>
</mask>
<g mask="url(#mask13_1138_1407)">
<path d="M97.2905 55.6682C97.1889 55.3655 97.089 55.0405 96.9932 54.7154C96.9105 54.4309 96.8288 54.1463 96.7515 53.871C96.7239 53.7713 96.6969 53.6716 96.671 53.5759C96.5796 53.2446 96.496 52.9375 96.4229 52.6792C96.4148 52.6492 96.4069 52.6203 96.3978 52.5942L96.3976 52.5926C96.3526 52.4302 96.3117 52.2916 96.2765 52.1805L96.1509 51.7814L95.8319 50.7736L95.5947 50.0195L95.5778 49.9691L95.5777 49.968L95.4671 49.6129L95.467 49.6119L95.3331 49.1927L95.2929 49.0637L95.2146 48.8164L95.0488 48.2883L94.8154 47.5512L94.5697 46.7713L94.561 46.744L94.3422 46.0479L94.3281 46.0033L94.0952 45.2661L93.9885 44.9285L93.7384 44.1343L93.4593 43.254L93.2123 42.4681L93.177 42.356L93.1014 42.114L92.9463 41.6237L92.8538 41.3318L92.7306 40.9432L92.4959 40.1959L92.4851 40.1648L92.3274 39.6625C92.3008 39.5777 92.274 39.4919 92.251 39.4067C90.021 31.891 93.9659 23.965 101.205 21.1551C101.511 21.0361 101.821 20.9268 102.138 20.8265C109.56 18.4867 117.442 22.2016 120.451 29.1956C120.566 29.4578 120.672 29.7283 120.772 30.0012C120.848 30.2076 120.918 30.4174 120.985 30.6285L121.233 31.4117L121.477 32.1876L121.604 32.5882L121.677 32.8243L121.86 33.3992L121.924 33.6076L122.119 34.2217L122.364 34.9976L122.365 34.999L122.604 35.7575L122.839 36.5032L123.078 37.2607L123.215 37.6944L123.322 38.0316L123.459 38.4674L123.477 38.5264L123.713 39.2704L123.854 39.7191L124.096 40.4825L124.187 40.7721L124.187 40.773L124.299 41.1275L124.433 41.5565L124.55 41.9248L124.739 42.5246L124.935 43.1453C124.94 43.1617 124.955 43.2253 124.975 43.3255C124.987 43.3791 125.001 43.4428 125.015 43.5174L125.015 43.5184C125.063 43.7511 125.127 44.071 125.197 44.4171L125.197 44.4186C125.213 44.4919 125.227 44.5665 125.242 44.643L125.243 44.6439C125.304 44.9518 125.367 45.2673 125.424 45.5485C125.527 46.0605 125.608 46.4603 125.619 46.5032C125.625 46.522 125.631 46.5409 125.635 46.5605C125.716 46.8436 125.787 47.1178 125.846 47.3892L125.858 47.4347C125.923 47.7262 125.977 48.0128 126.019 48.2897L126.019 48.2912C126.051 48.4915 126.075 48.6886 126.093 48.8809L126.094 48.8823C126.132 49.2701 126.149 49.6433 126.142 50.002L126.142 50.003C126.142 50.018 126.142 50.034 126.141 50.0496C126.134 50.417 126.103 50.7706 126.049 51.1076C126.037 51.1824 126.023 51.2555 126.009 51.3281C125.935 51.7186 125.831 52.0896 125.697 52.4442C125.621 52.6467 125.536 52.8453 125.44 53.0374C125.335 53.2536 125.216 53.4638 125.086 53.6661C124.624 54.3946 124.019 55.0416 123.294 55.625C122.114 56.5771 120.615 57.3649 118.892 58.0773C118.891 58.079 118.891 58.079 118.889 58.0782C118.889 58.0803 118.886 58.0796 118.886 58.0796C118.886 58.0812 118.886 58.0812 118.883 58.0805C118.882 58.0828 118.878 58.0827 118.876 58.0836C117.07 58.832 115.02 59.4959 112.829 60.1839C108.792 61.4516 104.601 61.8661 101.339 60.2138C100.83 59.9567 100.345 59.6501 99.8861 59.2879C99.6654 59.1134 99.4499 58.9274 99.243 58.7283C99.0848 58.5771 98.9316 58.417 98.7831 58.2501C98.5349 57.976 98.2983 57.6796 98.0732 57.3612C98.0232 57.2913 97.975 57.2191 97.9268 57.147C97.9161 57.1319 97.9074 57.117 97.8961 57.102C97.8297 57.0007 97.7631 56.8747 97.6928 56.7249C97.6787 56.6916 97.662 56.6587 97.6478 56.6218C97.5559 56.4129 97.4619 56.1682 97.3697 55.902C97.3438 55.8264 97.3164 55.7474 97.2905 55.6682Z" fill="#FF6464"/>
</g>
</g>
</g>
<mask id="mask14_1138_1407" style="mask-type:luminance" maskUnits="userSpaceOnUse" x="91" y="31" width="32" height="11">
<path d="M91.6 35.2511L121.375 31.3529L122.14 37.1998L92.3655 41.098L91.6 35.2511Z" fill="white"/>
</mask>
<g mask="url(#mask14_1138_1407)">
<mask id="mask15_1138_1407" style="mask-type:luminance" maskUnits="userSpaceOnUse" x="47" y="8" width="107" height="114">
<path d="M47.1301 37.4372L121.391 8.61204L153.924 92.3447L79.6631 121.17L47.1301 37.4372Z" fill="white"/>
</mask>
<g mask="url(#mask15_1138_1407)">
<mask id="mask16_1138_1407" style="mask-type:luminance" maskUnits="userSpaceOnUse" x="47" y="8" width="107" height="114">
<path d="M121.359 8.62388L47.0986 37.4491L79.6316 121.182L153.892 92.3565L121.359 8.62388Z" fill="white"/>
</mask>
<g mask="url(#mask16_1138_1407)">
<path d="M92.3274 39.6626C92.3008 39.5778 92.2741 39.492 92.251 39.4067C95.5677 39.8139 99.1787 39.5812 103.034 38.71C103.652 38.5707 104.276 38.4142 104.907 38.2428C105.043 38.2058 105.181 38.1671 105.317 38.1286C106.403 37.8208 107.48 37.4743 108.546 37.0993C108.549 37.1 108.55 37.0979 108.55 37.0979C108.553 37.099 108.556 37.0976 108.556 37.0949L108.582 37.0853C111.3 36.1317 113.961 34.9863 116.567 33.8175C116.569 33.8183 116.569 33.8162 116.569 33.8162C117.332 33.4747 118.092 33.1295 118.846 32.7886C119.766 32.3709 120.602 31.9621 121.233 31.4117L121.477 32.1877C120.732 32.7637 119.865 33.157 119.16 33.4776C116.488 34.689 113.764 35.9232 110.973 37.0066C110.28 37.2755 109.585 37.5338 108.882 37.7801L108.862 37.7885C108.524 37.9087 108.185 38.0253 107.845 38.1379L107.844 38.1381C107.036 38.408 106.221 38.6598 105.402 38.8894C105.304 38.9182 105.206 38.945 105.107 38.9718C103.361 39.4497 101.659 39.8053 100.006 40.033L100.002 40.0347C99.998 40.0346 99.997 40.0353 99.9946 40.0361C99.0971 40.1613 98.2176 40.2502 97.3497 40.3013C95.6757 40.4023 94.056 40.3691 92.4959 40.196L92.4851 40.1649L92.3274 39.6626Z" fill="#62B8AF"/>
</g>
</g>
</g>
<mask id="mask17_1138_1407" style="mask-type:luminance" maskUnits="userSpaceOnUse" x="91" y="32" width="32" height="10">
<path d="M91.9171 36.6633L121.822 32.7482L122.519 38.0753L92.6146 41.9905L91.9171 36.6633Z" fill="white"/>
</mask>
<g mask="url(#mask17_1138_1407)">
<mask id="mask18_1138_1407" style="mask-type:luminance" maskUnits="userSpaceOnUse" x="47" y="8" width="107" height="114">
<path d="M47.1301 37.4374L121.391 8.61216L153.924 92.3448L79.6631 121.17L47.1301 37.4374Z" fill="white"/>
</mask>
<g mask="url(#mask18_1138_1407)">
<mask id="mask19_1138_1407" style="mask-type:luminance" maskUnits="userSpaceOnUse" x="47" y="8" width="107" height="114">
<path d="M121.359 8.624L47.0986 37.4492L79.6316 121.182L153.892 92.3566L121.359 8.624Z" fill="white"/>
</mask>
<g mask="url(#mask19_1138_1407)">
<path d="M92.485 40.165C94.0914 40.301 95.7138 40.3468 97.3496 40.3014C98.0436 40.2833 98.7335 40.2493 99.4304 40.1983L99.4348 40.1967C99.4365 40.1975 99.4374 40.1969 99.4389 40.1962C100.79 40.0988 102.146 39.9393 103.507 39.7199C104.834 39.5064 106.163 39.2358 107.493 38.9078C108.866 38.5706 110.241 38.1728 111.61 37.7137C111.612 37.7135 111.612 37.7135 111.613 37.7128C113.515 37.0782 115.41 36.3278 117.288 35.4639C118.123 35.08 118.966 34.6687 119.767 34.1911C119.772 34.1869 119.775 34.1839 119.779 34.1813C120.452 33.7833 121.095 33.3373 121.677 32.8244L121.86 33.3993L121.924 33.6077C121.387 34.0513 120.812 34.4476 120.213 34.8027C120.209 34.8043 120.206 34.8073 120.202 34.8104C119.361 35.3175 118.48 35.7504 117.606 36.1508C116.531 36.6462 115.45 37.1025 114.366 37.5237C113.511 37.8557 112.656 38.1632 111.796 38.4482L111.796 38.4488C107.728 39.8038 103.628 40.6405 99.5789 40.9419C99.5787 40.9445 99.5779 40.9425 99.5765 40.9432C98.3664 41.0361 97.1611 41.0793 95.9645 41.0743C95.9619 41.0737 95.9619 41.0737 95.9609 41.0743C94.8771 41.0706 93.8014 41.0256 92.7305 40.9433L92.4958 40.1961L92.485 40.165Z" fill="#62B8AF"/>
</g>
</g>
</g>
<mask id="mask20_1138_1407" style="mask-type:luminance" maskUnits="userSpaceOnUse" x="92" y="34" width="31" height="10">
<path d="M92.3643 38.0585L122.269 34.1433L122.966 39.4704L93.0617 43.3856L92.3643 38.0585Z" fill="white"/>
</mask>
<g mask="url(#mask20_1138_1407)">
<mask id="mask21_1138_1407" style="mask-type:luminance" maskUnits="userSpaceOnUse" x="47" y="8" width="107" height="114">
<path d="M47.1301 37.4372L121.391 8.61204L153.924 92.3447L79.6631 121.17L47.1301 37.4372Z" fill="white"/>
</mask>
<g mask="url(#mask21_1138_1407)">
<mask id="mask22_1138_1407" style="mask-type:luminance" maskUnits="userSpaceOnUse" x="47" y="8" width="107" height="114">
<path d="M121.359 8.62388L47.0986 37.4491L79.6316 121.182L153.892 92.3565L121.359 8.62388Z" fill="white"/>
</mask>
<g mask="url(#mask22_1138_1407)">
<path d="M92.8538 41.3318C93.276 41.3725 93.6989 41.4065 94.1233 41.4361C95.1793 41.5074 96.2374 41.5444 97.2962 41.5426C104.541 41.5419 111.788 39.8606 118.267 36.615C119.508 35.994 120.894 35.2365 122.119 34.2217L122.364 34.9976L122.365 34.999C121.145 35.9624 119.809 36.6887 118.606 37.2917C117.302 37.9442 115.967 38.5361 114.607 39.0635C108.128 41.5787 101.095 42.6559 94.1618 42.1961C93.808 42.1727 93.4546 42.1452 93.1013 42.114L92.9462 41.6237L92.8538 41.3318Z" fill="#62B8AF"/>
</g>
</g>
</g>
<mask id="mask23_1138_1407" style="mask-type:luminance" maskUnits="userSpaceOnUse" x="92" y="35" width="32" height="10">
<path d="M92.8284 39.5836L122.733 35.6684L123.38 40.6058L93.4748 44.521L92.8284 39.5836Z" fill="white"/>
</mask>
<g mask="url(#mask23_1138_1407)">
<mask id="mask24_1138_1407" style="mask-type:luminance" maskUnits="userSpaceOnUse" x="47" y="8" width="107" height="114">
<path d="M47.1301 37.4374L121.391 8.61216L153.924 92.3448L79.6631 121.17L47.1301 37.4374Z" fill="white"/>
</mask>
<g mask="url(#mask24_1138_1407)">
<mask id="mask25_1138_1407" style="mask-type:luminance" maskUnits="userSpaceOnUse" x="47" y="8" width="107" height="114">
<path d="M121.359 8.624L47.0986 37.4492L79.6316 121.182L153.892 92.3566L121.359 8.624Z" fill="white"/>
</mask>
<g mask="url(#mask25_1138_1407)">
<path d="M122.604 35.7576L122.839 36.5034C120.464 37.9511 117.96 39.1823 115.368 40.1886C108.433 42.8807 100.869 43.9593 93.4593 43.2541L93.2123 42.4682C103.391 43.5114 113.889 41.1194 122.604 35.7576Z" fill="#62B8AF"/>
</g>
</g>
</g>
<mask id="mask26_1138_1407" style="mask-type:luminance" maskUnits="userSpaceOnUse" x="93" y="37" width="31" height="9">
<path d="M93.2926 41.1086L123.327 37.1764L123.957 41.9839L93.922 45.9161L93.2926 41.1086Z" fill="white"/>
</mask>
<g mask="url(#mask26_1138_1407)">
<mask id="mask27_1138_1407" style="mask-type:luminance" maskUnits="userSpaceOnUse" x="47" y="8" width="107" height="114">
<path d="M47.1301 37.4372L121.391 8.61204L153.924 92.3447L79.6631 121.17L47.1301 37.4372Z" fill="white"/>
</mask>
<g mask="url(#mask27_1138_1407)">
<mask id="mask28_1138_1407" style="mask-type:luminance" maskUnits="userSpaceOnUse" x="47" y="8" width="107" height="114">
<path d="M121.359 8.62388L47.0986 37.4491L79.6316 121.182L153.892 92.3565L121.359 8.62388Z" fill="white"/>
</mask>
<g mask="url(#mask28_1138_1407)">
<path d="M100.467 44.2047C103.89 43.8629 107.3 43.0391 110.6 42.2442C114.597 41.2795 119.467 40.1055 123.078 37.2607L123.215 37.6944L123.322 38.0315C122.431 38.7068 121.476 39.2886 120.483 39.7939C120.481 39.7946 120.481 39.7946 120.48 39.7953L120.479 39.796C120.477 39.7962 120.477 39.7962 120.476 39.7968C120.474 39.7976 120.474 39.7993 120.473 39.7999C119.706 40.1899 118.916 40.5349 118.118 40.8448C115.641 41.8062 113.068 42.427 110.777 42.9788C107.454 43.7815 104.016 44.6104 100.542 44.9579C98.2075 45.1923 96.0161 45.1803 93.9885 44.9285L93.7383 44.1342C95.8047 44.4218 98.0541 44.4463 100.467 44.2047Z" fill="#62B8AF"/>
</g>
</g>
</g>
<mask id="mask29_1138_1407" style="mask-type:luminance" maskUnits="userSpaceOnUse" x="93" y="38" width="32" height="9">
<path d="M93.5928 42.391L123.628 38.4588L124.206 42.8764L94.1711 46.8086L93.5928 42.391Z" fill="white"/>
</mask>
<g mask="url(#mask29_1138_1407)">
<mask id="mask30_1138_1407" style="mask-type:luminance" maskUnits="userSpaceOnUse" x="47" y="8" width="107" height="114">
<path d="M47.1301 37.4372L121.391 8.61204L153.924 92.3447L79.6631 121.17L47.1301 37.4372Z" fill="white"/>
</mask>
<g mask="url(#mask30_1138_1407)">
<mask id="mask31_1138_1407" style="mask-type:luminance" maskUnits="userSpaceOnUse" x="47" y="8" width="107" height="114">
<path d="M121.359 8.62388L47.0986 37.4491L79.6316 121.182L153.892 92.3565L121.359 8.62388Z" fill="white"/>
</mask>
<g mask="url(#mask31_1138_1407)">
<path d="M94.0952 45.2661C98.9059 45.7137 103.851 44.6461 108.297 43.6866C111.858 42.9173 115.723 42.0836 119.316 40.623C120.617 40.096 121.883 39.4846 123.086 38.7639C123.088 38.7632 123.09 38.763 123.09 38.763C123.219 38.6845 123.349 38.6067 123.477 38.5264L123.713 39.2704C122.426 40.062 121.069 40.7254 119.676 41.296C119.484 41.3749 119.292 41.451 119.101 41.5257C118.262 41.8512 117.413 42.1432 116.557 42.4116C113.839 43.2646 111.067 43.8629 108.458 44.4265C104.977 45.1759 101.196 45.9931 97.3859 46.1145C96.3718 46.1461 95.3555 46.129 94.3422 46.0479L94.328 46.0033L94.0952 45.2661Z" fill="#62B8AF"/>
</g>
</g>
</g>
<mask id="mask32_1138_1407" style="mask-type:luminance" maskUnits="userSpaceOnUse" x="94" y="40" width="32" height="10">
<path d="M94.549 44.6447L124.454 40.7295L125.117 45.7967L95.2124 49.7119L94.549 44.6447Z" fill="white"/>
</mask>
<g mask="url(#mask32_1138_1407)">
<mask id="mask33_1138_1407" style="mask-type:luminance" maskUnits="userSpaceOnUse" x="47" y="8" width="107" height="114">
<path d="M47.1301 37.4374L121.391 8.61216L153.924 92.3448L79.6631 121.17L47.1301 37.4374Z" fill="white"/>
</mask>
<g mask="url(#mask33_1138_1407)">
<mask id="mask34_1138_1407" style="mask-type:luminance" maskUnits="userSpaceOnUse" x="47" y="8" width="107" height="114">
<path d="M121.359 8.624L47.0986 37.4492L79.6316 121.182L153.892 92.3566L121.359 8.624Z" fill="white"/>
</mask>
<g mask="url(#mask34_1138_1407)">
<path d="M95.0488 48.2884C96.3743 48.3859 97.7656 48.3829 99.2808 48.2769C99.9755 48.2283 100.667 48.1615 101.356 48.077C101.357 48.0763 101.357 48.0763 101.359 48.0781C103.92 47.7693 106.438 47.2521 108.892 46.7476C108.939 46.7384 108.986 46.7297 109.033 46.7188L109.035 46.7186C111.918 46.1253 114.894 45.507 117.688 44.4716C120.287 43.5083 122.464 42.2672 124.187 40.7732L124.299 41.1276L124.433 41.5567C123.545 42.2986 122.548 42.9764 121.447 43.5872C120.496 44.1175 119.467 44.5965 118.363 45.025C118.227 45.0773 118.09 45.1294 117.951 45.1796C115.057 46.2528 112.001 46.88 109.045 47.489C107.749 47.7568 106.435 48.0263 105.104 48.2667C103.213 48.6119 101.287 48.8965 99.3343 49.0324C97.8949 49.1336 96.5648 49.1431 95.2929 49.0639L95.2146 48.8165L95.0488 48.2884Z" fill="#62B8AF"/>
</g>
</g>
</g>
<mask id="mask35_1138_1407" style="mask-type:luminance" maskUnits="userSpaceOnUse" x="93" y="39" width="32" height="10">
<path d="M93.8759 43.5433L124.041 39.5941L124.67 44.4015L94.5052 48.3507L93.8759 43.5433Z" fill="white"/>
</mask>
<g mask="url(#mask35_1138_1407)">
<mask id="mask36_1138_1407" style="mask-type:luminance" maskUnits="userSpaceOnUse" x="47" y="8" width="107" height="114">
<path d="M47.1301 37.4372L121.391 8.61204L153.924 92.3447L79.6631 121.17L47.1301 37.4372Z" fill="white"/>
</mask>
<g mask="url(#mask36_1138_1407)">
<mask id="mask37_1138_1407" style="mask-type:luminance" maskUnits="userSpaceOnUse" x="47" y="8" width="107" height="114">
<path d="M121.359 8.62388L47.0986 37.4491L79.6316 121.182L153.892 92.3565L121.359 8.62388Z" fill="white"/>
</mask>
<g mask="url(#mask37_1138_1407)">
<path d="M94.3421 46.0479L94.328 46.0033C95.343 46.0496 96.3637 46.0884 97.3859 46.1146C99.877 46.1823 102.381 46.1761 104.858 46.0155C106.979 45.8766 108.962 45.632 110.826 45.2733L110.828 45.2726C112.193 45.0123 113.495 44.6895 114.737 44.3065C114.737 44.3065 114.739 44.3057 114.74 44.3056C115.923 43.9411 117.051 43.5219 118.135 43.046C120.162 42.157 122.08 41.0411 123.854 39.7192L124.095 40.4825C122.335 41.7697 120.438 42.8616 118.44 43.7396C118.028 43.9205 117.61 44.0924 117.186 44.2574C115.28 44.9968 113.241 45.5762 111.038 46.0024L111.036 46.0031C109.583 46.2848 108.055 46.4998 106.451 46.6479C106.449 46.6486 106.447 46.6478 106.447 46.6478C105.943 46.6958 105.429 46.7363 104.907 46.77C101.54 46.9914 98.1364 46.9228 94.7816 46.7802C94.7106 46.7787 94.6408 46.7744 94.5696 46.7713L94.5609 46.7441L94.3421 46.0479Z" fill="#62B8AF"/>
</g>
</g>
</g>
<mask id="mask38_1138_1407" style="mask-type:luminance" maskUnits="userSpaceOnUse" x="95" y="42" width="31" height="11">
<path d="M95.0302 46.2997L124.935 42.3845L125.751 48.6211L95.8467 52.5363L95.0302 46.2997Z" fill="white"/>
</mask>
<g mask="url(#mask38_1138_1407)">
<mask id="mask39_1138_1407" style="mask-type:luminance" maskUnits="userSpaceOnUse" x="47" y="8" width="107" height="114">
<path d="M47.1301 37.4372L121.391 8.61204L153.924 92.3447L79.6631 121.17L47.1301 37.4372Z" fill="white"/>
</mask>
<g mask="url(#mask39_1138_1407)">
<mask id="mask40_1138_1407" style="mask-type:luminance" maskUnits="userSpaceOnUse" x="47" y="8" width="107" height="114">
<path d="M121.359 8.62388L47.0986 37.4491L79.6316 121.182L153.892 92.3565L121.359 8.62388Z" fill="white"/>
</mask>
<g mask="url(#mask40_1138_1407)">
<path d="M95.5778 49.969C98.0498 50.3568 100.512 50.5331 102.916 50.5007C102.916 50.5007 102.918 50.5 102.919 50.5014C105.679 50.4621 108.366 50.1465 110.91 49.5523C116.226 48.3132 120.968 45.8974 124.739 42.5246L124.935 43.1452C124.94 43.1617 124.955 43.2253 124.974 43.3255C122.312 45.6491 119.196 47.5128 115.754 48.8494C114.254 49.4314 112.694 49.9129 111.082 50.2886C110.339 50.4617 109.588 50.6122 108.825 50.7379L108.823 50.7387C108.821 50.7394 108.82 50.7386 108.818 50.7388C106.89 51.0594 104.896 51.2316 102.866 51.2569C102.864 51.2561 102.863 51.2567 102.86 51.2561L102.859 51.2567C100.554 51.2859 98.1988 51.124 95.8319 50.7736L95.5947 50.0195L95.5778 49.969Z" fill="#62B8AF"/>
</g>
</g>
</g>
<mask id="mask41_1138_1407" style="mask-type:luminance" maskUnits="userSpaceOnUse" x="95" y="44" width="32" height="11">
<path d="M95.7095 48.4574L125.354 44.5763L126.137 50.5531L96.492 54.4342L95.7095 48.4574Z" fill="white"/>
</mask>
<g mask="url(#mask41_1138_1407)">
<mask id="mask42_1138_1407" style="mask-type:luminance" maskUnits="userSpaceOnUse" x="47" y="8" width="107" height="114">
<path d="M47.1301 37.4372L121.391 8.61204L153.924 92.3447L79.6631 121.17L47.1301 37.4372Z" fill="white"/>
</mask>
<g mask="url(#mask42_1138_1407)">
<mask id="mask43_1138_1407" style="mask-type:luminance" maskUnits="userSpaceOnUse" x="47" y="8" width="107" height="114">
<path d="M121.359 8.62388L47.0986 37.4491L79.6316 121.182L153.892 92.3565L121.359 8.62388Z" fill="white"/>
</mask>
<g mask="url(#mask43_1138_1407)">
<path d="M96.1509 51.7814C103.098 53.0664 110.411 52.395 116.996 49.8391C117.068 49.8111 117.139 49.7816 117.213 49.7533C120.695 48.3759 123.34 46.6963 125.243 44.6439C125.304 44.9518 125.367 45.2673 125.424 45.5485C123.478 47.5078 120.862 49.1243 117.491 50.4568C117.416 50.4862 117.343 50.5159 117.27 50.5446C110.676 53.1037 103.364 53.8105 96.3978 52.5942L96.3976 52.5926C96.3526 52.4302 96.3117 52.2916 96.2765 52.1805L96.1509 51.7814Z" fill="#62B8AF"/>
</g>
</g>
</g>
<mask id="mask44_1138_1407" style="mask-type:luminance" maskUnits="userSpaceOnUse" x="96" y="46" width="31" height="11">
<path d="M96.2246 50.3723L125.739 46.5082L126.539 52.6149L97.0241 56.479L96.2246 50.3723Z" fill="white"/>
</mask>
<g mask="url(#mask44_1138_1407)">
<mask id="mask45_1138_1407" style="mask-type:luminance" maskUnits="userSpaceOnUse" x="47" y="8" width="107" height="114">
<path d="M47.1301 37.4372L121.391 8.61204L153.924 92.3447L79.6631 121.17L47.1301 37.4372Z" fill="white"/>
</mask>
<g mask="url(#mask45_1138_1407)">
<mask id="mask46_1138_1407" style="mask-type:luminance" maskUnits="userSpaceOnUse" x="47" y="8" width="107" height="114">
<path d="M121.359 8.62388L47.0986 37.4491L79.6316 121.182L153.892 92.3565L121.359 8.62388Z" fill="white"/>
</mask>
<g mask="url(#mask46_1138_1407)">
<path d="M99.1602 54.3677C99.1616 54.367 99.1624 54.3685 99.1638 54.3677C99.1655 54.3691 99.1671 54.3689 99.1692 54.3691C100.701 54.5914 102.323 54.6599 104.027 54.5725C104.074 54.571 104.121 54.5674 104.167 54.5655C106.896 54.4122 109.789 53.8868 113.546 52.8601C115.801 52.2443 118.431 51.4462 120.847 50.18C122.786 49.1648 124.39 47.9512 125.635 46.5605C125.716 46.8437 125.787 47.1178 125.846 47.3893L125.858 47.4353C125.346 47.9663 124.782 48.4728 124.17 48.9504C123.283 49.6427 122.292 50.2774 121.199 50.8489C120.306 51.3174 119.386 51.7228 118.468 52.0795C116.838 52.712 115.213 53.1907 113.746 53.5907C111.871 54.1032 110.203 54.4923 108.664 54.7744C108.663 54.7751 108.661 54.7743 108.66 54.7744L108.658 54.7752C107.073 55.0662 105.622 55.2414 104.209 55.3204C104.139 55.3249 104.069 55.3279 104 55.3313C104 55.3313 103.999 55.332 103.999 55.3305C101.485 55.4535 99.1417 55.2482 96.9931 54.7154C96.9104 54.431 96.8287 54.1464 96.7514 53.871C97.526 54.0819 98.3294 54.2488 99.1602 54.3677Z" fill="#62B8AF"/>
</g>
</g>
</g>
<mask id="mask47_1138_1407" style="mask-type:luminance" maskUnits="userSpaceOnUse" x="96" y="48" width="31" height="11">
<path d="M96.9209 52.66L126.176 48.83L126.89 54.287L97.6353 58.1171L96.9209 52.66Z" fill="white"/>
</mask>
<g mask="url(#mask47_1138_1407)">
<mask id="mask48_1138_1407" style="mask-type:luminance" maskUnits="userSpaceOnUse" x="47" y="8" width="107" height="114">
<path d="M47.1301 37.4374L121.391 8.61216L153.924 92.3448L79.6631 121.17L47.1301 37.4374Z" fill="white"/>
</mask>
<g mask="url(#mask48_1138_1407)">
<mask id="mask49_1138_1407" style="mask-type:luminance" maskUnits="userSpaceOnUse" x="47" y="8" width="107" height="114">
<path d="M121.359 8.624L47.0986 37.4492L79.6316 121.182L153.892 92.3566L121.359 8.624Z" fill="white"/>
</mask>
<g mask="url(#mask49_1138_1407)">
<path d="M109.079 55.7205C112.47 55.3077 115.974 54.8809 119.214 53.67C122.127 52.5866 124.514 50.9127 126.094 48.8824C126.133 49.2703 126.149 49.6434 126.142 50.0021L126.142 50.0031C124.546 51.7902 122.345 53.2682 119.727 54.2843C119.645 54.3161 119.562 54.3487 119.479 54.3781C116.155 55.6197 112.603 56.0527 109.171 56.4705C105.707 56.8936 101.598 57.3938 97.6928 56.725C97.5873 56.4946 97.4779 56.2121 97.3697 55.9021C101.243 56.6763 105.358 56.1747 109.079 55.7205Z" fill="#62B8AF"/>
</g>
</g>
</g>
<mask id="mask50_1138_1407" style="mask-type:luminance" maskUnits="userSpaceOnUse" x="94" y="40" width="32" height="11">
<path d="M94.583 44.9044L124.488 40.9892L125.202 46.4463L95.2975 50.3615L94.583 44.9044Z" fill="white"/>
</mask>
<g mask="url(#mask50_1138_1407)">
<mask id="mask51_1138_1407" style="mask-type:luminance" maskUnits="userSpaceOnUse" x="47" y="8" width="107" height="114">
<path d="M47.1301 37.4372L121.391 8.61204L153.924 92.3447L79.6631 121.17L47.1301 37.4372Z" fill="white"/>
</mask>
<g mask="url(#mask51_1138_1407)">
<mask id="mask52_1138_1407" style="mask-type:luminance" maskUnits="userSpaceOnUse" x="47" y="8" width="107" height="114">
<path d="M121.359 8.62388L47.0986 37.4491L79.6316 121.182L153.892 92.3565L121.359 8.62388Z" fill="white"/>
</mask>
<g mask="url(#mask52_1138_1407)">
<path d="M95.2929 49.0638L95.2145 48.8164C95.9838 48.9237 96.7917 48.9785 97.6387 48.9843C99.8543 48.9993 102.096 48.6872 104.269 48.3831C104.547 48.3452 104.825 48.3057 105.104 48.2666C107.649 47.9101 110.258 47.5324 112.803 47.0496C115.202 46.594 117.17 46.1015 118.973 45.1788C119.847 44.7304 120.665 44.184 121.447 43.5871C122.445 42.823 123.383 41.9723 124.299 41.1275L124.433 41.5566L124.55 41.9248C122.958 43.3851 121.291 44.8423 119.319 45.8511C118.854 46.0885 118.382 46.2995 117.896 46.4886C116.409 47.0659 114.8 47.4417 112.946 47.7929C110.101 48.3336 107.19 48.7395 104.371 49.1344C102.311 49.4205 100.184 49.7192 98.055 49.7413C98.0529 49.7411 98.0514 49.7413 98.0514 49.7413C97.912 49.742 97.7726 49.7427 97.6324 49.7414C96.8826 49.7353 96.161 49.693 95.4671 49.6129L95.4669 49.6119L95.333 49.1927L95.2929 49.0638Z" fill="#62B8AF"/>
</g>
</g>
</g>
<mask id="mask53_1138_1407" style="mask-type:luminance" maskUnits="userSpaceOnUse" x="93" y="37" width="32" height="13">
<path d="M93.8636 41.4304L123.378 37.5663L124.382 45.2322L94.8673 49.0963L93.8636 41.4304Z" fill="white"/>
</mask>
<g mask="url(#mask53_1138_1407)">
<mask id="mask54_1138_1407" style="mask-type:luminance" maskUnits="userSpaceOnUse" x="47" y="8" width="107" height="114">
<path d="M47.1301 37.4372L121.391 8.61204L153.924 92.3447L79.6631 121.17L47.1301 37.4372Z" fill="white"/>
</mask>
<g mask="url(#mask54_1138_1407)">
<mask id="mask55_1138_1407" style="mask-type:luminance" maskUnits="userSpaceOnUse" x="47" y="8" width="107" height="114">
<path d="M121.359 8.62388L47.0986 37.4491L79.6316 121.182L153.892 92.3565L121.359 8.62388Z" fill="white"/>
</mask>
<g mask="url(#mask55_1138_1407)">
<path d="M94.561 46.744C94.6334 46.7562 94.7067 46.7683 94.7817 46.7802C96.6622 47.0812 98.7275 47.341 100.774 47.3312C102.636 47.3207 104.531 47.0928 106.447 46.6478C106.447 46.6478 106.449 46.6485 106.451 46.6478C107.898 46.3123 109.358 45.8543 110.826 45.2733L110.828 45.2726C112.103 44.7695 113.386 44.1726 114.673 43.4842C115.311 43.142 115.941 42.7844 116.557 42.4116C117.507 41.8423 118.428 41.241 119.316 40.623C119.709 40.3511 120.095 40.0776 120.473 39.7999C120.474 39.7993 120.474 39.7976 120.476 39.7968C120.477 39.7962 120.477 39.7962 120.479 39.796L120.48 39.7953C120.481 39.7947 120.481 39.7947 120.483 39.7939C121.439 39.0968 122.352 38.3898 123.215 37.6944L123.322 38.0315L123.459 38.4674C123.337 38.5658 123.214 38.6641 123.09 38.7629C123.09 38.7629 123.088 38.7637 123.086 38.7639C122.016 39.6118 120.876 40.4668 119.676 41.296C118.208 42.31 116.653 43.2838 115.03 44.1519C114.933 44.2049 114.836 44.2553 114.74 44.3055C114.739 44.3056 114.737 44.3064 114.737 44.3064C113.501 44.9556 112.265 45.5211 111.038 46.0024L111.036 46.0031C110.995 46.0209 110.953 46.0373 110.91 46.0537C110.283 46.2968 109.659 46.518 109.035 46.7184L109.033 46.7186C106.44 47.5495 103.873 48.0038 101.359 48.0779C101.357 48.0762 101.357 48.0762 101.356 48.0768C101.163 48.082 100.969 48.0856 100.778 48.0869C98.7336 48.098 96.6871 47.8476 94.8154 47.5512L94.5697 46.7713L94.561 46.744Z" fill="#62B8AF"/>
</g>
</g>
</g>
<mask id="mask56_1138_1407" style="mask-type:luminance" maskUnits="userSpaceOnUse" x="95" y="43" width="31" height="11">
<path d="M95.0363 47.3561L125.071 43.4239L125.854 49.4007L95.8187 53.3329L95.0363 47.3561Z" fill="white"/>
</mask>
<g mask="url(#mask56_1138_1407)">
<mask id="mask57_1138_1407" style="mask-type:luminance" maskUnits="userSpaceOnUse" x="47" y="8" width="107" height="114">
<path d="M47.1301 37.4372L121.391 8.61204L153.924 92.3447L79.6631 121.17L47.1301 37.4372Z" fill="white"/>
</mask>
<g mask="url(#mask57_1138_1407)">
<mask id="mask58_1138_1407" style="mask-type:luminance" maskUnits="userSpaceOnUse" x="47" y="8" width="107" height="114">
<path d="M121.359 8.62388L47.0986 37.4491L79.6316 121.182L153.892 92.3565L121.359 8.62388Z" fill="white"/>
</mask>
<g mask="url(#mask58_1138_1407)">
<path d="M95.5777 49.9681L95.4671 49.6129L95.467 49.6119L95.3331 49.1927C96.2335 49.382 97.1418 49.5687 98.0514 49.7412C98.0514 49.7412 98.053 49.741 98.0551 49.7413C99.5551 50.0281 101.068 50.2797 102.577 50.4621C102.691 50.4761 102.803 50.4893 102.916 50.5007C102.916 50.5007 102.918 50.5 102.919 50.5015C105.029 50.7409 106.987 50.8207 108.818 50.7389C108.82 50.7387 108.821 50.7395 108.823 50.7388L108.825 50.738C110.53 50.6619 112.126 50.4436 113.634 50.0887C117.962 49.0647 121.964 46.7485 125.015 43.5184C125.063 43.7511 125.127 44.0711 125.197 44.4171L125.197 44.4186C122.85 46.793 119.993 48.661 116.881 49.8691C115.88 50.2573 114.854 50.5774 113.808 50.8248C110.599 51.5836 107.018 51.7252 102.866 51.257C102.864 51.2561 102.863 51.2568 102.86 51.2561L102.859 51.2567C102.735 51.2431 102.61 51.2285 102.485 51.2134C100.174 50.9336 97.8627 50.4933 95.5948 50.0195L95.5778 49.9691L95.5777 49.9681Z" fill="#62B8AF"/>
</g>
</g>
</g>
<mask id="mask59_1138_1407" style="mask-type:luminance" maskUnits="userSpaceOnUse" x="96" y="47" width="31" height="11">
<path d="M96.1967 51.1689L125.971 47.2708L126.771 53.3775L96.9962 57.2757L96.1967 51.1689Z" fill="white"/>
</mask>
<g mask="url(#mask59_1138_1407)">
<mask id="mask60_1138_1407" style="mask-type:luminance" maskUnits="userSpaceOnUse" x="47" y="8" width="107" height="114">
<path d="M47.1301 37.4374L121.391 8.61216L153.924 92.3448L79.6631 121.17L47.1301 37.4374Z" fill="white"/>
</mask>
<g mask="url(#mask60_1138_1407)">
<mask id="mask61_1138_1407" style="mask-type:luminance" maskUnits="userSpaceOnUse" x="47" y="8" width="107" height="114">
<path d="M121.359 8.624L47.0986 37.4492L79.6316 121.182L153.892 92.3566L121.359 8.624Z" fill="white"/>
</mask>
<g mask="url(#mask61_1138_1407)">
<path d="M104.027 54.5726C105.583 54.7633 107.132 54.832 108.658 54.7752L108.66 54.7744C108.661 54.7743 108.663 54.7751 108.664 54.7744C109.214 54.7551 109.759 54.7184 110.3 54.6655C115.527 54.1542 120.402 52.121 124.17 48.9505C124.757 48.4586 125.317 47.9372 125.846 47.3893L125.858 47.4354C125.923 47.7263 125.977 48.0129 126.019 48.2898L126.019 48.2913C123.651 50.6244 120.75 52.4715 117.538 53.7185C115.278 54.5956 112.865 55.1754 110.374 55.4194C108.289 55.6232 106.15 55.5899 104 55.3313C104 55.3313 103.999 55.332 103.999 55.3305C102.387 55.1378 100.771 54.8171 99.1692 54.3692C99.1671 54.3689 99.1656 54.3691 99.1639 54.3678C99.1624 54.3685 99.1617 54.367 99.1603 54.3677C98.3253 54.1379 97.4952 53.8744 96.671 53.576C96.5795 53.2447 96.4959 52.9376 96.4229 52.6792C98.9197 53.6233 101.481 54.2611 104.027 54.5726Z" fill="#62B8AF"/>
</g>
</g>
</g>
<mask id="mask62_1138_1407" style="mask-type:luminance" maskUnits="userSpaceOnUse" x="96" y="32" width="27" height="9">
<path d="M96.5638 35.7906L121.788 32.4883L122.4 37.1658L97.1762 40.4681L96.5638 35.7906Z" fill="white"/>
</mask>
<g mask="url(#mask62_1138_1407)">
<mask id="mask63_1138_1407" style="mask-type:luminance" maskUnits="userSpaceOnUse" x="47" y="8" width="107" height="114">
<path d="M47.1301 37.4374L121.391 8.61216L153.924 92.3448L79.6631 121.17L47.1301 37.4374Z" fill="white"/>
</mask>
<g mask="url(#mask63_1138_1407)">
<mask id="mask64_1138_1407" style="mask-type:luminance" maskUnits="userSpaceOnUse" x="47" y="8" width="107" height="114">
<path d="M121.359 8.624L47.0986 37.4492L79.6316 121.182L153.892 92.3566L121.359 8.624Z" fill="white"/>
</mask>
<g mask="url(#mask64_1138_1407)">
<path d="M97.2861 36.9036C100.171 37.61 102.836 38.0174 105.317 38.1287C105.458 38.1361 105.6 38.1408 105.74 38.1452C106.456 38.1691 107.158 38.1666 107.844 38.1382L107.845 38.138C107.888 38.1376 107.929 38.1358 107.97 38.133C109.231 38.0774 110.442 37.9384 111.611 37.7137C111.612 37.7135 111.612 37.7135 111.613 37.7129C111.629 37.7098 111.645 37.7071 111.661 37.704C114.726 37.1086 117.509 35.8868 119.767 34.1912C119.772 34.1869 119.775 34.1839 119.779 34.1813C120.435 33.6897 121.043 33.1578 121.604 32.5883L121.677 32.8244L121.86 33.3993C121.348 33.8964 120.797 34.3634 120.214 34.8027C120.209 34.8043 120.206 34.8073 120.202 34.8104C118.82 35.8452 117.251 36.7088 115.549 37.37C114.363 37.8304 113.108 38.1929 111.804 38.4467C111.802 38.4475 111.8 38.4467 111.797 38.4482L111.796 38.4489C110.42 38.7146 108.989 38.868 107.494 38.9078C106.958 38.9221 106.412 38.9214 105.859 38.906L105.857 38.9068C105.705 38.9024 105.555 38.8973 105.402 38.8895C104.902 38.8692 104.396 38.8374 103.883 38.7925C103.602 38.7684 103.318 38.741 103.034 38.7101C101.159 38.5059 99.1878 38.1476 97.105 37.6392C96.9023 37.5904 96.7778 37.3852 96.8272 37.1826C96.8781 36.9797 97.0833 36.8543 97.2861 36.9036Z" fill="#62B8AF"/>
</g>
</g>
</g>
<mask id="mask65_1138_1407" style="mask-type:luminance" maskUnits="userSpaceOnUse" x="91" y="29" width="31" height="14">
<path d="M91.6838 32.8612L120.678 29.0652L121.937 38.68L92.9426 42.476L91.6838 32.8612Z" fill="white"/>
</mask>
<g mask="url(#mask65_1138_1407)">
<mask id="mask66_1138_1407" style="mask-type:luminance" maskUnits="userSpaceOnUse" x="47" y="8" width="107" height="114">
<path d="M47.1301 37.4372L121.391 8.61204L153.924 92.3447L79.6631 121.17L47.1301 37.4372Z" fill="white"/>
</mask>
<g mask="url(#mask66_1138_1407)">
<mask id="mask67_1138_1407" style="mask-type:luminance" maskUnits="userSpaceOnUse" x="47" y="8" width="107" height="114">
<path d="M121.359 8.62388L47.0986 37.4491L79.6316 121.182L153.892 92.3565L121.359 8.62388Z" fill="white"/>
</mask>
<g mask="url(#mask67_1138_1407)">
<path d="M92.9462 41.6237C93.3387 41.5672 93.7318 41.5038 94.1233 41.4361C94.7381 41.3298 95.3497 41.2074 95.961 41.0742C95.9619 41.0735 95.9619 41.0735 95.9646 41.0742C97.1293 40.82 98.285 40.5242 99.4305 40.1982L99.4349 40.1966C99.4365 40.1974 99.4375 40.1967 99.439 40.196C99.6248 40.1438 99.8089 40.0898 99.9945 40.036C99.997 40.0352 99.998 40.0346 100.002 40.0346L100.006 40.033C101.316 39.6478 102.608 39.2292 103.883 38.7924C104.352 38.6334 104.818 38.4706 105.281 38.3068C105.432 38.2529 105.586 38.2003 105.74 38.1451C106.645 37.8211 107.589 37.4771 108.546 37.0993C108.549 37.1 108.55 37.0978 108.55 37.0978C108.553 37.0989 108.556 37.0975 108.556 37.0948L108.582 37.0853C110.646 36.273 112.779 35.3103 114.766 34.0946C117.105 32.6619 119.008 31.021 120.451 29.1956C120.566 29.4578 120.672 29.7283 120.772 30.0012C119.624 31.3837 118.219 32.6595 116.569 33.8161C116.569 33.8161 116.569 33.8183 116.567 33.8175C116.117 34.1345 115.648 34.4416 115.161 34.7398C113.136 35.9785 110.971 36.9574 108.882 37.7801L108.862 37.7885C108.757 37.8311 108.652 37.8717 108.547 37.9127C108.354 37.9876 108.162 38.0603 107.97 38.1328C107.25 38.4058 106.543 38.6624 105.859 38.9059L105.857 38.9067C105.748 38.9451 105.641 38.9819 105.534 39.0201C104.864 39.2566 104.188 39.4911 103.507 39.7197C102.217 40.1519 100.906 40.5667 99.5789 40.9417C99.5788 40.9443 99.578 40.9424 99.5765 40.9431C98.8215 41.1581 98.0616 41.3593 97.2962 41.5426C96.2588 41.794 95.2143 42.016 94.1618 42.1961C93.8333 42.2551 93.5059 42.3078 93.177 42.356L93.1014 42.114L92.9462 41.6237Z" fill="#62B8AF"/>
</g>
</g>
</g>
<mask id="mask68_1138_1407" style="mask-type:luminance" maskUnits="userSpaceOnUse" x="84" y="17" width="43" height="24">
<path d="M84.0759 22.2274L123.992 17.0015L126.425 35.5815L86.5084 40.8074L84.0759 22.2274Z" fill="white"/>
</mask>
<g mask="url(#mask68_1138_1407)">
<mask id="mask69_1138_1407" style="mask-type:luminance" maskUnits="userSpaceOnUse" x="47" y="8" width="107" height="114">
<path d="M47.1301 37.4372L121.391 8.61204L153.924 92.3447L79.6631 121.17L47.1301 37.4372Z" fill="white"/>
</mask>
<g mask="url(#mask69_1138_1407)">
<mask id="mask70_1138_1407" style="mask-type:luminance" maskUnits="userSpaceOnUse" x="47" y="8" width="107" height="114">
<path d="M121.359 8.62388L47.0986 37.4491L79.6316 121.182L153.892 92.3565L121.359 8.62388Z" fill="white"/>
</mask>
<g mask="url(#mask70_1138_1407)">
<path d="M117.732 18.5267C124.228 19.5063 127.55 24.5482 122.289 29.7747C115.54 36.4737 90.5807 44.0624 86.2041 35.3694C81.0227 25.0797 109.233 17.2473 117.732 18.5267Z" fill="#B0715C"/>
</g>
</g>
</g>
<mask id="mask71_1138_1407" style="mask-type:luminance" maskUnits="userSpaceOnUse" x="83" y="16" width="44" height="25">
<path d="M83.8439 21.465L123.76 16.2391L126.193 34.8191L86.2764 40.045L83.8439 21.465Z" fill="white"/>
</mask>
<g mask="url(#mask71_1138_1407)">
<mask id="mask72_1138_1407" style="mask-type:luminance" maskUnits="userSpaceOnUse" x="47" y="8" width="107" height="114">
<path d="M47.1301 37.4374L121.391 8.61216L153.924 92.3448L79.6631 121.17L47.1301 37.4374Z" fill="white"/>
</mask>
<g mask="url(#mask72_1138_1407)">
<mask id="mask73_1138_1407" style="mask-type:luminance" maskUnits="userSpaceOnUse" x="47" y="8" width="107" height="114">
<path d="M121.359 8.624L47.0986 37.4492L79.6316 121.182L153.892 92.3566L121.359 8.624Z" fill="white"/>
</mask>
<g mask="url(#mask73_1138_1407)">
<path d="M117.463 17.8327C123.959 18.8118 127.281 23.8547 122.019 29.0802C115.27 35.7797 90.311 43.3679 85.9344 34.6749C80.7531 24.3857 108.963 16.5527 117.463 17.8327Z" fill="#EA967A"/>
</g>
</g>
</g>
<mask id="mask74_1138_1407" style="mask-type:luminance" maskUnits="userSpaceOnUse" x="95" y="20" width="19" height="12">
<path d="M95.1738 23.1533L112.077 20.9404L113.114 28.8661L96.2115 31.0791L95.1738 23.1533Z" fill="white"/>
</mask>
<g mask="url(#mask74_1138_1407)">
<mask id="mask75_1138_1407" style="mask-type:luminance" maskUnits="userSpaceOnUse" x="47" y="8" width="107" height="114">
<path d="M47.1301 37.4372L121.391 8.61204L153.924 92.3447L79.6631 121.17L47.1301 37.4372Z" fill="white"/>
</mask>
<g mask="url(#mask75_1138_1407)">
<mask id="mask76_1138_1407" style="mask-type:luminance" maskUnits="userSpaceOnUse" x="47" y="8" width="107" height="114">
<path d="M121.359 8.62388L47.0986 37.4491L79.6316 121.182L153.892 92.3565L121.359 8.62388Z" fill="white"/>
</mask>
<g mask="url(#mask76_1138_1407)">
<path d="M109.397 21.6247C112.137 22.0377 113.54 24.1658 111.32 26.3712C108.471 29.1983 97.938 32.4012 96.0902 28.7326C93.9037 24.3903 105.809 21.0846 109.397 21.6247Z" fill="#B0715C"/>
</g>
</g>
</g>
<mask id="mask77_1138_1407" style="mask-type:luminance" maskUnits="userSpaceOnUse" x="97" y="51" width="30" height="11">
<path d="M97.6172 54.9476L126.092 51.2197L126.993 58.106L98.5188 61.8339L97.6172 54.9476Z" fill="white"/>
</mask>
<g mask="url(#mask77_1138_1407)">
<mask id="mask78_1138_1407" style="mask-type:luminance" maskUnits="userSpaceOnUse" x="47" y="8" width="107" height="114">
<path d="M47.1301 37.4372L121.391 8.61204L153.924 92.3447L79.6631 121.17L47.1301 37.4372Z" fill="white"/>
</mask>
<g mask="url(#mask78_1138_1407)">
<mask id="mask79_1138_1407" style="mask-type:luminance" maskUnits="userSpaceOnUse" x="47" y="8" width="107" height="114">
<path d="M121.359 8.62388L47.0986 37.4491L79.6316 121.182L153.892 92.3565L121.359 8.62388Z" fill="white"/>
</mask>
<g mask="url(#mask79_1138_1407)">
<path d="M109.183 59.5844C112.395 59.0782 115.482 57.831 118.37 56.5986C121.726 55.1654 124.235 53.4364 126.009 51.3281L125.44 53.0375C123.707 54.6924 121.47 56.0961 118.666 57.2949C117.748 57.6871 116.81 58.0804 115.852 58.4521C113.754 59.2668 111.565 59.9746 109.301 60.3315C105.833 60.8768 102.459 60.3433 99.2772 58.7456C99.2657 58.7409 99.255 58.7341 99.2429 58.7284C99.0847 58.5772 98.9315 58.4171 98.7831 58.2502C98.5348 57.976 98.2982 57.6797 98.0731 57.3612C98.0231 57.2914 97.975 57.2192 97.9268 57.1471C98.4801 57.4711 99.0426 57.782 99.6176 58.0702C102.699 59.6161 105.827 60.1111 109.183 59.5844Z" fill="#62B8AF"/>
</g>
</g>
</g>
<mask id="mask80_1138_1407" style="mask-type:luminance" maskUnits="userSpaceOnUse" x="96" y="50" width="31" height="10">
<path d="M96.944 53.8463L126.199 50.0162L126.964 55.8631L97.7094 59.6932L96.944 53.8463Z" fill="white"/>
</mask>
<g mask="url(#mask80_1138_1407)">
<mask id="mask81_1138_1407" style="mask-type:luminance" maskUnits="userSpaceOnUse" x="47" y="8" width="107" height="114">
<path d="M47.1301 37.4372L121.391 8.61204L153.924 92.3447L79.6631 121.17L47.1301 37.4372Z" fill="white"/>
</mask>
<g mask="url(#mask81_1138_1407)">
<mask id="mask82_1138_1407" style="mask-type:luminance" maskUnits="userSpaceOnUse" x="47" y="8" width="107" height="114">
<path d="M121.359 8.62388L47.0986 37.4491L79.6316 121.182L153.892 92.3565L121.359 8.62388Z" fill="white"/>
</mask>
<g mask="url(#mask82_1138_1407)">
<path d="M97.2905 55.6682C100.478 56.9798 104.05 57.621 107.628 57.4979C112.094 57.3437 116.669 56.0308 120.857 53.7041C122.732 52.6631 124.506 51.4355 126.141 50.0496C126.134 50.417 126.103 50.7706 126.049 51.1076C124.538 52.3301 122.921 53.4225 121.225 54.3652C119.925 55.0868 118.591 55.7141 117.231 56.2417C114.102 57.4561 110.852 58.1434 107.656 58.2537C104.209 58.3724 100.768 57.8024 97.6478 56.6219C97.5559 56.413 97.4618 56.1682 97.3697 55.902C97.3437 55.8264 97.3164 55.7474 97.2905 55.6682Z" fill="#62B8AF"/>
</g>
</g>
</g>
</svg>
