<svg width="695" height="695" viewBox="0 0 695 695" fill="none" xmlns="http://www.w3.org/2000/svg">
<path d="M541.626 335.284L522.104 384.917L595.746 413.881L615.267 364.248L541.626 335.284Z" fill="#EBEBEB"/>
<path d="M615.242 364.875C614.944 365.043 614.627 365.174 614.297 365.264L611.517 366.265L601.342 369.74L567.565 381.124L567.287 381.222L567.134 380.957L566.786 380.346L548.842 348.973L543.49 339.466L542.1 336.853C541.916 336.561 541.766 336.248 541.655 335.921C541.873 336.189 542.064 336.478 542.225 336.783L543.782 339.327L549.342 348.765L567.412 380.026L567.773 380.638L567.342 380.485L601.203 369.295L611.461 366.001L614.241 365.139C614.567 365.026 614.902 364.937 615.242 364.875Z" fill="#E0E0E0"/>
<path d="M522.071 385.558C521.988 385.391 530.202 380.763 540.419 375.23C550.635 369.698 559.017 365.348 559.114 365.5C559.212 365.653 550.997 370.296 540.766 375.828C530.536 381.36 522.168 385.739 522.071 385.558Z" fill="#E0E0E0"/>
<path d="M583.801 374.536C583.995 374.536 586.817 383.376 590.097 394.426C593.378 405.477 595.88 414.456 595.657 414.512C595.435 414.567 592.641 405.671 589.361 394.621C586.08 383.57 583.648 374.591 583.801 374.536Z" fill="#E0E0E0"/>
<path d="M298.223 544.105L227.423 579.451L251.245 627.169L322.046 591.823L298.223 544.105Z" fill="#EBEBEB"/>
<path d="M298.725 544.588C298.631 544.915 298.515 545.236 298.378 545.547L297.266 548.258C296.251 550.676 294.819 554.054 293.096 558.182L278.945 590.917L278.82 591.181H278.528L277.833 591.028L242.527 583.369L231.838 580.964L228.947 580.269C228.608 580.199 228.273 580.107 227.946 579.991C228.293 579.997 228.639 580.044 228.975 580.13L231.894 580.686L242.625 582.869L278 590.264L278.695 590.416L278.292 590.625C283.852 577.893 288.953 566.383 292.637 557.988C294.486 553.887 295.987 550.537 297.057 548.147C297.571 547.048 297.974 546.159 298.28 545.492C298.396 545.175 298.545 544.872 298.725 544.588Z" fill="#E0E0E0"/>
<path d="M251.743 627.655C251.549 627.655 253.606 618.411 256.33 607.11C259.055 595.81 261.445 586.677 261.626 586.733C261.807 586.789 259.764 595.976 257.039 607.277C254.315 618.578 251.924 627.696 251.743 627.655Z" fill="#E0E0E0"/>
<path d="M284.867 574.39C284.95 574.209 293.457 578.073 303.854 583.022C314.251 587.97 322.633 592.14 322.48 592.307C322.327 592.474 313.904 588.623 303.493 583.675C293.082 578.726 284.783 574.556 284.867 574.39Z" fill="#E0E0E0"/>
<path d="M181.91 364.986C208.82 347.027 215.381 313.056 214.811 282.42C214.714 277.305 215.367 271.926 212.976 267.394C210.586 262.863 204.873 259.721 200.202 261.834C196.324 263.572 194.642 267.964 192.376 271.564C189.411 276.409 185.137 280.317 180.047 282.837C176.725 284.477 172.625 285.45 169.4 283.629C164.966 281.127 164.535 275.025 164.646 269.938L165.271 241.512C165.383 236.439 165.48 231.24 163.882 226.389C162.283 221.538 158.891 217.007 154.013 215.589C149.134 214.171 143.018 216.854 141.906 221.816C141.447 223.873 141.906 225.986 141.669 228.141C141.433 230.295 140.46 232.575 138.417 233.131C136.373 233.687 134.316 232.227 132.857 230.712C127.616 225.5 124.114 218.828 120.847 212.211C117.581 205.595 114.397 198.798 109.727 193.127C105.057 187.455 98.3847 182.924 91.0038 182.396C83.6229 181.868 75.7138 186.246 73.7261 193.377C71.7384 200.507 75.8806 207.847 80.3981 213.712C87.1272 222.441 95.0867 230.148 104.028 236.592C105.64 237.759 107.378 239.01 107.962 240.901C109.032 244.306 105.724 247.628 102.318 248.699C98.4542 249.894 94.2981 249.449 90.281 249.852C86.2639 250.256 81.941 251.937 80.2869 255.663C78.1046 260.833 82.4275 266.338 86.6948 269.98C95.2666 277.246 105.01 283.003 115.509 287.007C119.276 288.397 123.252 289.69 126.268 292.359C129.284 295.027 131.05 299.628 129.145 303.187C127.241 306.745 122.487 307.815 118.526 307.037C114.564 306.259 111.048 304.062 107.295 302.603C100.261 299.823 91.1011 300.198 86.4446 306.175C83.4144 310.095 83.053 315.627 84.4986 320.381C86.1546 325.075 88.7406 329.387 92.1019 333.058C103.166 346.558 117.599 356.896 133.941 363.026C150.273 368.892 165.466 370.643 181.882 364.986" fill="#EBEBEB"/>
<path d="M174.126 345.693C169.222 328.934 163.356 312.473 156.556 296.39C154.777 292.09 153.021 287.855 151.288 283.685C149.537 279.515 147.813 275.345 145.881 271.467C142.121 263.916 137.944 256.579 133.371 249.491C129.076 242.694 124.725 236.397 120.638 230.532C116.552 224.666 112.576 219.3 108.782 214.533C102.817 206.988 96.2631 199.928 89.1827 193.419C86.6807 191.111 84.6791 189.374 83.3169 188.22L81.7462 186.913L81.2041 186.496C81.2041 186.496 81.357 186.663 81.7045 186.983L83.2196 188.373C84.6096 189.568 86.5139 191.32 88.9881 193.655C95.9861 200.23 102.482 207.32 108.42 214.866C112.187 219.634 116.093 225.041 120.18 230.893C124.266 236.745 128.52 243.083 132.843 249.88C137.371 256.954 141.506 264.272 145.228 271.801C147.16 275.72 148.869 279.807 150.607 283.991C152.344 288.175 154.096 292.331 155.875 296.682C162.666 312.738 168.541 329.166 173.472 345.888" fill="#E0E0E0"/>
<path d="M145.686 271.397C145.915 270.69 146.083 269.965 146.187 269.229C146.465 267.839 146.812 265.782 147.202 263.252C147.994 258.206 148.87 251.187 149.801 243.458C150.732 235.73 151.719 228.724 152.581 223.707C153.026 221.191 153.415 219.161 153.693 217.757C153.871 217.041 153.992 216.311 154.054 215.575C153.77 216.262 153.552 216.974 153.401 217.702C153.026 219.092 152.567 221.093 152.011 223.609C150.968 228.613 149.898 235.619 148.967 243.361C148.036 251.103 147.229 257.97 146.604 263.183C146.284 265.601 146.02 267.617 145.825 269.173C145.712 269.909 145.666 270.653 145.686 271.397Z" fill="#E0E0E0"/>
<path d="M79.6475 258.193C79.8709 258.249 80.0987 258.286 80.3286 258.304L82.2885 258.498C83.9843 258.665 86.4585 258.901 89.4748 259.277C95.5213 260 103.861 261.306 112.994 263.141C122.126 264.976 130.299 267.033 136.179 268.701C139.126 269.507 141.489 270.216 143.129 270.703L145.019 271.259C145.239 271.337 145.468 271.388 145.7 271.411C145.507 271.285 145.296 271.187 145.075 271.12L143.226 270.425C141.614 269.841 139.278 269.035 136.276 268.173C130.424 266.38 122.237 264.267 113.091 262.404C103.945 260.542 95.563 259.346 89.4609 258.762C86.4168 258.443 83.9009 258.29 82.2329 258.22H80.2591C80.0575 258.182 79.8516 258.173 79.6475 258.193Z" fill="#E0E0E0"/>
<path d="M173.403 344.456C173.585 344.212 173.734 343.946 173.848 343.664C174.154 343.052 174.543 342.274 175.016 341.301C176.003 339.257 177.379 336.255 179.019 332.53C182.313 325.093 186.553 314.668 191.084 303.103C195.616 291.539 199.772 281.1 202.927 273.608L206.722 264.753L207.736 262.335C207.871 262.059 207.978 261.77 208.056 261.473C207.872 261.718 207.719 261.984 207.597 262.265L206.444 264.628C205.443 266.672 204.081 269.674 202.44 273.399C199.132 280.836 194.907 291.261 190.375 302.825C185.844 314.39 181.688 324.829 178.519 332.321L174.738 341.175L173.709 343.594C173.574 343.868 173.471 344.158 173.403 344.456Z" fill="#E0E0E0"/>
<path d="M85.833 315.155C86.1146 315.295 86.4075 315.411 86.7087 315.502L89.2524 316.364L98.6905 319.492C106.614 322.146 117.511 325.941 129.549 330.167C141.586 334.392 152.511 338.104 160.49 340.633C164.465 341.884 167.704 342.885 169.956 343.525L172.541 344.247C172.837 344.354 173.145 344.424 173.459 344.456C173.18 344.308 172.887 344.192 172.583 344.108L170.039 343.233L160.657 340.105C152.734 337.464 141.836 333.67 129.799 329.444C117.761 325.218 106.836 321.507 98.8712 318.977C94.8819 317.712 91.6432 316.725 89.3914 316.086L86.806 315.349C86.4906 315.246 86.1639 315.181 85.833 315.155Z" fill="#E0E0E0"/>
<path d="M183.23 61.994H104.806C99.4017 61.994 95.0205 66.3752 95.0205 71.7796V110.519C95.0205 115.923 99.4017 120.305 104.806 120.305H183.23C188.634 120.305 193.016 115.923 193.016 110.519V71.7796C193.016 66.3752 188.634 61.994 183.23 61.994Z" fill="#E0E0E0"/>
<path d="M154.624 118.456L177.795 139.028L179.7 118.817" fill="#E0E0E0"/>
<path d="M131.272 91.9902C131.272 93.1201 130.937 94.2247 130.31 95.1642C129.682 96.1036 128.79 96.8359 127.746 97.2683C126.702 97.7007 125.553 97.8138 124.445 97.5934C123.337 97.3729 122.319 96.8288 121.52 96.0299C120.721 95.2309 120.177 94.213 119.956 93.1048C119.736 91.9966 119.849 90.8479 120.282 89.804C120.714 88.7601 121.446 87.8679 122.386 87.2401C123.325 86.6124 124.43 86.2773 125.56 86.2773C127.075 86.2773 128.528 86.8792 129.599 87.9506C130.671 89.022 131.272 90.4751 131.272 91.9902Z" fill="white"/>
<path d="M150.898 91.9903C150.898 93.1208 150.563 94.2258 149.935 95.1656C149.306 96.1054 148.413 96.8376 147.369 97.2696C146.324 97.7016 145.174 97.8139 144.066 97.5924C142.957 97.3708 141.939 96.8253 141.141 96.025C140.343 95.2246 139.8 94.2054 139.581 93.0963C139.362 91.9871 139.477 90.838 139.912 89.7944C140.346 88.7507 141.08 87.8595 142.022 87.2334C142.963 86.6073 144.069 86.2746 145.199 86.2774C145.949 86.2774 146.691 86.4252 147.384 86.7125C148.076 86.9998 148.705 87.4208 149.234 87.9515C149.764 88.4821 150.183 89.112 150.469 89.8051C150.754 90.4981 150.9 91.2407 150.898 91.9903Z" fill="white"/>
<path d="M170.54 91.9903C170.54 93.1208 170.205 94.2258 169.576 95.1656C168.948 96.1054 168.055 96.8376 167.01 97.2696C165.965 97.7016 164.816 97.8139 163.707 97.5924C162.599 97.3708 161.581 96.8253 160.783 96.025C159.984 95.2246 159.441 94.2054 159.222 93.0963C159.003 91.9871 159.119 90.838 159.553 89.7944C159.988 88.7507 160.722 87.8595 161.663 87.2334C162.605 86.6073 163.711 86.2746 164.841 86.2774C166.354 86.281 167.803 86.8846 168.872 87.9555C169.94 89.0265 170.54 90.4775 170.54 91.9903Z" fill="white"/>
<path d="M467.075 124.546L447.554 174.18L521.195 203.143L540.716 153.51L467.075 124.546Z" fill="#EBEBEB"/>
<path d="M540.711 154.151C540.412 154.321 540.095 154.456 539.765 154.554L536.985 155.541L526.811 159.058L493.02 170.442L492.742 170.539L492.589 170.275L492.241 169.663L474.282 138.291C472.058 134.316 470.224 131.077 468.917 128.742L467.527 126.129C467.343 125.835 467.189 125.522 467.068 125.197C467.29 125.465 467.486 125.754 467.652 126.059L469.195 128.603C470.585 130.91 472.434 134.163 474.755 138.041L492.825 169.302L493.173 169.927L492.756 169.761L526.602 158.641L536.874 155.332L539.654 154.471C539.998 154.338 540.351 154.231 540.711 154.151Z" fill="#E0E0E0"/>
<path d="M447.581 174.834C447.484 174.667 455.699 170.039 465.915 164.506C476.132 158.974 484.513 154.624 484.611 154.776C484.708 154.929 476.493 159.572 466.263 165.104C456.032 170.636 447.581 175.015 447.581 174.834Z" fill="#E0E0E0"/>
<path d="M509.282 163.812C509.463 163.812 512.285 172.666 515.565 183.702C518.845 194.739 521.361 203.746 521.125 203.802C520.889 203.857 518.123 194.948 514.842 183.911C511.562 172.874 509.088 163.867 509.282 163.812Z" fill="#E0E0E0"/>
<path d="M650.659 648.324C650.659 648.518 514.925 648.685 347.514 648.685C180.102 648.685 44.3408 648.518 44.3408 648.324C44.3408 648.129 180.047 647.962 347.514 647.962C514.981 647.962 650.659 648.115 650.659 648.324Z" fill="#263238"/>
<path d="M358.481 359.899C368.384 359.899 376.412 351.871 376.412 341.968C376.412 332.065 368.384 324.037 358.481 324.037C348.578 324.037 340.55 332.065 340.55 341.968C340.55 351.871 348.578 359.899 358.481 359.899Z" fill="#FF6464"/>
<path d="M420.197 359.899C430.1 359.899 438.128 351.871 438.128 341.968C438.128 332.065 430.1 324.037 420.197 324.037C410.294 324.037 402.266 332.065 402.266 341.968C402.266 351.871 410.294 359.899 420.197 359.899Z" fill="#FF6464"/>
<path d="M539.543 249.185C539.89 249.113 540.245 249.089 540.599 249.116C541.642 249.12 542.681 249.237 543.699 249.463C545.389 249.816 547.016 250.425 548.522 251.27C550.615 252.444 552.449 254.027 553.915 255.927C555.803 258.35 557.025 261.225 557.46 264.267C557.591 265.118 557.665 265.977 557.682 266.838C557.682 267.7 557.682 268.562 557.682 269.452C557.682 271.231 557.682 273.093 557.682 275.012C557.752 282.726 557.807 291.594 557.891 301.533C557.988 321.424 558.099 345.61 558.238 373.451C558.238 380.411 558.266 387.592 558.321 394.996C558.321 398.703 558.321 402.461 558.321 406.269C558.321 408.173 558.321 410.092 558.321 412.024C558.321 412.983 558.321 413.956 558.321 414.929C558.305 415.981 558.212 417.031 558.043 418.07C557.324 422.392 555.131 426.331 551.837 429.219C548.544 432.108 544.352 433.767 539.973 433.916L514.648 434L516.149 432.61C514.509 450.416 512.785 469.222 510.978 488.738L510.7 491.782L508.337 489.836L440.352 433.819L441.464 434.208L302.158 434.278H269.452C268.34 434.278 267.325 434.278 266.143 434.278C263.153 434.209 260.221 433.442 257.58 432.037C254.94 430.632 252.665 428.629 250.937 426.188C249.56 424.251 248.548 422.08 247.948 419.78C247.434 417.548 247.223 415.257 247.323 412.969C247.323 408.706 247.323 404.453 247.323 400.209C247.323 391.748 247.323 383.348 247.323 375.008C247.323 341.648 247.392 309.539 247.42 278.917C247.42 275.095 247.42 271.286 247.42 267.519C247.367 265.477 247.624 263.438 248.185 261.473C248.755 259.495 249.632 257.619 250.784 255.913C253.099 252.552 256.424 250.015 260.278 248.671C262.166 247.997 264.152 247.636 266.157 247.601C268.048 247.601 269.813 247.601 271.648 247.601L313.848 247.684L389.589 247.907L499.274 248.476L529.09 248.824L536.846 249.005C537.73 248.986 538.614 249.046 539.487 249.185C538.615 249.333 537.73 249.394 536.846 249.366L529.09 249.547L499.274 249.894L389.589 250.464L313.848 250.687L271.648 250.77C269.855 250.77 267.978 250.77 266.227 250.77C264.557 250.799 262.904 251.105 261.334 251.673C258.143 252.801 255.393 254.914 253.481 257.706C251.547 260.573 250.574 263.98 250.701 267.436C250.701 271.203 250.701 275.012 250.701 278.834C250.701 309.414 250.77 341.593 250.812 374.925C250.812 383.265 250.812 391.665 250.812 400.125V412.886C250.71 414.874 250.888 416.868 251.34 418.807C252.067 421.632 253.567 424.198 255.671 426.219C257.775 428.239 260.4 429.634 263.252 430.247C264.204 430.446 265.171 430.562 266.143 430.594C267.13 430.594 268.284 430.594 269.354 430.594H302.325L441.631 430.664H442.256L442.743 431.067L510.575 487.264L507.92 488.363C509.797 468.903 511.604 450.054 513.327 432.262L513.452 430.872H514.842H540.085C543.81 430.762 547.382 429.365 550.194 426.92C553.007 424.475 554.886 421.132 555.514 417.459C555.656 416.571 555.735 415.675 555.75 414.776C555.75 413.803 555.75 412.83 555.75 411.871C555.75 409.939 555.75 408.021 555.75 406.116C555.75 402.308 555.75 398.55 555.75 394.843C555.75 387.43 555.778 380.248 555.833 373.298C555.972 345.498 556.084 321.271 556.181 301.38C556.264 291.441 556.32 282.573 556.389 274.859C556.389 272.94 556.389 271.078 556.389 269.299C556.389 268.409 556.389 267.547 556.389 266.685C556.388 265.877 556.337 265.069 556.236 264.267C555.879 261.404 554.793 258.68 553.081 256.358C551.731 254.506 550.025 252.942 548.063 251.757C546.636 250.887 545.091 250.227 543.476 249.797C540.974 249.241 539.543 249.324 539.543 249.185Z" fill="#FF6464"/>
<path d="M153.804 338.423H424.548C429.488 338.423 434.225 340.386 437.718 343.879C441.211 347.372 443.174 352.109 443.174 357.049V503.083C443.174 508.023 441.211 512.76 437.718 516.253C434.225 519.746 429.488 521.709 424.548 521.709H153.804C148.867 521.709 144.133 519.748 140.643 516.257C137.152 512.767 135.191 508.033 135.191 503.097V357.049C135.19 354.604 135.67 352.182 136.604 349.923C137.539 347.663 138.909 345.609 140.638 343.88C142.366 342.15 144.419 340.778 146.678 339.841C148.937 338.905 151.358 338.423 153.804 338.423Z" fill="#62B8AF"/>
<path d="M322.535 515.843L395.357 580.506L401.334 516.997" fill="#62B8AF"/>
<path d="M231.185 450.582C241.088 450.582 249.116 442.554 249.116 432.651C249.116 422.748 241.088 414.72 231.185 414.72C221.282 414.72 213.254 422.748 213.254 432.651C213.254 442.554 221.282 450.582 231.185 450.582Z" fill="white"/>
<path d="M292.901 450.582C302.804 450.582 310.832 442.554 310.832 432.651C310.832 422.748 302.804 414.72 292.901 414.72C282.998 414.72 274.97 422.748 274.97 432.651C274.97 442.554 282.998 450.582 292.901 450.582Z" fill="white"/>
<path d="M354.617 450.582C364.52 450.582 372.548 442.554 372.548 432.651C372.548 422.748 364.52 414.72 354.617 414.72C344.714 414.72 336.686 422.748 336.686 432.651C336.686 442.554 344.714 450.582 354.617 450.582Z" fill="white"/>
<g opacity="0.3">
<path d="M431.678 339.16L402.738 338.312H178.948C197.546 356.813 224.137 366.71 250.255 368.989C276.373 371.269 302.63 367.294 328.471 362.818C354.311 358.342 380.262 353.338 406.491 353.533C412.051 353.533 417.764 353.811 422.907 351.753C428.05 349.696 432.443 344.72 431.678 339.16Z" fill="black"/>
</g>
<path d="M481.913 359.899C491.816 359.899 499.844 351.871 499.844 341.968C499.844 332.065 491.816 324.037 481.913 324.037C472.01 324.037 463.982 332.065 463.982 341.968C463.982 351.871 472.01 359.899 481.913 359.899Z" fill="#FF6464"/>
<path d="M327.387 78.3125C320.165 78.4219 313.162 80.8139 307.382 85.1458C301.602 89.4778 297.341 95.5276 295.209 102.429C293.179 109.56 293.583 117.149 292.276 124.46C290.969 131.772 287.286 139.417 280.35 142.058C275.832 143.768 270.62 143.059 266.172 144.838C264.08 145.676 262.231 147.027 260.796 148.765C259.361 150.503 258.385 152.573 257.958 154.786C257.53 156.999 257.665 159.284 258.35 161.432C259.034 163.579 260.247 165.521 261.877 167.078C259.129 169.445 257.287 172.692 256.664 176.265C256.042 179.838 256.677 183.516 258.462 186.674C260.247 189.831 263.072 192.271 266.454 193.58C269.837 194.888 273.569 194.983 277.014 193.849C274.442 198.019 275.29 203.579 278.306 207.388C281.518 211.08 286.05 213.366 290.928 213.754C295.757 214.116 300.613 213.679 305.3 212.461C315.836 210.126 326.4 206.373 334.323 199.048C343.011 191.014 347.612 179.588 351.101 168.232C357.745 146.617 361.289 123.335 355.855 101.387" fill="#263238"/>
<path d="M278.946 198.77L267.228 224.388L241.583 167.87C240.374 163.297 239.011 158.14 238.733 157.112C238.32 155.53 238.174 153.89 238.302 152.261C238.388 150.237 238.752 148.235 239.387 146.311C240.151 144.602 238.441 142.864 236.968 143.698C235.495 144.532 233.285 149.258 233.354 155.193C233.424 161.129 212.754 146.951 209.404 150.315L211.906 170.192C214.172 172.263 220.566 177.976 224.124 181.131L248.31 241.318C249.666 245.022 252.053 248.261 255.191 250.652C258.329 253.042 262.085 254.484 266.017 254.807C269.948 255.13 273.889 254.321 277.375 252.475C280.861 250.629 283.746 247.823 285.688 244.39L301.269 216.923L278.946 198.77Z" fill="#FFBE9D"/>
<path d="M224.611 132.05C224.712 132.014 224.819 131.999 224.926 132.008C225.033 132.016 225.138 132.047 225.232 132.098C225.326 132.149 225.409 132.219 225.474 132.304C225.54 132.39 225.586 132.488 225.611 132.592L238.914 172.082C239.039 172.427 239.044 172.804 238.928 173.153C238.812 173.501 238.582 173.8 238.274 174L222.484 182.854C222.324 182.938 222.148 182.984 221.968 182.99C221.787 182.996 221.608 182.962 221.443 182.89C221.278 182.818 221.131 182.71 221.013 182.574C220.895 182.438 220.808 182.278 220.76 182.104L205.804 141.224C205.654 140.856 205.65 140.444 205.792 140.073C205.934 139.701 206.211 139.397 206.568 139.222L224.611 132.05Z" fill="#263238"/>
<path d="M225.041 134.955L237.273 170.178L221.636 178.518L208.194 141.641L225.041 134.955Z" fill="#F5F5F5"/>
<path d="M211.183 144.032C211.656 145.241 212.434 147.187 212.921 148.396C212.977 148.538 213.062 148.668 213.169 148.777C213.276 148.886 213.404 148.972 213.546 149.03C213.687 149.089 213.839 149.118 213.992 149.117C214.145 149.115 214.296 149.083 214.436 149.022L222.776 145.533L225.653 145.95L224.847 144.435L225.792 144.046C225.935 143.989 226.064 143.905 226.173 143.798C226.282 143.69 226.368 143.562 226.426 143.421C226.485 143.279 226.514 143.128 226.513 142.975C226.511 142.822 226.479 142.671 226.418 142.53L224.722 138.569C224.603 138.294 224.38 138.076 224.101 137.965C223.823 137.853 223.511 137.855 223.235 137.971L211.865 142.558C211.721 142.608 211.59 142.686 211.477 142.787C211.365 142.889 211.274 143.012 211.21 143.15C211.147 143.288 211.112 143.437 211.107 143.588C211.102 143.74 211.128 143.89 211.183 144.032Z" fill="#E0E0E0"/>
<path d="M218.231 164.854L219.968 169.205C220.024 169.345 220.108 169.473 220.215 169.581C220.321 169.689 220.448 169.774 220.588 169.832C220.727 169.891 220.877 169.92 221.029 169.92C221.18 169.92 221.33 169.889 221.469 169.83L229.809 166.341L232.687 166.758L231.88 165.243L232.826 164.854C232.968 164.798 233.097 164.713 233.206 164.606C233.315 164.499 233.401 164.37 233.46 164.229C233.518 164.088 233.547 163.936 233.546 163.783C233.544 163.63 233.512 163.479 233.451 163.339L231.755 159.391C231.699 159.254 231.616 159.13 231.511 159.025C231.407 158.92 231.282 158.836 231.146 158.78C231.009 158.723 230.862 158.693 230.714 158.693C230.566 158.694 230.419 158.723 230.282 158.78L218.898 163.367C218.755 163.419 218.625 163.499 218.514 163.603C218.403 163.707 218.313 163.831 218.251 163.97C218.189 164.108 218.155 164.258 218.152 164.41C218.148 164.562 218.175 164.713 218.231 164.854Z" fill="#E0E0E0"/>
<path d="M227.961 148.952C228.489 150.134 229.351 152.066 229.851 153.247C229.912 153.387 229.945 153.537 229.948 153.689C229.95 153.842 229.922 153.993 229.865 154.134C229.808 154.275 229.723 154.404 229.616 154.512C229.508 154.62 229.38 154.705 229.239 154.763L220.899 158.238L219.19 160.587L218.662 158.933L217.73 159.35C217.591 159.409 217.441 159.44 217.289 159.442C217.137 159.443 216.986 159.415 216.846 159.358C216.705 159.301 216.577 159.217 216.469 159.111C216.36 159.004 216.274 158.878 216.215 158.738L214.575 154.749C214.463 154.47 214.465 154.159 214.579 153.881C214.693 153.603 214.911 153.381 215.187 153.261L226.432 148.369C226.57 148.304 226.72 148.268 226.872 148.263C227.025 148.257 227.177 148.282 227.32 148.337C227.462 148.391 227.593 148.474 227.703 148.58C227.813 148.685 227.9 148.812 227.961 148.952Z" fill="#E0E0E0"/>
<path d="M209.404 151.301C212.087 151.746 215.381 152.01 218.064 152.455C218.838 152.522 219.585 152.769 220.246 153.178C220.566 153.395 220.801 153.715 220.912 154.084C221.023 154.454 221.004 154.85 220.858 155.207C220.427 155.986 219.371 156.041 218.481 156.013C216.507 156.013 214.311 156.375 212.337 156.305C214.867 156.528 217.202 156.736 220.024 157.07C220.623 157.128 221.184 157.388 221.616 157.807C222.048 158.227 222.325 158.78 222.401 159.377C222.357 159.882 222.136 160.356 221.778 160.714C221.419 161.073 220.946 161.293 220.441 161.337C219.404 161.409 218.364 161.409 217.327 161.337C217.327 161.337 213.255 161.337 213.074 161.921C215.618 161.921 218.968 162.449 221.511 162.685C222.206 162.685 222.512 163.686 222.679 164.367C222.78 164.702 222.763 165.061 222.632 165.385C222.5 165.708 222.262 165.977 221.956 166.147C221.634 166.253 221.293 166.291 220.955 166.258C217.661 166.16 215.951 166.369 212.615 166.258" fill="#FFBE9D"/>
<path d="M270.411 242.68C270.666 239.504 270.554 236.309 270.077 233.159C269.36 230.051 268.282 227.037 266.866 224.179C267.539 224.863 268.09 225.658 268.493 226.528C269.581 228.563 270.355 230.752 270.786 233.02C271.235 235.308 271.324 237.653 271.05 239.97C270.999 240.904 270.783 241.822 270.411 242.68Z" fill="#EB996E"/>
<path d="M222.123 163.103C220.204 163.243 218.275 163.14 216.382 162.797C214.811 162.644 213.366 162.324 212.407 162.324C211.877 162.358 211.36 162.505 210.892 162.755C210.892 162.755 210.892 162.56 211.142 162.338C211.483 162.038 211.912 161.857 212.365 161.824C213.737 161.782 215.109 161.866 216.465 162.074C218.386 162.185 220.286 162.531 222.123 163.103Z" fill="#EB996E"/>
<path d="M221.219 157.334C219.319 157.475 217.409 157.377 215.534 157.042C213.977 156.889 212.545 156.556 211.614 156.583C210.683 156.611 210.224 157.153 210.141 157.07C210.057 156.987 210.405 156.278 211.531 156.083C212.149 155.999 212.775 155.999 213.393 156.083L215.59 156.319C217.501 156.422 219.392 156.763 221.219 157.334Z" fill="#EB996E"/>
<path d="M300.532 276.415C300.532 276.415 215.937 270.021 191.459 289.176C166.981 308.33 178.699 339.216 178.699 339.216H317.032L322.341 275.415L300.532 276.415Z" fill="#263238"/>
<path d="M316.448 320.353C316.034 320.363 315.62 320.335 315.211 320.27C314.404 320.173 313.209 320.061 311.694 319.853C308.636 319.464 304.216 318.838 298.781 317.921C284.631 315.487 270.634 312.238 256.858 308.191C248.81 305.8 241.165 303.423 234.118 301.63C227.89 300.02 221.523 299.01 215.103 298.614C210.775 298.374 206.433 298.626 202.162 299.364C200.633 299.559 199.493 299.934 198.701 300.073C198.299 300.18 197.89 300.259 197.478 300.309C197.861 300.153 198.256 300.028 198.659 299.934C199.792 299.591 200.943 299.308 202.106 299.086C206.392 298.232 210.765 297.9 215.131 298.099C221.591 298.426 228.002 299.395 234.271 300.991C241.36 302.7 249.019 305.161 257.067 307.482C270.813 311.517 284.76 314.834 298.85 317.42C304.257 318.393 308.664 319.102 311.694 319.575L315.197 320.117C316.031 320.256 316.448 320.339 316.448 320.353Z" fill="#455A64"/>
<path d="M236.606 301.296C234.232 299.308 231.688 297.531 229.003 295.987C226.206 294.652 223.293 293.572 220.302 292.762C221.238 292.696 222.179 292.794 223.082 293.054C225.269 293.529 227.382 294.296 229.365 295.333C231.343 296.376 233.175 297.675 234.813 299.197C235.525 299.791 236.131 300.501 236.606 301.296Z" fill="#455A64"/>
<path d="M361.762 268.451C361.762 268.451 284.38 270.55 259.902 289.704C235.424 308.858 247.142 339.744 247.142 339.744L392.258 341.94V323.244L373.438 321.215L373.299 320.353C380.596 312.361 375.036 284.505 362.888 269.813L361.762 268.451Z" fill="#263238"/>
<path d="M383.487 322.48C383.073 322.479 382.659 322.446 382.25 322.383C381.444 322.299 380.262 322.174 378.733 321.98C375.675 321.59 371.255 320.965 365.834 320.034C351.678 317.609 337.675 314.36 323.898 310.304C315.836 307.913 308.219 305.494 301.158 303.757C294.94 302.135 288.582 301.111 282.17 300.699C277.842 300.459 273.501 300.711 269.229 301.449C267.7 301.644 266.56 302.033 265.768 302.172C265.367 302.28 264.958 302.354 264.545 302.394C264.928 302.24 265.323 302.119 265.726 302.033C266.86 301.686 268.01 301.398 269.174 301.171C273.453 300.339 277.816 300.027 282.17 300.24C288.627 300.529 295.038 301.46 301.31 303.02C308.413 304.744 316.058 307.19 324.106 309.525C337.861 313.55 351.817 316.849 365.918 319.408C371.325 320.395 375.731 321.104 378.775 321.576L382.278 322.119C382.691 322.202 383.096 322.323 383.487 322.48Z" fill="#455A64"/>
<path d="M303.646 303.354C301.27 301.363 298.726 299.582 296.042 298.03C293.239 296.71 290.328 295.631 287.341 294.805C288.278 294.74 289.22 294.844 290.121 295.111C294.517 296.066 298.575 298.188 301.866 301.255C302.571 301.851 303.173 302.56 303.646 303.354Z" fill="#455A64"/>
<path d="M321.758 271.662C321.366 271.764 320.966 271.834 320.563 271.87L317.115 272.357C314.141 272.801 309.832 273.524 304.605 274.581C299.379 275.637 293.041 277.013 286.104 278.667C278.588 280.401 271.382 283.279 264.74 287.202C261.324 289.246 258.197 291.738 255.441 294.61C252.899 297.308 250.734 300.338 249.005 303.618C246.085 309.197 244.537 315.391 244.488 321.688C244.45 325.927 245.069 330.147 246.323 334.198C246.767 335.588 247.184 336.727 247.476 337.464C247.636 337.836 247.776 338.217 247.893 338.604C247.671 338.263 247.485 337.899 247.337 337.52C246.855 336.463 246.428 335.382 246.059 334.281C244.353 329.218 243.683 323.863 244.089 318.535C244.495 313.208 245.968 308.017 248.422 303.27C250.153 299.924 252.338 296.832 254.913 294.082C257.709 291.156 260.888 288.621 264.365 286.548C271.047 282.594 278.308 279.709 285.882 278C292.832 276.374 299.129 275.067 304.439 274.066C309.748 273.065 314.085 272.426 317.074 272.065C318.575 271.884 319.742 271.759 320.549 271.703C320.951 271.668 321.354 271.654 321.758 271.662Z" fill="#455A64"/>
<path d="M392.259 324.176L405.492 323.342L414.262 328.443L431.068 330.278C439.116 330.695 440.394 339.355 435.446 339.355C431.512 339.355 407.98 340.884 407.98 340.884L392.259 341.301V324.176Z" fill="#E0E0E0"/>
<path d="M413.762 328.471C413.187 328.969 412.484 329.297 411.732 329.416C409.933 329.867 408.038 329.75 406.308 329.08C404.579 328.41 403.099 327.222 402.072 325.677C401.593 325.088 401.294 324.374 401.21 323.62C401.307 323.62 401.655 324.343 402.489 325.385C403.555 326.737 404.966 327.778 406.572 328.399C408.178 329.02 409.922 329.199 411.621 328.916C412.942 328.707 413.72 328.36 413.762 328.471Z" fill="#455A64"/>
<path d="M434.765 339.16C434.765 339.243 434.097 339.41 433.152 338.924C432.576 338.565 432.081 338.091 431.698 337.531C431.315 336.971 431.053 336.338 430.928 335.671C430.533 334.373 430.657 332.973 431.276 331.765C431.804 330.848 432.443 330.584 432.485 330.667C432.527 330.751 432.082 331.14 431.734 332.057C431.315 333.187 431.281 334.423 431.637 335.574C431.851 336.748 432.483 337.805 433.416 338.548C434.153 339.049 434.779 339.077 434.765 339.16Z" fill="#455A64"/>
<path d="M304.41 163.144C304.41 163.144 287.911 199.409 288.884 205.567C289.857 211.725 294.68 236.3 294.68 236.3L298.169 276.276C298.169 276.276 360.483 268.729 361.776 268.729C363.068 268.729 359.83 235.661 359.83 235.661L369.323 172.11C369.323 172.11 364.973 163.45 345.346 160.448C333.6 158.627 304.41 163.144 304.41 163.144Z" fill="#FFE162"/>
<path d="M349.961 212.017C350.756 218.482 352.75 224.742 355.841 230.476C357.036 232.63 358.148 235.661 360.122 237.134C363.208 239.455 367.642 237.273 370.436 234.618C373.23 231.963 376.065 228.599 379.915 228.46C382.376 228.377 384.655 229.656 387.06 230.17C389.465 230.684 392.62 229.892 393.134 227.501C393.289 226.089 392.956 224.666 392.189 223.47C386.292 211.755 381.777 199.393 378.734 186.635C377.451 183.012 375.812 179.524 373.841 176.224C372.451 173.875 368.865 170.47 365.334 167.606" fill="#FFE162"/>
<path d="M316.17 160.74C299.017 161.337 286.16 172.68 282.504 180.853C278.209 190.444 274.873 202.036 269.841 211.266C268.711 212.985 267.836 214.857 267.242 216.826C266.964 217.823 266.996 218.881 267.334 219.859C267.672 220.837 268.299 221.689 269.132 222.303C271.717 223.832 275.47 221.844 277.847 223.693C279.154 224.693 279.543 226.473 280.627 227.724C282.017 229.211 284.2 229.517 286.187 229.739L297.766 230.99" fill="#FFE162"/>
<path d="M346.111 196.129C345.83 195.696 345.606 195.229 345.444 194.739C344.947 193.434 344.602 192.077 344.415 190.694C343.735 186.067 344.673 181.348 347.072 177.333C349.47 173.319 353.182 170.256 357.578 168.662C358.885 168.177 360.242 167.841 361.623 167.662C362.13 167.582 362.646 167.582 363.152 167.662C361.318 168.044 359.515 168.564 357.759 169.219C353.546 170.875 350.002 173.881 347.68 177.767C345.358 181.653 344.391 186.199 344.929 190.694C345.195 192.531 345.59 194.347 346.111 196.129Z" fill="#263238"/>
<path d="M299.003 181.923C298.762 182.551 298.465 183.156 298.113 183.73C297.794 184.3 297.418 184.995 297.043 185.829C296.668 186.663 296.167 187.58 295.737 188.609C294.667 191.091 293.761 193.64 293.026 196.24C292.144 199.43 291.507 202.683 291.122 205.97C290.777 209.257 290.674 212.565 290.816 215.867C290.951 218.562 291.262 221.246 291.747 223.901C291.928 225.041 292.192 226.042 292.387 226.945C292.581 227.849 292.79 228.599 292.97 229.225C293.176 229.865 293.329 230.52 293.429 231.185C293.122 230.585 292.875 229.957 292.692 229.308C292.422 228.566 292.19 227.809 291.997 227.042C291.761 226.153 291.455 225.138 291.247 223.998C290.684 221.327 290.317 218.619 290.149 215.895C289.731 209.208 290.488 202.499 292.387 196.073C293.159 193.457 294.126 190.901 295.278 188.428C295.694 187.479 296.158 186.551 296.668 185.648C297.024 184.942 297.419 184.255 297.849 183.591C298.181 183.001 298.568 182.442 299.003 181.923Z" fill="#263238"/>
<path d="M392.119 222.595C392.119 222.595 392.119 222.747 391.98 222.998C391.782 223.363 391.513 223.684 391.188 223.943C389.918 224.83 388.351 225.184 386.823 224.93C384.877 224.707 382.862 223.54 380.513 223.123C379.23 222.959 377.926 223.081 376.696 223.48C375.466 223.878 374.339 224.545 373.396 225.43C371.214 227.182 369.435 229.308 367.336 230.74C366.362 231.461 365.257 231.985 364.083 232.283C363.054 232.488 362.002 232.554 360.956 232.477C359.443 232.411 357.971 231.967 356.674 231.185C356.33 230.952 356.025 230.666 355.771 230.337C355.623 230.096 355.553 229.971 355.562 229.962C355.956 230.321 356.379 230.646 356.827 230.935C358.119 231.596 359.546 231.948 360.997 231.963C361.991 232.002 362.986 231.913 363.958 231.699C365.049 231.393 366.072 230.884 366.974 230.198C368.948 228.808 370.686 226.681 372.965 224.86C374.072 223.956 375.322 223.242 376.663 222.747C377.943 222.299 379.321 222.203 380.652 222.469C383.154 223.012 385.114 224.165 386.907 224.415C388.335 224.712 389.822 224.464 391.077 223.72C391.477 223.397 391.828 223.018 392.119 222.595Z" fill="#FAFAFA"/>
<path d="M388.144 214.463C388.143 214.599 388.11 214.732 388.047 214.852C387.891 215.205 387.658 215.518 387.366 215.77C386.796 216.206 386.135 216.508 385.433 216.655C384.73 216.802 384.004 216.789 383.307 216.618C381.528 216.326 379.693 215.158 377.497 215.047C375.063 215.084 372.701 215.881 370.742 217.327C368.573 218.786 366.711 220.51 364.778 221.816C363.094 223.047 361.14 223.857 359.079 224.179C357.666 224.396 356.22 224.208 354.909 223.637C354.426 223.452 353.993 223.157 353.645 222.775C353.645 222.775 354.117 223.053 355.035 223.387C356.305 223.817 357.664 223.913 358.982 223.665C360.945 223.301 362.793 222.476 364.375 221.26C366.238 219.967 368.073 218.23 370.311 216.729C372.392 215.195 374.912 214.372 377.497 214.38C378.613 214.483 379.705 214.759 380.736 215.2C381.592 215.571 382.475 215.877 383.377 216.117C384.011 216.298 384.677 216.341 385.329 216.242C385.981 216.144 386.605 215.907 387.157 215.547C387.54 215.238 387.873 214.873 388.144 214.463Z" fill="#FAFAFA"/>
<path d="M290.761 225.027C290.761 225.027 290.511 225.402 289.76 225.569C289.235 225.651 288.699 225.622 288.187 225.483C287.674 225.344 287.197 225.099 286.785 224.763C285.663 223.724 284.78 222.453 284.2 221.038C283.899 220.229 283.427 219.495 282.819 218.883C282.21 218.272 281.477 217.798 280.669 217.493C278.913 217.215 277.118 217.309 275.401 217.771C273.897 218.137 272.32 218.065 270.856 217.563C270.362 217.37 269.912 217.08 269.533 216.71C269.153 216.339 268.851 215.897 268.646 215.408C268.382 214.699 268.521 214.268 268.549 214.282C268.576 214.296 268.549 214.685 268.896 215.297C269.372 216.131 270.132 216.768 271.037 217.09C272.428 217.476 273.899 217.476 275.29 217.09C277.097 216.575 278.997 216.47 280.85 216.784C281.839 217.049 282.719 217.618 283.366 218.411C283.919 219.122 284.385 219.897 284.756 220.718C285.278 222.072 286.062 223.31 287.063 224.36C287.784 224.991 288.72 225.32 289.677 225.277C290.044 225.22 290.406 225.136 290.761 225.027Z" fill="#FAFAFA"/>
<path d="M288.661 216.84C288.661 216.84 288.356 217.007 287.827 216.84C287.098 216.56 286.485 216.04 286.09 215.367C285.645 214.439 285.01 213.615 284.227 212.948C283.08 212.442 281.791 212.353 280.585 212.698C279.248 212.983 277.865 212.983 276.527 212.698C275.429 212.442 274.394 211.969 273.483 211.308C272.601 210.778 271.895 209.999 271.453 209.07C271.564 208.986 272.232 209.946 273.774 210.891C275.789 212.103 278.194 212.491 280.488 211.975C281.853 211.601 283.309 211.744 284.575 212.378C285.444 213.132 286.117 214.086 286.535 215.158C286.846 215.773 287.329 216.285 287.925 216.631C288.356 216.84 288.661 216.84 288.661 216.84Z" fill="#FAFAFA"/>
<path d="M353.978 224.026C353.978 224.026 353.102 223.845 351.532 223.484C349.961 223.123 347.681 222.581 344.846 222.094C343.456 221.844 341.871 221.58 340.203 221.371C338.436 221.118 336.647 221.048 334.866 221.163C332.917 221.428 331.034 222.045 329.306 222.984C327.471 223.901 325.622 225.013 323.621 226C321.675 227.021 319.542 227.635 317.352 227.807C315.319 227.889 313.285 227.664 311.319 227.14C308.102 226.14 304.824 225.346 301.506 224.763C299.268 224.426 296.983 224.641 294.848 225.388C294.096 225.729 293.363 226.11 292.651 226.528C292.651 226.528 292.79 226.361 293.124 226.083C293.627 225.709 294.167 225.387 294.736 225.124C296.895 224.258 299.24 223.957 301.547 224.249C304.905 224.761 308.222 225.513 311.472 226.5C313.379 226.982 315.345 227.187 317.31 227.112C319.404 226.924 321.44 226.324 323.301 225.347C325.261 224.388 327.109 223.276 328.986 222.344C330.792 221.386 332.755 220.76 334.782 220.496C336.613 220.394 338.448 220.487 340.259 220.774C341.955 221.01 343.511 221.302 344.929 221.594C347.709 222.191 350.031 222.803 351.587 223.248C352.366 223.484 352.977 223.665 353.367 223.818C353.756 223.971 353.992 223.998 353.978 224.026Z" fill="#FAFAFA"/>
<path d="M355.41 231.004C355.41 231.004 354.576 230.67 353.103 230.045C351.629 229.419 349.461 228.558 346.736 227.724C345.258 227.254 343.742 226.91 342.205 226.695C340.452 226.545 338.688 226.777 337.034 227.376C333.49 228.585 330.084 231.185 325.914 232.825C323.87 233.605 321.694 233.983 319.506 233.937C317.499 233.894 315.5 233.68 313.529 233.298C310.261 232.552 306.945 232.036 303.605 231.755C301.361 231.612 299.11 231.9 296.974 232.603C295.473 233.145 294.736 233.659 294.695 233.603C294.653 233.548 294.862 233.437 295.209 233.2C295.734 232.866 296.288 232.577 296.863 232.338C299.015 231.51 301.316 231.141 303.619 231.254C306.99 231.456 310.341 231.921 313.64 232.644C317.338 233.27 321.619 233.77 325.65 232.158C329.681 230.545 333.073 227.988 336.77 226.751C338.517 226.139 340.379 225.925 342.219 226.125C343.788 226.352 345.333 226.724 346.834 227.237C348.993 227.963 351.105 228.822 353.158 229.809C353.881 230.156 354.437 230.448 354.798 230.657C355.016 230.746 355.222 230.863 355.41 231.004Z" fill="#FAFAFA"/>
<path d="M336.839 228.516C336.839 228.516 336.492 228.627 335.838 228.683C334.912 228.758 333.98 228.735 333.058 228.613C331.682 228.45 330.329 228.128 329.027 227.654C327.438 227.064 325.926 226.285 324.524 225.333C323.137 224.346 321.873 223.198 320.757 221.913C319.858 220.86 319.088 219.702 318.463 218.466C318.023 217.645 317.674 216.778 317.421 215.881C317.254 215.255 317.171 214.894 317.226 214.88C317.282 214.866 317.754 216.27 318.908 218.23C319.583 219.388 320.37 220.477 321.257 221.482C322.369 222.691 323.604 223.781 324.941 224.735C326.294 225.659 327.743 226.432 329.264 227.042C330.518 227.525 331.817 227.883 333.142 228.113C335.393 228.488 336.839 228.377 336.839 228.516Z" fill="#263238"/>
<g opacity="0.3">
<path d="M317.268 216.381C318.213 221.552 320.187 226.709 323.953 230.379C327.72 234.048 333.544 235.939 338.437 233.979C338.972 233.832 339.464 233.558 339.87 233.18C340.277 232.803 340.586 232.333 340.772 231.81C340.834 231.175 340.682 230.537 340.339 229.998C339.997 229.459 339.484 229.05 338.882 228.836C337.659 228.454 336.381 228.28 335.101 228.321C331.454 228.078 327.93 226.907 324.863 224.919C321.795 222.932 319.286 220.194 317.573 216.965" fill="black"/>
</g>
<path d="M358.023 237.009C357.755 236.578 357.553 236.11 357.425 235.619C357.077 234.743 356.605 233.464 356.035 231.88C354.923 228.697 353.491 224.29 352.046 219.37C350.6 214.449 349.446 209.946 348.668 206.679C348.279 205.039 347.987 203.718 347.806 202.787C347.683 202.333 347.613 201.867 347.598 201.397C347.824 201.836 347.988 202.303 348.084 202.787C348.39 203.843 348.751 205.108 349.168 206.61C350.058 209.848 351.309 214.31 352.741 219.231C354.172 224.151 355.521 228.572 356.521 231.741C356.966 233.228 357.355 234.521 357.675 235.549C357.845 236.022 357.961 236.511 358.023 237.009Z" fill="#263238"/>
<path d="M295.278 276.805C295.278 276.805 307.288 263.933 317.796 261.403C328.305 258.874 365.946 245.571 365.946 245.571L363.569 238.079C365.991 237.822 368.238 236.696 369.894 234.91L372.326 232.491C375.634 228.877 379.624 226.931 385.406 228.891L389.048 229.975L392.842 241.095C393.727 243.689 394.027 246.445 393.721 249.168C393.414 251.891 392.509 254.512 391.07 256.844C389.631 259.176 387.694 261.16 385.398 262.655C383.102 264.15 380.503 265.118 377.789 265.49L295.278 276.805Z" fill="#FFBE9D"/>
<path d="M381.555 247.17C379.065 246.339 376.507 245.725 373.91 245.335C371.305 245.178 368.691 245.252 366.099 245.557C368.625 244.656 371.322 244.333 373.989 244.612C376.657 244.891 379.229 245.765 381.514 247.17H381.555Z" fill="#EB996E"/>
<path d="M297.086 100.858C296.071 83.3999 318.811 71.1402 334.338 75.5187C348.919 79.6887 355.188 86.8888 357.537 96.6466C359.886 106.404 359.816 116.968 355.994 126.268C354.103 130.841 350.712 135.497 345.791 135.998" fill="#263238"/>
<path d="M343.636 90.1414C344.868 90.2702 346.007 90.8578 346.826 91.7874C347.645 92.7171 348.084 93.9207 348.056 95.1593L345.276 162.088C345.179 169.997 333.628 174.459 325.177 174.278C316.628 174.097 316.336 169.914 316.211 162.394C316.017 149.884 316.017 145.116 316.017 145.185C316.017 145.255 305.189 143.392 303.02 129.27C301.908 122.32 302.256 110.769 302.853 101.387C303.382 92.9353 308.983 82.552 317.407 83.4555L343.636 90.1414Z" fill="#FFBE9D"/>
<path d="M306.439 110.547C306.439 111.015 306.619 111.466 306.943 111.806C307.267 112.145 307.709 112.346 308.177 112.368C308.407 112.386 308.638 112.359 308.857 112.287C309.076 112.215 309.278 112.1 309.452 111.948C309.626 111.796 309.767 111.611 309.868 111.404C309.969 111.197 310.027 110.971 310.04 110.741C310.047 110.269 309.87 109.813 309.545 109.47C309.22 109.127 308.774 108.925 308.302 108.906C308.072 108.889 307.84 108.919 307.621 108.992C307.402 109.066 307.2 109.183 307.026 109.335C306.853 109.488 306.711 109.674 306.611 109.882C306.51 110.09 306.452 110.316 306.439 110.547Z" fill="#263238"/>
<path d="M305.273 107.391C305.495 107.628 306.871 106.627 308.803 106.627C310.735 106.627 312.181 107.6 312.389 107.364C312.598 107.127 312.264 106.835 311.639 106.377C310.798 105.795 309.798 105.489 308.775 105.501C307.776 105.497 306.802 105.814 305.995 106.404C305.37 106.863 305.161 107.294 305.273 107.391Z" fill="#263238"/>
<path d="M325.441 110.547C325.441 111.018 325.623 111.471 325.95 111.81C326.277 112.15 326.722 112.35 327.193 112.368C327.422 112.385 327.653 112.356 327.871 112.283C328.089 112.21 328.291 112.095 328.464 111.944C328.637 111.792 328.779 111.608 328.88 111.402C328.982 111.195 329.041 110.971 329.055 110.741C329.059 110.27 328.881 109.816 328.557 109.473C328.233 109.131 327.789 108.928 327.318 108.906C327.087 108.889 326.854 108.919 326.634 108.992C326.415 109.065 326.212 109.182 326.037 109.334C325.862 109.487 325.72 109.673 325.618 109.881C325.515 110.089 325.456 110.315 325.441 110.547Z" fill="#263238"/>
<path d="M324.385 107.767C324.607 108.003 325.983 106.988 327.916 106.988C329.848 106.988 331.293 107.961 331.502 107.725C331.71 107.489 331.377 107.197 330.751 106.738C329.908 106.162 328.909 105.857 327.888 105.862C326.888 105.858 325.914 106.175 325.108 106.766C324.482 107.225 324.274 107.655 324.385 107.767Z" fill="#263238"/>
<path d="M317.323 122.181C316.3 121.858 315.239 121.667 314.168 121.611C313.667 121.611 313.209 121.458 313.125 121.125C313.075 120.612 313.187 120.097 313.445 119.651L314.918 115.87C316.962 110.491 318.435 106.057 318.213 105.974C316.611 109.066 315.249 112.277 314.14 115.578C313.653 116.968 313.181 118.178 312.75 119.387C312.433 119.984 312.344 120.675 312.5 121.333C312.568 121.508 312.676 121.665 312.816 121.791C312.956 121.917 313.124 122.007 313.306 122.056C313.584 122.127 313.868 122.168 314.154 122.181C315.206 122.311 316.271 122.311 317.323 122.181Z" fill="#263238"/>
<path d="M315.989 145.185C322.621 145.286 329.151 143.544 334.852 140.154C334.852 140.154 330.278 149.884 316.17 148.494L315.989 145.185Z" fill="#EB996E"/>
<path d="M318.143 126.865C318.514 126.399 318.996 126.035 319.545 125.807C320.095 125.578 320.693 125.493 321.285 125.559C321.715 125.598 322.132 125.725 322.512 125.93C322.892 126.136 323.226 126.416 323.495 126.754C323.756 127.076 323.911 127.47 323.938 127.883C323.966 128.297 323.864 128.708 323.648 129.061C323.338 129.413 322.93 129.663 322.476 129.78C322.023 129.896 321.545 129.873 321.104 129.715C320.184 129.389 319.339 128.883 318.616 128.227C318.4 128.07 318.212 127.877 318.06 127.658C317.992 127.549 317.956 127.424 317.956 127.296C317.956 127.168 317.992 127.043 318.06 126.935" fill="#EB996E"/>
<path d="M323.05 123.529C322.731 123.529 322.731 125.614 320.924 127.115C319.117 128.617 316.865 128.38 316.851 128.672C316.837 128.964 317.351 129.089 318.241 129.117C319.481 129.13 320.686 128.707 321.646 127.922C322.562 127.172 323.15 126.095 323.287 124.919C323.426 124.03 323.189 123.515 323.05 123.529Z" fill="#263238"/>
<path d="M323.509 104.361C323.704 104.889 325.636 104.639 327.915 104.903C330.195 105.167 332.085 105.807 332.349 105.334C332.488 105.112 332.169 104.611 331.418 104.097C330.428 103.469 329.307 103.074 328.141 102.944C326.975 102.814 325.795 102.952 324.69 103.346C323.87 103.694 323.426 104.111 323.509 104.361Z" fill="#263238"/>
<path d="M305.981 101.776C306.329 102.207 307.663 101.776 309.276 101.776C310.888 101.776 312.25 102.068 312.57 101.609C312.709 101.387 312.487 100.942 311.889 100.525C311.095 100.014 310.163 99.7618 309.22 99.802C308.272 99.81 307.351 100.122 306.593 100.692C306.023 101.095 305.801 101.553 305.981 101.776Z" fill="#263238"/>
<path d="M324.357 78.7991C319.565 79.0314 314.91 80.4654 310.818 82.9691C308.519 84.1467 306.476 85.7674 304.806 87.7379C303.136 89.7083 301.873 91.9897 301.088 94.4505C300.891 94.9588 300.8 95.5017 300.819 96.0465C300.838 96.5912 300.967 97.1264 301.199 97.6197C301.646 98.1868 302.276 98.5804 302.981 98.7326C303.687 98.8849 304.423 98.7862 305.063 98.4537C306.326 97.7543 307.403 96.763 308.205 95.5625C308.547 96.8635 309.314 98.013 310.384 98.8282C311.454 99.6433 312.766 100.077 314.111 100.061C315.456 100.045 316.757 99.5804 317.808 98.74C318.858 97.8997 319.598 96.7323 319.909 95.4235C320.015 96.774 320.638 98.0315 321.647 98.9349C322.657 99.8383 323.976 100.318 325.33 100.275C326.684 100.159 327.976 99.6477 329.043 98.8052C330.11 97.9627 330.907 96.8255 331.334 95.5347C331.656 98.0009 332.499 100.37 333.809 102.485C334.478 103.519 335.449 104.323 336.59 104.787C337.731 105.252 338.987 105.356 340.189 105.084C339.677 107.156 339.711 109.325 340.286 111.381C341.023 113.382 344.456 156.5 346.485 155.861C348.515 155.221 347.959 111.381 348.418 109.351C349.414 105.497 349.919 101.531 349.919 97.5502C350.051 93.4561 348.727 89.4478 346.182 86.2383C343.636 83.0288 340.035 80.8262 336.019 80.0223C332.001 79.0978 327.878 78.7191 323.759 78.8964" fill="#263238"/>
<path d="M275.318 134.594C275.318 134.594 275.165 134.343 274.762 133.954C274.182 133.381 273.439 133.002 272.635 132.87C272.013 132.75 271.372 132.759 270.753 132.895C270.134 133.031 269.55 133.292 269.035 133.662C268.403 134.206 267.923 134.904 267.641 135.688C267.358 136.473 267.283 137.316 267.423 138.138C267.548 139.102 267.911 140.019 268.479 140.807C269.123 141.639 269.964 142.298 270.925 142.725C271.998 143.192 273.154 143.434 274.324 143.434C275.493 143.434 276.65 143.192 277.723 142.725C280.119 141.643 282.186 139.945 283.713 137.805C285.404 135.528 286.705 132.987 287.564 130.285C289.399 124.725 289.899 119.081 290.663 114.022C291.234 109.499 292.431 105.078 294.222 100.886C295.455 98.0463 297.285 95.5052 299.587 93.4358C300.228 92.8785 300.911 92.372 301.631 91.9207C301.869 91.7571 302.125 91.6218 302.395 91.5176C302.395 91.5176 301.38 92.157 299.782 93.5887C297.585 95.6928 295.848 98.2297 294.681 101.039C292.972 105.207 291.841 109.589 291.317 114.063C290.58 119.109 290.107 124.78 288.231 130.451C287.352 133.231 286.013 135.843 284.269 138.18C282.652 140.405 280.482 142.168 277.973 143.295C276.82 143.798 275.575 144.057 274.317 144.057C273.059 144.057 271.814 143.798 270.661 143.295C269.617 142.811 268.71 142.076 268.02 141.154C267.404 140.287 267.017 139.278 266.894 138.222C266.759 137.318 266.863 136.396 267.195 135.545C267.526 134.694 268.074 133.944 268.785 133.37C269.345 132.981 269.981 132.713 270.651 132.583C271.322 132.454 272.012 132.467 272.677 132.62C273.518 132.797 274.281 133.235 274.859 133.871C275.062 134.076 275.218 134.323 275.318 134.594Z" fill="#263238"/>
<path d="M350.044 157.695C350.044 157.612 350.864 157.251 352.226 156.305C354.119 154.933 355.737 153.217 356.994 151.246C358.855 148.32 360.073 145.032 360.566 141.599C361.09 137.373 360.907 133.089 360.024 128.922C359.162 124.474 357.884 120.318 356.785 116.524C355.687 112.729 354.742 109.268 354.186 106.321C353.732 103.992 353.462 101.631 353.38 99.2598C353.38 98.4258 353.38 97.7725 353.38 97.3277C353.365 97.103 353.389 96.8774 353.449 96.6605C353.519 96.6605 353.449 97.5918 353.63 99.2459C353.81 101.583 354.149 103.905 354.645 106.196C355.27 109.101 356.229 112.52 357.425 116.301C358.743 120.411 359.847 124.587 360.733 128.811C361.641 133.05 361.806 137.415 361.22 141.71C360.69 145.229 359.395 148.588 357.425 151.552C356.101 153.546 354.384 155.249 352.379 156.556C351.838 156.912 351.266 157.219 350.669 157.473C350.468 157.566 350.259 157.64 350.044 157.695Z" fill="#263238"/>
<path d="M352.56 148.647C352.408 148.758 352.239 148.842 352.059 148.897C351.564 149.076 351.052 149.202 350.53 149.272C348.563 149.474 346.582 149.061 344.859 148.091C342.31 146.624 340.38 144.283 339.424 141.502C338.278 138.144 337.903 134.572 338.326 131.049C338.66 127.324 339.341 123.863 339.647 120.68C339.952 117.497 340.133 114.619 340.189 112.201C340.244 109.782 340.189 107.822 340.189 106.46C340.129 105.762 340.129 105.06 340.189 104.361C340.343 105.046 340.431 105.744 340.453 106.446C340.564 107.836 340.675 109.768 340.689 112.215C340.702 115.064 340.572 117.913 340.3 120.749C340.022 123.96 339.369 127.449 339.035 131.119C338.621 134.534 338.963 137.998 340.036 141.266C340.919 143.926 342.716 146.186 345.109 147.646C346.729 148.622 348.598 149.105 350.489 149.036C351.837 148.883 352.532 148.577 352.56 148.647Z" fill="#263238"/>
<path d="M261.64 161.351C261.629 160.878 261.704 160.407 261.862 159.961C262.299 158.729 263.105 157.661 264.169 156.903C265.847 155.68 267.85 154.983 269.924 154.902C272.315 154.679 275.025 155.027 277.958 154.902C281.165 154.613 284.258 153.565 286.979 151.844C290.089 149.84 292.748 147.213 294.791 144.129C297.026 140.704 298.596 136.889 299.42 132.884C300.304 128.569 300.673 124.164 300.518 119.762C300.518 115.231 299.892 110.839 299.628 106.53C299.222 102.382 299.485 98.1954 300.407 94.1308C301.262 90.6668 303.079 87.5154 305.65 85.0409C308.22 82.5664 311.438 80.8699 314.932 80.1474C317.608 79.6156 320.369 79.6964 323.008 80.3837C324.983 80.8959 326.861 81.7269 328.568 82.844C329.646 83.5431 330.644 84.3588 331.543 85.2765C331.862 85.5962 332.057 85.8603 332.21 86.0271C332.363 86.1939 332.432 86.2912 332.418 86.3051C331.201 85.0925 329.859 84.0116 328.415 83.0803C326.697 82.0195 324.82 81.2406 322.855 80.7729C320.27 80.1485 317.578 80.1058 314.974 80.6478C311.832 81.3349 308.924 82.8297 306.537 84.9846C303.779 87.4569 301.84 90.7101 300.977 94.3115C300.099 98.3073 299.855 102.416 300.254 106.488C300.546 110.755 301.102 115.175 301.185 119.748C301.325 124.207 300.943 128.667 300.045 133.037C299.196 137.127 297.578 141.018 295.278 144.504C293.172 147.655 290.431 150.33 287.23 152.358C284.42 154.108 281.231 155.157 277.93 155.416C274.9 155.583 272.218 155.193 269.882 155.416C267.893 155.477 265.963 156.109 264.322 157.237C263.269 157.942 262.455 158.95 261.987 160.128C261.695 160.879 261.695 161.351 261.64 161.351Z" fill="#455A64"/>
<path d="M331.321 75.8384C331.321 75.7689 332.002 76.0747 332.711 76.9226C333.68 78.0515 334.269 79.4571 334.393 80.9397C334.519 82.4242 334.179 83.9111 333.42 85.1931C332.822 86.1522 332.252 86.5831 332.197 86.5831C332.141 86.5831 332.53 85.9715 332.961 85.0124C333.549 83.7872 333.798 82.4271 333.684 81.0731C333.569 79.719 333.094 78.4204 332.308 77.3118C331.752 76.3666 331.251 75.9218 331.321 75.8384Z" fill="#455A64"/>
<path d="M359.079 111.881C358.905 111.328 358.779 110.76 358.704 110.185C358.495 109.073 358.203 107.489 357.773 105.529C357.342 103.569 356.827 101.234 356.132 98.6899C355.785 97.4111 355.396 96.0767 354.909 94.7284C354.45 93.3472 353.774 92.0476 352.908 90.8781C351.249 88.582 348.981 86.7957 346.361 85.7212C344.218 84.8608 341.873 84.634 339.605 85.0679C338.065 85.3393 336.598 85.9261 335.296 86.7915C334.851 87.1538 334.387 87.4925 333.906 87.8062C333.906 87.8062 333.99 87.6672 334.184 87.4448C334.479 87.1217 334.805 86.8284 335.157 86.5691C336.443 85.5816 337.935 84.8974 339.522 84.5675C341.89 84.0385 344.361 84.2223 346.625 85.0957C349.381 86.188 351.768 88.0446 353.505 90.4472C354.416 91.6728 355.121 93.0391 355.59 94.4921C356.077 95.8821 356.452 97.2721 356.8 98.5092C357.453 101.095 357.939 103.444 358.287 105.459C358.634 107.475 358.885 109.045 358.996 110.171C359.098 110.735 359.126 111.31 359.079 111.881Z" fill="#455A64"/>
<path d="M332.767 87.0556C331.244 86.8876 329.749 86.5232 328.319 85.9714C326.769 85.4557 325.179 85.0698 323.565 84.8177C321.61 84.5341 319.615 84.7542 317.769 85.4571C315.923 86.1467 314.285 87.3004 313.015 88.807C311.981 90.0266 311.21 91.4461 310.749 92.977C310.377 94.4312 310.176 95.9241 310.152 97.425C309.993 97.0374 309.917 96.6206 309.929 96.2018C309.861 95.0707 309.969 93.9359 310.249 92.838C310.655 91.1836 311.424 89.6404 312.501 88.3205C313.823 86.6922 315.555 85.4449 317.519 84.7065C319.477 83.9673 321.595 83.7517 323.662 84.081C325.31 84.3927 326.925 84.8581 328.486 85.471C331.127 86.4857 332.795 86.9583 332.767 87.0556Z" fill="#455A64"/>
<path d="M612.6 558.363C613.837 554.11 616.464 550.023 620.551 548.23C624.637 546.437 629.697 547.438 634.034 549.022C638.371 550.607 642.638 552.706 647.239 552.984C651.84 553.262 657.052 551.093 658.428 546.687C659.721 542.517 657.219 538.125 654.105 535.108C650.8 531.934 646.75 529.642 642.327 528.443C637.905 527.244 633.251 527.176 628.795 528.246C624.34 529.316 620.224 531.489 616.828 534.566C613.432 537.643 610.865 541.524 609.361 545.853" fill="#263238"/>
<path d="M576.099 576.85C569.344 570.428 569.677 559.253 573.055 550.551C576.433 541.85 583.786 535.192 592.001 530.785C600.027 526.575 608.902 524.236 617.961 523.945C627.019 523.654 636.027 525.417 644.307 529.103C640.254 529.277 636.305 530.44 632.806 532.493C629.307 534.545 626.364 537.424 624.235 540.877C620.538 547.034 619.704 554.499 616.646 561.004C613.197 568.331 607.072 574.057 599.529 577.005C591.987 579.952 583.602 579.897 576.099 576.85Z" fill="#455A64"/>
<path d="M572.86 538.291C565.368 529.465 564.367 515.287 565.479 503.764C566.591 492.241 569.246 480.634 567.425 469.194C566.355 462.425 563.728 455.962 562.838 449.151C561.949 442.34 563.214 434.667 568.482 430.274C574.542 425.229 584.077 426.424 590.374 431.15C596.671 435.876 600.326 443.341 602.995 450.749C608.819 467.04 611.002 485.11 606.192 501.79C601.383 518.47 590.082 533.301 573.499 538.319" fill="#455A64"/>
<path d="M569.261 610.78C569.224 610.443 569.224 610.102 569.261 609.765C569.261 609.098 569.261 608.111 569.261 606.846C569.344 604.303 569.58 600.633 570.15 596.143C570.803 590.866 571.759 585.631 573.014 580.464C574.564 574.118 576.967 568.011 580.158 562.311C583.365 556.617 587.299 551.365 591.862 546.687C595.567 542.856 599.678 539.44 604.122 536.498C605.984 535.206 607.805 534.233 609.362 533.315C610.919 532.398 612.351 531.8 613.532 531.258L616.229 530.132C616.537 529.986 616.858 529.87 617.188 529.785C616.909 529.973 616.611 530.131 616.298 530.257L613.657 531.508C612.545 532.092 611.169 532.815 609.598 533.677C608.028 534.538 606.29 535.609 604.442 536.929C600.075 539.905 596.031 543.329 592.376 547.146C587.893 551.81 584.017 557.022 580.839 562.658C573.889 574.696 572.068 587.331 570.692 596.199C570.067 600.689 569.747 604.33 569.58 606.86C569.497 608.056 569.441 609.029 569.4 609.765C569.392 610.108 569.345 610.448 569.261 610.78Z" fill="#263238"/>
<path d="M504.709 503.444C490.809 511.784 490.906 519.401 493.227 526.588C495.548 533.774 504.027 538.75 511.075 536.067C515.064 534.538 517.941 531.077 520.416 527.602C522.89 524.127 525.183 520.402 528.644 517.872C532.105 515.342 537.096 514.425 540.571 516.899" fill="#263238"/>
<path d="M494.354 512.604C497.968 507.6 506.864 506.155 512.563 508.657C518.262 511.159 522.293 516.107 526.046 521.042C529.799 525.976 533.357 531.202 538.486 534.636C543.615 538.069 550.774 539.32 555.889 535.859C557.521 534.645 558.887 533.11 559.903 531.349C560.919 529.587 561.564 527.635 561.796 525.615C562.251 521.577 561.978 517.491 560.99 513.549C559.767 507.739 557.765 501.679 553.123 497.981C547.952 493.881 540.766 493.686 534.149 493.895C526.56 494.145 518.859 494.715 511.756 497.342C504.653 499.969 497.37 505.682 494.354 512.632" fill="#455A64"/>
<path d="M557.751 599.688C557.687 599.293 557.654 598.893 557.654 598.492L557.529 595.059C557.446 592.001 557.307 587.706 557.154 582.424C557.001 577.142 556.751 570.734 556.375 563.687C556 556.639 555.444 548.897 554.374 540.849C553.928 536.93 553.165 533.053 552.094 529.256C550.993 525.752 549.574 522.355 547.855 519.109C544.995 513.57 541.21 508.559 536.665 504.292C533.585 501.438 530.1 499.053 526.323 497.217C525.302 496.698 524.253 496.234 523.182 495.827C522.8 495.703 522.432 495.54 522.084 495.34C522.471 495.432 522.852 495.548 523.224 495.688C524.327 496.028 525.405 496.446 526.449 496.939C530.308 498.695 533.872 501.04 537.013 503.889C541.654 508.147 545.52 513.18 548.438 518.762C550.198 522.034 551.645 525.463 552.761 529.006C553.863 532.841 554.644 536.76 555.096 540.724C556.167 548.814 556.681 556.57 557.042 563.631C557.404 570.692 557.557 577.031 557.668 582.382C557.779 587.734 557.807 592.043 557.807 595.017V598.465C557.823 598.873 557.804 599.282 557.751 599.688Z" fill="#263238"/>
<path d="M562.741 605.943C562.068 604.009 561.552 602.024 561.198 600.007C560.236 594.502 560.016 588.892 560.545 583.327C561.386 575.075 563.154 566.943 565.813 559.086C568.662 550.176 572.513 540.64 575.807 530.41C577.431 525.438 578.758 520.374 579.782 515.245C580.693 510.46 581.347 505.63 581.742 500.775C582.377 492.539 582.53 484.273 582.201 476.019C581.965 468.972 581.603 463.273 581.367 459.339C581.256 457.421 581.172 455.892 581.117 454.808C581.117 454.322 581.117 453.932 581.117 453.627C581.093 453.493 581.093 453.357 581.117 453.223C581.123 453.353 581.123 453.483 581.117 453.613C581.117 453.918 581.186 454.308 581.242 454.794C581.339 455.878 581.464 457.393 581.631 459.326C581.951 463.259 582.396 468.958 582.701 476.006C583.102 484.279 583 492.57 582.396 500.831C582.016 505.713 581.371 510.572 580.464 515.384C579.45 520.557 578.122 525.663 576.488 530.674C573.18 540.946 569.302 550.454 566.438 559.336C563.764 567.144 561.955 575.222 561.045 583.425C560.471 588.956 560.611 594.539 561.462 600.035C561.796 601.981 562.102 603.482 562.38 604.483C562.491 604.956 562.574 605.331 562.658 605.637C562.695 605.736 562.723 605.838 562.741 605.943Z" fill="#263238"/>
<path d="M597.06 612.198H532.05L530.562 599.688H597.06V612.198Z" fill="#263238"/>
<path d="M539.027 610.78L547.159 648.324H582.479L590.082 610.78H539.027Z" fill="#263238"/>
<path d="M597.06 612.198C597.06 612.406 582.771 612.531 565.09 612.476C547.409 612.42 533.12 612.225 533.12 612.017C533.12 611.808 547.409 611.697 565.09 611.753C582.771 611.808 597.06 612.003 597.06 612.198Z" fill="#455A64"/>
<path d="M585.898 630.726C584.12 629.43 582.199 628.343 580.171 627.488C577.955 626.617 575.602 626.147 573.221 626.098C570.301 626.109 567.406 626.641 564.673 627.668C561.712 628.669 558.946 629.837 556.236 630.448C553.837 630.969 551.363 631.039 548.938 630.657C547.304 630.422 545.72 629.914 544.254 629.156C543.862 628.941 543.486 628.7 543.128 628.433C542.892 628.252 542.766 628.141 542.78 628.127C544.715 629.19 546.832 629.878 549.021 630.157C551.382 630.445 553.775 630.328 556.097 629.809C558.682 629.156 561.448 627.974 564.437 626.96C567.255 625.936 570.238 625.441 573.235 625.5C575.686 625.579 578.1 626.117 580.352 627.085C581.871 627.718 583.298 628.555 584.592 629.573C584.945 629.841 585.279 630.134 585.592 630.448C585.815 630.587 585.926 630.713 585.898 630.726Z" fill="#455A64"/>
<path d="M585.412 633.242C583.676 631.98 581.813 630.904 579.852 630.031C577.723 629.16 575.452 628.689 573.152 628.641C570.334 628.651 567.539 629.154 564.895 630.129C562.032 631.088 559.335 632.2 556.764 632.909C554.509 633.565 552.158 633.828 549.814 633.687C548.21 633.592 546.644 633.166 545.213 632.436C544.832 632.236 544.469 632.004 544.129 631.741C543.892 631.56 543.781 631.449 543.795 631.435C543.809 631.421 544.337 631.741 545.338 632.186C546.766 632.789 548.293 633.123 549.842 633.173C552.146 633.243 554.446 632.938 556.653 632.269C559.155 631.56 561.823 630.435 564.715 629.489C567.437 628.486 570.32 627.987 573.221 628.016C577.215 628.125 581.063 629.541 584.175 632.047C584.605 632.408 584.925 632.7 585.134 632.909C585.342 633.117 585.426 633.215 585.412 633.242Z" fill="white"/>
<path d="M586.579 628.28C584.732 626.949 582.758 625.804 580.686 624.861C578.423 623.89 576.012 623.311 573.555 623.151C570.544 623.089 567.55 623.618 564.743 624.708C561.892 625.829 558.977 626.781 556.013 627.557C553.521 627.99 550.972 627.99 548.48 627.557C546.8 627.285 545.169 626.765 543.642 626.014C543.236 625.798 542.845 625.551 542.475 625.278C542.225 625.083 542.099 624.972 542.113 624.958C542.127 624.944 542.697 625.278 543.767 625.764C545.303 626.402 546.915 626.837 548.563 627.057C550.997 627.404 553.471 627.352 555.888 626.904C558.571 626.32 561.448 625.055 564.506 624.027C567.401 622.905 570.494 622.38 573.597 622.484C576.123 622.682 578.594 623.327 580.894 624.388C582.44 625.079 583.892 625.962 585.217 627.015C585.581 627.297 585.929 627.599 586.26 627.919C586.454 628.099 586.579 628.28 586.579 628.28Z" fill="white"/>
<path d="M132.049 588.304C129.269 592.307 123.807 590.972 121.277 588.526C118.747 586.08 117.691 582.549 116.718 579.171C114.494 571.457 112.256 563.367 113.938 555.541C114.319 553.136 115.369 550.887 116.968 549.05C117.766 548.149 118.788 547.474 119.93 547.094C121.072 546.713 122.294 546.64 123.473 546.882C126.253 547.604 127.935 550.287 129.172 552.845C132.795 560.405 134.694 568.675 134.732 577.058C134.732 580.964 134.287 585.051 132.077 588.276" fill="#62B8AF"/>
<g opacity="0.2">
<path d="M132.049 588.304C129.269 592.307 123.807 590.972 121.277 588.526C118.747 586.08 117.691 582.549 116.718 579.171C114.494 571.457 112.256 563.367 113.938 555.541C114.319 553.136 115.369 550.887 116.968 549.05C117.766 548.149 118.788 547.474 119.93 547.094C121.072 546.713 122.294 546.64 123.473 546.882C126.253 547.604 127.935 550.287 129.172 552.845C132.795 560.405 134.694 568.675 134.732 577.058C134.732 580.964 134.287 585.051 132.077 588.276" fill="black"/>
</g>
<path d="M121.597 608.57C116.898 606.369 111.619 605.726 106.529 606.735C103.744 606.979 101.121 608.148 99.0788 610.057C97.2301 612.114 96.8687 615.728 99.0788 617.494C100.454 618.423 102.112 618.841 103.763 618.675C107.752 618.675 112.173 617.938 115.356 620.329C117.163 621.719 118.372 623.971 120.554 624.638C121.639 624.89 122.776 624.783 123.795 624.331C124.813 623.88 125.656 623.109 126.198 622.136C127.234 620.139 127.463 617.82 126.837 615.659C126.572 614.152 125.96 612.728 125.051 611.498C124.142 610.268 122.959 609.265 121.597 608.57Z" fill="#62B8AF"/>
<path d="M139.792 594.044C138.352 592.164 137.392 589.961 136.997 587.626C136.603 585.29 136.784 582.894 137.526 580.645C139.057 576.144 141.804 572.156 145.463 569.122C149.616 565.443 154.446 562.61 159.683 560.782C161.711 559.962 163.892 559.592 166.077 559.697C167.168 559.757 168.228 560.083 169.164 560.648C170.099 561.212 170.882 561.998 171.442 562.936C172.93 565.786 171.442 569.247 169.941 572.068C167.214 577.048 164.096 581.803 160.614 586.288C157.834 589.902 154.61 593.461 150.342 595.087C146.075 596.713 141.641 596.477 139.389 593.572" fill="#62B8AF"/>
<path d="M132.286 648.671C132.133 648.081 132.049 647.474 132.036 646.864C131.897 645.474 131.744 643.876 131.549 641.888C131.354 639.9 131.007 637.315 130.437 634.618C129.783 631.684 128.895 628.807 127.782 626.014C126.698 623.23 125.224 620.614 123.404 618.244C121.913 616.315 120.015 614.739 117.844 613.629C116.371 612.921 114.794 612.452 113.173 612.239C112.564 612.205 111.959 612.117 111.366 611.975C111.98 611.9 112.601 611.9 113.215 611.975C114.9 612.098 116.549 612.526 118.08 613.24C120.366 614.317 122.369 615.911 123.932 617.897C125.835 620.295 127.367 622.966 128.477 625.82C129.61 628.651 130.489 631.576 131.104 634.563C131.579 636.996 131.904 639.457 132.077 641.93C132.23 644.043 132.3 645.738 132.327 646.92C132.379 647.503 132.365 648.091 132.286 648.671Z" fill="#263238"/>
<path d="M131.939 644.863C131.903 644.581 131.903 644.296 131.939 644.015V641.596C131.939 639.511 131.939 636.481 131.842 632.728C131.647 625.25 131.008 614.908 129.757 603.538C128.506 592.168 126.838 581.965 125.322 574.626C124.975 572.791 124.614 571.137 124.266 569.692C123.919 568.246 123.668 566.981 123.404 565.98C123.14 564.979 122.987 564.243 122.834 563.631C122.757 563.359 122.71 563.079 122.695 562.797C122.828 563.047 122.926 563.313 122.987 563.589L123.682 565.897C124.002 566.898 124.322 568.149 124.683 569.594C125.044 571.04 125.461 572.68 125.851 574.515C127.922 584.071 129.476 593.731 130.507 603.455C131.758 614.839 132.314 625.208 132.37 632.714C132.37 636.467 132.37 639.497 132.231 641.596C132.231 642.569 132.12 643.375 132.092 644.001C132.08 644.294 132.029 644.584 131.939 644.863Z" fill="#263238"/>
<path d="M131.897 624.874C131.83 624.033 131.83 623.187 131.897 622.345C131.994 620.732 132.216 618.383 132.675 615.52C133.91 608.045 136.053 600.75 139.055 593.794C141.936 586.761 146.077 580.312 151.273 574.765C152.174 573.814 153.135 572.923 154.151 572.096C154.581 571.721 154.971 571.346 155.374 571.054L156.486 570.289C157.155 569.767 157.866 569.302 158.612 568.899C156.174 570.825 153.853 572.895 151.662 575.099C146.652 580.702 142.624 587.112 139.75 594.058C138.107 597.855 136.714 601.755 135.58 605.734C134.496 609.39 133.773 612.754 133.217 615.589C132.661 618.425 132.397 620.746 132.216 622.345C132.166 623.194 132.059 624.039 131.897 624.874Z" fill="#263238"/>
</svg>
