<svg width="472" height="445" viewBox="0 0 472 445" fill="none" xmlns="http://www.w3.org/2000/svg">
<g clip-path="url(#clip0_1334_319)">
<path d="M402.36 213C494.24 266 494.24 352 402.36 405.1C310.48 458.2 161.51 458.1 69.64 405.1C-22.23 352.1 -22.24 266.1 69.64 213C161.52 159.9 310.49 159.93 402.36 213Z" fill="white"/>
<path d="M142.49 372.68C90.9784 372.68 49.22 348.57 49.22 318.83C49.22 289.089 90.9784 264.98 142.49 264.98C194.002 264.98 235.76 289.089 235.76 318.83C235.76 348.57 194.002 372.68 142.49 372.68Z" fill="#E0E0E0"/>
<path d="M316.09 388.37C264.578 388.37 222.82 364.26 222.82 334.52C222.82 304.779 264.578 280.67 316.09 280.67C367.602 280.67 409.36 304.779 409.36 334.52C409.36 364.26 367.602 388.37 316.09 388.37Z" fill="#E0E0E0"/>
<path d="M42.7199 318.1C43.4099 320.4 45.2899 322.53 47.9899 324.26L147.68 382.94L40.5199 328.58C37.1781 326.923 33.5559 325.905 29.8399 325.58C26.0275 325.182 22.3377 324.005 18.9999 322.12C14.9999 319.8 12.8499 316.91 12.8599 314.36V311.11C13.8685 310.823 14.8465 310.438 15.7799 309.96C20.6999 307.12 30.1299 307.96 36.8299 311.82C40.0699 313.71 42.0799 316 42.7199 318.1ZM21.0799 313C18.3099 314.6 19.0799 317.65 22.8799 319.82C26.6799 321.99 31.93 322.46 34.7 320.82C37.4699 319.18 36.65 316.17 32.89 314C29.13 311.83 23.8399 311.44 21.0799 313Z" fill="#37474F"/>
<path d="M42.7199 314.91C43.4099 317.21 45.2899 319.34 47.9899 321.07L147.68 382.94L40.5199 325.39C37.1816 323.715 33.5591 322.681 29.8399 322.34C26.0301 321.963 22.3394 320.802 18.9999 318.93C12.2999 315.06 10.8599 309.61 15.7799 306.77C20.6999 303.93 30.1299 304.77 36.8299 308.63C40.0699 310.51 42.0799 312.76 42.7199 314.91ZM21.0799 309.85C18.3099 311.44 19.0799 314.5 22.8799 316.67C26.6799 318.84 31.93 319.31 34.7 317.67C37.4699 316.03 36.65 313.02 32.89 310.85C29.13 308.68 23.8399 308.25 21.0799 309.85Z" fill="#455A64"/>
<path d="M21.4399 270.5C32.8299 255.65 50.4999 248.5 73.3899 243.24V247.34C51.2999 252.46 35.2199 259.1 24.6099 272.93C22.1815 276.017 20.4033 279.564 19.3824 283.357C18.3616 287.15 18.1192 291.111 18.6699 295C19.6199 302 22.8399 307.64 25.5199 309.65C25.9442 309.968 26.2248 310.442 26.2998 310.967C26.3748 311.492 26.2382 312.026 25.9199 312.45C25.6016 312.874 25.1278 313.155 24.6027 313.23C24.0776 313.305 23.5442 313.168 23.1199 312.85C19.8799 310.42 15.8599 303.96 14.7099 295.55C14.0815 291.136 14.3538 286.641 15.5105 282.336C16.6672 278.031 18.6842 274.004 21.4399 270.5Z" fill="#FF6464"/>
<path d="M21.9999 310.92C22.3453 310.924 22.6859 310.839 22.9885 310.672C23.2911 310.506 23.5454 310.264 23.7266 309.97C23.9079 309.676 24.0099 309.34 24.0227 308.995C24.0356 308.649 23.9588 308.307 23.7999 308C19.3999 299.72 22.7999 292.41 25.2899 288.79C30.5499 280.99 40.5599 275.79 48.5999 276.61C49.1303 276.667 49.6617 276.511 50.0771 276.176C50.4925 275.842 50.7579 275.356 50.8149 274.825C50.8719 274.295 50.7159 273.763 50.3811 273.348C50.0464 272.933 49.5603 272.667 49.0299 272.61C39.4799 271.61 28.0999 277.45 21.9699 286.53C16.8799 294.07 16.2799 302.35 20.2699 309.85C20.4362 310.167 20.6844 310.433 20.9887 310.622C21.293 310.81 21.6422 310.913 21.9999 310.92Z" fill="#FF6464"/>
<g opacity="0.1">
<path d="M21.4399 270.5C32.8299 255.65 50.4999 248.5 73.3899 243.24V247.34C51.2999 252.46 35.2199 259.1 24.6099 272.93C22.1815 276.017 20.4033 279.564 19.3824 283.357C18.3616 287.15 18.1192 291.111 18.6699 295C19.6199 302 22.8399 307.64 25.5199 309.65C25.9442 309.968 26.2248 310.442 26.2998 310.967C26.3748 311.492 26.2382 312.026 25.9199 312.45C25.6016 312.874 25.1278 313.155 24.6027 313.23C24.0776 313.305 23.5442 313.168 23.1199 312.85C19.8799 310.42 15.8599 303.96 14.7099 295.55C14.0815 291.136 14.3538 286.641 15.5105 282.336C16.6672 278.031 18.6842 274.004 21.4399 270.5Z" fill="black"/>
</g>
<path d="M90.2799 282.93C90.2799 275.09 95.4599 267.24 105.83 261.26C126.56 249.26 160.17 249.26 180.89 261.26C191.26 267.26 196.44 275.08 196.44 282.93V314.25C196.44 322.09 191.26 329.94 180.89 335.92C160.16 347.92 126.55 347.92 105.82 335.92C95.4599 329.92 90.2799 322.09 90.2799 314.25V282.93Z" fill="#37474F"/>
<path d="M180.89 261.26C191.26 267.26 196.44 275.08 196.44 282.93C196.44 290.78 191.26 298.61 180.89 304.6C160.16 316.6 126.55 316.6 105.82 304.6C95.4599 298.6 90.2799 290.77 90.2799 282.93C90.2799 275.09 95.4599 267.24 105.83 261.26C126.56 249.29 160.16 249.29 180.89 261.26Z" fill="#455A64"/>
<path d="M176.47 264.48C185.61 269.57 190.19 276.25 190.19 282.93C190.19 289.61 185.61 296.28 176.47 301.38C158.18 311.57 128.53 311.57 110.25 301.38C101.1 296.28 96.5299 289.61 96.5299 282.93C96.5299 276.25 101.1 269.57 110.25 264.48C128.54 254.29 158.18 254.29 176.47 264.48Z" fill="#263238"/>
<path d="M73.39 278.07V85.4599C73.39 85.4599 73.39 85.4099 73.39 85.3799C73.39 58.5699 104.72 36.8398 143.39 36.8398C182.06 36.8398 213.39 58.5699 213.39 85.3799V278.23C213.39 305.04 182.07 326.77 143.39 326.77C104.71 326.77 73.39 305.04 73.39 278.23C73.39 278.23 73.39 278.16 73.39 278.12C73.39 278.08 73.39 278.09 73.39 278.07Z" fill="#FF6464"/>
<path opacity="0.1" d="M190.19 269.41V184.41C190.19 126.29 189.85 105.71 170.27 108.04L157.81 37.9199C189.52 42.5399 213.32 62.0499 213.32 85.4199V278.23C213.32 305.04 182 326.77 143.32 326.77C136.161 326.784 129.022 326.016 122.03 324.48C175.13 329.26 190.19 288.8 190.19 269.41Z" fill="black"/>
<path d="M186.39 51.6399C198.27 58.4999 204.21 67.4999 204.21 76.4899C204.21 85.4799 198.27 94.4899 186.39 101.33C162.62 115.05 124.09 115.05 100.33 101.33C88.44 94.4699 82.5 85.4799 82.5 76.4899C82.5 67.4999 88.45 58.4899 100.33 51.6399C124.09 37.9199 162.63 37.9199 186.39 51.6399Z" fill="#FF6464"/>
<path opacity="0.2" d="M186.39 51.6399C198.27 58.4999 204.21 67.4999 204.21 76.4899C204.21 85.4799 198.27 94.4899 186.39 101.33C162.62 115.05 124.09 115.05 100.33 101.33C88.44 94.4699 82.5 85.4799 82.5 76.4899C82.5 67.4999 88.45 58.4899 100.33 51.6399C124.09 37.9199 162.63 37.9199 186.39 51.6399Z" fill="white"/>
<path d="M90.2799 42.5999C90.2799 34.7599 95.4599 26.9099 105.83 20.9299C126.56 8.92993 160.17 8.92993 180.89 20.9299C191.26 26.9299 196.44 34.7499 196.44 42.5999V73.9199C196.44 81.7599 191.26 89.6099 180.89 95.5899C160.16 107.59 126.55 107.59 105.82 95.5899C95.4599 89.5899 90.2799 81.7599 90.2799 73.9199V42.5999Z" fill="#37474F"/>
<path d="M180.89 20.9299C191.26 26.9299 196.44 34.7499 196.44 42.5999C196.44 50.4499 191.26 58.2799 180.89 64.2699C160.16 76.2699 126.55 76.2699 105.82 64.2699C95.4599 58.2699 90.2799 50.4399 90.2799 42.5999C90.2799 34.7599 95.4599 26.9099 105.83 20.9299C126.56 8.99992 160.16 8.99992 180.89 20.9299Z" fill="#455A64"/>
<path d="M176.47 24.1499C185.61 29.2399 190.19 35.9198 190.19 42.5998C190.19 49.2799 185.61 55.9499 176.47 61.0499C158.18 71.2399 128.53 71.2399 110.25 61.0499C101.1 55.9499 96.5299 49.2699 96.5299 42.5998C96.5299 35.9298 101.1 29.2399 110.25 24.1499C128.54 13.9999 158.18 13.9999 176.47 24.1499Z" fill="#263238"/>
<path opacity="0.15" d="M205.41 170.77C191.09 171.55 176.72 169.33 162.96 165.38C142.4 159.2 122.49 149.8 105.78 136.19C89.07 122.58 77.96 101.66 78.67 79.8699C79.04 109.96 98.91 133.22 124.26 147.12C142.71 157.8 162.99 165.7 184.09 169.12C191.136 170.284 198.269 170.836 205.41 170.77ZM124.26 248.35C142.71 259.03 162.99 266.93 184.09 270.35C191.136 271.514 198.269 272.066 205.41 272C191.09 272.78 176.72 270.56 162.96 266.61C142.4 260.43 122.49 251.03 105.78 237.42C89.07 223.81 78 202.89 78.67 181.1C79 211.19 98.91 234.45 124.26 248.35ZM204.21 154.14C200.703 153.953 197.193 153.67 193.68 153.29C169.15 150.63 145.04 142.08 125.33 127.05C137.147 134.628 149.857 140.714 163.17 145.17C173.165 148.438 183.404 150.906 193.79 152.55C197.25 153.18 200.73 153.61 204.21 154.14ZM151.89 193.7C148.557 192.52 145.27 191.253 142.03 189.9C119.25 180.42 98.54 165.39 83.9 145.39C93.0875 156.003 103.554 165.438 115.06 173.48C123.72 179.442 132.838 184.708 142.33 189.23C145.48 190.8 148.7 192.21 151.89 193.7ZM210.76 249.26C207.9 249.36 205.03 249.39 202.17 249.32C182.09 248.91 161.94 243.68 144.9 232.89C155.029 238.199 165.778 242.23 176.9 244.89C185.236 246.832 193.712 248.109 202.25 248.71C205 249 207.9 249.09 210.76 249.26ZM152.41 280.26C162.394 283.539 172.623 286.02 183 287.68C186.46 288.3 190 288.74 193.43 289.26C189.91 289.07 186.43 288.8 182.9 288.42C158.37 285.76 134.25 277.21 114.55 262.18C126.373 269.761 139.09 275.847 152.41 280.3V280.26ZM164.77 141.63C181.42 133.1 197.5 120.72 204.94 103.07C206.568 98.9983 207.625 94.7211 208.08 90.3599C208.079 94.0593 207.55 97.7396 206.51 101.29C200.72 120.51 182.87 134.51 164.77 141.63ZM199.77 177.4C185.09 204.22 155.9 226.26 126.68 234.76L120.08 236.35C117.847 236.73 115.617 237.093 113.39 237.44C115.59 236.93 117.79 236.44 119.99 235.96L126.47 234.05C155.32 224.45 183.44 203.12 199.76 177.4H199.77ZM100.58 223.73L106.13 222.57C132.72 215.77 159.13 198.94 176.25 177.44C160.88 200.16 133.09 217.84 106.25 222.96C104.33 223.27 102.44 223.49 100.57 223.73H100.58ZM83.91 297.47C100.69 294.01 116.22 286.77 130.98 278.19C117.42 288.52 101 296.12 83.9 297.47H83.91Z" fill="black"/>
<path d="M261.81 287.49C291.81 270.18 340.39 270.18 370.37 287.49C385.37 296.15 392.86 307.49 392.86 318.83V325.32C392.86 336.67 385.36 348.01 370.37 356.66C340.37 373.97 291.79 373.97 261.81 356.66C246.81 348.01 239.33 336.66 239.33 325.32V318.83C239.33 307.49 246.82 296.15 261.81 287.49ZM340.36 304.82C326.96 297.08 305.23 297.08 291.82 304.82C285.12 308.69 281.82 313.76 281.82 318.82C281.82 323.88 285.17 328.96 291.82 332.82C305.23 340.56 326.95 340.56 340.36 332.82C347.06 328.95 350.36 323.88 350.36 318.82C350.36 313.76 347.06 308.69 340.36 304.82Z" fill="#FF6464"/>
<path opacity="0.35" d="M261.81 287.49C291.81 270.18 340.39 270.18 370.37 287.49C385.37 296.15 392.86 307.49 392.86 318.83V325.32C392.86 336.67 385.36 348.01 370.37 356.66C340.37 373.97 291.79 373.97 261.81 356.66C246.81 348.01 239.33 336.66 239.33 325.32V318.83C239.33 307.49 246.82 296.15 261.81 287.49ZM340.36 304.82C326.96 297.08 305.23 297.08 291.82 304.82C285.12 308.69 281.82 313.76 281.82 318.82C281.82 323.88 285.17 328.96 291.82 332.82C305.23 340.56 326.95 340.56 340.36 332.82C347.06 328.95 350.36 323.88 350.36 318.82C350.36 313.76 347.06 308.69 340.36 304.82Z" fill="white"/>
<path d="M261.81 287.49C291.81 270.18 340.39 270.18 370.37 287.49C385.37 296.15 392.86 307.49 392.86 318.83C392.86 330.17 385.36 341.52 370.37 350.17C340.37 367.48 291.79 367.48 261.81 350.17C246.81 341.52 239.33 330.17 239.33 318.83C239.33 307.49 246.82 296.15 261.81 287.49ZM291.81 332.84C305.22 340.58 326.94 340.58 340.35 332.84C347.05 328.97 350.35 323.9 350.35 318.84C350.35 313.78 347 308.7 340.35 304.84C326.95 297.1 305.22 297.1 291.81 304.84C285.11 308.71 281.81 313.78 281.81 318.84C281.81 323.9 285.12 329 291.82 332.84H291.81Z" fill="#FF6464"/>
<path opacity="0.6" d="M261.81 287.49C291.81 270.18 340.39 270.18 370.37 287.49C385.37 296.15 392.86 307.49 392.86 318.83C392.86 330.17 385.36 341.52 370.37 350.17C340.37 367.48 291.79 367.48 261.81 350.17C246.81 341.52 239.33 330.17 239.33 318.83C239.33 307.49 246.82 296.15 261.81 287.49ZM291.81 332.84C305.22 340.58 326.94 340.58 340.35 332.84C347.05 328.97 350.35 323.9 350.35 318.84C350.35 313.78 347 308.7 340.35 304.84C326.95 297.1 305.22 297.1 291.81 304.84C285.11 308.71 281.81 313.78 281.81 318.84C281.81 323.9 285.12 329 291.82 332.84H291.81Z" fill="white"/>
<path d="M281.77 318.83C281.77 323.9 285.12 328.97 291.77 332.83C305.18 340.57 326.9 340.57 340.31 332.83C347.01 328.96 350.31 323.89 350.31 318.83C350.31 313.77 346.96 308.69 340.31 304.83C326.91 297.09 305.18 297.09 291.77 304.83C285.12 308.69 281.77 313.76 281.77 318.83Z" fill="#FF6464"/>
<path opacity="0.35" d="M281.77 318.83C281.77 323.9 285.12 328.97 291.77 332.83C305.18 340.57 326.9 340.57 340.31 332.83C347.01 328.96 350.31 323.89 350.31 318.83C350.31 313.77 346.96 308.69 340.31 304.83C326.91 297.09 305.18 297.09 291.77 304.83C285.12 308.69 281.77 313.76 281.77 318.83Z" fill="white"/>
<path d="M272 338.33C273.599 337.517 275.367 337.093 277.16 337.093C278.953 337.093 280.722 337.517 282.32 338.33C285.17 339.97 285.17 342.64 282.32 344.28C280.722 345.093 278.953 345.517 277.16 345.517C275.367 345.517 273.599 345.093 272 344.28C269.15 342.64 269.15 340 272 338.33ZM349.74 293.44C351.34 292.631 353.107 292.21 354.9 292.21C356.693 292.21 358.46 292.631 360.06 293.44C362.91 295.09 362.91 297.76 360.06 299.44C358.462 300.253 356.693 300.677 354.9 300.677C353.107 300.677 351.339 300.253 349.74 299.44C346.89 297.76 346.89 295.09 349.74 293.44ZM303.69 345.44C307.58 346.05 309.89 348.35 308.85 350.6C307.81 352.85 303.85 354.18 299.92 353.6C295.99 353.02 293.71 350.69 294.76 348.44C295.81 346.19 299.8 344.85 303.69 345.45V345.44ZM332.15 284.13C336.04 284.73 338.35 287.04 337.3 289.29C336.25 291.54 332.3 292.87 328.37 292.29C324.44 291.71 322.17 289.37 323.21 287.13C324.25 284.89 328.25 283.54 332.15 284.14V284.13ZM328.37 345.44C332.26 344.84 336.26 346.17 337.3 348.44C338.34 350.71 336.04 353 332.15 353.6C328.26 354.2 324.26 352.87 323.21 350.6C322.16 348.33 324.48 346.06 328.37 345.45V345.44ZM299.91 284.13C303.81 283.53 307.81 284.86 308.85 287.13C309.89 289.4 307.58 291.68 303.69 292.29C299.8 292.9 295.8 291.55 294.76 289.29C293.72 287.03 296 284.74 299.91 284.14V284.13ZM349.74 338.32C351.339 337.507 353.107 337.083 354.9 337.083C356.693 337.083 358.462 337.507 360.06 338.32C362.91 339.96 362.91 342.63 360.06 344.27C358.462 345.083 356.693 345.507 354.9 345.507C353.107 345.507 351.339 345.083 349.74 344.27C346.9 342.64 346.9 340 349.74 338.33V338.32ZM282.32 299.39C280.722 300.203 278.953 300.627 277.16 300.627C275.367 300.627 273.599 300.203 272 299.39C269.15 297.75 269.15 295.08 272 293.39C273.6 292.581 275.367 292.16 277.16 292.16C278.953 292.16 280.72 292.581 282.32 293.39C285.17 295.09 285.17 297.76 282.32 299.4V299.39ZM270 311.74C269 313.99 265 315.32 261.06 314.74C257.12 314.16 254.86 311.83 255.91 309.58C256.96 307.33 260.91 306 264.84 306.58C268.77 307.16 271 309.49 270 311.74ZM362.08 326C363.08 323.75 367.08 322.42 371.02 323C374.96 323.58 377.22 325.91 376.17 328.16C375.12 330.41 371.17 331.74 367.24 331.16C363.31 330.58 361 328.24 362.08 326ZM371 314.72C367.11 315.32 363.11 313.99 362.06 311.72C361.01 309.45 363.33 307.16 367.22 306.56C371.11 305.96 375.11 307.29 376.15 309.56C377.19 311.83 374.91 314.12 371 314.72ZM261 323C264.9 322.4 268.9 323.73 269.94 326C270.98 328.27 268.67 330.55 264.78 331.16C260.89 331.77 256.89 330.43 255.85 328.16C254.81 325.89 257.15 323.61 261 323Z" fill="#FF6464"/>
<path opacity="0.35" d="M272 338.33C273.599 337.517 275.367 337.093 277.16 337.093C278.953 337.093 280.722 337.517 282.32 338.33C285.17 339.97 285.17 342.64 282.32 344.28C280.722 345.093 278.953 345.517 277.16 345.517C275.367 345.517 273.599 345.093 272 344.28C269.15 342.64 269.15 340 272 338.33ZM349.74 293.44C351.34 292.631 353.107 292.21 354.9 292.21C356.693 292.21 358.46 292.631 360.06 293.44C362.91 295.09 362.91 297.76 360.06 299.44C358.462 300.253 356.693 300.677 354.9 300.677C353.107 300.677 351.339 300.253 349.74 299.44C346.89 297.76 346.89 295.09 349.74 293.44ZM303.69 345.44C307.58 346.05 309.89 348.35 308.85 350.6C307.81 352.85 303.85 354.18 299.92 353.6C295.99 353.02 293.71 350.69 294.76 348.44C295.81 346.19 299.8 344.85 303.69 345.45V345.44ZM332.15 284.13C336.04 284.73 338.35 287.04 337.3 289.29C336.25 291.54 332.3 292.87 328.37 292.29C324.44 291.71 322.17 289.37 323.21 287.13C324.25 284.89 328.25 283.54 332.15 284.14V284.13ZM328.37 345.44C332.26 344.84 336.26 346.17 337.3 348.44C338.34 350.71 336.04 353 332.15 353.6C328.26 354.2 324.26 352.87 323.21 350.6C322.16 348.33 324.48 346.06 328.37 345.45V345.44ZM299.91 284.13C303.81 283.53 307.81 284.86 308.85 287.13C309.89 289.4 307.58 291.68 303.69 292.29C299.8 292.9 295.8 291.55 294.76 289.29C293.72 287.03 296 284.74 299.91 284.14V284.13ZM349.74 338.32C351.339 337.507 353.107 337.083 354.9 337.083C356.693 337.083 358.462 337.507 360.06 338.32C362.91 339.96 362.91 342.63 360.06 344.27C358.462 345.083 356.693 345.507 354.9 345.507C353.107 345.507 351.339 345.083 349.74 344.27C346.9 342.64 346.9 340 349.74 338.33V338.32ZM282.32 299.39C280.722 300.203 278.953 300.627 277.16 300.627C275.367 300.627 273.599 300.203 272 299.39C269.15 297.75 269.15 295.08 272 293.39C273.6 292.581 275.367 292.16 277.16 292.16C278.953 292.16 280.72 292.581 282.32 293.39C285.17 295.09 285.17 297.76 282.32 299.4V299.39ZM270 311.74C269 313.99 265 315.32 261.06 314.74C257.12 314.16 254.86 311.83 255.91 309.58C256.96 307.33 260.91 306 264.84 306.58C268.77 307.16 271 309.49 270 311.74ZM362.08 326C363.08 323.75 367.08 322.42 371.02 323C374.96 323.58 377.22 325.91 376.17 328.16C375.12 330.41 371.17 331.74 367.24 331.16C363.31 330.58 361 328.24 362.08 326ZM371 314.72C367.11 315.32 363.11 313.99 362.06 311.72C361.01 309.45 363.33 307.16 367.22 306.56C371.11 305.96 375.11 307.29 376.15 309.56C377.19 311.83 374.91 314.12 371 314.72ZM261 323C264.9 322.4 268.9 323.73 269.94 326C270.98 328.27 268.67 330.55 264.78 331.16C260.89 331.77 256.89 330.43 255.85 328.16C254.81 325.89 257.15 323.61 261 323Z" fill="white"/>
<path d="M257.35 329.78C258.464 329.058 259.724 328.593 261.04 328.42C263.616 327.962 266.27 328.445 268.52 329.78C267.402 330.503 266.139 330.971 264.82 331.15C262.246 331.606 259.594 331.12 257.35 329.78Z" fill="#FF6464"/>
<path d="M272 344.28C271.85 344.2 271.71 344.1 271.57 344.01C271.71 343.92 271.85 343.82 272 343.74C273.598 342.927 275.367 342.503 277.16 342.503C278.953 342.503 280.722 342.927 282.32 343.74C282.47 343.82 282.61 343.92 282.75 344.01C282.61 344.1 282.47 344.2 282.32 344.28C280.722 345.093 278.953 345.517 277.16 345.517C275.367 345.517 273.598 345.093 272 344.28Z" fill="#FF6464"/>
<path d="M307.39 290.91C306.272 291.633 305.009 292.101 303.69 292.28C301.116 292.736 298.464 292.25 296.22 290.91C297.334 290.188 298.594 289.723 299.91 289.55C302.486 289.092 305.14 289.574 307.39 290.91Z" fill="#FF6464"/>
<path d="M264.82 312C266.139 312.174 267.402 312.639 268.52 313.36C266.273 314.703 263.617 315.19 261.04 314.73C259.722 314.558 258.461 314.09 257.35 313.36C259.596 312.024 262.247 311.541 264.82 312Z" fill="#FF6464"/>
<path d="M299.92 353.59C298.601 353.419 297.336 352.954 296.22 352.23C298.463 350.886 301.116 350.399 303.69 350.86C305.009 351.031 306.274 351.496 307.39 352.22C305.147 353.562 302.494 354.049 299.92 353.59Z" fill="#FF6464"/>
<path d="M282.32 298.85L282.75 299.13L282.32 299.4C280.722 300.213 278.953 300.637 277.16 300.637C275.367 300.637 273.598 300.213 272 299.4L271.57 299.13L272 298.85C273.6 298.041 275.367 297.62 277.16 297.62C278.953 297.62 280.72 298.041 282.32 298.85Z" fill="#FF6464"/>
<path d="M367.24 331.15C365.921 330.969 364.658 330.502 363.54 329.78C365.79 328.445 368.444 327.962 371.02 328.42C372.339 328.594 373.602 329.059 374.72 329.78C372.472 331.119 369.817 331.605 367.24 331.15Z" fill="#FF6464"/>
<path d="M374.72 313.35C373.606 314.08 372.341 314.548 371.02 314.72C368.443 315.18 365.787 314.693 363.54 313.35C364.658 312.629 365.921 312.164 367.24 311.99C369.816 311.532 372.47 312.014 374.72 313.35Z" fill="#FF6464"/>
<path d="M349.74 344.28C349.59 344.2 349.45 344.1 349.31 344.01C349.45 343.92 349.59 343.82 349.74 343.74C351.338 342.927 353.107 342.503 354.9 342.503C356.693 342.503 358.461 342.927 360.06 343.74C360.21 343.82 360.35 343.92 360.49 344.01C360.35 344.1 360.21 344.2 360.06 344.28C358.461 345.093 356.693 345.517 354.9 345.517C353.107 345.517 351.338 345.093 349.74 344.28Z" fill="#FF6464"/>
<path d="M332.15 289.55C333.466 289.723 334.726 290.188 335.84 290.91C333.596 292.25 330.944 292.736 328.37 292.28C327.051 292.099 325.788 291.631 324.67 290.91C326.92 289.574 329.574 289.092 332.15 289.55Z" fill="#FF6464"/>
<path d="M349.74 298.85C351.34 298.041 353.107 297.62 354.9 297.62C356.693 297.62 358.46 298.041 360.06 298.85L360.49 299.13L360.06 299.4C358.461 300.213 356.693 300.637 354.9 300.637C353.107 300.637 351.338 300.213 349.74 299.4L349.31 299.13L349.74 298.85Z" fill="#FF6464"/>
<path d="M324.67 352.22C325.788 351.499 327.051 351.034 328.37 350.86C330.944 350.399 333.597 350.886 335.84 352.23C334.727 352.954 333.466 353.418 332.15 353.59C329.573 354.05 326.917 353.563 324.67 352.22Z" fill="#FF6464"/>
<path d="M250.77 269.74C250.77 260.09 257.15 250.44 269.9 243.08C295.41 228.35 336.77 228.35 362.28 243.08C375.03 250.44 381.41 260.08 381.41 269.74V317.44C381.41 327.09 375.03 336.74 362.28 344.11C336.77 358.83 295.41 358.83 269.9 344.11C257.15 336.74 250.77 327.11 250.77 317.44V269.74Z" fill="#FF6464"/>
<path opacity="0.1" d="M277 335.43C278.95 335.35 280.9 335.43 282.85 335.43C284.8 335.43 286.58 335.43 288.45 335.43C292.15 335.35 295.84 335.16 299.53 334.83C306.759 334.213 313.934 333.077 321 331.43C333.751 328.469 345.919 323.399 357 316.43C360.014 314.528 362.927 312.472 365.73 310.27C368.61 307.99 371.34 305.52 374.13 303.13C374.45 302.86 374.85 303.22 374.57 303.55C372.41 306.048 370.027 308.345 367.45 310.41C364.95 312.477 362.353 314.423 359.66 316.25C354.308 319.854 348.642 322.966 342.73 325.55C329.88 331.097 316.223 334.544 302.28 335.76C298.13 336.16 293.96 336.36 289.79 336.42C287.65 336.42 285.5 336.42 283.36 336.42C281.158 336.424 278.957 336.297 276.77 336.04C276.41 336 276.74 335.44 277 335.43ZM262.74 326.34C267.57 326.64 272.37 327.17 277.21 327.34C282.05 327.51 286.85 327.39 291.66 327.07C301.232 326.433 310.721 324.886 320 322.45C325.44 321.04 330.72 319.23 336.06 317.45C336.41 317.34 336.32 317.89 336.06 318C331.599 319.908 327.011 321.505 322.33 322.78C317.656 324.112 312.917 325.2 308.13 326.04C298.606 327.755 288.935 328.515 279.26 328.31C273.642 328.3 268.035 327.811 262.5 326.85C262.26 326.83 262.53 326.32 262.77 326.34H262.74ZM256.58 299.1C261.452 303.576 266.709 307.615 272.29 311.17C277.896 314.629 283.869 317.453 290.1 319.59C293.76 320.85 297.5 321.84 301.24 322.82C301.67 322.93 301.24 323.5 300.94 323.45C294.277 322.348 287.799 320.329 281.69 317.45C275.583 314.69 269.813 311.241 264.49 307.17C261.443 304.906 258.614 302.361 256.04 299.57C255.83 299.31 256.34 298.86 256.61 299.1H256.58ZM340.12 332C338.62 332.022 337.123 331.868 335.66 331.54C335.38 331.45 335.66 331.03 335.83 331.01C337.087 330.965 338.345 330.985 339.6 331.07C340.8 331.07 342 331.12 343.2 331.07C345.69 331.07 348.2 330.86 350.64 330.59C355.606 330.055 360.507 329.026 365.27 327.52C366.59 327.1 367.9 326.64 369.21 326.17C370.52 325.7 372.06 325.09 373.51 324.7C373.77 324.64 373.66 325.03 373.51 325.11C371.262 326.463 368.844 327.513 366.32 328.23C363.96 329 361.55 329.66 359.13 330.23C354.304 331.302 349.383 331.895 344.44 332C343 332 341.56 332 340.12 332ZM299.91 339.11C301.483 339.393 303.036 339.777 304.56 340.26C306.07 340.65 307.56 341.02 309.11 341.35C312.11 341.99 315.11 342.53 318.21 342.93C324.458 343.748 330.762 344.052 337.06 343.84C340.56 343.73 344.06 343.5 347.56 343.22C347.71 343.22 347.68 343.49 347.56 343.51C341.261 344.652 334.855 345.088 328.46 344.81C322.25 344.601 316.072 343.835 310 342.52C308.21 342.13 306.42 341.71 304.65 341.23C303.83 341.01 303.02 340.76 302.2 340.52C301.33 340.308 300.488 339.996 299.69 339.59C299.43 339.45 299.71 339.08 299.91 339.1V339.11Z" fill="black"/>
<path d="M261.81 229.42C291.81 212.11 340.39 212.11 370.37 229.42C385.37 238.08 392.86 249.42 392.86 260.76V267.25C392.86 278.6 385.36 289.94 370.37 298.59C340.37 315.9 291.79 315.9 261.81 298.59C246.81 289.94 239.33 278.59 239.33 267.25V260.76C239.33 249.41 246.82 238.08 261.81 229.42ZM340.36 246.75C326.96 239.01 305.23 239.01 291.82 246.75C285.12 250.61 281.82 255.69 281.82 260.75C281.82 265.81 285.17 270.89 291.82 274.75C305.23 282.49 326.95 282.49 340.36 274.75C347.06 270.88 350.36 265.81 350.36 260.75C350.36 255.69 347.06 250.61 340.36 246.75Z" fill="#FF6464"/>
<path opacity="0.35" d="M261.81 229.42C291.81 212.11 340.39 212.11 370.37 229.42C385.37 238.08 392.86 249.42 392.86 260.76V267.25C392.86 278.6 385.36 289.94 370.37 298.59C340.37 315.9 291.79 315.9 261.81 298.59C246.81 289.94 239.33 278.59 239.33 267.25V260.76C239.33 249.41 246.82 238.08 261.81 229.42ZM340.36 246.75C326.96 239.01 305.23 239.01 291.82 246.75C285.12 250.61 281.82 255.69 281.82 260.75C281.82 265.81 285.17 270.89 291.82 274.75C305.23 282.49 326.95 282.49 340.36 274.75C347.06 270.88 350.36 265.81 350.36 260.75C350.36 255.69 347.06 250.61 340.36 246.75Z" fill="white"/>
<path d="M261.81 229.42C291.81 212.11 340.39 212.11 370.37 229.42C385.37 238.08 392.86 249.42 392.86 260.76C392.86 272.1 385.36 283.44 370.37 292.1C340.37 309.41 291.79 309.41 261.81 292.1C246.81 283.44 239.33 272.1 239.33 260.76C239.33 249.42 246.82 238.08 261.81 229.42ZM291.81 274.77C305.22 282.51 326.94 282.51 340.35 274.77C347.05 270.9 350.35 265.83 350.35 260.77C350.35 255.71 347 250.62 340.35 246.77C326.95 239.03 305.22 239.03 291.81 246.77C285.11 250.63 281.81 255.71 281.81 260.77C281.81 265.83 285.12 270.9 291.82 274.77H291.81Z" fill="#FF6464"/>
<path opacity="0.7" d="M261.81 229.42C291.81 212.11 340.39 212.11 370.37 229.42C385.37 238.08 392.86 249.42 392.86 260.76C392.86 272.1 385.36 283.44 370.37 292.1C340.37 309.41 291.79 309.41 261.81 292.1C246.81 283.44 239.33 272.1 239.33 260.76C239.33 249.42 246.82 238.08 261.81 229.42ZM291.81 274.77C305.22 282.51 326.94 282.51 340.35 274.77C347.05 270.9 350.35 265.83 350.35 260.77C350.35 255.71 347 250.62 340.35 246.77C326.95 239.03 305.22 239.03 291.81 246.77C285.11 250.63 281.81 255.71 281.81 260.77C281.81 265.83 285.12 270.9 291.82 274.77H291.81Z" fill="white"/>
<path d="M281.77 260.76C281.77 265.83 285.12 270.9 291.77 274.76C305.18 282.5 326.9 282.5 340.31 274.76C347.01 270.89 350.31 265.82 350.31 260.76C350.31 255.7 346.96 250.61 340.31 246.76C326.91 239.02 305.18 239.02 291.77 246.76C285.12 250.61 281.77 255.69 281.77 260.76Z" fill="#FF6464"/>
<path opacity="0.35" d="M281.77 260.76C281.77 265.83 285.12 270.9 291.77 274.76C305.18 282.5 326.9 282.5 340.31 274.76C347.01 270.89 350.31 265.82 350.31 260.76C350.31 255.7 346.96 250.61 340.31 246.76C326.91 239.02 305.18 239.02 291.77 246.76C285.12 250.61 281.77 255.69 281.77 260.76Z" fill="white"/>
<path d="M272 280.26C273.599 279.447 275.367 279.023 277.16 279.023C278.953 279.023 280.722 279.447 282.32 280.26C285.17 281.9 285.17 284.57 282.32 286.21C280.722 287.023 278.953 287.447 277.16 287.447C275.367 287.447 273.599 287.023 272 286.21C269.15 284.57 269.15 281.9 272 280.26ZM349.74 235.37C351.34 234.561 353.107 234.14 354.9 234.14C356.693 234.14 358.46 234.561 360.06 235.37C362.91 237.02 362.91 239.68 360.06 241.37C358.46 242.178 356.693 242.6 354.9 242.6C353.107 242.6 351.34 242.178 349.74 241.37C346.89 239.68 346.89 237 349.74 235.37ZM303.69 287.37C307.58 287.97 309.89 290.28 308.85 292.53C307.81 294.78 303.85 296.11 299.92 295.53C295.99 294.95 293.71 292.61 294.76 290.37C295.81 288.13 299.8 286.78 303.69 287.38V287.37ZM332.15 226.06C336.04 226.66 338.35 228.97 337.3 231.22C336.25 233.47 332.3 234.8 328.37 234.22C324.44 233.64 322.17 231.31 323.21 229.07C324.25 226.83 328.25 225.47 332.15 226.07V226.06ZM328.37 287.37C332.26 286.77 336.26 288.1 337.3 290.37C338.34 292.64 336.04 294.92 332.15 295.53C328.26 296.14 324.26 294.79 323.21 292.53C322.16 290.27 324.48 288 328.37 287.38V287.37ZM299.91 226.06C303.81 225.46 307.81 226.79 308.85 229.06C309.89 231.33 307.58 233.61 303.69 234.21C299.8 234.81 295.8 233.48 294.76 231.21C293.72 228.94 296 226.67 299.91 226.07V226.06ZM349.74 280.25C351.339 279.437 353.107 279.013 354.9 279.013C356.693 279.013 358.462 279.437 360.06 280.25C362.91 281.89 362.91 284.56 360.06 286.2C358.462 287.013 356.693 287.437 354.9 287.437C353.107 287.437 351.339 287.013 349.74 286.2C346.9 284.57 346.9 281.9 349.74 280.26V280.25ZM282.32 241.32C280.72 242.128 278.953 242.55 277.16 242.55C275.367 242.55 273.6 242.128 272 241.32C269.15 239.67 269.15 237.01 272 235.32C273.6 234.511 275.367 234.09 277.16 234.09C278.953 234.09 280.72 234.511 282.32 235.32C285.17 237 285.17 239.68 282.32 241.33V241.32ZM270 253.67C269 255.91 265 257.25 261.06 256.67C257.12 256.09 254.86 253.76 255.91 251.52C256.96 249.28 260.91 247.94 264.84 248.52C268.77 249.1 271 251.42 270 253.67ZM362.1 267.92C363.1 265.67 367.1 264.34 371.04 264.92C374.98 265.5 377.24 267.83 376.19 270.08C375.14 272.33 371.19 273.66 367.26 273.08C363.33 272.5 361 270.16 362.08 267.92H362.1ZM371 256.65C367.11 257.25 363.11 255.91 362.06 253.65C361.01 251.39 363.33 249.09 367.22 248.49C371.11 247.89 375.11 249.22 376.15 251.49C377.19 253.76 374.91 256 371 256.65ZM261 264.94C264.9 264.34 268.9 265.67 269.94 267.94C270.98 270.21 268.67 272.49 264.78 273.09C260.89 273.69 256.89 272.36 255.85 270.09C254.81 267.82 257.15 265.54 261 264.94Z" fill="#FF6464"/>
<path opacity="0.35" d="M272 280.26C273.599 279.447 275.367 279.023 277.16 279.023C278.953 279.023 280.722 279.447 282.32 280.26C285.17 281.9 285.17 284.57 282.32 286.21C280.722 287.023 278.953 287.447 277.16 287.447C275.367 287.447 273.599 287.023 272 286.21C269.15 284.57 269.15 281.9 272 280.26ZM349.74 235.37C351.34 234.561 353.107 234.14 354.9 234.14C356.693 234.14 358.46 234.561 360.06 235.37C362.91 237.02 362.91 239.68 360.06 241.37C358.46 242.178 356.693 242.6 354.9 242.6C353.107 242.6 351.34 242.178 349.74 241.37C346.89 239.68 346.89 237 349.74 235.37ZM303.69 287.37C307.58 287.97 309.89 290.28 308.85 292.53C307.81 294.78 303.85 296.11 299.92 295.53C295.99 294.95 293.71 292.61 294.76 290.37C295.81 288.13 299.8 286.78 303.69 287.38V287.37ZM332.15 226.06C336.04 226.66 338.35 228.97 337.3 231.22C336.25 233.47 332.3 234.8 328.37 234.22C324.44 233.64 322.17 231.31 323.21 229.07C324.25 226.83 328.25 225.47 332.15 226.07V226.06ZM328.37 287.37C332.26 286.77 336.26 288.1 337.3 290.37C338.34 292.64 336.04 294.92 332.15 295.53C328.26 296.14 324.26 294.79 323.21 292.53C322.16 290.27 324.48 288 328.37 287.38V287.37ZM299.91 226.06C303.81 225.46 307.81 226.79 308.85 229.06C309.89 231.33 307.58 233.61 303.69 234.21C299.8 234.81 295.8 233.48 294.76 231.21C293.72 228.94 296 226.67 299.91 226.07V226.06ZM349.74 280.25C351.339 279.437 353.107 279.013 354.9 279.013C356.693 279.013 358.462 279.437 360.06 280.25C362.91 281.89 362.91 284.56 360.06 286.2C358.462 287.013 356.693 287.437 354.9 287.437C353.107 287.437 351.339 287.013 349.74 286.2C346.9 284.57 346.9 281.9 349.74 280.26V280.25ZM282.32 241.32C280.72 242.128 278.953 242.55 277.16 242.55C275.367 242.55 273.6 242.128 272 241.32C269.15 239.67 269.15 237.01 272 235.32C273.6 234.511 275.367 234.09 277.16 234.09C278.953 234.09 280.72 234.511 282.32 235.32C285.17 237 285.17 239.68 282.32 241.33V241.32ZM270 253.67C269 255.91 265 257.25 261.06 256.67C257.12 256.09 254.86 253.76 255.91 251.52C256.96 249.28 260.91 247.94 264.84 248.52C268.77 249.1 271 251.42 270 253.67ZM362.1 267.92C363.1 265.67 367.1 264.34 371.04 264.92C374.98 265.5 377.24 267.83 376.19 270.08C375.14 272.33 371.19 273.66 367.26 273.08C363.33 272.5 361 270.16 362.08 267.92H362.1ZM371 256.65C367.11 257.25 363.11 255.91 362.06 253.65C361.01 251.39 363.33 249.09 367.22 248.49C371.11 247.89 375.11 249.22 376.15 251.49C377.19 253.76 374.91 256 371 256.65ZM261 264.94C264.9 264.34 268.9 265.67 269.94 267.94C270.98 270.21 268.67 272.49 264.78 273.09C260.89 273.69 256.89 272.36 255.85 270.09C254.81 267.82 257.15 265.54 261 264.94Z" fill="white"/>
<path d="M257.35 271.71C258.465 270.988 259.724 270.521 261.04 270.34C263.617 269.885 266.272 270.371 268.52 271.71C267.404 272.434 266.139 272.899 264.82 273.07C262.247 273.529 259.596 273.046 257.35 271.71Z" fill="#FF6464"/>
<path d="M272 286.21L271.57 285.94L272 285.66C273.6 284.851 275.367 284.43 277.16 284.43C278.953 284.43 280.72 284.851 282.32 285.66L282.75 285.94L282.32 286.21C280.722 287.023 278.953 287.447 277.16 287.447C275.367 287.447 273.598 287.023 272 286.21Z" fill="#FF6464"/>
<path d="M307.39 232.84C306.274 233.564 305.009 234.029 303.69 234.2C301.117 234.659 298.466 234.177 296.22 232.84C297.335 232.118 298.594 231.651 299.91 231.47C302.487 231.015 305.142 231.501 307.39 232.84Z" fill="#FF6464"/>
<path d="M264.82 253.92C266.139 254.094 267.402 254.559 268.52 255.28C266.27 256.615 263.616 257.098 261.04 256.64C259.724 256.467 258.464 256.002 257.35 255.28C259.596 253.943 262.247 253.461 264.82 253.92Z" fill="#FF6464"/>
<path d="M299.92 295.52C298.601 295.341 297.338 294.873 296.22 294.15C298.466 292.814 301.117 292.331 303.69 292.79C305.009 292.962 306.274 293.426 307.39 294.15C305.142 295.479 302.494 295.965 299.92 295.52Z" fill="#FF6464"/>
<path d="M282.32 240.78L282.75 241.05L282.32 241.33C280.72 242.139 278.953 242.56 277.16 242.56C275.367 242.56 273.6 242.139 272 241.33L271.57 241.05L272 240.78C273.598 239.967 275.367 239.543 277.16 239.543C278.953 239.543 280.722 239.967 282.32 240.78Z" fill="#FF6464"/>
<path d="M367.24 273.07C365.921 272.896 364.658 272.431 363.54 271.71C365.791 270.379 368.443 269.893 371.02 270.34C372.339 270.521 373.602 270.988 374.72 271.71C372.47 273.045 369.816 273.528 367.24 273.07Z" fill="#FF6464"/>
<path d="M374.72 255.28C373.602 256.002 372.339 256.469 371.02 256.65C368.443 257.097 365.791 256.611 363.54 255.28C364.658 254.559 365.921 254.094 367.24 253.92C369.816 253.462 372.47 253.945 374.72 255.28Z" fill="#FF6464"/>
<path d="M349.74 286.21L349.31 285.94L349.74 285.66C351.34 284.851 353.107 284.43 354.9 284.43C356.693 284.43 358.46 284.851 360.06 285.66L360.49 285.94L360.06 286.21C358.461 287.023 356.693 287.447 354.9 287.447C353.107 287.447 351.338 287.023 349.74 286.21Z" fill="#FF6464"/>
<path d="M332.15 231.47C333.465 231.651 334.725 232.118 335.84 232.84C333.594 234.177 330.942 234.659 328.37 234.2C327.051 234.026 325.788 233.561 324.67 232.84C326.918 231.501 329.573 231.015 332.15 231.47Z" fill="#FF6464"/>
<path d="M349.74 240.78C351.338 239.967 353.107 239.543 354.9 239.543C356.693 239.543 358.461 239.967 360.06 240.78L360.49 241.05L360.06 241.33C358.46 242.139 356.693 242.56 354.9 242.56C353.107 242.56 351.34 242.139 349.74 241.33L349.31 241.05L349.74 240.78Z" fill="#FF6464"/>
<path d="M324.67 294.15C325.788 293.429 327.051 292.964 328.37 292.79C330.942 292.331 333.594 292.814 335.84 294.15C334.726 294.873 333.466 295.341 332.15 295.52C329.573 295.967 326.921 295.481 324.67 294.15Z" fill="#FF6464"/>
<path d="M221.61 311.64C221.61 311.64 225 336.9 223.12 346C221.18 355.51 222.64 359.21 218.39 369C217.47 371.14 215.14 375.29 214.39 377C213.72 378.54 213.98 380 215.94 380.95C219.79 382.86 228.54 376.95 233.94 369.48C239.34 362.01 248.76 344.4 249.63 342.22C250.38 339.998 250.525 337.616 250.05 335.32C249.846 333.993 249.511 332.69 249.05 331.43C248.77 327 250.14 319.06 250.4 313.43L221.61 311.64Z" fill="#FFBDA7"/>
<path d="M255.35 352.9C255.636 353.995 255.734 355.132 255.64 356.26C255.25 358.16 249.42 363.26 247.18 365.04C244.94 366.82 242.58 369.25 241.35 374.91C240 381 235.89 386.05 230.74 390C225.59 393.95 217.46 397.6 206.74 398.07C196.02 398.54 193.87 392.68 193.87 392.68C193.87 392.68 192.04 387.12 194.4 385.68C196.76 384.24 255.35 352.9 255.35 352.9Z" fill="#263238"/>
<path d="M249 331.48C249.31 331.55 249.86 331.6 250.39 332.74C250.59 333.17 251.24 338.08 252.13 340.8C253.13 343.72 255.79 348.98 255.31 352.9C251.12 359.63 242.92 362.95 240.09 369.6C237.26 376.25 235.09 384.25 222.21 389.95C209.33 395.65 198.21 393.69 194.87 390.42C191.53 387.15 192.98 383.04 200.54 376.42C208.54 369.42 217.28 352 217.28 351.99C218.467 349.536 219.492 347.007 220.35 344.42C221.2 341.94 221.17 339.06 221.63 336.47C221.734 335.22 222.227 334.035 223.04 333.08C224.035 332.318 225.239 331.879 226.49 331.82C228.467 331.449 230.48 331.304 232.49 331.39C234.494 331.476 236.413 332.229 237.94 333.53C238.94 334.53 239.72 335.82 240.87 336.69C241.653 337.261 242.579 337.602 243.545 337.676C244.511 337.751 245.479 337.554 246.34 337.11C247.188 336.738 247.899 336.112 248.375 335.318C248.851 334.525 249.07 333.603 249 332.68V331.48Z" fill="#37474F"/>
<path d="M230.23 384.78C230.23 384.78 228.29 375.33 216.99 372.44C205.69 369.55 200.29 374.28 197.69 377.21C194.6 380.7 190.57 387.44 194.69 390.74C199.13 394.31 205.14 395.13 215.51 392.92C225.88 390.71 230.23 384.78 230.23 384.78Z" fill="#FAFAFA"/>
<path d="M237 350.23C236.824 350.264 236.642 350.257 236.469 350.21C236.295 350.164 236.135 350.078 236 349.96C234.49 348.62 225.76 344.29 219.09 347.88C218.54 347.14 218.95 346.16 220.21 344.95C227.54 342.59 235.81 346.64 237.64 348.27C237.754 348.369 237.846 348.491 237.91 348.628C237.975 348.764 238.011 348.913 238.016 349.064C238.02 349.215 237.994 349.365 237.938 349.506C237.882 349.646 237.797 349.773 237.69 349.88C237.504 350.068 237.262 350.191 237 350.23Z" fill="#FAFAFA"/>
<path d="M216.21 354.16C216.205 353.589 216.334 353.026 216.588 352.515C216.841 352.004 217.212 351.56 217.67 351.22C224.75 349.47 232.42 353.22 234.18 354.82C234.291 354.923 234.379 355.047 234.439 355.186C234.499 355.324 234.53 355.474 234.53 355.625C234.53 355.776 234.499 355.925 234.439 356.064C234.379 356.202 234.291 356.327 234.18 356.43C234.005 356.613 233.778 356.739 233.53 356.79C233.353 356.822 233.171 356.813 232.998 356.765C232.825 356.716 232.665 356.629 232.53 356.51C231.07 355.21 222.79 351.11 216.21 354.16Z" fill="#FAFAFA"/>
<path d="M207.64 368.22C208.016 366.73 208.9 365.418 210.14 364.51C217.39 362.36 225.47 366.32 227.27 367.92C227.384 368.019 227.476 368.141 227.54 368.278C227.605 368.414 227.641 368.563 227.646 368.714C227.65 368.865 227.624 369.016 227.568 369.156C227.512 369.296 227.427 369.424 227.32 369.53C227.145 369.714 226.918 369.839 226.67 369.89C226.494 369.922 226.313 369.914 226.14 369.867C225.967 369.821 225.806 369.736 225.67 369.62C224 368.2 214.41 363.46 207.64 368.22Z" fill="#FAFAFA"/>
<path d="M230.12 363.34C229.943 363.373 229.761 363.364 229.588 363.316C229.414 363.267 229.254 363.18 229.12 363.06C227.62 361.74 219.12 357.5 212.43 360.87C212.479 360.25 212.668 359.65 212.983 359.115C213.299 358.579 213.732 358.123 214.25 357.78C221.33 356.02 229 359.78 230.75 361.37C230.864 361.469 230.956 361.591 231.021 361.728C231.085 361.864 231.121 362.013 231.126 362.164C231.13 362.315 231.104 362.465 231.048 362.606C230.992 362.746 230.908 362.874 230.8 362.98C230.617 363.169 230.379 363.295 230.12 363.34Z" fill="#FAFAFA"/>
<path d="M206.65 336.15C195.05 361.93 196.17 362.15 184.8 375.64C176.05 385.99 171.66 390.93 161.55 397.84C159.35 399.34 154.55 401.95 152.76 403.16C151.16 404.24 150.53 405.81 151.84 407.94C154.41 412.14 168.84 416.78 178.6 412.81C188.36 408.84 199.3 397.74 205.48 394.09C207.8 392.72 210.03 391.28 212.2 389.71C214.37 388.14 214.35 386.23 215.07 384.09C215.41 383.09 216.02 380.15 216.02 380.15C218.49 375.31 223.65 368.06 226.58 363.48L206.65 336.15Z" fill="#B0715C"/>
<path d="M212.82 403.94C212.575 405.215 212.115 406.439 211.46 407.56C210.12 409.34 201.58 411.7 198.37 412.48C195.16 413.26 191.53 414.56 187.46 419.82C183.11 425.44 176.32 428.65 169.04 430.18C161.76 431.71 151.55 431.5 140.26 426.72C128.97 421.94 129.6 414.79 129.6 414.79C129.6 414.79 130.45 408.13 133.6 407.79C136.75 407.45 212.82 403.94 212.82 403.94Z" fill="#263238"/>
<path d="M216.9 378.51C217.217 378.757 217.458 379.09 217.595 379.468C217.731 379.847 217.757 380.257 217.67 380.65C216.787 383.681 216.059 386.755 215.49 389.86C215.04 393.34 215.25 400.12 212.82 403.94C205.15 408.84 195.03 408.23 188.82 413.71C182.61 419.19 176.38 426.39 160.28 425.96C144.18 425.53 133.6 417.96 131.74 412.96C129.88 407.96 133.43 404.39 144.51 401.29C156.27 398.01 173.88 384.29 173.89 384.29C176.325 382.328 178.633 380.214 180.8 377.96C182.91 375.82 184.29 372.82 186.05 370.37C186.772 369.128 187.867 368.144 189.18 367.56C190.587 367.255 192.053 367.391 193.38 367.95C195.586 368.539 197.72 369.375 199.74 370.44C201.774 371.52 203.389 373.248 204.33 375.35C204.93 376.88 205.04 378.6 205.8 380.07C206.33 381.044 207.12 381.853 208.082 382.405C209.045 382.958 210.141 383.233 211.25 383.2C212.23 383.128 213.177 382.818 214.009 382.295C214.841 381.771 215.531 381.052 216.02 380.2L216.9 378.51Z" fill="#37474F"/>
<path d="M171.09 424.55C171.09 424.55 173.74 413.81 163.47 405.24C153.2 396.67 145.27 398.9 141.14 400.65C136.22 402.74 128.72 407.73 131.35 413.18C134.19 419.07 140.01 422.88 151.83 425.7C163.65 428.52 171.09 424.55 171.09 424.55Z" fill="#FAFAFA"/>
<path d="M195.16 392.14C194.955 392.088 194.765 391.989 194.604 391.852C194.443 391.715 194.315 391.544 194.23 391.35C193.32 389.21 186.43 380.43 177.75 380.85C177.55 379.85 178.45 378.99 180.36 378.37C189.11 379.54 195.67 387.82 196.76 390.37C196.827 390.53 196.861 390.703 196.859 390.876C196.858 391.05 196.821 391.222 196.751 391.381C196.68 391.54 196.579 391.683 196.451 391.802C196.324 391.92 196.174 392.011 196.01 392.07C195.74 392.177 195.444 392.202 195.16 392.14Z" fill="#FAFAFA"/>
<path d="M171.68 385.93C171.96 385.333 172.379 384.812 172.9 384.408C173.422 384.005 174.032 383.731 174.68 383.61C182.87 385.29 188.95 393.01 189.99 395.48C190.057 395.639 190.092 395.81 190.09 395.983C190.089 396.155 190.053 396.326 189.984 396.484C189.915 396.642 189.814 396.785 189.688 396.903C189.561 397.021 189.413 397.111 189.25 397.17C188.914 397.301 188.54 397.297 188.206 397.159C187.873 397.022 187.606 396.76 187.46 396.43C186.54 394.35 180 386 171.68 385.93Z" fill="#FAFAFA"/>
<path d="M155.87 396.25C157 394.895 158.566 393.975 160.3 393.65C168.86 395 175.3 403.09 176.3 405.65C176.369 405.809 176.404 405.981 176.404 406.155C176.404 406.329 176.368 406.501 176.299 406.66C176.229 406.82 176.128 406.963 176.001 407.082C175.874 407.2 175.724 407.292 175.56 407.35C175.28 407.434 174.98 407.434 174.7 407.35C174.495 407.298 174.305 407.199 174.144 407.062C173.982 406.926 173.855 406.754 173.77 406.56C172.86 404.33 165.23 394.67 155.87 396.25Z" fill="#FAFAFA"/>
<path d="M181.55 402.29C181.344 402.241 181.152 402.144 180.99 402.007C180.828 401.87 180.701 401.696 180.62 401.5C179.72 399.39 172.96 390.79 164.43 391C164.784 390.382 165.274 389.853 165.864 389.453C166.453 389.052 167.125 388.792 167.83 388.69C176.03 390.37 182.1 398.08 183.15 400.56C183.217 400.72 183.251 400.891 183.249 401.064C183.247 401.238 183.21 401.409 183.14 401.567C183.07 401.725 182.968 401.867 182.841 401.985C182.713 402.102 182.563 402.193 182.4 402.25C182.129 402.357 181.83 402.372 181.55 402.29Z" fill="#FAFAFA"/>
<path d="M302.8 185.82C288.48 193.02 235.03 214.44 215.23 229.56C208.32 234.83 205.37 239.13 207.85 254.56C212.38 282.82 221.75 320.56 221.75 320.56C227.53 324.47 242.23 324.96 250.39 321.56L254 279L305.7 260.19L302.8 185.82Z" fill="#455A64"/>
<path d="M221.6 320C221.11 318 219.42 311.05 217.3 301.74C217.3 301.74 223.77 284.08 227.58 275.32C230.83 267.86 235.38 265.16 247.76 258.01C260.14 250.86 292.76 234.76 297.54 231.87C296.09 227.03 295.13 214.32 299.33 206.71C299.33 206.71 299.49 225.98 304.69 234.22L304.78 236.58C301.2 240.58 287.23 255.99 271.38 272.68L254 279L252.93 291.74C240.17 304.54 228.33 315.65 221.6 320Z" fill="#37474F"/>
<path d="M302.8 185.82L391.52 222.82C391.52 238.33 386.2 251.28 380.12 259.26C374.04 267.24 361.46 278.71 335.91 286.18C310.6 293.59 298.14 296.09 283.63 299.78C271.97 302.78 265.63 303.09 261.35 314.65C257.538 325.325 251.713 335.17 244.19 343.65C236.405 352.118 229.268 361.16 222.84 370.7C222.84 370.7 207.84 365.1 198.16 353.26C198.16 353.26 218.86 302.11 225.55 286.42C230.49 274.83 232.04 270.84 247.15 262.1C259.24 255.1 303.55 234.73 303.55 234.73C303.55 234.73 289.3 206.21 302.8 185.82Z" fill="#455A64"/>
<path d="M245.46 331.47C250.27 322.31 250.46 319.65 252.63 312.93C255.23 304.73 256.98 301.93 261.53 298.4C266.46 294.55 279.25 291.25 293.53 286.71C303.07 283.71 313.89 280.23 326.12 275.71C338.99 270.94 347.68 266.05 353.77 260.21C344.12 253.69 346.87 243.13 352.92 223.87L354.16 224.26C348.09 243.56 345.57 253.26 354.73 259.26C362.62 251.19 365.85 241.26 368.29 227.38L369.56 227.61C365.14 252.78 358.19 265.19 326.56 276.92C314.3 281.46 303.47 284.92 293.91 287.92C279.76 292.43 267.06 295.7 262.31 299.4C258.09 302.7 256.49 305.01 253.85 313.3C251.7 320.07 251.46 322.79 246.6 332.05C240.38 343.92 223.55 360.48 217.6 368.31L216.45 367.72C222.48 359.89 239.23 343.36 245.46 331.47Z" fill="#37474F"/>
<path d="M369.27 24.7399C369.38 24.1531 369.43 23.5568 369.42 22.9599C369.12 14.2999 361.58 7.66988 354.25 4.21988C343.1 -1.01012 330.13 -0.110116 319.15 5.10988C307.7 10.5499 294.86 20.7399 295.74 34.5799C296.06 39.5799 297.95 42.0399 299.09 44.6499C301.24 49.5599 295.64 55.6499 293.09 59.2299C290.3 63.2299 288.16 68.0499 289.2 72.7699C289.952 71.0546 291.264 69.6447 292.92 68.7699C291.92 69.2799 291.86 71.7699 291.7 72.7699C291.43 74.5447 291.45 76.3516 291.76 78.1199C292.46 81.8099 294.146 85.2414 296.64 88.0499C300.59 92.5599 306.06 95.4899 311.64 97.6699C319.19 100.613 327.152 102.364 335.24 102.86C341.56 103.358 347.904 103.502 354.24 103.29C366.42 102.67 380.58 98.7799 385.42 86.2899C386.436 84.0217 386.696 81.4868 386.16 79.0599C386.849 80.1345 387.275 81.3559 387.406 82.6256C387.536 83.8953 387.366 85.1778 386.91 86.3699C390.13 82.7099 390.36 77.1499 388.74 72.5599C387.21 68.2399 384.22 65.2299 381.74 61.5599C379.49 58.2599 380.74 53.6799 381.06 49.9999C381.581 45.359 381.086 40.6605 379.61 36.2299C378.15 32.1899 373.93 25.4399 369.27 24.7399Z" fill="#263238"/>
<path d="M226.294 131.399C226.723 130.031 226.916 128.601 226.864 127.169C226.797 126.529 226.861 125.882 227.054 125.269C227.327 124.506 227.482 123.707 227.514 122.899C227.49 121.981 227.598 121.065 227.834 120.179C228.334 118.589 229.704 118.389 230.924 117.299C231.836 116.499 232.505 115.46 232.854 114.299C233.794 112.059 235.124 110.559 237.744 110.909C239.145 111.169 240.496 111.652 241.744 112.339L246.544 114.649C247.37 115.1 248.26 115.42 249.184 115.599C251.264 115.889 252.654 115.099 254.654 115.109C255.59 115.078 256.51 115.355 257.274 115.897C258.038 116.439 258.603 117.215 258.884 118.109C259.534 120.179 258.214 121.939 257.404 123.719C256.883 124.615 256.482 125.577 256.214 126.579C256.167 127.913 256.2 129.248 256.314 130.579C256.314 132.089 256.184 133.579 256.124 135.099C256.062 135.698 256.106 136.304 256.254 136.889C256.819 138.322 257.583 139.669 258.524 140.889C259.924 142.229 280.924 157.259 280.924 157.259C280.924 157.259 285.634 143.629 294.344 118.839C300.764 100.569 305.754 93.3286 319.914 94.0486L326.304 134.539C326.304 134.539 313.434 167.159 293.304 192.899C289.074 198.329 284.844 198.839 277.904 194.289C273.904 191.669 266.534 184.109 261.494 178.139C251.054 165.779 249.444 163.539 242.174 154.449C237.024 147.989 233.724 145.339 229.514 140.449C227.514 138.159 225.624 135.349 226.064 132.339C226.184 131.979 226.234 131.679 226.294 131.399Z" fill="#B0715C"/>
<path d="M260.63 140.8C260.983 139.132 260.854 137.398 260.26 135.8L238.37 78.73L264.32 134.07C265.053 135.593 266.2 136.879 267.63 137.78C269.109 138.746 270.258 140.142 270.92 141.78C272.47 145.42 271.55 149.29 268.92 150.43C266.29 151.57 262.82 149.54 261.27 145.9C260.544 144.304 260.32 142.526 260.63 140.8ZM267.63 147.58C269.14 146.94 269.63 144.76 268.78 142.72C267.93 140.68 265.99 139.54 264.49 140.18C262.99 140.82 262.49 142.99 263.34 145.04C264.19 147.09 266.14 148.22 267.64 147.58H267.63Z" fill="#455A64"/>
<path d="M281.25 156.91C290.9 163.49 294.3 170.91 295.63 175.22C294.8 166.43 293.38 159.9 282.63 152.99L281.25 156.91Z" fill="#C3806A"/>
<path d="M232.74 110.73C235.356 110.055 238.039 109.676 240.74 109.6C242.68 109.41 248.74 111.2 249.92 112.3C251.63 113.9 253.37 115.5 255.36 117.59C257.35 119.68 254.31 121.34 252.13 120.97C248.74 120.38 244.01 116.71 241.89 116.76C238.129 117.11 234.398 117.738 230.73 118.64C229.37 119.15 225.67 113.33 232.74 110.73Z" fill="#B0715C"/>
<path d="M232.74 110.73C235.378 110.081 238.083 109.746 240.8 109.73C243.49 109.954 246.114 110.676 248.54 111.86C249.64 112.27 250.71 113.62 251.54 114.39C252.54 115.34 253.45 116.31 254.39 117.29C255.14 118.05 256.21 119.05 254.89 119.94C254.381 120.269 253.802 120.475 253.2 120.541C252.598 120.607 251.988 120.531 251.42 120.32C248.92 119.58 246.62 118.07 244.08 116.96C242.757 116.379 241.276 116.266 239.88 116.64C237.18 117.06 234.51 117.57 231.88 118.22C231.27 118.29 230.61 118.84 230.04 118.41C229.256 117.771 228.752 116.851 228.636 115.846C228.52 114.841 228.802 113.831 229.42 113.03C230.299 111.99 231.448 111.211 232.74 110.78V110.73ZM232.74 110.73C230.18 111.5 227.59 113.97 228.74 116.84C229.07 117.7 229.87 119.12 230.98 118.72C234.599 117.909 238.278 117.391 241.98 117.17C245.87 117.93 249.1 121.72 253.38 121.48C255.45 121.3 257.64 119.31 255.78 117.36C254.17 115.67 252.3 114.01 250.56 112.45C249.03 111.03 246.78 110.62 244.85 110.07C240.9 109.07 236.63 109.69 232.74 110.73Z" fill="#F0997A"/>
<path d="M228.13 120C228.67 117.3 230.96 116.58 235.19 116.11C239.42 115.64 242.51 115.38 243.59 115.64C244.67 115.9 251.79 119.54 252.73 120.1C253.67 120.66 254.79 121.65 256.57 122.92C258.35 124.19 259.37 125.17 257.78 126.5C256.19 127.83 251.69 126.66 249.61 125.74C247.53 124.82 242.74 122.85 241.03 123.03C239.32 123.21 234.55 124.47 234.55 124.47C234.55 124.47 241.65 125.47 244.1 126.12C246.55 126.77 248.75 134.31 248.75 134.31C249.69 137.24 249.15 138.02 248.1 138.56C247.746 138.709 247.363 138.781 246.979 138.771C246.594 138.761 246.216 138.668 245.87 138.5C246.048 138.978 246.037 139.507 245.838 139.978C245.639 140.448 245.268 140.825 244.8 141.03C243.07 141.77 240.93 140.76 239.51 139.24C238.09 137.72 236.19 135.31 236.19 135.31C234.672 135.409 233.164 135.627 231.68 135.96C229.6 136.48 230.42 139.09 232.37 140.31" fill="#B0715C"/>
<path d="M255 122.32C251.57 119.53 247.48 117.75 243.49 115.94C240.41 115.62 237.2 116.16 234.1 116.4C231.72 116.66 228.6 117.24 228.1 120.02C228.49 117.19 231.67 116.47 234.1 116.13C237.28 115.78 240.45 115.07 243.67 115.38C247.78 117.11 252.04 118.9 255.55 121.64C256.67 122.64 258.81 123.39 259.03 125.25C258.58 128.14 254.8 127.7 252.72 127.25C248.49 126.48 244.58 123.18 240.23 123.72C239.23 123.91 238.18 124.14 237.15 124.38C238.5 124.59 239.84 124.81 241.15 125.05C242.73 125.4 244.94 125.47 245.89 127.05C247.447 129.397 248.597 131.99 249.29 134.72C249.56 135.87 249.97 137.16 249.19 138.27C248.846 138.673 248.394 138.968 247.886 139.12C247.379 139.273 246.839 139.276 246.33 139.13C246.366 139.702 246.19 140.266 245.836 140.716C245.482 141.166 244.974 141.47 244.41 141.57C241.8 142.13 239.68 140.11 238.24 138.27C237.51 137.39 236.8 136.49 236.1 135.58C234.445 135.618 232.802 135.866 231.21 136.32C230.866 136.551 230.625 136.905 230.536 137.309C230.446 137.713 230.516 138.136 230.73 138.49C231.078 139.267 231.645 139.927 232.36 140.39C231.03 139.65 229.41 137.32 231.11 136.16C232.783 135.567 234.545 135.262 236.32 135.26C238.48 137.55 240.63 141.57 244.25 140.94C244.495 140.891 244.728 140.794 244.934 140.653C245.14 140.512 245.316 140.331 245.45 140.12C245.644 139.714 245.676 139.249 245.54 138.82C245.288 137.83 244.85 136.897 244.25 136.07L243.51 134.9C243.383 134.747 243.275 134.579 243.19 134.4C242.33 133.24 241.48 131.49 240.29 130.78C237.29 129.54 234 129.08 230.86 128.35C234.236 128.161 237.614 128.675 240.78 129.86C241.549 130.365 242.181 131.052 242.62 131.86C243.21 132.755 243.741 133.686 244.21 134.65C244.67 135.58 245.04 136.56 245.51 137.49C245.64 137.75 245.81 138.19 246.07 138.33C246.347 138.453 246.647 138.518 246.95 138.52C247.253 138.54 247.556 138.49 247.836 138.371C248.116 138.253 248.364 138.071 248.56 137.84C249.04 137.16 248.75 135.99 248.47 135C247.862 132.922 247.045 130.912 246.03 129C245.609 128.093 244.944 127.321 244.11 126.77C243.33 126.51 241.84 126.28 240.98 126.11C238.82 125.73 236.64 125.41 234.47 125.11C234.372 125.095 234.28 125.052 234.206 124.986C234.132 124.921 234.077 124.835 234.05 124.74C234.016 124.61 234.035 124.472 234.103 124.356C234.17 124.24 234.281 124.155 234.41 124.12C236.92 123.6 239.49 122.51 242.07 122.72C245.96 123.41 249.14 125.55 252.9 126.43C254.54 126.71 256.62 127.28 257.84 125.93C259.06 124.58 255.89 123.2 255 122.32Z" fill="#C3806A"/>
<path d="M294.36 165C281 151 285.74 134.19 289.3 127.5C296.43 114.11 320.24 93.8298 320.24 93.8298C320.24 93.8298 341.11 94.3498 351.03 95.6798C360.95 97.0098 376.92 101.92 376.92 101.92C374.861 112.194 374.095 122.685 374.64 133.15C375.5 153.54 389.89 157 389.89 157C389.89 157 385.74 173.71 385.32 181.14C384.88 188.76 386.92 195.32 388.65 201.86C393.14 218.86 392.23 225.35 392.06 229.21C391.89 233.07 388.3 234.66 386.49 235.21C349.61 247.39 284.85 230.1 284.4 196.01C285.55 189.85 289.4 189.23 291.95 181.59C294.5 173.95 294.27 177.57 294.36 165Z" fill="#37474F"/>
<path d="M319.09 167.59C319.09 167.59 326.85 177.46 343.76 174.79C360.67 172.12 364.12 159.41 364.12 159.41C364.12 159.41 364.97 175.81 344.75 178.93C324.84 182 319.09 167.59 319.09 167.59Z" fill="#263238"/>
<path d="M359.26 92.3099C359.26 89.0199 359.67 72.4999 359.67 72.4999C359.81 73.7299 365.81 77.0799 371.16 70.7099C376.64 64.1699 376.86 57.5599 373.63 53.2599C370.07 48.4999 362.17 48.7799 359.04 56.5699C356.83 59.3799 352.69 56.1399 354.51 48.5699C354.02 43.2599 346.35 37.4899 350.43 28.4799C335.26 18.4799 317.97 19.1899 308.75 27.1499C307.16 31.8299 304.64 43.2699 305.13 56.3099C305.79 73.8399 310.5 82.3099 316.13 85.2299C319.89 87.2299 323.3 87.6599 329.87 87.0999L329.8 89.9399C329.68 92.6999 329.69 93.7199 326.87 93.9399L325.07 94.0399C325.07 94.0399 313.93 108.22 331.92 111.53C358.92 116.53 365.8 98.8699 365.8 98.8699L364.25 98.4499C359.71 97.1599 359.29 95.5999 359.26 92.3099Z" fill="#B0715C"/>
<path d="M329.86 87.0699C341.63 85.8599 352.86 81.9799 355.53 76.5999C355.53 76.5999 355.59 82.4599 350.81 85.2799C344.12 89.2299 329.74 90.4799 329.74 90.4799L329.86 87.0699Z" fill="#C3806A"/>
<path d="M335.26 66.3098L324.9 69.6398C325.089 70.3328 325.416 70.9807 325.861 71.5447C326.306 72.1087 326.86 72.5773 327.49 72.9226C328.119 73.2679 328.813 73.4828 329.527 73.5545C330.242 73.6261 330.964 73.5531 331.65 73.3398C333.045 72.8639 334.201 71.8651 334.874 70.5538C335.548 69.2425 335.686 67.721 335.26 66.3098Z" fill="#C47072"/>
<path d="M334.61 68.7098C333.223 68.6759 331.867 69.1237 330.773 69.977C329.679 70.8303 328.915 72.0363 328.61 73.3898C329.588 73.6851 330.632 73.6851 331.61 73.3898C332.597 73.0603 333.471 72.4615 334.136 71.661C334.8 70.8606 335.228 69.8903 335.37 68.8598C335.121 68.7908 334.867 68.7406 334.61 68.7098Z" fill="#F28F8F"/>
<path d="M311.09 37.8799L318.3 36.0799C318.205 35.6048 318.014 35.1539 317.74 34.7546C317.465 34.3553 317.113 34.0159 316.703 33.7569C316.294 33.498 315.836 33.3248 315.357 33.2479C314.879 33.1711 314.39 33.1922 313.92 33.3099C312.953 33.5654 312.121 34.1815 311.595 35.0314C311.069 35.8814 310.888 36.9007 311.09 37.8799Z" fill="#263238"/>
<path d="M342.79 38.0999L335.71 35.5399C335.855 35.0712 336.094 34.6369 336.412 34.2634C336.73 33.8898 337.121 33.5848 337.56 33.3669C338 33.149 338.479 33.0227 338.969 32.9957C339.459 32.9687 339.949 33.0416 340.41 33.2099C341.35 33.5749 342.117 34.2815 342.559 35.1882C343 36.095 343.083 37.1349 342.79 38.0999Z" fill="#263238"/>
<path d="M318.07 48.1098C318.126 48.9313 317.862 49.7426 317.332 50.373C316.802 51.0034 316.049 51.4037 315.23 51.4898C314.832 51.5354 314.428 51.5008 314.044 51.3879C313.659 51.2751 313.301 51.0863 312.991 50.8328C312.68 50.5792 312.424 50.266 312.237 49.9117C312.049 49.5574 311.935 49.1691 311.9 48.7698C311.844 47.9457 312.109 47.1319 312.641 46.4997C313.172 45.8674 313.928 45.466 314.75 45.3798C315.148 45.3357 315.551 45.3718 315.935 45.4859C316.319 45.6 316.676 45.7899 316.986 46.0444C317.295 46.2988 317.551 46.6127 317.737 46.9674C317.923 47.3222 318.036 47.7106 318.07 48.1098Z" fill="#263238"/>
<path d="M341.31 47.8998C341.366 48.7212 341.102 49.5325 340.572 50.1629C340.042 50.7933 339.289 51.1937 338.47 51.2798C338.071 51.3254 337.667 51.2904 337.282 51.1769C336.897 51.0634 336.538 50.8738 336.227 50.6192C335.917 50.3646 335.661 50.0502 335.474 49.6948C335.287 49.3393 335.173 48.9499 335.14 48.5498C335.084 47.7252 335.351 46.9112 335.885 46.2803C336.419 45.6493 337.177 45.251 338 45.1698C338.397 45.1271 338.799 45.1642 339.182 45.279C339.565 45.3937 339.921 45.5839 340.229 45.8382C340.538 46.0925 340.792 46.4059 340.978 46.7599C341.163 47.114 341.276 47.5015 341.31 47.8998Z" fill="#263238"/>
<path d="M350 40.0898L368.66 50.2299C367.658 50.0511 366.631 50.0721 365.637 50.2918C364.643 50.5114 363.703 50.9254 362.87 51.5098L349.43 44.3398L350 40.0898Z" fill="#455A64"/>
<path d="M301.39 39.2099C306.04 38.6299 312.39 38.4099 316.22 39.6099C320.56 40.9799 322.12 42.4799 324.5 42.5199C327.05 42.5199 328.62 41.0599 333.17 39.7599C336.81 38.7599 343.32 39.0899 347.99 39.6199C349.59 39.6199 351.06 40.1199 351.12 42.2499C350.97 44.2499 349.68 44.5699 349.37 46.1899C348.69 51.7899 347.37 58.7599 340.03 59.1299C324.98 60.1299 329.64 45.4099 324.11 46.1299C322.11 46.5799 322.47 50.4399 321.27 53.1899C320.82 54.2813 320.199 55.294 319.43 56.1899C314.58 61.3999 305.22 58.5699 303.74 53.4199C302.46 50.8699 302.63 46.76 301.3 44.55C300.12 43.57 299.09 39.7999 301.39 39.2099ZM330.09 50.5099C330.448 52.0554 331.195 53.4839 332.26 54.66C333.075 55.4728 334.052 56.1062 335.126 56.5195C336.201 56.9328 337.35 57.1169 338.5 57.0599C341.75 57.0599 344.99 55.4899 345.8 52.3299C345.91 52.0299 346.01 51.7499 346.09 51.4699C346.72 49.1299 347.53 44.15 346.26 42.73C343.97 40.34 333.16 40.5899 330.03 44.2499C329.19 45.5099 329.52 48.2099 330.09 50.5099ZM304.37 49.41C304.75 51.03 305.59 54.5199 308.71 56.0799C312.84 58.0799 318.55 55.9699 319.37 51.9699C321.75 43.5699 318.47 41.6499 310.11 40.8699C303.25 40.9099 302.88 42.69 304.37 49.41Z" fill="#455A64"/>
<path d="M315.68 58.9999L325.48 63.6399L327 48.5599C326.796 47.8339 326.399 47.177 325.85 46.6599L315.68 58.9999Z" fill="#C3806A"/>
<path d="M311.72 153.09C301.33 154.46 293.72 163.09 287.4 170.71C280.12 179.4 273.89 188.31 264.59 195.18C256.99 200.8 248.67 205.35 240.59 210.18C232.51 215.01 224.37 220.28 216.59 225.78C213.524 227.734 210.779 230.149 208.45 232.94C206.15 235.94 204.84 239.61 203.65 243.22C202.803 245.314 202.46 247.579 202.65 249.83C203.22 253.44 206.65 258.2 209.87 259.74C213.61 261.51 218.28 261.07 221.38 264.2C223.51 266.36 224.08 269.62 225.86 272.09C228.49 275.74 233.4 277.09 237.91 276.89C244.56 276.61 250.83 272.47 257.2 275.4C259.8 276.6 262.15 278.31 264.76 279.49C269.98 281.85 275.5 281.39 281.02 280.65C288.028 279.701 294.848 277.677 301.24 274.65C304.432 273.139 307.504 271.387 310.43 269.41C311.89 268.41 313.3 267.41 314.69 266.28C315.58 265.59 317.15 264.93 317.63 263.88C317.885 263.097 317.885 262.253 317.63 261.47C314.604 246.641 315.64 231.269 320.63 216.98C325.26 203.67 333.79 191.21 333.79 176.54C333.66 164.66 322.14 151.71 311.72 153.09Z" fill="#FF6464"/>
<path opacity="0.3" d="M311.72 153.09C301.33 154.46 293.72 163.09 287.4 170.71C280.12 179.4 273.89 188.31 264.59 195.18C256.99 200.8 248.67 205.35 240.59 210.18C232.51 215.01 224.37 220.28 216.59 225.78C213.524 227.734 210.779 230.149 208.45 232.94C206.15 235.94 204.84 239.61 203.65 243.22C202.803 245.314 202.46 247.579 202.65 249.83C203.22 253.44 206.65 258.2 209.87 259.74C213.61 261.51 218.28 261.07 221.38 264.2C223.51 266.36 224.08 269.62 225.86 272.09C228.49 275.74 233.4 277.09 237.91 276.89C244.56 276.61 250.83 272.47 257.2 275.4C259.8 276.6 262.15 278.31 264.76 279.49C269.98 281.85 275.5 281.39 281.02 280.65C288.028 279.701 294.848 277.677 301.24 274.65C304.432 273.139 307.504 271.387 310.43 269.41C311.89 268.41 313.3 267.41 314.69 266.28C315.58 265.59 317.15 264.93 317.63 263.88C317.885 263.097 317.885 262.253 317.63 261.47C314.604 246.641 315.64 231.269 320.63 216.98C325.26 203.67 333.79 191.21 333.79 176.54C333.66 164.66 322.14 151.71 311.72 153.09Z" fill="white"/>
<path d="M285.85 177.3C287.358 175.28 288.966 173.337 290.67 171.48C290.72 171.429 290.78 171.388 290.846 171.361C290.912 171.333 290.983 171.319 291.055 171.319C291.127 171.319 291.198 171.333 291.264 171.361C291.33 171.388 291.39 171.429 291.44 171.48C291.541 171.583 291.597 171.721 291.597 171.865C291.597 172.009 291.541 172.147 291.44 172.25C289.761 174.082 288.176 175.998 286.69 177.99C286.638 178.056 286.571 178.11 286.495 178.146C286.418 178.183 286.335 178.201 286.25 178.2C286.131 178.202 286.014 178.163 285.92 178.09C285.861 178.044 285.812 177.987 285.776 177.922C285.741 177.856 285.719 177.784 285.712 177.71C285.706 177.636 285.715 177.561 285.738 177.491C285.762 177.42 285.8 177.355 285.85 177.3ZM326.95 187.93C326.993 187.795 327.087 187.682 327.212 187.614C327.336 187.547 327.482 187.53 327.619 187.568C327.756 187.605 327.873 187.694 327.945 187.815C328.018 187.937 328.041 188.082 328.01 188.22C327.368 190.622 326.518 192.965 325.47 195.22C325.425 195.314 325.353 195.393 325.265 195.447C325.176 195.502 325.074 195.531 324.97 195.53C324.888 195.528 324.806 195.511 324.73 195.48C324.6 195.413 324.501 195.299 324.455 195.161C324.408 195.023 324.417 194.872 324.48 194.74C325.499 192.546 326.326 190.267 326.95 187.93ZM322.22 201.46C322.284 201.327 322.397 201.225 322.536 201.177C322.675 201.128 322.827 201.136 322.96 201.2C323.093 201.264 323.195 201.377 323.243 201.516C323.292 201.655 323.284 201.807 323.22 201.94C321.46 205.53 320.09 208.76 320.07 208.8C320.026 208.897 319.956 208.979 319.868 209.037C319.779 209.096 319.676 209.128 319.57 209.13C319.497 209.144 319.423 209.144 319.35 209.13C319.218 209.071 319.114 208.963 319.06 208.828C319.006 208.694 319.006 208.544 319.06 208.41C319.06 208.41 320.45 205.07 322.22 201.46ZM316.9 213.21C316.916 213.131 316.95 213.056 316.998 212.991C317.047 212.926 317.109 212.873 317.18 212.835C317.251 212.797 317.33 212.775 317.411 212.771C317.492 212.767 317.573 212.781 317.647 212.811C317.722 212.842 317.789 212.889 317.844 212.948C317.899 213.008 317.94 213.079 317.964 213.156C317.988 213.233 317.995 213.315 317.984 213.395C317.973 213.475 317.944 213.552 317.9 213.62C316.97 215.986 316.166 218.399 315.49 220.85C315.458 220.966 315.389 221.069 315.293 221.143C315.198 221.217 315.081 221.258 314.96 221.26H314.82C314.68 221.222 314.56 221.131 314.487 221.005C314.414 220.88 314.393 220.73 314.43 220.59C315.116 218.086 315.941 215.622 316.9 213.21ZM311.64 234.38H311.55C311.406 234.353 311.279 234.271 311.195 234.152C311.111 234.032 311.077 233.884 311.1 233.74C311.555 231.192 312.153 228.671 312.89 226.19C312.911 226.121 312.945 226.058 312.99 226.002C313.035 225.947 313.091 225.901 313.155 225.868C313.218 225.834 313.287 225.814 313.359 225.807C313.43 225.801 313.502 225.808 313.57 225.83C313.709 225.872 313.826 225.966 313.895 226.094C313.964 226.221 313.98 226.371 313.94 226.51C313.219 228.95 312.632 231.427 312.18 233.93C312.157 234.056 312.09 234.17 311.991 234.252C311.893 234.335 311.768 234.38 311.64 234.38ZM311.22 239.48C311.292 239.485 311.362 239.504 311.426 239.537C311.491 239.569 311.548 239.615 311.594 239.669C311.641 239.724 311.676 239.788 311.698 239.857C311.719 239.926 311.727 239.998 311.72 240.07C311.54 242.606 311.493 245.149 311.58 247.69C311.586 247.835 311.534 247.977 311.437 248.085C311.34 248.193 311.205 248.26 311.06 248.27C310.919 248.27 310.783 248.214 310.682 248.115C310.581 248.016 310.523 247.881 310.52 247.74C310.421 245.153 310.468 242.562 310.66 239.98C310.677 239.843 310.743 239.717 310.846 239.625C310.949 239.533 311.082 239.481 311.22 239.48ZM311.27 253.05C311.342 253.042 311.414 253.048 311.484 253.068C311.553 253.088 311.618 253.122 311.674 253.168C311.73 253.214 311.776 253.27 311.809 253.334C311.843 253.398 311.864 253.468 311.87 253.54C312.138 256.07 312.542 258.584 313.08 261.07C313.096 261.14 313.098 261.212 313.087 261.282C313.075 261.353 313.049 261.42 313.011 261.481C312.973 261.541 312.923 261.593 312.864 261.634C312.806 261.676 312.74 261.705 312.67 261.72H312.55C312.425 261.719 312.304 261.676 312.206 261.598C312.108 261.52 312.039 261.412 312.01 261.29C311.464 258.76 311.054 256.203 310.78 253.63C310.771 253.489 310.818 253.35 310.909 253.242C311 253.134 311.129 253.065 311.27 253.05ZM299.86 162.33C299.974 162.255 300.112 162.224 300.247 162.245C300.382 162.266 300.504 162.336 300.591 162.442C300.677 162.548 300.72 162.682 300.713 162.819C300.705 162.955 300.647 163.084 300.55 163.18C300.55 163.18 298.15 165.18 295.09 168.24C294.984 168.339 294.845 168.396 294.7 168.4C294.591 168.4 294.484 168.368 294.393 168.308C294.302 168.248 294.232 168.161 294.19 168.061C294.148 167.96 294.137 167.849 294.159 167.742C294.18 167.635 294.233 167.537 294.31 167.46C297.42 164.32 299.83 162.35 299.86 162.33ZM310.99 155.33C311.133 155.309 311.278 155.345 311.395 155.429C311.513 155.512 311.593 155.638 311.62 155.78C311.643 155.923 311.609 156.07 311.525 156.188C311.44 156.306 311.313 156.385 311.17 156.41C308.79 157.021 306.58 158.166 304.71 159.76C304.595 159.837 304.455 159.867 304.319 159.845C304.183 159.824 304.059 159.752 303.974 159.643C303.888 159.535 303.846 159.398 303.857 159.261C303.867 159.123 303.929 158.994 304.03 158.9C306.038 157.176 308.427 155.952 311 155.33H310.99Z" fill="#F0F0F0"/>
<path opacity="0.6" d="M296.86 160.59C301.14 156.81 306 153.84 311.72 153.09C322.14 151.71 333.66 164.66 333.66 176.54C333.581 181.815 332.625 187.039 330.83 192C330.166 191.361 329.576 190.65 329.07 189.88C327.048 186.728 325.292 183.413 323.82 179.97C323.909 180.33 323.855 180.711 323.668 181.032C323.481 181.353 323.177 181.589 322.82 181.69C322.083 181.853 321.317 181.815 320.6 181.58L316.83 180.69C315.918 180.553 315.05 180.211 314.29 179.69C312.75 178.44 312.78 176.13 312.94 174.16C311.03 173.8 308.78 173.16 308.2 171.3C308.032 170.585 308.008 169.844 308.13 169.12C308.31 167.39 308.5 165.66 308.68 163.92C308.86 162.18 309.21 159.99 310.76 158.98C306.14 158.3 301.38 160.46 296.86 160.59Z" fill="#FF6464"/>
<path opacity="0.6" d="M247 268.69C247.995 266.36 248.707 263.919 249.12 261.42C250.941 253.434 254.121 245.82 258.52 238.91C262.52 232.7 267.21 226.42 274.2 223.5C275.95 224.1 272.68 227.13 271.36 228.64C260.73 240.78 259.48 256.95 260.05 272.21C260.11 273.86 260.21 275.51 260.3 277.21C259.24 276.59 258.17 275.98 257.06 275.46C250.69 272.53 244.42 276.67 237.77 276.95C237.16 276.95 236.55 276.95 235.94 276.95C240.69 275.62 244.93 273 247 268.69ZM213.05 253.15C215.84 251.15 217.8 248.15 219.77 245.4C221.707 242.649 223.825 240.03 226.11 237.56C227.309 236.306 228.574 235.118 229.9 234C230.9 233.11 232.29 231.44 233.82 231.63C233.9 232.35 233.35 232.78 232.9 233.27C232.29 233.94 231.69 234.61 231.11 235.27C224.62 243.27 222.42 253.78 221.06 263.96C217.96 261.08 213.43 261.45 209.78 259.72C207.849 258.659 206.208 257.142 205 255.3C207.858 255.448 210.691 254.696 213.1 253.15H213.05Z" fill="#FF6464"/>
<path d="M340.5 192.33C364.15 203.22 381.94 213.52 402.43 216C418.88 218 418.65 204.94 417.68 194.14C416.46 180.5 409.83 142.14 405.92 127.83C401.74 112.5 399.25 107.51 376.92 101.92C368.2 111.92 372.83 142.62 376.48 153.02C379.7 164.7 383.75 180.9 383.75 180.9C383.75 180.9 366.64 178.54 352.84 174.12" fill="#B0715C"/>
<path d="M382.73 176.86L383.73 180.86C395.02 181.86 406.5 188.86 408.43 193.25C406.9 184 397.14 178.43 382.73 176.86Z" fill="#BA7E6A"/>
<path d="M294.36 155.35C296.36 154.05 299.36 151.85 300.63 151.17C301.9 150.49 306.84 148.11 306.84 148.11C304.68 148.188 302.52 147.97 300.42 147.46C296.42 146.46 296 143.46 297.07 142.17C298.14 140.88 303.27 142.31 307.89 141.09C312.51 139.87 314.97 138.41 316.96 139.62C318.95 140.83 325.61 144.88 328.79 145.7C331.97 146.52 333.49 146.98 334.16 150.24C334.83 153.5 339.61 161.94 342.24 166.24C346.77 173.65 349.91 172.78 361.6 176.92L360.6 201.11C360.6 201.11 340.85 192.22 336.81 190.88C332.77 189.54 330.81 188.5 327.86 182.04C324.91 175.58 323.94 173.3 323.94 173.3C322.875 173.209 321.87 172.77 321.08 172.05C320.194 172.834 319.124 173.381 317.97 173.64C318.903 174.293 319.727 175.089 320.41 176C321.72 177.66 321.32 179.63 320.17 179.82C319.02 180.01 317.42 179.19 314.89 178.49C312.36 177.79 312.09 176.66 311.89 175.38C311.69 174.1 311.33 172.24 311.33 172.24C311.33 172.24 308.45 170.62 308.15 168.49C308.011 166.38 308.101 164.261 308.42 162.17C308.59 160.06 309.29 158.17 310.65 157.83L317.43 156.21C317.09 155.3 316.67 155.05 314.63 154.72C312.59 154.39 311.73 153.87 310.74 153.85C309.47 153.85 309.53 154.19 307.23 155.27C304.93 156.35 302.07 157.46 302.07 157.46C299.28 159.06 296.13 159.18 294.57 158.24C292.77 157.15 293.27 156.05 294.36 155.35ZM317.16 164.35C316.55 164.35 314.85 164.68 314.01 164.66C313.847 165.396 313.763 166.146 313.76 166.9C313.97 167.22 314.17 167.47 314.29 167.65C315.575 166.946 316.814 166.161 318 165.3C318.55 164.9 317.77 164.36 317.16 164.39V164.35Z" fill="#B0715C"/>
<path d="M300.41 147.46C298.24 146.9 297.13 145.76 296.74 144.63C297.74 146.29 301.22 147.2 303.74 146.83C306.149 146.305 308.51 145.582 310.8 144.67C312.49 144.13 315.54 145.03 317.53 145.75C319.52 146.47 323.12 147.68 325.46 148.56C324.82 148.65 322.72 148.36 319.11 147.46C315.5 146.56 312.77 145.82 311.56 146.06C310.35 146.3 309.32 146.95 306.88 148.11C304.704 148.186 302.527 147.967 300.41 147.46Z" fill="#C4806A"/>
<path d="M315 154.81C315 154.81 320.25 154.69 321.49 153.5C321.04 154.211 320.448 154.821 319.751 155.293C319.054 155.764 318.267 156.087 317.44 156.24C317.17 155.37 316.76 155.11 315 154.81Z" fill="#C3806A"/>
<path d="M317.16 164.39C319.134 163.64 320.785 162.225 321.83 160.39C321.629 161.451 321.18 162.45 320.519 163.305C319.859 164.16 319.006 164.847 318.03 165.31C318.55 164.9 317.77 164.36 317.16 164.39Z" fill="#C3806A"/>
<path d="M319.45 172.32C319.967 172.08 320.382 171.663 320.618 171.144C320.855 170.625 320.898 170.038 320.74 169.49C321.082 169.816 321.305 170.247 321.374 170.715C321.442 171.182 321.353 171.659 321.12 172.07C320.234 172.854 319.164 173.401 318.01 173.66C316.953 173.129 315.792 172.839 314.61 172.81C316 172 318.12 173 319.45 172.32Z" fill="#C3806A"/>
<path d="M309.88 171.17C309.925 170.364 310.239 169.597 310.77 168.99C311.656 168.129 312.752 167.515 313.95 167.21L314.29 167.69C311.95 169.4 311.13 169.53 311.38 172.26C310.847 171.945 310.344 171.58 309.88 171.17Z" fill="#C3806A"/>
<path d="M326 151.05C326 150.95 326.14 150.87 326.28 150.8C326.567 150.682 326.865 150.595 327.17 150.54C327.662 150.413 328.178 150.413 328.67 150.54C329.67 150.77 330.17 152.03 330.46 152.89C330.56 153.19 330.59 153.56 330.21 153.25C329.721 152.714 329.163 152.247 328.55 151.86C328.328 151.775 328.101 151.705 327.87 151.65C327.718 151.576 327.557 151.525 327.39 151.5C327.26 151.5 327.13 151.5 327 151.5C326.687 151.494 326.38 151.408 326.11 151.25C326 151.15 326 151.1 326 151.05Z" fill="#C3806A"/>
<path d="M324.79 157.16C324.79 157.06 324.9 156.96 325.03 156.87C325.297 156.714 325.578 156.583 325.87 156.48C326.062 156.392 326.263 156.325 326.47 156.28C326.759 156.217 327.055 156.193 327.35 156.21C328.35 156.3 329.06 157.46 329.48 158.27C329.62 158.55 329.7 158.91 329.28 158.66C328.717 158.205 328.094 157.828 327.43 157.54C327.199 157.492 326.965 157.459 326.73 157.44C326.568 157.389 326.4 157.362 326.23 157.36C326.1 157.36 325.98 157.42 325.84 157.42C325.528 157.465 325.21 157.424 324.92 157.3C324.889 157.288 324.861 157.269 324.839 157.245C324.816 157.221 324.8 157.192 324.79 157.16Z" fill="#C3806A"/>
<path d="M322.15 165.6C322.15 165.51 322.23 165.38 322.34 165.27C322.571 165.068 322.822 164.89 323.09 164.74C323.261 164.616 323.445 164.512 323.64 164.43C323.91 164.31 324.197 164.233 324.49 164.2C325.49 164.11 326.41 165.12 326.96 165.84C327.15 166.09 327.3 166.43 326.84 166.26C326.208 165.92 325.536 165.661 324.84 165.49C324.607 165.475 324.373 165.475 324.14 165.49C323.971 165.47 323.799 165.47 323.63 165.49C323.51 165.49 323.4 165.59 323.27 165.63C322.969 165.726 322.649 165.743 322.34 165.68C322.304 165.682 322.269 165.675 322.236 165.661C322.203 165.648 322.174 165.627 322.15 165.6Z" fill="#C3806A" fill-opacity="0.501961"/>
<path d="M248.16 132C248.624 132.2 249.02 132.53 249.3 132.95C249.61 133.32 249.92 133.7 250.2 134.09C250.729 134.805 251.15 135.593 251.45 136.43C251.752 137.279 251.848 138.187 251.73 139.08C251.642 139.592 251.515 140.097 251.35 140.59C251.191 141.126 251.081 141.675 251.02 142.23C251.02 142.29 250.94 142.32 250.92 142.23C250.755 141.378 250.755 140.502 250.92 139.65C251.045 138.691 250.966 137.717 250.69 136.79C250.378 135.926 249.933 135.116 249.37 134.39C249.12 134.04 248.85 133.71 248.57 133.39C248.29 133.07 247.85 132.7 247.91 132.22C247.9 132.16 248 132 248.16 132Z" fill="#C3806A"/>
<path d="M270.34 149.4L281.62 182.3C281.657 182.408 281.728 182.502 281.821 182.568C281.914 182.634 282.026 182.67 282.14 182.67C282.196 182.68 282.254 182.68 282.31 182.67C282.379 182.648 282.442 182.613 282.497 182.567C282.552 182.52 282.596 182.462 282.628 182.398C282.66 182.333 282.678 182.263 282.682 182.191C282.686 182.119 282.675 182.047 282.65 181.98L271.09 148.27L270.37 149.38C270.37 149.38 270.35 149.4 270.34 149.4Z" fill="#E0E0E0"/>
<path d="M267.47 147.63C267.7 148.47 268.02 149.45 268.47 150.63C269.13 152.41 270.03 154.63 271.19 157.39C275.9 168.6 281.65 182.33 281.65 182.33C281.666 182.409 281.7 182.484 281.748 182.549C281.796 182.614 281.859 182.667 281.93 182.705C282.001 182.743 282.08 182.765 282.161 182.769C282.242 182.773 282.323 182.759 282.397 182.729C282.472 182.698 282.539 182.651 282.594 182.591C282.649 182.532 282.69 182.461 282.714 182.384C282.738 182.306 282.745 182.225 282.734 182.145C282.723 182.065 282.694 181.988 282.65 181.92C282.65 181.92 276.91 168.17 272.19 156.97C270.98 154.1 270.09 151.89 269.47 150.17C269.083 149.131 268.749 148.073 268.47 147C267.94 144.84 268.33 144.2 269.13 143.75C269.054 143.408 268.947 143.073 268.81 142.75H268.75C267.18 143.51 266.67 144.59 267.47 147.63Z" fill="#F0F0F0"/>
</g>
<defs>
<clipPath id="clip0_1334_319">
<rect width="472" height="445" fill="white" transform="matrix(-1 0 0 1 472 0)"/>
</clipPath>
</defs>
</svg>
