<svg width="56" height="54" viewBox="0 0 56 54" fill="none" xmlns="http://www.w3.org/2000/svg">
<path d="M55.8003 20.3244C55.5582 19.5778 55.1018 18.9189 54.488 18.4299C53.8743 17.9408 53.1302 17.6432 52.3486 17.5741L37.5043 16.2939L31.6856 2.45229C31.3827 1.726 30.8717 1.1056 30.217 0.669225C29.5623 0.232848 28.7931 0 28.0064 0C27.2197 0 26.4506 0.232848 25.7959 0.669225C25.1412 1.1056 24.6302 1.726 24.3272 2.45229L18.526 16.2939L3.66425 17.5816C2.87951 17.6476 2.13171 17.9438 1.51462 18.4332C0.897529 18.9227 0.43862 19.5834 0.195443 20.3327C-0.0477348 21.082 -0.0643562 21.8864 0.147663 22.6451C0.359682 23.4038 0.790904 24.0829 1.38725 24.5974L12.6623 34.4536L9.28302 49.0904C9.10434 49.8563 9.15532 50.658 9.42961 51.3951C9.7039 52.1322 10.1893 52.7721 10.8252 53.2347C11.461 53.6974 12.2191 53.9623 13.0046 53.9963C13.7902 54.0303 14.5683 53.8319 15.2417 53.4259L27.9889 45.675L40.7636 53.4259C41.4371 53.8319 42.2152 54.0303 43.0007 53.9963C43.7862 53.9623 44.5443 53.6974 45.1802 53.2347C45.816 52.7721 46.3015 52.1322 46.5757 51.3951C46.85 50.658 46.901 49.8563 46.7223 49.0904L43.3456 34.4386L54.6181 24.5974C55.2144 24.0812 55.6447 23.4 55.8551 22.6398C56.0655 21.8795 56.0464 21.0739 55.8003 20.3244ZM51.9962 21.5746L40.7236 31.4158C40.175 31.8931 39.7669 32.5111 39.5432 33.2032C39.3194 33.8954 39.2886 34.6354 39.4539 35.3437L42.8407 50.0055L30.076 42.2545C29.4532 41.8752 28.7381 41.6745 28.0089 41.6745C27.2798 41.6745 26.5647 41.8752 25.9419 42.2545L13.1947 50.0055L16.5589 35.3537C16.7243 34.6454 16.6934 33.9054 16.4697 33.2132C16.246 32.5211 15.8378 31.9031 15.2892 31.4258L4.01168 21.5896C4.01076 21.5821 4.01076 21.5746 4.01168 21.5671L18.8684 20.2819C19.5938 20.218 20.2879 19.9571 20.8759 19.5275C21.464 19.0979 21.9236 18.5159 22.2052 17.8441L28.0064 4.01998L33.8052 17.8441C34.0868 18.5159 34.5464 19.0979 35.1344 19.5275C35.7225 19.9571 36.4166 20.218 37.1419 20.2819L52.0012 21.5671C52.0012 21.5671 52.0012 21.5821 52.0012 21.5846L51.9962 21.5746Z" fill="#FF6464"/>
</svg>
