<svg width="60" height="63" viewBox="0 0 60 63" fill="none" xmlns="http://www.w3.org/2000/svg">
<path d="M20.3486 42.1721C19.0155 40.1319 16.6034 39.3992 13.8156 38.5466C12.1548 38.0828 10.5345 37.4848 8.97067 36.7586C6.26734 35.4265 4.52916 33.7162 4.08706 31.9415C3.94466 31.3336 3.94157 30.7014 4.078 30.0921C4.21443 29.4829 4.48685 28.9123 4.8749 28.4232C7.56888 24.671 13.639 25.135 16.1221 25.5098C19.7614 26.1657 23.3485 27.0843 26.8551 28.2584C29.0129 28.891 31.243 29.5852 33.4624 30.1576C40.5522 31.8738 46.3804 31.6722 50.7891 29.5571C57.0628 26.5448 60.2664 19.1374 58.0891 12.6968C56.0062 6.52489 49.1346 1.64886 41.7522 1.07271L41.8016 0.46513C49.5305 1.05128 56.4681 6.00711 58.6934 12.503C60.9648 19.2182 57.6237 26.9586 51.0809 30.1016C46.5378 32.2821 40.5755 32.5004 33.3462 30.7462C31.1083 30.204 28.8658 29.5279 26.6782 28.8463C23.1916 27.6973 19.6267 26.8013 16.0112 26.1653C13.6313 25.8161 7.84081 25.3613 5.34451 28.8421C5.00688 29.2622 4.76876 29.7532 4.64801 30.2785C4.52726 30.8038 4.52703 31.3495 4.64731 31.8749C5.04885 33.4728 6.67308 35.0419 9.21312 36.293C10.7567 37.003 12.3546 37.5885 13.9916 38.0438C16.7734 38.8902 19.4036 39.6924 20.8563 41.9164L20.3486 42.1721Z" fill="#FF6464"/>
<path d="M36.3836 57.9283C35.0429 61.3917 26.1845 61.1941 16.5873 57.4975C6.99002 53.8008 0.274979 47.99 1.62777 44.5267C1.72173 44.2845 2.49442 42.104 2.66115 41.8808C4.85109 39.1386 12.4929 41.5178 21.418 44.9575C30.0525 48.2844 37.1135 52.0011 37.3175 55.4759C37.3371 55.8896 36.5155 57.5588 36.3836 57.9283Z" fill="#6F4439"/>
<path d="M37.3224 55.5091C38.6577 52.0466 31.9594 46.2391 22.3614 42.5377C12.7633 38.8364 3.90014 38.6428 2.56485 42.1054C1.22956 45.5679 7.92784 51.3754 17.5259 55.0768C27.1239 58.7781 35.9871 58.9717 37.3224 55.5091Z" fill="#B0715C"/>
<path d="M25.3598 50.2322C24.965 51.2616 22.3081 51.2011 19.4623 50.0986C16.6165 48.996 14.6292 47.2647 15.0058 46.2351C15.3823 45.2055 18.0575 45.2601 20.9033 46.3626C23.7491 47.4652 25.7607 49.1968 25.3598 50.2322Z" fill="#E0E0E0"/>
<path d="M19.7484 14.0753L8.40119 43.5574C8.40119 43.5574 8.03902 48.6922 18.4355 52.702C28.8319 56.7117 32.4352 51.6076 32.4352 51.6076L43.4119 23.1491L19.7484 14.0753Z" fill="#FF6464"/>
<g opacity="0.3">
<path d="M16.7612 21.71C19.2021 25.3504 22.5874 28.2582 26.5544 30.122C33.3587 33.4222 40.3784 31.1177 40.3784 31.1177L41.8882 27.2123L18.1708 18.0649L16.7612 21.71Z" fill="black"/>
</g>
<path d="M35.9674 42.5741C35.65 42.7509 35.3189 42.9017 34.9771 43.0251C34.588 43.1965 34.1905 43.3482 33.7861 43.4798C33.31 43.6387 32.7786 43.8394 32.1748 43.9968C31.5709 44.1541 30.9118 44.3595 30.1865 44.5034C29.4612 44.6472 28.6871 44.7965 27.8707 44.9333C26.0865 45.1831 24.2861 45.2989 22.4847 45.2798C20.6841 45.2362 18.8892 45.0594 17.1147 44.7507C16.3016 44.5834 15.5309 44.4409 14.8156 44.2382C14.1003 44.0355 13.4455 43.8578 12.8456 43.6625C12.2458 43.4672 11.7251 43.2667 11.2588 43.0911C10.7925 42.9155 10.3991 42.7469 10.0785 42.5973C9.7427 42.4591 9.41731 42.2969 9.10486 42.1119C9.45484 42.2096 9.797 42.3334 10.1284 42.4823C10.4493 42.6137 10.8489 42.7702 11.3397 42.9278C11.8305 43.0854 12.333 43.2857 12.9332 43.4506C13.5334 43.6155 14.1817 43.8235 14.8975 43.9837C15.6133 44.1438 16.3778 44.3045 17.1849 44.4596C18.9466 44.7536 20.727 44.9221 22.5126 44.9638C24.2967 44.98 26.0799 44.8742 27.8496 44.6472C28.6599 44.5165 29.4334 44.4097 30.1468 44.2475C30.8602 44.0853 31.5308 43.9408 32.1285 43.7834C32.7263 43.626 33.2695 43.4558 33.7455 43.3091C34.2215 43.1625 34.6243 43.0332 34.9663 42.9094C35.2925 42.7763 35.6269 42.6643 35.9674 42.5741Z" fill="#263238"/>
<path d="M40.0592 32.9934C39.9827 33.0594 39.8983 33.1157 39.808 33.1609L39.055 33.5963C38.7306 33.7811 38.3267 34.0077 37.8316 34.2271C37.3365 34.4465 36.8041 34.7384 36.1749 34.9867C35.5457 35.235 34.8735 35.5254 34.1165 35.7784C33.3595 36.0313 32.554 36.2776 31.6754 36.5292C27.9261 37.5379 24.0375 37.9293 20.1623 37.6881C19.2752 37.6173 18.4245 37.559 17.6414 37.4346C16.8583 37.3102 16.1236 37.2046 15.4622 37.0754C14.8008 36.9463 14.2126 36.7937 13.6911 36.6662C13.1695 36.5386 12.7271 36.4059 12.3696 36.2863L11.5456 36.0155C11.3578 35.9465 11.261 35.9089 11.2672 35.8968C11.3684 35.8985 11.4688 35.916 11.5646 35.9488L12.4075 36.1651C12.7651 36.2665 13.2077 36.387 13.7356 36.4903C14.2635 36.5936 14.8394 36.7582 15.5073 36.8509C16.1752 36.9436 16.8911 37.0977 17.6747 37.1735C18.4584 37.2492 19.2967 37.3317 20.1778 37.3964C22.0968 37.4866 24.0197 37.4413 25.9324 37.2608C27.8433 37.057 29.7373 36.7167 31.5996 36.2425C32.4537 36.0028 33.2649 35.7931 34.0099 35.5278C34.7548 35.2626 35.4447 35.0271 36.0678 34.7788C36.6909 34.5304 37.2471 34.2813 37.7361 34.0679C38.225 33.8545 38.6347 33.6584 38.9591 33.4736L39.7357 33.0931C39.8373 33.0423 39.9466 33.0086 40.0592 32.9934Z" fill="#263238"/>
<path d="M21.0615 37.2239C20.6527 36.8083 20.2851 36.354 19.9639 35.8675C19.3291 35.0028 18.4793 33.783 17.6011 32.3925C16.7229 31.0021 15.9772 29.7166 15.4649 28.7742C15.1612 28.2771 14.9084 27.7506 14.7103 27.2028C15.0667 27.6618 15.3846 28.1495 15.6608 28.6609C16.216 29.5794 16.9923 30.841 17.8645 32.2252C18.7367 33.6095 19.5619 34.8473 20.1478 35.7418C20.4941 36.2089 20.7998 36.7047 21.0615 37.2239Z" fill="#263238"/>
<path d="M26.0814 37.5178C26.002 37.5534 24.0386 33.706 21.6967 28.9238C19.3547 24.1416 17.5381 20.2289 17.5993 20.187C17.6606 20.1451 19.6421 23.9989 21.9844 28.7507C24.3268 33.5024 26.1609 37.4822 26.0814 37.5178Z" fill="#263238"/>
<path d="M30.3149 36.9212C29.6286 35 29.0418 33.0447 28.5567 31.0631C27.6875 27.8058 27.0486 25.147 27.1279 25.1236C27.8175 27.0437 28.4043 28.9992 28.8861 30.9817C29.4654 32.9353 29.9423 34.9178 30.3149 36.9212Z" fill="#263238"/>
<path d="M36.8397 28.3715C36.5217 28.6428 36.1645 28.8643 35.7801 29.0285C35.1071 29.3918 34.147 29.8553 33.0655 30.3053C32.1431 30.6912 31.2015 31.0297 30.2444 31.3193C29.8525 31.4684 29.4423 31.564 29.0249 31.6035C28.9955 31.512 30.7903 30.9059 32.9411 30.0119C35.0919 29.118 36.7977 28.3163 36.8397 28.3715Z" fill="#263238"/>
<path d="M32.9605 49.2479C32.7098 49.3901 32.4457 49.5073 32.1721 49.5978C31.9154 49.7043 31.5979 49.8224 31.2256 49.9398C30.8533 50.0572 30.4258 50.2105 29.938 50.3266C28.8153 50.6301 27.6727 50.8549 26.5187 50.9994C25.1062 51.1753 23.6823 51.2426 22.2594 51.2005C20.832 51.1465 19.4107 50.984 18.0079 50.7146C16.8646 50.4931 15.7381 50.1918 14.6368 49.8128C14.1641 49.6676 13.7526 49.4866 13.3833 49.3425C13.0676 49.2242 12.7585 49.0887 12.4574 48.9368C12.1924 48.8267 11.9375 48.6935 11.6957 48.5389C11.9755 48.6043 12.2476 48.6991 12.5074 48.8218C12.7616 48.9281 13.0764 49.0532 13.446 49.1791C13.8155 49.3049 14.2333 49.4677 14.7061 49.6008C15.8086 49.9436 16.9305 50.2202 18.0659 50.4294C19.4546 50.6787 20.8591 50.8308 22.2691 50.8844C23.6788 50.9238 25.0896 50.8666 26.4915 50.7133C27.6358 50.5777 28.7712 50.3753 29.8919 50.1071C30.3734 50.0092 30.8006 49.8741 31.1789 49.769C31.5571 49.6638 31.8805 49.5701 32.1369 49.4818C32.404 49.3798 32.6797 49.3015 32.9605 49.2479Z" fill="#263238"/>
<path d="M48.5195 26.4481C47.1851 29.9055 38.3205 29.7139 28.7232 26.0173C19.126 22.3206 12.4109 16.5098 13.7637 13.0465C13.8577 12.8043 14.6365 10.6238 14.7971 10.4006C16.9871 7.65227 24.6288 10.0375 33.56 13.4773C42.1884 16.8042 49.2495 20.5209 49.4534 23.9957C49.4791 24.4095 48.6515 26.0725 48.5195 26.4481Z" fill="#6F4439"/>
<path d="M49.4633 24.031C50.7986 20.5684 44.1003 14.7609 34.5023 11.0596C24.9042 7.35821 16.041 7.16464 14.7057 10.6272C13.3704 14.0898 20.0687 19.8973 29.6668 23.5986C39.2648 27.3 48.128 27.4935 49.4633 24.031Z" fill="#B0715C"/>
<g opacity="0.3">
<path d="M38.0555 18.0788C38.454 17.0446 36.4504 15.3099 33.5804 14.2041C30.7104 13.0984 28.0608 13.0404 27.6624 14.0746C27.2639 15.1088 29.2675 16.8435 32.1375 17.9493C35.0074 19.055 37.657 19.113 38.0555 18.0788Z" fill="black"/>
</g>
<path d="M37.502 18.746C37.502 18.746 37.503 18.6548 37.5048 18.4967C37.4874 18.2605 37.4082 18.0331 37.2751 17.8373C36.7485 17.1261 36.0721 16.5392 35.2938 16.1181C34.1566 15.4488 32.9354 14.9339 31.6622 14.5871C30.9206 14.37 30.1574 14.235 29.3863 14.1843C28.9795 14.1524 28.5703 14.1744 28.1692 14.2496C27.9823 14.2625 27.8013 14.3203 27.6414 14.418C27.4815 14.5157 27.3475 14.6504 27.2507 14.8108C27.2153 14.994 27.2239 15.183 27.2758 15.3623C27.3277 15.5415 27.4214 15.7059 27.5491 15.842C27.7939 16.1621 28.0789 16.4494 28.3969 16.6969C29.0031 17.1781 29.659 17.5933 30.3533 17.9353C31.5298 18.5258 32.778 18.9611 34.0666 19.2301C34.9297 19.4301 35.826 19.4403 36.6934 19.2598C36.9235 19.2052 37.1348 19.09 37.3053 18.9262C37.4101 18.8058 37.4475 18.721 37.4657 18.7273C37.45 18.8145 37.4113 18.896 37.3536 18.9632C37.1937 19.1574 36.9808 19.3008 36.7408 19.3759C35.8569 19.6041 34.9316 19.6207 34.0401 19.4244C32.7199 19.1816 31.4395 18.7578 30.2352 18.1651C29.5175 17.8271 28.8391 17.4115 28.2119 16.9259C27.8728 16.6654 27.5695 16.3614 27.3099 16.0217C27.1363 15.8558 27.0157 15.6421 26.9633 15.4078C26.9109 15.1734 26.9291 14.9288 27.0155 14.7047C27.1019 14.4806 27.2528 14.2872 27.449 14.1487C27.6452 14.0103 27.8781 13.933 28.1181 13.9267C28.5396 13.8512 28.969 13.8295 29.396 13.8621C30.1881 13.919 30.9716 14.0624 31.7325 14.2899C33.0217 14.6623 34.2535 15.2103 35.3933 15.9186C36.1857 16.3703 36.86 17.0031 37.3611 17.7653C37.4943 17.9809 37.5593 18.2318 37.5475 18.485C37.5517 18.6492 37.508 18.7521 37.502 18.746Z" fill="#263238"/>
<path d="M14.7095 10.6187C14.5748 11.1466 14.5686 11.6992 14.6913 12.2301C15.1422 13.6486 15.9683 14.9187 17.0822 15.906C19.7643 18.5818 24.3184 21.3456 29.7256 23.4259C35.1328 25.5061 40.3574 26.52 44.1421 26.3378C45.6408 26.3612 47.1174 25.9741 48.4118 25.2185C48.859 24.9107 49.223 24.4969 49.4715 24.0142C49.4715 24.0142 49.471 24.0507 49.4399 24.1173C49.408 24.219 49.3641 24.3165 49.3089 24.4077C49.1045 24.7714 48.8227 25.0858 48.4836 25.3288C47.6185 25.994 46.0747 26.457 44.1639 26.5692C40.3359 26.8117 35.0502 25.8153 29.6006 23.7285C24.1509 21.6417 19.5974 18.8231 16.9162 16.0683C15.5754 14.7091 14.7458 13.3253 14.5268 12.2525C14.4449 11.8508 14.4496 11.4362 14.5406 11.0364C14.5634 10.9302 14.5972 10.8266 14.6414 10.7274C14.6578 10.6876 14.6809 10.6508 14.7095 10.6187Z" fill="#263238"/>
<path d="M2.56124 42.1047C2.42012 42.6318 2.41385 43.1859 2.543 43.716C2.99388 45.1346 3.82005 46.4047 4.93397 47.392C7.61601 50.0677 12.1702 52.8316 17.5773 54.9119C22.9845 56.9921 28.2092 58.006 31.9939 57.8238C33.4927 57.8481 34.9694 57.461 36.2636 56.7045C36.7111 56.3954 37.0769 55.9821 37.3293 55.5003C37.3216 55.5354 37.311 55.5699 37.2977 55.6033C37.2623 55.7056 37.2185 55.8048 37.1666 55.8998C36.9576 56.2603 36.6742 56.5722 36.3353 56.8148C35.4764 57.4801 33.9264 57.9491 32.0217 58.0552C28.1876 58.2977 22.908 57.3075 17.4584 55.2146C12.0088 53.1217 7.4491 50.3091 4.77403 47.5544C3.43325 46.1952 2.60359 44.8114 2.38464 43.7386C2.30574 43.3366 2.31043 42.9226 2.3984 42.5224C2.42508 42.4173 2.45875 42.3141 2.49921 42.2134C2.53659 42.1348 2.55516 42.1046 2.56124 42.1047Z" fill="#263238"/>
<path d="M5.58408 18.4334C5.50792 18.2781 5.39948 18.1407 5.26601 18.0306C5.13254 17.9205 4.9771 17.8402 4.8101 17.7949C4.6431 17.7497 4.46836 17.7406 4.29756 17.7682C4.12676 17.7959 3.96384 17.8597 3.81966 17.9553C3.67548 18.051 3.55337 18.1763 3.46149 18.3229C3.3696 18.4695 3.31007 18.6341 3.28684 18.8055C3.26361 18.977 3.27723 19.1514 3.3268 19.3172C3.37636 19.483 3.46073 19.6363 3.57426 19.7668L24.9759 50.3068L5.58408 18.4334ZM4.35453 19.6054C4.28848 19.5109 4.26235 19.3941 4.28186 19.2805C4.30136 19.1669 4.3649 19.0655 4.45869 18.9984C4.50786 18.9575 4.5652 18.9276 4.62686 18.9106C4.68853 18.8935 4.75311 18.8899 4.8163 18.8998C4.8795 18.9097 4.93984 18.933 4.99333 18.9681C5.04681 19.0032 5.09219 19.0493 5.12646 19.1033L8.65132 25.2246L4.35453 19.6054Z" fill="#E0E0E0"/>
<path d="M4.3484 19.6053C4.83198 20.0863 5.27558 20.6059 5.67481 21.1589C6.47239 22.1532 7.55737 23.5459 8.76798 25.1226L8.51058 25.296L8.14047 24.6837C7.06694 22.8167 6.10709 21.1152 5.42787 19.873C5.26091 19.5792 5.10639 19.2612 4.97475 19.0712C4.89533 19.0079 4.79515 18.9765 4.69383 18.9833C4.59251 18.99 4.49735 19.0343 4.42701 19.1075C4.37915 19.1552 4.34334 19.2136 4.32252 19.2779C4.3017 19.3422 4.29647 19.4105 4.30728 19.4771C4.30617 19.5744 4.36042 19.6176 4.34812 19.6296C4.30586 19.5939 4.27828 19.5438 4.27066 19.4889C4.24208 19.4091 4.2354 19.3231 4.25131 19.2399C4.26723 19.1566 4.30517 19.0792 4.36116 19.0156C4.45164 18.9085 4.57976 18.8402 4.71912 18.8248C4.85847 18.8094 4.99843 18.8481 5.1101 18.9328C5.21717 19.0522 5.30959 19.1839 5.3854 19.3252L5.64814 19.7538C6.37621 20.9784 7.36075 22.6497 8.44036 24.5168L8.80405 25.1595L8.54059 25.3328C7.34214 23.7563 6.28176 22.3395 5.5454 21.3095C5.10664 20.7704 4.70664 20.201 4.3484 19.6053Z" fill="#263238"/>
<path d="M5.58399 18.4334C5.58399 18.4334 5.62598 18.4826 5.69778 18.5868L6.0026 19.0585C6.27134 19.4933 6.65978 20.0997 7.14336 20.8958C8.14074 22.5065 9.56206 24.8092 11.3241 27.6327L25.1168 50.205L24.8533 50.3784C24.5001 49.8818 24.1291 49.3485 23.7521 48.8091C17.5522 39.933 11.9448 31.9028 7.87542 26.0672L5.14682 22.1321L4.0279 20.5139C3.85432 20.2687 3.69282 20.0297 3.53727 19.8029C3.37707 19.5746 3.29486 19.3006 3.30285 19.0218C3.31165 18.7916 3.38316 18.5682 3.50966 18.3756C3.63616 18.183 3.81286 18.0287 4.02067 17.9292C4.17209 17.8579 4.33633 17.8178 4.50357 17.8114C4.67082 17.8049 4.83765 17.8322 4.99413 17.8916C5.18395 17.9662 5.35197 18.0872 5.48274 18.2438C5.52715 18.2951 5.56341 18.3529 5.59026 18.4153C5.43803 18.2061 5.22869 18.0454 4.98736 17.9523C4.83956 17.9023 4.68331 17.8821 4.52765 17.8928C4.37199 17.9036 4.22001 17.9451 4.08052 18.015C3.89547 18.1111 3.74004 18.2558 3.6309 18.4334C3.52176 18.6111 3.46302 18.8151 3.46096 19.0236C3.41883 19.5218 3.85818 19.9282 4.18697 20.4306C4.51576 20.933 4.91732 21.4544 5.32433 22.0307L8.09584 25.9359C12.1836 31.7596 17.8216 39.7718 24.0462 48.6178L25.1475 50.181L24.884 50.3544C19.5112 41.4755 14.6694 33.5027 11.1527 27.7342L7.06411 20.9132C6.59261 20.1233 6.22871 19.4989 5.96591 19.0763L5.69164 18.5928C5.64894 18.5446 5.61275 18.491 5.58399 18.4334Z" fill="#263238"/>
<path d="M13.7645 36.6244L21.5726 38.2757L24.0542 44.6893C24.0542 44.6893 18.6861 45.0664 15.7374 43.9262C12.7886 42.786 13.7645 36.6244 13.7645 36.6244Z" fill="#FF6464"/>
</svg>
