<svg width="69" height="51" viewBox="0 0 69 51" fill="none" xmlns="http://www.w3.org/2000/svg">
<path d="M68.0732 29.3615C67.8316 29.5406 67.5567 29.6709 67.2641 29.745C66.9715 29.819 66.6671 29.8354 66.3681 29.7932C66.0691 29.751 65.7815 29.651 65.5216 29.4989C65.2618 29.3469 65.0348 29.1457 64.8536 28.9069C63.4674 27.0655 61.6632 25.5714 59.5861 24.545C57.509 23.5186 55.2171 22.9885 52.8949 22.9974C52.4427 22.9974 52.0005 22.8656 51.6237 22.6184C51.2468 22.3713 50.9521 22.0199 50.7763 21.6081C50.6569 21.3285 50.5954 21.028 50.5954 20.7245C50.5954 20.421 50.6569 20.1206 50.7763 19.8409C50.9521 19.4291 51.2468 19.0777 51.6237 18.8306C52.0005 18.5835 52.4427 18.4517 52.8949 18.4516C54.1853 18.4515 55.4497 18.0938 56.5447 17.419C57.6396 16.7443 58.5212 15.7795 59.0892 14.6344C59.6572 13.4893 59.8889 12.2098 59.7579 10.9411C59.627 9.67235 59.1387 8.46535 58.3484 7.45718C57.5582 6.44901 56.4977 5.68006 55.2875 5.23769C54.0773 4.79532 52.7657 4.69725 51.5019 4.95462C50.2381 5.21199 49.0727 5.81449 48.138 6.69368C47.2033 7.57287 46.5367 8.69351 46.2142 9.92831C46.1387 10.2175 46.0063 10.4891 45.8246 10.7277C45.6428 10.9663 45.4154 11.1671 45.1551 11.3188C44.8948 11.4705 44.6069 11.5701 44.3077 11.6118C44.0085 11.6535 43.7039 11.6366 43.4114 11.5619C43.1188 11.4873 42.8439 11.3565 42.6025 11.1769C42.3611 10.9973 42.1579 10.7725 42.0044 10.5152C41.8509 10.258 41.7502 9.97343 41.708 9.67774C41.6658 9.38204 41.6829 9.08102 41.7584 8.79187C42.2062 7.07957 43.0521 5.49419 44.2289 4.16186C45.4057 2.82953 46.8808 1.78704 48.537 1.11733C50.1932 0.447613 51.9847 0.169167 53.7689 0.304144C55.5532 0.439121 57.2809 0.983795 58.8147 1.89483C60.3484 2.80586 61.6459 4.0581 62.6038 5.55192C63.5617 7.04574 64.1536 8.7399 64.3325 10.4996C64.5113 12.2593 64.2721 14.036 63.634 15.6882C62.9958 17.3405 61.9763 18.8228 60.6565 20.0171C63.7836 21.3552 66.5021 23.4787 68.5418 26.1766C68.723 26.416 68.8546 26.6884 68.9291 26.9781C69.0036 27.2679 69.0196 27.5693 68.9761 27.8651C68.9325 28.161 68.8304 28.4454 68.6755 28.7022C68.5205 28.959 68.3159 29.183 68.0732 29.3615ZM52.5844 46.8627C52.7508 47.1214 52.8626 47.4107 52.9129 47.7132C52.9632 48.0157 52.9512 48.3251 52.8774 48.6228C52.8036 48.9206 52.6696 49.2005 52.4835 49.4457C52.2974 49.6909 52.0631 49.8965 51.7945 50.0499C51.526 50.2033 51.2289 50.3014 50.921 50.3384C50.6131 50.3753 50.3008 50.3504 50.0029 50.2649C49.705 50.1795 49.4277 50.0355 49.1876 49.8414C48.9475 49.6473 48.7497 49.4072 48.6059 49.1356C47.1572 46.7112 45.0939 44.702 42.6197 43.3062C40.1455 41.9105 37.3459 41.1763 34.497 41.1763C31.6481 41.1763 28.8484 41.9105 26.3742 43.3062C23.9 44.702 21.8368 46.7112 20.3881 49.1356C20.2443 49.4072 20.0464 49.6473 19.8063 49.8414C19.5663 50.0355 19.2889 50.1795 18.9911 50.2649C18.6932 50.3504 18.3809 50.3753 18.073 50.3384C17.7651 50.3014 17.4679 50.2033 17.1994 50.0499C16.9309 49.8965 16.6965 49.6909 16.5104 49.4457C16.3244 49.2005 16.1904 48.9206 16.1166 48.6228C16.0428 48.3251 16.0307 48.0157 16.0811 47.7132C16.1314 47.4107 16.2431 47.1214 16.4095 46.8627C18.6391 43.0766 22.0387 40.0971 26.1087 38.3621C23.8185 36.6292 22.1354 34.2305 21.2959 31.5032C20.4564 28.7759 20.5028 25.8572 21.4285 23.1574C22.3541 20.4575 24.1126 18.1122 26.4567 16.4511C28.8008 14.7901 31.6126 13.8968 34.497 13.8968C37.3813 13.8968 40.1932 14.7901 42.5373 16.4511C44.8813 18.1122 46.6398 20.4575 47.5655 23.1574C48.4912 25.8572 48.5376 28.7759 47.6981 31.5032C46.8586 34.2305 45.1755 36.6292 42.8853 38.3621C46.9553 40.0971 50.3548 43.0766 52.5844 46.8627ZM34.497 36.6347C36.3164 36.6347 38.0949 36.1015 39.6077 35.1025C41.1204 34.1035 42.2995 32.6836 42.9957 31.0224C43.692 29.3611 43.8741 27.5331 43.5192 25.7695C43.1642 24.0059 42.2881 22.386 41.0016 21.1145C39.7151 19.843 38.076 18.9771 36.2916 18.6263C34.5072 18.2755 32.6576 18.4556 30.9767 19.1437C29.2958 19.8318 27.8591 20.9971 26.8483 22.4922C25.8375 23.9873 25.298 25.745 25.298 27.5432C25.298 29.9544 26.2672 32.2669 27.9923 33.9719C29.7175 35.6769 32.0573 36.6347 34.497 36.6347ZM18.3988 20.7245C18.3988 20.1217 18.1565 19.5436 17.7252 19.1173C17.2939 18.6911 16.709 18.4516 16.0991 18.4516C14.8087 18.4515 13.5442 18.0938 12.4493 17.419C11.3543 16.7443 10.4728 15.7795 9.9048 14.6344C9.3368 13.4893 9.10511 12.2098 9.23605 10.9411C9.36699 9.67235 9.8553 8.46535 10.6455 7.45718C11.4358 6.44901 12.4962 5.68006 13.7065 5.23769C14.9167 4.79532 16.2282 4.69725 17.492 4.95462C18.7558 5.21199 19.9213 5.81449 20.856 6.69368C21.7907 7.57287 22.4572 8.69351 22.7798 9.92831C22.9323 10.5123 23.3132 11.0125 23.8389 11.3188C24.3645 11.6252 24.9917 11.7127 25.5826 11.5619C26.1735 11.4112 26.6796 11.0347 26.9896 10.5152C27.2995 9.99576 27.388 9.37584 27.2355 8.79187C26.7878 7.07957 25.9419 5.49419 24.7651 4.16186C23.5883 2.82953 22.1131 1.78704 20.4569 1.11733C18.8007 0.447613 17.0093 0.169167 15.225 0.304144C13.4408 0.439121 11.7131 0.983795 10.1793 1.89483C8.64555 2.80586 7.3481 4.0581 6.39019 5.55192C5.43227 7.04574 4.84034 8.7399 4.66149 10.4996C4.48264 12.2593 4.72181 14.036 5.35997 15.6882C5.99812 17.3405 7.01765 18.8228 8.33743 20.0171C5.21347 21.3565 2.49814 23.4799 0.46082 26.1766C0.0944817 26.6589 -0.0630182 27.2652 0.0229693 27.8622C0.108957 28.4592 0.431388 28.998 0.919331 29.3601C1.40727 29.7221 2.02076 29.8778 2.62483 29.7928C3.2289 29.7078 3.77407 29.3892 4.14041 28.9069C5.52653 27.0655 7.33076 25.5714 9.40784 24.545C11.4849 23.5186 13.7768 22.9885 16.0991 22.9974C16.709 22.9974 17.2939 22.7579 17.7252 22.3317C18.1565 21.9054 18.3988 21.3273 18.3988 20.7245Z" fill="#FF6464"/>
</svg>
