<svg width="52" height="53" viewBox="0 0 52 53" fill="none" xmlns="http://www.w3.org/2000/svg">
<path d="M50.9997 10.7756L49.8352 10.1026C49.9718 9.37847 49.9718 8.63512 49.8352 7.91097L50.9997 7.23796C51.4589 6.97254 51.7941 6.53533 51.9314 6.0225C52.0687 5.50967 51.9969 4.96323 51.7318 4.5034C51.4667 4.04356 51.0301 3.708 50.5178 3.57052C50.0056 3.43305 49.4598 3.50493 49.0006 3.77034L47.8336 4.44585C47.2751 3.96613 46.633 3.59378 45.9394 3.34752V2.00151C45.9394 1.47068 45.7288 0.961584 45.3539 0.586228C44.979 0.210873 44.4705 0 43.9403 0C43.4101 0 42.9017 0.210873 42.5267 0.586228C42.1518 0.961584 41.9412 1.47068 41.9412 2.00151V3.34752C41.2477 3.59378 40.6056 3.96613 40.0471 4.44585L38.8801 3.77034C38.6527 3.63892 38.4016 3.55363 38.1413 3.51935C37.881 3.48506 37.6164 3.50245 37.3628 3.57052C37.1092 3.63859 36.8715 3.75601 36.6632 3.91607C36.4549 4.07614 36.2801 4.27571 36.1488 4.5034C36.0176 4.73108 35.9324 4.98243 35.8981 5.24307C35.8639 5.50372 35.8813 5.76857 35.9492 6.0225C36.0172 6.27643 36.1345 6.51446 36.2944 6.72301C36.4542 6.93156 36.6536 7.10654 36.881 7.23796L38.0455 7.91097C37.9089 8.63512 37.9089 9.37847 38.0455 10.1026L36.881 10.7756C36.4997 10.9958 36.2016 11.3359 36.033 11.743C35.8645 12.1502 35.8348 12.6017 35.9488 13.0274C36.0627 13.4531 36.3138 13.8293 36.6631 14.0976C37.0124 14.3658 37.4403 14.5111 37.8805 14.5109C38.2315 14.512 38.5765 14.4196 38.8801 14.2432L40.0471 13.5677C40.6056 14.0475 41.2477 14.4198 41.9412 14.6661V16.0121C41.9412 16.5429 42.1518 17.052 42.5267 17.4274C42.9017 17.8027 43.4101 18.0136 43.9403 18.0136C44.4705 18.0136 44.979 17.8027 45.3539 17.4274C45.7288 17.052 45.9394 16.5429 45.9394 16.0121V14.6661C46.633 14.4198 47.2751 14.0475 47.8336 13.5677L49.0006 14.2432C49.3041 14.4196 49.6491 14.512 50.0001 14.5109C50.4403 14.5111 50.8683 14.3658 51.2176 14.0976C51.5669 13.8293 51.818 13.4531 51.9319 13.0274C52.0458 12.6017 52.0162 12.1502 51.8476 11.743C51.6791 11.3359 51.381 10.9958 50.9997 10.7756ZM41.9412 9.00679C41.9412 8.61093 42.0585 8.22396 42.2781 7.89481C42.4978 7.56567 42.81 7.30913 43.1753 7.15764C43.5406 7.00615 43.9425 6.96651 44.3303 7.04374C44.7181 7.12097 45.0743 7.3116 45.3539 7.59151C45.6335 7.87143 45.8239 8.22806 45.901 8.61632C45.9782 9.00457 45.9386 9.40701 45.7873 9.77274C45.636 10.1385 45.3797 10.4511 45.051 10.671C44.7222 10.8909 44.3357 11.0083 43.9403 11.0083C43.4101 11.0083 42.9017 10.7974 42.5267 10.4221C42.1518 10.0467 41.9412 9.53763 41.9412 9.00679ZM49.2754 21.0434C48.7525 21.131 48.2858 21.423 47.9779 21.8551C47.6701 22.2872 47.5462 22.8241 47.6337 23.3476C47.8367 24.5613 47.9386 25.7898 47.9385 27.0204C47.9433 32.4099 45.9648 37.6123 42.381 41.6339C40.1514 38.3992 37.0164 35.8966 33.3701 34.441C35.3287 32.8964 36.758 30.7792 37.4591 28.3836C38.1601 25.9881 38.0982 23.4334 37.2818 21.0748C36.4655 18.7161 34.9353 16.6708 32.9041 15.2232C30.8729 13.7756 28.4416 12.9977 25.9484 12.9977C23.4552 12.9977 21.0239 13.7756 18.9927 15.2232C16.9615 16.6708 15.4313 18.7161 14.6149 21.0748C13.7986 23.4334 13.7367 25.9881 14.4377 28.3836C15.1388 30.7792 16.5681 32.8964 18.5267 34.441C14.8804 35.8966 11.7453 38.3992 9.51576 41.6339C6.70382 38.4614 4.86702 34.5432 4.22624 30.3505C3.58546 26.1577 4.16797 21.8689 5.90372 17.9997C7.63948 14.1306 10.4546 10.8457 14.0105 8.54021C17.5665 6.2347 21.7119 5.00666 25.9484 5.00377C27.1775 5.00358 28.4045 5.10567 29.6168 5.309C30.1373 5.39124 30.6692 5.26436 31.0968 4.95596C31.5244 4.64756 31.8131 4.1826 31.9 3.66222C31.987 3.14183 31.8652 2.60812 31.5611 2.17717C31.2571 1.74622 30.7954 1.45291 30.2765 1.36103C24.8475 0.446624 19.2687 1.2833 14.3457 3.75026C9.42262 6.21722 5.41001 10.1868 2.88719 15.0859C0.364376 19.9849 -0.538097 25.56 0.310079 31.006C1.15825 36.4521 3.71319 41.4874 7.60598 45.3849C11.4988 49.2823 16.528 51.8404 21.9675 52.6895C27.4071 53.5387 32.9754 52.6352 37.8686 50.1093C42.7617 47.5835 46.7265 43.566 49.1905 38.6371C51.6545 33.7081 52.4902 28.1226 51.5769 22.6871C51.4894 22.1636 51.1978 21.6963 50.7662 21.388C50.3346 21.0798 49.7983 20.9558 49.2754 21.0434ZM17.952 25.0189C17.952 23.4354 18.421 21.8875 19.2996 20.571C20.1783 19.2544 21.4271 18.2282 22.8883 17.6223C24.3495 17.0163 25.9573 16.8577 27.5084 17.1667C29.0596 17.4756 30.4844 18.2381 31.6027 19.3577C32.721 20.4774 33.4826 21.9039 33.7912 23.457C34.0997 25.01 33.9413 26.6197 33.3361 28.0826C32.7309 29.5456 31.706 30.7959 30.391 31.6756C29.076 32.5554 27.5299 33.0249 25.9484 33.0249C23.8276 33.0249 21.7937 32.1814 20.2941 30.68C18.7945 29.1786 17.952 27.1422 17.952 25.0189ZM12.4744 44.4085C13.9206 42.144 15.9129 40.2804 18.2676 38.9895C20.6224 37.6987 23.2638 37.0221 25.9484 37.0221C28.633 37.0221 31.2744 37.6987 33.6291 38.9895C35.9839 40.2804 37.9762 42.144 39.4224 44.4085C35.5699 47.4082 30.8288 49.0368 25.9484 49.0368C21.068 49.0368 16.3269 47.4082 12.4744 44.4085Z" fill="#FF6464"/>
</svg>
