<svg width="61" height="53" viewBox="0 0 61 53" fill="none" xmlns="http://www.w3.org/2000/svg">
<path d="M58.9667 48.9233H54.9V20.3862C54.9 19.305 54.4715 18.2681 53.7089 17.5036C52.9463 16.739 51.9119 16.3095 50.8333 16.3095H34.5667V4.07937C34.5671 3.34114 34.3676 2.61663 33.9895 1.98317C33.6113 1.34972 33.0686 0.831094 32.4194 0.482659C31.7702 0.134223 31.0388 -0.0309475 30.3032 0.00477707C29.5677 0.0405017 28.8556 0.27578 28.243 0.685501L7.90967 14.2712C7.35187 14.6442 6.89475 15.1498 6.57902 15.7428C6.26328 16.3358 6.09873 16.9979 6.1 17.6701V48.9233H2.03333C1.49406 48.9233 0.976873 49.138 0.595549 49.5203C0.214225 49.9026 0 50.421 0 50.9616C0 51.5023 0.214225 52.0207 0.595549 52.403C0.976873 52.7852 1.49406 53 2.03333 53H58.9667C59.5059 53 60.0231 52.7852 60.4044 52.403C60.7858 52.0207 61 51.5023 61 50.9616C61 50.421 60.7858 49.9026 60.4044 49.5203C60.0231 49.138 59.5059 48.9233 58.9667 48.9233ZM50.8333 20.3862V48.9233H34.5667V20.3862H50.8333ZM10.1667 17.6701L30.5 4.07937V48.9233H10.1667V17.6701ZM26.4333 24.463V28.5397C26.4333 29.0803 26.2191 29.5988 25.8378 29.981C25.4565 30.3633 24.9393 30.578 24.4 30.578C23.8607 30.578 23.3435 30.3633 22.9622 29.981C22.5809 29.5988 22.3667 29.0803 22.3667 28.5397V24.463C22.3667 23.9224 22.5809 23.4039 22.9622 23.0216C23.3435 22.6394 23.8607 22.4246 24.4 22.4246C24.9393 22.4246 25.4565 22.6394 25.8378 23.0216C26.2191 23.4039 26.4333 23.9224 26.4333 24.463ZM18.3 24.463V28.5397C18.3 29.0803 18.0858 29.5988 17.7045 29.981C17.3231 30.3633 16.8059 30.578 16.2667 30.578C15.7274 30.578 15.2102 30.3633 14.8289 29.981C14.4476 29.5988 14.2333 29.0803 14.2333 28.5397V24.463C14.2333 23.9224 14.4476 23.4039 14.8289 23.0216C15.2102 22.6394 15.7274 22.4246 16.2667 22.4246C16.8059 22.4246 17.3231 22.6394 17.7045 23.0216C18.0858 23.4039 18.3 23.9224 18.3 24.463ZM18.3 38.7315V42.8082C18.3 43.3488 18.0858 43.8673 17.7045 44.2495C17.3231 44.6318 16.8059 44.8466 16.2667 44.8466C15.7274 44.8466 15.2102 44.6318 14.8289 44.2495C14.4476 43.8673 14.2333 43.3488 14.2333 42.8082V38.7315C14.2333 38.1909 14.4476 37.6724 14.8289 37.2901C15.2102 36.9079 15.7274 36.6931 16.2667 36.6931C16.8059 36.6931 17.3231 36.9079 17.7045 37.2901C18.0858 37.6724 18.3 38.1909 18.3 38.7315ZM26.4333 38.7315V42.8082C26.4333 43.3488 26.2191 43.8673 25.8378 44.2495C25.4565 44.6318 24.9393 44.8466 24.4 44.8466C23.8607 44.8466 23.3435 44.6318 22.9622 44.2495C22.5809 43.8673 22.3667 43.3488 22.3667 42.8082V38.7315C22.3667 38.1909 22.5809 37.6724 22.9622 37.2901C23.3435 36.9079 23.8607 36.6931 24.4 36.6931C24.9393 36.6931 25.4565 36.9079 25.8378 37.2901C26.2191 37.6724 26.4333 38.1909 26.4333 38.7315Z" fill="#FF6464"/>
</svg>
