<svg width="55" height="51" viewBox="0 0 55 51" fill="none" xmlns="http://www.w3.org/2000/svg">
<path d="M53.8935 22.5296L37.9019 6.78151C33.631 2.61245 27.8435 0.270996 21.8095 0.270996C15.7756 0.270996 9.98808 2.61245 5.71716 6.78151L5.69582 6.80238L2.4316 10.1018C2.09346 10.4572 1.91127 10.9282 1.92414 11.4135C1.93702 11.8988 2.14393 12.3599 2.50047 12.6977C2.857 13.0355 3.33472 13.2231 3.83109 13.2203C4.32746 13.2174 4.8029 13.0243 5.15534 12.6824L8.41008 9.3946C9.71954 8.11408 11.2139 7.02824 12.8454 6.17171L23.8683 16.9649L1.11121 39.2238C0.758917 39.5683 0.47946 39.9773 0.288797 40.4274C0.0981338 40.8776 0 41.3601 0 41.8473C0 42.3345 0.0981338 42.817 0.288797 43.2672C0.47946 43.7173 0.758917 44.1263 1.11121 44.4708L6.01584 49.2681C6.36805 49.6127 6.78621 49.886 7.24644 50.0725C7.70667 50.259 8.19995 50.3549 8.6981 50.3549C9.19626 50.3549 9.68954 50.259 10.1498 50.0725C10.61 49.886 11.0282 49.6127 11.3804 49.2681L34.1375 27.0092L37.5368 30.3341L41.7232 34.4242C42.0754 34.7688 42.4936 35.0421 42.9538 35.2286C43.414 35.4151 43.9073 35.5111 44.4055 35.5111C44.9036 35.5111 45.3969 35.4151 45.8571 35.2286C46.3174 35.0421 46.7355 34.7688 47.0877 34.4242L53.8888 27.7721C54.5995 27.0771 54.9991 26.1347 55 25.1518C55.0009 24.1689 54.6029 23.2258 53.8935 22.5296ZM8.69692 46.6434L3.79465 41.8461L19.9143 26.0795L24.8166 30.8767L8.69692 46.6434ZM32.7958 23.0676L27.5 28.2497L22.5954 23.4571L27.8935 18.275C28.0698 18.1027 28.2097 17.8981 28.3051 17.6729C28.4006 17.4477 28.4497 17.2064 28.4497 16.9626C28.4497 16.7188 28.4006 16.4775 28.3051 16.2523C28.2097 16.0271 28.0698 15.8225 27.8935 15.6503L16.6714 4.67619C19.9137 3.78305 23.3406 3.75067 26.5999 4.58239C29.8592 5.41412 32.8332 7.07992 35.2161 9.40852L45.6986 19.7287L38.8786 26.3925L35.4792 23.0676C35.3031 22.8951 35.0939 22.7583 34.8637 22.6649C34.6335 22.5716 34.3867 22.5235 34.1375 22.5235C33.8883 22.5235 33.6415 22.5716 33.4113 22.6649C33.1811 22.7583 32.9719 22.8951 32.7958 23.0676ZM44.4114 31.7995L41.5667 29.0172L48.3607 22.3557L51.2053 25.1381L44.4114 31.7995Z" fill="#FF6464"/>
</svg>
