<svg width="13" height="27" viewBox="0 0 13 27" fill="none" xmlns="http://www.w3.org/2000/svg">
<path d="M0.293164 12.5861L10.2932 0.358377C10.3861 0.24477 10.4964 0.154652 10.6178 0.0931683C10.7392 0.0316849 10.8693 3.62396e-05 11.0007 3.62396e-05C11.1321 3.62396e-05 11.2622 0.0316849 11.3836 0.0931683C11.505 0.154652 11.6153 0.24477 11.7082 0.358377C11.8011 0.471985 11.8748 0.606857 11.9251 0.755295C11.9753 0.90373 12.0012 1.06282 12.0012 1.22349C12.0012 1.38415 11.9753 1.54325 11.9251 1.69168C11.8748 1.84012 11.8011 1.97499 11.7082 2.0886L2.41441 13.4512L11.7082 24.8138C11.8958 25.0432 12.0012 25.3544 12.0012 25.6789C12.0012 26.0034 11.8958 26.3146 11.7082 26.544C11.5205 26.7734 11.266 26.9023 11.0007 26.9023C10.7353 26.9023 10.4808 26.7734 10.2932 26.544L0.293164 14.3163C0.200188 14.2027 0.126429 14.0679 0.0761042 13.9194C0.0257797 13.771 -0.000121117 13.6119 -0.000121117 13.4512C-0.000121117 13.2905 0.0257797 13.1314 0.0761042 12.9829C0.126429 12.8345 0.200188 12.6996 0.293164 12.5861Z" fill="#2C2C2C"/>
</svg>
