<svg width="189" height="319" viewBox="0 0 189 319" fill="none" xmlns="http://www.w3.org/2000/svg">
<path d="M0 318C71.0754 318 110.925 318 182 318" stroke="black" stroke-width="2" stroke-dasharray="6 6"/>
<g clip-path="url(#clip0_1384_2074)">
<path d="M163.299 257.568C162.721 259.497 161.149 261.283 158.89 262.734L75.4856 311.95L165.139 266.357C167.935 264.967 170.966 264.114 174.075 263.841C177.264 263.508 180.351 262.52 183.144 260.939C186.49 258.994 188.289 256.57 188.281 254.431V251.705C187.437 251.464 186.619 251.141 185.838 250.741C181.721 248.359 173.832 249.063 168.226 252.301C165.516 253.886 163.834 255.806 163.299 257.568ZM181.403 253.29C183.721 254.632 183.077 257.19 179.897 259.01C176.718 260.83 172.326 261.225 170.008 259.849C167.691 258.474 168.377 255.949 171.523 254.129C174.669 252.309 179.094 251.982 181.403 253.29Z" fill="#37474F"/>
<path d="M163.299 254.892C162.721 256.821 161.149 258.608 158.89 260.059L75.4856 311.95L165.139 263.682C167.932 262.277 170.963 261.41 174.074 261.124C177.262 260.808 180.35 259.834 183.144 258.264C188.749 255.018 189.954 250.447 185.838 248.065C181.721 245.683 173.832 246.388 168.226 249.625C165.516 251.202 163.834 253.089 163.299 254.892ZM181.403 250.648C183.721 251.982 183.077 254.548 179.897 256.368C176.718 258.188 172.326 258.583 170.008 257.207C167.691 255.832 168.377 253.307 171.523 251.487C174.668 249.667 179.094 249.306 181.403 250.648Z" fill="#455A64"/>
<path d="M181.102 217.645C171.573 205.19 156.79 199.194 137.639 194.782V198.221C156.12 202.515 169.573 208.084 178.45 219.683C180.482 222.273 181.97 225.248 182.824 228.429C183.678 231.61 183.88 234.932 183.42 238.194C182.625 244.065 179.931 248.795 177.689 250.481C177.334 250.748 177.099 251.145 177.036 251.585C176.974 252.026 177.088 252.473 177.354 252.829C177.62 253.185 178.017 253.42 178.456 253.483C178.895 253.546 179.342 253.432 179.697 253.165C182.407 251.127 185.771 245.708 186.733 238.655C187.259 234.953 187.031 231.183 186.063 227.572C185.095 223.961 183.408 220.584 181.102 217.645Z" fill="#FF6464"/>
<path d="M180.634 251.546C180.345 251.549 180.06 251.478 179.807 251.338C179.553 251.199 179.341 250.995 179.189 250.749C179.037 250.502 178.952 250.22 178.941 249.931C178.93 249.641 178.995 249.354 179.128 249.097C182.809 242.152 179.964 236.021 177.881 232.985C173.48 226.443 165.106 222.082 158.379 222.77C157.935 222.818 157.491 222.687 157.143 222.406C156.796 222.125 156.574 221.718 156.526 221.273C156.478 220.828 156.609 220.382 156.889 220.034C157.169 219.685 157.576 219.463 158.019 219.415C166.009 218.576 175.53 223.474 180.659 231.09C184.917 237.414 185.419 244.358 182.081 250.649C181.942 250.914 181.734 251.138 181.48 251.295C181.225 251.453 180.933 251.54 180.634 251.546Z" fill="#FF6464"/>
<g opacity="0.1">
<path d="M181.102 217.645C171.573 205.19 156.79 199.194 137.639 194.782V198.221C156.12 202.515 169.573 208.084 178.45 219.683C180.482 222.273 181.97 225.248 182.824 228.429C183.678 231.61 183.88 234.932 183.42 238.194C182.625 244.065 179.931 248.795 177.689 250.481C177.334 250.748 177.099 251.145 177.036 251.585C176.974 252.026 177.088 252.473 177.354 252.829C177.62 253.185 178.017 253.42 178.456 253.483C178.895 253.546 179.342 253.432 179.697 253.165C182.407 251.127 185.771 245.708 186.733 238.655C187.259 234.953 187.031 231.183 186.063 227.572C185.095 223.961 183.408 220.584 181.102 217.645Z" fill="black"/>
</g>
<path d="M123.508 228.07C123.508 221.495 119.174 214.911 110.499 209.896C93.1551 199.831 65.0359 199.831 47.7008 209.896C39.0249 214.928 34.6912 221.487 34.6912 228.07V254.339C34.6912 260.914 39.0249 267.498 47.7008 272.514C65.0442 282.578 93.1635 282.578 110.507 272.514C119.174 267.481 123.508 260.914 123.508 254.339V228.07Z" fill="#37474F"/>
<path d="M47.7008 209.895C39.0249 214.928 34.6912 221.486 34.6912 228.07C34.6912 234.654 39.0249 241.221 47.7008 246.245C65.0442 256.31 93.1635 256.31 110.507 246.245C119.174 241.213 123.508 234.646 123.508 228.07C123.508 221.495 119.174 214.911 110.499 209.895C93.1551 199.856 65.0442 199.856 47.7008 209.895Z" fill="#455A64"/>
<path d="M51.3988 212.596C43.7519 216.865 39.9202 222.468 39.9202 228.07C39.9202 233.673 43.7519 239.267 51.3988 243.544C66.7008 252.091 91.507 252.091 106.801 243.544C114.456 239.267 118.279 233.673 118.279 228.07C118.279 222.468 114.456 216.865 106.801 212.596C91.4986 204.05 66.7008 204.05 51.3988 212.596Z" fill="#263238"/>
<path d="M137.639 223.994V62.4504C137.639 62.4504 137.639 62.4085 137.639 62.3833C137.639 39.8975 111.427 21.6724 79.0746 21.6724C46.722 21.6724 20.5103 39.8975 20.5103 62.3833V224.128C20.5103 246.614 46.7136 264.839 79.0746 264.839C111.436 264.839 137.639 246.614 137.639 224.128C137.639 224.128 137.639 224.07 137.639 224.036C137.639 224.003 137.639 224.011 137.639 223.994Z" fill="#FF6464"/>
<path opacity="0.1" d="M39.9202 216.731V145.441C39.9202 96.6949 40.2047 79.4342 56.5859 81.3884L67.0104 22.5781C40.4807 26.453 20.5688 42.8162 20.5688 62.4168V224.128C20.5688 246.614 46.7722 264.839 79.1332 264.839C85.1226 264.851 91.0953 264.207 96.9451 262.919C52.5199 266.928 39.9202 232.994 39.9202 216.731Z" fill="black"/>
<path d="M43.0995 34.0852C33.1603 39.8387 28.1907 47.3871 28.1907 54.9271C28.1907 62.4671 33.1603 70.0239 43.0995 75.7606C62.9862 87.2677 95.2218 87.2677 115.1 75.7606C125.048 70.0071 130.017 62.4671 130.017 54.9271C130.017 47.3871 125.039 39.8303 115.1 34.0852C95.2218 22.5781 62.9779 22.5781 43.0995 34.0852Z" fill="#FF6464"/>
<path opacity="0.2" d="M43.0995 34.0852C33.1603 39.8387 28.1907 47.3871 28.1907 54.9271C28.1907 62.4671 33.1603 70.0239 43.0995 75.7606C62.9862 87.2677 95.2218 87.2677 115.1 75.7606C125.048 70.0071 130.017 62.4671 130.017 54.9271C130.017 47.3871 125.039 39.8303 115.1 34.0852C95.2218 22.5781 62.9779 22.5781 43.0995 34.0852Z" fill="white"/>
<path d="M123.508 26.5033C123.508 19.9278 119.174 13.3439 110.499 8.32842C93.1551 -1.7361 65.0359 -1.7361 47.7008 8.32842C39.0249 13.3607 34.6912 19.9194 34.6912 26.5033V52.7716C34.6912 59.3471 39.0249 65.931 47.7008 70.9465C65.0442 81.011 93.1635 81.011 110.507 70.9465C119.174 65.9142 123.508 59.3471 123.508 52.7716V26.5033Z" fill="#37474F"/>
<path d="M47.7008 8.32833C39.0249 13.3606 34.6912 19.9193 34.6912 26.5032C34.6912 33.087 39.0249 39.6541 47.7008 44.678C65.0442 54.7425 93.1635 54.7425 110.507 44.678C119.174 39.6457 123.508 33.0786 123.508 26.5032C123.508 19.9277 119.174 13.3438 110.499 8.32833C93.1551 -1.67748 65.0442 -1.67748 47.7008 8.32833Z" fill="#455A64"/>
<path d="M51.3988 11.029C43.7519 15.298 39.9202 20.9006 39.9202 26.5032C39.9202 32.1057 43.7519 37.6999 51.3988 41.9773C66.7008 50.5238 91.507 50.5238 106.801 41.9773C114.456 37.6999 118.279 32.0973 118.279 26.5032C118.279 20.909 114.456 15.298 106.801 11.029C91.4986 2.51606 66.7008 2.51606 51.3988 11.029Z" fill="#263238"/>
<path opacity="0.15" d="M27.1867 134.001C39.1673 134.655 51.1897 132.793 62.7018 129.48C79.903 124.297 96.5604 116.413 110.541 104.998C124.521 93.5833 133.816 76.0374 133.222 57.762C132.912 82.9987 116.288 102.507 95.0795 114.165C79.6436 123.123 62.6767 129.748 45.0237 132.617C39.1291 133.593 33.1611 134.057 27.1867 134.001ZM95.0795 199.068C79.6436 208.025 62.6767 214.651 45.0237 217.519C39.1291 218.496 33.1611 218.959 27.1867 218.903C39.1673 219.557 51.1897 217.695 62.7018 214.383C79.903 209.199 96.5604 201.316 110.541 189.901C124.521 178.486 133.782 160.94 133.222 142.665C132.946 167.901 116.288 187.41 95.0795 199.068ZM28.1907 120.053C31.1245 119.896 34.061 119.659 37.0004 119.34C57.523 117.109 77.6943 109.938 94.1843 97.3323C84.2975 103.688 73.6639 108.793 62.5261 112.53C54.1641 115.271 45.5979 117.341 36.9084 118.719C34.0136 119.248 31.1021 119.608 28.1907 120.053ZM71.9633 153.232C74.7521 152.243 77.5018 151.18 80.2125 150.045C99.2711 142.094 116.598 129.488 128.846 112.714C121.159 121.616 112.403 129.529 102.777 136.274C95.5316 141.274 87.9027 145.691 79.9616 149.483C77.3262 150.8 74.6322 151.983 71.9633 153.232ZM22.7107 199.831C25.1035 199.915 27.5046 199.94 29.8974 199.881C46.697 199.537 63.5552 195.151 77.8114 186.101C69.3372 190.554 60.3444 193.935 51.0391 196.166C44.0652 197.795 36.9734 198.866 29.8305 199.37C27.5297 199.613 25.1035 199.688 22.7107 199.831ZM71.5283 225.831C63.1752 228.581 54.6174 230.662 45.9357 232.054C43.0409 232.574 40.0792 232.943 37.2096 233.379C40.1545 233.22 43.066 232.994 46.0193 232.675C66.5419 230.444 86.7216 223.273 103.203 210.667C93.3117 217.025 82.6723 222.13 71.5283 225.865V225.831ZM61.1875 109.561C47.2575 102.406 33.8045 92.0233 27.5799 77.22C26.2179 73.8052 25.3339 70.2178 24.9529 66.56C24.954 69.6628 25.3963 72.7495 26.2664 75.7271C31.1105 91.8471 46.0444 103.589 61.1875 109.561ZM31.9053 139.561C44.1871 162.056 68.6084 180.541 93.0549 187.67L98.5767 189.003C100.445 189.322 102.311 189.627 104.174 189.917C102.333 189.49 100.493 189.079 98.6519 188.676L93.2306 187.074C69.0937 179.023 45.5675 161.133 31.9137 139.561H31.9053ZM114.891 178.419L110.248 177.446C88.0016 171.743 65.9061 157.627 51.5829 139.595C64.442 158.65 87.692 173.479 110.147 177.773C111.754 178.033 113.335 178.217 114.899 178.419H114.891ZM128.838 240.265C114.799 237.363 101.806 231.291 89.4573 224.095C100.802 232.759 114.54 239.133 128.846 240.265H128.838Z" fill="black"/>
</g>
<defs>
<clipPath id="clip0_1384_2074">
<rect width="169" height="312" fill="white" transform="translate(20)"/>
</clipPath>
</defs>
</svg>
