<svg width="187" height="329" viewBox="0 0 187 329" fill="none" xmlns="http://www.w3.org/2000/svg">
<path d="M0 328C71.0754 328 110.925 328 182 328" stroke="black" stroke-width="2" stroke-dasharray="6 6"/>
<g clip-path="url(#clip0_1386_2076)">
<path d="M161.299 257.568C160.721 259.497 159.149 261.283 156.89 262.734L73.4856 311.95L163.139 266.357C165.935 264.967 168.966 264.114 172.075 263.841C175.264 263.508 178.351 262.52 181.144 260.939C184.49 258.994 186.289 256.57 186.281 254.431V251.705C185.437 251.464 184.619 251.141 183.838 250.741C179.721 248.359 171.832 249.063 166.226 252.301C163.516 253.886 161.834 255.806 161.299 257.568ZM179.403 253.29C181.721 254.632 181.077 257.19 177.897 259.01C174.718 260.83 170.326 261.225 168.008 259.849C165.691 258.474 166.377 255.949 169.523 254.129C172.669 252.309 177.094 251.982 179.403 253.29Z" fill="#37474F"/>
<path d="M161.299 254.892C160.721 256.821 159.149 258.608 156.89 260.059L73.4856 311.95L163.139 263.682C165.932 262.278 168.963 261.41 172.074 261.124C175.262 260.808 178.35 259.834 181.144 258.264C186.749 255.018 187.954 250.447 183.838 248.065C179.721 245.683 171.832 246.388 166.226 249.625C163.516 251.202 161.834 253.089 161.299 254.892ZM179.403 250.649C181.721 251.982 181.077 254.549 177.897 256.369C174.718 258.189 170.326 258.583 168.008 257.207C165.691 255.832 166.377 253.307 169.523 251.487C172.668 249.667 177.094 249.307 179.403 250.649Z" fill="#455A64"/>
<path d="M179.102 217.645C169.573 205.19 154.79 199.194 135.639 194.782V198.221C154.12 202.515 167.573 208.084 176.45 219.683C178.482 222.273 179.969 225.248 180.823 228.429C181.678 231.61 181.88 234.932 181.42 238.194C180.625 244.065 177.931 248.795 175.689 250.481C175.334 250.748 175.099 251.145 175.036 251.585C174.973 252.026 175.088 252.473 175.354 252.829C175.62 253.185 176.017 253.42 176.456 253.483C176.895 253.546 177.342 253.432 177.697 253.165C180.407 251.127 183.771 245.708 184.733 238.655C185.258 234.953 185.031 231.183 184.063 227.572C183.095 223.961 181.408 220.584 179.102 217.645Z" fill="#62B8AF"/>
<path d="M178.634 251.546C178.345 251.549 178.06 251.478 177.807 251.338C177.553 251.199 177.341 250.995 177.189 250.749C177.037 250.502 176.952 250.22 176.941 249.931C176.931 249.641 176.995 249.354 177.128 249.097C180.809 242.152 177.964 236.021 175.881 232.985C171.481 226.443 163.106 222.082 156.379 222.77C155.935 222.818 155.491 222.687 155.143 222.406C154.796 222.125 154.574 221.718 154.526 221.273C154.478 220.828 154.609 220.382 154.889 220.034C155.169 219.685 155.576 219.463 156.02 219.415C164.009 218.576 173.53 223.474 178.659 231.09C182.917 237.414 183.419 244.358 180.081 250.649C179.942 250.914 179.734 251.138 179.48 251.295C179.225 251.453 178.933 251.54 178.634 251.546Z" fill="#62B8AF"/>
<g opacity="0.1">
<path d="M179.102 217.645C169.573 205.19 154.79 199.194 135.639 194.782V198.221C154.12 202.515 167.573 208.084 176.45 219.683C178.482 222.273 179.969 225.248 180.823 228.429C181.678 231.61 181.88 234.932 181.42 238.194C180.625 244.065 177.931 248.795 175.689 250.481C175.334 250.748 175.099 251.145 175.036 251.585C174.973 252.026 175.088 252.473 175.354 252.829C175.62 253.185 176.017 253.42 176.456 253.483C176.895 253.546 177.342 253.432 177.697 253.165C180.407 251.127 183.771 245.708 184.733 238.655C185.258 234.953 185.031 231.183 184.063 227.572C183.095 223.961 181.408 220.584 179.102 217.645Z" fill="black"/>
</g>
<path d="M121.508 228.07C121.508 221.495 117.175 214.911 108.499 209.896C91.1553 199.831 63.036 199.831 45.7009 209.896C37.025 214.928 32.6913 221.487 32.6913 228.07V254.339C32.6913 260.914 37.025 267.498 45.7009 272.514C63.0443 282.578 91.1636 282.578 108.507 272.514C117.175 267.481 121.508 260.914 121.508 254.339V228.07Z" fill="#37474F"/>
<path d="M45.7009 209.895C37.025 214.928 32.6913 221.486 32.6913 228.07C32.6913 234.654 37.025 241.221 45.7009 246.245C63.0443 256.31 91.1636 256.31 108.507 246.245C117.175 241.213 121.508 234.646 121.508 228.07C121.508 221.495 117.175 214.911 108.499 209.895C91.1553 199.856 63.0443 199.856 45.7009 209.895Z" fill="#455A64"/>
<path d="M49.3989 212.596C41.7521 216.865 37.9203 222.468 37.9203 228.07C37.9203 233.673 41.7521 239.267 49.3989 243.544C64.7009 252.091 89.5071 252.091 104.801 243.544C112.456 239.267 116.279 233.673 116.279 228.07C116.279 222.468 112.456 216.865 104.801 212.596C89.4988 204.05 64.7009 204.05 49.3989 212.596Z" fill="#263238"/>
<path d="M135.639 223.994V62.4504C135.639 62.4504 135.639 62.4085 135.639 62.3833C135.639 39.8975 109.427 21.6724 77.0747 21.6724C44.7221 21.6724 18.5104 39.8975 18.5104 62.3833V224.128C18.5104 246.614 44.7137 264.839 77.0747 264.839C109.436 264.839 135.639 246.614 135.639 224.128C135.639 224.128 135.639 224.07 135.639 224.036C135.639 224.003 135.639 224.011 135.639 223.994Z" fill="#62B8AF"/>
<path opacity="0.1" d="M37.9203 216.731V145.441C37.9203 96.6949 38.2048 79.4342 54.5861 81.3884L65.0105 22.5781C38.4809 26.453 18.569 42.8162 18.569 62.4168V224.128C18.569 246.614 44.7723 264.839 77.1333 264.839C83.1227 264.851 89.0954 264.207 94.9453 262.919C50.52 266.928 37.9203 232.994 37.9203 216.731Z" fill="black"/>
<path d="M41.0995 34.0852C31.1603 39.8387 26.1907 47.3871 26.1907 54.9271C26.1907 62.4671 31.1603 70.0239 41.0995 75.7607C60.9862 87.2678 93.2218 87.2678 113.1 75.7607C123.048 70.0071 128.017 62.4671 128.017 54.9271C128.017 47.3871 123.039 39.8303 113.1 34.0852C93.2218 22.5781 60.9779 22.5781 41.0995 34.0852Z" fill="#62B8AF"/>
<path opacity="0.2" d="M41.0995 34.0852C31.1603 39.8387 26.1907 47.3871 26.1907 54.9271C26.1907 62.4671 31.1603 70.0239 41.0995 75.7607C60.9862 87.2678 93.2218 87.2678 113.1 75.7607C123.048 70.0071 128.017 62.4671 128.017 54.9271C128.017 47.3871 123.039 39.8303 113.1 34.0852C93.2218 22.5781 60.9779 22.5781 41.0995 34.0852Z" fill="white"/>
<path d="M121.508 26.5033C121.508 19.9278 117.175 13.3439 108.499 8.32842C91.1553 -1.7361 63.036 -1.7361 45.7009 8.32842C37.025 13.3607 32.6913 19.9194 32.6913 26.5033V52.7716C32.6913 59.3471 37.025 65.931 45.7009 70.9465C63.0443 81.011 91.1636 81.011 108.507 70.9465C117.175 65.9142 121.508 59.3471 121.508 52.7716V26.5033Z" fill="#37474F"/>
<path d="M45.7009 8.32857C37.025 13.3608 32.6913 19.9195 32.6913 26.5034C32.6913 33.0873 37.025 39.6544 45.7009 44.6782C63.0443 54.7428 91.1636 54.7428 108.507 44.6782C117.175 39.646 121.508 33.0789 121.508 26.5034C121.508 19.9279 117.175 13.3441 108.499 8.32857C91.1553 -1.67723 63.0443 -1.67723 45.7009 8.32857Z" fill="#455A64"/>
<path d="M49.3989 11.029C41.7521 15.298 37.9203 20.9006 37.9203 26.5032C37.9203 32.1057 41.7521 37.6999 49.3989 41.9773C64.7009 50.5238 89.5071 50.5238 104.801 41.9773C112.456 37.6999 116.279 32.0973 116.279 26.5032C116.279 20.909 112.456 15.298 104.801 11.029C89.4988 2.51606 64.7009 2.51606 49.3989 11.029Z" fill="#263238"/>
<path opacity="0.15" d="M25.1867 134.001C37.1673 134.655 49.1897 132.793 60.7018 129.48C77.903 124.297 94.5604 116.413 108.541 104.998C122.521 93.5833 131.816 76.0374 131.222 57.762C130.912 82.9987 114.288 102.507 93.0795 114.165C77.6436 123.123 60.6767 129.748 43.0237 132.617C37.1291 133.593 31.1611 134.057 25.1867 134.001ZM93.0795 199.068C77.6436 208.025 60.6767 214.651 43.0237 217.519C37.1291 218.496 31.1611 218.959 25.1867 218.903C37.1673 219.557 49.1897 217.695 60.7018 214.383C77.903 209.199 94.5604 201.316 108.541 189.901C122.521 178.486 131.782 160.94 131.222 142.665C130.946 167.901 114.288 187.41 93.0795 199.068ZM26.1907 120.053C29.1245 119.896 32.061 119.659 35.0004 119.34C55.523 117.109 75.6943 109.938 92.1843 97.3323C82.2975 103.688 71.6639 108.793 60.5261 112.53C52.1641 115.271 43.5979 117.341 34.9084 118.719C32.0136 119.248 29.1021 119.608 26.1907 120.053ZM69.9633 153.232C72.7521 152.243 75.5018 151.18 78.2125 150.045C97.2711 142.094 114.598 129.488 126.846 112.714C119.159 121.616 110.403 129.529 100.777 136.274C93.5316 141.274 85.9027 145.691 77.9616 149.483C75.3262 150.8 72.6322 151.983 69.9633 153.232ZM20.7107 199.831C23.1035 199.915 25.5046 199.94 27.8974 199.881C44.697 199.537 61.5552 195.151 75.8114 186.101C67.3372 190.554 58.3444 193.935 49.0391 196.166C42.0652 197.795 34.9734 198.866 27.8305 199.37C25.5297 199.613 23.1035 199.688 20.7107 199.831ZM69.5283 225.831C61.1752 228.581 52.6174 230.662 43.9357 232.054C41.0409 232.574 38.0792 232.943 35.2096 233.379C38.1545 233.22 41.066 232.994 44.0193 232.675C64.5419 230.444 84.7216 223.273 101.203 210.667C91.3117 217.025 80.6723 222.13 69.5283 225.865V225.831ZM59.1875 109.561C45.2575 102.406 31.8045 92.0233 25.5799 77.22C24.2179 73.8052 23.3339 70.2178 22.9529 66.56C22.954 69.6628 23.3963 72.7495 24.2664 75.7271C29.1105 91.8471 44.0444 103.589 59.1875 109.561ZM29.9053 139.561C42.1871 162.056 66.6084 180.541 91.0549 187.67L96.5767 189.003C98.4451 189.322 100.311 189.627 102.174 189.917C100.333 189.49 98.4925 189.079 96.6519 188.676L91.2306 187.074C67.0937 179.023 43.5675 161.133 29.9137 139.561H29.9053ZM112.891 178.419L108.248 177.446C86.0016 171.743 63.9061 157.627 49.5829 139.595C62.442 158.65 85.692 173.479 108.147 177.773C109.754 178.033 111.335 178.217 112.899 178.419H112.891ZM126.838 240.265C112.799 237.363 99.806 231.291 87.4573 224.095C98.8021 232.759 112.54 239.133 126.846 240.265H126.838Z" fill="black"/>
</g>
<defs>
<clipPath id="clip0_1386_2076">
<rect width="169" height="312" fill="white" transform="translate(18)"/>
</clipPath>
</defs>
</svg>
