<svg width="183" height="324" viewBox="0 0 183 324" fill="none" xmlns="http://www.w3.org/2000/svg">
<path d="M0 323C71.0754 323 110.925 323 182 323" stroke="black" stroke-width="2" stroke-dasharray="6 6"/>
<g clip-path="url(#clip0_1341_796)">
<path d="M157.299 257.568C156.721 259.497 155.149 261.283 152.89 262.734L69.4856 311.95L159.139 266.357C161.935 264.967 164.966 264.114 168.075 263.841C171.264 263.508 174.351 262.52 177.144 260.939C180.49 258.994 182.289 256.57 182.281 254.431V251.705C181.437 251.464 180.619 251.141 179.838 250.741C175.721 248.359 167.832 249.063 162.226 252.301C159.516 253.886 157.834 255.806 157.299 257.568ZM175.403 253.29C177.721 254.632 177.077 257.19 173.897 259.01C170.718 260.83 166.326 261.225 164.008 259.849C161.691 258.474 162.377 255.949 165.523 254.129C168.669 252.309 173.094 251.982 175.403 253.29Z" fill="#37474F"/>
<path d="M157.299 254.892C156.721 256.821 155.149 258.608 152.89 260.059L69.4856 311.95L159.139 263.682C161.932 262.278 164.963 261.41 168.074 261.124C171.262 260.808 174.35 259.834 177.144 258.264C182.749 255.018 183.954 250.447 179.838 248.065C175.721 245.683 167.832 246.388 162.226 249.625C159.516 251.202 157.834 253.089 157.299 254.892ZM175.403 250.649C177.721 251.982 177.077 254.549 173.897 256.369C170.718 258.189 166.326 258.583 164.008 257.207C161.691 255.832 162.377 253.307 165.523 251.487C168.668 249.667 173.094 249.307 175.403 250.649Z" fill="#455A64"/>
<path d="M175.102 217.645C165.573 205.19 150.79 199.194 131.639 194.782V198.221C150.12 202.515 163.573 208.084 172.45 219.683C174.482 222.273 175.97 225.248 176.824 228.429C177.678 231.61 177.88 234.932 177.42 238.194C176.625 244.065 173.931 248.795 171.689 250.481C171.334 250.748 171.099 251.145 171.036 251.585C170.974 252.026 171.088 252.473 171.354 252.829C171.62 253.185 172.017 253.42 172.456 253.483C172.895 253.546 173.342 253.431 173.697 253.165C176.407 251.127 179.771 245.708 180.733 238.655C181.259 234.953 181.031 231.183 180.063 227.572C179.095 223.961 177.408 220.584 175.102 217.645Z" fill="#FFE162"/>
<path d="M174.634 251.546C174.345 251.549 174.06 251.478 173.807 251.338C173.553 251.199 173.341 250.995 173.189 250.749C173.037 250.502 172.952 250.22 172.941 249.931C172.931 249.641 172.995 249.354 173.128 249.097C176.809 242.152 173.964 236.021 171.881 232.985C167.481 226.443 159.106 222.082 152.379 222.77C151.935 222.818 151.491 222.687 151.143 222.406C150.796 222.125 150.574 221.718 150.526 221.273C150.478 220.828 150.609 220.382 150.889 220.034C151.169 219.685 151.576 219.463 152.02 219.415C160.009 218.576 169.53 223.474 174.659 231.09C178.917 237.414 179.419 244.358 176.081 250.649C175.942 250.914 175.734 251.138 175.48 251.295C175.225 251.453 174.933 251.54 174.634 251.546Z" fill="#FFE162"/>
<g opacity="0.1">
<path d="M175.102 217.645C165.573 205.19 150.79 199.194 131.639 194.782V198.221C150.12 202.515 163.573 208.084 172.45 219.683C174.482 222.273 175.97 225.248 176.824 228.429C177.678 231.61 177.88 234.932 177.42 238.194C176.625 244.065 173.931 248.795 171.689 250.481C171.334 250.748 171.099 251.145 171.036 251.585C170.974 252.026 171.088 252.473 171.354 252.829C171.62 253.185 172.017 253.42 172.456 253.483C172.895 253.546 173.342 253.431 173.697 253.165C176.407 251.127 179.771 245.708 180.733 238.655C181.259 234.953 181.031 231.183 180.063 227.572C179.095 223.961 177.408 220.584 175.102 217.645Z" fill="black"/>
</g>
<path d="M117.508 228.07C117.508 221.495 113.174 214.911 104.499 209.896C87.1551 199.831 59.0359 199.831 41.7008 209.896C33.0249 214.928 28.6912 221.487 28.6912 228.07V254.339C28.6912 260.914 33.0249 267.498 41.7008 272.514C59.0442 282.578 87.1635 282.578 104.507 272.514C113.174 267.481 117.508 260.914 117.508 254.339V228.07Z" fill="#37474F"/>
<path d="M41.7008 209.895C33.0249 214.928 28.6912 221.486 28.6912 228.07C28.6912 234.654 33.0249 241.221 41.7008 246.245C59.0442 256.31 87.1635 256.31 104.507 246.245C113.174 241.213 117.508 234.646 117.508 228.07C117.508 221.495 113.174 214.911 104.499 209.895C87.1551 199.856 59.0442 199.856 41.7008 209.895Z" fill="#455A64"/>
<path d="M45.3988 212.596C37.7519 216.865 33.9202 222.468 33.9202 228.07C33.9202 233.673 37.7519 239.267 45.3988 243.544C60.7008 252.091 85.507 252.091 100.801 243.544C108.456 239.267 112.279 233.673 112.279 228.07C112.279 222.468 108.456 216.865 100.801 212.596C85.4986 204.05 60.7008 204.05 45.3988 212.596Z" fill="#263238"/>
<path d="M131.639 223.994V62.4504C131.639 62.4504 131.639 62.4085 131.639 62.3833C131.639 39.8975 105.427 21.6724 73.0746 21.6724C40.722 21.6724 14.5103 39.8975 14.5103 62.3833V224.129C14.5103 246.614 40.7136 264.839 73.0746 264.839C105.436 264.839 131.639 246.614 131.639 224.129C131.639 224.129 131.639 224.07 131.639 224.036C131.639 224.003 131.639 224.011 131.639 223.994Z" fill="#FFE162"/>
<path opacity="0.1" d="M33.9202 216.731V145.441C33.9202 96.6949 34.2047 79.4342 50.5859 81.3884L61.0104 22.5781C34.4807 26.453 14.5688 42.8162 14.5688 62.4168V224.128C14.5688 246.614 40.7722 264.839 73.1332 264.839C79.1226 264.851 85.0953 264.207 90.9451 262.919C46.5199 266.928 33.9202 232.994 33.9202 216.731Z" fill="black"/>
<path d="M37.0995 34.0852C27.1603 39.8387 22.1907 47.3871 22.1907 54.9271C22.1907 62.4671 27.1603 70.0239 37.0995 75.7606C56.9862 87.2677 89.2218 87.2677 109.1 75.7606C119.048 70.0071 124.017 62.4671 124.017 54.9271C124.017 47.3871 119.039 39.8303 109.1 34.0852C89.2218 22.5781 56.9779 22.5781 37.0995 34.0852Z" fill="#FFE162"/>
<path opacity="0.2" d="M37.0995 34.0852C27.1603 39.8387 22.1907 47.3871 22.1907 54.9271C22.1907 62.4671 27.1603 70.0239 37.0995 75.7606C56.9862 87.2677 89.2218 87.2677 109.1 75.7606C119.048 70.0071 124.017 62.4671 124.017 54.9271C124.017 47.3871 119.039 39.8303 109.1 34.0852C89.2218 22.5781 56.9779 22.5781 37.0995 34.0852Z" fill="white"/>
<path d="M117.508 26.5033C117.508 19.9278 113.174 13.3439 104.499 8.32842C87.1551 -1.7361 59.0359 -1.7361 41.7008 8.32842C33.0249 13.3607 28.6912 19.9194 28.6912 26.5033V52.7716C28.6912 59.3471 33.0249 65.931 41.7008 70.9465C59.0442 81.011 87.1635 81.011 104.507 70.9465C113.174 65.9142 117.508 59.3471 117.508 52.7716V26.5033Z" fill="#37474F"/>
<path d="M41.7008 8.32833C33.0249 13.3606 28.6912 19.9193 28.6912 26.5032C28.6912 33.087 33.0249 39.6541 41.7008 44.678C59.0442 54.7425 87.1635 54.7425 104.507 44.678C113.174 39.6457 117.508 33.0787 117.508 26.5032C117.508 19.9277 113.174 13.3438 104.499 8.32833C87.1551 -1.67748 59.0442 -1.67748 41.7008 8.32833Z" fill="#455A64"/>
<path d="M45.3988 11.029C37.7519 15.298 33.9202 20.9006 33.9202 26.5032C33.9202 32.1057 37.7519 37.6999 45.3988 41.9774C60.7008 50.5238 85.507 50.5238 100.801 41.9774C108.456 37.6999 112.279 32.0973 112.279 26.5032C112.279 20.909 108.456 15.298 100.801 11.029C85.4986 2.51606 60.7008 2.51606 45.3988 11.029Z" fill="#263238"/>
<path opacity="0.15" d="M21.1867 134.001C33.1673 134.655 45.1897 132.793 56.7018 129.48C73.903 124.297 90.5604 116.413 104.541 104.998C118.521 93.5833 127.816 76.0374 127.222 57.762C126.912 82.9987 110.288 102.507 89.0795 114.165C73.6436 123.123 56.6767 129.748 39.0237 132.617C33.1291 133.594 27.1611 134.057 21.1867 134.001ZM89.0795 199.068C73.6436 208.025 56.6767 214.651 39.0237 217.519C33.1291 218.496 27.1611 218.959 21.1867 218.903C33.1673 219.557 45.1897 217.696 56.7018 214.383C73.903 209.199 90.5604 201.316 104.541 189.901C118.521 178.486 127.782 160.94 127.222 142.665C126.946 167.901 110.288 187.41 89.0795 199.068ZM22.1907 120.053C25.1245 119.896 28.061 119.659 31.0004 119.34C51.523 117.109 71.6943 109.938 88.1843 97.3323C78.2975 103.688 67.6639 108.793 56.5261 112.53C48.1641 115.271 39.5979 117.341 30.9084 118.719C28.0136 119.248 25.1021 119.608 22.1907 120.053ZM65.9633 153.232C68.7521 152.243 71.5018 151.18 74.2125 150.045C93.2711 142.094 110.598 129.488 122.846 112.714C115.159 121.616 106.403 129.529 96.7765 136.274C89.5316 141.274 81.9027 145.691 73.9616 149.483C71.3262 150.8 68.6322 151.983 65.9633 153.232ZM16.7107 199.831C19.1035 199.915 21.5046 199.94 23.8974 199.881C40.697 199.537 57.5552 195.151 71.8114 186.101C63.3372 190.554 54.3444 193.935 45.0391 196.166C38.0652 197.795 30.9734 198.866 23.8305 199.37C21.5297 199.613 19.1035 199.688 16.7107 199.831ZM65.5283 225.831C57.1752 228.581 48.6174 230.662 39.9357 232.054C37.0409 232.574 34.0792 232.943 31.2096 233.379C34.1545 233.22 37.066 232.994 40.0193 232.675C60.5419 230.444 80.7216 223.273 97.2032 210.667C87.3117 217.025 76.6723 222.13 65.5283 225.865V225.831ZM55.1875 109.561C41.2575 102.406 27.8045 92.0233 21.5799 77.22C20.2179 73.8052 19.3339 70.2178 18.9529 66.56C18.954 69.6628 19.3963 72.7495 20.2664 75.7271C25.1105 91.8471 40.0444 103.589 55.1875 109.561ZM25.9053 139.561C38.1871 162.056 62.6084 180.541 87.0549 187.67L92.5767 189.003C94.4451 189.322 96.3108 189.627 98.1737 189.917C96.3331 189.49 94.4925 189.079 92.6519 188.676L87.2306 187.074C63.0937 179.023 39.5675 161.133 25.9137 139.561H25.9053ZM108.891 178.419L104.248 177.446C82.0016 171.743 59.9061 157.627 45.5829 139.595C58.442 158.65 81.692 173.479 104.147 177.773C105.754 178.033 107.335 178.217 108.899 178.419H108.891ZM122.838 240.265C108.799 237.363 95.806 231.291 83.4573 224.095C94.8021 232.759 108.54 239.133 122.846 240.265H122.838Z" fill="black"/>
</g>
<defs>
<clipPath id="clip0_1341_796">
<rect width="169" height="312" fill="white" transform="translate(14)"/>
</clipPath>
</defs>
</svg>
