<svg width="145" height="268" viewBox="0 0 145 268" fill="none" xmlns="http://www.w3.org/2000/svg">
<g clip-path="url(#clip0_1574_1301)">
<path d="M122.949 221.244C122.453 222.901 121.104 224.436 119.166 225.682L47.606 267.957L124.528 228.794C126.927 227.6 129.527 226.867 132.194 226.633C134.931 226.347 137.579 225.498 139.975 224.14C142.847 222.469 144.39 220.387 144.383 218.55V216.208C143.659 216.001 142.957 215.724 142.287 215.38C138.755 213.334 131.986 213.939 127.177 216.72C124.851 218.081 123.408 219.731 122.949 221.244ZM138.482 217.57C140.471 218.723 139.918 220.92 137.19 222.483C134.462 224.047 130.694 224.385 128.705 223.204C126.717 222.022 127.306 219.854 130.005 218.29C132.704 216.727 136.501 216.446 138.482 217.57Z" fill="#37474F"/>
<path d="M122.949 218.946C122.453 220.603 121.104 222.138 119.166 223.384L47.606 267.957L124.528 226.496C126.924 225.29 129.524 224.544 132.194 224.299C134.929 224.027 137.578 223.191 139.975 221.842C144.785 219.054 145.818 215.128 142.287 213.082C138.755 211.036 131.986 211.641 127.176 214.422C124.851 215.776 123.408 217.397 122.949 218.946ZM138.482 215.301C140.471 216.446 139.918 218.651 137.19 220.214C134.462 221.777 130.694 222.116 128.705 220.934C126.717 219.753 127.306 217.584 130.005 216.021C132.704 214.458 136.501 214.148 138.482 215.301Z" fill="#455A64"/>
<path d="M138.224 186.952C130.048 176.253 117.364 171.102 100.933 167.313V170.267C116.79 173.955 128.332 178.739 135.948 188.702C137.691 190.927 138.968 193.482 139.701 196.215C140.433 198.947 140.607 201.8 140.212 204.602C139.53 209.645 137.219 213.708 135.295 215.157C134.99 215.386 134.789 215.727 134.735 216.105C134.681 216.484 134.779 216.868 135.008 217.174C135.236 217.479 135.576 217.682 135.953 217.736C136.33 217.79 136.713 217.691 137.018 217.462C139.344 215.711 142.229 211.057 143.055 204.998C143.506 201.819 143.31 198.58 142.48 195.479C141.65 192.377 140.202 189.476 138.224 186.952Z" fill="#62B8AF"/>
<path d="M137.822 216.072C137.574 216.075 137.329 216.013 137.112 215.893C136.895 215.773 136.712 215.599 136.582 215.387C136.452 215.175 136.379 214.933 136.37 214.684C136.361 214.436 136.416 214.189 136.53 213.968C139.688 208.003 137.248 202.736 135.46 200.128C131.684 194.509 124.499 190.763 118.728 191.354C118.347 191.395 117.966 191.282 117.667 191.041C117.369 190.8 117.179 190.45 117.138 190.068C117.097 189.686 117.209 189.303 117.449 189.003C117.689 188.704 118.038 188.513 118.419 188.472C125.274 187.751 133.443 191.959 137.843 198.5C141.497 203.932 141.928 209.897 139.064 215.301C138.944 215.529 138.766 215.721 138.548 215.856C138.329 215.992 138.079 216.066 137.822 216.072Z" fill="#62B8AF"/>
<g opacity="0.1">
<path d="M138.224 186.952C130.048 176.253 117.364 171.102 100.933 167.313V170.267C116.79 173.955 128.332 178.739 135.948 188.702C137.691 190.927 138.968 193.482 139.701 196.215C140.433 198.947 140.607 201.8 140.212 204.602C139.53 209.645 137.219 213.708 135.295 215.157C134.99 215.386 134.789 215.727 134.735 216.105C134.681 216.484 134.779 216.868 135.008 217.174C135.236 217.479 135.576 217.682 135.953 217.736C136.33 217.79 136.713 217.691 137.018 217.462C139.344 215.711 142.229 211.057 143.055 204.998C143.506 201.819 143.31 198.58 142.48 195.479C141.65 192.377 140.202 189.476 138.224 186.952Z" fill="black"/>
</g>
<path d="M88.8089 195.906C88.8089 190.258 85.0906 184.603 77.6468 180.295C62.7664 171.65 38.6404 171.65 23.7671 180.295C16.3233 184.617 12.605 190.251 12.605 195.906V218.47C12.605 224.118 16.3233 229.774 23.7671 234.082C38.6475 242.727 62.7735 242.727 77.654 234.082C85.0906 229.759 88.8089 224.118 88.8089 218.47V195.906Z" fill="#37474F"/>
<path d="M23.7671 180.295C16.3233 184.617 12.605 190.251 12.605 195.907C12.605 201.562 16.3233 207.203 23.7671 211.518C38.6475 220.163 62.7735 220.163 77.654 211.518C85.0906 207.196 88.8089 201.555 88.8089 195.907C88.8089 190.258 85.0906 184.603 77.6468 180.295C62.7664 171.671 38.6475 171.671 23.7671 180.295Z" fill="#455A64"/>
<path d="M26.9398 182.615C20.3789 186.282 17.0913 191.094 17.0913 195.906C17.0913 200.719 20.3789 205.524 26.9398 209.198C40.0688 216.54 61.3522 216.54 74.474 209.198C81.042 205.524 84.3225 200.719 84.3225 195.906C84.3225 191.094 81.042 186.282 74.474 182.615C61.345 175.273 40.0688 175.273 26.9398 182.615Z" fill="#263238"/>
<path d="M100.933 192.405V53.643C100.933 53.643 100.933 53.607 100.933 53.5854C100.933 34.2707 78.4436 18.6157 50.6854 18.6157C22.9272 18.6157 0.437866 34.2707 0.437866 53.5854V192.52C0.437866 211.835 22.92 227.49 50.6854 227.49C78.4507 227.49 100.933 211.835 100.933 192.52C100.933 192.52 100.933 192.47 100.933 192.441C100.933 192.412 100.933 192.419 100.933 192.405Z" fill="#62B8AF"/>
<path opacity="0.1" d="M17.0914 186.166V124.93C17.0914 83.0582 17.3354 68.2318 31.3904 69.9104L40.3344 19.3938C17.5723 22.7222 0.488159 36.7778 0.488159 53.6142V192.52C0.488159 211.835 22.9703 227.49 50.7357 227.49C55.8745 227.5 60.999 226.947 66.0181 225.84C27.9018 229.284 17.0914 200.135 17.0914 186.166Z" fill="black"/>
<path d="M19.819 29.2782C11.2913 34.2204 7.02747 40.7042 7.02747 47.1809C7.02747 53.6576 11.2913 60.1487 19.819 65.0764C36.8817 74.9607 64.5393 74.9607 81.5948 65.0764C90.1297 60.1342 94.3935 53.6576 94.3935 47.1809C94.3935 40.7042 90.1225 34.2132 81.5948 29.2782C64.5393 19.3939 36.8745 19.3939 19.819 29.2782Z" fill="#62B8AF"/>
<path opacity="0.2" d="M19.819 29.2782C11.2913 34.2204 7.02747 40.7042 7.02747 47.1809C7.02747 53.6576 11.2913 60.1487 19.819 65.0764C36.8817 74.9607 64.5393 74.9607 81.5948 65.0764C90.1297 60.1342 94.3935 53.6576 94.3935 47.1809C94.3935 40.7042 90.1225 34.2132 81.5948 29.2782C64.5393 19.3939 36.8745 19.3939 19.819 29.2782Z" fill="white"/>
<path d="M88.8089 22.7655C88.8089 17.1173 85.0906 11.462 77.6468 7.15379C62.7664 -1.49137 38.6404 -1.49137 23.7671 7.15379C16.3233 11.4764 12.605 17.1101 12.605 22.7655V45.3294C12.605 50.9776 16.3233 56.6329 23.7671 60.9411C38.6475 69.5863 62.7735 69.5863 77.654 60.9411C85.0906 56.6185 88.8089 50.9776 88.8089 45.3294V22.7655Z" fill="#37474F"/>
<path d="M23.7671 7.15406C16.3233 11.4766 12.605 17.1104 12.605 22.7658C12.605 28.4212 16.3233 34.0621 23.7671 38.3775C38.6475 47.0227 62.7735 47.0227 77.654 38.3775C85.0906 34.0549 88.8089 28.4139 88.8089 22.7658C88.8089 17.1176 85.0906 11.4622 77.6468 7.15406C62.7664 -1.44068 38.6475 -1.44068 23.7671 7.15406Z" fill="#455A64"/>
<path d="M26.9398 9.47353C20.3789 13.1405 17.0913 17.953 17.0913 22.7655C17.0913 27.5779 20.3789 32.3832 26.9398 36.0574C40.0688 43.3986 61.3522 43.3986 74.474 36.0574C81.042 32.3832 84.3225 27.5707 84.3225 22.7655C84.3225 17.9602 81.042 13.1405 74.474 9.47353C61.345 2.16117 40.0688 2.16117 26.9398 9.47353Z" fill="#263238"/>
<path opacity="0.15" d="M6.16603 115.103C16.4452 115.665 26.7603 114.066 36.6376 111.22C51.396 106.768 65.6878 99.9956 77.6826 90.1906C89.6774 80.3855 97.6524 65.3141 97.1428 49.616C96.8772 71.2937 82.6141 88.0509 64.4173 98.0649C51.1735 105.759 36.616 111.45 21.47 113.914C16.4124 114.753 11.292 115.151 6.16603 115.103ZM64.4173 170.994C51.1735 178.688 36.616 184.38 21.47 186.843C16.4124 187.682 11.292 188.08 6.16603 188.032C16.4452 188.594 26.7603 186.995 36.6376 184.149C51.396 179.697 65.6878 172.925 77.6826 163.12C89.6774 153.315 97.6237 138.243 97.1428 122.545C96.9059 144.223 82.6141 160.98 64.4173 170.994ZM7.02743 103.122C9.54459 102.988 12.0641 102.784 14.5861 102.51C32.1943 100.594 49.5009 94.4339 63.6492 83.6059C55.1664 89.0654 46.0429 93.4501 36.4868 96.66C29.3124 99.0147 21.9626 100.793 14.5071 101.977C12.0235 102.431 9.52545 102.74 7.02743 103.122ZM44.5838 131.623C46.9766 130.772 49.3358 129.86 51.6616 128.885C68.0136 122.055 82.8797 111.227 93.3886 96.8185C86.7936 104.465 79.2806 111.262 71.0212 117.055C64.8051 121.351 58.2597 125.145 51.4462 128.402C49.1851 129.533 46.8737 130.549 44.5838 131.623ZM2.32568 171.65C4.37865 171.722 6.4388 171.743 8.49177 171.693C22.9056 171.397 37.3698 167.63 49.6014 159.856C42.3307 163.681 34.6149 166.585 26.6311 168.501C20.6476 169.9 14.5629 170.821 8.43435 171.253C6.46034 171.462 4.37865 171.527 2.32568 171.65ZM44.2106 193.983C37.0437 196.345 29.7013 198.133 22.2524 199.329C19.7688 199.775 17.2277 200.092 14.7655 200.467C17.2923 200.33 19.7903 200.135 22.3242 199.862C39.9324 197.945 57.2462 191.786 71.3873 180.958C62.9005 186.419 53.772 190.804 44.2106 194.012V193.983ZM35.3383 94.1097C23.3866 87.9645 11.844 79.0455 6.50341 66.33C5.33484 63.3967 4.57634 60.3152 4.24946 57.1733C4.25043 59.8385 4.62989 62.4899 5.37643 65.0476C9.53261 78.8942 22.3457 88.9803 35.3383 94.1097ZM10.2146 119.88C20.7522 139.201 41.7054 155.08 62.6801 161.203L67.4178 162.349C69.0209 162.623 70.6216 162.884 72.22 163.134C70.6408 162.767 69.0616 162.414 67.4824 162.068L62.8309 160.692C42.1217 153.776 21.9366 138.409 10.2217 119.88H10.2146ZM81.4153 153.257L77.4314 152.421C58.3445 147.522 39.3868 135.398 27.0977 119.908C38.1306 136.276 58.0789 149.014 77.3452 152.702C78.7235 152.926 80.0801 153.084 81.4225 153.257H81.4153ZM93.3814 206.382C81.3363 203.889 70.1886 198.673 59.5935 192.492C69.3272 199.934 81.1138 205.409 93.3886 206.382H93.3814Z" fill="black"/>
</g>
<defs>
<clipPath id="clip0_1574_1301">
<rect width="145" height="268" fill="white"/>
</clipPath>
</defs>
</svg>
