<svg width="318" height="547" viewBox="0 0 318 547" fill="none" xmlns="http://www.w3.org/2000/svg">
<mask id="mask0_1248_575" style="mask-type:luminance" maskUnits="userSpaceOnUse" x="118" y="123" width="37" height="37">
<path d="M130.679 123.417L154.719 152.379L142.685 159.794L118.645 130.833L130.679 123.417Z" fill="white"/>
</mask>
<g mask="url(#mask0_1248_575)">
<path d="M148.689 156.103L152.704 153.629L149.61 149.901C148.626 146.5 146.207 142.193 142.664 137.925C139.122 133.658 135.173 130.293 131.756 128.392L128.68 124.686L124.987 126.961C124.868 127.014 124.754 127.072 124.645 127.139C121.333 129.18 124.029 137.319 130.668 145.317C137.308 153.316 145.375 158.145 148.687 156.104L148.689 156.103Z" fill="#FF6464"/>
</g>
<mask id="mask1_1248_575" style="mask-type:luminance" maskUnits="userSpaceOnUse" x="122" y="121" width="37" height="37">
<path d="M134.299 121.179L158.339 150.14L146.34 157.534L122.3 128.572L134.299 121.179Z" fill="white"/>
</mask>
<g mask="url(#mask1_1248_575)">
<path d="M152.343 153.845C149.031 155.886 140.963 151.056 134.324 143.058C127.684 135.06 124.988 126.921 128.3 124.88C131.613 122.839 139.68 127.668 146.319 135.666C152.959 143.665 155.656 151.803 152.343 153.845Z" fill="#FF6464"/>
</g>
<path d="M143.934 137.124C148.525 142.655 150.6 148.286 148.988 150.417C149.26 150.358 149.509 150.263 149.729 150.127C152.273 148.559 150.26 142.379 145.233 136.323C140.207 130.268 134.07 126.63 131.526 128.198C131.306 128.333 131.122 128.506 130.969 128.709C133.829 128.082 139.344 131.594 143.934 137.124Z" fill="black"/>
<path d="M137.062 140.698C128.966 131.732 129.896 127.002 129.896 127.002C129.896 127.002 128.656 131.76 136.407 141.102C145.497 152.059 149.781 150.97 149.781 150.97C147.523 151.108 145.158 149.664 137.062 140.698Z" fill="black"/>
<path d="M142.157 137.581C141.766 137.822 140.596 136.991 139.543 135.723C138.49 134.455 137.955 133.232 138.346 132.991C138.736 132.751 139.906 133.582 140.959 134.851C142.011 136.118 142.547 137.341 142.157 137.581Z" fill="black"/>
<path d="M138.792 138.891C138.233 139.236 136.737 138.259 135.45 136.71C134.164 135.16 133.574 133.626 134.133 133.281C134.691 132.937 136.187 133.913 137.474 135.463C138.76 137.013 139.35 138.547 138.792 138.891Z" fill="black"/>
<path d="M146.945 143.361C146.555 143.602 145.352 142.731 144.261 141.417C143.17 140.103 142.602 138.841 142.993 138.601C143.384 138.36 144.585 139.23 145.677 140.544C146.768 141.859 147.336 143.12 146.945 143.361Z" fill="black"/>
<path d="M144.706 146.031C144.147 146.376 142.652 145.399 141.365 143.85C140.078 142.3 139.488 140.765 140.047 140.421C140.606 140.076 142.102 141.053 143.388 142.603C144.675 144.152 145.265 145.687 144.706 146.031Z" fill="black"/>
<path d="M196.522 250.183L199.815 247.594C201.446 249.669 202.778 251.979 203.906 254.03L200.203 256.097C199.075 254.046 197.947 251.995 196.522 250.183ZM203.189 262.982L207.095 261.174C207.924 263.46 208.658 266.24 208.885 268.999L204.871 270.054C204.548 267.789 204.018 265.268 203.189 262.982ZM205.452 277.572L209.874 277.035C210.105 279.791 209.827 282.523 209.555 285.255L205.433 285.557C205.501 282.566 205.683 280.328 205.452 277.572ZM203.998 292.979L208.025 293.171C207.247 295.882 206.473 298.59 205.692 301.298L201.761 300.612C202.539 297.901 203.519 295.455 203.998 292.979ZM198.615 307.703L202.151 309.118C200.871 311.805 199.181 313.971 197.396 316.631L194.257 314.484C195.646 312.55 197.132 310.125 198.615 307.703ZM148.158 351.969L150.402 354.824C148.006 356.707 146.113 358.614 144.219 360.521L141.676 357.901C143.57 355.994 145.762 353.852 148.158 351.969ZM155.044 346.558C157.44 344.675 159.74 343.286 162.132 341.406L164.077 344.496C161.78 345.882 159.384 347.765 157.287 349.413L155.044 346.558ZM188.689 320.955L191.53 323.34C189.637 325.247 187.444 327.389 185.052 329.269L182.508 326.655C184.904 324.772 186.798 322.865 188.689 320.955ZM169.132 336.748C171.229 335.1 173.825 333.479 175.922 331.831L178.163 334.683C175.767 336.566 173.47 337.952 171.074 339.835L169.132 336.748ZM135.608 364.351L138.447 366.733C136.76 368.902 135.07 371.068 133.587 373.49L130.146 371.581C131.63 369.153 133.415 366.493 135.608 364.351ZM126.1 379.374L129.938 380.557C128.954 383.006 128.475 385.482 128 387.955L123.974 387.763C124.249 385.028 124.819 382.061 126.1 379.374ZM123.655 395.983L127.873 395.187C128.196 397.452 128.726 399.973 129.256 402.494L125.142 404.046C124.413 401.263 123.679 398.483 123.655 395.983ZM128.132 410.928L131.832 408.858C132.96 410.909 134.089 412.96 135.42 415.27L131.924 417.599C130.592 415.289 129.26 412.979 128.132 410.928ZM139.905 420.977C140.925 422.275 141.945 423.573 142.963 424.868L144.594 426.943L141.301 429.531L139.67 427.456C138.652 426.161 137.836 425.122 136.816 423.824L139.905 420.977ZM149.378 432.415L150.601 433.972C151.825 435.529 153.049 437.086 154.069 438.384L150.776 440.972C149.552 439.415 148.532 438.117 147.308 436.56L146.291 435.265L149.378 432.415ZM154.357 447.383L158.064 445.314C159.392 447.627 160.424 450.172 161.253 452.458L157.347 454.265C156.614 451.485 155.485 449.434 154.357 447.383ZM159.125 460.844L163.139 459.789C163.043 460.283 163.247 460.541 163.355 461.294C163.681 463.556 163.502 465.797 163.323 468.032L159.201 468.334C159.379 466.1 159.26 464.094 159.137 462.09C159.233 461.596 159.029 461.337 159.125 460.844ZM157.972 476.018L162.202 476.469C161.424 479.18 160.647 481.885 159.367 484.572L155.529 483.389C156.513 480.94 157.291 478.229 157.972 476.018ZM152.083 490.715L155.62 492.13C154.435 494.323 153.156 497.004 151.373 499.667L147.63 497.99C149.619 495.589 151.103 493.161 152.083 490.715ZM143.476 505.03L146.916 506.945L142.26 513.961L138.82 512.046L143.476 505.03ZM134.166 519.066L137.603 520.977C136.117 523.402 134.429 525.571 132.947 527.993L129.207 526.319C130.989 523.656 132.679 521.49 134.166 519.066ZM125.256 533.618L128.793 535.033C127.512 537.72 126.325 539.91 125.347 542.359L121.715 541.438C122.696 538.986 123.674 536.537 125.256 533.618Z" fill="#FF6464"/>
<mask id="mask2_1248_575" style="mask-type:luminance" maskUnits="userSpaceOnUse" x="183" y="245" width="46" height="40">
<path d="M183.834 269.59L221.608 245.763L228.48 261.062L190.706 284.889L183.834 269.59Z" fill="white"/>
</mask>
<g mask="url(#mask2_1248_575)">
<path d="M225.061 253.429L222.768 248.325L217.906 251.392C213.754 252.026 208.314 254.209 202.748 257.721C197.181 261.232 192.615 265.36 189.852 269.088L185.019 272.137L187.127 276.831C187.171 276.979 187.222 277.122 187.284 277.261C189.176 281.472 199.166 279.552 209.598 272.972C220.03 266.391 226.954 257.642 225.062 253.431L225.061 253.429Z" fill="#FF6464"/>
</g>
<mask id="mask3_1248_575" style="mask-type:luminance" maskUnits="userSpaceOnUse" x="181" y="241" width="46" height="40">
<path d="M181.757 264.985L219.531 241.158L226.384 256.413L188.61 280.24L181.757 264.985Z" fill="white"/>
</mask>
<g mask="url(#mask3_1248_575)">
<path d="M222.967 248.783C224.858 252.994 217.935 261.743 207.503 268.324C197.071 274.904 187.08 276.824 185.189 272.613C183.297 268.401 190.22 259.653 200.652 253.073C211.085 246.492 221.075 244.571 222.967 248.783Z" fill="#FF6464"/>
</g>
<path d="M202 256.103C209.214 251.553 216.159 249.978 218.418 252.202C218.39 251.873 218.316 251.566 218.191 251.286C216.737 248.051 209.157 249.469 201.258 254.451C193.36 259.433 188.135 266.093 189.589 269.328C189.715 269.608 189.889 269.851 190.105 270.062C189.807 266.601 194.787 260.653 202 256.103Z" fill="black"/>
<path d="M205.636 264.175C193.842 272.321 188.419 270.499 188.419 270.499C188.419 270.499 193.827 272.69 206.011 265.008C220.301 255.999 219.679 250.792 219.679 250.792C219.494 253.47 217.431 256.03 205.636 264.175Z" fill="black"/>
<path d="M202.264 258.265C202.487 258.762 201.329 260.011 199.676 261.054C198.022 262.097 196.5 262.539 196.277 262.043C196.054 261.546 197.213 260.298 198.867 259.254C200.52 258.211 202.041 257.769 202.264 258.265Z" fill="black"/>
<path d="M202.264 258.265C202.487 258.762 201.329 260.011 199.676 261.054C198.022 262.097 196.5 262.539 196.277 262.043C196.054 261.546 197.213 260.298 198.867 259.254C200.52 258.211 202.041 257.769 202.264 258.265Z" fill="black"/>
<path d="M209.519 254.347C209.742 254.843 208.584 256.092 206.931 257.135C205.277 258.179 203.755 258.621 203.532 258.124C203.309 257.628 204.468 256.379 206.122 255.336C207.775 254.293 209.296 253.85 209.519 254.347Z" fill="black"/>
<path d="M203.289 262.426C203.608 263.137 202.229 264.746 200.208 266.021C198.187 267.297 196.29 267.755 195.971 267.044C195.652 266.334 197.031 264.725 199.052 263.449C201.073 262.174 202.97 261.716 203.289 262.426Z" fill="black"/>
<path d="M213.155 256.723C213.474 257.434 212.095 259.043 210.074 260.319C208.053 261.594 206.156 262.052 205.837 261.341C205.518 260.632 206.897 259.022 208.918 257.747C210.939 256.471 212.836 256.013 213.155 256.723Z" fill="black"/>
<mask id="mask4_1248_575" style="mask-type:luminance" maskUnits="userSpaceOnUse" x="138" y="454" width="43" height="24">
<path d="M143.811 454.042L180.025 464.3L174.305 477.226L138.091 466.968L143.811 454.042Z" fill="white"/>
</mask>
<g mask="url(#mask4_1248_575)">
<path d="M177.164 470.784L179.072 466.471L174.411 465.151C171.674 462.905 167.241 460.725 161.905 459.213C156.568 457.702 151.408 457.165 147.515 457.533L142.881 456.22L141.126 460.186C141.058 460.297 140.997 460.41 140.945 460.527C139.371 464.085 146.202 469.266 156.203 472.099C166.205 474.932 175.589 474.344 177.163 470.786L177.164 470.784Z" fill="#FF6464"/>
</g>
<mask id="mask5_1248_575" style="mask-type:luminance" maskUnits="userSpaceOnUse" x="139" y="450" width="43" height="24">
<path d="M145.526 450.146L181.741 460.404L176.038 473.293L139.823 463.035L145.526 450.146Z" fill="white"/>
</mask>
<g mask="url(#mask5_1248_575)">
<path d="M178.897 466.853C177.322 470.411 167.938 470.999 157.936 468.166C147.935 465.333 141.104 460.152 142.678 456.594C144.253 453.035 153.637 452.448 163.638 455.281C173.64 458.114 180.471 463.294 178.897 466.853Z" fill="#FF6464"/>
</g>
<path d="M162.497 457.833C169.413 459.791 174.312 463.258 174.19 465.927C174.381 465.724 174.532 465.505 174.637 465.268C175.846 462.535 170.687 458.582 163.115 456.437C155.543 454.292 148.425 454.768 147.216 457.502C147.111 457.738 147.057 457.985 147.046 458.239C149.048 456.102 155.582 455.874 162.497 457.833Z" fill="black"/>
<path d="M159.485 464.659C147.735 461.854 145.823 457.428 145.823 457.428C145.823 457.428 147.496 462.052 159.174 465.363C172.871 469.246 175.785 465.923 175.785 465.923C174.002 467.316 171.235 467.464 159.485 464.659Z" fill="black"/>
<path d="M161.291 459.217C161.105 459.637 159.67 459.614 158.085 459.165C156.499 458.716 155.365 458.011 155.551 457.592C155.736 457.172 157.171 457.195 158.757 457.644C160.342 458.093 161.476 458.797 161.291 459.217Z" fill="black"/>
<path d="M159.26 462.202C158.994 462.803 157.208 462.845 155.27 462.296C153.332 461.748 151.977 460.817 152.243 460.216C152.508 459.616 154.294 459.574 156.232 460.123C158.17 460.672 159.525 461.603 159.26 462.202Z" fill="black"/>
<path d="M168.511 461.268C168.325 461.688 166.841 461.652 165.198 461.186C163.554 460.721 162.372 460.003 162.558 459.583C162.743 459.163 164.227 459.2 165.87 459.665C167.514 460.131 168.696 460.849 168.511 461.268Z" fill="black"/>
<path d="M168.178 464.737C167.912 465.338 166.127 465.38 164.189 464.831C162.251 464.283 160.895 463.352 161.161 462.751C161.426 462.152 163.212 462.11 165.15 462.658C167.088 463.207 168.443 464.138 168.178 464.737Z" fill="black"/>
<path d="M117.111 7.50905L118.281 4.20943C120.36 4.94669 122.333 5.98358 124.046 6.92846L122.354 10.0429C120.641 9.09804 118.927 8.15316 117.111 7.50905ZM127.54 13.5725L129.491 10.5501C131.098 11.7946 132.859 13.4307 134.252 15.2782L131.888 17.817C130.647 16.3611 129.147 14.817 127.54 13.5725ZM135.657 22.8683L138.541 20.5135C139.935 22.3573 140.959 24.4112 141.988 26.4626L139.211 28.5177C137.923 26.3744 137.052 24.7121 135.657 22.8683ZM141.513 34.4021L144.444 32.7386C145.105 35.0013 145.768 37.2603 146.427 39.5218L143.343 40.7937C142.682 38.531 142.281 36.3651 141.513 34.4021ZM144.289 47.2088L147.42 46.6283C147.716 49.0986 147.489 51.3837 147.417 54.0605L144.24 53.9461C144.357 51.9594 144.324 49.5823 144.289 47.2088ZM128.422 101.023L131.283 102.038C130.432 104.439 129.946 106.632 129.46 108.825L126.493 108.11C126.979 105.917 127.571 103.424 128.422 101.023ZM130.869 94.1246C131.72 91.7239 132.725 89.7148 133.575 87.3178L136.329 88.6318C135.326 90.6372 134.474 93.038 133.729 95.1391L130.869 94.1246ZM143.197 61.0054L146.271 61.4206C145.785 63.6137 145.193 66.1065 144.343 68.5035L141.378 67.7935C142.229 65.3928 142.715 63.1997 143.197 61.0054ZM136.438 80.9C137.183 78.7989 138.293 76.4939 139.038 74.3928L141.895 75.4061C141.044 77.8068 140.041 79.8122 139.19 82.2129L136.438 80.9ZM125.088 115.378L128.158 115.792C127.935 118.078 127.709 120.364 127.744 122.737L124.46 122.926C124.423 120.548 124.496 117.871 125.088 115.378ZM125.083 130.239L128.323 129.36C128.723 131.529 129.491 133.492 130.26 135.452L127.33 137.115C126.302 135.06 125.379 132.709 125.083 130.239ZM130.777 143.064L133.401 140.618C134.641 142.073 136.142 143.618 137.643 145.162L135.43 148.096C133.671 146.456 131.911 144.82 130.777 143.064ZM140.617 151.622L142.306 148.506C144.02 149.451 145.733 150.396 147.706 151.433L146.276 154.64C144.303 153.603 142.33 152.567 140.617 151.622ZM153.424 153.461C154.724 153.922 156.025 154.383 157.322 154.843L159.401 155.58L158.231 158.88L156.152 158.143C154.855 157.683 153.814 157.313 152.513 156.852L153.424 153.461ZM165.226 157.308L166.786 157.862C168.346 158.415 169.906 158.968 171.207 159.429L170.037 162.729C168.477 162.176 167.176 161.714 165.616 161.161L164.318 160.701L165.226 157.308ZM175.431 165.658L177.125 162.54C179.097 163.581 180.963 164.917 182.57 166.162L180.618 169.184C178.858 167.548 177.145 166.603 175.431 165.658ZM184.813 173.037L187.177 170.498C187.331 170.89 187.59 170.982 188.003 171.465C189.244 172.917 190.119 174.581 190.991 176.24L188.214 178.295C187.341 176.636 186.361 175.272 185.379 173.912C185.226 173.521 184.966 173.428 184.813 173.037ZM190.779 184.272L193.968 182.701C194.63 184.963 195.29 187.221 195.586 189.692L192.346 190.571C191.947 188.401 191.285 186.138 190.779 184.272ZM193.185 197.285L196.316 196.705C196.459 198.783 196.753 201.249 196.683 203.927L193.29 204.414C193.622 201.83 193.586 199.451 193.185 197.285ZM193.501 211.244L196.786 211.059L196.632 218.096L193.346 218.28L193.501 211.244ZM193.194 225.318L196.477 225.133C196.51 227.51 196.287 229.797 196.322 232.17L192.932 232.659C193.001 229.981 193.228 227.696 193.194 225.318ZM193.402 239.58L196.533 238.999C196.829 241.47 196.968 243.547 197.372 245.714L194.395 246.686C193.992 244.516 193.589 242.349 193.402 239.58Z" fill="#FF6464"/>
</svg>
