<svg width="277" height="434" viewBox="0 0 277 434" fill="none" xmlns="http://www.w3.org/2000/svg">
<path d="M6.25044 67.5159L4.82928 63.6483C7.26623 62.7528 9.83223 62.2086 12.0941 61.7761L12.9032 65.8686C10.6413 66.3011 8.37949 66.7336 6.25044 67.5159ZM20.2526 65.1662L19.7476 60.9619C22.1385 60.8806 24.9627 61.0388 27.6133 61.6643L27.3809 65.7409C25.1635 65.3549 22.6435 65.0849 20.2526 65.1662ZM34.5921 67.481L35.4328 63.1809C38.0818 63.802 40.5536 64.8918 43.0275 65.976L42.0577 69.9249C39.2797 68.9525 37.2411 68.1021 34.5921 67.481ZM48.5665 73.5226L49.9694 69.8131C52.2698 71.3645 54.5686 72.9116 56.8653 74.4644L55.0291 77.9344C52.7287 76.383 50.7378 74.7228 48.5665 73.5226ZM60.7084 83.0328L63.1068 80.1534C65.2321 82.1678 66.7453 84.4071 68.6918 86.8859L65.7296 89.1702C64.3416 87.2835 62.5242 85.156 60.7084 83.0328ZM86.7995 143.693L90.1527 142.461C91.1867 145.275 92.3958 147.626 93.6049 149.977L90.3808 151.56C89.1717 149.209 87.8336 146.507 86.7995 143.693ZM83.8282 135.607C82.7942 132.793 82.1934 130.218 81.1609 127.408L84.6432 126.527C85.2424 129.098 86.2764 131.912 87.1813 134.375L83.8282 135.607ZM70.0926 96.3467L73.1877 94.4122C74.3968 96.7632 75.7349 99.4655 76.7674 102.275L73.5486 103.861C72.5146 101.047 71.3055 98.6964 70.0926 96.3467ZM78.9291 119.444C78.0241 116.981 77.2959 114.06 76.3909 111.597L79.7403 110.366C80.7743 113.18 81.3735 115.75 82.4075 118.564L78.9291 119.444ZM94.5725 159.199L97.6638 157.265C99.1808 159.503 100.694 161.743 102.51 163.866L99.6783 166.506C97.8571 164.38 95.9107 161.901 94.5725 159.199ZM105.741 172.659L108.014 169.427C110.007 171.092 112.178 172.292 114.348 173.488L112.945 177.197C110.469 176.109 107.866 174.674 105.741 172.659ZM120.539 179.992L121.076 175.804C123.293 176.19 125.813 176.46 128.333 176.73L128.536 181.05C125.71 180.888 122.886 180.73 120.539 179.992ZM135.883 180.344L135.071 176.252C137.332 175.82 139.594 175.387 142.16 174.843L143.277 178.823C140.711 179.367 138.145 179.911 135.883 180.344ZM148.863 172.38C150.387 171.82 151.912 171.26 153.433 170.701L155.87 169.806L157.291 173.673L154.854 174.569C153.333 175.128 152.113 175.576 150.588 176.136L148.863 172.38ZM162.443 166.992L164.272 166.32C166.1 165.648 167.929 164.976 169.454 164.416L170.875 168.283C169.046 168.955 167.522 169.515 165.693 170.187L164.172 170.746L162.443 166.992ZM177.962 166.88L177.152 162.783C179.719 162.243 182.414 162.05 184.805 161.969L185.31 166.173C182.486 166.015 180.224 166.447 177.962 166.88ZM192.005 166.508L192.238 162.432C192.671 162.671 192.975 162.559 193.712 162.687C195.928 163.069 197.97 163.918 200.007 164.764L199.038 168.713C197.001 167.867 195.087 167.369 193.176 166.875C192.742 166.636 192.438 166.748 192.005 166.508ZM205.854 172.197L207.561 168.376C209.862 169.928 212.157 171.476 214.282 173.49L212.009 176.722C210.016 175.058 207.716 173.506 205.854 172.197ZM217.817 182.172L220.216 179.293C221.908 181.067 224.028 183.079 225.978 185.556L223.272 188.549C221.629 185.958 219.808 183.832 217.817 182.172ZM228.597 194.574L231.434 191.937L236.584 198.426L233.747 201.063L228.597 194.574ZM238.901 207.55L241.734 204.915C243.552 207.042 245.069 209.28 246.885 211.403L244.182 214.395C242.232 211.917 240.719 209.678 238.901 207.55ZM249.811 220.308L252.21 217.429C254.335 219.443 256.024 221.22 258.018 222.879L256.053 225.997C254.057 224.334 252.062 222.675 249.811 220.308Z" fill="white"/>
<path d="M6.25044 67.5159L4.82928 63.6483C7.26623 62.7528 9.83223 62.2086 12.0941 61.7761L12.9032 65.8686C10.6413 66.3011 8.37949 66.7336 6.25044 67.5159ZM20.2526 65.1662L19.7476 60.9619C22.1385 60.8806 24.9627 61.0388 27.6133 61.6643L27.3809 65.7409C25.1635 65.3549 22.6435 65.0849 20.2526 65.1662ZM34.5921 67.481L35.4328 63.1809C38.0818 63.802 40.5536 64.8918 43.0275 65.976L42.0577 69.9249C39.2797 68.9525 37.2411 68.1021 34.5921 67.481ZM48.5665 73.5226L49.9694 69.8131C52.2698 71.3645 54.5686 72.9116 56.8653 74.4644L55.0291 77.9344C52.7287 76.383 50.7378 74.7228 48.5665 73.5226ZM60.7084 83.0328L63.1068 80.1534C65.2321 82.1678 66.7453 84.4071 68.6918 86.8859L65.7296 89.1702C64.3416 87.2835 62.5242 85.156 60.7084 83.0328ZM86.7995 143.693L90.1527 142.461C91.1867 145.275 92.3958 147.626 93.6049 149.977L90.3808 151.56C89.1717 149.209 87.8336 146.507 86.7995 143.693ZM83.8282 135.607C82.7942 132.793 82.1934 130.218 81.1609 127.408L84.6432 126.527C85.2424 129.098 86.2764 131.912 87.1813 134.375L83.8282 135.607ZM70.0926 96.3467L73.1877 94.4122C74.3968 96.7632 75.7349 99.4655 76.7674 102.275L73.5486 103.861C72.5146 101.047 71.3055 98.6964 70.0926 96.3467ZM78.9291 119.444C78.0241 116.981 77.2959 114.06 76.3909 111.597L79.7403 110.366C80.7743 113.18 81.3735 115.75 82.4075 118.564L78.9291 119.444ZM94.5725 159.199L97.6638 157.265C99.1808 159.503 100.694 161.743 102.51 163.866L99.6783 166.506C97.8571 164.38 95.9107 161.901 94.5725 159.199ZM105.741 172.659L108.014 169.427C110.007 171.092 112.178 172.292 114.348 173.488L112.945 177.197C110.469 176.109 107.866 174.674 105.741 172.659ZM120.539 179.992L121.076 175.804C123.293 176.19 125.813 176.46 128.333 176.73L128.536 181.05C125.71 180.888 122.886 180.73 120.539 179.992ZM135.883 180.344L135.071 176.252C137.332 175.82 139.594 175.387 142.16 174.843L143.277 178.823C140.711 179.367 138.145 179.911 135.883 180.344ZM148.863 172.38C150.387 171.82 151.912 171.26 153.433 170.701L155.87 169.806L157.291 173.673L154.854 174.569C153.333 175.128 152.113 175.576 150.588 176.136L148.863 172.38ZM162.443 166.992L164.272 166.32C166.1 165.648 167.929 164.976 169.454 164.416L170.875 168.283C169.046 168.955 167.522 169.515 165.693 170.187L164.172 170.746L162.443 166.992ZM177.962 166.88L177.152 162.783C179.719 162.243 182.414 162.05 184.805 161.969L185.31 166.173C182.486 166.015 180.224 166.447 177.962 166.88ZM192.005 166.508L192.238 162.432C192.671 162.671 192.975 162.559 193.712 162.687C195.928 163.069 197.97 163.918 200.007 164.764L199.038 168.713C197.001 167.867 195.087 167.369 193.176 166.875C192.742 166.636 192.438 166.748 192.005 166.508ZM205.854 172.197L207.561 168.376C209.862 169.928 212.157 171.476 214.282 173.49L212.009 176.722C210.016 175.058 207.716 173.506 205.854 172.197ZM217.817 182.172L220.216 179.293C221.908 181.067 224.028 183.079 225.978 185.556L223.272 188.549C221.629 185.958 219.808 183.832 217.817 182.172ZM228.597 194.574L231.434 191.937L236.584 198.426L233.747 201.063L228.597 194.574ZM238.901 207.55L241.734 204.915C243.552 207.042 245.069 209.28 246.885 211.403L244.182 214.395C242.232 211.917 240.719 209.678 238.901 207.55ZM249.811 220.308L252.21 217.429C254.335 219.443 256.024 221.22 258.018 222.879L256.053 225.997C254.057 224.334 252.062 222.675 249.811 220.308Z" fill="white"/>
<path d="M256.709 231.505L260.814 231.15C261.038 233.737 260.888 236.356 260.711 238.652L256.55 238.357C256.727 236.061 256.904 233.765 256.709 231.505ZM255.295 245.632L259.485 246.25C258.935 248.578 258.04 251.262 256.739 253.655L252.867 252.359C253.823 250.321 254.745 247.96 255.295 245.632ZM249.293 258.859L253.221 260.8C251.925 263.193 250.224 265.291 248.527 267.393L244.972 265.42C246.641 262.995 247.997 261.252 249.293 258.859ZM239.79 270.754L243 273.082C240.899 274.894 238.802 276.705 236.7 278.513L233.835 275.829C235.936 274.018 238.061 272.533 239.79 270.754ZM227.423 279.969L229.57 283.04C227.068 284.561 224.51 285.432 221.607 286.659L220.181 283.2C222.366 282.357 224.897 281.163 227.423 279.969ZM162.037 289.197L162.345 292.756C159.358 293.014 156.771 293.562 154.185 294.111L153.505 290.584C156.091 290.035 159.05 289.455 162.037 289.197ZM170.62 288.456C173.607 288.198 176.249 288.295 179.231 288.037L179.166 291.629C176.529 291.531 173.542 291.789 170.928 292.015L170.62 288.456ZM212.11 285.523L213.163 289.018C210.577 289.566 207.618 290.147 204.636 290.405L203.951 286.882C206.938 286.624 209.524 286.076 212.11 285.523ZM187.503 287.977C190.117 287.752 193.127 287.817 195.741 287.591L196.048 291.146C193.061 291.404 190.424 291.307 187.437 291.565L187.503 287.977ZM145.034 292.621L146.086 296.111C143.528 296.987 140.97 297.858 138.444 299.052L136.641 295.626C139.172 294.428 142.075 293.201 145.034 292.621ZM129.111 299.858L131.632 302.901C129.502 304.386 127.773 306.165 126.049 307.944L122.839 305.615C124.54 303.513 126.609 301.379 129.111 299.858ZM118.145 312.208L122.045 313.827C121.09 315.865 120.167 318.225 119.244 320.586L115.023 319.645C115.922 316.962 116.817 314.278 118.145 312.208ZM113.773 326.92L117.934 327.212C117.757 329.508 117.58 331.804 117.43 334.422L113.297 334.454C113.447 331.835 113.596 329.216 113.773 326.92ZM118.045 341.537C118.184 343.155 118.324 344.773 118.463 346.387L118.687 348.974L114.582 349.328L114.358 346.742C114.219 345.127 114.107 343.832 113.967 342.214L118.045 341.537ZM119.674 356.056L119.842 357.997C120.009 359.938 120.177 361.879 120.316 363.497L116.211 363.851C116.044 361.91 115.904 360.292 115.736 358.351L115.597 356.737L119.674 356.056ZM115.702 371.059L119.868 371.353C119.714 373.972 119.192 376.623 118.642 378.952L114.453 378.334C115.348 375.651 115.525 373.355 115.702 371.059ZM112.369 384.705L116.242 386.001C115.897 386.356 115.925 386.679 115.608 387.357C114.657 389.394 113.301 391.142 111.949 392.884L108.394 390.911C109.746 389.168 110.729 387.453 111.707 385.738C112.052 385.383 112.025 385.06 112.369 384.705ZM103.24 396.572L106.478 399.223C104.377 401.035 102.279 402.842 99.7771 404.363L97.2563 401.321C99.3861 399.836 101.488 398.024 103.24 396.572ZM90.4716 405.492L92.6192 408.563C90.4619 409.729 87.9639 411.246 85.061 412.476L82.8852 409.078C85.8163 408.175 88.3464 406.977 90.4716 405.492ZM75.6716 412.633L77.4701 416.063L69.8558 419.326L68.0573 415.896L75.6716 412.633ZM60.4434 419.163L62.2415 422.59C59.7111 423.784 57.1531 424.659 54.6272 425.853L52.4517 422.459C55.3546 421.229 57.9129 420.358 60.4434 419.163ZM45.266 426.336L47.4136 429.407C44.9114 430.928 42.7537 432.09 40.6289 433.579L38.1364 430.863C40.2658 429.374 42.3906 427.886 45.266 426.336Z" fill="white"/>
<mask id="mask0_1065_1290" style="mask-type:luminance" maskUnits="userSpaceOnUse" x="24" y="32" width="34" height="78">
<path d="M57.9377 38.6133L48.0888 109.809L24.1078 104.034L33.9567 32.8375L57.9377 38.6133Z" fill="white"/>
</mask>
<g mask="url(#mask0_1065_1290)">
<path d="M36.0628 106.928L44.0636 108.855L45.3314 99.6902C48.6575 93.7573 51.486 84.6947 52.9374 74.203C54.3886 63.712 54.1691 53.915 52.646 46.8145L53.9063 37.7036L46.5484 35.9315C46.338 35.8465 46.1265 35.775 45.9089 35.7226C39.3085 34.133 31.7519 48.7831 29.0319 68.4455C26.3118 88.1085 29.4585 105.337 36.0589 106.927L36.0628 106.928Z" fill="#FF6464"/>
</g>
<mask id="mask1_1065_1290" style="mask-type:luminance" maskUnits="userSpaceOnUse" x="31" y="34" width="35" height="78">
<path d="M65.1453 40.3457L55.2962 111.542L31.3849 105.784L41.2339 34.5868L65.1453 40.3457Z" fill="white"/>
</mask>
<g mask="url(#mask1_1065_1290)">
<path d="M43.3356 108.677C36.7352 107.087 33.588 89.858 36.3081 70.195C39.0281 50.5326 46.5853 35.8826 53.1857 37.4723C59.7878 39.0624 62.9335 56.2902 60.2135 75.9525C57.4934 95.6156 49.9377 110.267 43.3356 108.677Z" fill="#FF6464"/>
</g>
<path d="M55.4736 74.7973C53.5874 88.3923 48.5883 98.8029 43.8591 99.5767C44.2596 99.8548 44.68 100.054 45.1204 100.16C50.2089 101.383 56.0062 90.3078 58.0715 75.4219C60.1368 60.5366 57.6881 47.4785 52.5995 46.2552C52.1591 46.1493 51.7122 46.141 51.2628 46.2155C55.4792 49.1374 57.3598 61.2027 55.4736 74.7973Z" fill="black"/>
<path d="M42.8094 71.753C45.0878 48.8444 52.457 43.6299 52.457 43.6299C52.457 43.6299 44.6837 48.4727 41.4974 71.4376C37.7602 98.3732 44.2822 102.549 44.2822 102.549C41.4218 99.7537 40.5308 94.6624 42.8094 71.753Z" fill="#FF6464"/>
<path d="M52.7597 73.066C51.9785 72.8782 51.6945 70.2005 52.1267 67.0853C52.5592 63.9684 53.5439 61.5958 54.3251 61.7836C55.1055 61.9712 55.3889 64.6487 54.9564 67.7656C54.5242 70.8808 53.5401 73.2536 52.7597 73.066Z" fill="black"/>
<path d="M47.072 70.4031C45.9545 70.1344 45.4781 66.8308 46.0065 63.0223C46.5349 59.2137 47.8678 56.3448 48.9853 56.6134C50.1006 56.8816 50.5774 60.1855 50.049 63.9941C49.5205 67.8027 48.1874 70.6712 47.072 70.4031Z" fill="black"/>
<path d="M50.7889 87.2729C50.0077 87.0851 49.7368 84.3131 50.1851 81.082C50.6332 77.8518 51.631 75.3848 52.4123 75.5726C53.1926 75.7602 53.463 78.5321 53.0148 81.7622C52.5665 84.9934 51.5693 87.4605 50.7889 87.2729Z" fill="black"/>
<path d="M44.6372 87.9529C43.5197 87.6842 43.0432 84.3808 43.5716 80.5724C44.1 76.764 45.433 73.8946 46.5504 74.1632C47.6658 74.4314 48.1425 77.7359 47.6141 81.5442C47.0857 85.3526 45.7526 88.221 44.6372 87.9529Z" fill="black"/>
<mask id="mask2_1065_1290" style="mask-type:luminance" maskUnits="userSpaceOnUse" x="119" y="269" width="78" height="56">
<path d="M133.882 269.34L196.726 304.219L182.685 324.499L119.841 289.62L133.882 269.34Z" fill="white"/>
</mask>
<g mask="url(#mask2_1065_1290)">
<path d="M189.699 314.395L194.383 307.628L186.294 303.139C181.961 297.896 174.53 291.987 165.269 286.847C156.009 281.708 146.793 278.377 139.621 277.235L131.579 272.772L127.271 278.994C127.116 279.16 126.973 279.331 126.845 279.515C122.981 285.097 133.917 297.431 151.272 307.064C168.629 316.697 185.832 319.98 189.696 314.398L189.699 314.395Z" fill="#FF6464"/>
</g>
<mask id="mask3_1065_1290" style="mask-type:luminance" maskUnits="userSpaceOnUse" x="124" y="263" width="77" height="56">
<path d="M138.099 263.243L200.944 298.122L186.944 318.344L124.099 283.465L138.099 263.243Z" fill="white"/>
</mask>
<g mask="url(#mask3_1065_1290)">
<path d="M193.955 308.243C190.09 313.824 172.887 310.542 155.53 300.909C138.174 291.277 127.239 278.942 131.104 273.36C134.969 267.776 152.171 271.06 169.527 280.692C186.883 290.325 197.82 302.659 193.955 308.243Z" fill="#FF6464"/>
</g>
<path d="M166.738 284.696C178.737 291.361 186.642 299.781 185.657 304.47C186.06 304.197 186.398 303.877 186.656 303.504C189.633 299.2 181.396 289.797 168.259 282.499C155.122 275.201 142.06 272.772 139.083 277.076C138.825 277.449 138.656 277.862 138.563 278.308C142.81 275.431 154.741 278.031 166.738 284.696Z" fill="black"/>
<path d="M159.329 295.408C138.786 285.016 136.583 276.261 136.583 276.261C136.583 276.261 138.294 285.259 158.561 296.518C182.333 309.724 188.581 305.148 188.581 305.148C184.942 306.807 179.872 305.801 159.329 295.408Z" fill="#FF6464"/>
<path d="M164.144 286.602C163.687 287.263 161.088 286.561 158.338 285.034C155.588 283.506 153.73 281.731 154.187 281.07C154.644 280.41 157.243 281.112 159.994 282.64C162.743 284.168 164.601 285.942 164.144 286.602Z" fill="black"/>
<path d="M159.608 290.946C158.955 291.891 155.702 291.143 152.34 289.276C148.979 287.408 146.785 285.13 147.439 284.185C148.091 283.241 151.344 283.989 154.706 285.856C158.067 287.724 160.261 290.002 159.608 290.946Z" fill="black"/>
<path d="M176.683 293.568C176.226 294.229 173.543 293.481 170.691 291.897C167.841 290.313 165.9 288.492 166.357 287.831C166.814 287.171 169.496 287.92 172.347 289.503C175.198 291.087 177.139 292.908 176.683 293.568Z" fill="black"/>
<path d="M175.097 299.55C174.443 300.495 171.191 299.747 167.83 297.88C164.469 296.013 162.273 293.734 162.927 292.789C163.58 291.846 166.834 292.594 170.195 294.461C173.556 296.328 175.75 298.606 175.097 299.55Z" fill="black"/>
</svg>
