<svg width="296" height="503" viewBox="0 0 296 503" fill="none" xmlns="http://www.w3.org/2000/svg">
<mask id="mask0_1113_2164" style="mask-type:luminance" maskUnits="userSpaceOnUse" x="54" y="255" width="73" height="63">
<path d="M54.8828 295.33L114.792 255.621L126.323 277.426L66.4143 317.135L54.8828 295.33Z" fill="white"/>
</mask>
<g mask="url(#mask0_1113_2164)">
<path d="M120.586 266.546L116.739 259.271L109.027 264.383C102.377 265.813 93.7098 269.687 84.8814 275.538C76.0536 281.389 68.8515 288.035 64.534 293.874L56.8675 298.955L60.4056 305.646C60.481 305.86 60.5674 306.066 60.672 306.263C63.8459 312.265 79.8314 308.241 96.3766 297.275C112.922 286.308 123.762 272.552 120.588 266.55L120.586 266.546Z" fill="#FF6464"/>
</g>
<mask id="mask1_1113_2164" style="mask-type:luminance" maskUnits="userSpaceOnUse" x="51" y="249" width="72" height="62">
<path d="M51.4146 288.779L111.324 249.07L122.822 270.811L62.9126 310.521L51.4146 288.779Z" fill="white"/>
</mask>
<g mask="url(#mask1_1113_2164)">
<path d="M117.087 259.935C120.26 265.937 109.421 279.694 92.8757 290.661C76.3305 301.627 60.3446 305.65 57.1707 299.649C53.996 293.645 64.8353 279.89 81.3805 268.924C97.9262 257.957 113.912 253.932 117.087 259.935Z" fill="#FF6464"/>
</g>
<path d="M83.6492 273.243C95.0926 265.664 106.207 262.527 109.916 265.562C109.859 265.078 109.731 264.63 109.519 264.23C107.07 259.605 94.9292 262.583 82.3991 270.881C69.8697 279.179 61.6965 289.653 64.145 294.278C64.3569 294.679 64.6463 295.019 64.9995 295.307C64.4017 290.212 72.2061 280.821 83.6492 273.243Z" fill="black"/>
<path d="M89.7435 284.754C71.0558 298.199 62.2705 296.122 62.2705 296.122C62.2705 296.122 71.0444 298.748 90.3748 285.947C113.047 270.932 111.865 263.279 111.865 263.279C111.661 267.273 108.432 271.309 89.7435 284.754Z" fill="#FF6464"/>
<path d="M84.1459 276.423C84.5219 277.133 82.7016 279.117 80.0794 280.854C77.4558 282.591 75.025 283.422 74.6491 282.712C74.2736 282.003 76.0941 280.019 78.7177 278.282C81.34 276.545 83.7704 275.714 84.1459 276.423Z" fill="black"/>
<path d="M85.9113 282.45C86.4491 283.466 84.2867 286.008 81.0809 288.131C77.8751 290.254 74.8418 291.153 74.3041 290.137C73.7674 289.123 75.9299 286.58 79.1357 284.457C82.3415 282.334 85.3746 281.436 85.9113 282.45Z" fill="black"/>
<path d="M96.105 268.504C96.4809 269.214 94.5812 271.251 91.8614 273.052C89.1425 274.852 86.6323 275.736 86.2564 275.026C85.8809 274.316 87.7809 272.28 90.4998 270.479C93.2196 268.678 95.7295 267.794 96.105 268.504Z" fill="black"/>
<path d="M100.684 272.667C101.222 273.683 99.0594 276.225 95.8537 278.348C92.6481 280.471 89.6144 281.369 89.0767 280.354C88.54 279.34 90.7029 276.796 93.9085 274.673C97.1142 272.551 100.147 271.653 100.684 272.667Z" fill="black"/>
<path d="M86.5098 269.371L82.837 271.239C81.66 268.925 80.8166 266.441 80.1201 264.246L84.0885 262.959C84.785 265.154 85.4815 267.349 86.5098 269.371ZM82.5231 255.744L78.4079 256.742C78.0448 254.377 77.8685 251.554 78.1766 248.848L82.2521 248.598C82.1306 250.845 82.1601 253.38 82.5231 255.744ZM83.1286 241.232L78.7593 240.905C79.0633 238.201 79.8536 235.618 80.6381 233.033L84.6739 233.53C84.0363 236.403 83.4326 238.528 83.1286 241.232ZM87.4779 226.642L83.6287 225.687C84.8976 223.219 86.1625 220.754 87.4332 218.29L91.0958 219.703C89.8268 222.171 88.4133 224.344 87.4779 226.642ZM95.4879 213.462L92.3455 211.42C94.0948 209.072 96.1398 207.305 98.3713 205.079L100.989 207.751C99.2799 209.352 97.3818 211.408 95.4879 213.462ZM152.643 180.391L151.024 177.206C153.696 175.847 155.888 174.369 158.08 172.891L160.033 175.905C157.841 177.384 155.315 179.031 152.643 180.391ZM144.964 184.296C142.292 185.655 139.806 186.556 137.138 187.913L135.852 184.559C138.334 183.66 141.006 182.301 143.345 181.112L144.964 184.296ZM107.601 202.571L105.314 199.726C107.506 198.248 110.031 196.6 112.699 195.243L114.655 198.252C111.982 199.611 109.791 201.089 107.601 202.571ZM129.493 191.069C127.154 192.259 124.339 193.327 122 194.516L120.383 191.336C123.055 189.976 125.536 189.078 128.209 187.719L129.493 191.069ZM167.122 170.841L164.838 168C166.881 166.229 168.926 164.462 170.82 162.408L173.775 164.908C171.879 166.968 169.648 169.193 167.122 170.841ZM179.17 158.161L175.692 156.286C177.11 154.111 178.045 151.813 178.977 149.517L182.826 150.472C182.037 153.059 180.919 155.813 179.17 158.161ZM184.705 142.601L180.482 142.562C180.604 140.315 180.574 137.781 180.545 135.247L184.811 134.535C184.983 137.36 185.16 140.184 184.705 142.601ZM183.242 127.322L179.275 128.613C178.578 126.418 177.882 124.223 177.038 121.739L180.858 120.16C181.702 122.644 182.545 125.127 183.242 127.322ZM173.801 115.374C173.065 113.926 172.329 112.479 171.594 111.035L170.418 108.72L174.09 106.852L175.267 109.167C176.002 110.611 176.591 111.77 177.327 113.217L173.801 115.374ZM166.847 102.525L165.964 100.789C165.081 99.0521 164.198 97.3156 163.461 95.8679L167.134 94C168.017 95.7365 168.753 97.1842 169.637 98.9207L170.371 100.365L166.847 102.525ZM164.904 87.1278L160.931 88.4165C160.092 85.9306 159.582 83.2772 159.219 80.9126L163.334 79.9148C163.51 82.7378 164.207 84.9328 164.904 87.1278ZM162.876 73.227L158.801 73.4776C158.988 73.0191 158.841 72.7303 158.88 71.983C158.998 69.7377 159.6 67.6094 160.199 65.4868L164.235 65.9835C163.635 68.1061 163.367 70.0647 163.103 72.0213C162.916 72.4797 163.063 72.7685 162.876 73.227ZM166.89 58.8031L162.894 57.5591C164.163 55.0916 165.43 52.6298 167.179 50.2815L170.657 52.1571C169.239 54.3322 167.97 56.7997 166.89 58.8031ZM175.383 45.7459L172.24 43.7043C173.803 41.8145 175.55 39.4718 177.78 37.2427L181.071 39.5768C178.692 41.5135 176.796 43.5729 175.383 45.7459ZM186.426 33.5772L183.472 31.0715L189.307 25.1911L192.261 27.6969L186.426 33.5772ZM198.094 21.813L195.142 19.3108C197.04 17.2549 199.084 15.4842 200.978 13.4304L204.267 15.7609C202.037 17.99 199.992 19.7571 198.094 21.813ZM209.475 9.47252L206.332 7.43088C208.082 5.08259 209.646 3.1963 211.058 1.01972L214.387 2.60292C212.971 4.7816 211.559 6.95817 209.475 9.47252Z" fill="white"/>
<path d="M223.1 498.857L222.697 502.051C220.584 501.784 218.508 501.227 216.695 500.704L217.63 497.577C219.442 498.1 221.254 498.624 223.1 498.857ZM212.003 495.389L210.805 498.483C209.029 497.669 207.026 496.532 205.324 495.135L207.013 492.398C208.488 493.472 210.227 494.576 212.003 495.389ZM202.397 488.571L200.181 491.241C198.478 489.847 197.08 488.194 195.678 486.543L197.857 484.163C199.523 485.847 200.694 487.177 202.397 488.571ZM194.446 479.306L192.04 481.362C190.938 479.452 189.836 477.545 188.738 475.635L191.371 473.901C192.473 475.812 193.308 477.685 194.446 479.306ZM189.125 468.307L186.301 469.427C185.5 467.26 185.23 465.159 184.732 462.736L187.746 462.233C188.056 464.043 188.59 466.177 189.125 468.307ZM192.677 416.834L189.77 416.467C190.063 414.143 190.057 412.077 190.05 410.01L192.993 410.087C193 412.154 192.97 414.511 192.677 416.834ZM191.833 423.512C191.54 425.835 191.019 427.836 190.726 430.156L187.856 429.498C188.376 427.502 188.669 425.178 188.926 423.144L191.833 423.512ZM187.234 455.679L184.254 455.891C184.247 453.825 184.277 451.468 184.57 449.148L187.511 449.221C187.217 451.544 187.224 453.611 187.234 455.679ZM189.388 436.479C189.131 438.513 188.575 440.8 188.318 442.833L185.414 442.467C185.708 440.143 186.228 438.146 186.521 435.823L189.388 436.479ZM192.779 403.276L189.802 403.489C189.528 401.388 189.258 399.288 188.723 397.158L191.774 396.361C192.311 398.495 192.809 400.919 192.779 403.276ZM189.64 389.897L186.777 391.307C185.942 389.43 184.804 387.81 183.666 386.193L186.072 384.136C187.474 385.79 188.839 387.73 189.64 389.897ZM181.569 379.439L179.617 382.142C178.142 381.068 176.403 379.965 174.664 378.861L176.126 375.797C178.128 376.938 180.131 378.075 181.569 379.439ZM170.498 373.613L169.567 376.74C167.755 376.217 165.943 375.693 163.867 375.136L164.534 371.976C166.61 372.533 168.686 373.09 170.498 373.613ZM158.056 374.402C156.734 374.235 155.413 374.068 154.094 373.902L151.982 373.635L152.385 370.441L154.498 370.708C155.816 370.875 156.874 371.008 158.196 371.175L158.056 374.402ZM146.135 373.191L144.549 372.991C142.964 372.791 141.379 372.59 140.057 372.423L140.46 369.23C142.046 369.43 143.367 369.597 144.953 369.797L146.271 369.964L146.135 373.191ZM134.763 367.623L133.829 370.753C131.753 370.192 129.714 369.345 127.938 368.532L129.136 365.438C131.139 366.575 132.951 367.099 134.763 367.623ZM124.373 362.771L122.685 365.507C122.458 365.184 122.194 365.151 121.703 364.794C120.228 363.724 119.053 362.393 117.881 361.067L120.061 358.687C121.232 360.013 122.444 361.054 123.655 362.091C123.883 362.414 124.146 362.447 124.373 362.771ZM116.382 353.795L113.713 355.819C112.611 353.908 111.513 352.002 110.712 349.834L113.575 348.425C114.41 350.302 115.511 352.212 116.382 353.795ZM111.365 342.54L108.541 343.66C107.967 341.816 107.169 339.653 106.668 337.229L109.759 336.143C109.993 338.533 110.53 340.667 111.365 342.54ZM108.116 330.035L105.063 330.828L103.72 324.464L106.774 323.671L108.116 330.035ZM105.428 317.307L102.378 318.1C101.844 315.966 101.57 313.866 101.035 311.736L104.123 310.649C104.623 313.073 104.894 315.173 105.428 317.307ZM102.216 304.508L99.3926 305.628C98.5916 303.461 98.0208 301.617 97.1826 299.744L99.7792 298.3C100.617 300.177 101.455 302.051 102.216 304.508Z" fill="white"/>
</svg>
