<svg width="405" height="293" viewBox="0 0 405 293" fill="none" xmlns="http://www.w3.org/2000/svg">
<mask id="mask0_1065_1360" style="mask-type:luminance" maskUnits="userSpaceOnUse" x="149" y="86" width="256" height="207">
<path d="M149.787 86.9836H405V292.543H149.787V86.9836Z" fill="white"/>
</mask>
<g mask="url(#mask0_1065_1360)">
<path d="M402.212 191.65C402.212 191.65 402.212 213.061 402.212 218.579C402.212 235.463 407.61 253.969 403.387 270.203C399.811 282.865 368.551 283.19 368.551 283.19C313.959 290.984 258.357 293.905 203.438 291.958C192.39 291.633 171.511 293.905 162.086 285.138C152.339 275.724 154.207 251.697 154.207 239.357V236.112C154.207 234.489 153.946 230.917 154.92 229.292C157.197 226.046 164.541 226.046 168.114 225.396C185.013 223.774 202.172 223.449 219.069 222.8C242.141 222.151 265.181 223.717 287.929 222.419C293.128 222.094 304.578 221.445 308.477 217.225C312.053 212.68 311.647 203.251 310.672 197.406C310.672 197.406 309.673 172.405 309.673 162.339C309.673 158.496 310.216 155.217 309.94 152.044C309.285 144.504 300.246 145.62 300.246 145.62C298.677 145.845 297.102 146.039 295.522 146.204C285.643 147.247 275.558 147.247 265.475 147.247C258.324 147.247 250.85 147.57 243.701 148.219C240.452 148.545 235.253 148.219 232.329 149.519C226.153 152.115 228.428 157.145 228.428 163.315C228.428 163.315 228.991 172.814 228.561 174.972C226.088 187.346 205.058 184.689 192.312 184.951C177.348 185.257 155.636 185.719 152.062 175.653C149.462 168.184 150.762 158.121 150.112 150.328L149.787 147.081C151.413 139.615 149.787 131 151.087 123.532C153.686 108.272 169.622 91.4952 189.455 92.516H191.707C250.853 91.4952 291.472 90.4149 350.614 88.1424L355.815 87.7402C366.213 87.0897 385.386 85.4285 393.185 93.5455C395.786 96.4685 397.086 100.669 397.736 104.243C400.01 113.982 400.985 124.364 402.285 134.103C405.209 155.208 401.761 176.308 401.761 197.412L402.212 191.65Z" fill="#62B8AF"/>
</g>
<path d="M341.881 203.682C339.05 207.539 342.11 216.043 340.543 222.082L340.383 223.603C340.383 227.114 340.491 230.522 340.383 234.033C340.279 236.375 339.852 239.886 340.491 242.121C341.345 244.887 344.858 245.1 347.309 245.208C350.291 245.314 353.38 245.632 356.363 245.739C361.689 245.953 363.179 245.459 368.825 244.781C373.938 244.994 372.98 240.31 373.087 236.585C373.192 232.543 373.405 228.284 372.98 224.348C372.98 224.348 377.159 220.394 377.346 216.898C377.533 213.403 374.206 209.134 370.663 203.286C369.759 201.796 343.16 201.939 341.881 203.682Z" fill="#B1C3B9"/>
<path d="M202.015 122.698C202.236 118.592 201.917 114.455 201.847 110.347C201.814 108.295 201.803 106.244 201.787 104.192C201.776 102.417 201.427 99.5684 204.225 100.636C204.502 100.74 204.645 100.325 204.416 100.177C203.394 99.5104 201.933 99.3811 200.843 99.9344C200.659 100.027 200.556 100.244 200.551 100.443C200.432 107.796 199.957 115.532 201.167 122.813C201.253 123.314 201.991 123.158 202.015 122.698Z" fill="#B1C3B9"/>
<path d="M331.983 147.768C332.218 147.972 332.495 148.02 332.742 147.965C333.865 156.895 339.369 164.672 350.389 165.211C382.468 166.546 387.147 121.808 354.401 120.473H353.065C339.925 118.972 332.058 132.854 332.543 145.547C327.178 137.326 316.225 132.819 307.077 130.911C296.07 128.614 284.643 129.209 273.476 128.614C266.846 128.259 260.279 127.583 253.628 127.523C245.819 127.451 238.012 127.864 230.221 128.322C224.622 128.647 219.077 129.062 213.515 129.71C209.915 130.128 202.988 131.028 202.86 125.814C202.852 125.397 202.181 125.273 202.108 125.712C200.814 133.33 212.915 131.269 217.117 130.737C223.991 129.868 231.104 129.871 238.022 129.552C246.255 129.174 254.5 129.067 262.731 129.518C268.931 129.858 275.085 130.5 281.298 130.697C287.372 130.889 293.445 131.008 299.494 131.624C305.411 132.225 311.322 133.517 316.76 135.961C319.324 137.114 321.712 138.608 323.973 140.265C326.971 142.463 329.213 145.344 331.983 147.768Z" fill="#B1C3B9"/>
<path d="M206.37 100.864C214.658 103.594 224.194 100.817 232.729 100.824C243.525 100.835 254.313 100.321 265.102 100.107C275.986 99.8923 286.835 99.8719 297.712 99.2388C308.53 98.6101 319.327 97.6663 330.124 96.7558C339.484 95.9645 348.845 95.1746 358.205 94.4137C366.059 93.7748 375.088 93.2608 382.161 97.3236C396.635 105.641 391.361 127.68 392.472 141.096C392.568 142.235 392.689 143.367 392.812 144.502C392.863 144.952 393.592 145.147 393.677 144.618C394.995 136.321 395.216 127.825 394.706 119.441C394.316 113.001 393.066 106.451 389.242 101.113C380.572 89.0106 363.038 91.9002 350.286 93.1272C328.931 95.1804 307.413 97.0869 285.972 97.916C275.136 98.3371 264.287 98.2398 253.447 98.6174C243.18 98.976 232.835 98.7858 222.608 99.7412C217.239 100.244 211.864 100.653 206.485 100.004C205.973 99.9416 205.926 100.717 206.37 100.864Z" fill="#B1C3B9"/>
<path d="M393.595 148.25C393.468 148.029 393.148 147.984 392.969 148.169C391.893 149.263 391.422 150.156 389.826 150.679C387.996 151.282 385.972 151.327 384.065 151.401C381.105 151.516 377.78 150.939 374.938 151.928C374.505 152.08 374.59 152.679 375.042 152.714C377.172 152.87 396.965 154.055 393.595 148.25Z" fill="#B1C3B9"/>
<path d="M240.677 226.993C234.783 226.636 228.691 227.32 222.796 227.561C215.337 227.869 207.874 228.102 200.411 228.306C186.658 228.68 172.887 228.614 159.142 229.081C158.263 229.11 158.263 230.413 159.142 230.442C172.867 230.895 186.689 230.297 200.411 229.951C207.874 229.764 215.337 229.533 222.796 229.247C228.721 229.017 234.976 229.123 240.815 228.008C241.416 227.892 241.229 227.028 240.677 226.993Z" fill="#B1C3B9"/>
<path d="M247.701 259.56C247.524 248.875 247.338 238.193 247.284 227.51C247.28 226.581 245.847 226.581 245.843 227.51C245.795 238.193 245.85 248.875 245.99 259.56C246.062 265.182 246.153 270.809 246.251 276.431C246.34 281.368 246.083 286.542 246.899 291.425C247.017 292.132 247.984 291.868 248.051 291.268C248.612 286.408 248.121 281.31 248.016 276.431C247.896 270.809 247.792 265.183 247.701 259.56Z" fill="#B1C3B9"/>
<path d="M324.346 229.644C323.816 240.443 320.834 250.558 315.406 259.93C312.633 264.716 309.157 269.065 305.136 272.862C301.207 276.567 296.709 278.631 292.19 281.384C291.399 281.866 291.938 282.975 292.791 282.814C297.715 281.894 302.331 278.233 305.989 274.996C310.246 271.23 313.751 266.621 316.707 261.79C322.433 252.433 326.337 240.708 325.646 229.644C325.594 228.81 324.385 228.804 324.346 229.644Z" fill="#B1C3B9"/>
<path d="M303.355 224.408C308.523 227.982 316.489 229.431 322.659 229.976C323.443 230.045 323.51 228.898 322.833 228.669C319.892 227.673 316.845 227.108 313.828 226.379C310.433 225.555 307.156 224.185 303.747 223.479C303.169 223.359 302.877 224.077 303.355 224.408Z" fill="#B1C3B9"/>
<path d="M167.509 272.102C167.454 272.159 167.422 272.229 167.422 272.307C167.422 272.396 167.454 272.467 167.509 272.521C167.566 272.577 167.637 272.608 167.714 272.608C167.794 272.608 167.874 272.577 167.93 272.521C167.984 272.467 168.016 272.396 168.016 272.307C168.016 272.23 167.984 272.159 167.93 272.102C167.818 271.991 167.619 271.991 167.509 272.102Z" fill="#B1C3B9"/>
<path d="M164.704 268.006C164.608 268.099 164.555 268.221 164.555 268.355C164.555 268.506 164.608 268.625 164.704 268.719C164.8 268.815 164.919 268.869 165.056 268.869C165.191 268.869 165.326 268.815 165.42 268.719C165.513 268.625 165.567 268.506 165.567 268.355C165.567 268.221 165.513 268.099 165.42 268.006C165.232 267.816 164.895 267.816 164.704 268.006Z" fill="#B1C3B9"/>
<path d="M163.063 263.549C163.016 263.595 162.99 263.652 162.99 263.718C162.99 263.79 163.016 263.849 163.063 263.893C163.108 263.941 163.169 263.965 163.231 263.965C163.298 263.965 163.362 263.939 163.407 263.893C163.454 263.849 163.48 263.79 163.48 263.718C163.48 263.652 163.454 263.595 163.407 263.549C163.319 263.457 163.154 263.457 163.063 263.549Z" fill="#B1C3B9"/>
<path d="M163.221 258.825C163.221 258.709 163.173 258.603 163.093 258.521C162.929 258.359 162.636 258.359 162.474 258.521C162.39 258.603 162.344 258.709 162.344 258.825C162.344 258.954 162.39 259.059 162.474 259.141C162.556 259.223 162.659 259.268 162.777 259.268C162.894 259.268 163.01 259.223 163.093 259.141C163.173 259.059 163.221 258.954 163.221 258.825Z" fill="#B1C3B9"/>
<path d="M159.88 253.846C159.811 253.916 159.771 254.003 159.771 254.1C159.771 254.21 159.811 254.299 159.88 254.367C159.95 254.437 160.039 254.476 160.138 254.476C160.238 254.476 160.335 254.437 160.405 254.367C160.473 254.299 160.512 254.212 160.512 254.1C160.512 254.003 160.473 253.916 160.405 253.846C160.265 253.705 160.018 253.705 159.88 253.846Z" fill="#B1C3B9"/>
<path d="M161.484 248.86C161.445 248.9 161.42 248.951 161.42 249.012C161.42 249.074 161.445 249.13 161.484 249.169C161.526 249.208 161.577 249.233 161.638 249.233C161.694 249.233 161.753 249.211 161.795 249.169C161.834 249.13 161.859 249.074 161.859 249.012C161.859 248.951 161.834 248.9 161.795 248.86C161.71 248.778 161.565 248.778 161.484 248.86Z" fill="#B1C3B9"/>
<path d="M163.765 244.22C163.696 244.29 163.654 244.377 163.654 244.474C163.654 244.585 163.696 244.673 163.765 244.741C163.834 244.811 163.922 244.85 164.022 244.85C164.122 244.85 164.219 244.811 164.289 244.741C164.356 244.673 164.397 244.586 164.397 244.474C164.397 244.377 164.356 244.29 164.289 244.22C164.15 244.079 163.903 244.079 163.765 244.22Z" fill="#B1C3B9"/>
<path d="M161.302 238.77C161.223 238.847 161.18 238.945 161.18 239.055C161.18 239.177 161.223 239.274 161.302 239.35C161.377 239.427 161.476 239.472 161.585 239.472C161.695 239.472 161.804 239.427 161.881 239.35C161.957 239.274 162 239.177 162 239.055C162 238.945 161.957 238.847 161.881 238.77C161.727 238.617 161.453 238.617 161.302 238.77Z" fill="#B1C3B9"/>
<path d="M167.686 106.901C167.78 106.901 167.872 106.864 167.937 106.798C168.001 106.734 168.039 106.65 168.039 106.547C168.039 106.453 168.001 106.37 167.937 106.306C167.807 106.174 167.574 106.174 167.445 106.306C167.38 106.37 167.342 106.453 167.342 106.547C167.342 106.65 167.38 106.734 167.445 106.798C167.509 106.864 167.593 106.901 167.686 106.901Z" fill="#B1C3B9"/>
<path d="M165.024 111.178C165.134 111.178 165.242 111.134 165.317 111.057C165.393 110.985 165.435 110.886 165.435 110.767C165.435 110.659 165.393 110.562 165.317 110.487C165.166 110.336 164.895 110.336 164.744 110.487C164.668 110.562 164.623 110.659 164.623 110.767C164.623 110.886 164.668 110.985 164.744 111.057C164.819 111.134 164.916 111.178 165.024 111.178Z" fill="#B1C3B9"/>
<path d="M162.289 114.684C162.359 114.684 162.427 114.658 162.477 114.609C162.525 114.561 162.554 114.5 162.554 114.423C162.554 114.353 162.525 114.292 162.477 114.244C162.379 114.147 162.207 114.147 162.111 114.244C162.063 114.292 162.035 114.353 162.035 114.423C162.035 114.5 162.063 114.561 162.111 114.609C162.159 114.658 162.223 114.684 162.289 114.684Z" fill="#B1C3B9"/>
<path d="M161.018 119.534C161.105 119.534 161.191 119.501 161.254 119.438C161.313 119.379 161.347 119.302 161.347 119.203C161.347 119.117 161.313 119.041 161.254 118.978C161.132 118.858 160.912 118.858 160.793 118.978C160.731 119.041 160.697 119.117 160.697 119.203C160.697 119.302 160.731 119.379 160.793 119.438C160.854 119.501 160.933 119.534 161.018 119.534Z" fill="#B1C3B9"/>
<path d="M160.063 124.369C160.137 124.369 160.21 124.34 160.264 124.288C160.313 124.239 160.343 124.172 160.343 124.091C160.343 124.017 160.313 123.951 160.264 123.9C160.159 123.796 159.976 123.796 159.873 123.9C159.821 123.951 159.793 124.017 159.793 124.091C159.793 124.172 159.821 124.239 159.873 124.288C159.924 124.34 159.991 124.369 160.063 124.369Z" fill="#B1C3B9"/>
<path d="M158.635 128.989C158.769 128.989 158.9 128.936 158.994 128.843C159.086 128.752 159.14 128.634 159.14 128.486C159.14 128.353 159.086 128.236 158.994 128.142C158.807 127.958 158.476 127.958 158.293 128.142C158.198 128.236 158.145 128.353 158.145 128.486C158.145 128.634 158.198 128.752 158.293 128.843C158.386 128.936 158.503 128.989 158.635 128.989Z" fill="#B1C3B9"/>
<path d="M158.542 133.918C158.668 133.918 158.793 133.867 158.882 133.779C158.969 133.693 159.018 133.581 159.018 133.442C159.018 133.398 159.005 133.36 158.994 133.32C158.995 133.318 158.997 133.318 158.997 133.318C159.066 133.249 159.107 133.159 159.107 133.047C159.107 132.948 159.066 132.86 158.997 132.788C158.857 132.649 158.609 132.649 158.469 132.788C158.403 132.852 158.369 132.934 158.362 133.024C158.31 133.045 158.26 133.076 158.218 133.117C158.129 133.205 158.08 133.317 158.08 133.442C158.08 133.58 158.129 133.693 158.218 133.779C158.307 133.867 158.419 133.918 158.542 133.918Z" fill="#B1C3B9"/>
<path d="M156.25 138.698C156.388 138.698 156.523 138.644 156.619 138.549C156.715 138.454 156.769 138.331 156.769 138.18C156.769 138.045 156.715 137.923 156.619 137.827C156.427 137.637 156.087 137.637 155.897 137.827C155.801 137.923 155.746 138.045 155.746 138.18C155.746 138.331 155.801 138.454 155.897 138.549C155.993 138.644 156.115 138.698 156.25 138.698Z" fill="#B1C3B9"/>
<path d="M157.754 143.452C157.861 143.452 157.967 143.41 158.043 143.335C158.117 143.261 158.161 143.165 158.161 143.046C158.161 142.938 158.117 142.843 158.043 142.769C157.893 142.618 157.625 142.618 157.475 142.769C157.4 142.843 157.357 142.94 157.357 143.046C157.357 143.165 157.4 143.261 157.475 143.335C157.551 143.41 157.646 143.452 157.754 143.452Z" fill="#B1C3B9"/>
<path d="M157.4 148.273C157.469 148.273 157.538 148.246 157.586 148.198C157.631 148.15 157.658 148.09 157.658 148.015C157.658 147.946 157.634 147.885 157.586 147.838C157.49 147.742 157.32 147.742 157.224 147.838C157.176 147.885 157.148 147.946 157.148 148.015C157.148 148.09 157.176 148.15 157.224 148.198C157.272 148.246 157.331 148.273 157.4 148.273Z" fill="#B1C3B9"/>
<path d="M155.201 153.091C155.201 153.005 155.166 152.926 155.106 152.866C154.984 152.743 154.765 152.743 154.643 152.866C154.582 152.926 154.547 153.005 154.547 153.091C154.547 153.19 154.582 153.267 154.643 153.329C154.705 153.39 154.782 153.424 154.871 153.424C154.958 153.424 155.044 153.39 155.106 153.329C155.166 153.268 155.201 153.19 155.201 153.091Z" fill="#B1C3B9"/>
<path d="M158.67 157.274C158.594 157.35 158.551 157.449 158.551 157.556C158.551 157.678 158.594 157.775 158.67 157.851C158.748 157.929 158.846 157.973 158.955 157.973C159.064 157.973 159.172 157.929 159.251 157.851C159.326 157.775 159.37 157.678 159.37 157.556C159.37 157.449 159.326 157.35 159.251 157.274C159.097 157.12 158.824 157.12 158.67 157.274Z" fill="#B1C3B9"/>
<path d="M157.207 162.731C157.157 162.781 157.127 162.846 157.127 162.919C157.127 162.998 157.157 163.064 157.207 163.113C157.259 163.165 157.323 163.193 157.394 163.193C157.468 163.193 157.539 163.165 157.589 163.113C157.641 163.064 157.669 162.998 157.669 162.919C157.669 162.846 157.641 162.781 157.589 162.731C157.49 162.63 157.309 162.63 157.207 162.731Z" fill="#B1C3B9"/>
<path d="M160.363 167.012C160.286 167.089 160.242 167.186 160.242 167.296C160.242 167.42 160.286 167.517 160.363 167.594C160.438 167.672 160.539 167.716 160.649 167.716C160.759 167.716 160.87 167.672 160.947 167.594C161.024 167.517 161.067 167.42 161.067 167.296C161.067 167.186 161.024 167.087 160.947 167.012C160.791 166.856 160.517 166.856 160.363 167.012Z" fill="#B1C3B9"/>
<path d="M164.026 128.819C164.128 128.819 164.229 128.779 164.301 128.708C164.372 128.636 164.412 128.544 164.412 128.432C164.412 128.331 164.372 128.239 164.301 128.168C164.157 128.027 163.904 128.027 163.763 128.168C163.691 128.239 163.648 128.331 163.648 128.432C163.648 128.544 163.691 128.636 163.763 128.708C163.833 128.779 163.924 128.819 164.026 128.819Z" fill="#B1C3B9"/>
<path d="M166.793 123.657C166.701 123.748 166.65 123.866 166.65 123.995C166.65 124.139 166.701 124.256 166.793 124.346C166.886 124.438 167 124.49 167.13 124.49C167.262 124.49 167.391 124.438 167.483 124.346C167.573 124.256 167.626 124.139 167.626 123.995C167.626 123.866 167.573 123.748 167.483 123.657C167.3 123.475 166.974 123.475 166.793 123.657Z" fill="#B1C3B9"/>
<path d="M166.842 119.225C166.919 119.225 166.999 119.193 167.056 119.138C167.11 119.084 167.141 119.013 167.141 118.924C167.141 118.847 167.11 118.775 167.056 118.72C166.944 118.611 166.746 118.611 166.636 118.72C166.581 118.775 166.549 118.847 166.549 118.924C166.549 119.013 166.581 119.084 166.636 119.138C166.693 119.193 166.762 119.225 166.842 119.225Z" fill="#B1C3B9"/>
<path d="M169.901 114.696C169.837 114.76 169.801 114.841 169.801 114.931C169.801 115.033 169.837 115.114 169.901 115.178C169.965 115.242 170.046 115.278 170.138 115.278C170.229 115.278 170.319 115.242 170.383 115.178C170.447 115.114 170.483 115.033 170.483 114.931C170.483 114.841 170.447 114.76 170.383 114.696C170.255 114.57 170.029 114.57 169.901 114.696Z" fill="#B1C3B9"/>
<path d="M169.798 109.887C169.911 109.887 170.024 109.843 170.104 109.76C170.184 109.683 170.229 109.58 170.229 109.454C170.229 109.341 170.184 109.239 170.104 109.159C169.944 108.998 169.66 108.998 169.5 109.159C169.42 109.239 169.375 109.341 169.375 109.454C169.375 109.582 169.42 109.683 169.5 109.76C169.58 109.843 169.683 109.887 169.798 109.887Z" fill="#B1C3B9"/>
<path d="M171.77 104.828C171.841 104.828 171.911 104.8 171.963 104.748C172.011 104.7 172.04 104.636 172.04 104.556C172.04 104.485 172.011 104.421 171.963 104.372C171.861 104.272 171.684 104.272 171.584 104.372C171.532 104.421 171.504 104.485 171.504 104.556C171.504 104.636 171.532 104.7 171.584 104.748C171.633 104.8 171.697 104.828 171.77 104.828Z" fill="#B1C3B9"/>
<path d="M175.03 101.109C175.104 101.109 175.18 101.08 175.232 101.026C175.283 100.975 175.314 100.909 175.314 100.826C175.314 100.753 175.283 100.685 175.232 100.633C175.126 100.53 174.94 100.53 174.839 100.633C174.785 100.685 174.756 100.753 174.756 100.826C174.756 100.909 174.785 100.975 174.839 101.026C174.891 101.08 174.956 101.109 175.03 101.109Z" fill="#B1C3B9"/>
<path d="M179.949 98.5855C180.013 98.5855 180.074 98.5608 180.12 98.5158C180.164 98.4722 180.188 98.4141 180.188 98.3444C180.188 98.2834 180.162 98.2254 180.12 98.1818C180.03 98.0947 179.873 98.0947 179.785 98.1818C179.741 98.2254 179.715 98.2834 179.715 98.3444C179.715 98.4141 179.741 98.4722 179.785 98.5158C179.828 98.5608 179.886 98.5855 179.949 98.5855Z" fill="#B1C3B9"/>
<path d="M393.673 175.247C393.634 175.289 393.609 175.341 393.609 175.398C393.609 175.464 393.634 175.515 393.673 175.557C393.715 175.598 393.768 175.621 393.824 175.621C393.885 175.621 393.942 175.599 393.984 175.557C394.025 175.515 394.048 175.464 394.048 175.398C394.048 175.341 394.025 175.289 393.984 175.247C393.901 175.165 393.755 175.165 393.673 175.247Z" fill="#B1C3B9"/>
<path d="M393.415 180.252C393.373 180.291 393.352 180.343 393.352 180.401C393.352 180.465 393.373 180.516 393.415 180.558C393.456 180.599 393.507 180.622 393.565 180.622C393.623 180.622 393.681 180.599 393.722 180.558C393.763 180.519 393.784 180.465 393.784 180.401C393.784 180.343 393.763 180.291 393.722 180.252C393.641 180.17 393.495 180.17 393.415 180.252Z" fill="#B1C3B9"/>
<path d="M395.327 185.436C395.397 185.436 395.465 185.408 395.515 185.359C395.563 185.311 395.59 185.248 395.59 185.173C395.59 185.103 395.563 185.042 395.515 184.994C395.417 184.897 395.245 184.897 395.149 184.994C395.101 185.042 395.07 185.103 395.07 185.173C395.07 185.248 395.098 185.312 395.149 185.359C395.197 185.408 395.258 185.436 395.327 185.436Z" fill="#B1C3B9"/>
<path d="M394.872 189.889C394.802 189.959 394.76 190.05 394.76 190.15C394.76 190.262 394.802 190.351 394.872 190.42C394.941 190.49 395.031 190.531 395.13 190.531C395.232 190.531 395.332 190.49 395.403 190.42C395.472 190.351 395.514 190.262 395.514 190.15C395.514 190.05 395.472 189.959 395.403 189.889C395.262 189.75 395.011 189.75 394.872 189.889Z" fill="#B1C3B9"/>
<path d="M394.743 195.274C394.786 195.231 394.812 195.173 394.812 195.103C394.812 195.039 394.786 194.981 394.743 194.938C394.653 194.849 394.493 194.849 394.406 194.938C394.359 194.981 394.336 195.039 394.336 195.103C394.336 195.173 394.359 195.231 394.406 195.274C394.449 195.321 394.507 195.344 394.571 195.344C394.635 195.344 394.699 195.321 394.743 195.274Z" fill="#B1C3B9"/>
<path d="M395.127 200.024C395.127 200.152 395.172 200.254 395.253 200.333C395.333 200.413 395.435 200.458 395.551 200.458C395.664 200.458 395.781 200.413 395.86 200.333C395.937 200.254 395.984 200.15 395.984 200.024C395.984 199.911 395.937 199.808 395.86 199.728C395.698 199.568 395.413 199.568 395.253 199.728C395.172 199.808 395.127 199.911 395.127 200.024Z" fill="#B1C3B9"/>
<path d="M395.54 205.484C395.678 205.484 395.815 205.43 395.911 205.333C396.006 205.239 396.06 205.115 396.06 204.963C396.06 204.826 396.005 204.703 395.911 204.607C395.717 204.417 395.377 204.417 395.186 204.607C395.088 204.703 395.033 204.826 395.033 204.963C395.033 205.115 395.088 205.239 395.186 205.333C395.282 205.43 395.405 205.484 395.54 205.484Z" fill="#B1C3B9"/>
<path d="M396.672 209.72C396.628 209.765 396.604 209.818 396.604 209.879C396.604 209.947 396.628 210.001 396.672 210.043C396.714 210.087 396.769 210.11 396.83 210.11C396.891 210.11 396.954 210.087 396.994 210.043C397.039 210.001 397.063 209.947 397.063 209.879C397.063 209.818 397.039 209.765 396.994 209.72C396.909 209.634 396.757 209.634 396.672 209.72Z" fill="#B1C3B9"/>
<path d="M396.601 215.157C396.686 215.073 396.735 214.964 396.735 214.831C396.735 214.709 396.686 214.6 396.601 214.514C396.43 214.344 396.128 214.344 395.958 214.514C395.872 214.6 395.824 214.709 395.824 214.831C395.824 214.964 395.872 215.073 395.958 215.157C396.044 215.245 396.151 215.292 396.273 215.292C396.397 215.292 396.516 215.245 396.601 215.157Z" fill="#B1C3B9"/>
<path d="M395.135 220.11C395.214 220.033 395.259 219.933 395.259 219.808C395.259 219.698 395.214 219.596 395.135 219.519C394.98 219.361 394.701 219.361 394.545 219.519C394.465 219.596 394.422 219.698 394.422 219.808C394.422 219.933 394.465 220.033 394.545 220.11C394.622 220.189 394.723 220.234 394.834 220.234C394.946 220.234 395.058 220.189 395.135 220.11Z" fill="#B1C3B9"/>
<path d="M395.235 224.461C395.161 224.536 395.119 224.629 395.119 224.735C395.119 224.853 395.161 224.946 395.235 225.02C395.308 225.094 395.404 225.136 395.508 225.136C395.616 225.136 395.719 225.094 395.793 225.02C395.867 224.946 395.909 224.853 395.909 224.735C395.909 224.629 395.867 224.536 395.793 224.461C395.645 224.313 395.382 224.313 395.235 224.461Z" fill="#B1C3B9"/>
<path d="M396.386 229.447C396.333 229.504 396.301 229.573 396.301 229.653C396.301 229.74 396.333 229.81 396.386 229.865C396.442 229.922 396.514 229.951 396.591 229.951C396.671 229.951 396.751 229.922 396.806 229.865C396.861 229.81 396.892 229.74 396.892 229.653C396.892 229.573 396.861 229.504 396.806 229.447C396.696 229.335 396.498 229.335 396.386 229.447Z" fill="#B1C3B9"/>
<path d="M394.725 234.496C394.643 234.579 394.598 234.679 394.598 234.795C394.598 234.924 394.643 235.029 394.725 235.106C394.805 235.19 394.908 235.234 395.025 235.234C395.139 235.234 395.256 235.187 395.337 235.106C395.417 235.029 395.463 234.924 395.463 234.795C395.463 234.679 395.417 234.579 395.337 234.496C395.174 234.335 394.887 234.335 394.725 234.496Z" fill="#B1C3B9"/>
<path d="M394.701 239.495C394.618 239.579 394.57 239.684 394.57 239.802C394.57 239.934 394.618 240.041 394.701 240.123C394.785 240.207 394.891 240.252 395.009 240.252C395.128 240.252 395.246 240.207 395.33 240.123C395.411 240.041 395.459 239.934 395.459 239.802C395.459 239.684 395.411 239.579 395.33 239.495C395.161 239.33 394.867 239.33 394.701 239.495Z" fill="#B1C3B9"/>
<path d="M399.434 244.524C399.509 244.448 399.556 244.349 399.556 244.226C399.556 244.116 399.509 244.017 399.434 243.938C399.279 243.785 399.001 243.785 398.849 243.938C398.77 244.017 398.727 244.116 398.727 244.226C398.727 244.349 398.77 244.448 398.849 244.524C398.926 244.603 399.026 244.647 399.135 244.647C399.247 244.647 399.357 244.603 399.434 244.524Z" fill="#B1C3B9"/>
<path d="M399.529 249.183C399.529 249.1 399.496 249.028 399.438 248.967C399.32 248.852 399.113 248.852 398.998 248.967C398.937 249.025 398.906 249.1 398.906 249.183C398.906 249.276 398.937 249.35 398.998 249.408C399.054 249.468 399.131 249.5 399.213 249.5C399.297 249.5 399.38 249.465 399.438 249.408C399.496 249.35 399.529 249.276 399.529 249.183Z" fill="#B1C3B9"/>
<path d="M400.146 253.769C399.975 253.598 399.67 253.598 399.498 253.769C399.413 253.855 399.363 253.965 399.363 254.085C399.363 254.222 399.413 254.331 399.498 254.415C399.584 254.502 399.694 254.55 399.818 254.55C399.938 254.55 400.061 254.502 400.146 254.415C400.232 254.331 400.28 254.222 400.28 254.085C400.28 253.965 400.232 253.855 400.146 253.769Z" fill="#B1C3B9"/>
<path d="M397.993 258.906C397.941 258.957 397.912 259.024 397.912 259.097C397.912 259.179 397.94 259.245 397.993 259.294C398.043 259.346 398.11 259.375 398.182 259.375C398.256 259.375 398.33 259.346 398.38 259.294C398.432 259.245 398.461 259.179 398.461 259.097C398.461 259.024 398.432 258.957 398.38 258.906C398.278 258.805 398.095 258.805 397.993 258.906Z" fill="#B1C3B9"/>
<path d="M396.276 263.57C396.231 263.618 396.205 263.676 396.205 263.741C396.205 263.815 396.231 263.875 396.276 263.919C396.324 263.966 396.382 263.993 396.448 263.993C396.514 263.993 396.58 263.966 396.628 263.919C396.671 263.875 396.699 263.815 396.699 263.741C396.699 263.676 396.671 263.618 396.628 263.57C396.533 263.479 396.371 263.479 396.276 263.57Z" fill="#B1C3B9"/>
<path d="M392.061 265.725C391.971 265.815 391.92 265.929 391.92 266.056C391.92 266.2 391.969 266.313 392.061 266.403C392.151 266.492 392.264 266.543 392.392 266.543C392.521 266.543 392.649 266.492 392.739 266.403C392.826 266.313 392.879 266.2 392.879 266.056C392.879 265.929 392.826 265.815 392.739 265.725C392.558 265.547 392.238 265.547 392.061 265.725Z" fill="#B1C3B9"/>
<path d="M387.199 266.602C387.102 266.699 387.045 266.824 387.045 266.962C387.045 267.118 387.102 267.241 387.199 267.338C387.296 267.436 387.423 267.492 387.559 267.492C387.701 267.492 387.838 267.436 387.937 267.338C388.031 267.241 388.088 267.118 388.088 266.962C388.088 266.824 388.031 266.699 387.937 266.602C387.741 266.409 387.394 266.409 387.199 266.602Z" fill="#B1C3B9"/>
<path d="M384.095 271.84C384.047 271.888 384.02 271.949 384.02 272.017C384.02 272.092 384.047 272.155 384.095 272.2C384.143 272.251 384.205 272.275 384.272 272.275C384.341 272.275 384.41 272.251 384.458 272.2C384.506 272.155 384.532 272.092 384.532 272.017C384.532 271.949 384.503 271.888 384.458 271.84C384.361 271.744 384.191 271.744 384.095 271.84Z" fill="#B1C3B9"/>
<path d="M379.254 273.341C379.196 273.398 379.162 273.47 379.162 273.553C379.162 273.645 379.196 273.717 379.254 273.774C379.309 273.832 379.383 273.864 379.464 273.864C379.546 273.864 379.628 273.832 379.686 273.774C379.743 273.717 379.775 273.645 379.775 273.553C379.775 273.47 379.743 273.399 379.686 273.341C379.57 273.226 379.367 273.226 379.254 273.341Z" fill="#B1C3B9"/>
<path d="M373.922 272.905C373.863 272.963 373.83 273.036 373.83 273.12C373.83 273.212 373.863 273.286 373.922 273.344C373.98 273.4 374.055 273.435 374.137 273.435C374.221 273.435 374.302 273.403 374.362 273.344C374.417 273.286 374.452 273.212 374.452 273.12C374.452 273.036 374.417 272.963 374.362 272.905C374.244 272.788 374.036 272.788 373.922 272.905Z" fill="#B1C3B9"/>
<path d="M369.172 274.423C369.097 274.497 369.055 274.593 369.055 274.7C369.055 274.818 369.097 274.912 369.172 274.986C369.248 275.062 369.344 275.105 369.45 275.105C369.557 275.105 369.662 275.062 369.739 274.986C369.811 274.912 369.856 274.818 369.856 274.7C369.856 274.593 369.811 274.497 369.739 274.423C369.589 274.273 369.322 274.273 369.172 274.423Z" fill="#B1C3B9"/>
<path d="M364.63 275.984C364.58 276.035 364.553 276.096 364.553 276.165C364.553 276.244 364.58 276.305 364.63 276.353C364.681 276.402 364.742 276.431 364.811 276.431C364.881 276.431 364.951 276.402 364.999 276.353C365.05 276.305 365.077 276.244 365.077 276.165C365.077 276.096 365.047 276.035 364.999 275.984C364.901 275.887 364.728 275.887 364.63 275.984Z" fill="#B1C3B9"/>
<path d="M359.445 274.678C359.392 274.729 359.363 274.796 359.363 274.868C359.363 274.951 359.392 275.018 359.445 275.07C359.497 275.121 359.564 275.15 359.638 275.15C359.712 275.15 359.786 275.121 359.837 275.07C359.889 275.018 359.92 274.953 359.92 274.868C359.92 274.796 359.889 274.729 359.837 274.678C359.734 274.574 359.548 274.574 359.445 274.678Z" fill="#B1C3B9"/>
<path d="M386.546 116.63C386.636 116.539 386.688 116.421 386.688 116.276C386.688 116.147 386.636 116.029 386.546 115.937C386.36 115.752 386.033 115.752 385.85 115.937C385.759 116.029 385.705 116.147 385.705 116.276C385.705 116.421 385.759 116.539 385.85 116.63C385.942 116.722 386.059 116.774 386.192 116.774C386.322 116.774 386.453 116.722 386.546 116.63Z" fill="#B1C3B9"/>
<path d="M382.97 111.783C382.896 111.856 382.854 111.95 382.854 112.056C382.854 112.174 382.896 112.267 382.97 112.341C383.044 112.413 383.137 112.455 383.243 112.455C383.349 112.455 383.453 112.413 383.527 112.341C383.599 112.267 383.641 112.174 383.641 112.056C383.641 111.95 383.599 111.856 383.527 111.783C383.378 111.635 383.115 111.635 382.97 111.783Z" fill="#B1C3B9"/>
<path d="M381.288 107.738C381.288 107.6 381.231 107.476 381.135 107.379C380.94 107.185 380.593 107.185 380.4 107.379C380.303 107.476 380.246 107.6 380.246 107.738C380.246 107.892 380.303 108.017 380.4 108.112C380.497 108.21 380.621 108.265 380.76 108.265C380.9 108.265 381.038 108.21 381.135 108.112C381.231 108.017 381.288 107.893 381.288 107.738Z" fill="#B1C3B9"/>
<path d="M377.253 103.552C377.162 103.643 377.109 103.761 377.109 103.89C377.109 104.035 377.162 104.153 377.253 104.244C377.345 104.336 377.462 104.388 377.592 104.388C377.724 104.388 377.855 104.336 377.946 104.244C378.036 104.153 378.088 104.037 378.088 103.89C378.088 103.761 378.036 103.643 377.946 103.552C377.762 103.369 377.436 103.369 377.253 103.552Z" fill="#B1C3B9"/>
<path d="M372.139 102.972C372.053 103.058 372.004 103.168 372.004 103.29C372.004 103.425 372.053 103.537 372.139 103.621C372.226 103.708 372.337 103.756 372.457 103.756C372.582 103.756 372.705 103.708 372.791 103.621C372.874 103.537 372.925 103.425 372.925 103.29C372.925 103.168 372.877 103.058 372.791 102.972C372.617 102.801 372.31 102.801 372.139 102.972Z" fill="#B1C3B9"/>
<path d="M368.553 100.247C368.616 100.183 368.653 100.104 368.653 100.004C368.653 99.9142 368.616 99.8329 368.553 99.7704C368.428 99.6455 368.203 99.6455 368.077 99.7704C368.013 99.8343 367.977 99.9142 367.977 100.004C367.977 100.104 368.013 100.186 368.077 100.247C368.141 100.311 368.221 100.347 368.311 100.347C368.399 100.347 368.489 100.311 368.553 100.247Z" fill="#B1C3B9"/>
<path d="M363.731 99.5904C363.824 99.4989 363.878 99.3784 363.878 99.2317C363.878 99.0981 363.824 98.9805 363.731 98.8861C363.544 98.7017 363.214 98.7017 363.028 98.8861C362.934 98.9805 362.883 99.0981 362.883 99.2317C362.883 99.3784 362.934 99.4989 363.028 99.5904C363.121 99.6833 363.239 99.7356 363.372 99.7356C363.506 99.7356 363.638 99.6833 363.731 99.5904Z" fill="#B1C3B9"/>
<path d="M358.959 98.5942C358.959 98.4562 358.904 98.3314 358.808 98.2355C358.615 98.041 358.269 98.041 358.076 98.2355C357.979 98.3314 357.922 98.4548 357.922 98.5942C357.922 98.7467 357.979 98.8701 358.076 98.9659C358.172 99.0647 358.297 99.1198 358.435 99.1198C358.573 99.1198 358.711 99.0647 358.808 98.9659C358.904 98.8701 358.959 98.7467 358.959 98.5942Z" fill="#B1C3B9"/>
<path d="M353.638 101.398C353.681 101.355 353.707 101.296 353.707 101.222C353.707 101.159 353.681 101.102 353.638 101.055C353.546 100.964 353.382 100.964 353.293 101.055C353.247 101.102 353.221 101.159 353.221 101.222C353.221 101.296 353.247 101.355 353.293 101.398C353.338 101.445 353.396 101.469 353.46 101.469C353.526 101.469 353.591 101.445 353.638 101.398Z" fill="#B1C3B9"/>
<path d="M348.273 98.3358C348.225 98.3822 348.197 98.4447 348.197 98.5144C348.197 98.5899 348.225 98.6523 348.273 98.7002C348.322 98.7496 348.385 98.7757 348.453 98.7757C348.523 98.7757 348.589 98.7496 348.64 98.7002C348.687 98.6523 348.716 98.5899 348.716 98.5144C348.716 98.4447 348.687 98.3822 348.64 98.3358C348.542 98.237 348.369 98.237 348.273 98.3358Z" fill="#B1C3B9"/>
<path d="M343.894 99.0879C343.705 98.8991 343.368 98.8991 343.181 99.0879C343.085 99.1808 343.031 99.3028 343.031 99.4364C343.031 99.5859 343.085 99.7079 343.181 99.8008C343.275 99.8967 343.396 99.9504 343.529 99.9504C343.666 99.9504 343.801 99.8967 343.894 99.8008C343.988 99.7079 344.042 99.5859 344.042 99.4364C344.042 99.3028 343.988 99.1808 343.894 99.0879Z" fill="#B1C3B9"/>
<path d="M338.299 100.289C338.212 100.376 338.164 100.488 338.164 100.611C338.164 100.749 338.212 100.858 338.299 100.944C338.388 101.032 338.498 101.082 338.623 101.082C338.747 101.082 338.87 101.034 338.957 100.944C339.043 100.861 339.092 100.749 339.092 100.611C339.092 100.488 339.043 100.376 338.957 100.289C338.781 100.116 338.473 100.116 338.299 100.289Z" fill="#B1C3B9"/>
<path d="M333.441 100.695C333.374 100.761 333.336 100.846 333.336 100.941C333.336 101.045 333.374 101.131 333.441 101.198C333.506 101.264 333.592 101.302 333.685 101.302C333.78 101.302 333.876 101.264 333.942 101.198C334.008 101.131 334.046 101.045 334.046 100.941C334.046 100.846 334.008 100.761 333.942 100.695C333.808 100.562 333.571 100.562 333.441 100.695Z" fill="#B1C3B9"/>
<path d="M320.023 210.001C319.927 210.094 319.873 210.216 319.873 210.35C319.873 210.501 319.927 210.62 320.023 210.714C320.117 210.81 320.239 210.864 320.373 210.864C320.508 210.864 320.641 210.81 320.737 210.714C320.83 210.62 320.884 210.501 320.884 210.35C320.884 210.216 320.83 210.094 320.737 210.001C320.547 209.812 320.21 209.812 320.023 210.001Z" fill="#B1C3B9"/>
<path d="M317.063 206.117C317.146 206.117 317.227 206.084 317.285 206.025C317.34 205.97 317.375 205.896 317.375 205.805C317.375 205.723 317.343 205.649 317.285 205.591C317.169 205.478 316.964 205.478 316.851 205.591C316.793 205.649 316.758 205.723 316.758 205.805C316.758 205.896 316.793 205.97 316.851 206.025C316.907 206.084 316.982 206.117 317.063 206.117Z" fill="#B1C3B9"/>
<path d="M317.74 201.232C317.873 201.232 318.004 201.179 318.095 201.084C318.187 200.994 318.242 200.875 318.242 200.73C318.242 200.598 318.187 200.48 318.095 200.387C317.911 200.204 317.581 200.204 317.398 200.387C317.305 200.48 317.25 200.598 317.25 200.73C317.25 200.875 317.305 200.994 317.398 201.084C317.49 201.179 317.607 201.232 317.74 201.232Z" fill="#B1C3B9"/>
<path d="M317.062 195.796C317.062 195.873 317.092 195.934 317.139 195.982C317.185 196.03 317.247 196.056 317.314 196.056C317.384 196.056 317.452 196.03 317.498 195.982C317.546 195.934 317.574 195.874 317.574 195.796C317.574 195.731 317.546 195.67 317.498 195.622C317.404 195.526 317.232 195.526 317.139 195.622C317.092 195.67 317.062 195.729 317.062 195.796Z" fill="#B1C3B9"/>
<path d="M315.888 191.04C315.947 191.1 316.023 191.135 316.107 191.135C316.191 191.135 316.277 191.1 316.335 191.04C316.392 190.982 316.428 190.907 316.428 190.814C316.428 190.73 316.395 190.654 316.335 190.595C316.218 190.477 316.006 190.477 315.888 190.595C315.828 190.654 315.795 190.73 315.795 190.814C315.795 190.907 315.828 190.982 315.888 191.04Z" fill="#B1C3B9"/>
<path d="M318.648 186.231C318.725 186.157 318.765 186.061 318.765 185.942C318.765 185.836 318.725 185.74 318.648 185.665C318.499 185.515 318.232 185.515 318.082 185.665C318.008 185.74 317.965 185.836 317.965 185.942C317.965 186.061 318.008 186.157 318.082 186.231C318.158 186.307 318.254 186.349 318.361 186.349C318.467 186.349 318.575 186.307 318.648 186.231Z" fill="#B1C3B9"/>
<path d="M316.744 180.757C316.596 180.612 316.338 180.612 316.192 180.757C316.118 180.831 316.076 180.925 316.076 181.028C316.076 181.143 316.118 181.237 316.192 181.309C316.264 181.383 316.358 181.425 316.461 181.425C316.567 181.425 316.67 181.383 316.744 181.309C316.816 181.237 316.858 181.143 316.858 181.028C316.858 180.925 316.816 180.831 316.744 180.757Z" fill="#B1C3B9"/>
<path d="M317.676 176.039C317.676 176.142 317.714 176.228 317.779 176.292C317.844 176.36 317.929 176.396 318.023 176.396C318.116 176.396 318.212 176.36 318.277 176.292C318.341 176.228 318.379 176.142 318.379 176.039C318.379 175.946 318.341 175.861 318.277 175.794C318.143 175.663 317.908 175.663 317.777 175.794C317.711 175.861 317.676 175.946 317.676 176.039Z" fill="#B1C3B9"/>
<path d="M316.014 170.815C315.924 170.905 315.875 171.018 315.875 171.144C315.875 171.285 315.924 171.398 316.014 171.487C316.103 171.576 316.218 171.626 316.343 171.626C316.471 171.626 316.595 171.576 316.686 171.487C316.773 171.398 316.824 171.285 316.824 171.144C316.824 171.018 316.773 170.905 316.686 170.815C316.508 170.638 316.192 170.638 316.014 170.815Z" fill="#B1C3B9"/>
<path d="M317.987 165.902C317.92 165.968 317.881 166.053 317.881 166.146C317.881 166.251 317.92 166.337 317.987 166.402C318.054 166.467 318.137 166.505 318.232 166.505C318.327 166.505 318.421 166.469 318.488 166.402C318.553 166.337 318.59 166.251 318.59 166.146C318.59 166.053 318.553 165.968 318.488 165.902C318.354 165.769 318.119 165.769 317.987 165.902Z" fill="#B1C3B9"/>
<path d="M316.641 160.983C316.569 161.054 316.529 161.144 316.529 161.243C316.529 161.355 316.569 161.445 316.641 161.514C316.711 161.586 316.799 161.626 316.9 161.626C317.001 161.626 317.102 161.586 317.173 161.514C317.242 161.445 317.282 161.355 317.282 161.243C317.282 161.144 317.242 161.054 317.173 160.983C317.032 160.844 316.781 160.844 316.641 160.983Z" fill="#B1C3B9"/>
<path d="M316.543 156.049C316.473 156.117 316.434 156.207 316.434 156.304C316.434 156.413 316.473 156.502 316.543 156.572C316.611 156.641 316.701 156.679 316.798 156.679C316.898 156.679 316.996 156.641 317.065 156.572C317.132 156.502 317.173 156.413 317.173 156.304C317.173 156.207 317.132 156.117 317.065 156.049C316.926 155.912 316.681 155.912 316.543 156.049Z" fill="#B1C3B9"/>
<path d="M317.013 151.199C316.971 151.241 316.947 151.294 316.947 151.353C316.947 151.418 316.971 151.472 317.013 151.513C317.053 151.553 317.107 151.578 317.167 151.578C317.226 151.578 317.284 151.553 317.326 151.513C317.367 151.472 317.392 151.418 317.392 151.353C317.392 151.295 317.367 151.241 317.326 151.199C317.242 151.118 317.094 151.118 317.013 151.199Z" fill="#B1C3B9"/>
<path d="M317.28 146.214C317.231 146.264 317.203 146.33 317.203 146.4C317.203 146.48 317.231 146.545 317.28 146.593C317.329 146.644 317.396 146.673 317.467 146.673C317.539 146.673 317.608 146.644 317.661 146.593C317.709 146.545 317.739 146.48 317.739 146.4C317.739 146.33 317.709 146.266 317.661 146.214C317.559 146.115 317.38 146.115 317.28 146.214Z" fill="#B1C3B9"/>
<path d="M164.511 179.229C164.461 179.28 164.434 179.344 164.434 179.414C164.434 179.492 164.461 179.555 164.511 179.604C164.56 179.655 164.624 179.682 164.694 179.682C164.766 179.682 164.836 179.655 164.888 179.604C164.935 179.555 164.964 179.491 164.964 179.414C164.964 179.344 164.935 179.28 164.888 179.229C164.788 179.131 164.611 179.131 164.511 179.229Z" fill="#B1C3B9"/>
<path d="M161.347 177.04C161.476 177.04 161.607 176.989 161.698 176.896C161.788 176.807 161.839 176.691 161.839 176.547C161.839 176.418 161.788 176.302 161.698 176.211C161.515 176.029 161.19 176.029 161.01 176.211C160.918 176.302 160.867 176.418 160.867 176.547C160.867 176.691 160.918 176.807 161.01 176.896C161.1 176.989 161.217 177.04 161.347 177.04Z" fill="#B1C3B9"/>
<path d="M157.822 172.618C157.758 172.682 157.721 172.765 157.721 172.856C157.721 172.958 157.758 173.042 157.822 173.103C157.888 173.17 157.971 173.208 158.062 173.208C158.154 173.208 158.245 173.17 158.31 173.103C158.374 173.039 158.411 172.958 158.411 172.856C158.411 172.765 158.374 172.682 158.31 172.618C158.181 172.488 157.95 172.488 157.822 172.618Z" fill="#B1C3B9"/>
<path d="M155.956 168.568C155.861 168.664 155.805 168.788 155.805 168.926C155.805 169.077 155.861 169.2 155.956 169.296C156.055 169.393 156.175 169.447 156.313 169.447C156.451 169.447 156.589 169.393 156.683 169.296C156.779 169.2 156.836 169.077 156.836 168.926C156.836 168.788 156.779 168.664 156.683 168.568C156.493 168.375 156.15 168.375 155.956 168.568Z" fill="#B1C3B9"/>
<path d="M155.043 164.416C154.976 164.482 154.941 164.565 154.941 164.659C154.941 164.763 154.976 164.847 155.043 164.909C155.108 164.976 155.193 165.014 155.286 165.014C155.38 165.014 155.473 164.976 155.538 164.909C155.602 164.847 155.64 164.763 155.64 164.659C155.64 164.565 155.602 164.482 155.538 164.416C155.408 164.286 155.174 164.286 155.043 164.416Z" fill="#B1C3B9"/>
<path d="M153.581 159.361C153.485 159.457 153.432 159.579 153.432 159.714C153.432 159.863 153.485 159.984 153.581 160.08C153.677 160.176 153.798 160.229 153.934 160.229C154.071 160.229 154.204 160.176 154.3 160.08C154.395 159.984 154.45 159.863 154.45 159.714C154.45 159.579 154.395 159.455 154.3 159.361C154.109 159.169 153.77 159.169 153.581 159.361Z" fill="#B1C3B9"/>
<path d="M160.236 123.641C160.331 123.641 160.425 123.603 160.493 123.536C160.559 123.469 160.597 123.384 160.597 123.279C160.597 123.185 160.559 123.099 160.493 123.034C160.36 122.9 160.122 122.9 159.988 123.034C159.923 123.099 159.885 123.185 159.885 123.279C159.885 123.384 159.923 123.469 159.988 123.536C160.056 123.603 160.142 123.641 160.236 123.641Z" fill="#B1C3B9"/>
<path d="M161.099 128.213C161.051 128.261 161.023 128.322 161.023 128.389C161.023 128.464 161.051 128.527 161.099 128.575C161.147 128.623 161.209 128.647 161.276 128.647C161.344 128.647 161.413 128.623 161.459 128.575C161.507 128.527 161.533 128.464 161.533 128.389C161.533 128.322 161.507 128.26 161.459 128.213C161.365 128.119 161.193 128.119 161.099 128.213Z" fill="#B1C3B9"/>
<path d="M161.593 138.443C161.653 138.505 161.728 138.537 161.812 138.537C161.898 138.537 161.982 138.502 162.042 138.443C162.101 138.385 162.133 138.309 162.133 138.216C162.133 138.132 162.101 138.056 162.042 137.997C161.921 137.879 161.711 137.879 161.593 137.997C161.533 138.056 161.5 138.132 161.5 138.216C161.5 138.309 161.533 138.385 161.593 138.443Z" fill="#B1C3B9"/>
<path d="M159.782 143.581C159.898 143.581 160.012 143.535 160.093 143.454C160.171 143.377 160.216 143.272 160.216 143.144C160.216 143.031 160.171 142.928 160.093 142.848C159.932 142.687 159.644 142.687 159.486 142.848C159.406 142.929 159.359 143.031 159.359 143.144C159.359 143.272 159.406 143.377 159.486 143.454C159.564 143.535 159.669 143.581 159.782 143.581Z" fill="#B1C3B9"/>
<path d="M161.007 148.389C161.108 148.389 161.21 148.347 161.281 148.276C161.351 148.206 161.39 148.115 161.39 148C161.39 147.901 161.351 147.81 161.281 147.737C161.137 147.596 160.883 147.596 160.742 147.737C160.671 147.81 160.629 147.901 160.629 148C160.629 148.115 160.671 148.206 160.742 148.276C160.812 148.347 160.905 148.389 161.007 148.389Z" fill="#B1C3B9"/>
<path d="M161.254 153.418C161.353 153.418 161.451 153.379 161.518 153.309C161.586 153.241 161.626 153.153 161.626 153.043C161.626 152.946 161.586 152.859 161.518 152.789C161.382 152.651 161.136 152.651 160.998 152.789C160.928 152.859 160.891 152.946 160.891 153.043C160.891 153.153 160.928 153.241 160.998 153.309C161.068 153.379 161.156 153.418 161.254 153.418Z" fill="#B1C3B9"/>
<path d="M164.499 157.511C164.57 157.585 164.665 157.624 164.766 157.624C164.872 157.624 164.974 157.585 165.047 157.511C165.116 157.44 165.158 157.347 165.158 157.232C165.158 157.131 165.116 157.036 165.047 156.965C164.901 156.82 164.643 156.82 164.499 156.965C164.425 157.036 164.383 157.131 164.383 157.232C164.383 157.347 164.425 157.44 164.499 157.511Z" fill="#B1C3B9"/>
<path d="M213.865 174.459C213.912 174.414 213.94 174.355 213.94 174.279C213.94 174.211 213.912 174.152 213.865 174.104C213.773 174.009 213.603 174.009 213.508 174.104C213.46 174.152 213.436 174.211 213.436 174.279C213.436 174.355 213.46 174.414 213.508 174.459C213.556 174.507 213.616 174.534 213.684 174.534C213.752 174.534 213.818 174.507 213.865 174.459Z" fill="#B1C3B9"/>
<path d="M218.958 172.978C219.009 172.929 219.038 172.862 219.038 172.781C219.038 172.71 219.01 172.643 218.958 172.592C218.855 172.49 218.673 172.49 218.57 172.592C218.519 172.643 218.49 172.71 218.49 172.781C218.49 172.862 218.519 172.929 218.57 172.978C218.621 173.031 218.688 173.06 218.76 173.06C218.834 173.06 218.907 173.031 218.958 172.978Z" fill="#B1C3B9"/>
<path d="M219.792 167.646C219.841 167.597 219.87 167.532 219.87 167.452C219.87 167.378 219.841 167.312 219.792 167.262C219.69 167.16 219.506 167.16 219.404 167.262C219.355 167.312 219.324 167.378 219.324 167.452C219.324 167.532 219.353 167.597 219.404 167.646C219.456 167.699 219.522 167.728 219.594 167.728C219.667 167.728 219.74 167.699 219.792 167.646Z" fill="#B1C3B9"/>
<path d="M223.396 163.722C223.396 163.815 223.43 163.89 223.491 163.95C223.55 164.011 223.626 164.044 223.712 164.044C223.797 164.044 223.882 164.011 223.941 163.95C224.001 163.89 224.034 163.815 224.034 163.722C224.034 163.636 224.001 163.56 223.941 163.499C223.821 163.38 223.61 163.38 223.491 163.499C223.43 163.56 223.396 163.636 223.396 163.722Z" fill="#B1C3B9"/>
<path d="M222.829 158.429C222.896 158.493 222.977 158.53 223.067 158.53C223.159 158.53 223.25 158.493 223.314 158.429C223.378 158.365 223.413 158.284 223.413 158.182C223.413 158.09 223.378 158.009 223.314 157.945C223.187 157.817 222.957 157.817 222.829 157.945C222.765 158.009 222.73 158.09 222.73 158.182C222.73 158.284 222.765 158.365 222.829 158.429Z" fill="#B1C3B9"/>
<path d="M221.822 153.389C221.896 153.315 221.94 153.219 221.94 153.1C221.94 152.994 221.896 152.898 221.822 152.822C221.671 152.673 221.405 152.673 221.256 152.822C221.18 152.898 221.137 152.994 221.137 153.1C221.137 153.219 221.18 153.315 221.256 153.389C221.33 153.464 221.426 153.508 221.533 153.508C221.641 153.508 221.747 153.464 221.822 153.389Z" fill="#B1C3B9"/>
<path d="M222.925 147.954C222.843 148.035 222.797 148.138 222.797 148.251C222.797 148.381 222.843 148.485 222.925 148.565C223.005 148.646 223.108 148.691 223.224 148.691C223.34 148.691 223.455 148.646 223.538 148.565C223.616 148.485 223.663 148.381 223.663 148.251C223.663 148.138 223.616 148.035 223.538 147.954C223.374 147.791 223.084 147.791 222.925 147.954Z" fill="#B1C3B9"/>
<path d="M225.124 143.513C225.178 143.458 225.211 143.386 225.211 143.298C225.211 143.219 225.178 143.147 225.124 143.091C225.011 142.98 224.81 142.98 224.701 143.091C224.643 143.147 224.611 143.219 224.611 143.298C224.611 143.386 224.643 143.458 224.701 143.513C224.757 143.57 224.829 143.602 224.909 143.602C224.989 143.602 225.067 143.57 225.124 143.513Z" fill="#B1C3B9"/>
<path d="M183.956 275.49C183.875 275.57 183.828 275.673 183.828 275.788C183.828 275.917 183.875 276.019 183.956 276.098C184.036 276.18 184.139 276.225 184.254 276.225C184.368 276.225 184.485 276.18 184.565 276.098C184.644 276.019 184.689 275.917 184.689 275.788C184.689 275.673 184.644 275.57 184.565 275.49C184.403 275.329 184.116 275.329 183.956 275.49Z" fill="#B1C3B9"/>
<path d="M178.744 275.108C178.657 275.195 178.609 275.306 178.609 275.429C178.609 275.566 178.657 275.676 178.744 275.762C178.83 275.849 178.942 275.898 179.065 275.898C179.189 275.898 179.312 275.849 179.398 275.762C179.484 275.676 179.533 275.566 179.533 275.429C179.533 275.306 179.484 275.195 179.398 275.108C179.225 274.935 178.916 274.935 178.744 275.108Z" fill="#B1C3B9"/>
<path d="M176.544 270.923C176.476 270.989 176.439 271.073 176.439 271.166C176.439 271.272 176.477 271.356 176.544 271.42C176.609 271.487 176.692 271.524 176.787 271.524C176.882 271.524 176.975 271.487 177.042 271.42C177.106 271.356 177.144 271.272 177.144 271.166C177.144 271.073 177.106 270.989 177.042 270.923C176.91 270.793 176.675 270.793 176.544 270.923Z" fill="#B1C3B9"/>
<path d="M170.526 269.476C170.457 269.544 170.416 269.631 170.416 269.728C170.416 269.839 170.457 269.926 170.526 269.994C170.595 270.064 170.682 270.101 170.779 270.101C170.879 270.101 170.977 270.064 171.045 269.994C171.112 269.926 171.152 269.839 171.152 269.728C171.152 269.631 171.112 269.544 171.045 269.476C170.907 269.338 170.661 269.338 170.526 269.476Z" fill="#B1C3B9"/>
<path d="M169.339 263.943C169.243 264.038 169.188 264.161 169.188 264.299C169.188 264.453 169.243 264.577 169.339 264.669C169.436 264.767 169.559 264.82 169.696 264.82C169.835 264.82 169.97 264.767 170.068 264.669C170.162 264.574 170.217 264.45 170.217 264.299C170.217 264.161 170.162 264.038 170.068 263.943C169.875 263.75 169.532 263.75 169.339 263.943Z" fill="#B1C3B9"/>
<path d="M167.672 260.061C167.672 259.95 167.627 259.85 167.55 259.77C167.393 259.613 167.111 259.613 166.955 259.77C166.876 259.85 166.832 259.95 166.832 260.061C166.832 260.187 166.876 260.286 166.955 260.364C167.034 260.444 167.136 260.488 167.246 260.488C167.358 260.488 167.47 260.444 167.55 260.364C167.627 260.286 167.672 260.187 167.672 260.061Z" fill="#B1C3B9"/>
<path d="M167.082 255.835C167.166 255.835 167.25 255.803 167.308 255.744C167.365 255.686 167.4 255.612 167.4 255.519C167.4 255.436 167.365 255.36 167.308 255.304C167.192 255.186 166.983 255.186 166.867 255.304C166.807 255.36 166.775 255.436 166.775 255.519C166.775 255.612 166.807 255.686 166.867 255.744C166.925 255.803 167.001 255.835 167.082 255.835Z" fill="#B1C3B9"/>
<path d="M298.701 226.392C298.787 226.309 298.835 226.199 298.835 226.061C298.835 225.94 298.787 225.83 298.701 225.744C298.529 225.573 298.224 225.573 298.053 225.744C297.967 225.83 297.918 225.94 297.918 226.061C297.918 226.199 297.967 226.309 298.053 226.392C298.139 226.478 298.248 226.527 298.37 226.527C298.493 226.527 298.615 226.478 298.701 226.392Z" fill="#B1C3B9"/>
<path d="M293.814 227.533C293.884 227.462 293.926 227.371 293.926 227.256C293.926 227.153 293.884 227.061 293.814 226.99C293.669 226.846 293.412 226.846 293.27 226.99C293.197 227.061 293.156 227.153 293.156 227.256C293.156 227.371 293.197 227.462 293.27 227.533C293.342 227.606 293.434 227.646 293.535 227.646C293.638 227.646 293.74 227.606 293.814 227.533Z" fill="#B1C3B9"/>
<path d="M288.352 227.365C288.284 227.432 288.246 227.516 288.246 227.612C288.246 227.716 288.284 227.802 288.352 227.866C288.417 227.934 288.503 227.972 288.598 227.972C288.692 227.972 288.786 227.934 288.855 227.866C288.92 227.802 288.958 227.716 288.958 227.612C288.958 227.516 288.92 227.432 288.855 227.365C288.721 227.233 288.483 227.233 288.352 227.365Z" fill="#B1C3B9"/>
<path d="M283.193 225.93C283.124 225.999 283.086 226.086 283.086 226.183C283.086 226.29 283.124 226.379 283.193 226.446C283.262 226.514 283.349 226.553 283.445 226.553C283.542 226.553 283.641 226.514 283.708 226.446C283.776 226.379 283.815 226.29 283.815 226.183C283.815 226.086 283.776 225.999 283.708 225.93C283.573 225.792 283.33 225.792 283.193 225.93Z" fill="#B1C3B9"/>
<path d="M278.657 229.412C278.598 229.472 278.564 229.549 278.564 229.633C278.564 229.729 278.598 229.806 278.657 229.864C278.717 229.925 278.795 229.96 278.881 229.96C278.967 229.96 279.053 229.925 279.112 229.864C279.17 229.806 279.204 229.729 279.204 229.633C279.204 229.549 279.17 229.472 279.112 229.412C278.99 229.292 278.778 229.292 278.657 229.412Z" fill="#B1C3B9"/>
<path d="M273.315 227.697C273.222 227.789 273.17 227.908 273.17 228.04C273.17 228.187 273.222 228.304 273.315 228.396C273.41 228.489 273.527 228.544 273.661 228.544C273.795 228.544 273.925 228.489 274.017 228.396C274.111 228.304 274.163 228.187 274.163 228.04C274.163 227.908 274.111 227.789 274.017 227.697C273.832 227.51 273.501 227.51 273.315 227.697Z" fill="#B1C3B9"/>
<path d="M268.672 230.591C268.61 230.652 268.576 230.728 268.576 230.814C268.576 230.909 268.61 230.988 268.672 231.047C268.732 231.107 268.807 231.14 268.893 231.14C268.981 231.14 269.067 231.107 269.127 231.047C269.186 230.988 269.22 230.909 269.22 230.814C269.22 230.728 269.186 230.652 269.127 230.591C269.005 230.471 268.79 230.471 268.672 230.591Z" fill="#B1C3B9"/>
<path d="M263.672 230.589C263.601 230.658 263.559 230.75 263.559 230.851C263.559 230.965 263.601 231.058 263.672 231.127C263.743 231.198 263.833 231.238 263.935 231.238C264.036 231.238 264.138 231.198 264.211 231.127C264.281 231.055 264.321 230.963 264.321 230.851C264.321 230.75 264.281 230.658 264.211 230.589C264.067 230.445 263.813 230.445 263.672 230.589Z" fill="#B1C3B9"/>
<path d="M329.915 226.514C329.87 226.559 329.844 226.62 329.844 226.685C329.844 226.759 329.87 226.819 329.915 226.864C329.963 226.91 330.021 226.936 330.086 226.936C330.155 226.936 330.22 226.91 330.266 226.864C330.311 226.819 330.338 226.759 330.338 226.685C330.338 226.62 330.311 226.559 330.266 226.514C330.172 226.422 330.006 226.422 329.915 226.514Z" fill="#B1C3B9"/>
<path d="M325.391 225.689C325.433 225.647 325.46 225.593 325.46 225.528C325.46 225.468 325.433 225.415 325.391 225.371C325.308 225.287 325.156 225.287 325.073 225.371C325.031 225.415 325.008 225.468 325.008 225.528C325.008 225.593 325.031 225.647 325.073 225.689C325.117 225.733 325.17 225.754 325.23 225.754C325.29 225.754 325.351 225.731 325.391 225.689Z" fill="#B1C3B9"/>
<path d="M320.246 222.962C320.156 223.052 320.105 223.168 320.105 223.295C320.105 223.439 320.156 223.555 320.246 223.642C320.336 223.733 320.451 223.786 320.579 223.786C320.708 223.786 320.836 223.733 320.928 223.642C321.016 223.555 321.067 223.439 321.067 223.295C321.067 223.168 321.016 223.052 320.928 222.962C320.747 222.781 320.426 222.781 320.246 222.962Z" fill="#B1C3B9"/>
<path d="M315.615 220.886C315.615 221.019 315.665 221.128 315.749 221.21C315.835 221.295 315.942 221.346 316.064 221.346C316.186 221.346 316.305 221.295 316.391 221.21C316.475 221.127 316.523 221.019 316.523 220.886C316.523 220.764 316.475 220.656 316.391 220.571C316.221 220.401 315.919 220.401 315.749 220.571C315.665 220.656 315.615 220.764 315.615 220.886Z" fill="#B1C3B9"/>
<path d="M311.306 220.576C311.355 220.524 311.385 220.462 311.385 220.379C311.385 220.308 311.355 220.243 311.306 220.19C311.202 220.089 311.021 220.089 310.919 220.19C310.867 220.243 310.838 220.308 310.838 220.379C310.838 220.462 310.867 220.527 310.919 220.576C310.969 220.629 311.035 220.656 311.108 220.656C311.182 220.656 311.253 220.629 311.306 220.576Z" fill="#B1C3B9"/>
<path d="M374.703 165.497C374.818 165.497 374.932 165.452 375.011 165.369C375.091 165.292 375.137 165.188 375.137 165.062C375.137 164.948 375.091 164.844 375.011 164.764C374.85 164.603 374.565 164.603 374.404 164.764C374.324 164.844 374.277 164.948 374.277 165.062C374.277 165.188 374.324 165.292 374.404 165.369C374.485 165.452 374.587 165.497 374.703 165.497Z" fill="#B1C3B9"/>
<path d="M370.748 168.105C370.657 168.194 370.607 168.31 370.607 168.438C370.607 168.579 370.658 168.695 370.748 168.782C370.838 168.873 370.952 168.923 371.079 168.923C371.209 168.923 371.337 168.873 371.427 168.782C371.515 168.695 371.566 168.579 371.566 168.438C371.566 168.31 371.515 168.194 371.427 168.105C371.247 167.925 370.926 167.925 370.748 168.105Z" fill="#B1C3B9"/>
<path d="M366.888 171.526C366.845 171.57 366.818 171.628 366.818 171.689C366.818 171.761 366.845 171.82 366.888 171.863C366.935 171.908 366.993 171.933 367.054 171.933C367.119 171.933 367.181 171.907 367.227 171.863C367.272 171.82 367.298 171.761 367.298 171.689C367.298 171.628 367.272 171.57 367.227 171.526C367.138 171.436 366.978 171.436 366.888 171.526Z" fill="#B1C3B9"/>
<path d="M362.444 173.916C362.357 174.003 362.305 174.117 362.305 174.243C362.305 174.384 362.356 174.497 362.444 174.586C362.534 174.674 362.647 174.725 362.774 174.725C362.899 174.725 363.027 174.674 363.114 174.586C363.202 174.497 363.253 174.384 363.253 174.243C363.253 174.117 363.202 174.003 363.114 173.916C362.937 173.739 362.621 173.739 362.444 173.916Z" fill="#B1C3B9"/>
<path d="M357.235 174.667C357.155 174.744 357.111 174.846 357.111 174.958C357.111 175.084 357.155 175.186 357.235 175.262C357.315 175.342 357.415 175.389 357.528 175.389C357.642 175.389 357.753 175.342 357.833 175.262C357.91 175.186 357.957 175.084 357.957 174.958C357.957 174.846 357.91 174.744 357.833 174.667C357.675 174.507 357.392 174.507 357.235 174.667Z" fill="#B1C3B9"/>
<path d="M352.45 175.74C352.402 175.788 352.377 175.848 352.377 175.914C352.377 175.987 352.402 176.048 352.45 176.093C352.496 176.141 352.556 176.167 352.621 176.167C352.689 176.167 352.755 176.141 352.803 176.093C352.849 176.048 352.875 175.987 352.875 175.914C352.875 175.848 352.849 175.788 352.803 175.74C352.71 175.649 352.543 175.649 352.45 175.74Z" fill="#B1C3B9"/>
<path d="M347.104 174.674C347.03 174.747 346.988 174.843 346.988 174.946C346.988 175.062 347.03 175.157 347.104 175.229C347.179 175.303 347.272 175.344 347.375 175.344C347.481 175.344 347.585 175.303 347.658 175.229C347.731 175.157 347.773 175.062 347.773 174.946C347.773 174.843 347.731 174.747 347.658 174.674C347.511 174.528 347.25 174.528 347.104 174.674Z" fill="#B1C3B9"/>
<path d="M342.444 173.015C342.399 173.06 342.373 173.118 342.373 173.183C342.373 173.256 342.399 173.312 342.444 173.359C342.489 173.404 342.549 173.43 342.613 173.43C342.678 173.43 342.743 173.404 342.79 173.359C342.834 173.312 342.86 173.256 342.86 173.183C342.86 173.118 342.834 173.06 342.79 173.015C342.698 172.922 342.534 172.922 342.444 173.015Z" fill="#B1C3B9"/>
<path d="M338.39 169.602C338.308 169.686 338.26 169.791 338.26 169.909C338.26 170.041 338.308 170.145 338.39 170.228C338.473 170.311 338.578 170.357 338.696 170.357C338.816 170.357 338.934 170.311 339.017 170.228C339.099 170.145 339.144 170.041 339.144 169.909C339.144 169.791 339.099 169.686 339.017 169.602C338.849 169.437 338.555 169.437 338.39 169.602Z" fill="#B1C3B9"/>
<path d="M337.246 164.758C337.203 164.8 337.182 164.854 337.182 164.912C337.182 164.976 337.203 165.03 337.246 165.069C337.288 165.111 337.34 165.134 337.4 165.134C337.458 165.134 337.517 165.111 337.556 165.069C337.599 165.03 337.623 164.976 337.623 164.912C337.623 164.854 337.599 164.8 337.556 164.758C337.475 164.677 337.328 164.677 337.246 164.758Z" fill="#B1C3B9"/>
<path d="M332.051 162.066C331.993 162.124 331.961 162.197 331.961 162.28C331.961 162.371 331.993 162.444 332.051 162.5C332.109 162.558 332.183 162.592 332.265 162.592C332.347 162.592 332.43 162.558 332.488 162.5C332.543 162.444 332.577 162.371 332.577 162.28C332.577 162.197 332.543 162.124 332.488 162.066C332.372 161.95 332.167 161.95 332.051 162.066Z" fill="#B1C3B9"/>
<path d="M367.553 115.304C367.483 115.374 367.445 115.461 367.445 115.558C367.445 115.669 367.483 115.757 367.553 115.826C367.623 115.895 367.711 115.935 367.81 115.935C367.907 115.935 368.007 115.895 368.077 115.826C368.145 115.757 368.185 115.669 368.185 115.558C368.185 115.461 368.145 115.371 368.077 115.304C367.938 115.166 367.691 115.166 367.553 115.304Z" fill="#B1C3B9"/>
<path d="M362.407 114.344C362.309 114.442 362.252 114.569 362.252 114.709C362.252 114.864 362.309 114.991 362.407 115.086C362.505 115.188 362.633 115.242 362.772 115.242C362.914 115.242 363.054 115.188 363.153 115.086C363.251 114.991 363.306 114.864 363.306 114.709C363.306 114.569 363.251 114.442 363.153 114.344C362.954 114.147 362.603 114.147 362.407 114.344Z" fill="#B1C3B9"/>
<path d="M357.979 110.916C357.921 110.974 357.889 111.048 357.889 111.13C357.889 111.221 357.921 111.295 357.979 111.352C358.037 111.41 358.109 111.442 358.192 111.442C358.275 111.442 358.358 111.41 358.414 111.352C358.473 111.295 358.505 111.221 358.505 111.13C358.505 111.048 358.473 110.974 358.414 110.916C358.3 110.8 358.093 110.8 357.979 110.916Z" fill="#B1C3B9"/>
<path d="M352.889 112.582C352.889 112.729 352.942 112.846 353.035 112.938C353.128 113.032 353.246 113.083 353.378 113.083C353.51 113.083 353.643 113.032 353.734 112.938C353.826 112.846 353.878 112.729 353.878 112.582C353.878 112.45 353.826 112.332 353.734 112.239C353.55 112.056 353.218 112.056 353.035 112.239C352.941 112.332 352.889 112.45 352.889 112.582Z" fill="#B1C3B9"/>
<path d="M347.592 112.258C347.551 112.299 347.529 112.351 347.529 112.406C347.529 112.47 347.551 112.522 347.592 112.561C347.632 112.601 347.685 112.625 347.741 112.625C347.798 112.625 347.856 112.601 347.897 112.561C347.936 112.522 347.958 112.47 347.958 112.406C347.958 112.351 347.936 112.299 347.897 112.258C347.814 112.177 347.672 112.177 347.592 112.258Z" fill="#B1C3B9"/>
<path d="M344.177 116.636C344.241 116.636 344.305 116.613 344.35 116.566C344.393 116.523 344.418 116.465 344.418 116.395C344.418 116.331 344.393 116.276 344.35 116.229C344.261 116.142 344.101 116.142 344.013 116.229C343.968 116.276 343.941 116.331 343.941 116.395C343.941 116.468 343.968 116.523 344.013 116.566C344.058 116.613 344.113 116.636 344.177 116.636Z" fill="#B1C3B9"/>
<path d="M340.033 119.343C339.992 119.385 339.969 119.437 339.969 119.495C339.969 119.558 339.992 119.61 340.033 119.65C340.075 119.691 340.126 119.713 340.184 119.713C340.242 119.713 340.3 119.691 340.339 119.65C340.38 119.61 340.403 119.558 340.403 119.495C340.403 119.437 340.38 119.385 340.339 119.343C340.259 119.263 340.114 119.263 340.033 119.343Z" fill="#B1C3B9"/>
<path d="M336.195 122.012C336.136 122.074 336.1 122.151 336.1 122.24C336.1 122.334 336.136 122.414 336.195 122.473C336.258 122.536 336.335 122.569 336.424 122.569C336.511 122.569 336.596 122.536 336.657 122.473C336.718 122.414 336.753 122.337 336.753 122.24C336.753 122.151 336.72 122.074 336.657 122.012C336.537 121.891 336.319 121.891 336.195 122.012Z" fill="#B1C3B9"/>
<path d="M331.72 124.487C331.678 124.529 331.654 124.583 331.654 124.642C331.654 124.708 331.678 124.762 331.72 124.802C331.762 124.846 331.816 124.87 331.875 124.87C331.935 124.87 331.996 124.846 332.036 124.802C332.078 124.762 332.103 124.708 332.103 124.642C332.103 124.583 332.078 124.529 332.036 124.487C331.954 124.404 331.804 124.404 331.72 124.487Z" fill="#B1C3B9"/>
<path d="M327.702 128.864C327.659 128.904 327.635 128.957 327.635 129.016C327.635 129.083 327.659 129.134 327.702 129.176C327.742 129.218 327.795 129.241 327.854 129.241C327.914 129.241 327.972 129.218 328.014 129.176C328.056 129.134 328.079 129.083 328.079 129.016C328.079 128.957 328.056 128.904 328.014 128.864C327.93 128.779 327.783 128.779 327.702 128.864Z" fill="#B1C3B9"/>
<path d="M330.715 134.091C330.664 134.139 330.637 134.203 330.637 134.271C330.637 134.348 330.664 134.408 330.715 134.457C330.762 134.505 330.824 134.534 330.894 134.534C330.964 134.534 331.032 134.505 331.081 134.457C331.129 134.41 331.155 134.348 331.155 134.271C331.155 134.201 331.129 134.139 331.081 134.091C330.984 133.994 330.81 133.994 330.715 134.091Z" fill="#B1C3B9"/>
<path d="M385.484 147.62C385.421 147.686 385.383 147.768 385.383 147.859C385.383 147.961 385.421 148.045 385.484 148.109C385.548 148.171 385.631 148.209 385.723 148.209C385.814 148.209 385.907 148.171 385.973 148.109C386.036 148.045 386.071 147.961 386.071 147.859C386.071 147.768 386.036 147.686 385.973 147.62C385.843 147.493 385.611 147.493 385.484 147.62Z" fill="#B1C3B9"/>
<path d="M380.379 146.521C380.312 146.587 380.277 146.673 380.277 146.765C380.277 146.869 380.312 146.953 380.379 147.019C380.446 147.085 380.53 147.123 380.625 147.123C380.717 147.123 380.812 147.085 380.877 147.019C380.943 146.953 380.98 146.869 380.98 146.765C380.98 146.673 380.943 146.587 380.877 146.521C380.745 146.39 380.51 146.39 380.379 146.521Z" fill="#B1C3B9"/>
<path d="M397.168 143.192C397.251 143.192 397.331 143.16 397.389 143.104C397.447 143.046 397.479 142.975 397.479 142.882C397.479 142.8 397.447 142.726 397.389 142.671C397.275 142.555 397.071 142.555 396.956 142.671C396.899 142.726 396.867 142.8 396.867 142.882C396.867 142.975 396.899 143.046 396.956 143.104C397.014 143.16 397.087 143.192 397.168 143.192Z" fill="#B1C3B9"/>
<path d="M395.775 148.029C395.842 148.029 395.909 148.003 395.954 147.955C396 147.912 396.027 147.852 396.027 147.778C396.027 147.713 396 147.652 395.954 147.607C395.861 147.512 395.695 147.512 395.604 147.607C395.557 147.652 395.531 147.713 395.531 147.778C395.531 147.852 395.557 147.909 395.604 147.955C395.649 148.003 395.708 148.029 395.775 148.029Z" fill="#B1C3B9"/>
<path d="M397.204 152.606C397.156 152.651 397.127 152.71 397.127 152.779C397.127 152.853 397.156 152.912 397.204 152.96C397.249 153.005 397.309 153.034 397.377 153.034C397.442 153.034 397.51 153.005 397.555 152.96C397.603 152.914 397.63 152.853 397.63 152.779C397.63 152.713 397.603 152.651 397.555 152.606C397.462 152.512 397.295 152.512 397.204 152.606Z" fill="#B1C3B9"/>
<path d="M397.312 157.732C397.312 157.855 397.356 157.955 397.436 158.031C397.511 158.108 397.612 158.153 397.722 158.153C397.834 158.153 397.944 158.108 398.021 158.031C398.1 157.955 398.143 157.855 398.143 157.732C398.143 157.62 398.1 157.521 398.021 157.443C397.866 157.287 397.588 157.287 397.436 157.443C397.356 157.521 397.312 157.62 397.312 157.732Z" fill="#B1C3B9"/>
<path d="M396.919 163.012C397.015 163.012 397.111 162.974 397.179 162.907C397.244 162.84 397.282 162.755 397.282 162.647C397.282 162.551 397.244 162.466 397.179 162.399C397.042 162.265 396.804 162.265 396.67 162.399C396.602 162.466 396.564 162.551 396.564 162.647C396.564 162.753 396.602 162.84 396.67 162.907C396.737 162.974 396.823 163.012 396.919 163.012Z" fill="#B1C3B9"/>
<path d="M397.211 167.385C397.15 167.446 397.115 167.523 397.115 167.61C397.115 167.706 397.15 167.786 397.211 167.845C397.274 167.908 397.351 167.941 397.436 167.941C397.525 167.941 397.612 167.908 397.672 167.845C397.734 167.786 397.767 167.706 397.767 167.61C397.767 167.523 397.734 167.446 397.672 167.385C397.55 167.262 397.333 167.262 397.211 167.385Z" fill="#B1C3B9"/>
<path d="M320.255 104.163C320.183 104.234 320.141 104.325 320.141 104.43C320.141 104.545 320.183 104.636 320.255 104.709C320.328 104.78 320.42 104.822 320.524 104.822C320.627 104.822 320.729 104.781 320.803 104.709C320.874 104.636 320.915 104.545 320.915 104.43C320.915 104.325 320.874 104.234 320.803 104.163C320.658 104.018 320.401 104.018 320.255 104.163Z" fill="#B1C3B9"/>
<path d="M315.185 102.323C315.101 102.404 315.053 102.512 315.053 102.63C315.053 102.76 315.101 102.866 315.185 102.948C315.266 103.032 315.372 103.077 315.491 103.077C315.609 103.077 315.727 103.032 315.811 102.948C315.892 102.866 315.94 102.76 315.94 102.63C315.94 102.512 315.892 102.404 315.811 102.323C315.642 102.158 315.348 102.158 315.185 102.323Z" fill="#B1C3B9"/>
<path d="M310.447 105.837C310.379 105.905 310.34 105.992 310.34 106.088C310.34 106.196 310.379 106.284 310.447 106.351C310.514 106.419 310.603 106.457 310.699 106.457C310.796 106.457 310.892 106.419 310.962 106.351C311.027 106.284 311.066 106.199 311.066 106.088C311.066 105.992 311.027 105.905 310.962 105.837C310.824 105.702 310.582 105.702 310.447 105.837Z" fill="#B1C3B9"/>
<path d="M305.261 102.195C305.172 102.282 305.121 102.396 305.121 102.519C305.121 102.658 305.172 102.77 305.261 102.857C305.349 102.947 305.461 102.995 305.586 102.995C305.711 102.995 305.836 102.947 305.924 102.857C306.01 102.772 306.061 102.658 306.061 102.519C306.061 102.396 306.01 102.282 305.924 102.195C305.747 102.02 305.435 102.02 305.261 102.195Z" fill="#B1C3B9"/>
<path d="M300.556 106.457C300.482 106.531 300.441 106.624 300.441 106.729C300.441 106.843 300.482 106.938 300.556 107.009C300.63 107.083 300.723 107.124 300.828 107.124C300.934 107.124 301.037 107.083 301.108 107.009C301.182 106.938 301.224 106.843 301.224 106.729C301.224 106.624 301.182 106.531 301.108 106.457C300.963 106.312 300.701 106.312 300.556 106.457Z" fill="#B1C3B9"/>
<path d="M295.609 105.873C295.547 105.939 295.508 106.021 295.508 106.114C295.508 106.216 295.547 106.3 295.609 106.364C295.676 106.429 295.758 106.464 295.849 106.464C295.944 106.464 296.035 106.427 296.1 106.364C296.164 106.3 296.201 106.216 296.201 106.114C296.201 106.021 296.164 105.939 296.1 105.873C295.971 105.744 295.74 105.744 295.609 105.873Z" fill="#B1C3B9"/>
<path d="M290.626 103.366C290.546 103.444 290.5 103.546 290.5 103.656C290.5 103.783 290.546 103.884 290.626 103.961C290.706 104.041 290.805 104.087 290.918 104.087C291.03 104.087 291.143 104.041 291.223 103.961C291.302 103.884 291.345 103.783 291.345 103.656C291.345 103.546 291.302 103.444 291.223 103.366C291.065 103.208 290.783 103.208 290.626 103.366Z" fill="#B1C3B9"/>
<path d="M285.683 104.646C285.618 104.715 285.58 104.8 285.58 104.893C285.58 104.999 285.618 105.085 285.683 105.15C285.751 105.216 285.837 105.255 285.93 105.255C286.026 105.255 286.12 105.216 286.187 105.15C286.254 105.085 286.292 104.999 286.292 104.893C286.292 104.8 286.254 104.715 286.187 104.646C286.055 104.513 285.817 104.513 285.683 104.646Z" fill="#B1C3B9"/>
<path d="M280.869 103.392C280.827 103.434 280.801 103.489 280.801 103.551C280.801 103.621 280.827 103.675 280.869 103.718C280.913 103.762 280.969 103.787 281.03 103.787C281.093 103.787 281.154 103.762 281.199 103.718C281.239 103.676 281.264 103.621 281.264 103.551C281.264 103.489 281.239 103.434 281.199 103.392C281.11 103.305 280.955 103.305 280.869 103.392Z" fill="#B1C3B9"/>
<path d="M275.749 103.048C275.656 103.139 275.605 103.254 275.605 103.384C275.605 103.53 275.656 103.644 275.749 103.734C275.838 103.826 275.956 103.878 276.086 103.878C276.216 103.878 276.345 103.826 276.436 103.734C276.526 103.644 276.577 103.53 276.577 103.384C276.577 103.254 276.526 103.139 276.436 103.048C276.253 102.866 275.929 102.866 275.749 103.048Z" fill="#B1C3B9"/>
<path d="M270.885 104.447C270.827 104.506 270.795 104.58 270.795 104.658C270.795 104.751 270.827 104.824 270.885 104.88C270.943 104.937 271.014 104.969 271.097 104.969C271.178 104.969 271.26 104.937 271.318 104.88C271.373 104.824 271.405 104.751 271.405 104.658C271.405 104.58 271.373 104.506 271.318 104.447C271.202 104.334 270.998 104.334 270.885 104.447Z" fill="#B1C3B9"/>
<path d="M266.061 102.326C266.017 102.37 265.994 102.426 265.994 102.487C265.994 102.555 266.017 102.611 266.061 102.656C266.106 102.699 266.161 102.722 266.224 102.722C266.285 102.722 266.347 102.699 266.391 102.656C266.433 102.611 266.459 102.555 266.459 102.487C266.459 102.426 266.433 102.37 266.391 102.326C266.302 102.24 266.147 102.24 266.061 102.326Z" fill="#B1C3B9"/>
<path d="M260.884 105.397C260.797 105.486 260.746 105.596 260.746 105.722C260.746 105.862 260.797 105.974 260.884 106.061C260.973 106.148 261.083 106.199 261.209 106.199C261.334 106.199 261.461 106.148 261.548 106.061C261.635 105.974 261.686 105.862 261.686 105.722C261.686 105.596 261.635 105.486 261.548 105.397C261.372 105.223 261.06 105.223 260.884 105.397Z" fill="#B1C3B9"/>
<path d="M255.978 101.996C255.898 102.075 255.852 102.176 255.852 102.291C255.852 102.417 255.898 102.519 255.978 102.597C256.058 102.679 256.16 102.725 256.273 102.725C256.389 102.725 256.499 102.679 256.582 102.597C256.659 102.519 256.706 102.417 256.706 102.291C256.706 102.176 256.659 102.075 256.582 101.996C256.42 101.837 256.138 101.837 255.978 101.996Z" fill="#B1C3B9"/>
<path d="M251.03 102.201C250.947 102.281 250.902 102.384 250.902 102.5C250.902 102.626 250.947 102.731 251.03 102.811C251.11 102.892 251.213 102.936 251.326 102.936C251.444 102.936 251.557 102.892 251.64 102.811C251.717 102.731 251.765 102.626 251.765 102.5C251.765 102.384 251.717 102.281 251.64 102.201C251.476 102.04 251.188 102.04 251.03 102.201Z" fill="#B1C3B9"/>
<path d="M246.02 105.574C245.924 105.67 245.869 105.792 245.869 105.927C245.869 106.078 245.924 106.201 246.02 106.294C246.116 106.392 246.238 106.445 246.373 106.445C246.508 106.445 246.645 106.392 246.739 106.294C246.834 106.2 246.887 106.078 246.887 105.927C246.887 105.792 246.834 105.67 246.739 105.574C246.549 105.385 246.209 105.385 246.02 105.574Z" fill="#B1C3B9"/>
<path d="M241.163 101.815C241.089 101.887 241.047 101.983 241.047 102.089C241.047 102.208 241.089 102.303 241.163 102.377C241.239 102.452 241.334 102.493 241.439 102.493C241.545 102.493 241.653 102.452 241.727 102.377C241.801 102.303 241.844 102.208 241.844 102.089C241.844 101.983 241.801 101.887 241.727 101.815C241.577 101.665 241.313 101.665 241.163 101.815Z" fill="#B1C3B9"/>
<path d="M236.165 103.91C236.079 103.996 236.031 104.103 236.031 104.224C236.031 104.357 236.079 104.468 236.165 104.55C236.251 104.636 236.358 104.684 236.48 104.684C236.602 104.684 236.721 104.636 236.807 104.55C236.891 104.468 236.939 104.357 236.939 104.224C236.939 104.103 236.891 103.996 236.807 103.91C236.637 103.74 236.335 103.74 236.165 103.91Z" fill="#B1C3B9"/>
<path d="M231.24 104.244C231.155 104.328 231.107 104.436 231.107 104.553C231.107 104.684 231.155 104.792 231.24 104.874C231.321 104.957 231.428 105.005 231.549 105.005C231.667 105.005 231.786 104.957 231.87 104.874C231.951 104.79 231.999 104.684 231.999 104.553C231.999 104.433 231.951 104.328 231.87 104.244C231.702 104.077 231.405 104.077 231.24 104.244Z" fill="#B1C3B9"/>
<path d="M226.34 105.612C226.245 105.705 226.191 105.824 226.191 105.955C226.191 106.104 226.245 106.223 226.34 106.313C226.431 106.409 226.55 106.461 226.682 106.461C226.816 106.461 226.95 106.409 227.041 106.313C227.133 106.223 227.186 106.104 227.186 105.955C227.186 105.824 227.133 105.705 227.041 105.612C226.855 105.425 226.523 105.425 226.34 105.612Z" fill="#B1C3B9"/>
<path d="M221.47 105.837C221.396 105.91 221.354 106.003 221.354 106.107C221.354 106.222 221.396 106.313 221.47 106.386C221.541 106.459 221.635 106.501 221.738 106.501C221.843 106.501 221.946 106.459 222.02 106.386C222.091 106.316 222.134 106.222 222.134 106.107C222.134 106.003 222.091 105.91 222.02 105.837C221.875 105.69 221.614 105.69 221.47 105.837Z" fill="#B1C3B9"/>
<path d="M216.316 103.331C216.232 103.412 216.184 103.517 216.184 103.634C216.184 103.766 216.232 103.872 216.316 103.951C216.397 104.035 216.503 104.083 216.621 104.083C216.738 104.083 216.856 104.035 216.939 103.951C217.02 103.872 217.067 103.766 217.067 103.634C217.067 103.517 217.02 103.412 216.939 103.331C216.773 103.165 216.478 103.165 216.316 103.331Z" fill="#B1C3B9"/>
<path d="M206.881 119.61C206.805 119.685 206.762 119.781 206.762 119.889C206.762 120.006 206.805 120.103 206.881 120.177C206.955 120.253 207.052 120.295 207.158 120.295C207.266 120.295 207.373 120.253 207.447 120.177C207.521 120.103 207.565 120.006 207.565 119.889C207.565 119.781 207.521 119.685 207.447 119.61C207.298 119.46 207.03 119.46 206.881 119.61Z" fill="#B1C3B9"/>
<path d="M205.595 115.242C205.659 115.242 205.723 115.216 205.766 115.172C205.81 115.129 205.836 115.071 205.836 115.001C205.836 114.94 205.81 114.882 205.766 114.838C205.676 114.748 205.519 114.748 205.429 114.838C205.386 114.882 205.359 114.94 205.359 115.001C205.359 115.071 205.386 115.129 205.429 115.172C205.476 115.216 205.531 115.242 205.595 115.242Z" fill="#B1C3B9"/>
<path d="M203.77 110.439C203.856 110.526 203.967 110.574 204.091 110.574C204.214 110.574 204.338 110.526 204.423 110.439C204.509 110.353 204.56 110.241 204.56 110.103C204.56 109.983 204.509 109.871 204.423 109.784C204.251 109.612 203.941 109.612 203.77 109.784C203.683 109.871 203.635 109.983 203.635 110.103C203.635 110.241 203.683 110.353 203.77 110.439Z" fill="#B1C3B9"/>
<path d="M204.101 105.568C204.209 105.568 204.315 105.526 204.39 105.451C204.464 105.378 204.508 105.279 204.508 105.162C204.508 105.054 204.464 104.96 204.39 104.883C204.239 104.735 203.972 104.735 203.822 104.883C203.747 104.96 203.703 105.054 203.703 105.162C203.703 105.279 203.747 105.378 203.822 105.451C203.898 105.526 203.994 105.568 204.101 105.568Z" fill="#B1C3B9"/>
<mask id="mask1_1065_1360" style="mask-type:luminance" maskUnits="userSpaceOnUse" x="345" y="76" width="20" height="13">
<path d="M345.449 76.417H364.414V88.4705H345.449V76.417Z" fill="white"/>
</mask>
<g mask="url(#mask1_1065_1360)">
<path d="M350.617 88.138L355.815 87.7416C358.209 87.5877 361.062 87.383 364.134 87.261C364.022 86.3172 363.793 84.7126 362.589 84.5195C362.461 84.4977 362.333 84.4832 362.207 84.4672C362.384 83.6672 362.17 82.9179 362.079 82.0394C361.919 80.5772 361.951 79.0932 361.883 77.6295C361.843 76.8295 361.19 76.4272 360.45 76.5347C359.878 76.6204 359.317 76.6305 358.745 76.6407C358.183 76.6567 357.598 77.1358 357.647 77.737C357.833 80.0254 357.797 82.3269 357.954 84.6139C356.704 84.7635 355.458 84.9406 354.274 84.9769C353.387 85.0031 352.056 84.9566 350.708 85.0394C350.617 84.126 350.402 83.2228 350.29 82.3066C350.1 80.8124 350.008 79.3067 349.77 77.8125C349.681 77.2767 349.044 77.0226 348.576 77.1359C348.304 77.1823 348.039 77.2215 347.774 77.268C347.234 77.313 346.82 77.676 346.8 78.2409C346.727 80.7311 346.881 83.0457 347.407 85.5026C347.417 85.5592 347.447 85.6042 347.473 85.6565C346.351 86.124 345.635 86.9343 345.86 88.321C347.431 88.2615 349.02 88.199 350.617 88.138Z" fill="#4C4B62"/>
</g>
<path d="M381.887 80.0937C380.496 79.1092 377.3 79.7017 375.713 79.966C374.513 79.3939 373.12 79.6857 371.804 79.783C371.258 79.8222 370.685 80.2346 370.738 80.8488C370.886 82.7147 371.207 83.84 373.233 84.1464C373.57 84.1987 373.912 84.2379 374.248 84.2742C374.33 85.2935 374.488 86.3071 374.748 87.3032C376.299 87.399 377.841 87.5486 379.341 87.762C379.128 86.6439 378.953 85.5331 378.913 84.402C380.005 84.3816 381.091 84.3395 382.174 84.3265C382.724 84.3192 383.199 83.8662 383.195 83.3057C383.185 82.0613 382.949 80.8459 381.887 80.0937Z" fill="#4C4B62"/>
<path d="M243.57 158.015C242.488 158.009 241.416 157.96 240.339 157.893C238.746 157.796 238.354 158.279 237.808 156.695C236.956 154.243 236.313 151.325 235.186 148.765C234.12 148.919 233.139 149.155 232.329 149.516C229.976 150.505 228.854 151.845 228.357 153.469C228.674 154.232 229.011 154.982 229.318 155.715C230.225 157.903 230.822 160.711 232.008 162.737C232.93 164.307 236.42 163.521 237.895 163.588C240.104 163.69 244.126 164.715 246.041 163.421C246.391 163.18 246.529 162.752 246.315 162.358C245.861 161.532 245.173 158.025 243.57 158.015Z" fill="#4C4B62"/>
<path d="M201.049 192.643C200.99 192.161 200.931 191.679 200.892 191.196C201.071 191.207 201.251 191.212 201.43 191.2C201.709 191.181 202.034 191.162 202.297 191.045C202.237 191.634 202.213 192.224 202.207 192.823C201.825 192.739 201.438 192.678 201.049 192.643ZM201.95 195.269C201.733 195.283 201.489 195.286 201.251 195.311C201.29 194.962 201.251 194.592 201.221 194.213C201.221 194.211 201.221 194.209 201.221 194.209C201.54 194.158 201.857 194.081 202.172 193.997C202.149 194.416 202.136 194.846 202.172 195.26C202.098 195.263 202.024 195.264 201.95 195.269ZM193.126 215C193.114 215.205 193.11 215.41 193.11 215.615C193.11 216.132 193.082 216.686 193.333 217.151C192.656 216.997 191.946 217.012 191.246 217.039C190.268 217.081 189.286 217.113 188.312 217.206C188.338 216.994 188.339 216.772 188.338 216.537C188.331 216.079 188.329 215.629 188.293 215.179C189.047 215.384 189.872 215.297 190.656 215.253C190.754 215.247 190.851 215.242 190.948 215.234C191.14 215.699 191.792 215.684 191.955 215.195C191.959 215.185 191.961 215.175 191.965 215.165C192.354 215.13 192.739 215.079 193.126 215ZM203.395 190.173C203.356 189.69 202.65 189.505 202.474 189.963C202.457 189.948 202.442 189.932 202.422 189.919C201.863 189.568 200.892 189.73 200.374 190.086C200.202 190.202 200.106 190.425 200.102 190.637C199.993 190.714 199.913 190.835 199.905 191.013C199.878 191.537 199.875 192.06 199.877 192.585C198.88 192.578 197.875 192.649 196.879 192.68C195.239 192.728 193.542 192.622 191.916 192.879C191.648 190.413 191.321 187.952 190.995 185.448C190.907 184.78 189.979 184.748 189.93 185.448C189.721 188.296 189.95 191.197 190.203 194.104C189.31 192.778 188.183 191.58 187.129 190.43C185.277 188.403 183.228 186.427 180.844 185.036C180.228 184.674 179.502 185.559 180.067 186.041C181.945 187.651 183.773 189.282 185.46 191.092C186.981 192.722 188.206 194.651 189.757 196.246C186.559 195.648 183.142 195.849 179.909 195.749C176.148 195.629 172.268 195.289 168.521 195.733C169.103 194.166 168.65 192.29 168.535 190.658C168.402 188.769 168.476 186.915 168.569 185.027C168.599 184.432 167.744 184.368 167.571 184.894C167.032 186.519 167.041 188.228 167.073 189.925C167.108 191.763 166.903 194.068 167.615 195.783C167.647 195.858 167.692 195.916 167.742 195.966C167.504 196.275 167.604 196.867 168.043 196.931C171.522 197.444 175.101 197.355 178.612 197.518C182.473 197.696 186.67 198.293 190.47 197.454C190.475 197.454 190.478 197.45 190.482 197.448C190.588 198.881 190.659 200.312 190.649 201.733C190.626 205.312 189.875 209.786 190.517 213.498C189.567 213.57 188.509 213.562 187.686 214.054C187.676 214.06 187.667 214.07 187.66 214.076C187.296 214.017 186.887 214.182 186.82 214.579C186.713 215.233 186.715 215.876 186.707 216.535C186.699 217.167 186.73 217.714 187.161 218.211C187.251 218.313 187.391 218.359 187.53 218.358C187.607 218.401 187.696 218.433 187.8 218.445C188.945 218.575 190.1 218.522 191.246 218.493C192.187 218.469 193.156 218.443 194.019 218.048C194.25 217.944 194.272 217.574 194.084 217.418C194.147 217.377 194.202 217.328 194.248 217.26C194.534 216.83 194.534 216.309 194.534 215.808C194.534 215.282 194.543 214.745 194.385 214.241C194.399 213.999 194.267 213.747 193.977 213.656C193.438 213.489 192.922 213.421 192.402 213.406C193.073 209.716 192.508 205.279 192.482 201.733C192.463 199.207 192.296 196.731 192.056 194.262C193.641 194.487 195.288 194.378 196.879 194.376C197.871 194.376 198.875 194.405 199.865 194.348C199.83 194.969 199.787 195.629 200.138 196.137C200.16 196.17 200.188 196.199 200.218 196.227C200.273 196.406 200.416 196.57 200.642 196.658C201.023 196.811 201.543 196.803 201.953 196.785C202.207 196.773 202.467 196.747 202.709 196.674C202.982 196.86 203.394 196.808 203.571 196.491C204.086 195.579 203.807 194.557 203.699 193.555C203.572 192.43 203.486 191.302 203.395 190.173Z" fill="#4C4B62"/>
<path d="M187.375 220.695C187.251 220.704 186.667 220.69 186.064 220.652C186.322 220.648 186.577 220.648 186.834 220.65C187.075 220.652 187.318 220.668 187.566 220.687C187.5 220.688 187.433 220.693 187.375 220.695ZM189.471 219.622C188.654 219.32 187.697 219.463 186.836 219.463C185.839 219.463 184.853 219.529 183.868 219.678C183.666 219.708 183.533 219.903 183.467 220.078C182.792 221.906 186.095 221.84 187.058 221.824C187.773 221.809 190.41 221.342 189.805 220.18C189.842 219.961 189.735 219.72 189.471 219.622Z" fill="#4C4B62"/>
<path d="M195.394 220.695C195.271 220.704 194.685 220.69 194.084 220.652C194.341 220.648 194.597 220.648 194.854 220.65C195.095 220.652 195.337 220.668 195.584 220.687C195.519 220.688 195.451 220.693 195.394 220.695ZM197.49 219.622C196.674 219.32 195.718 219.463 194.855 219.463C193.859 219.463 192.873 219.529 191.889 219.678C191.686 219.708 191.552 219.903 191.487 220.078C190.811 221.906 194.114 221.84 195.076 221.824C195.792 221.809 198.43 221.342 197.824 220.18C197.863 219.961 197.753 219.72 197.49 219.622Z" fill="#4C4B62"/>
<path d="M191.615 170.831C191.006 170.953 191.006 171.933 191.615 172.052C192.954 172.319 194.629 172.409 195.916 171.886C195.968 171.867 196.013 171.838 196.054 171.809C196.36 172.023 197.024 171.934 197.024 171.542C197.024 145.539 197.118 119.711 196.728 93.949C196.723 93.6063 196.2 93.4713 196.195 93.814C195.807 119.393 195.895 145.173 195.895 170.99C194.613 170.476 192.948 170.566 191.615 170.831Z" fill="#4C4B62"/>
<path d="M186.894 98.5505C187.417 98.536 187.942 98.552 188.437 98.4329C188.256 101.26 188.462 104.145 188.516 106.965C188.633 113.087 188.736 119.209 188.858 125.332C188.505 125.117 188.136 124.931 187.842 124.76C186.874 124.195 185.854 123.625 185.282 122.626C185.914 114.726 185.541 106.379 184.944 98.4939C185.594 98.5607 186.232 98.5665 186.894 98.5505ZM184.034 123.318C184.046 123.34 184.058 123.36 184.069 123.381C184.077 123.397 184.078 123.41 184.084 123.424C184.117 123.52 184.168 123.591 184.225 123.652C184.756 124.503 185.547 125.123 186.374 125.691C186.884 126.041 187.413 126.36 187.927 126.704C188.258 126.925 188.558 127.162 188.896 127.316C188.908 127.873 188.916 128.429 188.928 128.987C189.107 137.412 189.271 145.837 189.39 154.263C189.48 160.634 189.223 167.087 189.672 173.446C189.731 174.288 190.893 174.275 190.973 173.446C191.569 167.121 191.102 160.604 190.994 154.263C190.85 145.837 190.657 137.412 190.449 128.987C190.267 121.645 190.017 114.307 189.771 106.965C189.666 103.811 189.736 100.573 189.259 97.447C189.217 97.1754 188.977 97.1261 188.78 97.2059C188.173 96.9823 187.548 97.0665 186.894 97.1406C186.114 97.2263 185.348 97.3294 184.572 97.4412C184.405 97.4673 184.302 97.5443 184.245 97.6474C183.997 97.6793 183.772 97.8535 183.763 98.1933C183.655 102.772 183.742 107.353 183.657 111.933C183.59 115.532 182.872 119.498 183.952 123.006C183.956 123.105 183.981 123.211 184.034 123.318Z" fill="#4C4B62"/>
<path d="M188.206 86.9762C188.156 87.1185 188.044 87.1533 187.76 87.1504C187.344 87.1461 186.927 87.1417 186.511 87.1373C186.154 87.1344 185.797 87.1315 185.441 87.1272C185.345 87.1257 185.205 87.1664 185.185 87.1315C185.169 87.1054 185.16 87.0734 185.149 87.0488C186.17 87.0517 187.188 87.0168 188.206 86.9762ZM184.691 88.2453C185.171 88.4543 185.988 88.3062 186.511 88.3033C187.102 88.2975 187.76 88.3672 188.346 88.2932C189.082 88.2017 189.299 87.5642 189.281 86.9341C190.368 86.8934 191.454 86.8644 192.545 86.8963C192.621 86.8992 192.698 86.9021 192.773 86.9065C192.738 86.982 192.709 87.0676 192.702 87.1664C192.6 88.177 192.58 89.2051 192.621 90.2229C192.654 91.1116 192.701 92.0554 193.441 92.6232C193.725 92.8395 194.149 92.6029 194.234 92.2979C194.452 91.5269 194.098 90.6716 194.046 89.8788C193.986 88.9742 194.063 88.0681 193.986 87.1664C193.98 87.0894 193.956 87.0299 193.934 86.9689C195.138 87.0502 196.384 87.1591 197.6 87.1402C197.514 87.9708 197.455 88.7985 197.398 89.6334C197.34 90.5003 197.007 91.4456 197.51 92.2123C197.722 92.5346 198.172 92.6203 198.457 92.3342C199.09 91.6982 198.971 90.8618 198.97 90.0095C198.962 89.0177 198.874 88.0521 198.713 87.0778C199.334 87.0183 199.941 86.9108 200.525 86.7293C200.952 86.5986 201.146 85.8973 200.662 85.6853C195.882 83.6031 189.708 85.5023 184.713 85.6838C184.161 85.7042 183.955 86.2313 184.097 86.6233C183.889 87.2259 184.075 87.9766 184.691 88.2453Z" fill="#4C4B62"/>
<path d="M342.875 205.585C343.517 207.143 344.628 208.521 345.484 209.973C346.442 211.6 347.179 213.598 348.506 214.954C348.919 215.374 349.567 214.939 349.449 214.407C349.044 212.564 347.671 210.845 346.628 209.304C345.677 207.896 344.69 206.272 343.299 205.259C343.101 205.115 342.779 205.356 342.875 205.585Z" fill="#4C4B62"/>
<path d="M374.781 208.244C373.902 206.669 372.9 203.855 371.319 202.835C370.995 202.628 370.544 202.899 370.554 203.275C370.593 204.813 372.021 206.647 372.722 207.944C373.828 209.995 374.637 212.224 375.588 214.353C374.251 213.833 372.522 213.771 371.396 213.602C368.737 213.2 366.036 213.085 363.354 213.139C360.09 213.206 356.845 213.181 353.591 213.501C352.128 213.646 350.255 213.948 349.171 215.073C345.855 218.509 345.672 225.229 344.969 229.665C344.195 234.548 343.657 239.517 341.885 244.149C341.773 244.444 341.942 244.654 342.171 244.73C342.196 244.743 342.213 244.765 342.241 244.778C344.69 245.793 347.274 245.771 349.886 245.947C353.103 246.159 356.309 246.435 359.536 246.413C361.866 246.397 364.18 246.035 366.485 245.729C368.804 245.421 369.04 245.716 370.106 243.853C372.917 238.939 374.207 233.036 376.161 227.752C377.307 224.649 379.198 220.041 377.798 216.649C378.116 213.678 376.182 210.753 374.781 208.244Z" fill="#4C4B62"/>
<path d="M342.956 151.847C343.368 151.733 343.733 151.985 343.871 152.365C344.15 153.142 345.216 153.54 345.238 154.392C345.242 154.595 345.097 154.762 344.909 154.822C344.354 154.998 343.721 154.568 343.338 154.184C342.925 153.772 342.633 153.309 342.436 152.761C342.298 152.378 342.587 151.948 342.956 151.847ZM341.093 138.409C341.21 137.344 341.718 136.041 342.635 135.415C342.966 135.19 343.418 135.563 343.303 135.929C343.149 136.411 342.818 136.798 342.574 137.238C342.341 137.654 342.183 138.073 342.11 138.546C342.023 139.118 341.032 138.984 341.093 138.409ZM340.725 149.484C340.454 148.937 340.325 148.357 340.295 147.748C340.255 146.923 341.592 146.917 341.579 147.748C341.573 148.201 341.664 148.606 341.783 149.038C341.959 149.66 341.019 150.084 340.725 149.484ZM340.604 140.772C340.906 140.426 341.361 140.741 341.407 141.104C341.461 141.524 341.351 141.935 341.349 142.356C341.348 142.774 341.381 143.191 341.419 143.608C341.489 144.363 340.356 144.328 340.261 143.608C340.138 142.673 339.926 141.544 340.604 140.772ZM346.719 130.448C347.328 130.426 347.502 131.142 347.174 131.544C346.651 132.177 345.679 132.29 345.344 133.099C345.049 133.811 344.107 133.695 344.02 132.921C343.872 131.608 345.559 130.49 346.719 130.448ZM349.08 154.441C349.942 155.282 351.488 154.608 352.339 155.517C352.535 155.731 352.598 156.146 352.339 156.348C351.136 157.286 348.811 156.728 347.827 155.693C347.045 154.864 348.26 153.643 349.08 154.441ZM349.722 129.466C350.396 128.791 351.784 128.384 352.566 129.097C352.801 129.314 352.741 129.738 352.465 129.884C352.11 130.078 351.754 130.066 351.366 130.12C350.977 130.172 350.605 130.22 350.231 130.343C349.722 130.515 349.363 129.826 349.722 129.466ZM354.718 155.452C355.703 155.41 356.524 154.558 357.513 154.677C358.046 154.741 358.546 155.303 358.183 155.843C357.487 156.875 355.911 157.354 354.718 157.378C353.471 157.401 353.482 155.507 354.718 155.452ZM355.901 128.371C356.906 128.582 358.213 128.785 358.598 129.89C358.684 130.137 358.502 130.494 358.231 130.536C357.298 130.677 356.361 130.169 355.463 129.957C354.428 129.71 354.869 128.154 355.901 128.371ZM361.94 152.279C362.347 151.992 362.678 151.61 363.081 151.327C363.277 151.192 363.476 150.99 363.708 150.926C363.987 150.851 364.328 150.952 364.478 151.208C364.792 151.744 364.283 152.409 363.884 152.748C363.518 153.065 363.13 153.357 362.723 153.617C362.367 153.846 361.869 153.691 361.663 153.341C361.433 152.95 361.596 152.522 361.94 152.279ZM362.812 130.493C363.746 130.773 365.041 131.278 365.04 132.439C365.039 132.854 364.667 133.06 364.296 133.003C363.862 132.938 363.587 132.69 363.235 132.46C362.905 132.245 362.597 132.006 362.257 131.807C361.558 131.399 362.02 130.253 362.812 130.493ZM365.148 148.947C365.48 148.257 365.817 147.676 366.469 147.242C366.86 146.981 367.332 147.332 367.352 147.748C367.39 148.545 367.004 149.149 366.649 149.823C366.427 150.244 365.853 150.367 365.458 150.136C365.026 149.883 364.94 149.374 365.148 148.947ZM366.716 134.644C367.071 134.547 367.586 134.692 367.742 135.061C367.909 135.456 368.214 135.861 368.311 136.276C368.429 136.774 368.375 137.405 367.782 137.567C366.805 137.837 366.356 136.438 366.08 135.761C365.896 135.301 366.281 134.765 366.716 134.644ZM369.281 140.815C369.312 142.102 369.466 143.409 368.808 144.573C368.509 145.103 367.765 144.832 367.727 144.283C367.647 143.131 367.703 141.965 367.717 140.815C367.727 139.805 369.26 139.808 369.281 140.815ZM352.529 159.233C362.046 159.49 369.964 152.689 370.898 143.239C371.796 134.156 363.746 125.65 354.487 126.497C354.12 126.529 353.825 126.72 353.62 126.975C344.803 125.409 339.581 134.167 338.64 141.81C337.517 150.932 343.036 158.981 352.529 159.233Z" fill="#4C4B62"/>
<path d="M336.366 143.123C336.366 142.998 336.315 142.885 336.228 142.796C336.05 142.619 335.735 142.619 335.559 142.796C335.471 142.885 335.42 142.998 335.42 143.123C335.42 143.262 335.471 143.377 335.559 143.464C335.648 143.554 335.761 143.604 335.886 143.604C336.014 143.604 336.14 143.554 336.228 143.464C336.315 143.377 336.366 143.262 336.366 143.123Z" fill="#4C4B62"/>
<path d="M336.805 138.335C336.863 138.335 336.922 138.312 336.961 138.271C337 138.232 337.025 138.18 337.025 138.116C337.025 138.058 337 138.007 336.961 137.967C336.881 137.885 336.737 137.885 336.656 137.967C336.616 138.007 336.592 138.058 336.592 138.116C336.592 138.18 336.616 138.232 336.656 138.271C336.696 138.314 336.747 138.335 336.805 138.335Z" fill="#4C4B62"/>
<path d="M338.476 133.92C338.336 133.783 338.091 133.783 337.953 133.92C337.883 133.988 337.844 134.078 337.844 134.175C337.844 134.284 337.883 134.373 337.953 134.44C338.021 134.509 338.111 134.55 338.208 134.55C338.309 134.55 338.406 134.509 338.476 134.44C338.544 134.373 338.583 134.284 338.583 134.175C338.582 134.078 338.544 133.988 338.476 133.92Z" fill="#4C4B62"/>
<path d="M338.799 129.293C338.887 129.293 338.974 129.26 339.037 129.196C339.098 129.137 339.134 129.057 339.134 128.958C339.134 128.871 339.098 128.794 339.037 128.731C338.913 128.608 338.694 128.608 338.572 128.731C338.509 128.794 338.475 128.871 338.475 128.958C338.475 129.057 338.509 129.137 338.572 129.196C338.633 129.257 338.711 129.293 338.799 129.293Z" fill="#4C4B62"/>
<path d="M358.274 162.561C358.22 162.615 358.189 162.685 358.189 162.76C358.189 162.846 358.22 162.914 358.274 162.968C358.327 163.022 358.397 163.052 358.473 163.052C358.548 163.052 358.625 163.022 358.68 162.968C358.733 162.914 358.765 162.846 358.765 162.76C358.765 162.685 358.733 162.615 358.68 162.561C358.573 162.457 358.381 162.457 358.274 162.561Z" fill="#4C4B62"/>
<path d="M353.251 162.907C353.184 162.972 353.146 163.055 353.146 163.149C353.146 163.252 353.184 163.337 353.251 163.4C353.316 163.467 353.401 163.504 353.494 163.504C353.588 163.504 353.681 163.467 353.746 163.4C353.81 163.337 353.848 163.252 353.848 163.149C353.848 163.055 353.81 162.972 353.746 162.907C353.616 162.775 353.38 162.775 353.251 162.907Z" fill="#4C4B62"/>
<path d="M348.636 163.338C348.7 163.274 348.736 163.193 348.736 163.091C348.736 163 348.7 162.918 348.636 162.854C348.508 162.725 348.28 162.725 348.152 162.854C348.089 162.918 348.051 163 348.051 163.091C348.051 163.193 348.089 163.274 348.152 163.338C348.216 163.402 348.298 163.438 348.389 163.438C348.481 163.438 348.572 163.402 348.636 163.338Z" fill="#4C4B62"/>
<path d="M344.578 160.308C344.661 160.223 344.709 160.116 344.709 159.981C344.709 159.86 344.661 159.753 344.578 159.667C344.408 159.5 344.107 159.5 343.94 159.667C343.855 159.753 343.807 159.86 343.807 159.981C343.807 160.116 343.855 160.223 343.94 160.308C344.023 160.393 344.131 160.441 344.253 160.441C344.372 160.441 344.494 160.393 344.578 160.308Z" fill="#4C4B62"/>
<path d="M340.295 157.041C340.219 157.119 340.176 157.216 340.176 157.324C340.176 157.446 340.219 157.543 340.295 157.618C340.37 157.695 340.468 157.74 340.578 157.74C340.687 157.74 340.797 157.695 340.873 157.618C340.949 157.543 340.992 157.446 340.992 157.324C340.992 157.216 340.949 157.119 340.873 157.041C340.719 156.889 340.446 156.889 340.295 157.041Z" fill="#4C4B62"/>
<path d="M336.329 153.868C336.245 153.952 336.195 154.06 336.195 154.179C336.195 154.311 336.245 154.418 336.329 154.501C336.413 154.587 336.521 154.635 336.64 154.635C336.759 154.635 336.879 154.587 336.962 154.501C337.047 154.418 337.094 154.311 337.094 154.179C337.094 154.06 337.047 153.952 336.962 153.868C336.795 153.701 336.496 153.701 336.329 153.868Z" fill="#4C4B62"/>
<path d="M375.088 143.492C375.201 143.492 375.316 143.448 375.396 143.367C375.476 143.287 375.522 143.184 375.522 143.056C375.522 142.943 375.476 142.838 375.396 142.758C375.234 142.597 374.948 142.597 374.788 142.758C374.709 142.838 374.662 142.943 374.662 143.056C374.662 143.184 374.709 143.287 374.788 143.367C374.868 143.448 374.972 143.492 375.088 143.492Z" fill="#4C4B62"/>
<path d="M371.352 147.11C371.352 147.196 371.381 147.265 371.437 147.319C371.491 147.373 371.559 147.403 371.636 147.403C371.712 147.403 371.79 147.373 371.844 147.319C371.898 147.265 371.927 147.196 371.927 147.11C371.927 147.035 371.898 146.968 371.844 146.911C371.736 146.804 371.545 146.804 371.437 146.911C371.381 146.968 371.352 147.035 371.352 147.11Z" fill="#4C4B62"/>
<path d="M370.138 151.7C370.077 151.761 370.041 151.839 370.041 151.927C370.041 152.024 370.077 152.104 370.138 152.163C370.201 152.227 370.281 152.26 370.368 152.26C370.455 152.26 370.544 152.227 370.608 152.163C370.667 152.104 370.702 152.024 370.702 151.927C370.702 151.839 370.667 151.761 370.608 151.7C370.481 151.577 370.262 151.577 370.138 151.7Z" fill="#4C4B62"/>
<path d="M366.225 154.838C366.161 154.902 366.123 154.983 366.123 155.075C366.123 155.176 366.161 155.26 366.225 155.323C366.289 155.388 366.373 155.423 366.463 155.423C366.556 155.423 366.647 155.388 366.711 155.323C366.775 155.26 366.812 155.176 366.812 155.075C366.812 154.983 366.775 154.902 366.711 154.838C366.582 154.709 366.353 154.709 366.225 154.838Z" fill="#4C4B62"/>
<path d="M362.364 158.015C362.278 158.101 362.23 158.209 362.23 158.331C362.23 158.466 362.278 158.577 362.364 158.662C362.45 158.748 362.559 158.796 362.684 158.796C362.804 158.796 362.928 158.748 363.013 158.662C363.098 158.577 363.147 158.466 363.147 158.331C363.147 158.209 363.098 158.101 363.013 158.015C362.842 157.842 362.536 157.842 362.364 158.015Z" fill="#4C4B62"/>
<path d="M371.207 131.627C371.162 131.669 371.139 131.725 371.139 131.785C371.139 131.852 371.162 131.908 371.207 131.951C371.248 131.991 371.304 132.016 371.364 132.016C371.426 132.016 371.486 131.991 371.529 131.951C371.572 131.908 371.595 131.852 371.595 131.785C371.595 131.725 371.572 131.669 371.529 131.627C371.442 131.541 371.29 131.541 371.207 131.627Z" fill="#4C4B62"/>
<path d="M366.757 129.77C366.846 129.77 366.936 129.735 366.999 129.672C367.06 129.61 367.096 129.53 367.096 129.431C367.096 129.343 367.06 129.262 366.999 129.199C366.872 129.074 366.651 129.074 366.525 129.199C366.464 129.263 366.428 129.343 366.428 129.431C366.428 129.53 366.464 129.61 366.525 129.672C366.589 129.733 366.669 129.77 366.757 129.77Z" fill="#4C4B62"/>
<path d="M363.257 125.39C363.205 125.441 363.176 125.506 363.176 125.579C363.176 125.66 363.205 125.726 363.257 125.776C363.307 125.83 363.372 125.858 363.446 125.858C363.52 125.858 363.591 125.83 363.643 125.776C363.696 125.726 363.723 125.66 363.723 125.579C363.723 125.506 363.696 125.441 363.643 125.39C363.542 125.289 363.359 125.289 363.257 125.39Z" fill="#4C4B62"/>
<path d="M357.546 125.49C357.503 125.535 357.477 125.592 357.477 125.656C357.477 125.726 357.503 125.784 357.546 125.827C357.591 125.871 357.648 125.897 357.712 125.897C357.776 125.897 357.838 125.874 357.883 125.827C357.928 125.784 357.953 125.726 357.953 125.656C357.953 125.592 357.928 125.537 357.883 125.49C357.795 125.403 357.636 125.403 357.546 125.49Z" fill="#4C4B62"/>
<path d="M352.279 121.115C352.192 121.202 352.143 121.314 352.143 121.441C352.143 121.58 352.192 121.69 352.279 121.779C352.368 121.866 352.481 121.915 352.606 121.915C352.732 121.915 352.857 121.869 352.946 121.779C353.032 121.69 353.082 121.58 353.082 121.441C353.082 121.314 353.032 121.202 352.946 121.115C352.769 120.938 352.455 120.938 352.279 121.115Z" fill="#4C4B62"/>
<path d="M348.667 124.595C348.6 124.662 348.562 124.743 348.562 124.834C348.562 124.937 348.6 125.019 348.667 125.083C348.731 125.149 348.814 125.184 348.905 125.184C348.998 125.184 349.09 125.149 349.155 125.083C349.219 125.019 349.255 124.937 349.255 124.834C349.255 124.743 349.219 124.662 349.155 124.595C349.026 124.465 348.795 124.465 348.667 124.595Z" fill="#4C4B62"/>
<mask id="mask2_1065_1360" style="mask-type:luminance" maskUnits="userSpaceOnUse" x="190" y="223" width="5" height="6">
<path d="M190.76 223.778H194.106V228.239H190.76V223.778Z" fill="white"/>
</mask>
<g mask="url(#mask2_1065_1360)">
<mask id="mask3_1065_1360" style="mask-type:luminance" maskUnits="userSpaceOnUse" x="-16" y="-9" width="227" height="238">
<path d="M210.336 6.77539L194.094 228.316L-15.043 212.993L1.19933 -8.54663L210.336 6.77539Z" fill="white"/>
</mask>
<g mask="url(#mask3_1065_1360)">
<mask id="mask4_1065_1360" style="mask-type:luminance" maskUnits="userSpaceOnUse" x="-16" y="-9" width="227" height="238">
<path d="M-15.0508 212.984L1.19152 -8.55542L210.328 6.7666L194.086 228.307L-15.0508 212.984Z" fill="white"/>
</mask>
<g mask="url(#mask4_1065_1360)">
<path d="M194.082 227.243C194.062 227.521 193.902 227.79 193.638 227.966C193.198 228.242 192.619 228.088 192.372 227.649C191.896 226.885 191.393 226.093 190.917 225.33C190.641 224.889 190.766 224.339 191.178 224.061C191.591 223.782 192.169 223.909 192.448 224.321C192.952 225.086 193.452 225.908 193.954 226.701C194.056 226.848 194.097 227.048 194.082 227.243Z" fill="#FF6464"/>
</g>
</g>
</g>
</svg>
