<svg width="13" height="27" viewBox="0 0 13 27" fill="none" xmlns="http://www.w3.org/2000/svg">
<path d="M11.7081 14.3163L1.70806 26.544C1.61515 26.6576 1.50485 26.7477 1.38345 26.8092C1.26206 26.8707 1.13195 26.9023 1.00056 26.9023C0.869161 26.9023 0.739053 26.8707 0.61766 26.8092C0.496267 26.7477 0.385966 26.6576 0.293056 26.544C0.200145 26.4304 0.126445 26.2955 0.0761623 26.1471C0.0258797 25.9986 0 25.8395 0 25.6789C0 25.5182 0.0258797 25.3591 0.0761623 25.2107C0.126445 25.0622 0.200145 24.9274 0.293056 24.8137L9.58681 13.4512L0.293056 2.08856C0.105415 1.85912 -1.97712e-09 1.54793 0 1.22345C1.97712e-09 0.898971 0.105415 0.587782 0.293056 0.35834C0.480696 0.128899 0.735192 2.41756e-09 1.00056 0C1.26592 -2.41756e-09 1.52042 0.128899 1.70806 0.35834L11.7081 12.586C11.801 12.6996 11.8748 12.8345 11.9251 12.9829C11.9754 13.1313 12.0013 13.2905 12.0013 13.4512C12.0013 13.6118 11.9754 13.771 11.9251 13.9194C11.8748 14.0678 11.801 14.2027 11.7081 14.3163Z" fill="#2C2C2C"/>
</svg>
