<svg width="371" height="102" viewBox="0 0 371 102" fill="none" xmlns="http://www.w3.org/2000/svg">
<mask id="mask0_1170_1010" style="mask-type:luminance" maskUnits="userSpaceOnUse" x="167" y="19" width="98" height="83">
<path d="M167.824 50.2212L243.861 19.9867L264.229 71.2116L188.193 101.446L167.824 50.2212Z" fill="white"/>
</mask>
<g mask="url(#mask0_1170_1010)">
<mask id="mask1_1170_1010" style="mask-type:luminance" maskUnits="userSpaceOnUse" x="136" y="-22" width="127" height="134">
<path d="M136.028 25.5722L201.313 -21.2774L262.982 64.6132L197.697 111.463L136.028 25.5722Z" fill="white"/>
</mask>
<g mask="url(#mask1_1170_1010)">
<mask id="mask2_1170_1010" style="mask-type:luminance" maskUnits="userSpaceOnUse" x="136" y="-22" width="127" height="134">
<path d="M136.028 25.5722L201.313 -21.2774L262.982 64.6132L197.697 111.463L136.028 25.5722Z" fill="white"/>
</mask>
<g mask="url(#mask2_1170_1010)">
<mask id="mask3_1170_1010" style="mask-type:luminance" maskUnits="userSpaceOnUse" x="166" y="14" width="97" height="94">
<path d="M166.733 57.2633L226.822 14.1417L262.999 64.5283L202.909 107.65L166.733 57.2633Z" fill="white"/>
</mask>
<g mask="url(#mask3_1170_1010)">
<mask id="mask4_1170_1010" style="mask-type:luminance" maskUnits="userSpaceOnUse" x="166" y="14" width="97" height="94">
<path d="M166.733 57.2634L226.76 14.1867L262.937 64.5733L202.909 107.65L166.733 57.2634Z" fill="white"/>
</mask>
<g mask="url(#mask4_1170_1010)">
<path d="M242.515 73.5367C242.991 75.4048 242.487 77.7683 241.342 79.0354C240.678 79.7698 239.886 80.0726 238.988 79.9388C237.333 79.6896 236.339 77.9138 236.243 76.3684C236.135 74.6278 236.854 72.8878 237.487 71.3519C237.994 70.124 238.497 68.933 239.023 67.7914C240.672 69.3097 241.928 71.2385 242.515 73.5367ZM229.681 68.3029C228.888 73.0926 225.784 77.6433 220.19 82.2155C218.602 83.5137 216.859 84.7726 214.882 85.1937C213.148 85.5612 210.779 85.1585 209.674 83.4013C208.687 81.8338 208.907 79.6201 210.325 76.8218C212.32 72.8888 215.072 69.6461 218.237 67.3748C220.664 65.6325 223.335 64.4635 226.092 63.9937C227.21 63.8024 228.378 63.7519 229.554 63.8344C229.867 65.3215 229.92 66.8573 229.681 68.3029ZM246.272 57.39C242.743 59.4837 240.44 63.077 238.741 66.5814C236.377 64.676 233.361 63.4218 230.182 63.1011C229.771 61.4879 229.063 59.9476 228.092 58.6125C226.483 56.4049 224.265 54.9884 221.846 54.6276C218.223 54.0866 214.303 55.6903 209.862 59.531C208.408 60.7884 206.984 62.141 205.606 63.4498C202.015 66.8621 198.302 70.3894 193.788 72.4647C187.587 75.3148 178.949 74.341 175.975 68.3467C173.723 63.8103 175.175 58.0346 180.414 50.6894C182.427 47.8647 184.654 44.971 187.746 43.338C190.584 41.8404 194.752 41.6057 197.226 44.0576C197.376 44.2064 197.617 44.2055 197.766 44.0558C197.914 43.9055 197.914 43.6632 197.764 43.5158C195.028 40.8047 190.474 41.035 187.39 42.663C184.148 44.3742 181.859 47.3467 179.791 50.2455C174.374 57.8422 172.903 63.8737 175.291 68.6859C178.462 75.0776 187.58 76.1583 194.107 73.159C198.736 71.031 202.496 67.4585 206.133 64.0035C207.504 62.7011 208.922 61.3535 210.362 60.1089C214.624 56.4218 218.343 54.877 221.733 55.3828C224.572 55.8072 226.422 57.6175 227.474 59.0627C228.326 60.2326 228.966 61.6021 229.362 63.0397C228.237 62.9843 227.097 63.047 225.964 63.2399C219.378 64.3623 213.279 69.3108 209.645 76.4763C208.095 79.5306 207.887 81.9973 209.027 83.8081C210.328 85.8748 213.056 86.3623 215.04 85.9405C217.177 85.4866 219.011 84.166 220.674 82.8068C226.418 78.1119 229.61 73.4082 230.434 68.4276C230.679 66.9473 230.647 65.4077 230.362 63.9114C233.255 64.2622 236.144 65.4107 238.416 67.2652C237.801 68.5868 237.268 69.8809 236.781 71.0604C236.116 72.672 235.362 74.499 235.481 76.4159C235.595 78.2593 236.824 80.3854 238.875 80.6937C239.749 80.8247 240.565 80.6277 241.273 80.1202C241.496 79.9599 241.708 79.7691 241.908 79.5477C243.233 78.0841 243.798 75.4773 243.255 73.3475C242.639 70.9356 241.239 68.7942 239.348 67.0971C241.186 63.2473 243.321 60.0275 246.663 58.0465C249.283 56.4922 252.965 56.332 255.824 57.6465C257.913 58.6066 259.255 60.2258 259.601 62.2065C259.638 62.4137 259.836 62.5526 260.044 62.516C260.253 62.4801 260.391 62.2814 260.354 62.0736C259.963 59.8392 258.467 58.0203 256.143 56.9524C253.066 55.5377 249.1 55.7141 246.272 57.39Z" fill="#FF6464"/>
</g>
</g>
</g>
</g>
</g>
<mask id="mask5_1170_1010" style="mask-type:luminance" maskUnits="userSpaceOnUse" x="167" y="40" width="46" height="36">
<path d="M167.478 55.0593L203.885 40.5824L212.011 61.0164L175.603 75.4933L167.478 55.0593Z" fill="white"/>
</mask>
<g mask="url(#mask5_1170_1010)">
<mask id="mask6_1170_1010" style="mask-type:luminance" maskUnits="userSpaceOnUse" x="136" y="-22" width="127" height="134">
<path d="M136.028 25.572L201.313 -21.2777L262.982 64.613L197.697 111.463L136.028 25.572Z" fill="white"/>
</mask>
<g mask="url(#mask6_1170_1010)">
<mask id="mask7_1170_1010" style="mask-type:luminance" maskUnits="userSpaceOnUse" x="136" y="-22" width="127" height="134">
<path d="M136.028 25.572L201.313 -21.2777L262.982 64.613L197.697 111.463L136.028 25.572Z" fill="white"/>
</mask>
<g mask="url(#mask7_1170_1010)">
<path d="M174.168 62.9793C171.417 69.0075 173.852 74.5957 181.17 73.0323C190.553 71.023 210.722 54.1174 205.782 45.626C199.935 35.5747 177.769 55.0914 174.168 62.9793Z" fill="#B0715C"/>
</g>
</g>
</g>
<mask id="mask8_1170_1010" style="mask-type:luminance" maskUnits="userSpaceOnUse" x="167" y="39" width="45" height="36">
<path d="M167.059 54.4153L203.466 39.9384L211.592 60.3723L175.184 74.8492L167.059 54.4153Z" fill="white"/>
</mask>
<g mask="url(#mask8_1170_1010)">
<mask id="mask9_1170_1010" style="mask-type:luminance" maskUnits="userSpaceOnUse" x="136" y="-22" width="127" height="134">
<path d="M136.027 25.572L201.312 -21.2777L262.981 64.613L197.696 111.463L136.027 25.572Z" fill="white"/>
</mask>
<g mask="url(#mask9_1170_1010)">
<mask id="mask10_1170_1010" style="mask-type:luminance" maskUnits="userSpaceOnUse" x="136" y="-22" width="127" height="134">
<path d="M136.027 25.572L201.312 -21.2777L262.981 64.613L197.696 111.463L136.027 25.572Z" fill="white"/>
</mask>
<g mask="url(#mask10_1170_1010)">
<path d="M173.729 62.3687C170.978 68.3969 173.413 73.985 180.73 72.4209C190.114 70.4123 210.283 53.5068 205.342 45.0154C199.495 34.9641 177.33 54.4808 173.729 62.3687Z" fill="#EA967A"/>
</g>
</g>
</g>
<mask id="mask11_1170_1010" style="mask-type:luminance" maskUnits="userSpaceOnUse" x="155" y="18" width="49" height="53">
<path d="M155.498 31.4575L188.405 18.3726L203.876 57.2811L170.969 70.366L155.498 31.4575Z" fill="white"/>
</mask>
<g mask="url(#mask11_1170_1010)">
<mask id="mask12_1170_1010" style="mask-type:luminance" maskUnits="userSpaceOnUse" x="136" y="-22" width="127" height="134">
<path d="M136.028 25.572L201.313 -21.2777L262.982 64.613L197.697 111.463L136.028 25.572Z" fill="white"/>
</mask>
<g mask="url(#mask12_1170_1010)">
<mask id="mask13_1170_1010" style="mask-type:luminance" maskUnits="userSpaceOnUse" x="136" y="-22" width="127" height="134">
<path d="M136.028 25.572L201.313 -21.2777L262.982 64.613L197.697 111.463L136.028 25.572Z" fill="white"/>
</mask>
<g mask="url(#mask13_1170_1010)">
<path d="M197.817 43.3586C197.617 43.1057 197.397 42.8424 197.175 42.5826C196.98 42.3556 196.785 42.13 196.595 41.9129C196.525 41.8343 196.457 41.7558 196.389 41.682C196.159 41.422 195.946 41.1826 195.768 40.9775C195.747 40.9541 195.727 40.9317 195.71 40.91L195.709 40.9091C195.596 40.7811 195.502 40.6698 195.427 40.5787L195.159 40.2522L194.481 39.4275L193.975 38.8107L193.942 38.7696L193.94 38.7682L193.701 38.4795L193.7 38.4781L193.42 38.1344L193.333 38.029L193.167 37.8271L192.812 37.3952L192.316 36.7915L191.793 36.1537L191.774 36.1313L191.306 35.5634L191.276 35.5266L190.781 34.9226L190.555 34.647L190.021 33.9983L189.43 33.2766L188.901 32.6352L188.826 32.5424L188.662 32.3452L188.334 31.9435L188.138 31.7055L187.877 31.3862L187.375 30.7764L187.354 30.7495L187.017 30.3392C186.959 30.2698 186.901 30.2002 186.843 30.1342C181.714 24.1056 172.839 23.068 166.474 27.6356C166.205 27.8287 165.941 28.0305 165.682 28.2429C159.614 33.2232 158.413 41.9333 162.671 48.3319C162.829 48.573 162.999 48.8125 163.175 49.0468C163.308 49.2247 163.447 49.3992 163.588 49.5729L164.114 50.2138L164.635 50.8482L164.904 51.1756L165.063 51.3682L165.449 51.8397L165.589 52.0099L166.002 52.5127L166.523 53.1474L166.523 53.1479L167.033 53.7695L167.535 54.3787L168.043 54.9983L168.335 55.354L168.561 55.6295L168.853 55.985L168.895 56.0337L169.393 56.6427L169.695 57.0098L170.208 57.6353L170.402 57.8716L170.403 57.873L170.641 58.1619L170.929 58.512L171.177 58.8139L171.58 59.3056L171.998 59.8126C172.008 59.8256 172.054 59.8739 172.127 59.9446C172.166 59.9849 172.212 60.0324 172.267 60.0852L172.268 60.0861C172.439 60.2551 172.674 60.4851 172.928 60.7349L172.929 60.7363C172.983 60.7903 173.038 60.8433 173.094 60.898L173.095 60.8989C173.321 61.1199 173.554 61.347 173.76 61.5508C174.136 61.9205 174.43 62.2092 174.459 62.2426C174.472 62.2577 174.485 62.2728 174.5 62.2873C174.694 62.5114 174.887 62.7233 175.084 62.9225L175.116 62.9577C175.327 63.1727 175.539 63.3761 175.749 63.5652L175.751 63.5666C175.904 63.7033 176.056 63.8322 176.21 63.9533L176.211 63.9547C176.517 64.2016 176.823 64.421 177.13 64.613L177.131 64.6144C177.144 64.6213 177.158 64.631 177.171 64.6381C177.485 64.8358 177.802 65.0032 178.117 65.1437C178.187 65.1749 178.256 65.2036 178.324 65.2316C178.696 65.3852 179.068 65.502 179.441 65.5836C179.654 65.6316 179.869 65.6697 180.084 65.6936C180.326 65.7237 180.568 65.7393 180.811 65.7423C181.681 65.7526 182.562 65.5986 183.455 65.3076C184.91 64.8347 186.402 64.0028 187.954 62.9405C187.956 62.9399 187.956 62.9399 187.956 62.9391C187.958 62.9382 187.959 62.9367 187.959 62.9367C187.961 62.9366 187.961 62.9366 187.961 62.9351C187.964 62.9338 187.966 62.9318 187.969 62.9294C189.596 61.8167 191.287 60.4501 193.076 58.9791C196.372 56.2673 199.032 52.9543 199.432 49.2864C199.495 48.7142 199.502 48.1354 199.448 47.5475C199.422 47.2659 199.384 46.981 199.33 46.6965C199.29 46.4791 199.238 46.2622 199.179 46.0427C199.083 45.683 198.964 45.3195 198.819 44.9537C198.786 44.8736 198.752 44.792 198.717 44.7122C198.711 44.6945 198.703 44.6787 198.696 44.661C198.648 44.5494 198.578 44.4233 198.489 44.2818C198.469 44.2511 198.45 44.2196 198.427 44.187C198.301 43.9938 198.146 43.7801 197.971 43.5545C197.922 43.4911 197.87 43.4246 197.817 43.3586Z" fill="#62B8AF"/>
</g>
</g>
</g>
<mask id="mask14_1170_1010" style="mask-type:luminance" maskUnits="userSpaceOnUse" x="160" y="29" width="32" height="23">
<path d="M160.263 40.585L187.149 29.8943L191.322 40.3912L164.437 51.0819L160.263 40.585Z" fill="white"/>
</mask>
<g mask="url(#mask14_1170_1010)">
<mask id="mask15_1170_1010" style="mask-type:luminance" maskUnits="userSpaceOnUse" x="136" y="-22" width="127" height="134">
<path d="M136.028 25.5722L201.313 -21.2774L262.982 64.6132L197.697 111.463L136.028 25.5722Z" fill="white"/>
</mask>
<g mask="url(#mask15_1170_1010)">
<mask id="mask16_1170_1010" style="mask-type:luminance" maskUnits="userSpaceOnUse" x="136" y="-22" width="127" height="134">
<path d="M136.028 25.5722L201.313 -21.2774L262.982 64.6132L197.697 111.463L136.028 25.5722Z" fill="white"/>
</mask>
<g mask="url(#mask16_1170_1010)">
<path d="M187.017 30.3392C186.959 30.2699 186.901 30.2003 186.843 30.1343C185.36 33.161 183.173 36.0839 180.313 38.861C179.854 39.3061 179.377 39.7479 178.885 40.1859C178.778 40.2809 178.67 40.3759 178.562 40.4706C177.704 41.2177 176.817 41.9371 175.913 42.6308C175.913 42.6334 175.91 42.6332 175.91 42.6332C175.909 42.6362 175.906 42.6379 175.904 42.6374L175.882 42.6532C173.578 44.4231 171.143 46.0406 168.718 47.5982C168.718 47.6009 168.716 47.6004 168.716 47.6004C168.007 48.0564 167.297 48.5079 166.592 48.9558C165.733 49.5038 164.927 49.9839 164.115 50.2139L164.635 50.8482C165.532 50.5367 166.344 50.0208 167.003 49.6022C169.499 48.012 172.043 46.3907 174.497 44.63C175.106 44.1926 175.708 43.7474 176.303 43.2904L176.322 43.2775C176.61 43.0577 176.895 42.8367 177.177 42.6112L177.178 42.6107C177.852 42.0765 178.514 41.5265 179.16 40.9612C179.238 40.8941 179.314 40.8257 179.391 40.757C180.757 39.5454 181.996 38.3032 183.099 37.0318L183.103 37.029C183.105 37.0265 183.106 37.0253 183.109 37.0237C183.709 36.3348 184.268 35.6403 184.789 34.9354C185.797 33.5765 186.661 32.1888 187.375 30.7765L187.354 30.7496L187.017 30.3392Z" fill="#FF6464"/>
</g>
</g>
</g>
<mask id="mask17_1170_1010" style="mask-type:luminance" maskUnits="userSpaceOnUse" x="160" y="30" width="32" height="23">
<path d="M160.961 41.1177L187.567 30.5384L191.963 41.5951L165.357 52.1744L160.961 41.1177Z" fill="white"/>
</mask>
<g mask="url(#mask17_1170_1010)">
<mask id="mask18_1170_1010" style="mask-type:luminance" maskUnits="userSpaceOnUse" x="136" y="-22" width="127" height="134">
<path d="M136.028 25.572L201.313 -21.2777L262.982 64.613L197.697 111.463L136.028 25.572Z" fill="white"/>
</mask>
<g mask="url(#mask18_1170_1010)">
<mask id="mask19_1170_1010" style="mask-type:luminance" maskUnits="userSpaceOnUse" x="136" y="-22" width="127" height="134">
<path d="M136.028 25.572L201.313 -21.2777L262.982 64.613L197.697 111.463L136.028 25.572Z" fill="white"/>
</mask>
<g mask="url(#mask19_1170_1010)">
<path d="M187.354 30.7494C186.585 32.1816 185.729 33.5781 184.789 34.9352C184.392 35.5115 183.983 36.0762 183.556 36.6359L183.552 36.6389C183.551 36.641 183.551 36.6418 183.549 36.6424C182.723 37.7309 181.841 38.7882 180.906 39.8167C179.994 40.8207 179.033 41.7942 178.022 42.7379C176.981 43.7124 175.888 44.6535 174.744 45.5583C174.743 45.5595 174.743 45.5595 174.742 45.56C173.159 46.8169 171.48 48.0044 169.714 49.1161C168.929 49.6099 168.117 50.0945 167.272 50.5069C167.266 50.5101 167.262 50.5111 167.256 50.5125C166.549 50.8621 165.818 51.159 165.063 51.3681L165.449 51.8396L165.59 52.0098C166.262 51.8008 166.913 51.5317 167.543 51.2225C167.547 51.2196 167.551 51.2184 167.556 51.2172C168.448 50.7859 169.299 50.2795 170.12 49.7626C171.131 49.127 172.113 48.4669 173.066 47.7827C173.818 47.2431 174.549 46.6895 175.263 46.1207L175.265 46.1195C178.651 43.43 181.618 40.4269 184.104 37.1724C184.106 37.1728 184.105 37.172 184.106 37.171C184.851 36.1995 185.55 35.2048 186.207 34.1903C186.207 34.1882 186.207 34.1882 186.208 34.1875C186.802 33.2705 187.358 32.3359 187.877 31.3861L187.376 30.7763L187.354 30.7494Z" fill="#FF6464"/>
</g>
</g>
</g>
<mask id="mask20_1170_1010" style="mask-type:luminance" maskUnits="userSpaceOnUse" x="161" y="31" width="32" height="23">
<path d="M161.826 42.0703L188.432 31.491L192.94 42.8277L166.334 53.407L161.826 42.0703Z" fill="white"/>
</mask>
<g mask="url(#mask20_1170_1010)">
<mask id="mask21_1170_1010" style="mask-type:luminance" maskUnits="userSpaceOnUse" x="136" y="-22" width="127" height="134">
<path d="M136.028 25.572L201.313 -21.2777L262.982 64.613L197.697 111.463L136.028 25.572Z" fill="white"/>
</mask>
<g mask="url(#mask21_1170_1010)">
<mask id="mask22_1170_1010" style="mask-type:luminance" maskUnits="userSpaceOnUse" x="136" y="-22" width="127" height="134">
<path d="M136.028 25.572L201.313 -21.2777L262.982 64.613L197.697 111.463L136.028 25.572Z" fill="white"/>
</mask>
<g mask="url(#mask22_1170_1010)">
<path d="M188.138 31.7053C187.939 32.0843 187.736 32.4596 187.527 32.8351C187.006 33.7655 186.453 34.6805 185.869 35.5744C181.877 41.6963 176.462 46.893 170.148 50.5775C168.938 51.2834 167.535 52.0364 166.002 52.5125L166.523 53.1472L166.524 53.1477C168.011 52.6495 169.36 51.9204 170.534 51.2371C171.805 50.4944 173.039 49.6919 174.235 48.834C179.932 44.7467 184.718 39.3987 188.149 33.2858C188.324 32.9748 188.495 32.6611 188.663 32.345L188.334 31.9433L188.138 31.7053Z" fill="#FF6464"/>
</g>
</g>
</g>
<mask id="mask23_1170_1010" style="mask-type:luminance" maskUnits="userSpaceOnUse" x="162" y="32" width="32" height="23">
<path d="M162.691 43.0229L189.157 32.4993L193.721 43.976L167.255 54.4996L162.691 43.0229Z" fill="white"/>
</mask>
<g mask="url(#mask23_1170_1010)">
<mask id="mask24_1170_1010" style="mask-type:luminance" maskUnits="userSpaceOnUse" x="136" y="-22" width="127" height="134">
<path d="M136.028 25.572L201.313 -21.2777L262.982 64.613L197.697 111.463L136.028 25.572Z" fill="white"/>
</mask>
<g mask="url(#mask24_1170_1010)">
<mask id="mask25_1170_1010" style="mask-type:luminance" maskUnits="userSpaceOnUse" x="136" y="-22" width="127" height="134">
<path d="M136.028 25.572L201.313 -21.2777L262.982 64.613L197.697 111.463L136.028 25.572Z" fill="white"/>
</mask>
<g mask="url(#mask25_1170_1010)">
<path d="M167.034 53.7693L167.535 54.3785C170.067 53.1697 172.489 51.733 174.767 50.0985C180.865 45.7221 185.944 39.9265 189.43 33.2764L188.901 32.635C184.176 41.8105 176.369 49.3619 167.034 53.7693Z" fill="#FF6464"/>
</g>
</g>
</g>
<mask id="mask26_1170_1010" style="mask-type:luminance" maskUnits="userSpaceOnUse" x="163" y="33" width="32" height="23">
<path d="M163.724 44.3955L190.329 33.8162L194.893 45.2928L168.287 55.8721L163.724 44.3955Z" fill="white"/>
</mask>
<g mask="url(#mask26_1170_1010)">
<mask id="mask27_1170_1010" style="mask-type:luminance" maskUnits="userSpaceOnUse" x="136" y="-22" width="127" height="134">
<path d="M136.028 25.5722L201.313 -21.2774L262.982 64.6132L197.697 111.463L136.028 25.5722Z" fill="white"/>
</mask>
<g mask="url(#mask27_1170_1010)">
<mask id="mask28_1170_1010" style="mask-type:luminance" maskUnits="userSpaceOnUse" x="136" y="-22" width="127" height="134">
<path d="M136.028 25.5722L201.313 -21.2774L262.982 64.6132L197.697 111.463L136.028 25.5722Z" fill="white"/>
</mask>
<g mask="url(#mask28_1170_1010)">
<path d="M186.374 39.7221C184.198 42.4258 181.623 44.8529 179.133 47.2023C176.116 50.0482 172.44 53.5158 168.044 54.9985L168.335 55.3542L168.561 55.6297C169.623 55.2498 170.641 54.7628 171.616 54.2031C171.617 54.2019 171.617 54.2019 171.618 54.2014L171.62 54.2002C171.621 54.199 171.621 54.199 171.622 54.1988C171.623 54.1976 171.626 54.1978 171.627 54.1974C172.379 53.7642 173.106 53.2876 173.807 52.784C175.986 51.2213 177.928 49.3899 179.656 47.7579C182.166 45.3928 184.761 42.9454 186.969 40.2007C188.453 38.3572 189.651 36.4993 190.555 34.6472L190.021 33.9985C189.126 35.9027 187.907 37.8163 186.374 39.7221Z" fill="#FF6464"/>
</g>
</g>
</g>
<mask id="mask29_1170_1010" style="mask-type:luminance" maskUnits="userSpaceOnUse" x="164" y="34" width="32" height="23">
<path d="M164.533 45.2083L190.999 34.6846L195.618 46.3012L169.152 56.8248L164.533 45.2083Z" fill="white"/>
</mask>
<g mask="url(#mask29_1170_1010)">
<mask id="mask30_1170_1010" style="mask-type:luminance" maskUnits="userSpaceOnUse" x="136" y="-22" width="127" height="134">
<path d="M136.028 25.5722L201.313 -21.2774L262.982 64.6132L197.697 111.463L136.028 25.5722Z" fill="white"/>
</mask>
<g mask="url(#mask30_1170_1010)">
<mask id="mask31_1170_1010" style="mask-type:luminance" maskUnits="userSpaceOnUse" x="136" y="-22" width="127" height="134">
<path d="M136.028 25.5722L201.313 -21.2774L262.982 64.6132L197.697 111.463L136.028 25.5722Z" fill="white"/>
</mask>
<g mask="url(#mask31_1170_1010)">
<path d="M190.781 34.9227C188.509 39.235 184.883 42.8239 181.621 46.0527C179.009 48.6368 176.175 51.443 172.96 53.6734C171.798 54.4826 170.583 55.2152 169.311 55.835C169.309 55.8356 169.308 55.8368 169.308 55.8368C169.169 55.9032 169.033 55.9697 168.895 56.0338L169.394 56.6428C170.773 55.9933 172.081 55.2121 173.331 54.3486C173.503 54.2301 173.673 54.1105 173.841 53.9893C174.579 53.4605 175.294 52.9037 175.993 52.3289C178.211 50.5023 180.245 48.4906 182.158 46.5958C184.71 44.069 187.484 41.3243 189.686 38.1727C190.272 37.3325 190.817 36.4634 191.306 35.5636L191.276 35.5267L190.781 34.9227Z" fill="#FF6464"/>
</g>
</g>
</g>
<mask id="mask32_1170_1010" style="mask-type:luminance" maskUnits="userSpaceOnUse" x="166" y="37" width="32" height="22">
<path d="M166.402 47.8689L193.148 37.2339L197.489 48.1507L170.743 58.7857L166.402 47.8689Z" fill="white"/>
</mask>
<g mask="url(#mask32_1170_1010)">
<mask id="mask33_1170_1010" style="mask-type:luminance" maskUnits="userSpaceOnUse" x="136" y="-22" width="127" height="134">
<path d="M136.028 25.5722L201.313 -21.2774L262.982 64.6132L197.697 111.463L136.028 25.5722Z" fill="white"/>
</mask>
<g mask="url(#mask33_1170_1010)">
<mask id="mask34_1170_1010" style="mask-type:luminance" maskUnits="userSpaceOnUse" x="136" y="-22" width="127" height="134">
<path d="M136.028 25.5722L201.313 -21.2774L262.982 64.6132L197.697 111.463L136.028 25.5722Z" fill="white"/>
</mask>
<g mask="url(#mask34_1170_1010)">
<path d="M192.813 37.3954C192.164 38.5702 191.395 39.7439 190.471 40.9656C190.047 41.5248 189.609 42.073 189.158 42.6082C189.158 42.6089 189.158 42.6089 189.157 42.611C187.485 44.6045 185.661 46.4484 183.882 48.2435C183.849 48.2771 183.815 48.3118 183.78 48.3468L183.778 48.3475C181.689 50.4573 179.527 52.6306 177.111 54.4208C174.865 56.0856 172.616 57.2403 170.403 57.8732L170.642 58.1621L170.93 58.5122C172.047 58.1711 173.169 57.7023 174.293 57.109C175.265 56.5973 176.236 55.9919 177.207 55.2955C177.326 55.2103 177.446 55.1222 177.566 55.0326C180.067 53.1794 182.282 50.9439 184.425 48.781C185.365 47.8332 186.317 46.8727 187.254 45.8803C188.588 44.4722 189.889 43.0021 191.08 41.4266C191.959 40.2668 192.699 39.148 193.333 38.0292L193.167 37.8273L192.813 37.3954Z" fill="#FF6464"/>
</g>
</g>
</g>
<mask id="mask35_1170_1010" style="mask-type:luminance" maskUnits="userSpaceOnUse" x="165" y="35" width="32" height="23">
<path d="M165.092 45.7966L191.558 35.273L196.344 47.3095L169.878 57.8331L165.092 45.7966Z" fill="white"/>
</mask>
<g mask="url(#mask35_1170_1010)">
<mask id="mask36_1170_1010" style="mask-type:luminance" maskUnits="userSpaceOnUse" x="136" y="-22" width="127" height="134">
<path d="M136.028 25.5722L201.313 -21.2774L262.982 64.6132L197.697 111.463L136.028 25.5722Z" fill="white"/>
</mask>
<g mask="url(#mask36_1170_1010)">
<mask id="mask37_1170_1010" style="mask-type:luminance" maskUnits="userSpaceOnUse" x="136" y="-22" width="127" height="134">
<path d="M136.028 25.5722L201.313 -21.2774L262.982 64.6132L197.697 111.463L136.028 25.5722Z" fill="white"/>
</mask>
<g mask="url(#mask37_1170_1010)">
<path d="M191.307 35.5636L191.277 35.5268C190.756 36.4094 190.227 37.2936 189.686 38.1727C188.371 40.314 186.986 42.426 185.486 44.4308C184.199 46.1467 182.9 47.6869 181.57 49.0647L181.569 49.0654C180.596 50.0751 179.606 50.9983 178.597 51.8362C178.597 51.8362 178.596 51.8374 178.595 51.8376C177.635 52.6366 176.66 53.3587 175.66 54.0122C173.792 55.2348 171.79 56.2403 169.695 57.01L170.208 57.6355C172.267 56.858 174.235 55.8565 176.078 54.6524C176.458 54.4045 176.834 54.1463 177.207 53.8783C178.883 52.6763 180.496 51.2711 182.07 49.6455L182.071 49.6443C183.111 48.5719 184.134 47.399 185.143 46.1252C185.145 46.1245 185.145 46.123 185.145 46.123C185.464 45.7228 185.781 45.3111 186.097 44.8888C188.139 42.1656 189.957 39.2509 191.685 36.3377C191.722 36.2767 191.757 36.216 191.794 36.1539L191.775 36.1315L191.307 35.5636Z" fill="#FF6464"/>
</g>
</g>
</g>
<mask id="mask38_1170_1010" style="mask-type:luminance" maskUnits="userSpaceOnUse" x="167" y="38" width="32" height="23">
<path d="M167.435 49.2415L194.18 38.6065L198.577 49.6632L171.831 60.2982L167.435 49.2415Z" fill="white"/>
</mask>
<g mask="url(#mask38_1170_1010)">
<mask id="mask39_1170_1010" style="mask-type:luminance" maskUnits="userSpaceOnUse" x="136" y="-22" width="127" height="134">
<path d="M136.028 25.5722L201.313 -21.2774L262.982 64.6132L197.697 111.463L136.028 25.5722Z" fill="white"/>
</mask>
<g mask="url(#mask39_1170_1010)">
<mask id="mask40_1170_1010" style="mask-type:luminance" maskUnits="userSpaceOnUse" x="136" y="-22" width="127" height="134">
<path d="M136.028 25.5722L201.313 -21.2774L262.982 64.6132L197.697 111.463L136.028 25.5722Z" fill="white"/>
</mask>
<g mask="url(#mask40_1170_1010)">
<path d="M193.942 38.7698C192.908 41.0729 191.701 43.2495 190.348 45.2634C190.348 45.2634 190.346 45.2646 190.348 45.266C188.794 47.5771 187.047 49.6726 185.143 51.4943C181.165 55.3039 176.51 57.9788 171.58 59.3058L171.998 59.8128C172.008 59.8258 172.054 59.8741 172.127 59.9448C175.559 58.9774 178.852 57.3723 181.879 55.1999C183.197 54.2534 184.465 53.2015 185.67 52.0468C186.225 51.5152 186.766 50.9626 187.294 50.3863L187.295 50.3851C187.297 50.3845 187.297 50.3832 187.298 50.382C188.632 48.9286 189.876 47.3399 191.016 45.638C191.016 45.6359 191.017 45.6349 191.018 45.6326L191.019 45.6317C192.314 43.7005 193.475 41.6211 194.481 39.4277L193.975 38.811L193.942 38.7698Z" fill="#FF6464"/>
</g>
</g>
</g>
<mask id="mask41_1170_1010" style="mask-type:luminance" maskUnits="userSpaceOnUse" x="170" y="41" width="32" height="23">
<path d="M170.422 52.2678L196.888 41.7442L201.34 52.9409L174.874 63.4645L170.422 52.2678Z" fill="white"/>
</mask>
<g mask="url(#mask41_1170_1010)">
<mask id="mask42_1170_1010" style="mask-type:luminance" maskUnits="userSpaceOnUse" x="136" y="-22" width="127" height="134">
<path d="M136.028 25.5722L201.313 -21.2774L262.982 64.6132L197.697 111.463L136.028 25.5722Z" fill="white"/>
</mask>
<g mask="url(#mask42_1170_1010)">
<mask id="mask43_1170_1010" style="mask-type:luminance" maskUnits="userSpaceOnUse" x="136" y="-22" width="127" height="134">
<path d="M136.028 25.5722L201.313 -21.2774L262.982 64.6132L197.697 111.463L136.028 25.5722Z" fill="white"/>
</mask>
<g mask="url(#mask43_1170_1010)">
<path d="M195.688 44.2222C195.687 44.2234 195.688 44.2248 195.687 44.2253C195.686 44.2273 195.685 44.2285 195.684 44.2301C195.028 45.6473 194.193 47.0551 193.18 48.448C193.153 48.4861 193.123 48.5237 193.097 48.5622C191.464 50.7836 189.425 52.9377 186.487 55.5465C184.725 57.1125 182.601 58.8943 180.199 60.2376C178.272 61.3158 176.361 62.0021 174.5 62.2875C174.695 62.5116 174.888 62.7235 175.084 62.9227L175.117 62.958C175.848 62.8185 176.587 62.621 177.327 62.3677C178.402 61.9992 179.485 61.5115 180.57 60.9041C181.459 60.4078 182.308 59.8547 183.116 59.2744C184.548 58.2465 185.849 57.1375 186.996 56.1183C188.462 54.816 189.709 53.6218 190.796 52.4769C190.798 52.4762 190.798 52.4736 190.798 52.4734L190.8 52.4719C191.919 51.2932 192.868 50.1632 193.712 49.0133C193.755 48.9571 193.796 48.899 193.837 48.8428C193.837 48.8428 193.837 48.8418 193.837 48.8413C195.325 46.786 196.443 44.6919 197.175 42.5829C196.981 42.3558 196.785 42.1303 196.596 41.9131C196.347 42.6837 196.045 43.4545 195.688 44.2222Z" fill="#FF6464"/>
</g>
</g>
</g>
<mask id="mask44_1170_1010" style="mask-type:luminance" maskUnits="userSpaceOnUse" x="172" y="43" width="31" height="23">
<path d="M172.125 53.6975L198.171 43.3409L202.79 54.9575L176.744 65.3141L172.125 53.6975Z" fill="white"/>
</mask>
<g mask="url(#mask44_1170_1010)">
<mask id="mask45_1170_1010" style="mask-type:luminance" maskUnits="userSpaceOnUse" x="136" y="-22" width="127" height="134">
<path d="M136.027 25.5722L201.312 -21.2774L262.981 64.6132L197.696 111.463L136.027 25.5722Z" fill="white"/>
</mask>
<g mask="url(#mask45_1170_1010)">
<mask id="mask46_1170_1010" style="mask-type:luminance" maskUnits="userSpaceOnUse" x="136" y="-22" width="127" height="134">
<path d="M136.027 25.5722L201.312 -21.2774L262.981 64.6132L197.696 111.463L136.027 25.5722Z" fill="white"/>
</mask>
<g mask="url(#mask46_1170_1010)">
<path d="M191.367 53.3485C189.149 55.9854 186.858 58.7112 184.049 60.7809C181.528 62.6455 178.798 63.7402 176.21 63.9548C176.516 64.2016 176.823 64.421 177.13 64.613L177.131 64.6144C179.521 64.251 181.983 63.2061 184.286 61.5541C184.358 61.5021 184.431 61.4497 184.502 61.3966C187.384 59.2726 189.706 56.5093 191.95 53.8401C194.216 51.146 196.903 47.9503 198.489 44.2819C198.352 44.0664 198.174 43.818 197.971 43.5545C196.492 47.2551 193.8 50.4553 191.367 53.3485Z" fill="#FF6464"/>
</g>
</g>
</g>
<mask id="mask47_1170_1010" style="mask-type:luminance" maskUnits="userSpaceOnUse" x="166" y="37" width="32" height="23">
<path d="M166.569 48.2888L193.455 37.5982L197.852 48.6549L170.966 59.3456L166.569 48.2888Z" fill="white"/>
</mask>
<g mask="url(#mask47_1170_1010)">
<mask id="mask48_1170_1010" style="mask-type:luminance" maskUnits="userSpaceOnUse" x="136" y="-22" width="127" height="134">
<path d="M136.028 25.5722L201.313 -21.2774L262.982 64.6132L197.697 111.463L136.028 25.5722Z" fill="white"/>
</mask>
<g mask="url(#mask48_1170_1010)">
<mask id="mask49_1170_1010" style="mask-type:luminance" maskUnits="userSpaceOnUse" x="136" y="-22" width="127" height="134">
<path d="M136.028 25.5722L201.313 -21.2774L262.982 64.6132L197.697 111.463L136.028 25.5722Z" fill="white"/>
</mask>
<g mask="url(#mask49_1170_1010)">
<path d="M193.334 38.0292L193.168 37.8273C192.835 38.5366 192.435 39.2494 191.973 39.968C190.766 41.848 189.267 43.5703 187.812 45.2386C187.628 45.4526 187.44 45.6656 187.254 45.8803C185.551 47.8348 183.794 49.8301 181.983 51.7142C180.276 53.4906 178.776 54.8816 177.001 55.8962C176.141 56.3878 175.229 56.7781 174.293 57.1091C173.097 57.5309 171.86 57.8536 170.642 58.1621L170.93 58.5123L171.177 58.8141C173.289 58.2745 175.44 57.6692 177.379 56.5601C177.837 56.2972 178.275 56.0153 178.703 55.7082C180.01 54.7702 181.214 53.6181 182.533 52.2446C184.558 50.1398 186.504 47.9031 188.392 45.7393C189.768 44.157 191.193 42.5241 192.385 40.737C192.385 40.7344 192.386 40.734 192.386 40.734C192.464 40.6164 192.541 40.4989 192.618 40.3803C193.026 39.7434 193.387 39.1097 193.702 38.4797L193.701 38.4783L193.42 38.1346L193.334 38.0292Z" fill="#FF6464"/>
</g>
</g>
</g>
<mask id="mask50_1170_1010" style="mask-type:luminance" maskUnits="userSpaceOnUse" x="160" y="32" width="27" height="21">
<path d="M160.82 41.1733L182.525 32.5429L186.922 43.5996L165.217 52.2301L160.82 41.1733Z" fill="white"/>
</mask>
<g mask="url(#mask50_1170_1010)">
<mask id="mask51_1170_1010" style="mask-type:luminance" maskUnits="userSpaceOnUse" x="136" y="-22" width="127" height="134">
<path d="M136.027 25.572L201.312 -21.2777L262.981 64.613L197.696 111.463L136.027 25.572Z" fill="white"/>
</mask>
<g mask="url(#mask51_1170_1010)">
<mask id="mask52_1170_1010" style="mask-type:luminance" maskUnits="userSpaceOnUse" x="136" y="-22" width="127" height="134">
<path d="M136.027 25.572L201.312 -21.2777L262.981 64.613L197.696 111.463L136.027 25.572Z" fill="white"/>
</mask>
<g mask="url(#mask52_1170_1010)">
<path d="M181.951 33.0084C180.958 35.8352 179.836 38.3114 178.562 40.4704C178.491 40.5925 178.417 40.715 178.344 40.8353C177.969 41.4533 177.58 42.0458 177.178 42.6106L177.177 42.611C177.154 42.6463 177.129 42.6806 177.104 42.7141C176.362 43.748 175.578 44.695 174.744 45.5584C174.743 45.5596 174.743 45.5596 174.741 45.56C174.731 45.5718 174.719 45.5835 174.708 45.5955C172.516 47.8577 169.949 49.5353 167.272 50.507C167.265 50.5102 167.261 50.5111 167.256 50.5125C166.479 50.7955 165.694 51.0165 164.904 51.1755L165.063 51.3681L165.449 51.8396C166.151 51.6819 166.85 51.4731 167.542 51.2225C167.546 51.2197 167.551 51.2185 167.555 51.2173C169.192 50.6198 170.787 49.7709 172.283 48.6967C173.326 47.9481 174.324 47.0874 175.258 46.1266C175.26 46.1252 175.26 46.1226 175.263 46.1208L175.264 46.1196C176.246 45.1048 177.165 43.9791 178.022 42.7379C178.329 42.2935 178.63 41.8321 178.922 41.3551L178.922 41.3549C179.002 41.2239 179.081 41.0941 179.16 40.961C179.418 40.5267 179.669 40.0815 179.914 39.6235C180.048 39.373 180.181 39.1181 180.312 38.8609C181.172 37.1641 181.956 35.3006 182.673 33.2608C182.742 33.0623 182.638 32.8443 182.439 32.774C182.24 32.705 182.02 32.8088 181.951 33.0084Z" fill="#FF6464"/>
</g>
</g>
</g>
<mask id="mask53_1170_1010" style="mask-type:luminance" maskUnits="userSpaceOnUse" x="160" y="31" width="32" height="19">
<path d="M160.396 42.9629L188.543 31.7711L191.325 38.7691L163.179 49.9608L160.396 42.9629Z" fill="white"/>
</mask>
<g mask="url(#mask53_1170_1010)">
<mask id="mask54_1170_1010" style="mask-type:luminance" maskUnits="userSpaceOnUse" x="136" y="-22" width="127" height="134">
<path d="M136.027 25.5722L201.312 -21.2774L262.981 64.6132L197.696 111.463L136.027 25.5722Z" fill="white"/>
</mask>
<g mask="url(#mask54_1170_1010)">
<mask id="mask55_1170_1010" style="mask-type:luminance" maskUnits="userSpaceOnUse" x="136" y="-22" width="127" height="134">
<path d="M136.027 25.5722L201.312 -21.2774L262.981 64.6132L197.696 111.463L136.027 25.5722Z" fill="white"/>
</mask>
<g mask="url(#mask55_1170_1010)">
<path d="M188.333 31.9438C188.07 32.2448 187.8 32.542 187.527 32.8356C187.098 33.2961 186.657 33.7455 186.207 34.1879C186.207 34.1886 186.207 34.1886 186.206 34.1907C185.349 35.0357 184.462 35.8478 183.556 36.6363L183.551 36.6393C183.551 36.6414 183.55 36.6422 183.549 36.6428C183.402 36.7708 183.256 36.8967 183.108 37.0239C183.105 37.0255 183.104 37.0267 183.102 37.0292L183.099 37.032C182.052 37.9264 180.986 38.7871 179.913 39.6238C179.52 39.9326 179.126 40.2365 178.733 40.5376C178.603 40.6359 178.475 40.7364 178.343 40.8356C177.57 41.4223 176.76 42.0307 175.913 42.6309C175.912 42.6336 175.91 42.6333 175.91 42.6333C175.908 42.6364 175.906 42.638 175.904 42.6376L175.882 42.6534C174.057 43.9494 172.068 45.2204 169.944 46.2293C167.445 47.4158 165.009 48.1184 162.67 48.3322C162.828 48.5733 162.998 48.8128 163.175 49.047C164.975 48.8402 166.828 48.356 168.715 47.6006C168.715 47.6006 168.717 47.601 168.718 47.5984C169.234 47.3929 169.752 47.1663 170.273 46.9191C172.436 45.8906 174.456 44.6004 176.303 43.2906L176.321 43.2777C176.416 43.2123 176.508 43.1459 176.599 43.0805C176.769 42.9583 176.937 42.836 177.104 42.7145C177.732 42.2562 178.338 41.8007 178.921 41.3555L178.922 41.3553C179.015 41.2842 179.106 41.2138 179.197 41.1447C179.766 40.7088 180.336 40.2667 180.905 39.8171C181.982 38.966 183.054 38.0873 184.103 37.1728C184.105 37.1732 184.104 37.1723 184.105 37.1714C184.702 36.6526 185.291 36.1202 185.868 35.5748C186.652 34.8369 187.416 34.0769 188.148 33.2863C188.378 33.042 188.603 32.7942 188.825 32.5427L188.662 32.3455L188.333 31.9438Z" fill="#FF6464"/>
</g>
</g>
</g>
<mask id="mask56_1170_1010" style="mask-type:luminance" maskUnits="userSpaceOnUse" x="148" y="17" width="46" height="36">
<path d="M148.528 32.2837L184.936 17.8068L193.061 38.2407L156.654 52.7177L148.528 32.2837Z" fill="white"/>
</mask>
<g mask="url(#mask56_1170_1010)">
<mask id="mask57_1170_1010" style="mask-type:luminance" maskUnits="userSpaceOnUse" x="136" y="-22" width="127" height="134">
<path d="M136.027 25.5722L201.312 -21.2774L262.981 64.6132L197.696 111.463L136.027 25.5722Z" fill="white"/>
</mask>
<g mask="url(#mask57_1170_1010)">
<mask id="mask58_1170_1010" style="mask-type:luminance" maskUnits="userSpaceOnUse" x="136" y="-22" width="127" height="134">
<path d="M136.027 25.5722L201.312 -21.2774L262.981 64.6132L197.696 111.463L136.027 25.5722Z" fill="white"/>
</mask>
<g mask="url(#mask58_1170_1010)">
<path d="M155.144 40.1519C152.394 46.1802 154.829 51.7678 162.146 50.2042C171.53 48.1956 191.699 31.2903 186.759 22.7982C180.91 12.7473 158.745 32.2632 155.144 40.1519Z" fill="#B0715C"/>
</g>
</g>
</g>
<mask id="mask59_1170_1010" style="mask-type:luminance" maskUnits="userSpaceOnUse" x="147" y="17" width="46" height="36">
<path d="M147.97 31.6953L184.518 17.1627L192.643 37.5967L156.095 52.1293L147.97 31.6953Z" fill="white"/>
</mask>
<g mask="url(#mask59_1170_1010)">
<mask id="mask60_1170_1010" style="mask-type:luminance" maskUnits="userSpaceOnUse" x="136" y="-22" width="127" height="134">
<path d="M136.027 25.5722L201.312 -21.2774L262.981 64.6132L197.696 111.463L136.027 25.5722Z" fill="white"/>
</mask>
<g mask="url(#mask60_1170_1010)">
<mask id="mask61_1170_1010" style="mask-type:luminance" maskUnits="userSpaceOnUse" x="136" y="-22" width="127" height="134">
<path d="M136.027 25.5722L201.312 -21.2774L262.981 64.6132L197.696 111.463L136.027 25.5722Z" fill="white"/>
</mask>
<g mask="url(#mask61_1170_1010)">
<path d="M154.706 39.5409C151.956 45.5694 154.39 51.157 161.708 49.5934C171.092 47.5848 191.26 30.6795 186.32 22.1874C180.472 12.136 158.307 31.6524 154.706 39.5409Z" fill="#EA967A"/>
</g>
</g>
</g>
<mask id="mask62_1170_1010" style="mask-type:luminance" maskUnits="userSpaceOnUse" x="159" y="25" width="20" height="16">
<path d="M159.555 31.4651L174.958 25.3402L178.408 34.0177L163.005 40.1425L159.555 31.4651Z" fill="white"/>
</mask>
<g mask="url(#mask62_1170_1010)">
<mask id="mask63_1170_1010" style="mask-type:luminance" maskUnits="userSpaceOnUse" x="136" y="-22" width="127" height="134">
<path d="M136.027 25.572L201.312 -21.2777L262.981 64.613L197.696 111.463L136.027 25.572Z" fill="white"/>
</mask>
<g mask="url(#mask63_1170_1010)">
<mask id="mask64_1170_1010" style="mask-type:luminance" maskUnits="userSpaceOnUse" x="136" y="-22" width="127" height="134">
<path d="M136.027 25.572L201.312 -21.2777L262.981 64.613L197.696 111.463L136.027 25.572Z" fill="white"/>
</mask>
<g mask="url(#mask64_1170_1010)">
<path d="M162.357 34.8162C161.196 37.3598 162.224 39.7186 165.312 39.0581C169.272 38.2102 177.784 31.076 175.699 27.4919C173.231 23.2504 163.876 31.4865 162.357 34.8162Z" fill="#B0715C"/>
</g>
</g>
</g>
<mask id="mask65_1170_1010" style="mask-type:luminance" maskUnits="userSpaceOnUse" x="173" y="44" width="31" height="23">
<path d="M173.887 54.4561L198.812 44.5449L203.598 56.5814L178.673 66.4925L173.887 54.4561Z" fill="white"/>
</mask>
<g mask="url(#mask65_1170_1010)">
<mask id="mask66_1170_1010" style="mask-type:luminance" maskUnits="userSpaceOnUse" x="136" y="-22" width="127" height="134">
<path d="M136.028 25.5722L201.313 -21.2774L262.982 64.6132L197.697 111.463L136.028 25.5722Z" fill="white"/>
</mask>
<g mask="url(#mask66_1170_1010)">
<mask id="mask67_1170_1010" style="mask-type:luminance" maskUnits="userSpaceOnUse" x="136" y="-22" width="127" height="134">
<path d="M136.028 25.5722L201.313 -21.2774L262.982 64.6132L197.697 111.463L136.028 25.5722Z" fill="white"/>
</mask>
<g mask="url(#mask67_1170_1010)">
<path d="M194.578 55.5678C192.38 58.003 189.625 59.9236 186.991 61.6832C183.93 63.7298 181.085 64.8962 178.325 65.2318L180.084 65.6938C182.439 65.142 184.858 64.0268 187.417 62.3179C188.254 61.7577 189.103 61.1833 189.946 60.5785C191.79 59.2551 193.595 57.7957 195.144 56.079C197.516 53.4496 198.923 50.3055 199.325 46.7349C199.328 46.723 199.329 46.7095 199.331 46.6967C199.29 46.4793 199.238 46.2624 199.179 46.0428C199.083 45.6832 198.964 45.3197 198.819 44.9539C198.786 44.8738 198.752 44.7922 198.718 44.7124C198.687 45.3582 198.64 46.0059 198.566 46.6504C198.177 50.1059 196.873 53.0222 194.578 55.5678Z" fill="#FF6464"/>
</g>
</g>
</g>
<mask id="mask68_1170_1010" style="mask-type:luminance" maskUnits="userSpaceOnUse" x="168" y="0" width="27" height="57">
<path d="M168.351 2.19604L172.411 0.581311L194.06 55.0252L189.999 56.64L168.351 2.19604Z" fill="white"/>
</mask>
<g mask="url(#mask68_1170_1010)">
<mask id="mask69_1170_1010" style="mask-type:luminance" maskUnits="userSpaceOnUse" x="136" y="-22" width="127" height="134">
<path d="M136.028 25.5722L201.313 -21.2774L262.982 64.6132L197.697 111.463L136.028 25.5722Z" fill="white"/>
</mask>
<g mask="url(#mask69_1170_1010)">
<mask id="mask70_1170_1010" style="mask-type:luminance" maskUnits="userSpaceOnUse" x="136" y="-22" width="127" height="134">
<path d="M136.028 25.5722L201.313 -21.2774L262.982 64.6132L197.697 111.463L136.028 25.5722Z" fill="white"/>
</mask>
<g mask="url(#mask70_1170_1010)">
<path d="M171.011 3.23298C171.416 3.92667 171.737 4.66555 172.03 5.41279C172.036 5.42832 172.042 5.44417 172.048 5.45948C172.338 6.20147 172.637 6.95113 172.795 7.73417C172.825 7.87637 172.986 8.47532 172.782 8.56759C172.656 8.62548 172.468 8.41404 172.396 8.34081C172.153 8.09834 171.951 7.81225 171.762 7.52781C171.254 6.75985 170.767 5.95412 170.321 5.13885C170.11 4.75243 169.877 4.36204 169.71 3.95386C169.601 3.68411 169.5 3.32063 169.684 3.05841C169.743 2.97363 169.837 2.92223 169.928 2.87378C170.041 2.81313 170.158 2.75206 170.285 2.72957C170.608 2.67204 170.865 2.9802 171.011 3.23298ZM169.524 1.76184C168.903 2.06016 168.641 2.8056 168.94 3.42688L193.728 54.9859C193.748 55.0256 193.795 55.0434 193.836 55.0266C193.878 55.0074 193.898 54.9582 193.879 54.9164L171.211 2.39226C171.204 2.37848 171.196 2.35956 171.19 2.34556C170.891 1.72505 170.146 1.46351 169.524 1.76184Z" fill="black"/>
</g>
</g>
</g>
<mask id="mask71_1170_1010" style="mask-type:luminance" maskUnits="userSpaceOnUse" x="170" y="40" width="32" height="25">
<path d="M170.257 51.0369L196.162 40.736L201.338 53.7521L175.432 64.053L170.257 51.0369Z" fill="white"/>
</mask>
<g mask="url(#mask71_1170_1010)">
<mask id="mask72_1170_1010" style="mask-type:luminance" maskUnits="userSpaceOnUse" x="136" y="-22" width="127" height="134">
<path d="M136.028 25.5722L201.313 -21.2774L262.982 64.6132L197.697 111.463L136.028 25.5722Z" fill="white"/>
</mask>
<g mask="url(#mask72_1170_1010)">
<mask id="mask73_1170_1010" style="mask-type:luminance" maskUnits="userSpaceOnUse" x="136" y="-22" width="127" height="134">
<path d="M136.028 25.5722L201.313 -21.2774L262.982 64.6132L197.697 111.463L136.028 25.5722Z" fill="white"/>
</mask>
<g mask="url(#mask73_1170_1010)">
<path d="M193.179 48.448C192.484 49.8669 191.688 51.2134 190.8 52.4719L190.798 52.4733C190.797 52.4736 190.797 52.4762 190.796 52.4768C190.476 52.93 190.145 53.3698 189.802 53.7988C186.49 57.9339 182.085 60.9317 177.327 62.3677C176.587 62.5923 175.839 62.7776 175.084 62.9227L175.116 62.958C175.327 63.1729 175.539 63.3764 175.749 63.5654L175.751 63.5669C179.028 62.8523 182.19 61.4187 185.013 59.3924C187 57.9666 188.82 56.247 190.399 54.2775C191.72 52.6279 192.87 50.8015 193.836 48.8428C193.836 48.8428 193.837 48.8418 193.837 48.8413C194.561 47.3736 195.18 45.8309 195.684 44.23C195.684 44.2285 195.686 44.2273 195.686 44.2252C195.687 44.2248 195.686 44.2234 195.688 44.2222C195.953 43.3904 196.188 42.5437 196.389 41.6822C196.159 41.4223 195.946 41.1828 195.768 40.9777C195.19 43.6088 194.319 46.1238 193.179 48.448Z" fill="#FF6464"/>
</g>
</g>
</g>
<mask id="mask74_1170_1010" style="mask-type:luminance" maskUnits="userSpaceOnUse" x="172" y="43" width="31" height="23">
<path d="M172.63 53.335L198.115 43.2011L202.957 55.3775L177.472 65.5114L172.63 53.335Z" fill="white"/>
</mask>
<g mask="url(#mask74_1170_1010)">
<mask id="mask75_1170_1010" style="mask-type:luminance" maskUnits="userSpaceOnUse" x="136" y="-22" width="127" height="134">
<path d="M136.028 25.5722L201.313 -21.2774L262.982 64.6132L197.697 111.463L136.028 25.5722Z" fill="white"/>
</mask>
<g mask="url(#mask75_1170_1010)">
<mask id="mask76_1170_1010" style="mask-type:luminance" maskUnits="userSpaceOnUse" x="136" y="-22" width="127" height="134">
<path d="M136.028 25.5722L201.313 -21.2774L262.982 64.6132L197.697 111.463L136.028 25.5722Z" fill="white"/>
</mask>
<g mask="url(#mask76_1170_1010)">
<path d="M197.818 43.3588C197.171 46.7753 195.745 50.1475 193.67 53.1032C191.079 56.7925 187.449 59.9334 183.173 62.1888C181.26 63.199 179.244 64.0216 177.171 64.6383C177.486 64.836 177.802 65.0034 178.118 65.1439C179.983 64.5419 181.799 63.777 183.529 62.8641C184.856 62.1642 186.122 61.3825 187.316 60.5251C190.068 58.5503 192.44 56.1819 194.294 53.5425C196.294 50.6966 197.707 47.4746 198.427 44.1872C198.302 43.994 198.146 43.7803 197.972 43.5547C197.923 43.4913 197.87 43.4248 197.818 43.3588Z" fill="#FF6464"/>
</g>
</g>
</g>
<mask id="mask77_1170_1010" style="mask-type:luminance" maskUnits="userSpaceOnUse" x="167" y="37" width="32" height="25">
<path d="M167.576 48.3745L193.762 37.9623L198.882 50.8385L172.696 61.2507L167.576 48.3745Z" fill="white"/>
</mask>
<g mask="url(#mask77_1170_1010)">
<mask id="mask78_1170_1010" style="mask-type:luminance" maskUnits="userSpaceOnUse" x="136" y="-22" width="127" height="134">
<path d="M136.028 25.572L201.313 -21.2777L262.982 64.613L197.697 111.463L136.028 25.572Z" fill="white"/>
</mask>
<g mask="url(#mask78_1170_1010)">
<mask id="mask79_1170_1010" style="mask-type:luminance" maskUnits="userSpaceOnUse" x="136" y="-22" width="127" height="134">
<path d="M136.028 25.572L201.313 -21.2777L262.982 64.613L197.697 111.463L136.028 25.572Z" fill="white"/>
</mask>
<g mask="url(#mask79_1170_1010)">
<path d="M193.94 38.768L193.701 38.4793L193.7 38.4779L193.42 38.1342C193.084 38.9996 192.742 39.8689 192.386 40.7336C192.386 40.7336 192.385 40.734 192.384 40.7366C191.8 42.1624 191.18 43.5797 190.503 44.9545C190.451 45.0592 190.401 45.1616 190.348 45.263C190.348 45.263 190.346 45.2642 190.348 45.2656C189.387 47.1804 188.376 48.8785 187.298 50.3816C187.297 50.3828 187.297 50.3841 187.295 50.3847L187.294 50.3859C186.29 51.786 185.226 53.014 184.095 54.0918C180.845 57.1848 176.681 59.2879 172.268 60.0859C172.439 60.2549 172.674 60.4849 172.928 60.7347L172.929 60.7361C176.23 60.0618 179.384 58.678 182.121 56.7141C183 56.0828 183.836 55.3926 184.621 54.6453C187.031 52.3517 189.123 49.4038 191.016 45.6376C191.016 45.6355 191.017 45.6345 191.018 45.6323L191.019 45.6313C191.075 45.5201 191.132 45.4051 191.189 45.2921C192.225 43.1844 193.125 40.9891 193.975 38.8106L193.942 38.7694L193.94 38.768Z" fill="#FF6464"/>
</g>
</g>
</g>
<mask id="mask80_1170_1010" style="mask-type:luminance" maskUnits="userSpaceOnUse" x="164" y="35" width="32" height="22">
<path d="M164.81 46.7192L191.975 35.9172L195.76 45.4344L168.594 56.2364L164.81 46.7192Z" fill="white"/>
</mask>
<g mask="url(#mask80_1170_1010)">
<mask id="mask81_1170_1010" style="mask-type:luminance" maskUnits="userSpaceOnUse" x="136" y="-22" width="127" height="134">
<path d="M136.027 25.5722L201.312 -21.2774L262.981 64.6132L197.696 111.463L136.027 25.5722Z" fill="white"/>
</mask>
<g mask="url(#mask81_1170_1010)">
<mask id="mask82_1170_1010" style="mask-type:luminance" maskUnits="userSpaceOnUse" x="136" y="-22" width="127" height="134">
<path d="M136.027 25.5722L201.312 -21.2774L262.981 64.6132L197.696 111.463L136.027 25.5722Z" fill="white"/>
</mask>
<g mask="url(#mask82_1170_1010)">
<path d="M191.774 36.1313C191.744 36.1995 191.714 36.2683 191.684 36.3375C190.901 38.0929 189.983 39.9812 188.847 41.7043C187.813 43.2731 186.576 44.7489 185.144 46.1228C185.144 46.1228 185.144 46.1243 185.142 46.125C184.061 47.1619 182.87 48.144 181.569 49.0646L181.568 49.0652C180.439 49.866 179.227 50.6195 177.937 51.329C177.295 51.679 176.646 52.0137 175.992 52.3288C174.987 52.8171 173.971 53.2643 172.96 53.6733C172.513 53.856 172.069 54.0313 171.626 54.1972C171.625 54.1977 171.622 54.1974 171.621 54.1986C171.62 54.1989 171.62 54.1989 171.619 54.2001L171.617 54.2013C171.616 54.2017 171.616 54.2017 171.615 54.2029C170.499 54.6257 169.399 55.0076 168.335 55.3541L168.561 55.6295L168.853 55.985C169.004 55.9377 169.156 55.8867 169.307 55.8367C169.307 55.8367 169.308 55.8355 169.31 55.8349C170.616 55.3971 171.968 54.9053 173.33 54.3485C174.995 53.6679 176.676 52.8913 178.305 51.9992C178.402 51.9454 178.499 51.8919 178.594 51.8374C178.596 51.8368 178.596 51.836 178.596 51.836C179.826 51.1493 180.986 50.418 182.069 49.6453L182.07 49.6441C182.108 49.6189 182.146 49.5925 182.183 49.5658C182.734 49.1699 183.265 48.7643 183.777 48.3473L183.779 48.3467C185.91 46.6141 187.709 44.6952 189.156 42.6109C189.157 42.6088 189.157 42.6088 189.157 42.608C189.269 42.4483 189.378 42.2865 189.484 42.1259C190.62 40.4041 191.536 38.5363 192.316 36.7915L191.792 36.1537L191.774 36.1313Z" fill="#FF6464"/>
</g>
</g>
</g>
<mask id="mask83_1170_1010" style="mask-type:luminance" maskUnits="userSpaceOnUse" x="168" y="40" width="32" height="23">
<path d="M168.942 50.5869L195.408 40.0633L199.972 51.5399L173.506 62.0635L168.942 50.5869Z" fill="white"/>
</mask>
<g mask="url(#mask83_1170_1010)">
<mask id="mask84_1170_1010" style="mask-type:luminance" maskUnits="userSpaceOnUse" x="136" y="-22" width="127" height="134">
<path d="M136.028 25.5722L201.313 -21.2774L262.982 64.6132L197.697 111.463L136.028 25.5722Z" fill="white"/>
</mask>
<g mask="url(#mask84_1170_1010)">
<mask id="mask85_1170_1010" style="mask-type:luminance" maskUnits="userSpaceOnUse" x="136" y="-22" width="127" height="134">
<path d="M136.028 25.5722L201.313 -21.2774L262.982 64.6132L197.697 111.463L136.028 25.5722Z" fill="white"/>
</mask>
<g mask="url(#mask85_1170_1010)">
<path d="M195.159 40.2523C192.418 46.8323 187.822 52.6404 182.032 56.7953C181.968 56.8409 181.904 56.8848 181.84 56.9313C178.756 59.114 175.878 60.423 173.095 60.899C173.321 61.12 173.554 61.3472 173.76 61.5509C176.489 60.9876 179.297 59.6678 182.282 57.5545C182.347 57.5075 182.412 57.4621 182.477 57.4153C188.274 53.2552 192.9 47.4668 195.71 40.9101L195.709 40.9092C195.596 40.7813 195.502 40.67 195.427 40.5788L195.159 40.2523Z" fill="#FF6464"/>
</g>
</g>
</g>
<mask id="mask86_1170_1010" style="mask-type:luminance" maskUnits="userSpaceOnUse" x="8" y="30" width="60" height="38">
<path d="M8.71387 51.9546L57.5773 30.9218L67.9022 45.9827L19.0388 67.0155L8.71387 51.9546Z" fill="white"/>
</mask>
<g mask="url(#mask86_1170_1010)">
<path d="M62.7628 38.4717L59.3184 33.4472L53.029 36.1545C47.5128 36.557 40.3854 38.3855 33.1852 41.4849C25.9855 44.5841 20.1701 48.3269 16.7418 51.7746L10.4893 54.466L13.657 59.0868C13.7267 59.2316 13.8053 59.372 13.899 59.5087C16.7405 63.6537 29.983 62.306 43.4768 56.4975C56.971 50.6888 65.6061 42.6192 62.7645 38.4742L62.7628 38.4717Z" fill="#62B8AF"/>
</g>
<mask id="mask87_1170_1010" style="mask-type:luminance" maskUnits="userSpaceOnUse" x="5" y="26" width="60" height="37">
<path d="M5.39941 47.0537L54.2602 26.0213L64.5544 41.0377L15.6936 62.0701L5.39941 47.0537Z" fill="white"/>
</mask>
<g mask="url(#mask87_1170_1010)">
<path d="M59.4185 33.5267C62.2601 37.6718 53.6253 45.7418 40.1311 51.5505C26.6373 57.359 13.3945 58.7063 10.553 54.5612C7.71074 50.4152 16.3458 42.3464 29.8395 36.5379C43.3338 30.7292 56.5763 29.3806 59.4185 33.5267Z" fill="#62B8AF"/>
</g>
<path d="M31.6621 39.1437C40.7274 35.1576 49.8029 34.2014 53.0928 36.7001C53.0147 36.3597 52.8788 36.0369 52.6763 35.7375C50.3361 32.2779 40.3935 33.0128 30.4673 37.3775C20.5415 41.7419 14.3912 48.0832 16.7314 51.5428C16.934 51.8422 17.1974 52.109 17.5106 52.346C16.685 48.7637 22.5969 43.1298 31.6621 39.1437Z" fill="black"/>
<path d="M37.4866 47.754C22.7509 55.0018 15.2852 52.6116 15.2852 52.6116C15.2852 52.6116 22.7766 55.3796 38.09 48.6461C56.0512 40.7483 54.5737 35.336 54.5737 35.336C54.6591 38.0712 52.2228 40.5061 37.4866 47.754Z" fill="#62B8AF"/>
<path d="M32.2811 41.3938C32.6404 41.925 31.2483 43.0967 29.171 44.0101C27.0926 44.924 25.1171 45.2331 24.7578 44.7019C24.3989 44.1714 25.7912 43.0001 27.8696 42.0862C29.947 41.1728 31.9222 40.8633 32.2811 41.3938Z" fill="black"/>
<path d="M34.1409 45.7467C34.6549 46.5064 33.013 48.0263 30.4734 49.143C27.9338 50.2597 25.4597 50.5496 24.9458 49.7899C24.4328 49.0315 26.0747 47.5113 28.6143 46.3946C31.1539 45.2779 33.628 44.9883 34.1409 45.7467Z" fill="black"/>
<path d="M41.7541 37.2286C42.1134 37.7598 40.6584 38.9591 38.5038 39.9065C36.3499 40.8536 34.3114 41.1904 33.9521 40.6592C33.5932 40.1286 35.0485 38.9297 37.2024 37.9826C39.357 37.0352 41.3952 36.698 41.7541 37.2286Z" fill="black"/>
<path d="M45.8431 40.6011C46.357 41.3609 44.7153 42.8808 42.1758 43.9974C39.6363 45.1141 37.1618 45.4041 36.6479 44.6444C36.1349 43.886 37.7772 42.3656 40.3167 41.249C42.8562 40.1323 45.3301 39.8428 45.8431 40.6011Z" fill="black"/>
<mask id="mask88_1170_1010" style="mask-type:luminance" maskUnits="userSpaceOnUse" x="284" y="44" width="51" height="50">
<path d="M292.531 44.2617L334.457 77.0065L326.211 93.2985L284.285 60.5538L292.531 44.2617Z" fill="white"/>
</mask>
<g mask="url(#mask88_1170_1010)">
<path d="M330.328 85.1824L333.08 79.7473L327.683 75.5326C324.679 70.8885 319.651 65.5167 313.473 60.6917C307.295 55.867 301.218 52.5656 296.547 51.2159L291.182 47.0259L288.652 52.0243C288.559 52.1551 288.473 52.2915 288.398 52.4393C286.129 56.9231 293.674 67.8888 305.253 76.9312C316.831 85.974 328.057 89.6689 330.327 85.1851L330.328 85.1824Z" fill="#62B8AF"/>
</g>
<mask id="mask89_1170_1010" style="mask-type:luminance" maskUnits="userSpaceOnUse" x="287" y="39" width="51" height="49">
<path d="M295.234 39L337.159 71.7427L328.937 87.9864L287.012 55.2437L295.234 39Z" fill="white"/>
</mask>
<g mask="url(#mask89_1170_1010)">
<path d="M333.055 79.8729C330.785 84.3567 319.559 80.6622 307.98 71.6195C296.402 62.577 288.857 51.6109 291.126 47.1271C293.396 42.6422 304.622 46.3375 316.2 55.3799C327.779 64.4227 335.325 75.388 333.055 79.8729Z" fill="#62B8AF"/>
</g>
<path d="M314.792 58.2308C322.644 64.2653 327.844 71.7648 327.233 75.8506C327.494 75.6186 327.712 75.3443 327.877 75.0228C329.787 71.308 324.365 62.9418 315.767 56.3342C307.17 49.7269 298.653 47.3805 296.744 51.0952C296.578 51.4168 296.471 51.7759 296.414 52.1645C299.158 49.7191 306.94 52.1963 314.792 58.2308Z" fill="black"/>
<path d="M310.04 67.4762C296.603 58.0362 295.111 50.3403 295.111 50.3403C295.111 50.3403 296.284 58.2402 309.548 68.434C325.105 80.3902 329.141 76.4937 329.141 76.4937C326.784 77.883 323.478 76.9165 310.04 67.4762Z" fill="#62B8AF"/>
<path d="M313.116 59.8542C312.822 60.4245 311.126 59.7667 309.327 58.3839C307.526 57.0004 306.306 55.4164 306.599 54.8461C306.892 54.2764 308.588 54.9346 310.389 56.3181C312.188 57.7009 313.408 59.2845 313.116 59.8542Z" fill="black"/>
<path d="M309.723 63.5959C309.304 64.4117 307.182 63.7022 304.982 62.0117C302.782 60.3211 301.339 58.2907 301.758 57.4749C302.177 56.6607 304.299 57.37 306.499 59.0606C308.699 60.7511 310.141 62.7817 309.723 63.5959Z" fill="black"/>
<path d="M321.321 66.1607C321.028 66.7311 319.277 66.0314 317.41 64.5972C315.545 63.1634 314.27 61.5375 314.563 60.9672C314.856 60.3975 316.607 61.0976 318.472 62.5314C320.339 63.9656 321.614 65.5911 321.321 66.1607Z" fill="black"/>
<path d="M320.329 71.3672C319.91 72.1829 317.788 71.4736 315.589 69.7831C313.389 68.0926 311.946 66.062 312.365 65.2462C312.783 64.4319 314.906 65.1415 317.106 66.832C319.305 68.5224 320.748 70.5529 320.329 71.3672Z" fill="black"/>
<mask id="mask90_1170_1010" style="mask-type:luminance" maskUnits="userSpaceOnUse" x="314" y="29" width="48" height="20">
<path d="M315.702 31.3955L361.552 29.454L359.861 46.6046L314.012 48.5461L315.702 31.3955Z" fill="white"/>
</mask>
<g mask="url(#mask90_1170_1010)">
<path d="M360.712 38.0529L361.276 32.331L355.374 32.5809C351.349 31.0246 345.383 30.1918 338.627 30.4779C331.871 30.764 325.691 32.1111 321.323 34.0228L315.456 34.2712L314.937 39.5334C314.901 39.6881 314.873 39.8418 314.858 39.9974C314.392 44.7179 324.279 48.1106 336.942 47.5744C349.604 47.0382 360.247 42.7762 360.712 38.0558L360.712 38.0529Z" fill="#FF6464"/>
</g>
<mask id="mask91_1170_1010" style="mask-type:luminance" maskUnits="userSpaceOnUse" x="314" y="24" width="49" height="20">
<path d="M316.205 26.2305L362.055 24.289L360.369 41.3897L314.519 43.3312L316.205 26.2305Z" fill="white"/>
</mask>
<g mask="url(#mask91_1170_1010)">
<path d="M361.222 32.8407C360.756 37.5611 350.114 41.8236 337.452 42.3598C324.789 42.896 314.902 39.5028 315.367 34.7824C315.833 30.0608 326.474 25.7995 339.137 25.2633C351.799 24.7271 361.687 28.1191 361.222 32.8407Z" fill="#FF6464"/>
</g>
<path d="M338.787 28.6544C347.543 28.2836 354.539 30.4286 355.416 33.5656C355.559 33.258 355.651 32.9464 355.682 32.6325C356.039 29.0062 348.556 26.397 338.969 26.803C329.383 27.209 321.322 30.4763 320.965 34.1027C320.934 34.4165 320.966 34.7229 321.05 35.0209C322.553 31.7832 330.032 29.0252 338.787 28.6544Z" fill="black"/>
<path d="M337.905 37.7099C323.229 38.9452 319.326 34.5503 319.326 34.5503C319.326 34.5503 323.027 39.2663 337.814 38.6439C355.157 37.9138 357.263 32.9534 357.263 32.9534C355.729 35.2463 352.582 36.4746 337.905 37.7099Z" fill="#FF6464"/>
<path d="M337.918 30.7161C337.863 31.2731 336.192 31.7946 334.186 31.8798C332.178 31.9651 330.596 31.5818 330.651 31.0247C330.705 30.4683 332.377 29.9473 334.384 29.862C336.391 29.7768 337.973 30.1596 337.918 30.7161Z" fill="black"/>
<path d="M336.704 34.9492C336.626 35.7464 334.574 36.4762 332.121 36.5806C329.667 36.685 327.742 36.1243 327.821 35.3271C327.899 34.5315 329.951 33.8014 332.405 33.697C334.858 33.5926 336.783 34.1536 336.704 34.9492Z" fill="black"/>
<path d="M347.061 30.338C347.006 30.895 345.274 31.419 343.193 31.5073C341.113 31.5956 339.47 31.215 339.525 30.6579C339.58 30.1015 341.311 29.578 343.392 29.4897C345.473 29.4013 347.116 29.7816 347.061 30.338Z" fill="black"/>
<path d="M348 34.4822C347.922 35.2793 345.87 36.0092 343.417 36.1135C340.963 36.2179 339.038 35.6572 339.117 34.8601C339.195 34.0645 341.247 33.3343 343.701 33.23C346.154 33.1256 348.079 33.6866 348 34.4822Z" fill="black"/>
<mask id="mask92_1170_1010" style="mask-type:luminance" maskUnits="userSpaceOnUse" x="48" y="38" width="61" height="38">
<path d="M58.1162 38.2275L108.028 58.2088L97.9718 75.7164L48.0602 55.7351L58.1162 38.2275Z" fill="white"/>
</mask>
<g mask="url(#mask92_1170_1010)">
<path d="M102.996 66.9913L106.351 61.1502L99.9264 58.5782C96.3745 54.9791 90.403 51.2201 83.0479 48.2755C75.6933 45.3312 68.4434 43.7973 62.8584 43.7385L56.4713 41.1816L53.3858 46.5533C53.2724 46.7009 53.1687 46.8517 53.0774 47.0106C50.3097 51.8292 59.2395 60.2096 73.0236 65.7278C86.8082 71.2463 100.227 71.8128 102.995 66.9942L102.996 66.9913Z" fill="#FF6464"/>
</g>
<mask id="mask93_1170_1010" style="mask-type:luminance" maskUnits="userSpaceOnUse" x="51" y="32" width="61" height="39">
<path d="M61.1377 32.9521L111.05 52.9337L101.023 70.3903L51.1109 50.4088L61.1377 32.9521Z" fill="white"/>
</mask>
<g mask="url(#mask93_1170_1010)">
<path d="M106.046 61.6683C103.278 66.4869 89.859 65.9209 76.0744 60.4024C62.2903 54.8841 53.3607 46.5033 56.1285 41.6847C58.8969 36.8648 72.3146 37.4318 86.0987 42.9501C99.8833 48.4686 108.814 56.8484 106.046 61.6683Z" fill="#FF6464"/>
</g>
<path d="M84.0949 46.4044C93.6262 50.2201 100.068 55.8769 99.4959 59.6498C99.7967 59.3901 100.045 59.1013 100.229 58.7809C102.354 55.0788 95.6166 48.6924 85.1801 44.5144C74.7442 40.3365 64.5619 39.9493 62.4363 43.6514C62.2523 43.9718 62.1384 44.3142 62.0847 44.6729C65.2477 41.9372 74.5638 42.5888 84.0949 46.4044Z" fill="black"/>
<path d="M78.7977 55.6534C62.5258 49.913 60.4707 43.3408 60.4707 43.3408C60.4707 43.3408 62.1557 50.159 78.2504 56.6069C97.1279 64.1697 101.764 59.8837 101.764 59.8837C99.0227 61.5956 95.0701 61.3939 78.7977 55.6534Z" fill="#FF6464"/>
<path d="M82.1751 48.1883C81.8485 48.757 79.8126 48.5101 77.6281 47.6359C75.4423 46.7612 73.9368 45.5908 74.2634 45.0221C74.5896 44.454 76.6252 44.7013 78.8109 45.576C80.9955 46.4502 82.5013 47.6202 82.1751 48.1883Z" fill="black"/>
<path d="M78.8431 52.1272C78.3757 52.9409 75.833 52.7336 73.1619 51.6649C70.4907 50.5962 68.7044 49.0713 69.1717 48.2576C69.6381 47.4454 72.1813 47.6525 74.8524 48.7212C77.5235 49.7899 79.3095 51.3149 78.8431 52.1272Z" fill="black"/>
<path d="M92.1242 52.1832C91.7976 52.7519 89.6956 52.4785 87.4299 51.5717C85.1648 50.6652 83.5931 49.4683 83.9197 48.8997C84.2458 48.3317 86.3476 48.6055 88.6126 49.512C90.8784 50.4188 92.4504 51.6152 92.1242 52.1832Z" fill="black"/>
<path d="M91.1341 57.0617C90.6667 57.8755 88.1241 57.6682 85.4531 56.5996C82.7821 55.5309 80.9954 54.0059 81.4627 53.1921C81.9292 52.3799 84.4726 52.5872 87.1437 53.6559C89.8147 54.7246 91.6005 56.2495 91.1341 57.0617Z" fill="black"/>
</svg>
