<svg width="339" height="339" viewBox="0 0 339 339" fill="none" xmlns="http://www.w3.org/2000/svg">
<circle cx="169.5" cy="169.5" r="169.5" fill="white"/>
<rect x="161" y="189" width="16" height="30" fill="#FFB125"/>
<path d="M161 189H177V198C177 200.761 174.761 203 172 203H166C163.239 203 161 200.761 161 198V189Z" fill="#FF901D"/>
<path d="M177 219L161 219L161 214L177 214L177 219Z" fill="#FF901D"/>
<path d="M149 224C149 221.239 151.239 219 154 219H186C188.761 219 191 221.239 191 224V235H149V224Z" fill="#FFB125"/>
<path d="M133 240C133 237.239 135.239 235 138 235H202C204.761 235 207 237.239 207 240V251H133V240Z" fill="#FF901D"/>
<path d="M133 240C133 237.239 135.239 235 138 235H156V251H133V240Z" fill="#F07B01"/>
<mask id="mask0_2148_285" style="mask-type:luminance" maskUnits="userSpaceOnUse" x="85" y="98" width="63" height="64">
<path d="M89 100.855H87V102.855V157.211V159.211H89H143.355H145.355V157.211V102.855V100.855H143.355H89Z" fill="white" stroke="white" stroke-width="4"/>
</mask>
<g mask="url(#mask0_2148_285)">
<path d="M87 130.033C87 146.065 100.054 159.211 116.178 159.211C132.206 159.211 145.355 146.157 145.355 130.033C145.355 113.913 132.297 100.855 116.178 100.855C100.054 100.855 87 114.001 87 130.033ZM92.6768 130.033C92.6768 117.044 103.189 106.532 116.178 106.532C129.083 106.532 139.675 117.048 139.675 130.033C139.675 143.022 129.163 153.534 116.178 153.534C103.189 153.534 92.6768 143.022 92.6768 130.033Z" fill="#FFA504" stroke="#FFA504" stroke-width="4"/>
</g>
<mask id="mask1_2148_285" style="mask-type:luminance" maskUnits="userSpaceOnUse" x="191" y="98" width="63" height="64">
<path d="M195.578 100.855H193.578V102.855V157.211V159.211H195.578H249.933H251.933V157.211V102.855V100.855H249.933H195.578Z" fill="white" stroke="white" stroke-width="4"/>
</mask>
<g mask="url(#mask1_2148_285)">
<path d="M193.578 130.033C193.578 146.065 206.632 159.211 222.756 159.211C238.784 159.211 251.933 146.157 251.933 130.033C251.933 113.913 238.876 100.855 222.756 100.855C206.632 100.855 193.578 114.001 193.578 130.033ZM199.255 130.033C199.255 117.044 209.767 106.532 222.756 106.532C235.661 106.532 246.253 117.048 246.253 130.033C246.253 143.022 235.741 153.534 222.756 153.534C209.767 153.534 199.255 143.022 199.255 130.033Z" fill="#FFB125" stroke="#FFB125" stroke-width="4"/>
</g>
<path d="M117 89H223V146C223 173.614 200.614 196 173 196H167C139.386 196 117 173.614 117 146V89Z" fill="#FED130"/>
<path d="M117 89H170V196H167C139.386 196 117 173.614 117 146V89Z" fill="#F7BC14"/>
</svg>
