<svg xmlns="http://www.w3.org/2000/svg" xmlns:xlink="http://www.w3.org/1999/xlink" width="938" zoomAndPan="magnify" viewBox="0 0 703.5 884.999995" height="1180" preserveAspectRatio="xMidYMid meet" version="1.0"><defs><clipPath id="1f6ad2e943"><path d="M 37.875 37.8125 L 665.625 37.8125 L 665.625 847.8125 L 37.875 847.8125 Z M 37.875 37.8125 " clip-rule="nonzero"/></clipPath></defs><g clip-path="url(#1f6ad2e943)"><path fill="#000000" d="M 665.625 786.539062 C 665.625 570.453125 524.984375 395.386719 351.75 395.386719 C 178.515625 395.386719 37.875 570.453125 37.875 786.539062 C 37.875 820.234375 178.515625 847.703125 351.75 847.703125 C 524.984375 847.703125 665.625 820.234375 665.625 786.539062 Z M 351.75 37.925781 C 446.242188 37.925781 522.789062 114.472656 522.789062 208.964844 C 522.789062 303.457031 446.242188 380.003906 351.75 380.003906 C 257.257812 380.003906 180.710938 303.457031 180.710938 208.964844 C 180.710938 114.472656 257.257812 37.925781 351.75 37.925781 Z M 351.75 37.925781 " fill-opacity="1" fill-rule="evenodd"/></g></svg>