<svg width="40" height="51" viewBox="0 0 40 51" fill="none" xmlns="http://www.w3.org/2000/svg">
<path d="M29.0909 7.55553V5.63713C29.0909 4.21395 28.5162 2.84905 27.4933 1.8427C26.4704 0.836355 25.083 0.270996 23.6364 0.270996H16.3636C14.917 0.270996 13.5296 0.836355 12.5067 1.8427C11.4838 2.84905 10.9091 4.21395 10.9091 5.63713V7.55553C7.882 7.98959 5.11451 9.48008 3.11176 11.7549C1.109 14.0298 0.00455521 16.9373 0 19.9468V46.7775C0 47.7263 0.383116 48.6362 1.06507 49.3071C1.74702 49.978 2.67194 50.3549 3.63636 50.3549H36.3636C37.3281 50.3549 38.253 49.978 38.9349 49.3071C39.6169 48.6362 40 47.7263 40 46.7775V19.9468C39.9954 16.9373 38.891 14.0298 36.8882 11.7549C34.8855 9.48008 32.118 7.98959 29.0909 7.55553ZM16.3636 3.84842H23.6364C24.1186 3.84842 24.581 4.03687 24.922 4.37232C25.263 4.70777 25.4545 5.16274 25.4545 5.63713V7.42585H14.5455V5.63713C14.5455 5.16274 14.737 4.70777 15.078 4.37232C15.419 4.03687 15.8814 3.84842 16.3636 3.84842ZM29.0909 34.2565H10.9091V32.4678C10.9091 31.9934 11.1006 31.5385 11.4416 31.203C11.7826 30.8676 12.2451 30.6791 12.7273 30.6791H27.2727C27.7549 30.6791 28.2174 30.8676 28.5584 31.203C28.8994 31.5385 29.0909 31.9934 29.0909 32.4678V34.2565ZM10.9091 37.834H21.8182V39.6227C21.8182 40.0971 22.0097 40.552 22.3507 40.8875C22.6917 41.2229 23.1542 41.4114 23.6364 41.4114C24.1186 41.4114 24.581 41.2229 24.922 40.8875C25.263 40.552 25.4545 40.0971 25.4545 39.6227V37.834H29.0909V46.7775H10.9091V37.834ZM36.3636 46.7775H32.7273V32.4678C32.7273 31.0446 32.1526 29.6797 31.1297 28.6734C30.1067 27.667 28.7194 27.1017 27.2727 27.1017H12.7273C11.2806 27.1017 9.89325 27.667 8.87033 28.6734C7.8474 29.6797 7.27273 31.0446 7.27273 32.4678V46.7775H3.63636V19.9468C3.63636 17.5749 4.59415 15.3 6.29903 13.6228C8.00391 11.9455 10.3162 11.0033 12.7273 11.0033H27.2727C29.6838 11.0033 31.9961 11.9455 33.701 13.6228C35.4058 15.3 36.3636 17.5749 36.3636 19.9468V46.7775ZM25.4545 18.1581C25.4545 18.6325 25.263 19.0875 24.922 19.4229C24.581 19.7584 24.1186 19.9468 23.6364 19.9468H16.3636C15.8814 19.9468 15.419 19.7584 15.078 19.4229C14.737 19.0875 14.5455 18.6325 14.5455 18.1581C14.5455 17.6837 14.737 17.2288 15.078 16.8933C15.419 16.5579 15.8814 16.3694 16.3636 16.3694H23.6364C24.1186 16.3694 24.581 16.5579 24.922 16.8933C25.263 17.2288 25.4545 17.6837 25.4545 18.1581Z" fill="url(#paint0_linear_356_125)"/>
<defs>
<linearGradient id="paint0_linear_356_125" x1="20" y1="0.270996" x2="20" y2="50.3549" gradientUnits="userSpaceOnUse">
<stop stop-color="#FF6464"/>
<stop offset="1" stop-color="#FF6464"/>
</linearGradient>
</defs>
</svg>
